<?xml version="1.0" encoding="utf-8"?>
<!-- Generator: Adobe Illustrator 23.0.1, SVG Export Plug-In . SVG Version: 6.00 Build 0)  -->
<svg version="1.1" id="Layer_1" xmlns="http://www.w3.org/2000/svg" xmlns:xlink="http://www.w3.org/1999/xlink" x="0px" y="0px"
	 viewBox="0 0 540 400" style="enable-background:new 0 0 540 400;" xml:space="preserve">
<style type="text/css">
	.st0{display:none;}
	.st1{display:inline;opacity:0.1;fill:#6C63FF;enable-background:new    ;}
	.st2{opacity:0.1;fill:#6C63FF;enable-background:new    ;}
	.st3{fill:#FFFFFF;}
	.st4{opacity:0.2;fill:#1988C5;}
	.st5{opacity:0.2;}
	.st6{fill:#1988C5;}
	.st7{opacity:0.3;fill:#1988C5;}
	.st8{opacity:0.3;}
	.st9{opacity:0.4;fill:#1988C5;}
	.st10{fill:#1988C5;fill-opacity:0.3;}
	.st11{fill:#A5ADB9;}
	.st12{fill:#D2DBEA;}
	.st13{fill:#E0E0E0;stroke:#49566A;stroke-miterlimit:10;}
	.st14{fill:#FFFFFF;stroke:#49566A;stroke-miterlimit:10;}
	.st15{fill:#282C3B;}
	.st16{fill:#FAC3AD;}
	.st17{fill:#33305B;}
	.st18{fill:#1F894A;}
	.st19{fill:#7B2C19;}
	.st20{fill:#C6C6C6;}
	.st21{fill:#F2F4F0;}
	.st22{fill:#32E37F;}
	.st23{fill:#FCB240;}
</style>
<g class="st0">
	<path class="st1" d="M105.1,159.9c6.1,27.6,19,51.5,39.4,63c42.4,24,137.9,11.6,209.2-2.6c36.9-7.4,69.3-27.7,92.9-56.3
		L105.1,159.9z"/>
	<path class="st1" d="M479.1,30h-39.1c-1.9,0-3.4-1.6-3.4-3.6s1.5-3.6,3.4-3.6h6.8c-1.9,0-3.4-1.6-3.4-3.6s1.5-3.6,3.4-3.6h-4.8
		c-1.9,0-3.4-1.6-3.4-3.6s1.5-3.6,3.4-3.6h20.4c-4.5-2.2-9.8-3.8-15.9-4.6c-55.7-7.6-75.6-2.6-82.6,2.6c-8.7,6.5-18.4,11-28.6,13.3
		c-34.4,7.5-98.6,16.5-156.9-2.9c-28.9-9.7-50.5,6.7-63.4,34h370.9c-0.5-7.9-1.9-15.3-4.6-21.7C480.6,29.7,479.9,30,479.1,30z"/>
	<path class="st1" d="M101.8,102.3c-1.5,16.1-1,32.3,1.5,48.1l343.5,13.3c9.5-11.5,17.5-24.5,23.9-38.6L101.8,102.3z M237.6,136.7
		h-6.8c1.9,0,3.4,1.6,3.4,3.6c0,2-1.5,3.6-3.4,3.6h-39.1c-1.9,0-3.4-1.6-3.4-3.6c0-2,1.5-3.6,3.4-3.6h6.8c-1.9,0-3.4-1.6-3.4-3.6
		c0-2,1.5-3.6,3.4-3.6h-4.8c-1.9,0-3.4-1.6-3.4-3.6c0-2,1.5-3.6,3.4-3.6h39.1c1.9,0,3.4,1.6,3.4,3.6c0,2-1.5,3.6-3.4,3.6h4.8
		c1.9,0,3.4,1.6,3.4,3.6C241,135.1,239.5,136.7,237.6,136.7z"/>
	<path class="st1" d="M487.4,58.5l-375.2-4.9c-5,12.2-8.6,26.2-10.6,40.7l373.1,21.8c2.8-8.4,9.1-24.2,10.6-33.1
		C486.8,74.5,487.6,66.2,487.4,58.5z M178.5,78.2l-6.8-0.3c1.9,0.1,3.3,1.7,3.2,3.7s-1.7,3.5-3.5,3.4l-39.1-1.5
		c-1.9-0.1-3.3-1.7-3.2-3.7c0.1-2,1.7-3.5,3.5-3.4l6.8,0.3c-1.9-0.1-3.3-1.7-3.2-3.7c0.1-2,1.7-3.5,3.5-3.4l-4.8-0.2
		c-1.9-0.1-3.3-1.7-3.2-3.7s1.7-3.5,3.5-3.4l39.1,1.5c1.9,0.1,3.3,1.7,3.2,3.7s-1.7,3.5-3.5,3.4l4.8,0.2c1.9,0.1,3.3,1.7,3.2,3.7
		S180.4,78.3,178.5,78.2z"/>
</g>
<g id="background">
	<path class="st2" d="M60.9,131.7h39v53.1H63.7c-0.1,0.5-0.2,1.1-0.3,1.6h36.4v42.8c-0.1,0-0.1,0-0.2-0.1c-1-0.4-2.1-0.8-3.1-1.3
		l-0.7-0.3c-1-0.5-2.1-1-3.1-1.5c-0.4-0.2-0.7-0.4-1.1-0.6c-5.7-3.2-10.9-7.2-15.3-11.9c-0.1-0.1-0.3-0.3-0.4-0.4
		c-0.6-0.7-1.2-1.4-1.8-2.1l-0.7-0.8c-0.7-0.8-1.4-1.7-2-2.6c-0.1-0.1-0.2-0.3-0.3-0.4c-2.7-3.7-4.9-7.7-6.6-11.9
		c-0.1-0.1-0.1-0.3-0.2-0.4c-0.5-1.3-1-2.7-1.4-4.1c-0.2-0.6-0.3-1.2-0.5-1.8c-0.1-0.2-0.1-0.4-0.1-0.5c-2.2-8.5-2.4-17.3-2.4-26.1
		c0-1,0-2,0-3.1c0-3.6,0-7.1,0.1-10.7c0-0.9,0-1.8,0.1-2.8c0.1-2.4,0.1-4.7,0.2-7.1c0-0.7,0.1-1.3,0.1-2c0-0.4,0-0.8,0.1-1.1
		C60.7,134.4,60.8,133,60.9,131.7z"/>
	<g>
		<path class="st3" d="M99.9,72.5H78.5c3.5-5.4,7.3-10.7,11.4-15.7c3.2-3.9,6.5-7.7,10-11.4L99.9,72.5z"/>
		<path class="st4" d="M99.9,72.5H78.5c3.5-5.4,7.3-10.7,11.4-15.7c3.2-3.9,6.5-7.7,10-11.4L99.9,72.5z"/>
	</g>
	<g>
		<path class="st3" d="M99.9,74.2V130H61c0-0.2,0-0.3,0-0.5c0-0.4,0.1-0.9,0.1-1.3c0-0.5,0.1-1,0.1-1.6c0-0.5,0.1-1.1,0.2-1.7
			s0.1-1.1,0.2-1.7s0.1-1.1,0.2-1.7c0.1-0.6,0.1-1.1,0.2-1.7c0.1-0.5,0.1-0.9,0.2-1.4c0.1-0.6,0.2-1.3,0.3-1.9c0-0.1,0-0.2,0-0.3
			c0.7-4.7,1.7-9.4,2.9-14c1.3-4.8,2.9-9.6,4.8-14.2c2.1-4.8,4.5-9.5,7.2-14L99.9,74.2z"/>
		<path class="st4" d="M99.9,74.2V130H61c0-0.2,0-0.3,0-0.5c0-0.4,0.1-0.9,0.1-1.3c0-0.5,0.1-1,0.1-1.6c0-0.5,0.1-1.1,0.2-1.7
			s0.1-1.1,0.2-1.7s0.1-1.1,0.2-1.7c0.1-0.6,0.1-1.1,0.2-1.7c0.1-0.5,0.1-0.9,0.2-1.4c0.1-0.6,0.2-1.3,0.3-1.9c0-0.1,0-0.2,0-0.3
			c0.7-4.7,1.7-9.4,2.9-14c1.3-4.8,2.9-9.6,4.8-14.2c2.1-4.8,4.5-9.5,7.2-14L99.9,74.2z"/>
	</g>
	<g>
		<path class="st3" d="M109.2,131.7v53.1h83.2v-53.1H109.2z M109.2,186.4v45.6c0.5,0.1,0.9,0.2,1.4,0.3c0.6,0.1,1.3,0.2,1.9,0.3
			c0.1,0,0.3,0,0.4,0.1c0.3,0,0.5,0.1,0.8,0.1c0.6,0.1,1.3,0.2,1.9,0.2l0.9,0.1l0.7,0.1l0,0c0.4,0,0.8,0.1,1.2,0.1
			c0.2,0,0.5,0,0.7,0h0.6h0.7c0.3,0,0.7,0,1,0h0.4c0.3,0,0.7,0,1,0l0,0l0,0c0.2,0,0.5,0,0.7,0c0.1,0,0.1,0,0.2,0c0.2,0,0.4,0,0.6,0
			h0.1l1.3-0.1c0.4,0,0.8-0.1,1.3-0.1l0.9-0.1c3.6-0.5,7.1-1.2,10.5-2.2c7.8-2.2,15.3-5.2,23.1-7.4c10.1-2.9,21.2-4.3,30.9-0.8v-36
			H109.2z M192.4,72.5V1.8c-9.1-0.1-18.2,1-27,3.2c-21.1,5.3-40,16.8-56.2,31.4v36.1h4.2v1.6h-4.2V130h83.2V74.2h-61.9v-1.6
			L192.4,72.5z M299.3,48.6c-5.2-0.2-10.4-1.8-15.1-4.4c-9-4.9-16.1-12.4-24.1-18.8c-16.6-13.2-37.2-21.2-58.4-23.2v70.2h118.8
			l0.3-0.3L299.3,48.6z M310.1,46.7l11.5,12.6V43.4C317.8,43.9,314.4,45,310.1,46.7L310.1,46.7z M321.6,243.4v-56.9h-24.5
			c-0.1-0.2-0.1-0.5-0.2-0.7c0.1,0.2,0.1,0.5,0.2,0.7h-95.4v41.2c0.9,0.7,1.8,1.4,2.7,2.1l0,0c1,0.8,1.9,1.6,2.9,2.4l1,0.8
			c0.5,0.4,0.9,0.8,1.4,1.1c0.9,0.7,1.9,1.5,2.8,2.2c0.5,0.4,0.9,0.7,1.4,1.1c7.5,5.7,15.4,10.9,23.7,15.5c1.9,1,3.7,2,5.6,3
			c1.3,0.6,2.5,1.3,3.8,1.9c1.9,0.9,3.8,1.8,5.8,2.7l0,0c17.8,8,36.7,13.5,56.1,16.3c4.3,0.6,8.6,1.1,12.9,1.5V243.4h0.4H321.6z
			 M201.7,74.2V130h119.9V74.2H201.7z M201.7,131.7v53.1h119.9v-53.1H201.7z M330.9,43.3v17.8L345.6,45
			C340.7,44.2,335.9,43.7,330.9,43.3z M330.9,131.7v53.1h116.6v-53.1H330.9z M447.2,247.6l0.4-61.2H330.9v92.4
			c7.5,0.3,15,0.2,22.5-0.3l0,0h0.1c3.6-0.2,7.1-0.6,10.7-1h0.1c18.9-2.2,37.5-7.1,55-14.7 M470.1,140.4c-0.4-1-0.9-2.1-1.4-3.1
			c-0.8-1.9-1.8-3.8-2.7-5.6h-9.1v53.1h23C479.9,169.7,476.1,154.4,470.1,140.4L470.1,140.4z M456.9,186.5V239
			c6.5-6.2,12-13.3,15.9-21.4c4.7-9.8,6.9-20.4,7.1-31.2L456.9,186.5z M456.9,116.2v13.8h8.2C462.6,125.3,459.9,120.6,456.9,116.2
			L456.9,116.2z M377.8,53.7c-0.6-0.2-1.2-0.5-1.8-0.7c-6.4-2.4-13-4.4-19.7-5.9l-22.4,24.6l0,0l-0.4,0.5l0.3,0.3h79.8
			C402.4,64.8,390.4,58.6,377.8,53.7z M415.8,74.2h-83.2l-1.6,1.5V130h14.3l0,0l0,0h102.3v-26.3C438.3,92.5,427.6,82.6,415.8,74.2
			L415.8,74.2z"/>
		<g class="st5">
			<path class="st6" d="M109.2,131.7v53.1h83.2v-53.1H109.2z M109.2,186.4v45.6c0.5,0.1,0.9,0.2,1.4,0.3c0.6,0.1,1.3,0.2,1.9,0.3
				c0.1,0,0.3,0,0.4,0.1c0.3,0,0.5,0.1,0.8,0.1c0.6,0.1,1.3,0.2,1.9,0.2l0.9,0.1l0.7,0.1l0,0c0.4,0,0.8,0.1,1.2,0.1
				c0.2,0,0.5,0,0.7,0h0.6h0.7c0.3,0,0.7,0,1,0h0.4c0.3,0,0.7,0,1,0l0,0l0,0c0.2,0,0.5,0,0.7,0c0.1,0,0.1,0,0.2,0c0.2,0,0.4,0,0.6,0
				h0.1l1.3-0.1c0.4,0,0.8-0.1,1.3-0.1l0.9-0.1c3.6-0.5,7.1-1.2,10.5-2.2c7.8-2.2,15.3-5.2,23.1-7.4c10.1-2.9,21.2-4.3,30.9-0.8v-36
				H109.2z M192.4,72.5V1.8c-9.1-0.1-18.2,1-27,3.2c-21.1,5.3-40,16.8-56.2,31.4v36.1h4.2v1.6h-4.2V130h83.2V74.2h-61.9v-1.6
				L192.4,72.5z M299.3,48.6c-5.2-0.2-10.4-1.8-15.1-4.4c-9-4.9-16.1-12.4-24.1-18.8c-16.6-13.2-37.2-21.2-58.4-23.2v70.2h118.8
				l0.3-0.3L299.3,48.6z M310.1,46.7l11.5,12.6V43.4C317.8,43.9,314.4,45,310.1,46.7L310.1,46.7z M321.6,243.4v-56.9h-24.5
				c-0.1-0.2-0.1-0.5-0.2-0.7c0.1,0.2,0.1,0.5,0.2,0.7h-95.4v41.2c0.9,0.7,1.8,1.4,2.7,2.1l0,0c1,0.8,1.9,1.6,2.9,2.4l1,0.8
				c0.5,0.4,0.9,0.8,1.4,1.1c0.9,0.7,1.9,1.5,2.8,2.2c0.5,0.4,0.9,0.7,1.4,1.1c7.5,5.7,15.4,10.9,23.7,15.5c1.9,1,3.7,2,5.6,3
				c1.3,0.6,2.5,1.3,3.8,1.9c1.9,0.9,3.8,1.8,5.8,2.7l0,0c17.8,8,36.7,13.5,56.1,16.3c4.3,0.6,8.6,1.1,12.9,1.5V243.4h0.4H321.6z
				 M201.7,74.2V130h119.9V74.2H201.7z M201.7,131.7v53.1h119.9v-53.1H201.7z M330.9,43.3v17.8L345.6,45
				C340.7,44.2,335.9,43.7,330.9,43.3z M330.9,131.7v53.1h116.6v-53.1H330.9z M447.2,247.6l0.4-61.2H330.9v92.4
				c7.5,0.3,15,0.2,22.5-0.3l0,0h0.1c3.6-0.2,7.1-0.6,10.7-1h0.1c18.9-2.2,37.5-7.1,55-14.7 M470.1,140.4c-0.4-1-0.9-2.1-1.4-3.1
				c-0.8-1.9-1.8-3.8-2.7-5.6h-9.1v53.1h23C479.9,169.7,476.1,154.4,470.1,140.4L470.1,140.4z M456.9,186.5V239
				c6.5-6.2,12-13.3,15.9-21.4c4.7-9.8,6.9-20.4,7.1-31.2L456.9,186.5z M456.9,116.2v13.8h8.2C462.6,125.3,459.9,120.6,456.9,116.2
				L456.9,116.2z M377.8,53.7c-0.6-0.2-1.2-0.5-1.8-0.7c-6.4-2.4-13-4.4-19.7-5.9l-22.4,24.6l0,0l-0.4,0.5l0.3,0.3h79.8
				C402.4,64.8,390.4,58.6,377.8,53.7z M415.8,74.2h-83.2l-1.6,1.5V130h14.3l0,0l0,0h102.3v-26.3C438.3,92.5,427.6,82.6,415.8,74.2
				L415.8,74.2z"/>
		</g>
	</g>
	<g>
		<path class="st3" d="M99.9,102.3V130H61c0-0.2,0-0.3,0-0.5c0-0.4,0.1-0.9,0.1-1.3c0-0.5,0.1-1,0.1-1.6c0-0.5,0.1-1.1,0.2-1.7
			s0.1-1.1,0.2-1.7s0.1-1.1,0.2-1.7c0.1-0.6,0.1-1.1,0.2-1.7c0.1-0.5,0.1-0.9,0.2-1.4c0.1-0.6,0.2-1.3,0.3-1.9c0-0.1,0-0.2,0-0.3
			c0.7-4.7,1.7-9.4,2.9-14L99.9,102.3z"/>
		<path class="st7" d="M99.9,102.3V130H61c0-0.2,0-0.3,0-0.5c0-0.4,0.1-0.9,0.1-1.3c0-0.5,0.1-1,0.1-1.6c0-0.5,0.1-1.1,0.2-1.7
			s0.1-1.1,0.2-1.7s0.1-1.1,0.2-1.7c0.1-0.6,0.1-1.1,0.2-1.7c0.1-0.5,0.1-0.9,0.2-1.4c0.1-0.6,0.2-1.3,0.3-1.9c0-0.1,0-0.2,0-0.3
			c0.7-4.7,1.7-9.4,2.9-14L99.9,102.3z"/>
	</g>
	<g>
		<path class="st3" d="M60.9,131.7h39v53.1H63.7c-0.1,0.5-0.2,1.1-0.3,1.6h36.4v42.8c-0.1,0-0.1,0-0.2-0.1c-1-0.4-2.1-0.8-3.1-1.3
			l-0.7-0.3c-1-0.5-2.1-1-3.1-1.5c-0.4-0.2-0.7-0.4-1.1-0.6c-5.7-3.2-10.9-7.2-15.3-11.9c-0.1-0.1-0.3-0.3-0.4-0.4
			c-0.6-0.7-1.2-1.4-1.8-2.1l-0.7-0.8c-0.7-0.8-1.4-1.7-2-2.6c-0.1-0.1-0.2-0.3-0.3-0.4c-2.7-3.7-4.9-7.7-6.6-11.9
			c-0.1-0.1-0.1-0.3-0.2-0.4c-0.5-1.3-1-2.7-1.4-4.1c-0.2-0.6-0.3-1.2-0.5-1.8c-0.1-0.2-0.1-0.4-0.1-0.5c-2.2-8.5-2.4-17.3-2.4-26.1
			c0-1,0-2,0-3.1c0-3.6,0-7.1,0.1-10.7c0-0.9,0-1.8,0.1-2.8c0.1-2.4,0.1-4.7,0.2-7.1c0-0.7,0.1-1.3,0.1-2c0-0.4,0-0.8,0.1-1.1
			C60.7,134.4,60.8,133,60.9,131.7z"/>
		<path class="st7" d="M60.9,131.7h39v53.1H63.7c-0.1,0.5-0.2,1.1-0.3,1.6h36.4v42.8c-0.1,0-0.1,0-0.2-0.1c-1-0.4-2.1-0.8-3.1-1.3
			l-0.7-0.3c-1-0.5-2.1-1-3.1-1.5c-0.4-0.2-0.7-0.4-1.1-0.6c-5.7-3.2-10.9-7.2-15.3-11.9c-0.1-0.1-0.3-0.3-0.4-0.4
			c-0.6-0.7-1.2-1.4-1.8-2.1l-0.7-0.8c-0.7-0.8-1.4-1.7-2-2.6c-0.1-0.1-0.2-0.3-0.3-0.4c-2.7-3.7-4.9-7.7-6.6-11.9
			c-0.1-0.1-0.1-0.3-0.2-0.4c-0.5-1.3-1-2.7-1.4-4.1c-0.2-0.6-0.3-1.2-0.5-1.8c-0.1-0.2-0.1-0.4-0.1-0.5c-2.2-8.5-2.4-17.3-2.4-26.1
			c0-1,0-2,0-3.1c0-3.6,0-7.1,0.1-10.7c0-0.9,0-1.8,0.1-2.8c0.1-2.4,0.1-4.7,0.2-7.1c0-0.7,0.1-1.3,0.1-2c0-0.4,0-0.8,0.1-1.1
			C60.7,134.4,60.8,133,60.9,131.7z"/>
	</g>
	<g>
		<polygon class="st3" points="138.5,82.2 138.5,130 109.2,130 109.2,82.2 113.3,82.2 113.3,66 130.5,66 130.5,82.2 		"/>
		<polygon class="st7" points="138.5,82.2 138.5,130 109.2,130 109.2,82.2 113.3,82.2 113.3,66 130.5,66 130.5,82.2 		"/>
	</g>
	<g>
		<rect x="109.2" y="131.7" class="st3" width="29.3" height="53.1"/>
		<rect x="109.2" y="131.7" class="st7" width="29.3" height="53.1"/>
	</g>
	<g>
		<path class="st3" d="M109.2,186.4h29.3v44.2c-3.5,1-7,1.7-10.5,2.2c-0.3,0-0.6,0.1-0.9,0.1c-0.4,0-0.8,0.1-1.3,0.1l-1.3,0.1h-0.1
			c-0.2,0-0.4,0-0.6,0c-0.1,0-0.1,0-0.2,0c-0.2,0-0.5,0-0.7,0l0,0l0,0c-0.3,0-0.7,0-1,0h-0.4c-0.3,0-0.7,0-1,0h-0.7
			c-0.2,0-0.4,0-0.6,0c-0.2,0-0.5,0-0.7,0c-0.4,0-0.8,0-1.2-0.1l0,0l-0.7-0.1l-0.9-0.1c-0.6-0.1-1.3-0.1-1.9-0.2
			c-0.3,0-0.5-0.1-0.8-0.1c-0.1,0-0.3,0-0.4-0.1c-0.6-0.1-1.3-0.2-1.9-0.3c-0.5-0.1-0.9-0.2-1.4-0.3L109.2,186.4z"/>
		<path class="st7" d="M109.2,186.4h29.3v44.2c-3.5,1-7,1.7-10.5,2.2c-0.3,0-0.6,0.1-0.9,0.1c-0.4,0-0.8,0.1-1.3,0.1l-1.3,0.1h-0.1
			c-0.2,0-0.4,0-0.6,0c-0.1,0-0.1,0-0.2,0c-0.2,0-0.5,0-0.7,0l0,0l0,0c-0.3,0-0.7,0-1,0h-0.4c-0.3,0-0.7,0-1,0h-0.7
			c-0.2,0-0.4,0-0.6,0c-0.2,0-0.5,0-0.7,0c-0.4,0-0.8,0-1.2-0.1l0,0l-0.7-0.1l-0.9-0.1c-0.6-0.1-1.3-0.1-1.9-0.2
			c-0.3,0-0.5-0.1-0.8-0.1c-0.1,0-0.3,0-0.4-0.1c-0.6-0.1-1.3-0.2-1.9-0.3c-0.5-0.1-0.9-0.2-1.4-0.3L109.2,186.4z"/>
	</g>
	<g>
		<rect x="297.5" y="76.5" class="st3" width="24.2" height="53.5"/>
		<rect x="297.5" y="76.5" class="st7" width="24.2" height="53.5"/>
	</g>
	<g>
		<polygon class="st3" points="321.6,131.7 321.6,184.8 201.7,184.8 201.7,161.9 265.6,161.9 265.6,175.4 297.5,175.4 297.5,131.7 
					"/>
		<polygon class="st7" points="321.6,131.7 321.6,184.8 201.7,184.8 201.7,161.9 265.6,161.9 265.6,175.4 297.5,175.4 297.5,131.7 
					"/>
	</g>
	<g>
		<path class="st3" d="M322,243.4h-0.4v34.8c-4.3-0.4-8.6-0.9-12.9-1.5c-19.4-2.8-38.2-8.3-56.1-16.4c-5.2-2.3-10.2-4.9-15.1-7.6
			c-8.3-4.6-16.2-9.7-23.7-15.5c-1.9-1.4-3.7-2.9-5.6-4.4c-1.3-1.1-2.5-2.1-3.8-3.2c-0.9-0.7-1.8-1.4-2.7-2.1v-41.2h95.4
			c-0.1-0.2-0.1-0.5-0.2-0.7c0.1,0.2,0.1,0.5,0.2,0.7h24.5v56.9L322,243.4z"/>
		<path class="st7" d="M322,243.4h-0.4v34.8c-4.3-0.4-8.6-0.9-12.9-1.5c-19.4-2.8-38.2-8.3-56.1-16.4c-5.2-2.3-10.2-4.9-15.1-7.6
			c-8.3-4.6-16.2-9.7-23.7-15.5c-1.9-1.4-3.7-2.9-5.6-4.4c-1.3-1.1-2.5-2.1-3.8-3.2c-0.9-0.7-1.8-1.4-2.7-2.1v-41.2h95.4
			c-0.1-0.2-0.1-0.5-0.2-0.7c0.1,0.2,0.1,0.5,0.2,0.7h24.5v56.9L322,243.4z"/>
	</g>
	<g>
		<path class="st3" d="M384.6,72.5h-15.7v-4.9h7.1V53c0.6,0.2,1.2,0.5,1.8,0.7v13.9h6.9V72.5z"/>
		<path class="st7" d="M384.6,72.5h-15.7v-4.9h7.1V53c0.6,0.2,1.2,0.5,1.8,0.7v13.9h6.9V72.5z"/>
	</g>
	<g>
		<polygon class="st3" points="422.6,130 345.3,130 345.3,130 345.3,130 330.9,130 330.9,76.5 335,76.5 335,116.1 353.6,116.1 
			353.6,92.6 368.9,92.6 368.9,74.2 384.6,74.2 384.6,92.6 400,92.6 400,116.1 422.6,116.1 		"/>
		<polygon class="st7" points="422.6,130 345.3,130 345.3,130 345.3,130 330.9,130 330.9,76.5 335,76.5 335,116.1 353.6,116.1 
			353.6,92.6 368.9,92.6 368.9,74.2 384.6,74.2 384.6,92.6 400,92.6 400,116.1 422.6,116.1 		"/>
	</g>
	<g>
		<path class="st3" d="M330.9,131.7v53.1h91.6v-53.1H330.9z M447.4,247.3l0.1-42h-25v-18.9h-91.6v92.4c7.5,0.3,15,0.2,22.5-0.3l0,0
			h0.1c3.6-0.2,7.1-0.6,10.7-1h0.1c18.9-2.2,37.5-7.1,55-14.7"/>
		<g class="st8">
			<path class="st6" d="M330.9,131.7v53.1h91.6v-53.1H330.9z M447.4,247.3l0.1-42h-25v-18.9h-91.6v92.4c7.5,0.3,15,0.2,22.5-0.3l0,0
				h0.1c3.6-0.2,7.1-0.6,10.7-1h0.1c18.9-2.2,37.5-7.1,55-14.7"/>
		</g>
	</g>
	<g>
		<path class="st3" d="M458.5,186.4h21.4c-0.2,10.8-2.4,21.4-7.1,31.2c-3.9,8.1-9.4,15.2-15.9,21.4v-33.8h1.6V186.4z"/>
		<path class="st7" d="M458.5,186.4h21.4c-0.2,10.8-2.4,21.4-7.1,31.2c-3.9,8.1-9.4,15.2-15.9,21.4v-33.8h1.6V186.4z"/>
	</g>
	<g>
		<path class="st3" d="M479.9,184.8h-21.4v-44.4h11.6C476.1,154.4,479.9,169.7,479.9,184.8z"/>
		<path class="st7" d="M479.9,184.8h-21.4v-44.4h11.6C476.1,154.4,479.9,169.7,479.9,184.8z"/>
	</g>
	<g>
		<rect x="308.7" y="91.4" class="st3" width="12.9" height="16.8"/>
		<rect x="308.7" y="91.4" class="st9" width="12.9" height="16.8"/>
	</g>
	<rect x="308.7" y="126.2" class="st2" width="12.9" height="3.9"/>
	<g>
		<rect x="308.7" y="131.7" class="st3" width="12.9" height="11.3"/>
		<rect x="308.7" y="131.7" class="st9" width="12.9" height="11.3"/>
	</g>
	<rect x="308.7" y="160.9" class="st2" width="12.9" height="16.8"/>
	<rect x="308.7" y="195.7" class="st2" width="12.9" height="16.8"/>
	<path class="st2" d="M321.6,243.3l0.4,0L321.6,243.3v3.9h-12.9v-16.8h12.9V243.3z"/>
	<path class="st2" d="M321.6,265.2v13c-4.3-0.4-8.6-0.9-12.9-1.5v-11.4L321.6,265.2z"/>
	<rect x="201.7" y="183.5" class="st2" width="55.5" height="1.2"/>
	<g>
		<rect x="201.7" y="186.4" class="st3" width="55.5" height="4.7"/>
		<rect x="201.7" y="186.4" class="st9" width="55.5" height="4.7"/>
	</g>
	<rect x="201.7" y="206.6" class="st2" width="55.5" height="7.6"/>
	<path class="st2" d="M257.2,229.7v7.6h-43.4c-1.9-1.4-3.7-2.9-5.6-4.4c-1.3-1-2.5-2.1-3.8-3.2L257.2,229.7z"/>
	<path class="st2" d="M257.2,252.8v7.6h-4.6c-5.2-2.3-10.2-4.9-15.1-7.6H257.2z"/>
	<g>
		<rect x="353.5" y="136.8" class="st3" width="10.9" height="10.9"/>
		<rect x="353.5" y="136.8" class="st9" width="10.9" height="10.9"/>
	</g>
	<rect x="117" y="85.9" class="st10" width="10.9" height="10.9"/>
	<rect x="117" y="111.3" class="st10" width="10.9" height="10.9"/>
	<rect x="117" y="136.7" class="st10" width="10.9" height="10.9"/>
	<rect x="117" y="162" class="st10" width="10.9" height="10.9"/>
	<rect x="117" y="187.4" class="st10" width="10.9" height="10.9"/>
	<rect x="117" y="212.8" class="st10" width="10.9" height="10.9"/>
	<g>
		<rect x="395.2" y="136.8" class="st3" width="10.9" height="10.9"/>
		<rect x="395.2" y="136.8" class="st9" width="10.9" height="10.9"/>
	</g>
	<g>
		<rect x="353.5" y="163.7" class="st3" width="10.9" height="10.9"/>
		<rect x="353.5" y="163.7" class="st9" width="10.9" height="10.9"/>
	</g>
	<g>
		<rect x="395.2" y="163.7" class="st3" width="10.9" height="10.9"/>
		<rect x="395.2" y="163.7" class="st9" width="10.9" height="10.9"/>
	</g>
	<g>
		<rect x="353.5" y="190.7" class="st3" width="10.9" height="10.9"/>
		<rect x="353.5" y="190.7" class="st9" width="10.9" height="10.9"/>
	</g>
	<g>
		<rect x="395.2" y="190.7" class="st3" width="10.9" height="10.9"/>
		<rect x="395.2" y="190.7" class="st9" width="10.9" height="10.9"/>
	</g>
	<g>
		<rect x="353.5" y="217.6" class="st3" width="10.9" height="10.9"/>
		<rect x="353.5" y="217.6" class="st9" width="10.9" height="10.9"/>
	</g>
	<g>
		<rect x="395.2" y="217.6" class="st3" width="10.9" height="10.9"/>
		<rect x="395.2" y="217.6" class="st9" width="10.9" height="10.9"/>
	</g>
	<rect x="353.5" y="244.5" class="st2" width="10.9" height="10.9"/>
	<rect x="395.2" y="244.5" class="st2" width="10.9" height="10.9"/>
	<g>
		<polygon class="st3" points="353.5,278.5 353.5,271.5 364.4,271.5 364.4,277.5 		"/>
		<polygon class="st9" points="353.5,278.5 353.5,271.5 364.4,271.5 364.4,277.5 		"/>
	</g>
</g>
<g>
	<g>
		<g>
			<g>
				<rect x="296.5" y="332.3" class="st11" width="5.9" height="46.3"/>
				<rect x="294.7" y="323.9" class="st12" width="9.6" height="8.4"/>
				<rect x="295.9" y="356.4" class="st12" width="7.2" height="18"/>
				<rect x="294.7" y="374.4" class="st12" width="9.6" height="8.4"/>
				<rect x="287.9" y="308.1" class="st11" width="23.2" height="15.9"/>
				<path class="st11" d="M330,315.2h-63.3c-0.4,0-0.7-0.3-0.7-0.7V304c0-0.4,0.3-0.7,0.7-0.7H330c0.4,0,0.7,0.3,0.7,0.7v10.6
					C330.7,314.9,330.4,315.2,330,315.2z"/>
				<polygon class="st11" points="322.5,390.8 304.3,381.8 304.3,375.4 324.9,389.3 				"/>
				<path class="st11" d="M329.2,392.6c0,2.4-1.9,4.3-4.3,4.3c-2.4,0-4.3-1.9-4.3-4.3c0-2.4,1.9-4.3,4.3-4.3
					C327.3,388.3,329.2,390.2,329.2,392.6z"/>
				<path class="st11" d="M303.8,392.6c0,2.4-1.9,4.3-4.3,4.3c-2.4,0-4.3-1.9-4.3-4.3c0-2.4,1.9-4.3,4.3-4.3
					C301.9,388.3,303.8,390.2,303.8,392.6z"/>
				<polygon class="st11" points="276.5,390.8 294.7,381.8 294.7,375.4 274.1,389.3 				"/>
				<path class="st11" d="M269.8,392.6c0,2.4,1.9,4.3,4.3,4.3c2.4,0,4.3-1.9,4.3-4.3c0-2.4-1.9-4.3-4.3-4.3
					C271.7,388.3,269.8,390.2,269.8,392.6z"/>
				<rect x="298.3" y="378.6" class="st11" width="2.3" height="13.9"/>
			</g>
		</g>
		<path class="st13" d="M345,309.9c0,0,5.4-14.3,5.5-55.8c0.1-41.5,10.1-74.1,9.3-77.7h-65.5c0,0-23.7,42.4-26.8,56.9
			c-3.1,14.5-7.4,74-7.4,74L345,309.9z"/>
		<path class="st14" d="M339.5,309.9c0,0,5.4-14.3,5.5-55.8c0.1-41.5,10.1-74.1,9.3-77.7h-65.5c0,0-23.7,42.4-26.8,56.9
			c-3.1,14.5-7.4,74-7.4,74L339.5,309.9z"/>
		<g>
			<polygon class="st13" points="345,309.9 330.7,319.4 330.7,303 344.7,294.2 			"/>
			<rect x="240.8" y="303" class="st14" width="89.9" height="16.4"/>
			<polygon class="st14" points="344.3,294 255,293.5 240.8,303 330.7,303 			"/>
		</g>
	</g>
	<g>
		<polygon class="st15" points="259.7,381.1 257.3,388.6 247.8,396 269.6,396 269.8,378.4 		"/>
		<path class="st16" d="M310.9,147.2c0,0-0.2,1.2,0.3,5.6s2.5,6.6,3.5,8c1.1,1.4,8.3,4.9,10,5.8c0,0-16.6,21.5-28.5,21
			c-22.6-0.9-7.5-22-7.5-22s4-1.9,6.6-4.1c1.6-1.3,2.3-8.8,2.3-8.8L310.9,147.2z"/>
		<path class="st3" d="M295.3,161.6c0,0-5.4,12.1,2.7,13.5c12.8,2.1,16.7-14.2,16.7-14.2l14.1,7.3l5.3,104.4l-63.3-5.7l18-101.1
			L295.3,161.6z"/>
		<g>
			<polygon class="st15" points="229.3,377.9 228,384.2 215.2,396 236.1,396 239.6,379.7 			"/>
			<path class="st17" d="M271.8,259.5c0,0-29,23.9-32.2,31.2c-3.2,7.4-12.2,90.2-12.2,90.2l14.2,3.2c0,0,8.9-39.6,13.6-53.2
				c4.7-13.6,8.5-29.3,8.5-29.3s16.4-6.6,24.6-8.6c33.5-8,26.6-29,26.1-42.4L271.8,259.5z"/>
		</g>
		<g>
			<path class="st17" d="M297.1,263.4c0,0-22.5,16.2-25.7,23.6c-3.2,7.4-14.2,95.4-14.2,95.4L271,383l27.3-83.1c0,0,19-2.8,26.5-6.7
				c13-6.9,9.7-16.3,9.3-29.7H297.1z"/>
		</g>
		<path class="st18" d="M318,162.3c-0.4,0.5-19.3,55.9-12.9,108.1c1.5,12.2,23.7,2.1,29,2.1c0,0,1.8-24.3,2.4-38.7
			c0.6-14.5-5.5-33.9-4.9-40.9c0.6-7.1,8.3-19.7,8.3-19.7L318,162.3z"/>
		<path class="st16" d="M287.8,126.2c-1.7,1.3-4.5,4.1-4.5,5.9c0,1.8-0.1,7.1,0.5,10.2c0.6,3.1,1.4,11,2.3,14.5
			c0.9,3.5,1.8,8.4,2.7,8.9c0.9,0.6,9.5,0,11.3-1.1c1.7-1.1,9.7-10.8,8.6-18.4c0,0,3.6,1.3,5.6-5.9c0.5-1.9-6.2-8.2-7.1-10.3
			c-2.3-5-12.6-2.5-15.4-2.7C288.8,127.2,287.8,126.2,287.8,126.2z"/>
		<path class="st19" d="M283.3,132c0,0,0.8-2.5,2.9-1.7c2.2,0.8,6.6,1,9.9,0.5c3.3-0.6,6.4-2.3,6.4-2.3s0.5,4.7,1.5,5.9
			c1,1.2,3.2,2.5,3.5,4.1c0.3,1.5,0.3,3.1,0.3,3.1s1.8-2.9,3.5-2.5c1.7,0.4,2,3.2,0.4,4.6c-1.5,1.4-3.1,2.5-3.1,2.5s0.2,2.2,0.8,3.8
			c0.5,1.6,1.6,4.4,1.6,4.4s2.7-10.1,5.2-14.4c2.6-4.3,3.2-12.6-2.9-15.1c0,0-0.7-7.7-9-8.3c-8.2-0.6-15.1,2.1-18.6,1.3
			c-3.6-0.8-4.6-1.8-4.6-1.8s-2.4,6.2-0.3,9.9C282.8,129.6,283.3,132,283.3,132z"/>
		<path class="st19" d="M285.1,151.3c0.5,1.8,1,3.3,2.2,3c1.3-0.3,1.4-1.7,4.3-2c2.9-0.4,5.2,1.6,7.2,2c2,0.3,6.4-4.5,7.1-8.7
			c0.6-4.2,0.9-8.2,0.9-8.2l1.5,1.3c0,0-0.2,7.5,0.1,11.9c0.3,4.4-1.4,10.9-6.2,13.9c-4.8,3-12.2,2.6-13.7,1.3
			c-1.5-1.3-2.1-6.3-2.9-8.4C284.8,155.2,285.1,151.3,285.1,151.3z"/>
		<path class="st15" d="M308.6,138.2c-0.1-0.6-3-0.9-5-0.9c-2.1,0-7.6,0-8.8,0.5c-1.2,0.5-1.2,0.9-1.8,0.9c-0.6,0-0.6-0.4-1.8-0.9
			c-1.2-0.5-4.4-0.5-6.5-0.5c-2.1,0-4,0.1-4.1,0.8c-0.1,0.6,0.1,1.8,0.5,2c0.4,0.2,0.4,0.2,1.5,2.8c0.6,1.5,1.9,2.4,4.6,2.2
			c3.4-0.2,4.1-2.8,4.6-3.9c0.5-1.1,0.7-1.2,1.2-1.2c0.5,0,0.8,0.1,1.3,1.2c0.5,1.1,0.5,3.4,3.9,3.9c4.4,0.6,6.6-0.3,7.6-2.2
			c1.3-2.6,1.1-2.6,1.5-2.8c0.2-0.1,1.2-0.3,1.3-0.7C308.6,139,308.6,138.5,308.6,138.2z M290.4,142.2c-0.4,1.4-1.6,2.5-3.8,2.5
			c-2.1,0-2.9-0.8-3.7-2.7c-0.7-1.7-0.5-2.9-0.1-3.3c0.4-0.4,1.5-0.3,4.1-0.2c2.6,0.1,3.4,0.1,3.7,1
			C290.8,139.7,290.8,140.8,290.4,142.2z M305.3,142c-0.8,1.9-2,2.7-4.8,2.7c-4,0-4.6-1.2-5-2.5c-0.4-1.4-0.4-2.5-0.3-2.8
			c0.3-0.8,1.1-0.8,3.7-1c2.6-0.1,6-0.2,6.4,0.2C305.8,139.1,306,140.3,305.3,142z"/>
	</g>
	<g>
		<rect x="75.5" y="266.8" class="st20" width="345.2" height="6.5"/>
		<polygon class="st21" points="449.7,250.8 104.5,250.8 75.5,266.8 420.7,266.8 		"/>
		<polygon class="st20" points="420.7,273.3 449.7,257.2 449.7,250.8 420.7,266.8 		"/>
		<g>
			<polygon class="st20" points="406.5,396 402.6,396 370.6,273.3 378.7,273.3 			"/>
			<polygon class="st20" points="89.8,396 93.7,396 125.6,273.3 117.5,273.3 			"/>
		</g>
		<g>
			<polygon class="st20" points="427.4,396 423.4,396 391.5,273.3 399.6,273.3 			"/>
			<polygon class="st20" points="110.6,396 114.6,396 146.5,273.3 138.4,273.3 			"/>
		</g>
	</g>
	<g>
		<polygon class="st16" points="204.1,243.2 192.6,249.3 187.8,257.8 192.6,257.8 198.8,254 200.8,257.8 204.1,257.9 208.3,254.5 
			219.8,245.2 		"/>
		<path class="st22" d="M281.8,182.4c-0.9-3-7-10.1-7-10.1s-8.6,5.3-12.6,12.9c-4,7.7-21,32.1-22.5,34.6
			c-1.4,2.5-35.7,23.3-35.7,23.3l10.4,9.4c0,0,28.6-13,34.9-17.7c6.3-4.7,25.4-28,29.8-37.7C283.7,187.5,283.9,189.6,281.8,182.4z"
			/>
		<path class="st18" d="M280.8,250.2c4.6-23.6,7.9-84.5,7.9-84.5l-14,6.6c0,0-3.5,53.7-3.5,60.9c0,2.9-1.6,9.2-3.5,15.8
			C272.1,249.7,276.5,250,280.8,250.2z"/>
	</g>
	<g>
		<polygon class="st12" points="273.1,255.9 204.1,255.9 237.6,245.2 306.6,245.2 		"/>
		<polygon class="st11" points="306.6,245.2 273.1,255.9 273.1,259.9 306.6,249.2 		"/>
		<g>
			<polygon class="st16" points="284.8,239.1 277.7,241 266.4,238.6 254.6,245.2 249.4,249.3 252.1,250.5 255.3,248.4 254.6,250.8 
				259,250.5 260.8,249.3 260.8,250.8 264.3,251.7 267.7,249.3 275.1,248.1 283.1,247.3 			"/>
			<g>
				<path class="st22" d="M277.7,241l1.5,8.3l59.2-4c0,0,15.2-63.4,1.4-72.3c-4.8-3.1-14.4,9.2-13.5,18.8c0.9,9.5-3.5,38.3-3.5,38.3
					S295.6,236.1,277.7,241z"/>
			</g>
		</g>
		<polygon class="st11" points="244.6,246.1 238.5,248 225.5,160.1 229.1,162 		"/>
		<polygon class="st12" points="238.5,248 155.5,244.2 139.5,158.2 225.5,160.1 		"/>
		<rect x="204.1" y="255.9" class="st11" width="69" height="4"/>
		<g>
			<polygon class="st12" points="197.4,259.9 179.8,259.9 191.6,257.8 209.2,257.8 			"/>
			<rect x="179.8" y="259.9" class="st11" width="17.6" height="3.9"/>
			<polygon class="st11" points="197.4,263.8 209.2,261.7 209.2,257.8 197.4,259.9 			"/>
		</g>
		<polygon class="st12" points="199.8,259.9 182.2,259.9 179.8,219.3 199.3,219.3 		"/>
		<rect x="179.8" y="219.3" class="st11" width="17.6" height="40.5"/>
	</g>
	<path class="st22" d="M397.5,238.6c0,0-3-11.7-8.4-19.3c-5.4-7.6-6.9-8.4-6.9-8.4s-3.6,21.3,9.3,32.2L397.5,238.6z"/>
	<path class="st22" d="M401.3,233.1c0,0,1.9-12-0.1-21c-2-9.1-3.1-10.4-3.1-10.4s-11.7,18.1-4.1,33.3L401.3,233.1z"/>
	<path class="st22" d="M400,242.4c0,0,8.6-8.5,12.4-17c3.8-8.5,3.7-10.2,3.7-10.2s-20.2,7.7-23.1,24.3L400,242.4z"/>
	<polygon class="st23" points="402.7,258.7 387.5,258.7 383.7,237.4 406.5,237.4 	"/>
</g>
</svg>
