<svg xmlns="http://www.w3.org/2000/svg" xmlns:xlink="http://www.w3.org/1999/xlink" viewBox="0 0 445.745 463"><defs><style>.cls-1{isolation:isolate;}.cls-2{fill:url(#linear-gradient);}.cls-3{fill:#413068;}.cls-4{fill:url(#linear-gradient-2);}.cls-5{fill:url(#linear-gradient-3);}.cls-6{fill:#f7f3fc;}.cls-7{fill:#cec1e0;}.cls-8{fill:#ddd3ed;}.cls-9{mix-blend-mode:multiply;}.cls-10,.cls-56{fill:#fff;}.cls-10{opacity:0;}.cls-11{fill:#fafafa;opacity:0.024;}.cls-12{fill:#f4f4f4;opacity:0.049;}.cls-13{fill:#efefef;opacity:0.073;}.cls-14{fill:#eae9e9;opacity:0.098;}.cls-15{fill:#e4e4e4;opacity:0.122;}.cls-16{fill:#dfdede;opacity:0.146;}.cls-17{fill:#d9d9d9;opacity:0.171;}.cls-18{fill:#d4d3d3;opacity:0.195;}.cls-19{fill:#cfcece;opacity:0.22;}.cls-20{fill:#c9c8c9;opacity:0.244;}.cls-21{fill:#c4c3c3;opacity:0.268;}.cls-22{fill:#bfbdbe;opacity:0.293;}.cls-23{fill:#b9b8b8;opacity:0.317;}.cls-24{fill:#b4b3b3;opacity:0.341;}.cls-25{fill:#afadad;opacity:0.366;}.cls-26{fill:#a9a8a8;opacity:0.39;}.cls-27{fill:#a4a2a3;opacity:0.415;}.cls-28{fill:#9e9d9d;opacity:0.439;}.cls-29{fill:#999798;opacity:0.463;}.cls-30{fill:#949292;opacity:0.488;}.cls-31{fill:#8e8c8d;opacity:0.512;}.cls-32{fill:#898787;opacity:0.537;}.cls-33{fill:#848182;opacity:0.561;}.cls-34{fill:#7e7c7c;opacity:0.585;}.cls-35{fill:#797677;opacity:0.61;}.cls-36{fill:#737172;opacity:0.634;}.cls-37{fill:#6e6b6c;opacity:0.659;}.cls-38{fill:#696667;opacity:0.683;}.cls-39{fill:#636161;opacity:0.707;}.cls-40{fill:#5e5b5c;opacity:0.732;}.cls-41{fill:#595656;opacity:0.756;}.cls-42{fill:#535051;opacity:0.78;}.cls-43{fill:#4e4b4c;opacity:0.805;}.cls-44{fill:#494546;opacity:0.829;}.cls-45{fill:#434041;opacity:0.854;}.cls-46{fill:#3e3a3b;opacity:0.878;}.cls-47{fill:#383536;opacity:0.902;}.cls-48{fill:#332f30;opacity:0.927;}.cls-49{fill:#2e2a2b;opacity:0.951;}.cls-50{fill:#282425;opacity:0.976;}.cls-51,.cls-61{fill:#231f20;}.cls-52{fill:url(#linear-gradient-4);}.cls-53{fill:#f9f7f9;}.cls-54{fill:#e0daed;}.cls-55{fill:#55486a;}.cls-57{fill:url(#linear-gradient-5);}.cls-58{fill:#9382b0;}.cls-59{fill:url(#linear-gradient-6);}.cls-60{fill:url(#linear-gradient-7);}.cls-61{opacity:0.2;}.cls-62{fill:url(#linear-gradient-8);}.cls-63{fill:#7866a2;}.cls-64{fill:#ffde4c;}</style><linearGradient id="linear-gradient" x1="295.099" y1="167.54" x2="295.099" y2="347.359" gradientUnits="userSpaceOnUse"><stop offset="0" stop-color="#e5e1ea"/><stop offset="0.996" stop-color="#b199d8"/></linearGradient><linearGradient id="linear-gradient-2" x1="174.261" y1="44.705" x2="402.112" y2="331.224" gradientUnits="userSpaceOnUse"><stop offset="0" stop-color="#fa9938"/><stop offset="0.204" stop-color="#faa338"/><stop offset="0.549" stop-color="#fabd38"/><stop offset="0.99" stop-color="#fae838"/><stop offset="1" stop-color="#fae938"/></linearGradient><linearGradient id="linear-gradient-3" y1="344.067" x2="415.367" y2="344.067" gradientUnits="userSpaceOnUse"><stop offset="0" stop-color="#f6f2ff"/><stop offset="1" stop-color="#b199d8"/></linearGradient><linearGradient id="linear-gradient-4" x1="218.214" y1="157.794" x2="445.745" y2="157.794" gradientUnits="userSpaceOnUse"><stop offset="0" stop-color="#623fe9"/><stop offset="0.168" stop-color="#6d49e8"/><stop offset="0.7" stop-color="#8c65e5"/><stop offset="1" stop-color="#976fe4"/></linearGradient><linearGradient id="linear-gradient-5" x1="227.902" y1="99.099" x2="271.492" y2="99.099" gradientUnits="userSpaceOnUse"><stop offset="0" stop-color="#bc3ade"/><stop offset="0.217" stop-color="#b734d4"/><stop offset="0.582" stop-color="#a822ba"/><stop offset="1" stop-color="#940994"/></linearGradient><linearGradient id="linear-gradient-6" x1="239.06" y1="174.069" x2="335.029" y2="216.7" gradientUnits="userSpaceOnUse"><stop offset="0" stop-color="#b42ff5"/><stop offset="0.069" stop-color="#b533f5"/><stop offset="0.665" stop-color="#bf52f5"/><stop offset="1" stop-color="#c35df5"/></linearGradient><linearGradient id="linear-gradient-7" x1="326.594" y1="174.107" x2="250.15" y2="219.576" gradientUnits="userSpaceOnUse"><stop offset="0" stop-color="#6c068b"/><stop offset="0.231" stop-color="#620782"/><stop offset="0.619" stop-color="#480b6b"/><stop offset="1" stop-color="#280f4f"/></linearGradient><linearGradient id="linear-gradient-8" x1="240.431" y1="193.398" x2="335.427" y2="207.543" xlink:href="#linear-gradient-2"/></defs><title>Artboard 32</title><g class="cls-1"><g id="Graphics"><path id="_Path_" data-name="&lt;Path&gt;" class="cls-2" d="M417.007,160.772,175.215,21.173a4.9,4.9,0,0,0-7.349,4.244V207.639a10.649,10.649,0,0,0,5.325,9.223l241.791,139.6a4.9,4.9,0,0,0,7.351-4.243V170A10.652,10.652,0,0,0,417.007,160.772Z"/><path id="_Path_2" data-name="&lt;Path&gt;" class="cls-3" d="M413.882,162.856,172.09,23.257a4.9,4.9,0,0,0-7.35,4.243V209.722a10.654,10.654,0,0,0,5.325,9.224l241.793,139.6a4.9,4.9,0,0,0,7.35-4.244V172.079A10.65,10.65,0,0,0,413.882,162.856Z"/><polygon id="_Path_3" data-name="&lt;Path&gt;" class="cls-4" points="404.883 174.367 177.352 42.247 177.352 208.934 404.883 341.054 404.883 174.367"/><path id="_Path_4" data-name="&lt;Path&gt;" class="cls-5" d="M154.936,227.725.1,309.4s-.854,12.09,2.451,14L239.783,460.366a19.656,19.656,0,0,0,19.584.043l152.368-87.1c6.3-3.908,2.491-14.026,2.491-14.026l-239.7-131.516A19.661,19.661,0,0,0,154.936,227.725Z"/><path id="_Path_5" data-name="&lt;Path&gt;" class="cls-6" d="M154.936,218.351,2.569,305.45a4.944,4.944,0,0,0-.019,8.575L239.783,450.992a19.659,19.659,0,0,0,19.584.042l152.368-87.1a4.944,4.944,0,0,0,.018-8.575L174.521,218.393A19.656,19.656,0,0,0,154.936,218.351Z"/><path id="_Path_6" data-name="&lt;Path&gt;" class="cls-7" d="M141.428,331.133l-40.161,22.958a1.3,1.3,0,0,0,0,2.26l62.53,36.1a5.182,5.182,0,0,0,5.162.01l40.161-22.957a1.3,1.3,0,0,0,0-2.26l-62.529-36.1A5.184,5.184,0,0,0,141.428,331.133Z"/><path id="_Path_7" data-name="&lt;Path&gt;" class="cls-8" d="M171.737,231.657l13.128,7.579a.783.783,0,0,1,0,1.357l-6.522,3.749a1.692,1.692,0,0,1-1.689,0l-13.127-7.579a.783.783,0,0,1,0-1.357l6.521-3.748A1.692,1.692,0,0,1,171.737,231.657Z"/><path id="_Path_8" data-name="&lt;Path&gt;" class="cls-8" d="M190.973,243.117,204.1,250.7a.785.785,0,0,1,0,1.358l-6.522,3.748a1.69,1.69,0,0,1-1.689,0L182.76,248.22a.784.784,0,0,1,0-1.357l6.522-3.748A1.692,1.692,0,0,1,190.973,243.117Z"/><path id="_Path_9" data-name="&lt;Path&gt;" class="cls-8" d="M210.278,253.965l13.127,7.58a.782.782,0,0,1,0,1.356l-6.521,3.749a1.694,1.694,0,0,1-1.69,0l-13.127-7.579a.783.783,0,0,1,0-1.357l6.521-3.748A1.694,1.694,0,0,1,210.278,253.965Z"/><path id="_Path_10" data-name="&lt;Path&gt;" class="cls-8" d="M230.166,265.169l13.128,7.579a.783.783,0,0,1,0,1.357l-6.52,3.749a1.692,1.692,0,0,1-1.69,0l-13.128-7.579a.783.783,0,0,1,0-1.357l6.521-3.748A1.692,1.692,0,0,1,230.166,265.169Z"/><path id="_Path_11" data-name="&lt;Path&gt;" class="cls-8" d="M249.272,275.817,262.4,283.4a.783.783,0,0,1,0,1.357l-6.52,3.748a1.692,1.692,0,0,1-1.69,0l-13.128-7.579a.783.783,0,0,1,0-1.357l6.521-3.748A1.692,1.692,0,0,1,249.272,275.817Z"/><path id="_Path_12" data-name="&lt;Path&gt;" class="cls-8" d="M267.848,287.277l13.127,7.579a.782.782,0,0,1,0,1.356l-6.521,3.749a1.692,1.692,0,0,1-1.69,0l-13.127-7.578a.784.784,0,0,1,0-1.358l6.521-3.747A1.692,1.692,0,0,1,267.848,287.277Z"/><path id="_Path_13" data-name="&lt;Path&gt;" class="cls-8" d="M287.3,298l13.127,7.579a.783.783,0,0,1,0,1.357l-6.52,3.749a1.7,1.7,0,0,1-1.691,0L279.083,303.1a.784.784,0,0,1,0-1.357L285.605,298A1.692,1.692,0,0,1,287.3,298Z"/><path id="_Path_14" data-name="&lt;Path&gt;" class="cls-8" d="M306.453,309.406l13.127,7.58a.782.782,0,0,1,0,1.356l-6.521,3.749a1.692,1.692,0,0,1-1.69,0l-13.127-7.579a.783.783,0,0,1,0-1.357l6.522-3.747A1.69,1.69,0,0,1,306.453,309.406Z"/><path id="_Path_15" data-name="&lt;Path&gt;" class="cls-8" d="M325.293,320.524,338.42,328.1a.783.783,0,0,1,0,1.357l-6.521,3.748a1.689,1.689,0,0,1-1.69,0l-13.127-7.578a.783.783,0,0,1,0-1.357l6.521-3.748A1.689,1.689,0,0,1,325.293,320.524Z"/><path id="_Path_16" data-name="&lt;Path&gt;" class="cls-8" d="M345.153,331.966l13.127,7.579a.783.783,0,0,1,0,1.357l-6.521,3.749a1.692,1.692,0,0,1-1.689,0l-13.128-7.579a.783.783,0,0,1,0-1.357l6.521-3.748A1.692,1.692,0,0,1,345.153,331.966Z"/><path id="_Path_17" data-name="&lt;Path&gt;" class="cls-8" d="M364.441,342.789l13.128,7.579a.783.783,0,0,1,0,1.357l-6.52,3.749a1.692,1.692,0,0,1-1.69,0l-13.128-7.579a.783.783,0,0,1,0-1.357l6.521-3.749A1.692,1.692,0,0,1,364.441,342.789Z"/><g id="_Group_" data-name="&lt;Group&gt;"><path id="_Path_18" data-name="&lt;Path&gt;" class="cls-8" d="M145.034,245.939l8.9-5.208a3.716,3.716,0,0,1,3.74-.011l8.687,5.015a1.851,1.851,0,0,1,.043,3.179l-8.639,5.3a3.718,3.718,0,0,1-3.8.054l-8.911-5.132A1.85,1.85,0,0,1,145.034,245.939Z"/><path id="_Path_19" data-name="&lt;Path&gt;" class="cls-8" d="M164.948,257.4l8.895-5.208a3.719,3.719,0,0,1,3.74-.011l8.687,5.015a1.85,1.85,0,0,1,.043,3.179l-8.639,5.3a3.718,3.718,0,0,1-3.8.053L164.96,260.6A1.851,1.851,0,0,1,164.948,257.4Z"/><path id="_Path_20" data-name="&lt;Path&gt;" class="cls-8" d="M184.282,268.247l8.894-5.208a3.721,3.721,0,0,1,3.741-.011l8.686,5.014a1.851,1.851,0,0,1,.044,3.18l-8.639,5.3a3.718,3.718,0,0,1-3.8.053l-8.911-5.132A1.85,1.85,0,0,1,184.282,268.247Z"/><path id="_Path_21" data-name="&lt;Path&gt;" class="cls-8" d="M204.85,279.451l8.894-5.208a3.723,3.723,0,0,1,3.741-.012l8.686,5.016a1.85,1.85,0,0,1,.043,3.179l-8.638,5.3a3.722,3.722,0,0,1-3.8.053l-8.911-5.132A1.849,1.849,0,0,1,204.85,279.451Z"/><path id="_Path_22" data-name="&lt;Path&gt;" class="cls-8" d="M222.97,290.1l8.9-5.208a3.719,3.719,0,0,1,3.74-.011l8.687,5.015a1.85,1.85,0,0,1,.043,3.179l-8.639,5.3a3.718,3.718,0,0,1-3.8.053l-8.91-5.132A1.849,1.849,0,0,1,222.97,290.1Z"/><path id="_Path_23" data-name="&lt;Path&gt;" class="cls-8" d="M241.382,301.5l8.895-5.208a3.719,3.719,0,0,1,3.74-.011l8.687,5.015a1.851,1.851,0,0,1,.042,3.179l-8.638,5.3a3.72,3.72,0,0,1-3.8.053l-8.91-5.131A1.85,1.85,0,0,1,241.382,301.5Z"/><path id="_Path_24" data-name="&lt;Path&gt;" class="cls-8" d="M261.056,312.281l8.894-5.208a3.721,3.721,0,0,1,3.74-.012l8.687,5.016a1.85,1.85,0,0,1,.043,3.179l-8.639,5.3a3.718,3.718,0,0,1-3.8.054l-8.91-5.132A1.849,1.849,0,0,1,261.056,312.281Z"/><path id="_Path_25" data-name="&lt;Path&gt;" class="cls-8" d="M280.309,323.2l8.895-5.208a3.721,3.721,0,0,1,3.74-.012l8.687,5.016a1.849,1.849,0,0,1,.042,3.178l-8.638,5.3a3.722,3.722,0,0,1-3.8.053l-8.91-5.131A1.85,1.85,0,0,1,280.309,323.2Z"/><path id="_Path_26" data-name="&lt;Path&gt;" class="cls-8" d="M299.241,334.806l8.893-5.208a3.721,3.721,0,0,1,3.741-.012l8.687,5.016a1.849,1.849,0,0,1,.042,3.178l-8.638,5.3a3.722,3.722,0,0,1-3.8.052l-8.91-5.131A1.849,1.849,0,0,1,299.241,334.806Z"/><path id="_Path_27" data-name="&lt;Path&gt;" class="cls-8" d="M319.865,346.952l8.894-5.207a3.721,3.721,0,0,1,3.741-.012l8.686,5.016a1.849,1.849,0,0,1,.043,3.178l-8.638,5.3a3.724,3.724,0,0,1-3.8.053l-8.91-5.132A1.85,1.85,0,0,1,319.865,346.952Z"/><path id="_Path_28" data-name="&lt;Path&gt;" class="cls-8" d="M338.515,357.071l8.9-5.209a3.724,3.724,0,0,1,3.74-.011l8.687,5.016a1.85,1.85,0,0,1,.042,3.178l-8.639,5.3a3.718,3.718,0,0,1-3.8.053l-8.911-5.132A1.849,1.849,0,0,1,338.515,357.071Z"/></g><g id="_Group_2" data-name="&lt;Group&gt;"><path id="_Path_29" data-name="&lt;Path&gt;" class="cls-8" d="M125.219,256.715l8.893-5.208a3.716,3.716,0,0,1,3.74-.011l8.687,5.015a1.849,1.849,0,0,1,.044,3.179l-8.64,5.3a3.718,3.718,0,0,1-3.8.053l-8.911-5.131A1.85,1.85,0,0,1,125.219,256.715Z"/><path id="_Path_30" data-name="&lt;Path&gt;" class="cls-8" d="M145.132,268.174l8.895-5.208a3.721,3.721,0,0,1,3.74-.012l8.687,5.016a1.85,1.85,0,0,1,.043,3.179l-8.64,5.3a3.716,3.716,0,0,1-3.8.053l-8.911-5.131A1.851,1.851,0,0,1,145.132,268.174Z"/><path id="_Path_31" data-name="&lt;Path&gt;" class="cls-8" d="M164.466,279.023l8.895-5.208a3.719,3.719,0,0,1,3.74-.011l8.686,5.015a1.85,1.85,0,0,1,.044,3.179l-8.639,5.3a3.72,3.72,0,0,1-3.8.053l-8.911-5.131A1.85,1.85,0,0,1,164.466,279.023Z"/><path id="_Path_32" data-name="&lt;Path&gt;" class="cls-8" d="M185.034,290.227l8.894-5.208a3.721,3.721,0,0,1,3.74-.012l8.687,5.016a1.85,1.85,0,0,1,.044,3.178l-8.64,5.3a3.72,3.72,0,0,1-3.8.053l-8.911-5.132A1.85,1.85,0,0,1,185.034,290.227Z"/><path id="_Path_33" data-name="&lt;Path&gt;" class="cls-8" d="M203.155,300.875l8.894-5.208a3.719,3.719,0,0,1,3.74-.011l8.686,5.015a1.849,1.849,0,0,1,.044,3.179l-8.639,5.3a3.72,3.72,0,0,1-3.8.053l-8.911-5.132A1.849,1.849,0,0,1,203.155,300.875Z"/><path id="_Path_34" data-name="&lt;Path&gt;" class="cls-8" d="M221.566,312.274l8.894-5.208a3.719,3.719,0,0,1,3.74-.011l8.687,5.015a1.85,1.85,0,0,1,.043,3.179l-8.638,5.3a3.722,3.722,0,0,1-3.8.053l-8.911-5.131A1.851,1.851,0,0,1,221.566,312.274Z"/><path id="_Path_35" data-name="&lt;Path&gt;" class="cls-8" d="M241.24,323.056l8.894-5.207a3.721,3.721,0,0,1,3.74-.012l8.687,5.016a1.85,1.85,0,0,1,.043,3.179l-8.639,5.3a3.72,3.72,0,0,1-3.8.054l-8.911-5.132A1.851,1.851,0,0,1,241.24,323.056Z"/><path id="_Path_36" data-name="&lt;Path&gt;" class="cls-8" d="M260.494,333.972l8.893-5.208a3.723,3.723,0,0,1,3.741-.012l8.687,5.016a1.849,1.849,0,0,1,.042,3.178l-8.638,5.3a3.722,3.722,0,0,1-3.8.053l-8.91-5.132A1.849,1.849,0,0,1,260.494,333.972Z"/><path id="_Path_37" data-name="&lt;Path&gt;" class="cls-8" d="M279.424,345.581l8.894-5.208a3.721,3.721,0,0,1,3.74-.011l8.687,5.015a1.85,1.85,0,0,1,.044,3.179l-8.639,5.3a3.72,3.72,0,0,1-3.8.053l-8.91-5.131A1.85,1.85,0,0,1,279.424,345.581Z"/><path id="_Path_38" data-name="&lt;Path&gt;" class="cls-8" d="M300.049,357.728l8.893-5.208a3.721,3.721,0,0,1,3.741-.011l8.687,5.016a1.849,1.849,0,0,1,.043,3.178l-8.639,5.3a3.722,3.722,0,0,1-3.8.053l-8.911-5.133A1.849,1.849,0,0,1,300.049,357.728Z"/><path id="_Path_39" data-name="&lt;Path&gt;" class="cls-8" d="M318.7,367.846l8.894-5.207a3.719,3.719,0,0,1,3.74-.012l8.687,5.016a1.85,1.85,0,0,1,.043,3.179l-8.639,5.3a3.72,3.72,0,0,1-3.8.053l-8.911-5.132A1.851,1.851,0,0,1,318.7,367.846Z"/></g><g id="_Group_3" data-name="&lt;Group&gt;"><path id="_Path_40" data-name="&lt;Path&gt;" class="cls-8" d="M105.4,267.49l8.894-5.207a3.719,3.719,0,0,1,3.74-.012l8.687,5.015a1.85,1.85,0,0,1,.043,3.18l-8.639,5.3a3.718,3.718,0,0,1-3.8.054l-8.911-5.132A1.85,1.85,0,0,1,105.4,267.49Z"/><path id="_Path_41" data-name="&lt;Path&gt;" class="cls-8" d="M125.316,278.95l8.9-5.208a3.719,3.719,0,0,1,3.739-.012l8.688,5.016a1.85,1.85,0,0,1,.042,3.178l-8.639,5.3a3.72,3.72,0,0,1-3.8.053l-8.911-5.131A1.851,1.851,0,0,1,125.316,278.95Z"/><path id="_Path_42" data-name="&lt;Path&gt;" class="cls-8" d="M144.649,289.8l8.9-5.207a3.721,3.721,0,0,1,3.74-.012l8.687,5.015a1.851,1.851,0,0,1,.043,3.18l-8.639,5.3a3.72,3.72,0,0,1-3.8.054L144.661,293A1.851,1.851,0,0,1,144.649,289.8Z"/><path id="_Path_43" data-name="&lt;Path&gt;" class="cls-8" d="M165.218,301l8.894-5.208a3.721,3.721,0,0,1,3.74-.012l8.687,5.015a1.851,1.851,0,0,1,.043,3.18l-8.639,5.3a3.72,3.72,0,0,1-3.8.054l-8.911-5.132A1.849,1.849,0,0,1,165.218,301Z"/><path id="_Path_44" data-name="&lt;Path&gt;" class="cls-8" d="M183.339,311.651l8.893-5.208a3.718,3.718,0,0,1,3.741-.011l8.686,5.015a1.849,1.849,0,0,1,.044,3.178l-8.639,5.3a3.72,3.72,0,0,1-3.8.053l-8.911-5.132A1.849,1.849,0,0,1,183.339,311.651Z"/><path id="_Path_45" data-name="&lt;Path&gt;" class="cls-8" d="M201.75,323.05l8.894-5.208a3.721,3.721,0,0,1,3.74-.012l8.687,5.016a1.85,1.85,0,0,1,.043,3.179l-8.639,5.3a3.72,3.72,0,0,1-3.8.054l-8.911-5.132A1.849,1.849,0,0,1,201.75,323.05Z"/><path id="_Path_46" data-name="&lt;Path&gt;" class="cls-8" d="M221.424,333.832l8.893-5.208a3.723,3.723,0,0,1,3.741-.011l8.686,5.015a1.85,1.85,0,0,1,.044,3.179l-8.639,5.3a3.718,3.718,0,0,1-3.8.053l-8.911-5.131A1.85,1.85,0,0,1,221.424,333.832Z"/><path id="_Path_47" data-name="&lt;Path&gt;" class="cls-8" d="M240.677,344.748l8.894-5.208a3.724,3.724,0,0,1,3.74-.013L262,344.544a1.85,1.85,0,0,1,.043,3.179l-8.639,5.3a3.72,3.72,0,0,1-3.8.053l-8.91-5.132A1.849,1.849,0,0,1,240.677,344.748Z"/><path id="_Path_48" data-name="&lt;Path&gt;" class="cls-8" d="M259.608,356.357l8.894-5.208a3.719,3.719,0,0,1,3.74-.011l8.687,5.015a1.85,1.85,0,0,1,.043,3.179l-8.639,5.3a3.72,3.72,0,0,1-3.8.053l-8.91-5.131A1.85,1.85,0,0,1,259.608,356.357Z"/><path id="_Path_49" data-name="&lt;Path&gt;" class="cls-8" d="M280.233,368.5l8.893-5.208a3.723,3.723,0,0,1,3.741-.012l8.687,5.016a1.852,1.852,0,0,1,.043,3.18l-8.639,5.3a3.722,3.722,0,0,1-3.8.054l-8.911-5.133A1.849,1.849,0,0,1,280.233,368.5Z"/><path id="_Path_50" data-name="&lt;Path&gt;" class="cls-8" d="M298.883,378.623l8.894-5.209a3.724,3.724,0,0,1,3.74-.011l8.687,5.015a1.85,1.85,0,0,1,.043,3.179l-8.639,5.3a3.72,3.72,0,0,1-3.8.054l-8.91-5.132A1.849,1.849,0,0,1,298.883,378.623Z"/></g><g id="_Group_4" data-name="&lt;Group&gt;"><path id="_Path_51" data-name="&lt;Path&gt;" class="cls-8" d="M85.586,278.266l8.894-5.208a3.719,3.719,0,0,1,3.74-.011l8.687,5.015a1.85,1.85,0,0,1,.043,3.179l-8.639,5.3a3.718,3.718,0,0,1-3.8.054L85.6,281.466A1.851,1.851,0,0,1,85.586,278.266Z"/><path id="_Path_52" data-name="&lt;Path&gt;" class="cls-8" d="M105.5,289.725l8.893-5.207a3.721,3.721,0,0,1,3.74-.012l8.687,5.015a1.85,1.85,0,0,1,.043,3.179l-8.639,5.3a3.72,3.72,0,0,1-3.8.054l-8.91-5.132A1.85,1.85,0,0,1,105.5,289.725Z"/><path id="_Path_53" data-name="&lt;Path&gt;" class="cls-8" d="M124.833,300.574l8.9-5.207a3.716,3.716,0,0,1,3.74-.012l8.687,5.015a1.85,1.85,0,0,1,.043,3.179l-8.639,5.3a3.72,3.72,0,0,1-3.8.054l-8.911-5.132A1.85,1.85,0,0,1,124.833,300.574Z"/><path id="_Path_54" data-name="&lt;Path&gt;" class="cls-8" d="M145.4,311.778l8.895-5.208a3.721,3.721,0,0,1,3.74-.011l8.686,5.015a1.85,1.85,0,0,1,.044,3.179l-8.64,5.3a3.718,3.718,0,0,1-3.8.054l-8.911-5.132A1.851,1.851,0,0,1,145.4,311.778Z"/><path id="_Path_55" data-name="&lt;Path&gt;" class="cls-8" d="M165.218,323.606l8.894-5.208a3.719,3.719,0,0,1,3.74-.011l45.219,26.118a1.85,1.85,0,0,1,.043,3.179l-8.639,5.3a3.722,3.722,0,0,1-3.8.053l-45.443-26.234A1.85,1.85,0,0,1,165.218,323.606Z"/><path id="_Path_56" data-name="&lt;Path&gt;" class="cls-8" d="M220.861,355.524l8.894-5.209a3.725,3.725,0,0,1,3.741-.011l8.686,5.016a1.849,1.849,0,0,1,.043,3.178l-8.638,5.3a3.722,3.722,0,0,1-3.8.054l-8.91-5.132A1.849,1.849,0,0,1,220.861,355.524Z"/><path id="_Path_57" data-name="&lt;Path&gt;" class="cls-8" d="M239.792,367.133l8.894-5.208a3.719,3.719,0,0,1,3.74-.011l8.687,5.015a1.851,1.851,0,0,1,.043,3.179l-8.639,5.3a3.72,3.72,0,0,1-3.8.053l-8.911-5.132A1.85,1.85,0,0,1,239.792,367.133Z"/><path id="_Path_58" data-name="&lt;Path&gt;" class="cls-8" d="M260.416,379.28l8.894-5.208a3.721,3.721,0,0,1,3.74-.011l8.688,5.015a1.85,1.85,0,0,1,.042,3.179l-8.638,5.3a3.722,3.722,0,0,1-3.8.053l-8.91-5.131A1.85,1.85,0,0,1,260.416,379.28Z"/><path id="_Path_59" data-name="&lt;Path&gt;" class="cls-8" d="M279.067,389.4l8.894-5.208a3.722,3.722,0,0,1,3.739-.012l8.688,5.016a1.85,1.85,0,0,1,.042,3.179l-8.639,5.3a3.718,3.718,0,0,1-3.8.053l-8.91-5.131A1.85,1.85,0,0,1,279.067,389.4Z"/></g><g id="_Group_5" data-name="&lt;Group&gt;"><g id="_Group_6" data-name="&lt;Group&gt;" class="cls-9"><path id="_Path_60" data-name="&lt;Path&gt;" class="cls-10" d="M436.956,148.277c0-5.238-3.706-11.676-8.236-14.306L199.943,1.127c-4.53-2.63-8.237-.5-8.237,4.742V166.488c0,5.239,3.707,11.677,8.237,14.307L428.72,313.639c4.53,2.631,8.236.5,8.236-4.741Z"/><path id="_Path_61" data-name="&lt;Path&gt;" class="cls-11" d="M436.6,148.514c0-5.213-3.689-11.62-8.2-14.238L200.721,2.067c-4.508-2.618-8.2-.5-8.2,4.719V166.639c0,5.213,3.689,11.62,8.2,14.238l227.685,132.21c4.508,2.617,8.2.494,8.2-4.719Z"/><path id="_Path_62" data-name="&lt;Path&gt;" class="cls-12" d="M436.25,148.751c0-5.188-3.671-11.564-8.158-14.17L201.5,3.006c-4.487-2.6-8.158-.491-8.158,4.7V166.789c0,5.188,3.671,11.564,8.158,14.169L428.092,312.534c4.487,2.605,8.158.492,8.158-4.7Z"/><path id="_Path_63" data-name="&lt;Path&gt;" class="cls-13" d="M435.9,148.988c0-5.163-3.653-11.509-8.118-14.1L202.278,3.946c-4.465-2.593-8.118-.489-8.118,4.674V166.939c0,5.163,3.653,11.509,8.118,14.1l225.5,130.941c4.465,2.593,8.118.49,8.118-4.673Z"/><path id="_Path_64" data-name="&lt;Path&gt;" class="cls-14" d="M435.543,149.226c0-5.139-3.635-11.454-8.079-14.034L203.057,4.886c-4.444-2.58-8.079-.487-8.079,4.651V167.089c0,5.138,3.635,11.453,8.079,14.033L427.464,311.429c4.444,2.58,8.079.487,8.079-4.651Z"/><path id="_Path_65" data-name="&lt;Path&gt;" class="cls-15" d="M435.19,149.462c0-5.113-3.618-11.4-8.04-13.964L203.835,5.826c-4.421-2.568-8.039-.485-8.039,4.628V167.239c0,5.113,3.618,11.4,8.039,13.965L427.15,310.876c4.422,2.568,8.04.485,8.04-4.628Z"/><path id="_Path_66" data-name="&lt;Path&gt;" class="cls-16" d="M434.836,149.7c0-5.088-3.6-11.342-8-13.9L204.614,6.766c-4.4-2.555-8-.483-8,4.605V167.389c0,5.088,3.6,11.342,8,13.9L426.836,310.323c4.4,2.556,8,.483,8-4.6Z"/><path id="_Path_67" data-name="&lt;Path&gt;" class="cls-17" d="M434.483,149.937c0-5.063-3.582-11.286-7.961-13.829L205.392,7.705c-4.378-2.542-7.96-.48-7.96,4.584v155.25c0,5.063,3.582,11.286,7.96,13.828l221.13,128.4c4.379,2.542,7.961.48,7.961-4.583Z"/><path id="_Path_68" data-name="&lt;Path&gt;" class="cls-18" d="M434.13,150.174c0-5.038-3.565-11.23-7.922-13.76L206.171,8.645c-4.357-2.53-7.922-.478-7.922,4.561V167.689c0,5.038,3.565,11.23,7.922,13.76L426.208,309.218c4.357,2.53,7.922.478,7.922-4.56Z"/><path id="_Path_69" data-name="&lt;Path&gt;" class="cls-19" d="M433.776,150.411c0-5.013-3.546-11.175-7.882-13.692L206.95,9.585c-4.336-2.518-7.882-.476-7.882,4.538V167.839c0,5.013,3.546,11.175,7.882,13.692L425.894,308.666c4.336,2.517,7.882.475,7.882-4.538Z"/><path id="_Path_70" data-name="&lt;Path&gt;" class="cls-20" d="M433.423,150.648c0-4.988-3.529-11.119-7.843-13.623L207.728,10.525c-4.313-2.505-7.843-.473-7.843,4.515V167.989c0,4.988,3.53,11.119,7.843,13.624l217.852,126.5c4.314,2.5,7.843.473,7.843-4.515Z"/><path id="_Path_71" data-name="&lt;Path&gt;" class="cls-21" d="M433.07,150.885a17.394,17.394,0,0,0-7.8-13.555L208.507,11.464c-4.292-2.492-7.8-.47-7.8,4.493V168.139a17.394,17.394,0,0,0,7.8,13.555L425.266,307.56c4.292,2.493,7.8.471,7.8-4.492Z"/><path id="_Path_72" data-name="&lt;Path&gt;" class="cls-22" d="M432.717,151.122a17.307,17.307,0,0,0-7.765-13.487L209.285,12.4c-4.27-2.479-7.764-.468-7.764,4.47V168.289a17.305,17.305,0,0,0,7.764,13.487L424.952,307.008c4.271,2.479,7.765.468,7.765-4.47Z"/><path id="_Path_73" data-name="&lt;Path&gt;" class="cls-23" d="M432.363,151.359a17.219,17.219,0,0,0-7.724-13.418L210.064,13.344c-4.249-2.467-7.725-.466-7.725,4.447V168.44a17.218,17.218,0,0,0,7.725,13.418l214.575,124.6c4.248,2.467,7.724.466,7.724-4.447Z"/><path id="_Path_74" data-name="&lt;Path&gt;" class="cls-24" d="M432.01,151.6a17.132,17.132,0,0,0-7.685-13.35L210.842,14.284c-4.227-2.455-7.685-.464-7.685,4.424V168.59a17.132,17.132,0,0,0,7.685,13.35L424.325,305.9c4.227,2.455,7.685.464,7.685-4.424Z"/><path id="_Path_75" data-name="&lt;Path&gt;" class="cls-25" d="M431.657,151.833a17.042,17.042,0,0,0-7.646-13.281L211.621,15.223c-4.205-2.442-7.646-.461-7.646,4.4V168.74a17.045,17.045,0,0,0,7.646,13.282L424.011,305.35c4.2,2.442,7.646.461,7.646-4.4Z"/><path id="_Path_76" data-name="&lt;Path&gt;" class="cls-26" d="M431.3,152.07a16.956,16.956,0,0,0-7.606-13.213L212.4,16.163c-4.183-2.429-7.606-.458-7.606,4.379V168.89A16.956,16.956,0,0,0,212.4,182.1L423.7,304.8c4.183,2.43,7.606.459,7.606-4.379Z"/><path id="_Path_77" data-name="&lt;Path&gt;" class="cls-27" d="M430.95,152.307a16.868,16.868,0,0,0-7.567-13.145L213.178,17.1c-4.162-2.417-7.568-.456-7.568,4.357V169.04a16.869,16.869,0,0,0,7.568,13.145l210.205,122.06c4.162,2.417,7.567.456,7.567-4.357Z"/><path id="_Path_78" data-name="&lt;Path&gt;" class="cls-28" d="M430.6,152.544a16.781,16.781,0,0,0-7.528-13.076L213.956,18.043c-4.14-2.4-7.528-.454-7.528,4.334V169.19a16.782,16.782,0,0,0,7.528,13.077L423.069,303.692c4.14,2.4,7.528.454,7.528-4.334Z"/><path id="_Path_79" data-name="&lt;Path&gt;" class="cls-29" d="M430.244,152.781a16.692,16.692,0,0,0-7.489-13.008L214.735,18.982c-4.119-2.391-7.489-.451-7.489,4.312V169.34a16.694,16.694,0,0,0,7.489,13.009l208.02,120.79c4.119,2.392,7.489.452,7.489-4.311Z"/><path id="_Path_80" data-name="&lt;Path&gt;" class="cls-30" d="M429.89,153.019a16.607,16.607,0,0,0-7.449-12.941L215.514,19.922c-4.1-2.379-7.45-.449-7.45,4.289V169.49a16.6,16.6,0,0,0,7.45,12.94L422.441,302.587c4.1,2.379,7.449.449,7.449-4.289Z"/><path id="_Path_81" data-name="&lt;Path&gt;" class="cls-31" d="M429.537,153.256a16.518,16.518,0,0,0-7.41-12.872L216.292,20.862c-4.075-2.367-7.41-.447-7.41,4.266V169.64a16.518,16.518,0,0,0,7.41,12.872L422.127,302.034c4.075,2.367,7.41.447,7.41-4.266Z"/><path id="_Path_82" data-name="&lt;Path&gt;" class="cls-32" d="M429.184,153.493a16.431,16.431,0,0,0-7.371-12.8L217.071,21.8c-4.054-2.354-7.371-.445-7.371,4.243V169.791a16.431,16.431,0,0,0,7.371,12.8L421.813,301.482c4.054,2.354,7.371.444,7.371-4.244Z"/><path id="_Path_83" data-name="&lt;Path&gt;" class="cls-33" d="M428.831,153.73a16.346,16.346,0,0,0-7.332-12.736L217.849,22.742c-4.032-2.342-7.331-.442-7.331,4.22V169.941a16.345,16.345,0,0,0,7.331,12.735L421.5,300.929c4.032,2.342,7.332.442,7.332-4.221Z"/><path id="_Path_84" data-name="&lt;Path&gt;" class="cls-34" d="M428.477,153.967a16.254,16.254,0,0,0-7.292-12.667L218.628,23.681c-4.011-2.328-7.292-.439-7.292,4.2V170.091a16.254,16.254,0,0,0,7.292,12.667L421.185,300.377c4.011,2.328,7.292.439,7.292-4.2Z"/><path id="_Path_85" data-name="&lt;Path&gt;" class="cls-35" d="M428.124,154.2a16.169,16.169,0,0,0-7.253-12.6L219.406,24.621c-3.989-2.316-7.253-.437-7.253,4.176V170.241a16.166,16.166,0,0,0,7.253,12.6L420.871,299.824c3.989,2.316,7.253.437,7.253-4.176Z"/><path id="_Path_86" data-name="&lt;Path&gt;" class="cls-36" d="M427.771,154.441a16.079,16.079,0,0,0-7.214-12.53L220.185,25.561c-3.968-2.3-7.214-.435-7.214,4.153V170.391a16.078,16.078,0,0,0,7.214,12.53l200.372,116.35c3.967,2.3,7.214.435,7.214-4.153Z"/><path id="_Path_87" data-name="&lt;Path&gt;" class="cls-37" d="M427.417,154.678a15.99,15.99,0,0,0-7.174-12.462L220.964,26.5c-3.946-2.292-7.175-.433-7.175,4.13v139.91A15.992,15.992,0,0,0,220.964,183L420.243,298.719c3.946,2.291,7.174.432,7.174-4.131Z"/><path id="_Path_88" data-name="&lt;Path&gt;" class="cls-38" d="M427.064,154.915a15.906,15.906,0,0,0-7.135-12.394L221.742,27.44c-3.924-2.278-7.135-.43-7.135,4.108V170.691a15.906,15.906,0,0,0,7.135,12.394L419.929,298.166c3.924,2.279,7.135.43,7.135-4.107Z"/><path id="_Path_89" data-name="&lt;Path&gt;" class="cls-39" d="M426.711,155.152a15.815,15.815,0,0,0-7.1-12.325L222.521,28.38c-3.9-2.266-7.1-.428-7.1,4.085V170.841a15.815,15.815,0,0,0,7.1,12.325L419.615,297.614c3.9,2.265,7.1.427,7.1-4.085Z"/><path id="_Path_90" data-name="&lt;Path&gt;" class="cls-40" d="M426.357,155.389a15.729,15.729,0,0,0-7.056-12.257L223.3,29.32c-3.881-2.253-7.056-.426-7.056,4.062V170.991a15.727,15.727,0,0,0,7.056,12.257l196,113.813c3.881,2.253,7.056.425,7.056-4.062Z"/><path id="_Path_91" data-name="&lt;Path&gt;" class="cls-41" d="M426,155.626a15.644,15.644,0,0,0-7.017-12.189L224.078,30.26c-3.86-2.241-7.017-.423-7.017,4.039V171.141a15.639,15.639,0,0,0,7.017,12.189L418.987,296.508c3.859,2.241,7.017.423,7.017-4.039Z"/><path id="_Path_92" data-name="&lt;Path&gt;" class="cls-42" d="M425.651,155.863a15.553,15.553,0,0,0-6.978-12.12L224.856,31.2c-3.837-2.228-6.977-.42-6.977,4.018V171.291a15.555,15.555,0,0,0,6.977,12.121L418.673,295.956c3.838,2.228,6.978.42,6.978-4.017Z"/><path id="_Path_93" data-name="&lt;Path&gt;" class="cls-43" d="M425.3,156.1a15.465,15.465,0,0,0-6.938-12.052L225.635,32.139c-3.816-2.216-6.939-.418-6.939,3.995V171.441a15.468,15.468,0,0,0,6.939,12.053L418.359,295.4c3.816,2.216,6.938.418,6.938-3.994Z"/><path id="_Path_94" data-name="&lt;Path&gt;" class="cls-44" d="M424.944,156.337a15.376,15.376,0,0,0-6.9-11.983L226.413,33.079c-3.794-2.2-6.9-.416-6.9,3.972V171.592a15.377,15.377,0,0,0,6.9,11.983L418.045,294.85c3.795,2.2,6.9.416,6.9-3.971Z"/><path id="_Path_95" data-name="&lt;Path&gt;" class="cls-45" d="M424.591,156.575a15.291,15.291,0,0,0-6.86-11.916L227.192,34.019c-3.773-2.191-6.86-.414-6.86,3.949V171.742a15.289,15.289,0,0,0,6.86,11.915L417.731,294.3c3.773,2.191,6.86.413,6.86-3.949Z"/><path id="_Path_96" data-name="&lt;Path&gt;" class="cls-46" d="M424.238,156.811a15.206,15.206,0,0,0-6.821-11.847l-189.446-110c-3.752-2.179-6.821-.412-6.821,3.926V171.892a15.2,15.2,0,0,0,6.821,11.847L417.417,293.745c3.751,2.178,6.821.411,6.821-3.926Z"/><path id="_Path_97" data-name="&lt;Path&gt;" class="cls-47" d="M423.884,157.049A15.113,15.113,0,0,0,417.1,145.27L228.749,35.9c-3.729-2.165-6.781-.409-6.781,3.9v132.24a15.117,15.117,0,0,0,6.781,11.779L417.1,293.193c3.73,2.165,6.781.409,6.781-3.9Z"/><path id="_Path_98" data-name="&lt;Path&gt;" class="cls-48" d="M423.531,157.286a15.03,15.03,0,0,0-6.741-11.711L229.528,36.838c-3.708-2.153-6.742-.406-6.742,3.881V172.192a15.026,15.026,0,0,0,6.742,11.71L416.79,292.64c3.707,2.153,6.741.407,6.741-3.881Z"/><path id="_Path_99" data-name="&lt;Path&gt;" class="cls-49" d="M423.178,157.523a14.939,14.939,0,0,0-6.7-11.642l-186.17-108.1c-3.686-2.141-6.7-.4-6.7,3.858V172.342a14.939,14.939,0,0,0,6.7,11.642l186.17,108.1c3.686,2.141,6.7.405,6.7-3.858Z"/><path id="_Path_100" data-name="&lt;Path&gt;" class="cls-50" d="M422.825,157.76a14.854,14.854,0,0,0-6.663-11.574L231.085,38.718c-3.665-2.128-6.663-.4-6.663,3.836V172.492a14.851,14.851,0,0,0,6.663,11.574L416.162,291.535c3.664,2.128,6.663.4,6.663-3.836Z"/><path id="_Path_101" data-name="&lt;Path&gt;" class="cls-51" d="M422.471,158a14.768,14.768,0,0,0-6.623-11.506L231.863,39.658c-3.643-2.116-6.623-.4-6.623,3.812V172.642a14.763,14.763,0,0,0,6.623,11.506L415.848,290.982c3.642,2.116,6.623.4,6.623-3.813Z"/></g><path id="_Path_102" data-name="&lt;Path&gt;" class="cls-52" d="M445.745,149.346a17.03,17.03,0,0,0-7.641-13.273L225.856,12.827c-4.2-2.44-7.642-.461-7.642,4.4V166.241a17.031,17.031,0,0,0,7.642,13.273L438.1,302.761c4.2,2.44,7.641.461,7.641-4.4Z"/><path id="_Path_103" data-name="&lt;Path&gt;" class="cls-53" d="M444.273,150.818a17.033,17.033,0,0,0-7.641-13.272L224.383,14.3c-4.2-2.441-7.641-.461-7.641,4.4V167.714a17.03,17.03,0,0,0,7.641,13.273L436.632,304.233c4.2,2.441,7.641.461,7.641-4.4Z"/><path id="_Path_104" data-name="&lt;Path&gt;" class="cls-54" d="M287.5,50.515,224.383,14.3c-4.2-2.441-7.641-.461-7.641,4.4V167.714a17.03,17.03,0,0,0,7.641,13.273L287.5,217.2Z"/><path id="_Path_105" data-name="&lt;Path&gt;" class="cls-55" d="M436.632,137.545,224.383,14.3c-4.2-2.44-7.641-.46-7.641,4.4V34.157l227.531,132.12V150.818A17.036,17.036,0,0,0,436.632,137.545Z"/><path id="_Path_106" data-name="&lt;Path&gt;" class="cls-56" d="M232.376,29.242c-1.45-.837-2.637-.148-2.637,1.531a5.866,5.866,0,0,0,2.644,4.579c1.454.84,2.641.151,2.637-1.531A5.88,5.88,0,0,0,232.376,29.242Z"/><path id="_Path_107" data-name="&lt;Path&gt;" class="cls-56" d="M239.714,33.341c-1.45-.838-2.636-.149-2.636,1.53a5.868,5.868,0,0,0,2.644,4.58c1.454.839,2.64.15,2.636-1.531A5.879,5.879,0,0,0,239.714,33.341Z"/><path id="_Path_108" data-name="&lt;Path&gt;" class="cls-56" d="M247.053,37.439c-1.45-.837-2.636-.148-2.636,1.531a5.865,5.865,0,0,0,2.643,4.579c1.454.84,2.641.151,2.637-1.531A5.88,5.88,0,0,0,247.053,37.439Z"/><path id="_Path_109" data-name="&lt;Path&gt;" class="cls-57" d="M249.666,73.873C237.7,66.962,227.9,72.649,227.9,86.51s9.822,30.872,21.825,37.8,21.8,1.244,21.765-12.636S261.636,80.785,249.666,73.873Z"/><polygon id="_Path_110" data-name="&lt;Path&gt;" class="cls-58" points="228.766 121.96 270.627 146.129 270.627 155.796 228.766 131.464 228.766 121.96"/><polygon id="_Path_111" data-name="&lt;Path&gt;" class="cls-58" points="228.766 138.878 270.627 163.047 270.627 172.714 228.766 148.382 228.766 138.878"/><polygon id="_Path_112" data-name="&lt;Path&gt;" class="cls-58" points="228.766 155.796 270.627 179.965 270.627 189.632 228.766 165.3 228.766 155.796"/></g><path id="_Path_113" data-name="&lt;Path&gt;" class="cls-59" d="M335.36,187.232l-91.892-53.476a1.548,1.548,0,0,0-2,.392l-.874,1.131-.344,65.882a5.058,5.058,0,0,0,2.518,4.374l92.51,53.554,1.5-.8a2.065,2.065,0,0,0,1.1-1.826V191.606A5.059,5.059,0,0,0,335.36,187.232Z"/><path id="_Path_114" data-name="&lt;Path&gt;" class="cls-60" d="M333.979,187.773l-91.161-52.945a1.711,1.711,0,0,0-2.571,1.48v65.228a5.057,5.057,0,0,0,2.518,4.374l91.161,52.945a1.711,1.711,0,0,0,2.571-1.48V192.147A5.058,5.058,0,0,0,333.979,187.773Z"/><path id="_Path_115" data-name="&lt;Path&gt;" class="cls-61" d="M336.5,207.232V205.34q-.359-.194-.721-.4a13.953,13.953,0,0,0-4.013-1.706c-3.81-.743-7.519.615-10.325,1.882a14.158,14.158,0,0,0-3.842,2.831c-1.6,1.506-2.864,2.686-5.082,2.439-2.862-.331-4.46-4.059-5.745-7.055-.2-.475-.4-.93-.59-1.353-.339-.745-.652-1.5-.966-2.243-1.591-3.8-3.238-7.736-7.79-10.329-3.957-2.254-8.587-1.874-13.031,1.07-.531.351-1.067.723-1.61,1.1-3.047,2.114-6.2,4.3-9.457,3.609-1.71-.361-3.454-2.048-5.3-3.835-2.533-2.45-5.4-5.227-9.255-5.746-4.335-.581-7.8-.121-10.587,1.416a26.242,26.242,0,0,0-4.057,3.129,48.1,48.1,0,0,1-3.879,3.137v2.021a40.994,40.994,0,0,0,4.983-3.89,25.312,25.312,0,0,1,3.764-2.924c2.463-1.357,5.587-1.756,9.551-1.222,3.3.444,5.85,2.906,8.311,5.288,2.025,1.959,3.938,3.81,6.121,4.271,3.967.836,7.578-1.663,10.763-3.872.532-.369,1.059-.734,1.579-1.079,2.255-1.492,6.714-3.608,11.272-1.011,4.054,2.309,5.52,5.81,7.072,9.517.319.763.64,1.529.984,2.288.187.413.378.858.577,1.321,1.378,3.216,3.267,7.621,7.1,8.063a6.774,6.774,0,0,0,.789.047c2.52,0,4.1-1.488,5.638-2.931a12.636,12.636,0,0,1,3.381-2.524c2.579-1.163,5.97-2.416,9.312-1.764a12.523,12.523,0,0,1,3.519,1.527C335.465,206.7,335.976,206.975,336.5,207.232Z"/><g id="_Group_7" data-name="&lt;Group&gt;"><path id="_Path_116" data-name="&lt;Path&gt;" class="cls-62" d="M312.661,214.761a7.064,7.064,0,0,1-.825-.048c-4.3-.5-6.992-4.552-8.5-7.867-.562-1.24-1.055-2.542-1.532-3.8-1.309-3.457-2.546-6.723-5.176-9.132-3.953-3.62-9.336-.54-10.893.49-.392.261-.788.529-1.186.8-3.262,2.207-6.957,4.71-11.093,4.165-3.443-.454-5.973-2.83-8.419-5.129-1.914-1.8-3.893-3.658-6.243-4.482a11.74,11.74,0,0,0-9.384,1.263,25.159,25.159,0,0,0-3.765,2.925c-2.314,2.015-4.937,4.3-8,5.4l-.568-1.583c2.769-.993,5.265-3.166,7.467-5.084a26.148,26.148,0,0,1,4.058-3.13,13.406,13.406,0,0,1,10.751-1.376c2.686.941,4.8,2.925,6.839,4.843,2.355,2.213,4.58,4.3,7.487,4.687,3.5.459,6.769-1.751,9.931-3.89.4-.273.8-.544,1.2-.807,4.837-3.205,9.681-3.327,12.956-.328,2.925,2.679,4.291,6.287,5.613,9.776.467,1.234.95,2.511,1.49,3.7,1.324,2.92,3.64,6.486,7.157,6.893,2.7.311,4.8-1.421,7-3.257a28.623,28.623,0,0,1,2.715-2.085,14.328,14.328,0,0,1,10.436-1.941,13.929,13.929,0,0,1,4.012,1.705c1.663.923,3.231,1.8,4.934,1.555l.237,1.665c-2.257.319-4.153-.732-5.987-1.75a11.4,11.4,0,0,0-12.721.178,27.222,27.222,0,0,0-2.55,1.964C318.027,212.814,315.688,214.761,312.661,214.761Z"/></g><polygon id="_Path_117" data-name="&lt;Path&gt;" class="cls-63" points="313.298 206.464 312.878 206.464 312.879 246.631 313.299 246.875 313.298 206.464"/><polygon id="_Path_118" data-name="&lt;Path&gt;" class="cls-63" points="255.621 213.377 256.042 213.621 256.042 182.814 255.621 182.814 255.621 213.377"/><polygon id="_Path_119" data-name="&lt;Path&gt;" class="cls-63" points="272.924 223.426 273.345 223.67 273.345 191.153 272.924 191.153 272.924 223.426"/><polygon id="_Path_120" data-name="&lt;Path&gt;" class="cls-63" points="293.37 235.301 293.79 235.545 293.79 182.814 293.37 182.814 293.37 235.301"/><path id="_Path_121" data-name="&lt;Path&gt;" class="cls-63" d="M256.48,182.814a.777.777,0,0,1-.649.859c-.358,0-.648-.385-.648-.859s.29-.859.648-.859A.776.776,0,0,1,256.48,182.814Z"/><path id="_Path_122" data-name="&lt;Path&gt;" class="cls-63" d="M273.783,191.153c0,.475-.29.859-.649.859s-.648-.384-.648-.859.29-.859.648-.859A.776.776,0,0,1,273.783,191.153Z"/><path id="_Path_123" data-name="&lt;Path&gt;" class="cls-63" d="M294.228,182.814c0,.474-.29.859-.648.859s-.648-.385-.648-.859.29-.859.648-.859S294.228,182.339,294.228,182.814Z"/><path id="_Path_124" data-name="&lt;Path&gt;" class="cls-63" d="M313.737,206.464a.777.777,0,0,1-.649.859c-.358,0-.648-.385-.648-.859s.29-.859.648-.859A.777.777,0,0,1,313.737,206.464Z"/><g id="_Group_8" data-name="&lt;Group&gt;"><path id="_Compound_Path_" data-name="&lt;Compound Path&gt;" class="cls-64" d="M311.145,200.44a.641.641,0,0,0,.127-.349.85.85,0,0,0-.064-.388.575.575,0,0,0-.213-.277c-.166-.1-.335-.027-.508.236l-.442-.722a.96.96,0,0,1,.449-.4.68.68,0,0,1,.578.136,1.662,1.662,0,0,1,.575.71,2.06,2.06,0,0,1,.2,1.056,1.2,1.2,0,0,1-.144.522,1.868,1.868,0,0,1-.431.477l-.525.443,1.041.664-.055.8-1.859-1.184.045-.661.853-.7A2.341,2.341,0,0,0,311.145,200.44Z"/><path id="_Compound_Path_2" data-name="&lt;Compound Path&gt;" class="cls-64" d="M313.233,204.353a1.914,1.914,0,0,1-.78-1.083,4.489,4.489,0,0,1-.171-1.671,2.443,2.443,0,0,1,.374-1.324q.31-.387.856-.04a1.915,1.915,0,0,1,.78,1.082,4.478,4.478,0,0,1,.169,1.672,2.436,2.436,0,0,1-.372,1.324Q313.78,204.7,313.233,204.353Zm-.184-3.266a2.322,2.322,0,0,0-.19.883,3.634,3.634,0,0,0,.06,1.041.925.925,0,0,0,.362.613.256.256,0,0,0,.414-.117,2.371,2.371,0,0,0,.19-.883,3.648,3.648,0,0,0-.06-1.043.921.921,0,0,0-.363-.611A.255.255,0,0,0,313.049,201.087Z"/><path id="_Compound_Path_3" data-name="&lt;Compound Path&gt;" class="cls-64" d="M314.924,201.23l1.066.68-.27,3.981-.565-.36.218-3.224-.5-.32Z"/><path id="_Compound_Path_4" data-name="&lt;Compound Path&gt;" class="cls-64" d="M317.141,206.048q.243.156.395-.006a1.089,1.089,0,0,0,.21-.571.6.6,0,0,1-.538-.086,1.621,1.621,0,0,1-.591-.761,2.447,2.447,0,0,1-.18-1.128,1,1,0,0,1,.331-.8.6.6,0,0,1,.694.06,1.562,1.562,0,0,1,.473.471,2.218,2.218,0,0,1,.292.658,4.874,4.874,0,0,1,.126,1.554,3.846,3.846,0,0,1-.153.9,1.114,1.114,0,0,1-.283.5.614.614,0,0,1-.783,0,1.608,1.608,0,0,1-.349-.309,2.372,2.372,0,0,1-.246-.329c-.054-.092-.114-.2-.185-.34l.337-.44c.016.035.036.079.063.133a2.126,2.126,0,0,0,.159.253A.87.87,0,0,0,317.141,206.048Zm.178-1.384a.269.269,0,0,0,.3.033.4.4,0,0,0,.145-.33,1.169,1.169,0,0,0-.084-.5.737.737,0,0,0-.271-.362.23.23,0,0,0-.287-.015.457.457,0,0,0-.137.345,1.159,1.159,0,0,0,.07.487A.665.665,0,0,0,317.319,204.664Z"/></g><g id="_Group_9" data-name="&lt;Group&gt;"><path id="_Compound_Path_5" data-name="&lt;Compound Path&gt;" class="cls-64" d="M292.02,176.482a.634.634,0,0,0,.128-.349.88.88,0,0,0-.064-.388.572.572,0,0,0-.213-.276c-.166-.106-.336-.027-.508.235l-.443-.722a.962.962,0,0,1,.449-.4.681.681,0,0,1,.577.136,1.66,1.66,0,0,1,.577.709,2.07,2.07,0,0,1,.2,1.057,1.2,1.2,0,0,1-.144.523,1.882,1.882,0,0,1-.431.477l-.525.443,1.04.664-.054.8-1.859-1.185.045-.661.854-.7A2.325,2.325,0,0,0,292.02,176.482Z"/><path id="_Compound_Path_6" data-name="&lt;Compound Path&gt;" class="cls-64" d="M294.108,180.4a1.915,1.915,0,0,1-.78-1.082,4.515,4.515,0,0,1-.171-1.671,2.447,2.447,0,0,1,.374-1.325q.31-.387.856-.04a1.908,1.908,0,0,1,.78,1.083,4.492,4.492,0,0,1,.17,1.671,2.45,2.45,0,0,1-.373,1.325Q294.655,180.743,294.108,180.4Zm-.184-3.266a2.347,2.347,0,0,0-.19.883,3.641,3.641,0,0,0,.06,1.042.928.928,0,0,0,.364.612.255.255,0,0,0,.412-.117,2.322,2.322,0,0,0,.19-.883,3.641,3.641,0,0,0-.06-1.042.92.92,0,0,0-.363-.612A.256.256,0,0,0,293.924,177.129Z"/><path id="_Compound_Path_7" data-name="&lt;Compound Path&gt;" class="cls-64" d="M295.8,177.273l1.066.68-.27,3.98-.566-.36.219-3.224-.5-.319Z"/><path id="_Compound_Path_8" data-name="&lt;Compound Path&gt;" class="cls-64" d="M297.741,178.743a.661.661,0,0,1,.676.1,1.772,1.772,0,0,1,.629.728,1.8,1.8,0,0,1,.209.938.8.8,0,0,1-.288.64,2.277,2.277,0,0,1,.26,1.211.817.817,0,0,1-.338.7.7.7,0,0,1-.751-.1,1.908,1.908,0,0,1-.7-.823,2.111,2.111,0,0,1-.221-1.06.867.867,0,0,1,.4-.794,1.973,1.973,0,0,1-.184-.942A.663.663,0,0,1,297.741,178.743Zm.168,3.164a.881.881,0,0,0,.278.317.328.328,0,0,0,.3.048q.141-.049.159-.306a.909.909,0,0,0-.383-.8.322.322,0,0,0-.3-.049c-.092.037-.143.141-.154.312A.834.834,0,0,0,297.909,181.907Zm.154-1.717a.7.7,0,0,0,.243.3.235.235,0,0,0,.259.022.313.313,0,0,0,.13-.27.806.806,0,0,0-.082-.406.688.688,0,0,0-.243-.3.235.235,0,0,0-.262-.025.318.318,0,0,0-.129.272A.814.814,0,0,0,298.063,180.19Z"/></g><g id="_Group_10" data-name="&lt;Group&gt;"><path id="_Compound_Path_9" data-name="&lt;Compound Path&gt;" class="cls-64" d="M270.793,184.757a.637.637,0,0,0,.128-.349.872.872,0,0,0-.064-.389.572.572,0,0,0-.214-.276c-.165-.1-.334-.027-.507.236l-.444-.723a.957.957,0,0,1,.451-.4.678.678,0,0,1,.576.135,1.679,1.679,0,0,1,.577.71,2.091,2.091,0,0,1,.2,1.057,1.211,1.211,0,0,1-.144.523,1.928,1.928,0,0,1-.432.477l-.524.443,1.039.663-.054.8-1.858-1.185.044-.661.854-.7A2.463,2.463,0,0,0,270.793,184.757Z"/><path id="_Compound_Path_10" data-name="&lt;Compound Path&gt;" class="cls-64" d="M272.881,188.669a1.911,1.911,0,0,1-.78-1.082,4.49,4.49,0,0,1-.17-1.671,2.426,2.426,0,0,1,.373-1.324q.311-.389.856-.04a1.918,1.918,0,0,1,.78,1.082,4.474,4.474,0,0,1,.17,1.671,2.429,2.429,0,0,1-.374,1.325Q273.427,189.019,272.881,188.669ZM272.7,185.4a2.317,2.317,0,0,0-.189.884,3.673,3.673,0,0,0,.059,1.041.926.926,0,0,0,.363.613.255.255,0,0,0,.413-.118,2.321,2.321,0,0,0,.19-.882,3.675,3.675,0,0,0-.059-1.042.926.926,0,0,0-.364-.612A.256.256,0,0,0,272.7,185.4Z"/><path id="_Compound_Path_11" data-name="&lt;Compound Path&gt;" class="cls-64" d="M274.572,185.548l1.066.679-.269,3.981-.566-.361.218-3.223-.5-.319Z"/><path id="_Compound_Path_12" data-name="&lt;Compound Path&gt;" class="cls-64" d="M276.064,187.83l.086-1.276,1.9,1.213-.045.672-1.291,2.629-.641-.409,1.235-2.568-.662-.423-.034.512Z"/></g><g id="_Group_11" data-name="&lt;Group&gt;"><path id="_Compound_Path_13" data-name="&lt;Compound Path&gt;" class="cls-64" d="M253.982,176.482a.636.636,0,0,0,.127-.35.866.866,0,0,0-.064-.388.577.577,0,0,0-.213-.276q-.249-.157-.507.235l-.443-.722a.958.958,0,0,1,.449-.4.674.674,0,0,1,.577.136,1.663,1.663,0,0,1,.577.709,2.088,2.088,0,0,1,.2,1.057,1.189,1.189,0,0,1-.144.522,1.867,1.867,0,0,1-.431.478l-.525.442,1.041.664-.055.8-1.858-1.185.045-.66.852-.7A2.386,2.386,0,0,0,253.982,176.482Z"/><path id="_Compound_Path_14" data-name="&lt;Compound Path&gt;" class="cls-64" d="M256.07,180.394a1.911,1.911,0,0,1-.78-1.082,4.518,4.518,0,0,1-.171-1.672,2.449,2.449,0,0,1,.373-1.324q.311-.387.856-.04a1.915,1.915,0,0,1,.78,1.084,4.469,4.469,0,0,1,.17,1.671,2.436,2.436,0,0,1-.372,1.324C256.72,180.613,256.434,180.627,256.07,180.394Zm-.184-3.265a2.312,2.312,0,0,0-.19.882,3.641,3.641,0,0,0,.06,1.042.917.917,0,0,0,.362.612.256.256,0,0,0,.414-.117,2.342,2.342,0,0,0,.19-.883,3.643,3.643,0,0,0-.06-1.042.924.924,0,0,0-.364-.612A.255.255,0,0,0,255.886,177.129Z"/><path id="_Compound_Path_15" data-name="&lt;Compound Path&gt;" class="cls-64" d="M257.761,177.272l1.066.68-.27,3.981-.565-.361.218-3.223-.5-.32Z"/><path id="_Compound_Path_16" data-name="&lt;Compound Path&gt;" class="cls-64" d="M260.45,179.688q-.245-.156-.395.006a1.069,1.069,0,0,0-.21.571.614.614,0,0,1,.536.092,1.618,1.618,0,0,1,.593.758,2.439,2.439,0,0,1,.18,1.128,1,1,0,0,1-.331.8.6.6,0,0,1-.694-.062,1.592,1.592,0,0,1-.473-.47,2.165,2.165,0,0,1-.289-.657,4.774,4.774,0,0,1-.129-1.556,3.727,3.727,0,0,1,.153-.9,1.063,1.063,0,0,1,.287-.5.6.6,0,0,1,.779,0,1.621,1.621,0,0,1,.347.308,2.484,2.484,0,0,1,.247.332c.055.095.117.21.184.344l-.321.449c-.014-.033-.033-.077-.06-.134a1.932,1.932,0,0,0-.161-.257A.908.908,0,0,0,260.45,179.688Zm-.174,1.386a.273.273,0,0,0-.305-.031.4.4,0,0,0-.147.332,1.14,1.14,0,0,0,.085.5.726.726,0,0,0,.27.359.246.246,0,0,0,.294.021.426.426,0,0,0,.14-.341,1.121,1.121,0,0,0-.073-.492A.678.678,0,0,0,260.276,181.074Z"/></g></g></g></svg>