<svg xmlns="http://www.w3.org/2000/svg" width="200" height="200" viewBox="0 0 200 200">
  <g id="dropdown-1A-tms" transform="translate(4363.908 6464.267)">
    <rect id="Rectangle_2265" data-name="Rectangle 2265" width="200" height="200" transform="translate(-4363.908 -6464.267)" fill="none"/>
    <g id="Group_58095" data-name="Group 58095" transform="translate(-4)">
      <path id="Path_76055" data-name="Path 76055" d="M-4218.435-6196.6v3.163l-.061.733-.131.74-.187.742-.255.734-.318.729-.388.725-.447.718-.519.711-.584.7-.65.689-.708.675-.76.639-.812.614-.85.583-.895.558-.938.524-.976.493-1.011.465-1.042.432-1.078.4-1.107.373-1.133.337-1.158.307-1.183.271-1.2.236-1.219.212-1.232.172-1.248.14-1.258.1-1.268.07-1.275.035h-1.279l-1.278-.038-1.279-.073-1.278-.111-1.273-.146-1.268-.187-1.254-.221-1.243-.262-1.232-.3-1.215-.338-1.2-.376-1.164-.408-1.112-.439-1.062-.466-1.01-.494-.963-.519-.911-.538-.856-.564-.8-.584-.75-.6-.7-.62-.64-.638-.584-.654-.532-.669-.475-.681-.412-.694-.357-.7-.3-.715-.242-.721-.177-.724-.121-.735-.061-.735v-3.156l.061.736.121.73.177.724.242.725.3.71.357.7.412.7.475.68.532.668.584.654.64.639.7.62.75.6.8.584.856.563.911.539.963.52,1.01.491,1.063.464,1.112.439,1.164.412,1.2.378,1.215.337,1.232.3,1.243.257,1.254.22,1.268.187,1.273.145,1.278.114,1.279.073,1.278.035h1.279l1.275-.029,1.268-.071,1.258-.106,1.248-.135,1.232-.177,1.219-.206,1.2-.236,1.183-.277,1.158-.306,1.133-.333,1.107-.373,1.078-.4,1.042-.433,1.011-.462.976-.494.938-.528.895-.555.85-.581.812-.616.76-.639.708-.675.65-.688.584-.7.519-.71.447-.718.388-.727.318-.735.255-.734.187-.735.131-.74Z" transform="translate(-35.456 -151.409)" fill="#00bdf3" fill-rule="evenodd"/>
      <path id="Path_76056" data-name="Path 76056" d="M-4258.126-6204.12c-12.656-4.218-16.994-13.56-9.685-20.869s23.491-9.81,36.145-5.593,16.993,13.567,9.685,20.869S-4245.473-6199.9-4258.126-6204.12Z" transform="translate(-35.449 -131.068)" fill="#caecff" fill-rule="evenodd"/>
      <g id="Group_42223" data-name="Group 42223" transform="translate(-4297.752 -6368.073)">
        <path id="Path_76057" data-name="Path 76057" d="M-4248.054-6227.651l-2.447-1.415,23.653-13.642,2.447,1.41Z" transform="translate(4250.501 6242.707)" fill="#9bb2cb" fill-rule="evenodd"/>
        <path id="Path_76058" data-name="Path 76058" d="M-4248.054-6200.114l-2.447-1.413v-9.761l2.447,1.417Z" transform="translate(4250.501 6224.929)" fill="#003b7d" fill-rule="evenodd"/>
      </g>
      <path id="Path_76059" data-name="Path 76059" d="M-4244.862-6225.813l23.649-13.647v9.766l-23.652,13.641Z" transform="translate(-50.44 -127.203)" fill="#00bdf3" fill-rule="evenodd"/>
      <path id="Path_76060" data-name="Path 76060" d="M-4328.794-6333.4l-3.347-1.932-.781-.639-.588-.912-.373-1.157-.126-1.4.019-61.841.131-1.552.373-1.6.587-1.59.782-1.534.946-1.446,1.082-1.3,1.193-1.116,1.279-.892,88.6-51.106,1.279-.588,1.191-.256,1.083.055.941.357,3.347,1.932-.941-.352-1.083-.061-1.192.261-1.279.584-88.6,51.1-1.278.891-1.193,1.118-1.081,1.305-.947,1.443-.776,1.542-.593,1.584-.373,1.6-.13,1.557-.021,61.837.132,1.4.367,1.163.588.905Z" transform="translate(0)" fill="#caecff" fill-rule="evenodd"/>
      <path id="Path_76061" data-name="Path 76061" d="M-4314.279-6395.389l87.674-50.572c1.581-.911,2.859-.171,2.859,1.65l-.02,59.547a6.329,6.329,0,0,1-2.864,4.953l-87.674,50.577c-1.58.907-2.858.171-2.858-1.656l.024-59.547A6.316,6.316,0,0,1-4314.279-6395.389Z" transform="translate(-9.533 -10.137)" fill="#caecff" fill-rule="evenodd"/>
      <path id="Path_76062" data-name="Path 76062" d="M-4224.93-6380.729l-87.677,50.576.88.509,87.68-50.578.574-.4.538-.5.483-.584.422-.65.349-.689.266-.716.167-.714.061-.7.019-59.547-.056-.629-.172-.523-.261-.409-.348-.291-.881-.5.349.288.266.409.167.521.055.63-.02,59.551-.059.7-.168.72-.265.714-.349.686-.423.649-.483.582-.537.5Z" transform="translate(-12.111 -9.726)" fill="#00bdf3" fill-rule="evenodd"/>
      <path id="Path_76063" data-name="Path 76063" d="M-4314.357-6177.262l-.88-.51-.574.264-.54.12-.483-.024-.422-.162.88.507.422.163.483.019.54-.116Z" transform="translate(-9.48 -162.108)" fill="#00bdf3" fill-rule="evenodd"/>
      <path id="Path_76064" data-name="Path 76064" d="M-4319.907-6407.885l88.595-51.106c3.5-2.017,6.367-.361,6.363,3.686l-.021,61.837a14.118,14.118,0,0,1-6.371,11.029l-88.591,51.1c-3.509,2.023-6.374.368-6.368-3.679l.019-61.837a14.168,14.168,0,0,1,6.374-11.034Zm.458,4.858a6.32,6.32,0,0,0-2.859,4.952l-.024,59.547c0,1.822,1.278,2.562,2.859,1.656l87.679-50.577a6.337,6.337,0,0,0,2.859-4.953l.02-59.546c0-1.822-1.279-2.563-2.858-1.652Z" transform="translate(-4.363 -2.499)" fill="#003b7d" fill-rule="evenodd"/>
      <path id="Path_76065" data-name="Path 76065" d="M-4209.646-6233.156a.831.831,0,0,0-.85.08,2.477,2.477,0,0,0-.856.9,2.472,2.472,0,0,0-.357,1.194.841.841,0,0,0,.357.785.844.844,0,0,0,.851-.085,2.409,2.409,0,0,0,.855-.9,2.433,2.433,0,0,0,.357-1.193A.841.841,0,0,0-4209.646-6233.156Z" transform="translate(-69.202 -130.722)" fill="#caecff" fill-rule="evenodd"/>
      <g id="Group_42224" data-name="Group 42224" transform="translate(-4221.439 -6356.629)">
        <path id="Path_76066" data-name="Path 76066" d="M-4073.908-6194.917c-.983,1.913-1.381,7.257.513,9.98,5.532,7.968,28.284,18.273,38,11.4a8.216,8.216,0,0,0,3.322-4.53,12.672,12.672,0,0,0-.362-6.453c-.625,3.105-2.91,4.948-5.572,6.281-16.807,5.266-18.59-5.34-31.837-10.378C-4072.413-6190.514-4073.5-6191.581-4073.908-6194.917Z" transform="translate(4074.73 6204.222)" fill="#00bdf3" fill-rule="evenodd"/>
        <path id="Path_76067" data-name="Path 76067" d="M-4062.977-6215.289a33.344,33.344,0,0,0-4.231,1.937v.776l-.729-.363c-3.946,2.346-6.448,5.286-6.73,8.7-.715,8.647,10.344,5.21,14.99,11.249,5.254,6.836,18.705,9.208,25.3,3.761a6.176,6.176,0,0,0,2.33-5.547,13.2,13.2,0,0,0-2.159-5.651c-2.919-4.683-8.284-10.709-15.252-13.763C-4054.275-6216.306-4057.92-6217.223-4062.977-6215.289Z" transform="translate(4074.713 6216.35)" fill="#003b7d" fill-rule="evenodd"/>
        <path id="Path_76068" data-name="Path 76068" d="M-4057.444-6208.668c10.371,5.194,13.109,7.493,14.876,9.191a.6.6,0,0,0,.684.014.26.26,0,0,0,.15-.247c.006-.1-.068-.176-.14-.252-1.937-2.023-5.97-4.852-15.57-9.482Z" transform="translate(4064.949 6212.442)" fill="#00bdf3" fill-rule="evenodd"/>
        <path id="Path_76069" data-name="Path 76069" d="M-4055.6-6209.145l6.654,3.674a.135.135,0,0,1,.077.125.138.138,0,0,1-.071.126l-1.712.988-.689.4a.3.3,0,0,1-.286,0l-6.645-3.65a.138.138,0,0,1-.076-.125.145.145,0,0,1,.071-.125l2.39-1.41A.282.282,0,0,1-4055.6-6209.145Z" transform="translate(4065.46 6212.293)" fill="#00bdf3" fill-rule="evenodd"/>
        <path id="Path_76070" data-name="Path 76070" d="M-4048.753-6206.178a10.691,10.691,0,0,0-1.007-1.324c-.891-.981-2.526-2.251-3.91-2.246a3.765,3.765,0,0,0-1.308.294l-2.187,1.278.459-.145.79-.042.872.192.93.429.936.647.872.815.785.947.392.6a.573.573,0,0,0,.761.181l1.42-.82A.568.568,0,0,0-4048.753-6206.178Z" transform="translate(4064.791 6212.615)" fill="#caecff" fill-rule="evenodd"/>
        <path id="Path_76071" data-name="Path 76071" d="M-4054.186-6205.953a3.433,3.433,0,0,0-3.021-.45.131.131,0,0,0-.085.12.136.136,0,0,0,.076.136l6.1,3.307A7.945,7.945,0,0,0-4054.186-6205.953Z" transform="translate(4064.863 6210.824)" fill="#caecff" fill-rule="evenodd"/>
      </g>
      <g id="Group_42225" data-name="Group 42225" transform="translate(-4324.149 -6334.794)">
        <path id="Path_76072" data-name="Path 76072" d="M-4196.167-6120.313v4.006l-.061.216-.081.212-.1.206-.115.208-.135.207-.146.2-.172.2-.187.2-.2.187-.228.186-.235.182-.256.172-.276.165-74.151,42.816-.292.16-.3.146-.313.142-.318.125-.327.121-.332.105-.343.1-.352.091-.352.075-.358.066-.368.055-.363.044-.373.036-.371.03-.374.016-.373,0-.373,0-.371-.021-.373-.024-.373-.036-.368-.044-.362-.055-.357-.066-.357-.081-.348-.085-.343-.1-.332-.111-.327-.115-.318-.131-.311-.136-.3-.151-.288-.155-25.419-14.724-.272-.165-.257-.178-.241-.176-.22-.186-.2-.187-.187-.2-.171-.2-.151-.2-.132-.206-.114-.205-.1-.213-.081-.211-.06-.212v-4.011l.06.217.081.212.1.205.114.212.132.2.151.2.171.2.187.19.2.192.22.181.241.181.257.171.272.172,25.419,14.717.288.162.3.146.311.142.318.124.327.123.332.1.343.1.348.09.357.075.357.066.362.055.368.051.373.036.373.024.371.015.373,0,.373,0,.374-.015.371-.024.373-.036.363-.046.368-.06.358-.066.352-.075.352-.085.343-.1.332-.1.327-.117.318-.13.313-.137.3-.151.292-.156,74.151-42.815.276-.172.256-.17.235-.181.228-.182.2-.191.187-.192.172-.2.146-.2.135-.206.115-.207.1-.21.081-.211Z" transform="translate(4311.193 6140.175)" fill="#003b7d" fill-rule="evenodd"/>
        <path id="Path_76073" data-name="Path 76073" d="M-4309.029-6121.93l74.149-42.821a12.219,12.219,0,0,1,11,.006l25.418,14.718c3.02,1.747,3.02,4.616,0,6.363l-74.15,42.815a12.182,12.182,0,0,1-11-.006l-25.42-14.717C-4312.055-6117.326-4312.055-6120.184-4309.029-6121.93Z" transform="translate(4311.299 6166.058)" fill="#00bdf3" fill-rule="evenodd"/>
        <path id="Path_76074" data-name="Path 76074" d="M-4303.312-6118.794l6.485-3.742,9.809-5.666,10.223-5.9,5.11-2.95c.09-.066.186-.126.286-.187l6.478-3.74,9.817-5.668,10.222-5.9,13.315-7.69,2.979-1.722a7.214,7.214,0,0,1,6.509,0l25.464,14.734c1.793,1.032,1.788,2.724,0,3.761l-31.626,18.262c-.09.06-.184.121-.286.181l-42.81,24.72a7.213,7.213,0,0,1-6.508-.005l-25.466-14.733C-4305.1-6116.067-4305.1-6117.759-4303.312-6118.794Z" transform="translate(4307.538 6164.176)" fill="#caecff" fill-rule="evenodd"/>
        <path id="Path_76075" data-name="Path 76075" d="M-4226.534-6072.806l3.674-2.118a2.962,2.962,0,0,1,2.684,0l3.67,2.123a.82.82,0,0,1,0,1.551l-3.676,2.123a2.993,2.993,0,0,1-2.682,0l-3.675-2.123A.824.824,0,0,1-4226.534-6072.806Z" transform="translate(4263.65 6114.673)" fill="#00bdf3" fill-rule="evenodd"/>
        <path id="Path_76076" data-name="Path 76076" d="M-4264.545-6050.859l-3.674,2.12a.82.82,0,0,0,0,1.55l3.674,2.129a2.994,2.994,0,0,0,2.684,0l3.674-2.124a.82.82,0,0,0,0-1.551l-3.669-2.124A2.974,2.974,0,0,0-4264.545-6050.859Z" transform="translate(4287.235 6101.057)" fill="#00bdf3" fill-rule="evenodd"/>
        <path id="Path_76077" data-name="Path 76077" d="M-4243.716-6038.812l-3.673,2.12a.819.819,0,0,0-.006,1.55l3.674,2.129a3,3,0,0,0,2.683,0l3.674-2.124a.819.819,0,0,0,0-1.551l-3.668-2.125A2.976,2.976,0,0,0-4243.716-6038.812Z" transform="translate(4275.453 6094.239)" fill="#00bdf3" fill-rule="evenodd"/>
        <path id="Path_76078" data-name="Path 76078" d="M-4261.846-6069.138l3.679-2.125a.82.82,0,0,0,0-1.55l-3.674-2.124a2.966,2.966,0,0,0-2.682,0l-3.676,2.119a.823.823,0,0,0,0,1.555l3.67,2.125A2.969,2.969,0,0,0-4261.846-6069.138Z" transform="translate(4287.225 6114.679)" fill="#00bdf3" fill-rule="evenodd"/>
        <path id="Path_76079" data-name="Path 76079" d="M-4241-6081.174l3.675-2.124a.819.819,0,0,0,0-1.55l-3.67-2.125a2.961,2.961,0,0,0-2.683,0l-3.674,2.12a.823.823,0,0,0,0,1.555l3.673,2.124A2.977,2.977,0,0,0-4241-6081.174Z" transform="translate(4275.432 6121.49)" fill="#00bdf3" fill-rule="evenodd"/>
        <path id="Path_76080" data-name="Path 76080" d="M-4279.013-6059.23l-3.673,2.125a2.986,2.986,0,0,1-2.684,0l-3.674-2.125a.822.822,0,0,1,0-1.556l3.674-2.118a2.974,2.974,0,0,1,2.688,0l3.668,2.123A.819.819,0,0,1-4279.013-6059.23Z" transform="translate(4299.02 6107.872)" fill="#00bdf3" fill-rule="evenodd"/>
        <path id="Path_76081" data-name="Path 76081" d="M-4247.376-6060.773l3.675-2.118a2.964,2.964,0,0,1,2.683,0l3.674,2.124a.819.819,0,0,1,0,1.549l-3.679,2.125a2.993,2.993,0,0,1-2.683,0l-3.67-2.125A.823.823,0,0,1-4247.376-6060.773Z" transform="translate(4275.443 6107.864)" fill="#00bdf3" fill-rule="evenodd"/>
        <path id="Path_76082" data-name="Path 76082" d="M-4184.851-6096.875l3.674-2.118a2.958,2.958,0,0,1,2.683,0l3.674,2.123a.82.82,0,0,1-.006,1.551l-3.673,2.124a3,3,0,0,1-2.683,0l-3.668-2.129A.819.819,0,0,1-4184.851-6096.875Z" transform="translate(4240.065 6128.293)" fill="#00bdf3" fill-rule="evenodd"/>
        <path id="Path_76083" data-name="Path 76083" d="M-4164.03-6084.831l3.674-2.119a2.959,2.959,0,0,1,2.683,0l3.674,2.124a.819.819,0,0,1,0,1.551l-3.679,2.125a3,3,0,0,1-2.683,0l-3.669-2.131A.818.818,0,0,1-4164.03-6084.831Z" transform="translate(4228.284 6121.479)" fill="#00bdf3" fill-rule="evenodd"/>
        <path id="Path_76084" data-name="Path 76084" d="M-4220.163-6093.207l3.674-2.125a.818.818,0,0,0,0-1.549l-3.674-2.125a2.968,2.968,0,0,0-2.683,0l-3.675,2.119a.822.822,0,0,0,0,1.556l3.675,2.125A2.992,2.992,0,0,0-4220.163-6093.207Z" transform="translate(4263.642 6128.299)" fill="#00bdf3" fill-rule="evenodd"/>
        <path id="Path_76085" data-name="Path 76085" d="M-4199.321-6105.241l3.673-2.124a.82.82,0,0,0,.005-1.55l-3.674-2.123a2.961,2.961,0,0,0-2.683,0l-3.674,2.118a.823.823,0,0,0,0,1.556l3.669,2.124A3,3,0,0,0-4199.321-6105.241Z" transform="translate(4251.846 6135.108)" fill="#00bdf3" fill-rule="evenodd"/>
        <path id="Path_76086" data-name="Path 76086" d="M-4205.7-6084.84l3.674-2.12a2.966,2.966,0,0,1,2.683,0l3.674,2.124a.818.818,0,0,1,0,1.55l-3.674,2.125a2.993,2.993,0,0,1-2.683,0l-3.674-2.128A.819.819,0,0,1-4205.7-6084.84Z" transform="translate(4251.86 6121.483)" fill="#00bdf3" fill-rule="evenodd"/>
        <path id="Path_76087" data-name="Path 76087" d="M-4226.555-6062.347l21.775-12.568a2.962,2.962,0,0,1,2.683,0l3.669,2.125a.819.819,0,0,1,0,1.551l-21.769,12.574a3.011,3.011,0,0,1-2.688,0l-3.67-2.126A.822.822,0,0,1-4226.555-6062.347Z" transform="translate(4263.662 6114.668)" fill="#00bdf3" fill-rule="evenodd"/>
        <path id="Path_76088" data-name="Path 76088" d="M-4115.581-6136.908l3.674-2.118a2.962,2.962,0,0,1,2.683,0l3.668,2.123a.819.819,0,0,1,0,1.551l-3.674,2.124a2.983,2.983,0,0,1-2.683-.006l-3.674-2.124A.82.82,0,0,1-4115.581-6136.908Z" transform="translate(4200.869 6150.944)" fill="#00bdf3" fill-rule="evenodd"/>
        <path id="Path_76089" data-name="Path 76089" d="M-4094.759-6124.863l3.674-2.117a2.959,2.959,0,0,1,2.683,0l3.674,2.123a.82.82,0,0,1-.006,1.551l-3.674,2.124a2.975,2.975,0,0,1-2.683,0l-3.674-2.125A.82.82,0,0,1-4094.759-6124.863Z" transform="translate(4189.088 6144.129)" fill="#00bdf3" fill-rule="evenodd"/>
        <path id="Path_76090" data-name="Path 76090" d="M-4130.051-6145.273l3.674-2.124a.818.818,0,0,0,0-1.55l-3.669-2.124a2.962,2.962,0,0,0-2.683,0l-3.674,2.118a.82.82,0,0,0-.005,1.55l3.674,2.124A2.982,2.982,0,0,0-4130.051-6145.273Z" transform="translate(4212.651 6157.76)" fill="#00bdf3" fill-rule="evenodd"/>
        <path id="Path_76091" data-name="Path 76091" d="M-4136.415-6124.87l3.674-2.124a2.97,2.97,0,0,1,2.684,0l3.674,2.124a.82.82,0,0,1-.006,1.55l-3.674,2.126a2.97,2.97,0,0,1-2.684,0l-3.668-2.126A.819.819,0,0,1-4136.415-6124.87Z" transform="translate(4212.657 6144.135)" fill="#00bdf3" fill-rule="evenodd"/>
        <path id="Path_76092" data-name="Path 76092" d="M-4115.593-6112.823l3.674-2.126a2.967,2.967,0,0,1,2.684,0l3.674,2.126a.819.819,0,0,1,0,1.551l-3.679,2.124a2.967,2.967,0,0,1-2.684,0l-3.669-2.124A.819.819,0,0,1-4115.593-6112.823Z" transform="translate(4200.875 6137.321)" fill="#00bdf3" fill-rule="evenodd"/>
        <path id="Path_76093" data-name="Path 76093" d="M-4171.726-6121.206l3.674-2.124a.819.819,0,0,0,0-1.551l-3.674-2.124a2.964,2.964,0,0,0-2.684,0l-3.674,2.124a.819.819,0,0,0,0,1.551l3.674,2.124A2.964,2.964,0,0,0-4171.726-6121.206Z" transform="translate(4236.235 6144.142)" fill="#00bdf3" fill-rule="evenodd"/>
        <path id="Path_76094" data-name="Path 76094" d="M-4150.884-6133.241l3.674-2.124a.82.82,0,0,0,0-1.551l-3.674-2.123a2.956,2.956,0,0,0-2.683,0l-3.674,2.123a.819.819,0,0,0,0,1.551l3.669,2.124A2.961,2.961,0,0,0-4150.884-6133.241Z" transform="translate(4224.439 6150.951)" fill="#00bdf3" fill-rule="evenodd"/>
        <path id="Path_76095" data-name="Path 76095" d="M-4157.249-6112.829l3.674-2.121a2.964,2.964,0,0,1,2.683,0l3.673,2.126a.819.819,0,0,1,0,1.551l-3.678,2.118a2.967,2.967,0,0,1-2.684,0l-3.668-2.124A.819.819,0,0,1-4157.249-6112.829Z" transform="translate(4224.446 6137.321)" fill="#00bdf3" fill-rule="evenodd"/>
        <path id="Path_76096" data-name="Path 76096" d="M-4136.428-6100.781l3.674-2.118a2.966,2.966,0,0,1,2.683,0l3.674,2.124a.819.819,0,0,1,0,1.551l-3.674,2.118a2.962,2.962,0,0,1-2.683,0l-3.674-2.124A.82.82,0,0,1-4136.428-6100.781Z" transform="translate(4212.665 6130.502)" fill="#00bdf3" fill-rule="evenodd"/>
        <path id="Path_76097" data-name="Path 76097" d="M-4226.729-6074.235l3.673-2.124a2.993,2.993,0,0,1,2.683,0l3.668,2.129a.819.819,0,0,1,0,1.55l-3.674,2.121a2.978,2.978,0,0,1-2.683,0l-3.674-2.126A.819.819,0,0,1-4226.729-6074.235Z" transform="translate(4263.761 6115.483)" fill="#caecff" fill-rule="evenodd"/>
        <path id="Path_76098" data-name="Path 76098" d="M-4264.745-6052.289l-3.676,2.124a.819.819,0,0,0,0,1.55l3.676,2.124a2.966,2.966,0,0,0,2.683,0l3.674-2.118a.819.819,0,0,0,0-1.551l-3.67-2.129A3,3,0,0,0-4264.745-6052.289Z" transform="translate(4287.35 6101.864)" fill="#caecff" fill-rule="evenodd"/>
        <path id="Path_76099" data-name="Path 76099" d="M-4243.919-6040.244l-3.674,2.123a.819.819,0,0,0,0,1.55l3.674,2.124a2.961,2.961,0,0,0,2.683,0l3.674-2.118a.818.818,0,0,0,0-1.55l-3.668-2.129A3,3,0,0,0-4243.919-6040.244Z" transform="translate(4275.565 6095.047)" fill="#caecff" fill-rule="evenodd"/>
        <path id="Path_76100" data-name="Path 76100" d="M-4262.046-6070.57l3.676-2.121a.82.82,0,0,0,.005-1.55l-3.675-2.123a2.975,2.975,0,0,0-2.683-.006l-3.674,2.124a.82.82,0,0,0-.005,1.551l3.675,2.125A2.959,2.959,0,0,0-4262.046-6070.57Z" transform="translate(4287.338 6115.489)" fill="#caecff" fill-rule="evenodd"/>
        <path id="Path_76101" data-name="Path 76101" d="M-4241.2-6082.6l3.674-2.119a.819.819,0,0,0,0-1.55l-3.668-2.124a2.979,2.979,0,0,0-2.684,0l-3.679,2.123a.819.819,0,0,0,0,1.55l3.674,2.125A2.968,2.968,0,0,0-4241.2-6082.6Z" transform="translate(4275.547 6122.298)" fill="#caecff" fill-rule="evenodd"/>
        <path id="Path_76102" data-name="Path 76102" d="M-4279.209-6060.656l-3.674,2.117a2.953,2.953,0,0,1-2.683,0l-3.675-2.123a.819.819,0,0,1,0-1.55l3.675-2.125a2.979,2.979,0,0,1,2.683,0l3.674,2.126A.819.819,0,0,1-4279.209-6060.656Z" transform="translate(4299.131 6108.68)" fill="#caecff" fill-rule="evenodd"/>
        <path id="Path_76103" data-name="Path 76103" d="M-4247.576-6062.2l3.674-2.126a2.978,2.978,0,0,1,2.683.005l3.676,2.124a.822.822,0,0,1,0,1.552l-3.679,2.119a2.967,2.967,0,0,1-2.684,0l-3.67-2.124A.819.819,0,0,1-4247.576-6062.2Z" transform="translate(4275.556 6108.674)" fill="#caecff" fill-rule="evenodd"/>
        <path id="Path_76104" data-name="Path 76104" d="M-4185.051-6098.3l3.676-2.126a3,3,0,0,1,2.683,0l3.674,2.129a.82.82,0,0,1-.005,1.551l-3.674,2.12a2.961,2.961,0,0,1-2.684,0l-3.67-2.124A.819.819,0,0,1-4185.051-6098.3Z" transform="translate(4240.177 6129.102)" fill="#caecff" fill-rule="evenodd"/>
        <path id="Path_76105" data-name="Path 76105" d="M-4164.229-6086.257l3.676-2.124a2.988,2.988,0,0,1,2.684,0l3.673,2.129a.82.82,0,0,1,0,1.55l-3.679,2.119a2.961,2.961,0,0,1-2.684,0l-3.67-2.124A.819.819,0,0,1-4164.229-6086.257Z" transform="translate(4228.395 6122.286)" fill="#caecff" fill-rule="evenodd"/>
        <path id="Path_76106" data-name="Path 76106" d="M-4220.359-6094.64l3.674-2.119a.818.818,0,0,0,0-1.55l-3.674-2.126a2.98,2.98,0,0,0-2.683,0l-3.675,2.125a.818.818,0,0,0,0,1.549l3.668,2.125A2.978,2.978,0,0,0-4220.359-6094.64Z" transform="translate(4263.753 6129.108)" fill="#caecff" fill-rule="evenodd"/>
        <path id="Path_76107" data-name="Path 76107" d="M-4199.52-6106.673l3.674-2.12a.819.819,0,0,0,0-1.55l-3.674-2.124a2.982,2.982,0,0,0-2.684-.006l-3.675,2.124a.82.82,0,0,0,0,1.55l3.674,2.125A2.961,2.961,0,0,0-4199.52-6106.673Z" transform="translate(4251.959 6135.916)" fill="#caecff" fill-rule="evenodd"/>
        <path id="Path_76108" data-name="Path 76108" d="M-4205.9-6086.267l3.674-2.124a3,3,0,0,1,2.684,0l3.674,2.129a.819.819,0,0,1,0,1.55l-3.674,2.118a2.975,2.975,0,0,1-2.689,0l-3.669-2.124A.818.818,0,0,1-4205.9-6086.267Z" transform="translate(4251.972 6122.291)" fill="#caecff" fill-rule="evenodd"/>
        <path id="Path_76109" data-name="Path 76109" d="M-4226.752-6063.773l21.775-12.574a3,3,0,0,1,2.683,0l3.669,2.13a.818.818,0,0,1,0,1.549L-4220.4-6060.1a2.964,2.964,0,0,1-2.684,0l-3.67-2.123A.82.82,0,0,1-4226.752-6063.773Z" transform="translate(4263.773 6115.477)" fill="#caecff" fill-rule="evenodd"/>
        <path id="Path_76110" data-name="Path 76110" d="M-4115.78-6138.337l3.676-2.125a2.981,2.981,0,0,1,2.683,0l3.669,2.125a.821.821,0,0,1,0,1.554l-3.674,2.12a2.964,2.964,0,0,1-2.684,0l-3.674-2.124A.82.82,0,0,1-4115.78-6138.337Z" transform="translate(4200.981 6151.756)" fill="#caecff" fill-rule="evenodd"/>
        <path id="Path_76111" data-name="Path 76111" d="M-4094.958-6126.292l3.676-2.126a2.991,2.991,0,0,1,2.684,0l3.673,2.126a.823.823,0,0,1,0,1.555l-3.674,2.119a2.969,2.969,0,0,1-2.683,0l-3.674-2.124A.82.82,0,0,1-4094.958-6126.292Z" transform="translate(4189.2 6144.94)" fill="#caecff" fill-rule="evenodd"/>
        <path id="Path_76112" data-name="Path 76112" d="M-4130.25-6146.708l3.673-2.12a.818.818,0,0,0,0-1.55l-3.669-2.129a2.984,2.984,0,0,0-2.683,0l-3.675,2.124a.819.819,0,0,0,0,1.551l3.674,2.125A2.967,2.967,0,0,0-4130.25-6146.708Z" transform="translate(4212.765 6158.571)" fill="#caecff" fill-rule="evenodd"/>
        <path id="Path_76113" data-name="Path 76113" d="M-4136.611-6126.3l3.674-2.121a2.98,2.98,0,0,1,2.683,0l3.674,2.126a.819.819,0,0,1-.005,1.55l-3.673,2.124a2.979,2.979,0,0,1-2.684-.006l-3.668-2.124A.818.818,0,0,1-4136.611-6126.3Z" transform="translate(4212.768 6144.941)" fill="#caecff" fill-rule="evenodd"/>
        <path id="Path_76114" data-name="Path 76114" d="M-4115.79-6114.253l3.675-2.119a2.966,2.966,0,0,1,2.683,0l3.673,2.125a.819.819,0,0,1,0,1.549l-3.679,2.125a2.982,2.982,0,0,1-2.683-.005l-3.669-2.125A.818.818,0,0,1-4115.79-6114.253Z" transform="translate(4200.987 6138.125)" fill="#caecff" fill-rule="evenodd"/>
        <path id="Path_76115" data-name="Path 76115" d="M-4171.923-6122.632l3.674-2.123a.819.819,0,0,0,0-1.55l-3.674-2.123a2.961,2.961,0,0,0-2.683,0l-3.674,2.117a.819.819,0,0,0,0,1.551l3.669,2.128A3,3,0,0,0-4171.923-6122.632Z" transform="translate(4236.346 6144.948)" fill="#caecff" fill-rule="evenodd"/>
        <path id="Path_76116" data-name="Path 76116" d="M-4151.082-6134.666l3.673-2.124a.819.819,0,0,0,.005-1.55l-3.674-2.125a2.962,2.962,0,0,0-2.683,0l-3.674,2.121a.819.819,0,0,0-.006,1.55l3.675,2.129A2.994,2.994,0,0,0-4151.082-6134.666Z" transform="translate(4224.551 6151.759)" fill="#caecff" fill-rule="evenodd"/>
        <path id="Path_76117" data-name="Path 76117" d="M-4157.446-6114.261l3.675-2.124a2.961,2.961,0,0,1,2.683,0l3.674,2.124a.821.821,0,0,1,0,1.551l-3.68,2.124a2.962,2.962,0,0,1-2.683,0l-3.669-2.124A.819.819,0,0,1-4157.446-6114.261Z" transform="translate(4224.557 6138.133)" fill="#caecff" fill-rule="evenodd"/>
        <path id="Path_76118" data-name="Path 76118" d="M-4136.624-6102.216l3.674-2.123a2.966,2.966,0,0,1,2.683,0l3.674,2.123a.819.819,0,0,1,0,1.551l-3.674,2.125a2.983,2.983,0,0,1-2.688,0l-3.668-2.125A.819.819,0,0,1-4136.624-6102.216Z" transform="translate(4212.776 6131.317)" fill="#caecff" fill-rule="evenodd"/>
      </g>
      <path id="Path_76119" data-name="Path 76119" d="M-4328.457-6332.813l-3.347-1.934-.312.475-.782,1.534-.587,1.591-.373,1.6-.131,1.554-.019,61.837.126,1.406.373,1.157.588.911.781.639,3.347,1.932-.781-.639-.588-.906-.367-1.164-.132-1.4.021-61.838.13-1.556.373-1.6.593-1.584.776-1.541Z" transform="translate(0 -73.286)" fill="#00bdf3" fill-rule="evenodd"/>
      <path id="Path_76120" data-name="Path 76120" d="M-4252.18-6335.071a8.956,8.956,0,0,1-4.322-9.46c.728-.812,1.466-1.612,2.211-2.388a140.522,140.522,0,0,1,15.986-14.107l-1.523.16a122.825,122.825,0,0,0-15.982,13.376,33.122,33.122,0,0,1,5.485-9.765l-3.644,1.837s-5.667,6.332-6.475,12.883c-9.445,10.863-13.48,20.763-11.111,25.758,2.695,5.683,12.764,5.383,12.764,5.383l4.152-2.4s-11.776.1-13.22-6.94c-1.128-5.5,2.375-12.455,7.354-18.976.267,2.869,1.65,5.373,4.992,7.477,4.47,2.814,12.882,3.367,19.973,2.814a96.219,96.219,0,0,0,29-7.353l1.764-1.579C-4217.849-6332.672-4241.209-6328.218-4252.18-6335.071Z" transform="translate(-34.963 -58.416)" fill="#003b7d"/>
    </g>
  </g>
</svg>
