<svg xmlns="http://www.w3.org/2000/svg" width="439" height="254" viewBox="0 0 439 254">
    <g fill="none" fill-rule="evenodd">
        <path fill="#FFF" fill-rule="nonzero" d="M0 0h439v253.76H0z" opacity=".01"/>
        <path fill="#DFE7EB" fill-rule="nonzero" stroke="#A3B0BF" stroke-linecap="round" stroke-linejoin="round" stroke-width="1.5" d="M404.29 163.3h33.44v7.53a5.33 5.33 0 0 1-5.33 5.33h-22.78a5.33 5.33 0 0 1-5.33-5.33v-7.53z"/>
        <circle cx="421.01" cy="169.73" r="1.86" fill="#FFF" fill-rule="nonzero"/>
        <path fill="#DFE7EB" fill-rule="nonzero" stroke="#A3B0BF" stroke-linecap="round" stroke-linejoin="round" stroke-width="1.5" d="M409.62 117h22.78a5.33 5.33 0 0 1 5.33 5.33v5h-33.44v-5a5.33 5.33 0 0 1 5.33-5.33z"/>
        <path stroke="#FFF" stroke-linecap="round" stroke-linejoin="round" stroke-width="1.5" d="M417.15 122.15h7.72"/>
        <path fill="#FFF" fill-rule="nonzero" stroke="#A3B0BF" stroke-linecap="round" stroke-linejoin="round" stroke-width="1.5" d="M404.29 127.29h33.44v36.01h-33.44z"/>
        <path fill="#DFE7EB" fill-rule="nonzero" stroke="#A3B0BF" stroke-linecap="round" stroke-linejoin="round" stroke-width="1.5" d="M55.67 134.23v14.59l-11.33 6.95H23.93l-11.33-6.95v-14.59l-11.33 7.64v30a4.29 4.29 0 0 0 4.29 4.29h57.15a4.29 4.29 0 0 0 4.29-4.28v-30l-11.33-7.65z"/>
        <path stroke="#A3B0BF" stroke-linecap="round" stroke-linejoin="round" stroke-width="1.5" d="M9.2 168.23l14.73-12.47h20.4l14.74 12.47M67 141.87l-22.67 13.89M1.27 141.87l22.66 13.89"/>
        <path fill="#FFF" fill-rule="nonzero" stroke="#A3B0BF" stroke-linecap="round" stroke-linejoin="round" stroke-width="1.5" d="M12.6 148.82v-33.31a5.08 5.08 0 0 1 5.08-5.08h32.91a5.08 5.08 0 0 1 5.08 5.08v33.31l-11.33 6.95H23.93l-11.33-6.95z"/>
        <path stroke="#DFE7EB" stroke-linecap="round" stroke-width="1.5" d="M21.67 119.5h5.66M27.33 126.3H46.6M21.67 135.36H46.6M21.67 144.43H46.6"/>
        <path fill="#FFF" fill-rule="nonzero" stroke="#A3B0BF" stroke-linecap="round" stroke-linejoin="round" stroke-width="1.5" d="M80.15 36.81h65.73v38.27A5.92 5.92 0 0 1 140 81H86.07a5.92 5.92 0 0 1-5.92-5.92V36.81z"/>
        <path fill="#DFE7EB" fill-rule="nonzero" stroke="#A3B0BF" stroke-linecap="round" stroke-linejoin="round" stroke-width="1.5" d="M86.07 23.43H140a5.92 5.92 0 0 1 5.92 5.92v7.47H80.15v-7.47a5.92 5.92 0 0 1 5.92-5.92z"/>
        <ellipse cx="87.46" cy="30.12" fill="#FFF" fill-rule="nonzero" rx="1.22" ry="1.24"/>
        <ellipse cx="92.36" cy="30.12" fill="#FFF" fill-rule="nonzero" rx="1.22" ry="1.24"/>
        <ellipse cx="97.26" cy="30.12" fill="#FFF" fill-rule="nonzero" rx="1.22" ry="1.24"/>
        <rect width="43.06" height="18.77" x="91.48" y="52.22" fill="#DFE7EB" fill-rule="nonzero" rx="3.01"/>
        <path stroke="#DFE7EB" stroke-linecap="round" stroke-width="1.5" d="M92.49 46.59h9.66"/>
        <path stroke="#DFE7EB" stroke-dasharray="3.4" stroke-linecap="round" stroke-linejoin="round" stroke-width="1.5" d="M118.65 46.59h14.89"/>
        <path stroke="#A3B0BF" stroke-linecap="round" stroke-linejoin="round" stroke-width="1.5" d="M137.64 9.66v5.4M153.81 31.23h5.4M149.08 19.8l3.81-3.82M47.02 97.04v5.39M63.2 118.61h5.39M58.46 107.17l3.81-3.81M301.97 9.32v5.39M285.79 30.89h-5.39M290.53 19.45l-3.81-3.81M409.2 99.74v5.39M393.03 121.31h-5.4M397.76 109.87l-3.81-3.81"/>
        <path stroke="#A3B0BF" stroke-dasharray="3.4" stroke-linecap="round" stroke-linejoin="round" stroke-width="1.5" d="M35.15 182.41s63.77 86 146 28.33M403.85 182.41s-63.77 86-146 28.33M116.39 87.28c-.33 18.51 2.89 80.9 60 96.84M322.61 91.56c-.35 22.37-6.72 77.68-60 92.56"/>
        <circle cx="219.5" cy="194.03" r="50.41" fill="#FFF" fill-rule="nonzero"/>
        <path fill="#FFF" fill-rule="nonzero" stroke="#FFA800" stroke-linecap="round" stroke-linejoin="round" stroke-width="1.5" d="M240.49 187.8a2.75 2.75 0 0 1 2.8 2.8v5.6a2.8 2.8 0 0 1-2.8 2.8s-4.2 11.19-7 15.39c-1.74 2.6-4.2 7-14 7s-12.26-4.39-14-7c-2.8-4.2-7-15.39-7-15.39a2.8 2.8 0 0 1-2.8-2.8v-5.6a2.8 2.8 0 0 1 2.8-2.8 2.74 2.74 0 0 0 2.8 2.8 32.93 32.93 0 0 0 2.8-11.19c5.6 0 22.33-.84 25.19-5.6 0 5.6 5.6 11.19 5.6 11.19a6.41 6.41 0 0 0 5.61 2.8z"/>
        <path fill="#FFEDCC" fill-rule="nonzero" stroke="#FFA800" stroke-linecap="round" stroke-linejoin="round" stroke-width="1.5" d="M195.71 190.6a2.8 2.8 0 0 1 2.8-2.8 2.74 2.74 0 0 0 2.8 2.8 32.93 32.93 0 0 0 2.8-11.19c5.6 0 22.33-.84 25.19-5.6 0 5.6 5.6 11.19 5.6 11.19 2.62 3.23 5.6 2.8 5.6 2.8v-8.4s0-15.39-14-15.39c1.4-2.8-1.91-4.2-7-4.2-23.79 0-23.79 22.39-23.79 22.39v8.4z"/>
        <path fill="#FFF" fill-rule="nonzero" stroke="#FFA800" stroke-linecap="round" stroke-linejoin="round" stroke-width="1.5" d="M209.7 193.75h5.6M212.5 195.73v-1.98M223.7 193.75h5.6M226.5 195.73v-1.98M215.3 209.89a7.68 7.68 0 0 0 8.4 0"/>
        <path fill="#FFEDCC" fill-rule="nonzero" stroke="#FFA800" stroke-linecap="round" stroke-linejoin="round" stroke-width="1.5" d="M242.85 228.57H225.2a7.63 7.63 0 0 1-11.61.15l-.13-.15h-15.4a10.83 10.83 0 0 0-9.34 5.36c18.609 14.363 44.678 13.948 62.82-1a10.81 10.81 0 0 0-8.69-4.36z"/>
        <path fill="#FFF" fill-rule="nonzero" d="M121.57 54.37V66.9l2.71-2.13 2.26 4.07 2.72-1.35-2.26-4.07h3.62z"/>
        <path fill="#FFF" fill-rule="nonzero" stroke="#A3B0BF" stroke-linecap="round" stroke-linejoin="round" stroke-width="1.5" d="M297 44.2a4.64 4.64 0 0 0 4.65 4.58l39.51-.08a4.64 4.64 0 0 0 4.58-4.62l-.06-20.21v-4.52s-2.19 5.55-5.55 5.55l-38.57.1a4.64 4.64 0 0 0-4.58 4.62V44.2h.02z"/>
        <path fill="#DFE7EB" fill-rule="nonzero" stroke="#A3B0BF" stroke-linecap="round" stroke-linejoin="round" stroke-width="1.5" d="M362.68 60.22a4.64 4.64 0 0 0-4.68-4.57l-39.51.08a4.64 4.64 0 0 0-4.58 4.62v24.72s2.19-5.55 5.55-5.55l38.57-.1a4.64 4.64 0 0 0 4.58-4.62V60.22h.07z"/>
        <rect width="19.78" height="2.78" x="319.998" y="62.989" fill="#FFF" fill-rule="nonzero" rx="1.31" transform="rotate(-.16 329.888 64.379)"/>
        <rect width="13.43" height="2.78" x="343.158" y="62.933" fill="#FFF" fill-rule="nonzero" rx="1.31" transform="rotate(-.16 349.873 64.323)"/>
        <rect width="33.3" height="2.78" x="320.027" y="69.77" fill="#FFF" fill-rule="nonzero" rx="1.31" transform="rotate(-.16 336.677 71.16)"/>
        <rect width="19.78" height="2.78" x="302.342" y="32.108" fill="#DFE7EB" fill-rule="nonzero" rx="1.31" transform="rotate(-.16 312.232 33.498)"/>
        <rect width="13.43" height="2.78" x="325.502" y="32.062" fill="#DFE7EB" fill-rule="nonzero" rx="1.31" transform="rotate(-.16 332.217 33.452)"/>
        <rect width="19.78" height="2.78" x="315.931" y="38.87" fill="#DFE7EB" fill-rule="nonzero" rx="1.31" transform="rotate(-.16 325.821 40.26)"/>
        <rect width="10.6" height="2.78" x="302.361" y="38.921" fill="#DFE7EB" fill-rule="nonzero" rx="1.31" transform="rotate(-.16 307.661 40.31)"/>
        <path fill="#DFE7EB" fill-rule="nonzero" d="M415.68 142.35a14.77 14.77 0 0 0 4.45 8.87l3.35-1.13a1.16 1.16 0 0 1 1.22.11 13.35 13.35 0 0 0 3.76 1.95 1.17 1.17 0 0 1 .74 1.48l-1.29 3.88a1.17 1.17 0 0 1-1.48.74 19.89 19.89 0 0 1-12.62-25.14 1.17 1.17 0 0 1 1.48-.74l3.89 1.29a1.17 1.17 0 0 1 .74 1.48 13.29 13.29 0 0 0-.68 4.17 1.17 1.17 0 0 1-.65 1l-2.91 2.04z"/>
        <circle cx="219.5" cy="194.03" r="50.41" stroke="#FFA800" stroke-linecap="round" stroke-linejoin="round" stroke-width="1.5"/>
    </g>
</svg>
