<?xml version="1.0" encoding="UTF-8"?>
<svg width="800px" height="839px" xmlns="http://www.w3.org/2000/svg" viewBox="0 0 497.19 521.8">
  <defs>
    <style>.cls-1{isolation:isolate;}.cls-2{fill:#76bbf4;}.cls-3{fill:#d8d8d8;}.cls-4{fill:#fff;}.cls-5{fill:#f2f2f2;}.cls-6{mix-blend-mode:multiply;}.cls-7{fill:#d8d8d9;}.cls-8{fill:#0056cb;}.cls-9{fill:#cbcbd3;}.cls-10{fill:#5bdfb9;}.cls-11{fill:#009;}.cls-12{fill:#05c4c9;}.cls-13{fill:#e4e4e5;}.cls-14{fill:#ffc609;}.cls-15{fill:#f58025;}.cls-16{fill:#00b1ff;}.cls-17{opacity:0.43;}.cls-18{fill:#0da3b2;}.cls-19{fill:#e5c683;}.cls-20{fill:gray;}.cls-21{fill:#a9dbff;}</style>
  </defs>
  <title>Expedia-EPS</title>
  <g class="cls-1">
    <g id="Layer_2" data-name="Layer 2">
      <g class="cls-1">
        <path class="cls-2" d="M205.49,506.41l0-13.69c0,2.51,1.64,5,4.94,6.92l0,13.69C207.13,511.43,205.48,508.92,205.49,506.41Z" transform="translate(-205.49 -151.59)"></path>
        <path class="cls-3" d="M683.43,550.15l0,13.69c0,2.48-1.62,5-4.86,6.84l0-13.69C681.81,555.11,683.43,552.63,683.43,550.15Z" transform="translate(-205.49 -151.59)"></path>
        <polygon class="cls-4" points="473.09 405.39 473.06 419.08 301.5 518.95 301.52 505.26 473.09 405.39"></polygon>
        <polygon class="cls-2" points="277.77 505.28 277.74 518.97 4.94 361.73 4.97 348.05 277.77 505.28"></polygon>
        <path class="cls-5" d="M678.48,543.23c6.56,3.78,6.6,10,.09,13.76L507,656.86c-6.51,3.79-17.2,3.8-23.76,0L210.45,499.64c-6.55-3.78-6.59-10-.08-13.76L381.94,386c6.51-3.79,17.2-3.8,23.75,0Z" transform="translate(-205.49 -151.59)"></path>
        <path class="cls-4" d="M507,656.86l0,13.69c-6.51,3.79-17.2,3.8-23.76,0l0-13.69C489.81,660.66,500.5,660.65,507,656.86Z" transform="translate(-205.49 -151.59)"></path>
      </g>
      <g class="cls-1">
        <path class="cls-5" d="M397.69,159.29l11.83-6.89c2.17-1.26,5.17-1.1,8.46.81l-11.83,6.89C402.86,158.2,399.86,158,397.69,159.29Z" transform="translate(-205.49 -151.59)"></path>
        <path class="cls-3" d="M698.78,537.15L686.95,544c2.14-1.25,3.47-3.88,3.48-7.62l11.83-6.89C702.25,533.26,700.92,535.9,698.78,537.15Z" transform="translate(-205.49 -151.59)"></path>
        <polygon class="cls-4" points="485.36 186.29 497.19 179.41 496.77 377.93 484.94 384.82 485.36 186.29"></polygon>
        <polygon class="cls-4" points="200.67 8.5 212.5 1.62 485.3 158.86 473.47 165.74 200.67 8.5"></polygon>
        <g class="cls-6">
          <path class="cls-7" d="M679,317.34c6.55,3.78,11.9,13,11.89,20.55l-0.42,198.52c0,7.52-5.39,10.59-11.94,6.82L405.68,386c-6.55-3.78-11.9-13-11.89-20.55l0.42-198.52c0-7.53,5.39-10.59,11.94-6.82Z" transform="translate(-205.49 -151.59)"></path>
        </g>
        <path class="cls-4" d="M679,317.34l11.83-6.89c6.55,3.78,11.9,13,11.89,20.55l-11.83,6.89C690.86,330.36,685.51,321.11,679,317.34Z" transform="translate(-205.49 -151.59)"></path>
      </g>
      <polygon class="cls-3" points="157.33 350.42 98.24 384.54 205.91 446.7 265 412.58 157.33 350.42"></polygon>
      <g class="cls-1">
        <path class="cls-3" d="M371.94,413.64v-2.29a1.66,1.66,0,0,0,1,1.37V415A1.66,1.66,0,0,1,371.94,413.64Z" transform="translate(-205.49 -151.59)"></path>
        <path class="cls-3" d="M417.33,418.28v2.29a1.64,1.64,0,0,1-1,1.35v-2.29A1.64,1.64,0,0,0,417.33,418.28Z" transform="translate(-205.49 -151.59)"></path>
        <polygon class="cls-3" points="210.88 268.04 210.87 270.33 197.53 278.08 197.54 275.79 210.88 268.04"></polygon>
        <polygon class="cls-3" points="192.84 275.79 192.83 278.08 167.43 263.42 167.44 261.13 192.84 275.79"></polygon>
        <path class="cls-3" d="M403,427.39v2.29a5.17,5.17,0,0,1-4.69,0v-2.29A5.17,5.17,0,0,0,403,427.39Z" transform="translate(-205.49 -151.59)"></path>
      </g>
      <g class="cls-1">
        <path class="cls-3" d="M440.29,431.54v2.29a1.64,1.64,0,0,1-1,1.35v-2.29A1.64,1.64,0,0,0,440.29,431.54Z" transform="translate(-205.49 -151.59)"></path>
        <path class="cls-3" d="M406.88,433.81v-2.29a1.66,1.66,0,0,0,1,1.37v2.29A1.66,1.66,0,0,1,406.88,433.81Z" transform="translate(-205.49 -151.59)"></path>
        <polygon class="cls-3" points="233.85 281.3 233.84 283.59 220.5 291.34 220.5 289.05 233.85 281.3"></polygon>
        <polygon class="cls-3" points="215.81 289.05 215.8 291.34 202.37 283.59 202.38 281.3 215.81 289.05"></polygon>
        <path class="cls-3" d="M426,440.65v2.29a5.18,5.18,0,0,1-4.69,0v-2.29A5.18,5.18,0,0,0,426,440.65Z" transform="translate(-205.49 -151.59)"></path>
      </g>
      <g class="cls-1">
        <path class="cls-3" d="M463.26,444.8v2.29a1.64,1.64,0,0,1-1,1.35v-2.29A1.64,1.64,0,0,0,463.26,444.8Z" transform="translate(-205.49 -151.59)"></path>
        <path class="cls-3" d="M429.84,447.07v-2.29a1.66,1.66,0,0,0,1,1.37v2.29A1.66,1.66,0,0,1,429.84,447.07Z" transform="translate(-205.49 -151.59)"></path>
        <polygon class="cls-3" points="256.81 294.56 256.8 296.84 243.46 304.6 243.47 302.31 256.81 294.56"></polygon>
        <polygon class="cls-3" points="238.77 302.31 238.76 304.6 225.33 296.84 225.34 294.56 238.77 302.31"></polygon>
        <path class="cls-3" d="M449,453.9v2.29a5.17,5.17,0,0,1-4.69,0V453.9A5.17,5.17,0,0,0,449,453.9Z" transform="translate(-205.49 -151.59)"></path>
      </g>
      <g class="cls-1">
        <path class="cls-3" d="M486.22,458.06v2.29a1.64,1.64,0,0,1-1,1.35v-2.29A1.64,1.64,0,0,0,486.22,458.06Z" transform="translate(-205.49 -151.59)"></path>
        <path class="cls-3" d="M452.8,460.33V458a1.66,1.66,0,0,0,1,1.37v2.29A1.66,1.66,0,0,1,452.8,460.33Z" transform="translate(-205.49 -151.59)"></path>
        <polygon class="cls-3" points="279.77 307.81 279.76 310.1 266.42 317.86 266.43 315.57 279.77 307.81"></polygon>
        <polygon class="cls-3" points="261.73 315.57 261.73 317.86 248.29 310.1 248.3 307.81 261.73 315.57"></polygon>
        <path class="cls-3" d="M471.91,467.16v2.29a5.17,5.17,0,0,1-4.69,0v-2.29A5.17,5.17,0,0,0,471.91,467.16Z" transform="translate(-205.49 -151.59)"></path>
      </g>
      <g class="cls-1">
        <path class="cls-3" d="M509.18,471.32v2.29a1.64,1.64,0,0,1-1,1.35v-2.29A1.64,1.64,0,0,0,509.18,471.32Z" transform="translate(-205.49 -151.59)"></path>
        <path class="cls-3" d="M475.77,473.59V471.3a1.66,1.66,0,0,0,1,1.37V475A1.66,1.66,0,0,1,475.77,473.59Z" transform="translate(-205.49 -151.59)"></path>
        <polygon class="cls-3" points="302.74 321.07 302.73 323.36 289.38 331.11 289.39 328.82 302.74 321.07"></polygon>
        <polygon class="cls-3" points="284.7 328.82 284.69 331.11 271.26 323.36 271.27 321.07 284.7 328.82"></polygon>
        <path class="cls-3" d="M494.88,480.42v2.29a5.17,5.17,0,0,1-4.69,0v-2.29A5.17,5.17,0,0,0,494.88,480.42Z" transform="translate(-205.49 -151.59)"></path>
      </g>
      <g class="cls-1">
        <path class="cls-3" d="M532.15,484.57v2.29a1.65,1.65,0,0,1-1,1.35v-2.29A1.65,1.65,0,0,0,532.15,484.57Z" transform="translate(-205.49 -151.59)"></path>
        <path class="cls-3" d="M498.73,486.84v-2.29a1.66,1.66,0,0,0,1,1.37v2.29A1.66,1.66,0,0,1,498.73,486.84Z" transform="translate(-205.49 -151.59)"></path>
        <polygon class="cls-3" points="325.7 334.33 325.69 336.62 312.35 344.37 312.35 342.08 325.7 334.33"></polygon>
        <polygon class="cls-3" points="307.66 342.08 307.66 344.37 294.22 336.62 294.23 334.33 307.66 342.08"></polygon>
        <path class="cls-3" d="M517.84,493.68V496a5.17,5.17,0,0,1-4.69,0v-2.29A5.17,5.17,0,0,0,517.84,493.68Z" transform="translate(-205.49 -151.59)"></path>
      </g>
      <g class="cls-1">
        <path class="cls-3" d="M555.11,497.83v2.29a1.64,1.64,0,0,1-1,1.35v-2.29A1.64,1.64,0,0,0,555.11,497.83Z" transform="translate(-205.49 -151.59)"></path>
        <path class="cls-3" d="M521.69,500.1v-2.29a1.66,1.66,0,0,0,1,1.37v2.29A1.66,1.66,0,0,1,521.69,500.1Z" transform="translate(-205.49 -151.59)"></path>
        <polygon class="cls-3" points="348.66 347.59 348.66 349.88 335.31 357.63 335.32 355.34 348.66 347.59"></polygon>
        <polygon class="cls-3" points="330.63 355.34 330.62 357.63 317.19 349.88 317.19 347.59 330.63 355.34"></polygon>
        <path class="cls-3" d="M540.81,506.94v2.29a5.17,5.17,0,0,1-4.69,0v-2.29A5.17,5.17,0,0,0,540.81,506.94Z" transform="translate(-205.49 -151.59)"></path>
      </g>
      <g class="cls-1">
        <path class="cls-3" d="M578.07,511.09v2.29a1.64,1.64,0,0,1-1,1.35v-2.29A1.64,1.64,0,0,0,578.07,511.09Z" transform="translate(-205.49 -151.59)"></path>
        <path class="cls-3" d="M544.66,513.36v-2.29a1.66,1.66,0,0,0,1,1.37v2.29A1.66,1.66,0,0,1,544.66,513.36Z" transform="translate(-205.49 -151.59)"></path>
        <polygon class="cls-3" points="371.63 360.85 371.62 363.13 358.28 370.89 358.28 368.6 371.63 360.85"></polygon>
        <polygon class="cls-3" points="353.59 368.6 353.58 370.89 340.15 363.13 340.16 360.85 353.59 368.6"></polygon>
        <path class="cls-3" d="M563.77,520.19v2.29a5.17,5.17,0,0,1-4.69,0v-2.29A5.17,5.17,0,0,0,563.77,520.19Z" transform="translate(-205.49 -151.59)"></path>
      </g>
      <g class="cls-1">
        <path class="cls-3" d="M601,524.35v2.29a1.64,1.64,0,0,1-1,1.35V525.7A1.64,1.64,0,0,0,601,524.35Z" transform="translate(-205.49 -151.59)"></path>
        <path class="cls-3" d="M567.62,526.62v-2.29a1.66,1.66,0,0,0,1,1.37V528A1.66,1.66,0,0,1,567.62,526.62Z" transform="translate(-205.49 -151.59)"></path>
        <polygon class="cls-3" points="394.59 374.1 394.58 376.39 381.24 384.15 381.25 381.86 394.59 374.1"></polygon>
        <polygon class="cls-3" points="376.55 381.86 376.54 384.15 363.12 376.39 363.12 374.11 376.55 381.86"></polygon>
        <path class="cls-3" d="M586.73,533.45v2.29a5.17,5.17,0,0,1-4.69,0v-2.29A5.17,5.17,0,0,0,586.73,533.45Z" transform="translate(-205.49 -151.59)"></path>
      </g>
      <g class="cls-1">
        <path class="cls-3" d="M624,537.61v2.29a1.65,1.65,0,0,1-1,1.35V539A1.65,1.65,0,0,0,624,537.61Z" transform="translate(-205.49 -151.59)"></path>
        <path class="cls-3" d="M590.58,539.88v-2.29a1.66,1.66,0,0,0,1,1.37v2.29A1.66,1.66,0,0,1,590.58,539.88Z" transform="translate(-205.49 -151.59)"></path>
        <polygon class="cls-3" points="417.55 387.36 417.55 389.65 404.2 397.4 404.21 395.12 417.55 387.36"></polygon>
        <polygon class="cls-3" points="399.52 395.12 399.51 397.4 386.08 389.65 386.08 387.36 399.52 395.12"></polygon>
        <path class="cls-3" d="M609.69,546.71V549a5.17,5.17,0,0,1-4.69,0v-2.29A5.17,5.17,0,0,0,609.69,546.71Z" transform="translate(-205.49 -151.59)"></path>
      </g>
      <g class="cls-1">
        <path class="cls-3" d="M647,550.87v2.29a1.64,1.64,0,0,1-1,1.35v-2.29A1.64,1.64,0,0,0,647,550.87Z" transform="translate(-205.49 -151.59)"></path>
        <path class="cls-3" d="M613.55,553.13v-2.29a1.66,1.66,0,0,0,1,1.37v2.29A1.66,1.66,0,0,1,613.55,553.13Z" transform="translate(-205.49 -151.59)"></path>
        <polygon class="cls-3" points="440.52 400.62 440.51 402.91 427.17 410.66 427.17 408.38 440.52 400.62"></polygon>
        <polygon class="cls-3" points="422.48 408.37 422.47 410.66 409.04 402.91 409.05 400.62 422.48 408.37"></polygon>
        <path class="cls-3" d="M632.66,560v2.29a5.17,5.17,0,0,1-4.69,0V560A5.17,5.17,0,0,0,632.66,560Z" transform="translate(-205.49 -151.59)"></path>
      </g>
      <g class="cls-1">
        <path class="cls-3" d="M382.53,424.64v2.29a1.65,1.65,0,0,1-1,1.35V426A1.65,1.65,0,0,0,382.53,424.64Z" transform="translate(-205.49 -151.59)"></path>
        <path class="cls-3" d="M349.11,426.91v-2.29a1.66,1.66,0,0,0,1,1.37v2.29A1.66,1.66,0,0,1,349.11,426.91Z" transform="translate(-205.49 -151.59)"></path>
        <polygon class="cls-3" points="176.08 274.4 176.07 276.69 162.72 284.44 162.73 282.15 176.08 274.4"></polygon>
        <polygon class="cls-3" points="158.04 282.15 158.03 284.44 144.6 276.68 144.61 274.4 158.04 282.15"></polygon>
        <path class="cls-3" d="M368.22,433.75V436a5.17,5.17,0,0,1-4.69,0v-2.29A5.17,5.17,0,0,0,368.22,433.75Z" transform="translate(-205.49 -151.59)"></path>
      </g>
      <g class="cls-1">
        <path class="cls-3" d="M405.49,437.9v2.29a1.65,1.65,0,0,1-1,1.35v-2.29A1.65,1.65,0,0,0,405.49,437.9Z" transform="translate(-205.49 -151.59)"></path>
        <path class="cls-3" d="M372.07,440.17v-2.29a1.66,1.66,0,0,0,1,1.37v2.29A1.66,1.66,0,0,1,372.07,440.17Z" transform="translate(-205.49 -151.59)"></path>
        <polygon class="cls-3" points="199.04 287.65 199.03 289.94 185.69 297.7 185.69 295.41 199.04 287.65"></polygon>
        <polygon class="cls-3" points="181 295.41 181 297.7 167.56 289.94 167.57 287.65 181 295.41"></polygon>
        <path class="cls-3" d="M391.18,447v2.29a5.17,5.17,0,0,1-4.69,0V447A5.17,5.17,0,0,0,391.18,447Z" transform="translate(-205.49 -151.59)"></path>
      </g>
      <g class="cls-1">
        <path class="cls-3" d="M428.45,451.16v2.29a1.65,1.65,0,0,1-1,1.35v-2.29A1.65,1.65,0,0,0,428.45,451.16Z" transform="translate(-205.49 -151.59)"></path>
        <path class="cls-3" d="M395,453.43v-2.29a1.66,1.66,0,0,0,1,1.37v2.29A1.66,1.66,0,0,1,395,453.43Z" transform="translate(-205.49 -151.59)"></path>
        <polygon class="cls-3" points="222 300.91 222 303.2 208.65 310.96 208.66 308.67 222 300.91"></polygon>
        <polygon class="cls-3" points="203.97 308.67 203.96 310.95 190.53 303.2 190.54 300.91 203.97 308.67"></polygon>
        <path class="cls-3" d="M414.14,460.26v2.29a5.17,5.17,0,0,1-4.69,0v-2.29A5.17,5.17,0,0,0,414.14,460.26Z" transform="translate(-205.49 -151.59)"></path>
      </g>
      <g class="cls-1">
        <path class="cls-3" d="M451.42,464.42v2.29a1.65,1.65,0,0,1-1,1.35v-2.29A1.65,1.65,0,0,0,451.42,464.42Z" transform="translate(-205.49 -151.59)"></path>
        <path class="cls-3" d="M418,466.68v-2.29a1.66,1.66,0,0,0,1,1.37v2.29A1.66,1.66,0,0,1,418,466.68Z" transform="translate(-205.49 -151.59)"></path>
        <polygon class="cls-3" points="244.97 314.17 244.96 316.46 231.62 324.22 231.62 321.93 244.97 314.17"></polygon>
        <polygon class="cls-3" points="226.93 321.93 226.93 324.21 213.5 316.46 213.5 314.17 226.93 321.93"></polygon>
        <path class="cls-3" d="M437.11,473.52v2.29a5.18,5.18,0,0,1-4.69,0v-2.29A5.18,5.18,0,0,0,437.11,473.52Z" transform="translate(-205.49 -151.59)"></path>
      </g>
      <g class="cls-1">
        <path class="cls-3" d="M474.38,477.67V480a1.65,1.65,0,0,1-1,1.35V479A1.65,1.65,0,0,0,474.38,477.67Z" transform="translate(-205.49 -151.59)"></path>
        <path class="cls-3" d="M441,479.94v-2.29a1.66,1.66,0,0,0,1,1.37v2.29A1.66,1.66,0,0,1,441,479.94Z" transform="translate(-205.49 -151.59)"></path>
        <polygon class="cls-3" points="267.93 327.43 267.92 329.72 254.58 337.47 254.59 335.19 267.93 327.43"></polygon>
        <polygon class="cls-3" points="249.9 335.18 249.89 337.47 236.46 329.72 236.46 327.43 249.9 335.18"></polygon>
        <path class="cls-3" d="M460.07,486.78v2.29a5.17,5.17,0,0,1-4.69,0v-2.29A5.17,5.17,0,0,0,460.07,486.78Z" transform="translate(-205.49 -151.59)"></path>
      </g>
      <g class="cls-1">
        <path class="cls-3" d="M497.34,490.93v2.29a1.65,1.65,0,0,1-1,1.35v-2.29A1.65,1.65,0,0,0,497.34,490.93Z" transform="translate(-205.49 -151.59)"></path>
        <path class="cls-3" d="M463.93,493.2v-2.29a1.66,1.66,0,0,0,1,1.37v2.29A1.66,1.66,0,0,1,463.93,493.2Z" transform="translate(-205.49 -151.59)"></path>
        <polygon class="cls-3" points="290.89 340.69 290.89 342.98 277.54 350.73 277.55 348.44 290.89 340.69"></polygon>
        <polygon class="cls-3" points="272.86 348.44 272.85 350.73 259.42 342.97 259.43 340.69 272.86 348.44"></polygon>
        <path class="cls-3" d="M483,500v2.29a5.17,5.17,0,0,1-4.69,0V500A5.17,5.17,0,0,0,483,500Z" transform="translate(-205.49 -151.59)"></path>
      </g>
      <g class="cls-1">
        <path class="cls-3" d="M520.31,504.19v2.29a1.65,1.65,0,0,1-1,1.35v-2.29A1.65,1.65,0,0,0,520.31,504.19Z" transform="translate(-205.49 -151.59)"></path>
        <path class="cls-3" d="M486.89,506.46v-2.29a1.66,1.66,0,0,0,1,1.37v2.29A1.66,1.66,0,0,1,486.89,506.46Z" transform="translate(-205.49 -151.59)"></path>
        <polygon class="cls-3" points="313.86 353.94 313.85 356.23 300.51 363.99 300.51 361.7 313.86 353.94"></polygon>
        <polygon class="cls-3" points="295.82 361.7 295.81 363.99 282.39 356.23 282.39 353.94 295.82 361.7"></polygon>
        <path class="cls-3" d="M506,513.29v2.29a5.17,5.17,0,0,1-4.69,0v-2.29A5.17,5.17,0,0,0,506,513.29Z" transform="translate(-205.49 -151.59)"></path>
      </g>
      <g class="cls-1">
        <path class="cls-3" d="M543.27,517.45v2.29a1.65,1.65,0,0,1-1,1.35V518.8A1.65,1.65,0,0,0,543.27,517.45Z" transform="translate(-205.49 -151.59)"></path>
        <path class="cls-3" d="M509.85,519.72v-2.29a1.66,1.66,0,0,0,1,1.37v2.29A1.66,1.66,0,0,1,509.85,519.72Z" transform="translate(-205.49 -151.59)"></path>
        <polygon class="cls-3" points="336.82 367.2 336.81 369.49 323.47 377.25 323.48 374.96 336.82 367.2"></polygon>
        <polygon class="cls-3" points="318.79 374.96 318.78 377.25 305.35 369.49 305.36 367.2 318.79 374.96"></polygon>
        <path class="cls-3" d="M529,526.55v2.29a5.17,5.17,0,0,1-4.69,0v-2.29A5.17,5.17,0,0,0,529,526.55Z" transform="translate(-205.49 -151.59)"></path>
      </g>
      <g class="cls-1">
        <path class="cls-3" d="M566.24,530.71V533a1.65,1.65,0,0,1-1,1.35v-2.29A1.65,1.65,0,0,0,566.24,530.71Z" transform="translate(-205.49 -151.59)"></path>
        <path class="cls-3" d="M532.82,533v-2.29a1.66,1.66,0,0,0,1,1.37v2.29A1.66,1.66,0,0,1,532.82,533Z" transform="translate(-205.49 -151.59)"></path>
        <polygon class="cls-3" points="359.79 380.46 359.78 382.75 346.44 390.51 346.44 388.22 359.79 380.46"></polygon>
        <polygon class="cls-3" points="341.75 388.21 341.74 390.5 328.31 382.75 328.32 380.46 341.75 388.21"></polygon>
        <path class="cls-3" d="M551.93,539.81v2.29a5.17,5.17,0,0,1-4.69,0v-2.29A5.17,5.17,0,0,0,551.93,539.81Z" transform="translate(-205.49 -151.59)"></path>
      </g>
      <g class="cls-1">
        <path class="cls-3" d="M589.2,544v2.29a1.65,1.65,0,0,1-1,1.35v-2.29A1.65,1.65,0,0,0,589.2,544Z" transform="translate(-205.49 -151.59)"></path>
        <path class="cls-3" d="M555.78,546.23v-2.29a1.66,1.66,0,0,0,1,1.37v2.29A1.66,1.66,0,0,1,555.78,546.23Z" transform="translate(-205.49 -151.59)"></path>
        <polygon class="cls-3" points="382.75 393.72 382.74 396.01 369.4 403.76 369.4 401.48 382.75 393.72"></polygon>
        <polygon class="cls-3" points="364.71 401.47 364.71 403.76 351.27 396.01 351.28 393.72 364.71 401.47"></polygon>
        <path class="cls-3" d="M574.89,553.07v2.29a5.17,5.17,0,0,1-4.69,0v-2.29A5.17,5.17,0,0,0,574.89,553.07Z" transform="translate(-205.49 -151.59)"></path>
      </g>
      <g class="cls-1">
        <path class="cls-3" d="M578.75,559.49V557.2a1.66,1.66,0,0,0,1,1.37v2.29A1.66,1.66,0,0,1,578.75,559.49Z" transform="translate(-205.49 -151.59)"></path>
        <path class="cls-3" d="M623.16,563.57v2.29a1.65,1.65,0,0,1-1,1.35v-2.29A1.65,1.65,0,0,0,623.16,563.57Z" transform="translate(-205.49 -151.59)"></path>
        <polygon class="cls-3" points="416.7 413.32 416.7 415.61 403.35 423.37 403.36 421.08 416.7 413.32"></polygon>
        <polygon class="cls-3" points="398.67 421.08 398.66 423.37 374.24 409.27 374.25 406.98 398.67 421.08"></polygon>
        <path class="cls-3" d="M608.85,572.67V575a5.17,5.17,0,0,1-4.69,0v-2.29A5.17,5.17,0,0,0,608.85,572.67Z" transform="translate(-205.49 -151.59)"></path>
      </g>
      <g class="cls-1">
        <path class="cls-3" d="M326.27,440.18v-2.29a1.66,1.66,0,0,0,1,1.37v2.29A1.66,1.66,0,0,1,326.27,440.18Z" transform="translate(-205.49 -151.59)"></path>
        <path class="cls-3" d="M370.69,444.26v2.29a1.65,1.65,0,0,1-1,1.35v-2.29A1.65,1.65,0,0,0,370.69,444.26Z" transform="translate(-205.49 -151.59)"></path>
        <polygon class="cls-3" points="164.24 294.01 164.23 296.3 150.89 304.06 150.9 301.77 164.24 294.01"></polygon>
        <polygon class="cls-3" points="146.2 301.77 146.19 304.06 121.77 289.95 121.77 287.67 146.2 301.77"></polygon>
        <path class="cls-3" d="M356.38,453.36v2.29a5.17,5.17,0,0,1-4.69,0v-2.29A5.17,5.17,0,0,0,356.38,453.36Z" transform="translate(-205.49 -151.59)"></path>
      </g>
      <g class="cls-1">
        <path class="cls-3" d="M336.86,451.18v2.29a1.65,1.65,0,0,1-1,1.35v-2.29A1.65,1.65,0,0,0,336.86,451.18Z" transform="translate(-205.49 -151.59)"></path>
        <path class="cls-3" d="M303.44,453.45v-2.29a1.66,1.66,0,0,0,1,1.37v2.29A1.66,1.66,0,0,1,303.44,453.45Z" transform="translate(-205.49 -151.59)"></path>
        <polygon class="cls-3" points="130.41 300.94 130.4 303.22 117.06 310.98 117.07 308.69 130.41 300.94"></polygon>
        <polygon class="cls-3" points="112.37 308.69 112.37 310.98 98.94 303.22 98.94 300.93 112.37 308.69"></polygon>
        <path class="cls-3" d="M322.55,460.29v2.29a5.17,5.17,0,0,1-4.69,0v-2.29A5.17,5.17,0,0,0,322.55,460.29Z" transform="translate(-205.49 -151.59)"></path>
      </g>
      <g class="cls-1">
        <path class="cls-3" d="M393.65,457.51v2.29a1.65,1.65,0,0,1-1,1.35v-2.29A1.65,1.65,0,0,0,393.65,457.51Z" transform="translate(-205.49 -151.59)"></path>
        <path class="cls-3" d="M360.23,459.78V457.5a1.66,1.66,0,0,0,1,1.37v2.29A1.66,1.66,0,0,1,360.23,459.78Z" transform="translate(-205.49 -151.59)"></path>
        <polygon class="cls-3" points="187.2 307.27 187.19 309.56 173.85 317.31 173.86 315.03 187.2 307.27"></polygon>
        <polygon class="cls-3" points="169.16 315.03 169.16 317.31 155.72 309.56 155.73 307.27 169.16 315.03"></polygon>
        <path class="cls-3" d="M379.34,466.62v2.29a5.17,5.17,0,0,1-4.69,0v-2.29A5.17,5.17,0,0,0,379.34,466.62Z" transform="translate(-205.49 -151.59)"></path>
      </g>
      <g class="cls-1">
        <path class="cls-3" d="M359.82,464.44v2.29a1.65,1.65,0,0,1-1,1.35v-2.29A1.65,1.65,0,0,0,359.82,464.44Z" transform="translate(-205.49 -151.59)"></path>
        <path class="cls-3" d="M326.41,466.71v-2.29a1.66,1.66,0,0,0,1,1.37v2.29A1.66,1.66,0,0,1,326.41,466.71Z" transform="translate(-205.49 -151.59)"></path>
        <polygon class="cls-3" points="153.37 314.19 153.37 316.48 140.02 324.24 140.03 321.95 153.37 314.19"></polygon>
        <polygon class="cls-3" points="135.34 321.95 135.33 324.24 121.9 316.48 121.91 314.19 135.34 321.95"></polygon>
        <path class="cls-3" d="M345.51,473.54v2.29a5.17,5.17,0,0,1-4.69,0v-2.29A5.17,5.17,0,0,0,345.51,473.54Z" transform="translate(-205.49 -151.59)"></path>
      </g>
      <g class="cls-1">
        <path class="cls-3" d="M416.61,470.77v2.29a1.65,1.65,0,0,1-1,1.35v-2.29A1.65,1.65,0,0,0,416.61,470.77Z" transform="translate(-205.49 -151.59)"></path>
        <path class="cls-3" d="M383.2,473v-2.29a1.66,1.66,0,0,0,1,1.37v2.29A1.66,1.66,0,0,1,383.2,473Z" transform="translate(-205.49 -151.59)"></path>
        <polygon class="cls-3" points="210.16 320.53 210.16 322.82 196.81 330.57 196.82 328.28 210.16 320.53"></polygon>
        <polygon class="cls-3" points="192.13 328.28 192.12 330.57 178.69 322.82 178.69 320.53 192.13 328.28"></polygon>
        <path class="cls-3" d="M402.31,479.88v2.29a5.17,5.17,0,0,1-4.69,0v-2.29A5.17,5.17,0,0,0,402.31,479.88Z" transform="translate(-205.49 -151.59)"></path>
      </g>
      <g class="cls-1">
        <path class="cls-3" d="M439.58,484v2.29a1.65,1.65,0,0,1-1,1.35v-2.29A1.65,1.65,0,0,0,439.58,484Z" transform="translate(-205.49 -151.59)"></path>
        <path class="cls-3" d="M406.16,486.3V484a1.66,1.66,0,0,0,1,1.37v2.29A1.66,1.66,0,0,1,406.16,486.3Z" transform="translate(-205.49 -151.59)"></path>
        <polygon class="cls-3" points="233.13 333.79 233.12 336.07 219.78 343.83 219.78 341.54 233.13 333.79"></polygon>
        <polygon class="cls-3" points="215.09 341.54 215.09 343.83 201.65 336.08 201.66 333.79 215.09 341.54"></polygon>
        <path class="cls-3" d="M425.27,493.13v2.29a5.17,5.17,0,0,1-4.69,0v-2.29A5.17,5.17,0,0,0,425.27,493.13Z" transform="translate(-205.49 -151.59)"></path>
      </g>
      <g class="cls-1">
        <path class="cls-3" d="M462.54,497.29v2.29a1.65,1.65,0,0,1-1,1.35v-2.29A1.65,1.65,0,0,0,462.54,497.29Z" transform="translate(-205.49 -151.59)"></path>
        <path class="cls-3" d="M429.12,499.56v-2.29a1.66,1.66,0,0,0,1,1.37v2.29A1.66,1.66,0,0,1,429.12,499.56Z" transform="translate(-205.49 -151.59)"></path>
        <polygon class="cls-3" points="256.09 347.05 256.09 349.33 242.74 357.09 242.75 354.8 256.09 347.05"></polygon>
        <polygon class="cls-3" points="238.05 354.8 238.05 357.09 224.62 349.33 224.62 347.05 238.05 354.8"></polygon>
        <path class="cls-3" d="M448.24,506.39v2.29a5.18,5.18,0,0,1-4.69,0v-2.29A5.18,5.18,0,0,0,448.24,506.39Z" transform="translate(-205.49 -151.59)"></path>
      </g>
      <g class="cls-1">
        <path class="cls-3" d="M485.51,510.55v2.29a1.65,1.65,0,0,1-1,1.35V511.9A1.65,1.65,0,0,0,485.51,510.55Z" transform="translate(-205.49 -151.59)"></path>
        <path class="cls-3" d="M452.09,512.82v-2.29a1.66,1.66,0,0,0,1,1.37v2.29A1.66,1.66,0,0,1,452.09,512.82Z" transform="translate(-205.49 -151.59)"></path>
        <polygon class="cls-3" points="279.06 360.3 279.05 362.59 265.7 370.35 265.71 368.06 279.06 360.3"></polygon>
        <polygon class="cls-3" points="261.02 368.06 261.01 370.35 247.58 362.59 247.59 360.3 261.02 368.06"></polygon>
        <path class="cls-3" d="M471.2,519.65v2.29a5.17,5.17,0,0,1-4.69,0v-2.29A5.17,5.17,0,0,0,471.2,519.65Z" transform="translate(-205.49 -151.59)"></path>
      </g>
      <g class="cls-1">
        <path class="cls-3" d="M508.47,523.8v2.29a1.65,1.65,0,0,1-1,1.35v-2.29A1.65,1.65,0,0,0,508.47,523.8Z" transform="translate(-205.49 -151.59)"></path>
        <path class="cls-3" d="M475.05,526.08v-2.29a1.66,1.66,0,0,0,1,1.37v2.29A1.66,1.66,0,0,1,475.05,526.08Z" transform="translate(-205.49 -151.59)"></path>
        <polygon class="cls-3" points="302.02 373.56 302.01 375.85 288.67 383.6 288.68 381.31 302.02 373.56"></polygon>
        <polygon class="cls-3" points="283.98 381.32 283.97 383.6 270.54 375.85 270.55 373.56 283.98 381.32"></polygon>
        <path class="cls-3" d="M494.16,532.91v2.29a5.17,5.17,0,0,1-4.69,0v-2.29A5.17,5.17,0,0,0,494.16,532.91Z" transform="translate(-205.49 -151.59)"></path>
      </g>
      <g class="cls-1">
        <path class="cls-3" d="M531.43,537.06v2.29a1.65,1.65,0,0,1-1,1.35v-2.29A1.65,1.65,0,0,0,531.43,537.06Z" transform="translate(-205.49 -151.59)"></path>
        <path class="cls-3" d="M498,539.33V537a1.66,1.66,0,0,0,1,1.37v2.29A1.66,1.66,0,0,1,498,539.33Z" transform="translate(-205.49 -151.59)"></path>
        <polygon class="cls-3" points="324.98 386.82 324.98 389.11 311.63 396.86 311.64 394.57 324.98 386.82"></polygon>
        <polygon class="cls-3" points="306.94 394.57 306.94 396.86 293.51 389.11 293.51 386.82 306.94 394.57"></polygon>
        <path class="cls-3" d="M517.12,546.17v2.29a5.17,5.17,0,0,1-4.69,0v-2.29A5.17,5.17,0,0,0,517.12,546.17Z" transform="translate(-205.49 -151.59)"></path>
      </g>
      <g class="cls-1">
        <path class="cls-3" d="M554.39,550.32v2.29a1.65,1.65,0,0,1-1,1.35v-2.29A1.65,1.65,0,0,0,554.39,550.32Z" transform="translate(-205.49 -151.59)"></path>
        <path class="cls-3" d="M521,552.59V550.3a1.66,1.66,0,0,0,1,1.37V554A1.66,1.66,0,0,1,521,552.59Z" transform="translate(-205.49 -151.59)"></path>
        <polygon class="cls-3" points="347.94 400.08 347.94 402.36 334.59 410.12 334.6 407.83 347.94 400.08"></polygon>
        <polygon class="cls-3" points="329.91 407.83 329.9 410.12 316.47 402.37 316.48 400.08 329.91 407.83"></polygon>
        <path class="cls-3" d="M540.09,559.42v2.29a5.17,5.17,0,0,1-4.69,0v-2.29A5.17,5.17,0,0,0,540.09,559.42Z" transform="translate(-205.49 -151.59)"></path>
      </g>
      <g class="cls-1">
        <path class="cls-3" d="M349.37,480v-2.29a1.66,1.66,0,0,0,1,1.37v2.29A1.66,1.66,0,0,1,349.37,480Z" transform="translate(-205.49 -151.59)"></path>
        <path class="cls-3" d="M520.57,557.24v2.29a1.65,1.65,0,0,1-1,1.35v-2.29A1.65,1.65,0,0,0,520.57,557.24Z" transform="translate(-205.49 -151.59)"></path>
        <polygon class="cls-3" points="314.12 407 314.11 409.29 300.77 417.04 300.77 414.76 314.12 407"></polygon>
        <polygon class="cls-3" points="296.08 414.75 296.08 417.04 144.87 329.74 144.87 327.45 296.08 414.75"></polygon>
        <path class="cls-3" d="M506.26,566.35v2.29a5.17,5.17,0,0,1-4.69,0v-2.29A5.17,5.17,0,0,0,506.26,566.35Z" transform="translate(-205.49 -151.59)"></path>
      </g>
      <g class="cls-1">
        <path class="cls-3" d="M577.36,563.58v2.29a1.65,1.65,0,0,1-1,1.35v-2.29A1.65,1.65,0,0,0,577.36,563.58Z" transform="translate(-205.49 -151.59)"></path>
        <path class="cls-3" d="M543.94,565.85v-2.29a1.66,1.66,0,0,0,1,1.37v2.29A1.66,1.66,0,0,1,543.94,565.85Z" transform="translate(-205.49 -151.59)"></path>
        <polygon class="cls-3" points="370.91 413.34 370.9 415.62 357.56 423.38 357.57 421.09 370.91 413.34"></polygon>
        <polygon class="cls-3" points="352.87 421.09 352.87 423.38 339.43 415.62 339.44 413.34 352.87 421.09"></polygon>
        <path class="cls-3" d="M563.05,572.68V575a5.17,5.17,0,0,1-4.69,0v-2.29A5.17,5.17,0,0,0,563.05,572.68Z" transform="translate(-205.49 -151.59)"></path>
      </g>
      <g class="cls-1">
        <path class="cls-3" d="M543.53,570.5v2.29a1.65,1.65,0,0,1-1,1.35v-2.29A1.65,1.65,0,0,0,543.53,570.5Z" transform="translate(-205.49 -151.59)"></path>
        <path class="cls-3" d="M510.12,572.77v-2.29a1.66,1.66,0,0,0,1,1.37v2.29A1.66,1.66,0,0,1,510.12,572.77Z" transform="translate(-205.49 -151.59)"></path>
        <polygon class="cls-3" points="337.08 420.26 337.08 422.55 323.73 430.3 323.74 428.01 337.08 420.26"></polygon>
        <polygon class="cls-3" points="319.05 428.01 319.04 430.3 305.61 422.55 305.62 420.26 319.05 428.01"></polygon>
        <path class="cls-3" d="M529.22,579.61v2.29a5.17,5.17,0,0,1-4.69,0v-2.29A5.17,5.17,0,0,0,529.22,579.61Z" transform="translate(-205.49 -151.59)"></path>
      </g>
      <g class="cls-1">
        <path class="cls-3" d="M600.32,576.84v2.29a1.65,1.65,0,0,1-1,1.35v-2.29A1.65,1.65,0,0,0,600.32,576.84Z" transform="translate(-205.49 -151.59)"></path>
        <path class="cls-3" d="M566.9,579.11v-2.29a1.66,1.66,0,0,0,1,1.37v2.29A1.66,1.66,0,0,1,566.9,579.11Z" transform="translate(-205.49 -151.59)"></path>
        <polygon class="cls-3" points="393.87 426.59 393.87 428.88 380.52 436.64 380.53 434.35 393.87 426.59"></polygon>
        <polygon class="cls-3" points="375.83 434.35 375.83 436.64 362.4 428.88 362.4 426.59 375.83 434.35"></polygon>
        <path class="cls-3" d="M586,585.94v2.29a5.17,5.17,0,0,1-4.69,0v-2.29A5.17,5.17,0,0,0,586,585.94Z" transform="translate(-205.49 -151.59)"></path>
      </g>
      <g class="cls-1">
        <path class="cls-3" d="M533.08,586v-2.29a1.66,1.66,0,0,0,1,1.37v2.29A1.66,1.66,0,0,1,533.08,586Z" transform="translate(-205.49 -151.59)"></path>
        <path class="cls-3" d="M577.49,590.11v2.29a1.65,1.65,0,0,1-1,1.35v-2.29A1.65,1.65,0,0,0,577.49,590.11Z" transform="translate(-205.49 -151.59)"></path>
        <polygon class="cls-3" points="371.04 439.86 371.03 442.15 357.69 449.91 357.69 447.62 371.04 439.86"></polygon>
        <polygon class="cls-3" points="353 447.62 353 449.9 328.57 435.8 328.58 433.52 353 447.62"></polygon>
        <path class="cls-3" d="M563.18,599.21v2.29a5.17,5.17,0,0,1-4.69,0v-2.29A5.17,5.17,0,0,0,563.18,599.21Z" transform="translate(-205.49 -151.59)"></path>
      </g>
      <path class="cls-4" d="M416.35,416.91c1.3,0.75,1.31,2,0,2.72L403,427.39a5.17,5.17,0,0,1-4.69,0l-25.4-14.66c-1.3-.75-1.31-2,0-2.72l13.34-7.75a5.17,5.17,0,0,1,4.69,0Z" transform="translate(-205.49 -151.59)"></path>
      <path class="cls-4" d="M439.31,430.17c1.3,0.75,1.31,2,0,2.72L426,440.65a5.18,5.18,0,0,1-4.69,0l-13.43-7.75c-1.3-.75-1.31-2,0-2.72l13.34-7.75a5.17,5.17,0,0,1,4.69,0Z" transform="translate(-205.49 -151.59)"></path>
      <path class="cls-4" d="M462.28,443.43c1.3,0.75,1.31,2,0,2.72L449,453.9a5.17,5.17,0,0,1-4.69,0l-13.43-7.75c-1.3-.75-1.31-2,0-2.72l13.34-7.75a5.17,5.17,0,0,1,4.69,0Z" transform="translate(-205.49 -151.59)"></path>
      <path class="cls-4" d="M485.24,456.69c1.3,0.75,1.31,2,0,2.72l-13.34,7.75a5.17,5.17,0,0,1-4.69,0l-13.43-7.75c-1.3-.75-1.3-2,0-2.72l13.34-7.75a5.17,5.17,0,0,1,4.69,0Z" transform="translate(-205.49 -151.59)"></path>
      <path class="cls-4" d="M508.2,469.95c1.3,0.75,1.31,2,0,2.72l-13.34,7.75a5.17,5.17,0,0,1-4.69,0l-13.43-7.75c-1.3-.75-1.31-2,0-2.72l13.34-7.75a5.17,5.17,0,0,1,4.69,0Z" transform="translate(-205.49 -151.59)"></path>
      <path class="cls-4" d="M531.17,483.21c1.3,0.75,1.3,2,0,2.72l-13.34,7.75a5.17,5.17,0,0,1-4.69,0l-13.43-7.75c-1.3-.75-1.31-2,0-2.72L513,475.45a5.17,5.17,0,0,1,4.69,0Z" transform="translate(-205.49 -151.59)"></path>
      <path class="cls-4" d="M554.13,496.46c1.3,0.75,1.31,2,0,2.72l-13.34,7.75a5.17,5.17,0,0,1-4.69,0l-13.43-7.75c-1.3-.75-1.31-2,0-2.72L536,488.71a5.17,5.17,0,0,1,4.69,0Z" transform="translate(-205.49 -151.59)"></path>
      <path class="cls-4" d="M577.09,509.72c1.3,0.75,1.31,2,0,2.72l-13.34,7.75a5.17,5.17,0,0,1-4.69,0l-13.43-7.75c-1.3-.75-1.31-2,0-2.72L559,502a5.18,5.18,0,0,1,4.69,0Z" transform="translate(-205.49 -151.59)"></path>
      <path class="cls-4" d="M600.06,523c1.3,0.75,1.31,2,0,2.72l-13.34,7.75a5.17,5.17,0,0,1-4.69,0l-13.43-7.75c-1.3-.75-1.31-2,0-2.72l13.34-7.75a5.17,5.17,0,0,1,4.69,0Z" transform="translate(-205.49 -151.59)"></path>
      <path class="cls-4" d="M623,536.24c1.3,0.75,1.3,2,0,2.72l-13.34,7.75a5.17,5.17,0,0,1-4.69,0L591.57,539c-1.3-.75-1.31-2,0-2.72l13.34-7.75a5.17,5.17,0,0,1,4.69,0Z" transform="translate(-205.49 -151.59)"></path>
      <path class="cls-4" d="M646,549.5c1.3,0.75,1.31,2,0,2.72L632.66,560a5.17,5.17,0,0,1-4.69,0l-13.43-7.75c-1.3-.75-1.31-2,0-2.72l13.34-7.75a5.17,5.17,0,0,1,4.69,0Z" transform="translate(-205.49 -151.59)"></path>
      <path class="cls-4" d="M381.55,423.27c1.3,0.75,1.31,2,0,2.72l-13.34,7.75a5.17,5.17,0,0,1-4.69,0L350.1,426c-1.3-.75-1.31-2,0-2.72l13.34-7.75a5.17,5.17,0,0,1,4.69,0Z" transform="translate(-205.49 -151.59)"></path>
      <path class="cls-4" d="M404.51,436.53c1.3,0.75,1.31,2,0,2.72L391.18,447a5.17,5.17,0,0,1-4.69,0l-13.43-7.75c-1.3-.75-1.3-2,0-2.72l13.34-7.75a5.17,5.17,0,0,1,4.69,0Z" transform="translate(-205.49 -151.59)"></path>
      <path class="cls-4" d="M427.47,449.79c1.3,0.75,1.31,2,0,2.72l-13.34,7.75a5.17,5.17,0,0,1-4.69,0L396,452.51c-1.3-.75-1.31-2,0-2.72L409.35,442a5.17,5.17,0,0,1,4.69,0Z" transform="translate(-205.49 -151.59)"></path>
      <path class="cls-4" d="M450.44,463c1.3,0.75,1.31,2,0,2.72l-13.34,7.75a5.18,5.18,0,0,1-4.69,0L419,465.76c-1.3-.75-1.31-2,0-2.72l13.34-7.75a5.17,5.17,0,0,1,4.69,0Z" transform="translate(-205.49 -151.59)"></path>
      <path class="cls-4" d="M473.4,476.3c1.3,0.75,1.31,2,0,2.72l-13.34,7.75a5.17,5.17,0,0,1-4.69,0L442,479c-1.3-.75-1.31-2,0-2.72l13.34-7.75a5.17,5.17,0,0,1,4.69,0Z" transform="translate(-205.49 -151.59)"></path>
      <path class="cls-4" d="M496.36,489.56c1.3,0.75,1.31,2,0,2.72L483,500a5.17,5.17,0,0,1-4.69,0l-13.43-7.75c-1.3-.75-1.3-2,0-2.72l13.34-7.75a5.17,5.17,0,0,1,4.69,0Z" transform="translate(-205.49 -151.59)"></path>
      <path class="cls-4" d="M519.33,502.82c1.3,0.75,1.31,2,0,2.72L506,513.29a5.17,5.17,0,0,1-4.69,0l-13.43-7.75c-1.3-.75-1.31-2,0-2.72l13.34-7.75a5.17,5.17,0,0,1,4.69,0Z" transform="translate(-205.49 -151.59)"></path>
      <path class="cls-4" d="M542.29,516.08c1.3,0.75,1.3,2,0,2.72L529,526.55a5.17,5.17,0,0,1-4.69,0l-13.43-7.75c-1.3-.75-1.31-2,0-2.72l13.34-7.75a5.17,5.17,0,0,1,4.69,0Z" transform="translate(-205.49 -151.59)"></path>
      <path class="cls-4" d="M565.26,529.34c1.3,0.75,1.31,2,0,2.72l-13.34,7.75a5.17,5.17,0,0,1-4.69,0l-13.43-7.75c-1.3-.75-1.31-2,0-2.72l13.34-7.75a5.17,5.17,0,0,1,4.69,0Z" transform="translate(-205.49 -151.59)"></path>
      <path class="cls-4" d="M588.22,542.59c1.3,0.75,1.31,2,0,2.72l-13.34,7.75a5.17,5.17,0,0,1-4.69,0l-13.43-7.75c-1.3-.75-1.31-2,0-2.72l13.34-7.75a5.18,5.18,0,0,1,4.69,0Z" transform="translate(-205.49 -151.59)"></path>
      <path class="cls-4" d="M622.18,562.2c1.3,0.75,1.31,2,0,2.72l-13.34,7.75a5.17,5.17,0,0,1-4.69,0l-24.42-14.1c-1.3-.75-1.31-2,0-2.72l13.34-7.75a5.17,5.17,0,0,1,4.69,0Z" transform="translate(-205.49 -151.59)"></path>
      <path class="cls-4" d="M369.71,442.89c1.3,0.75,1.3,2,0,2.72l-13.34,7.75a5.17,5.17,0,0,1-4.69,0l-24.43-14.1c-1.3-.75-1.31-2,0-2.72l13.34-7.75a5.18,5.18,0,0,1,4.69,0Z" transform="translate(-205.49 -151.59)"></path>
      <path class="cls-4" d="M335.88,449.81c1.3,0.75,1.31,2,0,2.72l-13.34,7.75a5.17,5.17,0,0,1-4.69,0l-13.43-7.75c-1.3-.75-1.31-2,0-2.72l13.34-7.75a5.17,5.17,0,0,1,4.69,0Z" transform="translate(-205.49 -151.59)"></path>
      <path class="cls-4" d="M392.67,456.15c1.3,0.75,1.3,2,0,2.72l-13.34,7.75a5.17,5.17,0,0,1-4.69,0l-13.43-7.75c-1.3-.75-1.31-2,0-2.72l13.34-7.75a5.18,5.18,0,0,1,4.69,0Z" transform="translate(-205.49 -151.59)"></path>
      <path class="cls-4" d="M358.84,463.07c1.3,0.75,1.31,2,0,2.72l-13.34,7.75a5.17,5.17,0,0,1-4.69,0l-13.43-7.75c-1.3-.75-1.3-2,0-2.72l13.34-7.75a5.17,5.17,0,0,1,4.69,0Z" transform="translate(-205.49 -151.59)"></path>
      <path class="cls-4" d="M415.64,469.4c1.3,0.75,1.3,2,0,2.72l-13.34,7.75a5.17,5.17,0,0,1-4.69,0l-13.43-7.75c-1.3-.75-1.3-2,0-2.72l13.34-7.75a5.18,5.18,0,0,1,4.69,0Z" transform="translate(-205.49 -151.59)"></path>
      <path class="cls-4" d="M438.6,482.66c1.3,0.75,1.3,2,0,2.72l-13.34,7.75a5.17,5.17,0,0,1-4.69,0l-13.43-7.75c-1.3-.75-1.31-2,0-2.72l13.34-7.75a5.18,5.18,0,0,1,4.69,0Z" transform="translate(-205.49 -151.59)"></path>
      <path class="cls-4" d="M461.56,495.92c1.3,0.75,1.3,2,0,2.72l-13.34,7.75a5.18,5.18,0,0,1-4.69,0l-13.43-7.75c-1.3-.75-1.31-2,0-2.72l13.34-7.75a5.18,5.18,0,0,1,4.69,0Z" transform="translate(-205.49 -151.59)"></path>
      <path class="cls-4" d="M484.53,509.18c1.3,0.75,1.3,2,0,2.72l-13.34,7.75a5.17,5.17,0,0,1-4.69,0l-13.43-7.75c-1.3-.75-1.31-2,0-2.72l13.34-7.75a5.18,5.18,0,0,1,4.69,0Z" transform="translate(-205.49 -151.59)"></path>
      <path class="cls-4" d="M507.49,522.44c1.3,0.75,1.3,2,0,2.72l-13.34,7.75a5.17,5.17,0,0,1-4.69,0L476,525.16c-1.3-.75-1.3-2,0-2.72l13.34-7.75a5.18,5.18,0,0,1,4.69,0Z" transform="translate(-205.49 -151.59)"></path>
      <path class="cls-4" d="M530.45,535.69c1.3,0.75,1.3,2,0,2.72l-13.34,7.75a5.17,5.17,0,0,1-4.69,0L499,538.41c-1.3-.75-1.31-2,0-2.72l13.34-7.75a5.18,5.18,0,0,1,4.69,0Z" transform="translate(-205.49 -151.59)"></path>
      <path class="cls-4" d="M553.42,549c1.3,0.75,1.3,2,0,2.72l-13.34,7.75a5.17,5.17,0,0,1-4.69,0L522,551.67c-1.3-.75-1.31-2,0-2.72l13.34-7.75a5.18,5.18,0,0,1,4.69,0Z" transform="translate(-205.49 -151.59)"></path>
      <path class="cls-4" d="M519.59,555.88c1.3,0.75,1.31,2,0,2.72l-13.34,7.75a5.17,5.17,0,0,1-4.69,0L350.36,479c-1.3-.75-1.31-2,0-2.72l13.34-7.75a5.17,5.17,0,0,1,4.69,0Z" transform="translate(-205.49 -151.59)"></path>
      <path class="cls-4" d="M576.38,562.21c1.3,0.75,1.3,2,0,2.72l-13.34,7.75a5.17,5.17,0,0,1-4.69,0l-13.43-7.75c-1.3-.75-1.31-2,0-2.72l13.34-7.75a5.18,5.18,0,0,1,4.69,0Z" transform="translate(-205.49 -151.59)"></path>
      <path class="cls-4" d="M542.55,569.13c1.3,0.75,1.31,2,0,2.72l-13.34,7.75a5.17,5.17,0,0,1-4.69,0l-13.43-7.75c-1.3-.75-1.31-2,0-2.72l13.34-7.75a5.18,5.18,0,0,1,4.69,0Z" transform="translate(-205.49 -151.59)"></path>
      <path class="cls-4" d="M599.34,575.47c1.3,0.75,1.3,2,0,2.72L586,585.94a5.17,5.17,0,0,1-4.69,0l-13.43-7.75c-1.3-.75-1.31-2,0-2.72l13.34-7.75a5.18,5.18,0,0,1,4.69,0Z" transform="translate(-205.49 -151.59)"></path>
      <path class="cls-4" d="M576.51,588.74c1.3,0.75,1.31,2,0,2.72l-13.34,7.75a5.17,5.17,0,0,1-4.69,0l-24.42-14.1c-1.3-.75-1.31-2,0-2.72l13.34-7.75a5.17,5.17,0,0,1,4.69,0Z" transform="translate(-205.49 -151.59)"></path>
      <path class="cls-2" d="M682.83,340.42V534.2l-280.52-162V178.46Z" transform="translate(-205.49 -151.59)"></path>
      <polygon class="cls-8" points="447.39 424.38 447.39 430.53 466.15 419.7 466.15 413.55 447.39 424.38"></polygon>
      <polygon class="cls-8" points="421.06 439.59 421.06 445.74 439.81 434.91 439.81 428.76 421.06 439.59"></polygon>
      <path class="cls-8" d="M615.93,597a5.87,5.87,0,0,0-2.66,4.61c0,1.7,1.2,2.38,2.68,1.53a5.87,5.87,0,0,0,2.66-4.61C618.61,596.86,617.41,596.18,615.93,597Z" transform="translate(-205.49 -151.59)"></path>
      <path class="cls-8" d="M603,604.81a5.87,5.87,0,0,0-2.66,4.61c0,1.7,1.2,2.38,2.68,1.53a5.87,5.87,0,0,0,2.66-4.61C605.66,604.64,604.46,604,603,604.81Z" transform="translate(-205.49 -151.59)"></path>
      <path class="cls-8" d="M542.58,243.84a10.27,10.27,0,0,1,4.66,8.07c0,3-2.11,4.16-4.69,2.67a10.27,10.27,0,0,1-4.66-8.07C537.9,243.55,540,242.35,542.58,243.84Z" transform="translate(-205.49 -151.59)"></path>
      <g class="cls-6">
        <path class="cls-7" d="M673.83,429.58v94l-92.49-53.4v-94Z" transform="translate(-205.49 -151.59)"></path>
      </g>
      <g class="cls-6">
        <polygon class="cls-7" points="337.61 352.94 361.94 339.64 361.94 257.01 324.3 236.47 337.61 352.94"></polygon>
      </g>
      <g class="cls-6">
        <path class="cls-9" d="M481.29,228.73V342.43l-87.07-50.27V178.46Z" transform="translate(-205.49 -151.59)"></path>
      </g>
      <path class="cls-10" d="M467.64,231.85V343.33l-92.49-53.4V178.45Z" transform="translate(-205.49 -151.59)"></path>
      <path class="cls-11" d="M433.63,304c-4.51,0-9.51-1.51-14.68-4.49-17.9-10.33-32.41-35.47-32.35-56,0-10,3.47-17.51,9.68-21.09s14.54-2.79,23.32,2.28c17.9,10.33,32.41,35.47,32.35,56,0,10-3.47,17.51-9.68,21.09A17.09,17.09,0,0,1,433.63,304Zm-28.72-83a16.23,16.23,0,0,0-8.2,2.1c-5.93,3.41-9.21,10.63-9.24,20.33-0.06,20.29,14.26,45.08,31.91,55.27,8.5,4.91,16.47,5.72,22.44,2.28s9.21-10.63,9.24-20.33c0.06-20.29-14.26-45.08-31.91-55.27C414.12,222.48,409.27,221,404.91,221Z" transform="translate(-205.49 -151.59)"></path>
      <path class="cls-11" d="M429.34,298.4l-5.58-3.22-3.67-6.36,0-15.82-6.65-3.84-3.47-6,0-7,5.4-3.07,11.9,6.87,4.92,8.53,5.07,2.93v-3.49L433,265.41l-4.15-7.18-10.67-6.16-2.48-4.29,0-8.13,5.54,3.2,3.15,5.45,5.88,3.4,0-8.22,11,3.58-0.27.83-9.87-3.21,0,8.53-7.4-4.27-3.15-5.45-4-2.32,0,6.38,2.25,3.89,10.67,6.16,4.15,7.18,4.62,2.67,0,5.51-6.59-3.8-4.92-8.53-11.26-6.5-4.52,2.57,0,6.24,3.23,5.6,6.88,4,0,16.09,3.43,5.95,4.94,2.85,10.73-6.12-5.81-10.07,5.56-3.16,5.56,9.62c1-.65,3.7-2.4,5.7-3.54l0.43,0.76c-2.45,1.39-6,3.74-6,3.76l-0.39.26-5.58-9.67-4,2.3,5.81,10.07Z" transform="translate(-205.49 -151.59)"></path>
      <path class="cls-11" d="M411.23,236l-8.71-15.1,0.76-.44,8.28,14.34,8.68-4.95-0.31-4-0.85-.51,0.44-.76,1.06,0.63,0.19,0.12,0.39,5Z" transform="translate(-205.49 -151.59)"></path>
      <polygon class="cls-11" points="195.62 131.02 195.19 130.26 203.68 125.42 192.34 105.77 186.39 102.34 186.41 94.39 182.92 88.33 190.61 83.94 196.01 87.06 200.59 84.45 192.47 70.38 193.24 69.94 201.79 84.77 196 88.07 190.61 84.96 184.12 88.66 187.29 94.15 187.27 101.83 192.98 105.13 204.88 125.75 195.62 131.02"></polygon>
      <polygon class="cls-12" points="264.46 79.06 264.46 190.54 262.15 191.74 262.15 80.54 264.46 79.06 264.46 79.06"></polygon>
      <polygon class="cls-4" points="171.97 25.66 264.46 79.06 262.15 80.54 169.66 26.85 171.97 25.66"></polygon>
      <g class="cls-6">
        <path class="cls-13" d="M383.42,192a6.73,6.73,0,0,1,3.05,5.29c0,1.94-1.38,2.73-3.07,1.75a6.73,6.73,0,0,1-3.05-5.29C380.35,191.81,381.73,191,383.42,192Z" transform="translate(-205.49 -151.59)"></path>
        <path class="cls-13" d="M393.32,197.71a6.73,6.73,0,0,1,3.05,5.29c0,1.94-1.38,2.73-3.07,1.75a6.73,6.73,0,0,1-3.05-5.29C390.26,197.52,391.63,196.74,393.32,197.71Z" transform="translate(-205.49 -151.59)"></path>
        <path class="cls-13" d="M403.22,203.42a6.73,6.73,0,0,1,3.05,5.29c0,1.94-1.38,2.73-3.07,1.75a6.73,6.73,0,0,1-3.05-5.29C400.16,203.23,401.53,202.45,403.22,203.42Z" transform="translate(-205.49 -151.59)"></path>
      </g>
      <path class="cls-4" d="M390.27,213.6a14.11,14.11,0,0,1,6.4,11.09c0,4.08-6.14,11.26-6.47,11.64-0.32-.75-6.39-15-6.38-19.06S386.72,211.55,390.27,213.6Z" transform="translate(-205.49 -151.59)"></path>
      <path class="cls-10" d="M390.2,224.73c1.48,0.86,2.69.17,2.69-1.53a5.89,5.89,0,0,0-2.67-4.63c-1.48-.86-2.69-0.17-2.69,1.53A5.89,5.89,0,0,0,390.2,224.73Z" transform="translate(-205.49 -151.59)"></path>
      <path class="cls-4" d="M419.29,246.41a14.11,14.11,0,0,1,6.4,11.09c0,4.08-6.14,11.26-6.47,11.64-0.32-.75-6.39-15-6.38-19.06S415.74,244.36,419.29,246.41Z" transform="translate(-205.49 -151.59)"></path>
      <path class="cls-10" d="M419.21,257.54c1.48,0.86,2.69.17,2.69-1.53a5.89,5.89,0,0,0-2.67-4.63c-1.48-.86-2.69-0.17-2.69,1.53A5.89,5.89,0,0,0,419.21,257.54Z" transform="translate(-205.49 -151.59)"></path>
      <path class="cls-4" d="M434.63,268.83a14.11,14.11,0,0,1,6.4,11.09c0,4.08-6.14,11.26-6.47,11.64-0.32-.75-6.39-15-6.38-19.06S431.08,266.78,434.63,268.83Z" transform="translate(-205.49 -151.59)"></path>
      <path class="cls-10" d="M434.56,280c1.48,0.86,2.69.17,2.69-1.53a5.89,5.89,0,0,0-2.67-4.63c-1.48-.86-2.69-0.17-2.69,1.53A5.89,5.89,0,0,0,434.56,280Z" transform="translate(-205.49 -151.59)"></path>
      <path class="cls-4" d="M439.23,235.17a14.11,14.11,0,0,1,6.4,11.09c0,4.08-6.14,11.26-6.47,11.64-0.32-.75-6.39-15-6.38-19.06S435.68,233.13,439.23,235.17Z" transform="translate(-205.49 -151.59)"></path>
      <path class="cls-10" d="M439.16,246.3c1.48,0.86,2.69.17,2.69-1.53a5.89,5.89,0,0,0-2.67-4.63c-1.48-.86-2.69-0.17-2.69,1.53A5.89,5.89,0,0,0,439.16,246.3Z" transform="translate(-205.49 -151.59)"></path>
      <g class="cls-6">
        <path class="cls-7" d="M590.08,301.52V415.22L503,364.95V251.25Z" transform="translate(-205.49 -151.59)"></path>
      </g>
      <g class="cls-6">
        <path class="cls-7" d="M689.91,324.33V438l-87.07-50.27V274.06Z" transform="translate(-205.49 -151.59)"></path>
      </g>
      <path class="cls-14" d="M570.12,302.31V413.79l-92.49-53.4V248.91Z" transform="translate(-205.49 -151.59)"></path>
      <polygon class="cls-15" points="366.94 149.52 366.94 261 364.63 262.2 364.63 151 366.94 149.52 366.94 149.52"></polygon>
      <polygon class="cls-4" points="274.45 96.12 366.94 149.52 364.63 151 272.14 97.31 274.45 96.12"></polygon>
      <g class="cls-6">
        <path class="cls-13" d="M485.9,262.47a6.73,6.73,0,0,1,3.05,5.29c0,1.94-1.38,2.73-3.07,1.75a6.73,6.73,0,0,1-3.05-5.29C482.84,262.27,484.21,261.49,485.9,262.47Z" transform="translate(-205.49 -151.59)"></path>
        <path class="cls-13" d="M495.8,268.17a6.73,6.73,0,0,1,3.05,5.29c0,1.94-1.38,2.73-3.07,1.75a6.73,6.73,0,0,1-3.05-5.29C492.74,268,494.11,267.2,495.8,268.17Z" transform="translate(-205.49 -151.59)"></path>
        <path class="cls-13" d="M505.71,273.88a6.73,6.73,0,0,1,3.05,5.29c0,1.94-1.38,2.73-3.07,1.75a6.73,6.73,0,0,1-3.05-5.29C502.64,273.69,504,272.91,505.71,273.88Z" transform="translate(-205.49 -151.59)"></path>
      </g>
      <polygon class="cls-4" points="289.31 162.39 289.31 181.64 281.33 176.83 281.33 157.58 289.31 162.39"></polygon>
      <polygon class="cls-4" points="305.28 162.17 305.28 181.97 297.3 177.16 297.3 157.36 305.28 162.17"></polygon>
      <polygon class="cls-4" points="321.25 165.95 321.25 194.37 313.26 189.56 313.26 161.14 321.25 165.95"></polygon>
      <polygon class="cls-4" points="337.21 169.31 337.21 197.52 329.23 192.72 329.23 164.5 337.21 169.31"></polygon>
      <polygon class="cls-4" points="353.18 168.86 353.18 202.57 345.19 197.76 345.19 164.06 353.18 168.86"></polygon>
      <polygon class="cls-15" points="289.31 181.64 289.31 197.06 281.33 192.25 281.33 176.83 289.31 181.64"></polygon>
      <polygon class="cls-15" points="305.28 181.97 305.28 206.68 297.3 201.87 297.3 177.16 305.28 181.97"></polygon>
      <polygon class="cls-15" points="321.25 194.37 321.25 216.29 313.26 211.48 313.26 189.56 321.25 194.37"></polygon>
      <polygon class="cls-15" points="337.21 197.52 337.21 225.91 329.23 221.1 329.23 192.72 337.21 197.52"></polygon>
      <polygon class="cls-15" points="353.18 202.57 353.18 235.52 345.19 230.71 345.19 197.76 353.18 202.57"></polygon>
      <polygon class="cls-15" points="333.21 161.82 317.15 157.78 301.27 154.11 286.24 156.21 286.12 155.34 301.31 153.22 301.39 153.24 317.35 156.93 333.23 160.92 350.96 157.15 351.14 158.01 333.21 161.82"></polygon>
      <path class="cls-15" d="M490.62,305.25c1.55-.46,3.29,2.56,2.11,3.65-1.55.46-3.29-2.55-2.11-3.65h0Z" transform="translate(-205.49 -151.59)"></path>
      <path class="cls-15" d="M505.72,303.37c1.55-.46,3.29,2.56,2.11,3.65-1.55.46-3.29-2.55-2.11-3.65h0Z" transform="translate(-205.49 -151.59)"></path>
      <path class="cls-15" d="M521.63,307.35c1.55-.46,3.29,2.56,2.11,3.65-1.55.46-3.29-2.55-2.11-3.65h0Z" transform="translate(-205.49 -151.59)"></path>
      <path class="cls-15" d="M537.65,311.14c1.55-.46,3.29,2.56,2.11,3.65-1.55.46-3.29-2.55-2.11-3.65h0Z" transform="translate(-205.49 -151.59)"></path>
      <polygon class="cls-15" points="346.62 162.29 346.02 161.65 350.25 157.72 345.02 155.51 345.37 154.7 351.84 157.44 346.62 162.29"></polygon>
      <g class="cls-6">
        <polygon class="cls-13" points="277.99 119.8 309.69 138.1 309.61 142.98 277.92 124.68 277.99 119.8"></polygon>
      </g>
      <g class="cls-6">
        <path class="cls-7" d="M570.12,385.84v27.95l-79.31-45.65V340.19Z" transform="translate(-205.49 -151.59)"></path>
      </g>
      <path class="cls-5" d="M678.62,329.36V440.85l-92.49-53.4V276Z" transform="translate(-205.49 -151.59)"></path>
      <polygon class="cls-2" points="475.44 176.57 475.44 288.06 473.13 289.25 473.13 178.06 475.44 176.57 475.44 176.57"></polygon>
      <polygon class="cls-4" points="382.94 123.17 475.44 176.57 473.13 178.06 380.64 124.37 382.94 123.17"></polygon>
      <g class="cls-6">
        <path class="cls-13" d="M594.4,289.52a6.73,6.73,0,0,1,3.05,5.29c0,1.94-1.38,2.73-3.07,1.75a6.73,6.73,0,0,1-3.05-5.29C591.33,289.33,592.71,288.55,594.4,289.52Z" transform="translate(-205.49 -151.59)"></path>
        <path class="cls-13" d="M604.3,295.23a6.73,6.73,0,0,1,3.05,5.29c0,1.94-1.38,2.73-3.07,1.75a6.73,6.73,0,0,1-3.05-5.29C601.23,295,602.61,294.25,604.3,295.23Z" transform="translate(-205.49 -151.59)"></path>
        <path class="cls-13" d="M614.2,300.94a6.73,6.73,0,0,1,3.05,5.29c0,1.94-1.38,2.73-3.07,1.75a6.73,6.73,0,0,1-3.05-5.29C611.14,300.74,612.51,300,614.2,300.94Z" transform="translate(-205.49 -151.59)"></path>
      </g>
      <path class="cls-16" d="M627.59,319.45v38.09L596,339.3V301.21Z" transform="translate(-205.49 -151.59)"></path>
      <path class="cls-16" d="M666.35,341.83v38.09l-31.6-18.24V323.59Z" transform="translate(-205.49 -151.59)"></path>
      <path class="cls-16" d="M627.59,364.75v38.09L596,384.6V346.51Z" transform="translate(-205.49 -151.59)"></path>
      <path class="cls-16" d="M666.35,387.13v38.09L634.75,407V368.89Z" transform="translate(-205.49 -151.59)"></path>
      <path class="cls-4" d="M612.55,322.84a10.72,10.72,0,0,1,4.39,5.27l-1.68.46a7,7,0,0,0-2.77-3.49,1.72,1.72,0,0,0-2.77.93l3.86,2.23V330l-4.22-2.44c0,0.28,0,.58,0,0.89s0,0.57,0,.87l4.22,2.44v1.76l-3.9-2.25a6.87,6.87,0,0,0,2.93,4.33,2,2,0,0,0,2.76-.37l1.58,2.24c-1,1.13-2.32,1.59-4.37.41a11.89,11.89,0,0,1-5.23-7.94L605.7,329v-1.76l1.39,0.8c0-.28,0-0.55,0-0.82a7.32,7.32,0,0,1,0-.93l-1.41-.81v-1.76l1.7,1C608.14,322.31,610,321.37,612.55,322.84Z" transform="translate(-205.49 -151.59)"></path>
      <polygon class="cls-4" points="450.91 197.14 446.7 201.91 449.59 203.57 449.58 205.42 446.1 203.41 446.1 204.92 449.58 206.93 449.58 208.78 446.09 206.77 446.09 208.88 443.96 207.65 443.96 205.53 440.49 203.53 440.49 201.68 443.97 203.69 443.97 202.18 440.5 200.17 440.5 198.33 443.37 199.98 439.22 190.39 441.8 191.88 445.08 199.85 448.4 195.69 450.91 197.14"></polygon>
      <path class="cls-4" d="M611.32,367.76a9.84,9.84,0,0,1,4,4.62l-1.7.58a6,6,0,0,0-2.27-2.82c-1.21-.7-1.94-0.12-1.94,1.47v1.84l4.49,2.59v2.16l-4.49-2.59v3.55l5.86,3.38v2.22l-9.52-5.5v-1.62l1.43,0.33v-3.65l-1.43-.82v-2.16l1.43,0.82v-1.91C607.17,367.26,608.69,366.24,611.32,367.76Z" transform="translate(-205.49 -151.59)"></path>
      <path class="cls-4" d="M650.48,396c2.74,2.37,3.91,4.31,3.9,6.55s-1.56,2.9-3.85,1.8v2l-1.57-.9V403.4a17.32,17.32,0,0,1-4.25-4.51l1.16-1.22a14.09,14.09,0,0,0,3.17,3.61v-4.06c-2.64-2.31-3.86-4.16-3.85-6.5s1.54-2.89,3.8-1.79v-1.2l1.57,0.9v1.24a14.3,14.3,0,0,1,3.39,3.53l-1,1.37a13.22,13.22,0,0,0-2.45-2.74V396Zm0,6.22c1.14,0.56,1.79.24,1.79-.75s-0.37-1.71-1.78-3v3.75m-1.4-7.47v-3.65c-1.14-.55-1.74-0.17-1.74.74s0.34,1.63,1.73,2.91" transform="translate(-205.49 -151.59)"></path>
      <g class="cls-6">
        <polygon class="cls-7" points="380.64 235.85 464.76 284.42 464.76 260.21 380.64 211.64 380.64 235.85"></polygon>
      </g>
      <path class="cls-8" d="M542.39,397.16V508.65l-92.49-53.4V343.76Z" transform="translate(-205.49 -151.59)"></path>
      <polygon class="cls-11" points="339.21 244.37 339.21 355.86 336.91 357.05 336.91 245.86 339.21 244.37 339.21 244.37"></polygon>
      <polygon class="cls-4" points="246.72 190.97 339.21 244.37 336.91 245.86 244.42 192.17 246.72 190.97"></polygon>
      <g class="cls-17">
        <path class="cls-4" d="M458.18,357.32a6.73,6.73,0,0,1,3.05,5.29c0,1.94-1.38,2.73-3.07,1.75a6.73,6.73,0,0,1-3.05-5.29C455.11,357.13,456.48,356.35,458.18,357.32Z" transform="translate(-205.49 -151.59)"></path>
        <path class="cls-4" d="M468.08,363a6.73,6.73,0,0,1,3.05,5.29c0,1.94-1.38,2.73-3.07,1.75a6.73,6.73,0,0,1-3.05-5.29C465,362.84,466.39,362.05,468.08,363Z" transform="translate(-205.49 -151.59)"></path>
        <path class="cls-4" d="M478,368.74A6.73,6.73,0,0,1,481,374c0,1.94-1.38,2.73-3.07,1.75a6.73,6.73,0,0,1-3.05-5.29C474.91,368.55,476.29,367.76,478,368.74Z" transform="translate(-205.49 -151.59)"></path>
      </g>
      <g id="ItpRpd">
        <path class="cls-4" d="M512.09,461.16a3,3,0,0,1,1.33,1.71l0.59-.56,0.33,0.22c0,0.79.1,1.58,0.14,2.41l-2-1.16-0.21-1.92-0.39-.26c-0.12.57-.23,1.13-0.43,2.1-0.3-1.35-.51-2.23-0.75-3.29a2.56,2.56,0,0,0,.34.23,5.52,5.52,0,0,0,.51.25C511.73,461,511.91,461.05,512.09,461.16Z" transform="translate(-205.49 -151.59)"></path>
        <path class="cls-4" d="M494,396.42c7.31,4.22,14.38,12,19.19,21.78,5.24,10.62,6.54,19.94,4.47,28.08-0.17.67-.42,0.93-1.21,0.48q-13.05-7.59-26.11-15.11a5.83,5.83,0,0,1-.5-0.39v-3.14c0.86,0.45,1.71.89,2.56,1.35,2.37,1.28,4.74,2.59,7.1,3.86,5.73,3.06,8.44-.06,6.47-7.4-1.81-6.71-6.18-13-11.34-16.21l-0.66-.4c-5.11-2.95-9.45-2.31-11.66,1.76-4.46,8.18,1.68,23.2,12.24,29.68,2.44,1.5,4.89,2.94,7.33,4.35l4.9,2.8,5.6,3.21,1.54,0.89,0.27,0.58a21.24,21.24,0,0,1-3.23,2.46c-5,2.54-10.59,2.08-16.69-1.44a43.24,43.24,0,0,1-7.79-5.93,54.19,54.19,0,0,1-16.86-31.55c-2.22-14.1,3.63-23.63,13.84-23.13A23.67,23.67,0,0,1,494,396.42Z" transform="translate(-205.49 -151.59)"></path>
      </g>
      <g class="cls-6">
        <polygon class="cls-7" points="229.12 325.89 257.25 310.82 257.25 235.85 244.42 228.11 244.42 243.41 213.5 225.91 135.34 272.32 229.12 325.89"></polygon>
      </g>
      <path class="cls-12" d="M655.5,413.17v94L563,453.72v-94Z" transform="translate(-205.49 -151.59)"></path>
      <polygon class="cls-18" points="452.32 260.38 452.32 354.33 450.02 355.53 450.02 261.87 452.32 260.38 452.32 260.38"></polygon>
      <polygon class="cls-4" points="359.83 206.98 452.32 260.38 450.02 261.87 357.53 208.18 359.83 206.98"></polygon>
      <g class="cls-6">
        <path class="cls-13" d="M571.29,373.33a6.73,6.73,0,0,1,3.05,5.29c0,1.94-1.38,2.73-3.07,1.75a6.73,6.73,0,0,1-3.05-5.29C568.22,373.14,569.6,372.35,571.29,373.33Z" transform="translate(-205.49 -151.59)"></path>
        <path class="cls-13" d="M581.19,379a6.73,6.73,0,0,1,3.05,5.29c0,1.94-1.38,2.73-3.07,1.75a6.73,6.73,0,0,1-3.05-5.29C578.12,378.85,579.5,378.06,581.19,379Z" transform="translate(-205.49 -151.59)"></path>
        <path class="cls-13" d="M591.09,384.75a6.73,6.73,0,0,1,3.05,5.29c0,1.94-1.38,2.73-3.07,1.75A6.73,6.73,0,0,1,588,386.5C588,384.55,589.4,383.77,591.09,384.75Z" transform="translate(-205.49 -151.59)"></path>
      </g>
      <path class="cls-5" d="M589.36,397.57a9.62,9.62,0,0,1,3.35,3.53l10,17.27L628,424.15l3.21,5.56L611.13,433l10.28,17.8a11.16,11.16,0,0,1,.67,1.37l7.22,4,3.77,6.53-10.43-2-3.51,10-3.77-6.53,0.17-8.21a11.53,11.53,0,0,1-.85-1.27l-10.28-17.8-13,15.54-3.21-5.56L596,422.21l-10-17.27c-1.84-3.19-1.83-6.66,0-7.71A3.39,3.39,0,0,1,589.36,397.57Z" transform="translate(-205.49 -151.59)"></path>
      <path class="cls-5" d="M432.3,357.91V469.4L339.81,416V304.51Z" transform="translate(-205.49 -151.59)"></path>
      <polygon class="cls-2" points="229.12 205.12 229.12 316.61 226.81 317.8 226.81 206.61 229.12 205.12 229.12 205.12"></polygon>
      <polygon class="cls-4" points="136.63 151.72 229.12 205.12 226.81 206.61 134.32 152.92 136.63 151.72"></polygon>
      <g class="cls-6">
        <path class="cls-13" d="M348.08,318.07a6.73,6.73,0,0,1,3.05,5.29c0,1.94-1.38,2.73-3.07,1.75a6.73,6.73,0,0,1-3.05-5.29C345,317.88,346.39,317.09,348.08,318.07Z" transform="translate(-205.49 -151.59)"></path>
        <path class="cls-13" d="M358,323.78a6.73,6.73,0,0,1,3.05,5.29c0,1.94-1.38,2.73-3.07,1.75a6.73,6.73,0,0,1-3.05-5.29C354.92,323.59,356.3,322.8,358,323.78Z" transform="translate(-205.49 -151.59)"></path>
        <path class="cls-13" d="M367.89,329.49a6.73,6.73,0,0,1,3.05,5.29c0,1.94-1.38,2.73-3.07,1.75a6.73,6.73,0,0,1-3.05-5.29C364.82,329.29,366.2,328.51,367.89,329.49Z" transform="translate(-205.49 -151.59)"></path>
      </g>
      <g class="cls-6">
        <polygon class="cls-7" points="409.69 422.71 469.44 389.11 468.82 380.9 378.85 329.39 319.54 369.48 409.69 422.71"></polygon>
      </g>
      <g class="cls-6">
        <path class="cls-9" d="M354.79,543.11l48.43-28a4.64,4.64,0,0,1,4.64,0l1.08,0.62c0.09-1.93,2-3.88,4.79-4.6,3.17-.83,6.21.27,6.79,2.47s-1.53,4.65-4.7,5.48a8.54,8.54,0,0,1-1.2.23,4.42,4.42,0,0,1-1.16,6.68l-45,26-4.75-2.73,14.06-10.95-20.22,8.43Z" transform="translate(-205.49 -151.59)"></path>
      </g>
      <circle class="cls-19" cx="179.54" cy="354.05" r="2.42"></circle>
      <path class="cls-15" d="M349.25,481.55h0a2.9,2.9,0,0,1,3.74,1.64l3.77,14.63c0.58,1.48-2.25,2.06-2.46,1.34l-6.7-13.87A2.9,2.9,0,0,1,349.25,481.55Z" transform="translate(-205.49 -151.59)"></path>
      <rect class="cls-15" x="350.05" y="465.65" width="5.78" height="21.73" rx="2.89" ry="2.89" transform="translate(-24 -242.74) rotate(19.72)"></rect>
      <path class="cls-11" d="M353,543.76v3.08c1.59,1.1,3.52.66,5.71-.49s5.55-3,5.55-3c-0.38-.71-0.55-2.14-2.44-1.92s-4.41.66-4.41,0.66Z" transform="translate(-205.49 -151.59)"></path>
      <path class="cls-11" d="M363.7,549V552c1.59,1.1,3.52.66,5.71-.49s5.55-3,5.55-3c-0.38-.71-0.55-2.14-2.44-1.92s-4.41.66-4.41,0.66Z" transform="translate(-205.49 -151.59)"></path>
      <path class="cls-18" d="M354.56,504.3c0,10-1.23,38.94-1.23,38.94,1.94,1,3,1.55,5,.32s5.4-31.5,5.4-40.23Z" transform="translate(-205.49 -151.59)"></path>
      <path class="cls-14" d="M369.3,494.16h0a2.9,2.9,0,0,1,4-.62l11,10.33c1.28,0.94-.8,2.95-1.36,2.45l-13.09-8.12A2.9,2.9,0,0,1,369.3,494.16Z" transform="translate(-205.49 -151.59)"></path>
      <path class="cls-14" d="M354.77,467.44c-1.08,5.72,0,29.27,0,29.27s8.13,5,11,6.35c4.21,2,8.31-.92,8.31-0.92V480.82C374.08,471.21,356.1,460.44,354.77,467.44Z" transform="translate(-205.49 -151.59)"></path>
      <path class="cls-12" d="M365.78,503.06c-2.88-1.34-11-6.35-11-6.35a29.55,29.55,0,0,0-.48,5.27,8,8,0,0,0,4,6.43c2.56,1.53,5.85,3.46,7.48,4.22a7.45,7.45,0,0,0,4,.64,4.87,4.87,0,0,0,4.32-4.87v-6.25S370,505,365.78,503.06Z" transform="translate(-205.49 -151.59)"></path>
      <rect class="cls-14" x="367.13" y="476.54" width="5.78" height="21.73" rx="2.89" ry="2.89" transform="translate(-254.81 -109.87) rotate(-6.05)"></rect>
      <path class="cls-12" d="M364.93,509.92c0,10-1.23,38.94-1.23,38.94,1.94,1,3,1.55,5,.32s5.4-31.5,5.4-40.23Z" transform="translate(-205.49 -151.59)"></path>
      <rect class="cls-19" x="359.03" y="448.81" width="11.89" height="18.72" rx="5.95" ry="5.95" transform="translate(-302.91 -53.02) rotate(-13.59)"></rect>
      <path class="cls-19" d="M364.25,461.93h0a2.2,2.2,0,0,0-2.4,1.9v4.68a2.2,2.2,0,0,0,2.4,1.9h0a2.2,2.2,0,0,0,2.4-1.9v-4.68A2.2,2.2,0,0,0,364.25,461.93Z" transform="translate(-205.49 -151.59)"></path>
      <path d="M365,463.18c-0.32-1.78-1.62-3.77-.44-4.35s1.94,1.1,1.94,1.1l1.38-.89s-0.29-.64-0.6-1.36a1.75,1.75,0,0,1,.42-2l2.32-2.06-0.08-.32a5.83,5.83,0,0,0-7-4.29l-0.26.06a5.83,5.83,0,0,0-4.29,7L360,463a5.76,5.76,0,0,0,1.58,2.77l1.18-.08A2.5,2.5,0,0,0,365,463.18Z" transform="translate(-205.49 -151.59)"></path>
      <g class="cls-6">
        <path class="cls-9" d="M430,568l8.6-5.7,3.39,0.13,19.14-12.06,5.32,3.23,10.22-6.32-3.94-4.08s10.14-7.43,10.15-10.53a12.73,12.73,0,0,0-2-6.09s8.26-6.51,4.08-8.52-12.6-1.07-13.59,1.35-10.24,7.69-10.24,7.69l-13.81,2.33,1.09,4.88,7.69,1.69-25.37,22.92Z" transform="translate(-205.49 -151.59)"></path>
      </g>
      <path class="cls-19" d="M409.5,519.58l-3.31,1.73-1.3,3.11-3.52.66,0.23,1.25a17.19,17.19,0,0,0,6.75-1.26,5.92,5.92,0,0,0,3-4.57Z" transform="translate(-205.49 -151.59)"></path>
      <polygon class="cls-16" points="236.31 361.92 231.63 364.62 247.42 373.74 252.1 371.04 236.31 361.92"></polygon>
      <polygon class="cls-11" points="231.63 364.62 231.63 380.26 247.42 389.38 247.42 373.74 231.63 364.62"></polygon>
      <polygon class="cls-8" points="247.42 373.74 247.42 389.38 252.1 386.68 252.1 371.04 247.42 373.74"></polygon>
      <circle class="cls-19" cx="241.87" cy="365.26" r="2.28"></circle>
      <path class="cls-8" d="M443.93,496.84h0a2.9,2.9,0,0,0-2.46,3.27l3.88,14.6c0.22,1.57,3,.69,2.8,0l-1-15.37A2.9,2.9,0,0,0,443.93,496.84Z" transform="translate(-205.49 -151.59)"></path>
      <rect class="cls-8" x="437.8" y="480.37" width="5.78" height="21.73" rx="2.89" ry="2.89" transform="translate(836.4 611.84) rotate(156.25)"></rect>
      <path d="M442,559.39v3.08c-1.59,1.1-3.52.66-5.71-.49s-5.55-3-5.55-3c0.38-.71.55-2.14,2.44-1.92s4.41,0.66,4.41.66Z" transform="translate(-205.49 -151.59)"></path>
      <path d="M431.3,564.59v3.08c-1.59,1.1-3.52.66-5.71-.49s-5.55-3-5.55-3c0.38-.71.55-2.14,2.44-1.92s4.41,0.66,4.41.66Z" transform="translate(-205.49 -151.59)"></path>
      <path d="M440.44,519.92c0,10,1.23,38.94,1.23,38.94-1.94,1-3,1.55-5,.32s-5.4-31.5-5.4-40.23Z" transform="translate(-205.49 -151.59)"></path>
      <path class="cls-16" d="M440.23,483.06c1.08,5.72,0,29.27,0,29.27s-8.13,5-11,6.35c-4.21,2-8.31-.92-8.31-0.92V496.44C420.91,486.83,438.9,476.06,440.23,483.06Z" transform="translate(-205.49 -151.59)"></path>
      <path class="cls-11" d="M429.22,518.68c2.88-1.34,11-6.35,11-6.35a29.55,29.55,0,0,1,.48,5.27,8,8,0,0,1-4,6.43c-2.56,1.53-5.85,3.46-7.48,4.22a7.45,7.45,0,0,1-4,.64,4.87,4.87,0,0,1-4.32-4.87v-6.25S425,520.65,429.22,518.68Z" transform="translate(-205.49 -151.59)"></path>
      <path class="cls-11" d="M430.06,525.54c0,10,1.23,38.94,1.23,38.94-1.94,1-3,1.55-5,.32s-5.4-31.5-5.4-40.23Z" transform="translate(-205.49 -151.59)"></path>
      <rect class="cls-19" x="424.08" y="464.43" width="11.89" height="18.72" rx="5.95" ry="5.95" transform="translate(531.21 883.75) rotate(-166.41)"></rect>
      <path class="cls-19" d="M430.75,477.56h0a2.2,2.2,0,0,1,2.4,1.9v4.68a2.2,2.2,0,0,1-2.4,1.9h0a2.2,2.2,0,0,1-2.4-1.9v-4.68A2.2,2.2,0,0,1,430.75,477.56Z" transform="translate(-205.49 -151.59)"></path>
      <path class="cls-15" d="M430,478.8c0.32-1.78,1.62-3.77.44-4.35s-1.94,1.1-1.94,1.1l-1.38-.89s0.29-.64.6-1.36a1.75,1.75,0,0,0-.42-2L425,469.26l-0.92-3c0.75-3.11,4.9-2.33,8-1.58l0.26,0.06a5.83,5.83,0,0,1,4.29,7L435,478.63a5.76,5.76,0,0,1-1.58,2.77l-1.18-.08A2.5,2.5,0,0,1,430,478.8Z" transform="translate(-205.49 -151.59)"></path>
      <g class="cls-1">
        <polygon class="cls-10" points="225.93 347.4 228.3 343.29 225.92 341.93 223.54 346.04 225.93 347.4"></polygon>
      </g>
      <polygon class="cls-11" points="223.55 348.77 225.94 350.14 228.31 346.03 228.3 343.29 225.93 347.4 223.54 346.04 223.55 348.77"></polygon>
      <g class="cls-1">
        <polygon class="cls-4" points="230.7 347.39 233.07 343.28 230.68 341.92 228.31 346.03 230.7 347.39"></polygon>
      </g>
      <polygon class="cls-11" points="228.31 346.03 230.68 341.92 233.07 343.28 233.06 340.54 230.68 339.18 228.3 343.29 228.31 346.03"></polygon>
      <path class="cls-11" d="M426.39,486.4s4.36,1.84,6.62.28c2.47-1.71.14-3.94,0.14-3.94,0,2.3-2.34,2.47-4.8,1.41-1.1-.47-2.78.79-2.57,2.85Z" transform="translate(-205.49 -151.59)"></path>
      <path class="cls-8" d="M426.55,497.89l-5.63,4.74v15.13a10,10,0,0,0,5,1.59Z" transform="translate(-205.49 -151.59)"></path>
      <path class="cls-16" d="M423.71,510.62h0a2.9,2.9,0,0,0-4-.62l-11,10.32c-1.28.94,0.79,2.95,1.36,2.45l13.1-8.11A2.9,2.9,0,0,0,423.71,510.62Z" transform="translate(-205.49 -151.59)"></path>
      <rect class="cls-16" x="420.11" y="493" width="5.78" height="21.73" rx="2.89" ry="2.89" transform="translate(584.63 898.2) rotate(-173.9)"></rect>
      <g class="cls-6">
        <polygon class="cls-9" points="357.53 302.13 440.07 349.78 440.07 329.34 357.53 281.68 357.53 302.13"></polygon>
      </g>
      <path class="cls-10" d="M615.17,471.59v94l-92.49-53.4v-94Z" transform="translate(-205.49 -151.59)"></path>
      <polygon class="cls-12" points="411.99 318.8 411.99 412.75 409.69 413.95 409.69 320.29 411.99 318.8 411.99 318.8"></polygon>
      <polygon class="cls-4" points="319.5 265.4 411.99 318.8 409.69 320.29 317.2 266.6 319.5 265.4"></polygon>
      <g class="cls-6">
        <path class="cls-13" d="M553,456.8v65.53l-24.13-13.71V443.08Z" transform="translate(-205.49 -151.59)"></path>
      </g>
      <g class="cls-6">
        <path class="cls-13" d="M531,431.75A6.73,6.73,0,0,1,534,437c0,1.94-1.38,2.73-3.07,1.75a6.73,6.73,0,0,1-3.05-5.29C527.89,431.56,529.27,430.77,531,431.75Z" transform="translate(-205.49 -151.59)"></path>
        <path class="cls-13" d="M540.86,437.46a6.73,6.73,0,0,1,3.05,5.29c0,1.94-1.38,2.73-3.07,1.75a6.73,6.73,0,0,1-3.05-5.29C537.79,437.26,539.17,436.48,540.86,437.46Z" transform="translate(-205.49 -151.59)"></path>
        <path class="cls-13" d="M550.76,443.16a6.73,6.73,0,0,1,3.05,5.29c0,1.94-1.38,2.73-3.07,1.75a6.73,6.73,0,0,1-3.05-5.29C547.69,443,549.07,442.19,550.76,443.16Z" transform="translate(-205.49 -151.59)"></path>
      </g>
      <path class="cls-11" d="M549.62,510.27l-17.35-10V469a1.61,1.61,0,0,1,2.41-1.39l13.5,7.8a2.9,2.9,0,0,1,1.44,2.5v32.4Zm-16.48-10.53,15.6,9V477.87a2,2,0,0,0-1-1.74l-13.5-7.8a0.73,0.73,0,0,0-1.1.63v30.78Z" transform="translate(-205.49 -151.59)"></path>
      <rect class="cls-11" x="332.89" y="307.68" width="0.88" height="7.87"></rect>
      <rect class="cls-11" x="337.14" y="310.13" width="0.88" height="7.87"></rect>
      <path class="cls-11" d="M544.42,507.21l-6.95-4V492.52l6.95,4v10.68Zm-6.07-4.52,5.2,3V497l-5.2-3v8.65Z" transform="translate(-205.49 -151.59)"></path>
      <rect class="cls-11" x="339.19" y="327.03" width="0.88" height="4.42"></rect>
      <rect class="cls-11" x="335.02" y="324.62" width="0.88" height="4.42"></rect>
      <rect class="cls-11" x="330.84" y="322.21" width="0.88" height="4.42"></rect>
      <rect class="cls-11" x="339.19" y="335.56" width="0.88" height="4.42"></rect>
      <rect class="cls-11" x="335.02" y="333.15" width="0.88" height="4.42"></rect>
      <rect class="cls-11" x="330.84" y="330.74" width="0.88" height="4.42"></rect>
      <rect class="cls-11" x="540.5" y="461.99" width="0.88" height="4.9" transform="translate(-337.22 549.12) rotate(-60)"></rect>
      <g class="cls-6">
        <path class="cls-13" d="M579.75,472v65.53l-24.13-13.71V458.29Z" transform="translate(-205.49 -151.59)"></path>
      </g>
      <path class="cls-11" d="M576.37,525.47l-17.35-10V481.38l17.35,10v34.07Zm-16.48-10.53,15.6,9v-32l-15.6-9v32Z" transform="translate(-205.49 -151.59)"></path>
      <rect class="cls-11" x="359.64" y="322.88" width="0.88" height="7.87"></rect>
      <rect class="cls-11" x="363.89" y="325.34" width="0.88" height="7.87"></rect>
      <path class="cls-11" d="M571.16,522.41l-6.95-4V507.72l6.95,4v10.68Zm-6.07-4.52,5.2,3v-8.65l-5.2-3v8.65Z" transform="translate(-205.49 -151.59)"></path>
      <rect class="cls-11" x="365.94" y="342.23" width="0.88" height="4.42"></rect>
      <rect class="cls-11" x="361.76" y="339.82" width="0.88" height="4.42"></rect>
      <rect class="cls-11" x="357.59" y="337.41" width="0.88" height="4.42"></rect>
      <rect class="cls-11" x="365.94" y="350.76" width="0.88" height="4.42"></rect>
      <rect class="cls-11" x="361.76" y="348.35" width="0.88" height="4.42"></rect>
      <rect class="cls-11" x="357.59" y="345.94" width="0.88" height="4.42"></rect>
      <rect class="cls-11" x="567.25" y="477.19" width="0.88" height="4.9" transform="translate(-337.01 579.88) rotate(-60)"></rect>
      <rect class="cls-11" x="567.25" y="500.68" width="0.88" height="19.03" transform="translate(-363.48 595.12) rotate(-60)"></rect>
      <rect class="cls-11" x="357.59" y="332.95" width="0.88" height="23.53"></rect>
      <rect class="cls-11" x="361.76" y="335.56" width="0.88" height="23.08"></rect>
      <rect class="cls-11" x="365.94" y="337.77" width="0.88" height="23.07"></rect>
      <g class="cls-6">
        <path class="cls-13" d="M606.5,487.2v65.53L582.37,539V473.49Z" transform="translate(-205.49 -151.59)"></path>
      </g>
      <path class="cls-11" d="M603.11,540.67l-17.35-10V496.58l17.35,10v34.07Zm-16.48-10.53,15.6,9v-32l-15.6-9v32Z" transform="translate(-205.49 -151.59)"></path>
      <rect class="cls-11" x="386.39" y="338.09" width="0.88" height="7.87"></rect>
      <rect class="cls-11" x="390.64" y="340.54" width="0.88" height="7.87"></rect>
      <path class="cls-11" d="M597.91,537.61l-6.95-4V522.92l6.95,4v10.68Zm-6.07-4.52,5.2,3v-8.65l-5.2-3v8.65Z" transform="translate(-205.49 -151.59)"></path>
      <rect class="cls-11" x="594" y="492.39" width="0.88" height="4.9" transform="translate(-336.8 610.65) rotate(-60)"></rect>
      <rect class="cls-11" x="388.51" y="374.03" width="0.88" height="9.25"></rect>
      <rect class="cls-11" x="594" y="513.02" width="0.88" height="19.03" transform="translate(-360.8 624.45) rotate(-60)"></rect>
      <rect class="cls-11" x="594" y="508.82" width="0.88" height="19.03" transform="translate(-357.17 622.36) rotate(-60)"></rect>
      <rect class="cls-11" x="594" y="504.63" width="0.88" height="19.03" transform="translate(-353.54 620.26) rotate(-60)"></rect>
      <rect class="cls-11" x="594" y="500.44" width="0.88" height="19.03" transform="translate(-349.9 618.19) rotate(-60)"></rect>
      <rect class="cls-11" x="594" y="496.25" width="0.88" height="19.03" transform="translate(-346.26 616.1) rotate(-60)"></rect>
      <path class="cls-20" d="M406.72,422.12a3.21,3.21,0,0,1-1.58-.48,7.06,7.06,0,0,1-3.25-5.63,2.28,2.28,0,0,1,3.71-2.12,7.06,7.06,0,0,1,3.25,5.63,2.54,2.54,0,0,1-1.11,2.33A2,2,0,0,1,406.72,422.12ZM404,414.3a1.14,1.14,0,0,0-.58.15,1.72,1.72,0,0,0-.67,1.58,6.2,6.2,0,0,0,2.81,4.86,1.74,1.74,0,0,0,1.72.22,1.72,1.72,0,0,0,.67-1.57,6.2,6.2,0,0,0-2.81-4.87h0A2.35,2.35,0,0,0,404,414.3Z" transform="translate(-205.49 -151.59)"></path>
      <path class="cls-20" d="M413.54,429.93a0.44,0.44,0,0,1-.22-0.06l-16.39-9.46a0.44,0.44,0,0,1-.22-0.38l0-14a0.44,0.44,0,0,1,.66-0.38l16.39,9.46a0.44,0.44,0,0,1,.22.38l0,14A0.44,0.44,0,0,1,413.54,429.93Zm-16-10.15,15.52,9,0-13-15.52-9Zm9.13,2.35a3.21,3.21,0,0,1-1.58-.48,7.06,7.06,0,0,1-3.25-5.63,2.28,2.28,0,0,1,3.71-2.12,7.06,7.06,0,0,1,3.25,5.63,2.54,2.54,0,0,1-1.11,2.33A2,2,0,0,1,406.72,422.12ZM404,414.3a1.14,1.14,0,0,0-.58.15,1.72,1.72,0,0,0-.67,1.58,6.2,6.2,0,0,0,2.81,4.86h0a1.74,1.74,0,0,0,1.72.22,1.72,1.72,0,0,0,.67-1.57,6.2,6.2,0,0,0-2.81-4.87A2.35,2.35,0,0,0,404,414.3Z" transform="translate(-205.49 -151.59)"></path>
      <path class="cls-20" d="M369.31,415a0.44,0.44,0,0,1-.22-0.06l-16.39-9.46a0.44,0.44,0,0,1-.22-0.38v-4.65a0.44,0.44,0,0,1,.66-0.38l16.39,9.46a0.44,0.44,0,0,1,.22.38v4.65A0.44,0.44,0,0,1,369.31,415Zm-16-10.15,15.52,9V410.2l-15.52-9v3.64Z" transform="translate(-205.49 -151.59)"></path>
      <path class="cls-20" d="M369.28,424.36a0.44,0.44,0,0,1-.22-0.06l-16.39-9.46a0.44,0.44,0,0,1-.22-0.38V409.8a0.44,0.44,0,0,1,.66-0.38l16.39,9.46a0.44,0.44,0,0,1,.22.38v4.66A0.44,0.44,0,0,1,369.28,424.36Zm-16-10.15,15.52,9v-3.65l-15.52-9v3.65Z" transform="translate(-205.49 -151.59)"></path>
      <path class="cls-20" d="M369.3,419.7a0.44,0.44,0,0,1-.22-0.06l-16.39-9.46a0.44,0.44,0,0,1-.22-0.38v-4.66a0.44,0.44,0,0,1,.66-0.38l16.39,9.46a0.44,0.44,0,0,1,.22.38v4.66A0.44,0.44,0,0,1,369.3,419.7Zm-16-10.15,15.52,9v-3.65l-15.52-9v3.65Z" transform="translate(-205.49 -151.59)"></path>
      <path class="cls-20" d="M413.51,447.33a0.44,0.44,0,0,1-.22-0.06L396.9,437.8a0.44,0.44,0,0,1-.22-0.38l0-8.86a0.44,0.44,0,0,1,.66-0.38l16.39,9.46a0.44,0.44,0,0,1,.22.38l0,8.86A0.44,0.44,0,0,1,413.51,447.33Zm-16-10.15,15.52,9,0-7.85-15.52-9Z" transform="translate(-205.49 -151.59)"></path>
      <path class="cls-20" d="M413.5,449.89a0.44,0.44,0,0,1-.22-0.06l-16.39-9.46a0.44,0.44,0,0,1-.22-0.38v-2.56a0.44,0.44,0,0,1,.66-0.38l16.39,9.46a0.44,0.44,0,0,1,.22.38v2.56A0.44,0.44,0,0,1,413.5,449.89Zm-16-10.15,15.52,9v-1.55l-15.52-9v1.55Z" transform="translate(-205.49 -151.59)"></path>
      <path class="cls-20" d="M413.53,438.47a0.44,0.44,0,0,1-.22-0.06l-16.39-9.46a0.44,0.44,0,0,1-.22-0.38V426a0.44,0.44,0,0,1,.66-0.38l16.39,9.46a0.44,0.44,0,0,1,.22.38V438A0.44,0.44,0,0,1,413.53,438.47Zm-16-10.15,15.52,9v-1.55l-15.52-9v1.55Z" transform="translate(-205.49 -151.59)"></path>
      <path class="cls-20" d="M382.88,405.23a0.44,0.44,0,0,1-.22-0.06l-8.2-4.73a0.44,0.44,0,0,1-.22-0.38l0-7a0.44,0.44,0,0,1,.8-0.25l8.18,11.72A0.44,0.44,0,0,1,382.88,405.23Zm-7.76-5.42,6.27,3.62-6.26-9Z" transform="translate(-205.49 -151.59)"></path>
      <path class="cls-20" d="M382.86,412.21a0.44,0.44,0,0,1-.22-0.06l-8.2-4.73a0.44,0.44,0,0,1,.1-0.8l8.22-2.25a0.44,0.44,0,0,1,.55.42l0,7A0.44,0.44,0,0,1,382.86,412.21Zm-7.07-5,6.63,3.83,0-5.65Z" transform="translate(-205.49 -151.59)"></path>
      <path class="cls-20" d="M374.66,407.48a0.44,0.44,0,0,1-.44-0.44l0-7a0.44,0.44,0,0,1,.66-0.38l8.2,4.73a0.44,0.44,0,0,1-.1.8l-8.22,2.25Zm0.46-6.67,0,5.65,6.65-1.82Z" transform="translate(-205.49 -151.59)"></path>
      <path class="cls-20" d="M391.05,416.95a0.44,0.44,0,0,1-.22-0.06l-8.2-4.73a0.44,0.44,0,0,1-.22-0.38l0-7a0.44,0.44,0,0,1,.8-0.25l8.18,11.72A0.44,0.44,0,0,1,391.05,416.95Zm-7.76-5.42,6.27,3.62-6.25-9Z" transform="translate(-205.49 -151.59)"></path>
      <path class="cls-20" d="M382.88,405.23a0.44,0.44,0,0,1-.36-0.19l-8.18-11.72a0.44,0.44,0,0,1,.58-0.63l8.2,4.73a0.44,0.44,0,0,1,.22.38l0,7a0.44,0.44,0,0,1-.31.42Zm-6.69-10.8,6.26,9v-5.35Z" transform="translate(-205.49 -151.59)"></path>
      <path class="cls-20" d="M391.05,416.95a0.44,0.44,0,0,1-.36-0.19L382.52,405a0.44,0.44,0,0,1,.58-0.63l8.2,4.73a0.44,0.44,0,0,1,.22.38l0,7a0.44,0.44,0,0,1-.31.42Zm-6.69-10.79,6.25,9v-5.34Z" transform="translate(-205.49 -151.59)"></path>
      <path class="cls-20" d="M391.07,410a0.44,0.44,0,0,1-.22-0.06l-8.2-4.73a0.44,0.44,0,0,1,.1-0.8l8.22-2.26a0.44,0.44,0,0,1,.55.42l0,7A0.44,0.44,0,0,1,391.07,410Zm-7.07-5,6.63,3.83,0-5.66Z" transform="translate(-205.49 -151.59)"></path>
      <path class="cls-20" d="M382.88,405.23a0.44,0.44,0,0,1-.44-0.44l0-7a0.44,0.44,0,0,1,.66-0.38l8.2,4.73a0.44,0.44,0,0,1-.1.8L383,405.21Zm0.46-6.67,0,5.66,6.65-1.83Z" transform="translate(-205.49 -151.59)"></path>
      <path class="cls-20" d="M358.39,398.09a0.44,0.44,0,0,1-.22-0.06l-5.46-3.15a0.44,0.44,0,0,1-.22-0.38l0-14a0.44,0.44,0,0,1,.66-0.38l5.46,3.15a0.44,0.44,0,0,1,.22.38l0,14A0.44,0.44,0,0,1,358.39,398.09Zm-5-3.84L358,396.9l0-13-4.59-2.65Z" transform="translate(-205.49 -151.59)"></path>
      <path class="cls-20" d="M363.86,401.25a0.44,0.44,0,0,1-.22-0.06L358.18,398a0.44,0.44,0,0,1-.22-0.38l0-14a0.44,0.44,0,0,1,.66-0.38l5.47,3.16a0.44,0.44,0,0,1,.22.38l0,14A0.44,0.44,0,0,1,363.86,401.25Zm-5-3.85,4.59,2.65,0-13-4.59-2.65Z" transform="translate(-205.49 -151.59)"></path>
      <path class="cls-20" d="M369.32,404.4a0.44,0.44,0,0,1-.22-0.06l-5.46-3.15a0.44,0.44,0,0,1-.22-0.38l0-14a0.44,0.44,0,0,1,.66-0.38l5.46,3.15a0.44,0.44,0,0,1,.22.38l0,14A0.44,0.44,0,0,1,369.32,404.4Zm-5-3.84,4.59,2.65,0-13-4.59-2.65Z" transform="translate(-205.49 -151.59)"></path>
      <path class="cls-20" d="M381.63,424.41a0.44,0.44,0,0,1-.22-0.06l-7-4a0.44,0.44,0,0,1-.22-0.38V413a0.44,0.44,0,0,1,.66-0.38l7,4a0.44,0.44,0,0,1,.22.38V424A0.44,0.44,0,0,1,381.63,424.41Zm-6.55-4.72,6.11,3.53v-5.9l-6.11-3.53v5.9Z" transform="translate(-205.49 -151.59)"></path>
      <path class="cls-20" d="M391,436.9a0.44,0.44,0,0,1-.22-0.06l-16.39-9.46a0.44,0.44,0,0,1-.22-0.38v-4.66a0.44,0.44,0,0,1,.66-0.38l16.39,9.46a0.44,0.44,0,0,1,.22.38v4.66A0.44,0.44,0,0,1,391,436.9Zm-16-10.15,15.52,9v-3.65l-15.52-9v3.65Z" transform="translate(-205.49 -151.59)"></path>
      <path class="cls-20" d="M391,432.25a0.44,0.44,0,0,1-.22-0.06l-16.39-9.46a0.44,0.44,0,0,1-.22-0.38v-2.52a0.44,0.44,0,0,1,.66-0.38l16.39,9.46a0.44,0.44,0,0,1,.22.38v2.52A0.44,0.44,0,0,1,391,432.25Zm-16-10.15,15.52,9v-1.51l-15.52-9v1.51Z" transform="translate(-205.49 -151.59)"></path>
      <path class="cls-20" d="M391,429.79a0.44,0.44,0,0,1-.22-0.06l-16.39-9.46a0.44,0.44,0,0,1-.22-0.38v-0.05h0V413a0.44,0.44,0,0,1,.44-0.44h0a0.44,0.44,0,0,1,.44.44v6.54l6.11,3.53v-6a0.44,0.44,0,0,1,.66-0.38l9.41,5.43a0.44,0.44,0,0,1,.22.38v6.86A0.44,0.44,0,0,1,391,429.79Zm-9-6.12,8.53,4.92v-5.85l-8.53-4.92v5.85Z" transform="translate(-205.49 -151.59)"></path>
      <rect class="cls-20" x="385.91" y="416.55" width="0.88" height="10.86" transform="translate(-377.75 393.99) rotate(-60)"></rect>
      <rect class="cls-20" x="385.91" y="418.84" width="0.88" height="10.86" transform="translate(-379.74 395.13) rotate(-60)"></rect>
      <rect class="cls-20" x="382.37" y="415.08" width="0.88" height="19.03" transform="translate(-381.79 392.23) rotate(-60)"></rect>
      <rect class="cls-20" x="382.37" y="419.99" width="0.88" height="19.03" transform="translate(-386.04 394.7) rotate(-60)"></rect>
      <path class="cls-21" d="M381,353.16c6.87,4,12.41,13.58,12.39,21.46,0,7.22-4.7,10.48-10.75,7.95l-5.24-3-4.44,7.8-3.18-12-2.45-1.41c-6.86-4-12.41-13.57-12.39-21.46s5.61-11.07,12.47-7.11Z" transform="translate(-205.49 -151.59)"></path>
      <path class="cls-2" d="M402.2,355.32c6.87,4,12.41,13.58,12.39,21.46,0,7.22-4.7,10.48-10.75,7.95l-5.24-3-4.44,7.8-3.18-12L388.53,376c-6.86-4-12.41-13.57-12.39-21.46s5.61-11.07,12.47-7.11Z" transform="translate(-205.49 -151.59)"></path>
    </g>
  </g>
</svg>
