<?xml version="1.0" encoding="utf-8"?>
<!-- Generator: Adobe Illustrator 21.1.0, SVG Export Plug-In . SVG Version: 6.00 Build 0)  -->
<svg version="1.1" id="Layer_1" xmlns="http://www.w3.org/2000/svg" xmlns:xlink="http://www.w3.org/1999/xlink" x="0px" y="0px"
	 viewBox="0 0 835 280" style="enable-background:new 0 0 835 280;" xml:space="preserve">
<style type="text/css">
	.st0{fill:none;stroke:#EBECED;stroke-width:0.6114;stroke-miterlimit:10;}
	.st1{fill:none;stroke:#D0D8DC;stroke-width:0.6114;stroke-miterlimit:10;}
	.st2{fill:none;stroke:#BDDDF4;stroke-width:0.6114;stroke-miterlimit:10;}
	.st3{fill:none;stroke:#95C8EC;stroke-width:0.6114;stroke-miterlimit:10;}
	.st4{fill:none;stroke:#EBECED;stroke-width:0.5147;stroke-miterlimit:10;}
	.st5{fill:none;stroke:#D0D8DC;stroke-width:0.5147;stroke-miterlimit:10;}
	.st6{fill:none;stroke:#BDDDF4;stroke-width:0.5147;stroke-miterlimit:10;}
	.st7{fill:none;stroke:#95C8EC;stroke-width:0.5147;stroke-miterlimit:10;}
	.st8{fill:#EEEEEE;}
	.st9{fill:#D0D8DC;}
	.st10{fill:#FFFFFF;}
	.st11{fill:#B4B4B4;}
	.st12{fill:#71BE71;}
	.st13{fill:#A3D1EE;}
	.st14{fill:#A3D1EE;stroke:#A3D1EE;stroke-width:0.9384;stroke-miterlimit:10;}
	.st15{fill:none;stroke:#D0D8DC;stroke-width:1.515;stroke-miterlimit:10;}
	.st16{opacity:0.3;fill:#D0D8DC;}
	.st17{fill:#0071BC;}
	.st18{fill:#B0BEC5;}
	.st19{fill:#455B65;}
	.st20{fill:#57A7DB;}
	.st21{fill:#C8E5C9;}
	.st22{fill:#71BE72;}
	.st23{fill:#105CB5;}
	.st24{fill:#39B54A;}
	.st25{fill:#333333;}
	.st26{fill:#676767;}
	.st27{fill:none;}
	.st28{fill:#FFC127;}
	.st29{fill:#FC6344;}
	.st30{fill:#73C073;}
	.st31{fill:#53B2D3;}
	.st32{fill:#FC6142;}
	.st33{fill:#FCD156;}
	.st34{fill:#BDDDF4;}
</style>
<g>
	<line class="st0" x1="312.5" y1="159.7" x2="0" y2="159.7"/>
	<line class="st1" x1="312.5" y1="174.7" x2="0" y2="174.7"/>
	<line class="st2" x1="312.5" y1="205.7" x2="0" y2="205.7"/>
	<line class="st3" x1="312.5" y1="253.7" x2="0" y2="253.7"/>
	<line class="st4" x1="835" y1="159.7" x2="613.5" y2="159.7"/>
	<line class="st5" x1="835" y1="174.7" x2="613.5" y2="174.7"/>
	<line class="st6" x1="835" y1="205.7" x2="613.5" y2="205.7"/>
	<line class="st7" x1="835" y1="253.7" x2="613.5" y2="253.7"/>
	<path class="st8" d="M58.8,74.8h-0.1c-0.5-3.4-3.4-6-6.9-6c-0.2,0-0.3,0-0.5,0c0,0,0,0,0,0c0-3.6-2.9-6.5-6.5-6.5
		c-1.4,0-2.7,0.4-3.7,1.2c-1.9-2.3-4.7-3.7-7.9-3.7c-5.1,0-9.4,3.8-10.1,8.7c-0.6-0.2-1.1-0.3-1.8-0.3c-3.7,0-6.6,3-6.6,6.6v0.4
		c0,4.2,3.4,7.7,7.7,7.7h28.8c0.1,0,0.2,0,0.3,0c0.1,0,0.2,0,0.3,0c3.9,0,7-3.1,7-7c0-0.1,0-0.2,0-0.3c0-0.1,0-0.2,0-0.3V74.8z"/>
	<path class="st8" d="M821.8,80.8h-0.1c-0.5-3.4-3.4-6-6.9-6c-0.2,0-0.3,0-0.5,0c0,0,0,0,0,0c0-3.6-2.9-6.5-6.5-6.5
		c-1.4,0-2.7,0.4-3.7,1.2c-1.9-2.3-4.7-3.7-7.9-3.7c-5.1,0-9.4,3.8-10.1,8.7c-0.6-0.2-1.1-0.3-1.8-0.3c-3.7,0-6.6,3-6.6,6.6v0.4
		c0,4.2,3.4,7.7,7.7,7.7h28.8c0.1,0,0.2,0,0.3,0c0.1,0,0.2,0,0.3,0c3.9,0,7-3.1,7-7c0-0.1,0-0.2,0-0.3c0-0.1,0-0.2,0-0.3V80.8z"/>
	<g>
		<rect x="28" y="191.7" class="st9" width="18.9" height="60.8"/>
		<g>
			<g>
				<rect x="29.3" y="203.8" class="st8" width="16.3" height="2.6"/>
			</g>
			<g>
				<rect x="29.3" y="208.7" class="st8" width="16.3" height="2.6"/>
			</g>
			<g>
				<rect x="29.3" y="213.7" class="st8" width="16.3" height="2.6"/>
			</g>
			<g>
				<rect x="29.3" y="218.7" class="st8" width="16.3" height="2.6"/>
			</g>
			<g>
				<rect x="29.3" y="223.7" class="st8" width="16.3" height="2.6"/>
			</g>
			<g>
				<rect x="29.3" y="228.7" class="st8" width="16.3" height="2.6"/>
			</g>
			<g>
				<rect x="29.3" y="233.6" class="st8" width="16.3" height="2.6"/>
			</g>
			<g>
				<rect x="29.3" y="238.6" class="st8" width="16.3" height="2.6"/>
			</g>
		</g>
		<g>
			<rect x="29.3" y="242.3" class="st8" width="4.3" height="7.8"/>
		</g>
		<g>
			<rect x="35.3" y="242.3" class="st8" width="4.3" height="7.8"/>
		</g>
		<rect x="32.3" y="183.8" class="st9" width="10.2" height="7.9"/>
		<rect x="30.7" y="182.9" class="st9" width="13.4" height="1.7"/>
		<rect x="37" y="171.2" class="st9" width="0.9" height="10.5"/>
		<rect x="32.9" y="181.2" class="st9" width="9.1" height="1.7"/>
		<rect x="69" y="206.4" class="st9" width="25" height="46.1"/>
		<rect x="39.6" y="229" class="st8" width="36.7" height="23.5"/>
		<g>
			<g>
				<rect x="70.9" y="208.8" class="st10" width="2.2" height="5.6"/>
			</g>
			<g>
				<rect x="74" y="208.8" class="st10" width="2.2" height="5.6"/>
			</g>
			<g>
				<rect x="77.2" y="208.7" class="st10" width="2.2" height="5.7"/>
			</g>
			<g>
				<rect x="80.4" y="208.7" class="st10" width="2.2" height="5.6"/>
			</g>
			<g>
				<rect x="83.6" y="208.7" class="st10" width="2.2" height="5.7"/>
			</g>
			<g>
				<rect x="86.7" y="208.8" class="st10" width="2.2" height="5.6"/>
			</g>
			<g>
				<rect x="89.9" y="208.8" class="st10" width="2.2" height="5.6"/>
			</g>
		</g>
		<g>
			<g>
				<rect x="70.9" y="215.8" class="st10" width="2.2" height="5.6"/>
			</g>
			<g>
				<rect x="74" y="215.8" class="st10" width="2.2" height="5.6"/>
			</g>
			<g>
				<rect x="77.2" y="215.8" class="st10" width="2.2" height="5.7"/>
			</g>
			<g>
				<rect x="80.4" y="215.8" class="st10" width="2.2" height="5.7"/>
			</g>
			<g>
				<rect x="83.6" y="215.8" class="st10" width="2.2" height="5.7"/>
			</g>
			<g>
				<rect x="86.7" y="215.8" class="st10" width="2.2" height="5.6"/>
			</g>
			<g>
				<rect x="89.9" y="215.8" class="st10" width="2.2" height="5.6"/>
			</g>
		</g>
		<g>
			<g>
				<rect x="70.9" y="222.9" class="st10" width="2.2" height="5.6"/>
			</g>
			<g>
				<rect x="74" y="222.9" class="st10" width="2.2" height="5.6"/>
			</g>
			<g>
				<rect x="77.2" y="222.9" class="st10" width="2.2" height="5.6"/>
			</g>
			<g>
				<rect x="80.4" y="222.9" class="st10" width="2.2" height="5.6"/>
			</g>
			<g>
				<rect x="83.6" y="222.9" class="st10" width="2.2" height="5.6"/>
			</g>
			<g>
				<rect x="86.7" y="222.9" class="st10" width="2.2" height="5.7"/>
			</g>
			<g>
				<rect x="89.9" y="222.9" class="st10" width="2.2" height="5.6"/>
			</g>
		</g>
		<g>
			<g>
				<rect x="77.2" y="230" class="st10" width="2.2" height="5.7"/>
			</g>
			<g>
				<rect x="80.4" y="230" class="st10" width="2.2" height="5.7"/>
			</g>
			<g>
				<rect x="83.6" y="230" class="st10" width="2.2" height="5.7"/>
			</g>
			<g>
				<rect x="86.7" y="230" class="st10" width="2.2" height="5.6"/>
			</g>
			<g>
				<rect x="89.9" y="230" class="st10" width="2.2" height="5.6"/>
			</g>
		</g>
		<g>
			<g>
				<rect x="77.2" y="237" class="st10" width="2.2" height="5.7"/>
			</g>
			<g>
				<rect x="80.4" y="237" class="st10" width="2.2" height="5.6"/>
			</g>
			<g>
				<rect x="83.6" y="237" class="st10" width="2.2" height="5.7"/>
			</g>
			<g>
				<rect x="86.7" y="237" class="st10" width="2.2" height="5.6"/>
			</g>
			<g>
				<rect x="89.9" y="237" class="st10" width="2.2" height="5.6"/>
			</g>
		</g>
		<g>
			<g>
				<rect x="77.2" y="244.1" class="st10" width="2.2" height="5.6"/>
			</g>
			<g>
				<rect x="80.4" y="244.1" class="st10" width="2.2" height="5.6"/>
			</g>
			<g>
				<rect x="83.6" y="244.1" class="st10" width="2.2" height="5.6"/>
			</g>
			<g>
				<rect x="86.7" y="244.1" class="st10" width="2.2" height="5.6"/>
			</g>
			<g>
				<rect x="89.9" y="244.1" class="st10" width="2.2" height="5.6"/>
			</g>
		</g>
		<g>
			<rect x="70.4" y="203.7" class="st9" width="4.3" height="2.8"/>
		</g>
		<g>
			<rect x="79.3" y="203.7" class="st9" width="4.3" height="2.8"/>
		</g>
		<g>
			<rect x="88.3" y="203.7" class="st9" width="4.3" height="2.8"/>
		</g>
		<rect x="38.1" y="227.1" class="st9" width="39.8" height="2"/>
		<circle class="st9" cx="57.9" cy="229.5" r="5.1"/>
		<g>
			<rect x="56.9" y="226.6" class="st10" width="2.1" height="5.8"/>
		</g>
		<g>
			<rect x="55.1" y="228.4" class="st10" width="5.8" height="2.1"/>
		</g>
		<g>
			<rect x="29.3" y="193.5" class="st8" width="2.2" height="8.7"/>
		</g>
		<g>
			<rect x="32.1" y="193.5" class="st8" width="2.2" height="8.7"/>
		</g>
		<g>
			<rect x="34.9" y="193.5" class="st8" width="2.2" height="8.7"/>
		</g>
		<g>
			<rect x="37.8" y="193.5" class="st8" width="2.2" height="8.7"/>
		</g>
		<g>
			<rect x="40.6" y="193.5" class="st8" width="2.2" height="8.7"/>
		</g>
		<g>
			<rect x="43.4" y="193.5" class="st8" width="2.2" height="8.7"/>
		</g>
		<g>
			<polygon class="st11" points="94,231.7 97.7,235.4 97.7,252.9 94,252.9 			"/>
			<rect x="46.9" y="213" class="st11" width="22.1" height="6.1"/>
			<g>
				<rect x="41.2" y="242.3" class="st11" width="4.3" height="7.8"/>
			</g>
			<g>
				<rect x="48" y="242.3" class="st11" width="4.3" height="7.8"/>
			</g>
			<g>
				<rect x="63.6" y="242.3" class="st11" width="4.3" height="7.8"/>
			</g>
			<g>
				<rect x="70.3" y="242.3" class="st11" width="4.3" height="7.8"/>
			</g>
			<g>
				<g>
					<rect x="72.5" y="231.7" class="st11" width="2.2" height="5.6"/>
				</g>
				<g>
					<rect x="68" y="231.7" class="st11" width="2.2" height="5.6"/>
				</g>
				<g>
					<rect x="63.6" y="231.7" class="st11" width="2.2" height="5.6"/>
				</g>
				<g>
					<rect x="50.1" y="231.7" class="st11" width="2.2" height="5.6"/>
				</g>
				<g>
					<rect x="45.7" y="231.7" class="st11" width="2.2" height="5.6"/>
				</g>
				<g>
					<rect x="41.2" y="231.7" class="st11" width="2.2" height="5.6"/>
				</g>
			</g>
			<g>
				<rect x="41.2" y="238.6" class="st11" width="14.7" height="2.6"/>
			</g>
			<g>
				<rect x="60.1" y="238.6" class="st11" width="14.6" height="2.6"/>
			</g>
		</g>
		<rect x="55.7" y="242.3" class="st9" width="5.1" height="10.6"/>
		<rect x="22.7" y="251.7" class="st9" width="78.8" height="1.7"/>
	</g>
	<g>
		<g>
			<rect x="744.6" y="134" class="st8" width="26.2" height="70.9"/>
		</g>
		<g>
			<rect x="721.7" y="181.2" class="st9" width="31.4" height="23.6"/>
		</g>
		<g>
			<rect x="770.8" y="167" class="st9" width="27.9" height="37.9"/>
		</g>
		<g>
			<polygon class="st9" points="737,181.2 737,163.8 744.6,157.9 744.6,181.2 			"/>
		</g>
		<g>
			<rect x="747.7" y="131.3" class="st11" width="20" height="2.6"/>
		</g>
		<g>
			<rect x="752.3" y="124.4" class="st8" width="10.8" height="6.9"/>
		</g>
		<g>
			<rect x="751.1" y="122.5" class="st11" width="13.2" height="1.9"/>
		</g>
		<g>
			<rect x="734.3" y="196.1" class="st10" width="5.3" height="8.8"/>
		</g>
		<g>
			<g>
				<g>
					<rect x="723.4" y="182.6" class="st10" width="12.7" height="2.7"/>
				</g>
				<g>
					<rect x="738.8" y="182.6" class="st10" width="12.7" height="2.7"/>
				</g>
			</g>
			<g>
				<g>
					<rect x="723.4" y="187.3" class="st10" width="12.7" height="2.7"/>
				</g>
				<g>
					<rect x="738.8" y="187.3" class="st10" width="12.7" height="2.7"/>
				</g>
			</g>
			<g>
				<g>
					<rect x="723.4" y="192" class="st10" width="12.7" height="2.7"/>
				</g>
				<g>
					<rect x="738.8" y="192" class="st10" width="12.7" height="2.7"/>
				</g>
			</g>
		</g>
		<g>
			<g>
				<g>
					<rect x="746.4" y="135.7" class="st10" width="5.9" height="4.5"/>
				</g>
				<g>
					<rect x="754.7" y="135.7" class="st10" width="5.9" height="4.5"/>
				</g>
				<g>
					<rect x="763.1" y="135.7" class="st10" width="5.9" height="4.5"/>
				</g>
			</g>
			<g>
				<g>
					<rect x="746.4" y="143.1" class="st10" width="5.9" height="4.5"/>
				</g>
				<g>
					<rect x="754.7" y="143.1" class="st10" width="5.9" height="4.5"/>
				</g>
				<g>
					<rect x="763.1" y="143.1" class="st10" width="5.9" height="4.5"/>
				</g>
			</g>
			<g>
				<g>
					<rect x="746.4" y="150.4" class="st10" width="5.9" height="4.5"/>
				</g>
				<g>
					<rect x="754.7" y="150.4" class="st10" width="5.9" height="4.5"/>
				</g>
				<g>
					<rect x="763.1" y="150.4" class="st10" width="5.9" height="4.5"/>
				</g>
			</g>
			<g>
				<g>
					<rect x="746.4" y="157.8" class="st10" width="5.9" height="4.5"/>
				</g>
				<g>
					<rect x="754.7" y="157.8" class="st10" width="5.9" height="4.5"/>
				</g>
				<g>
					<rect x="763.1" y="157.8" class="st10" width="5.9" height="4.5"/>
				</g>
			</g>
			<g>
				<g>
					<rect x="746.4" y="165.2" class="st10" width="5.9" height="4.5"/>
				</g>
				<g>
					<rect x="754.7" y="165.2" class="st10" width="5.9" height="4.5"/>
				</g>
				<g>
					<rect x="763.1" y="165.2" class="st10" width="5.9" height="4.5"/>
				</g>
			</g>
			<g>
				<g>
					<rect x="746.4" y="172.6" class="st10" width="5.9" height="4.5"/>
				</g>
				<g>
					<rect x="754.7" y="172.6" class="st10" width="5.9" height="4.5"/>
				</g>
				<g>
					<rect x="763.1" y="172.6" class="st10" width="5.9" height="4.5"/>
				</g>
			</g>
			<g>
				<g>
					<rect x="754.7" y="179.9" class="st10" width="5.9" height="4.5"/>
				</g>
				<g>
					<rect x="763.1" y="179.9" class="st10" width="5.9" height="4.5"/>
				</g>
			</g>
			<g>
				<g>
					<rect x="754.7" y="187.3" class="st10" width="5.9" height="4.5"/>
				</g>
				<g>
					<rect x="763.1" y="187.3" class="st10" width="5.9" height="4.5"/>
				</g>
			</g>
		</g>
		<g>
			<g>
				<rect x="754.7" y="193.3" class="st11" width="2.3" height="9.1"/>
			</g>
			<g>
				<rect x="758.7" y="193.3" class="st11" width="2.3" height="9.1"/>
			</g>
			<g>
				<rect x="762.7" y="193.3" class="st11" width="2.3" height="9.1"/>
			</g>
			<g>
				<rect x="766.7" y="193.3" class="st11" width="2.3" height="9.1"/>
			</g>
		</g>
		<g>
			<g>
				<g>
					<rect x="772.5" y="168.9" class="st8" width="2.3" height="5.9"/>
				</g>
				<g>
					<rect x="776.1" y="168.9" class="st8" width="2.3" height="5.9"/>
				</g>
				<g>
					<rect x="779.8" y="168.9" class="st8" width="2.3" height="5.9"/>
				</g>
				<g>
					<rect x="783.5" y="168.9" class="st8" width="2.3" height="5.9"/>
				</g>
				<g>
					<rect x="787.1" y="168.9" class="st8" width="2.3" height="5.9"/>
				</g>
				<g>
					<rect x="790.8" y="168.9" class="st8" width="2.3" height="5.9"/>
				</g>
				<g>
					<rect x="794.4" y="168.9" class="st8" width="2.3" height="5.9"/>
				</g>
			</g>
			<g>
				<g>
					<rect x="772.5" y="178.1" class="st8" width="2.3" height="5.9"/>
				</g>
				<g>
					<rect x="776.1" y="178.1" class="st8" width="2.3" height="5.9"/>
				</g>
				<g>
					<rect x="779.8" y="178.1" class="st8" width="2.3" height="5.9"/>
				</g>
				<g>
					<rect x="783.5" y="178.1" class="st8" width="2.3" height="5.9"/>
				</g>
				<g>
					<rect x="787.1" y="178.1" class="st8" width="2.3" height="5.9"/>
				</g>
				<g>
					<rect x="790.8" y="178.1" class="st8" width="2.3" height="5.9"/>
				</g>
				<g>
					<rect x="794.4" y="178.1" class="st8" width="2.3" height="5.9"/>
				</g>
			</g>
			<g>
				<g>
					<rect x="772.5" y="187.3" class="st8" width="2.3" height="5.9"/>
				</g>
				<g>
					<rect x="776.1" y="187.3" class="st8" width="2.3" height="5.9"/>
				</g>
				<g>
					<rect x="779.8" y="187.3" class="st8" width="2.3" height="5.9"/>
				</g>
				<g>
					<rect x="783.5" y="187.3" class="st8" width="2.3" height="5.9"/>
				</g>
				<g>
					<rect x="787.1" y="187.3" class="st8" width="2.3" height="5.9"/>
				</g>
				<g>
					<rect x="790.8" y="187.3" class="st8" width="2.3" height="5.9"/>
				</g>
				<g>
					<rect x="794.4" y="187.3" class="st8" width="2.3" height="5.9"/>
				</g>
			</g>
			<g>
				<g>
					<rect x="772.5" y="196.5" class="st8" width="2.3" height="5.9"/>
				</g>
				<g>
					<rect x="776.1" y="196.5" class="st8" width="2.3" height="5.9"/>
				</g>
				<g>
					<rect x="779.8" y="196.5" class="st8" width="2.3" height="5.9"/>
				</g>
				<g>
					<rect x="790.8" y="196.5" class="st8" width="2.3" height="5.9"/>
				</g>
				<g>
					<rect x="794.4" y="196.5" class="st8" width="2.3" height="5.9"/>
				</g>
			</g>
		</g>
		<g>
			<rect x="783.8" y="196.5" class="st11" width="5.1" height="8.3"/>
		</g>
		<g>
			<path class="st11" d="M778.4,159.6c-2.7,0-5.3,0.3-7.6,0.7v6.6h24.1c0.1-0.3,0.2-0.6,0.2-0.9C795,162.5,787.6,159.6,778.4,159.6z
				"/>
		</g>
		<g>
			<rect x="770.8" y="165.2" class="st8" width="29.1" height="1.8"/>
		</g>
		<g>
			<rect x="719.3" y="203.9" class="st11" width="82.4" height="1.8"/>
		</g>
		<g>
			<circle class="st11" cx="737.4" cy="179.9" r="5.4"/>
		</g>
		<g>
			<g>
				<rect x="736.3" y="176.9" class="st10" width="2.2" height="6"/>
			</g>
			<g>
				<rect x="734.4" y="178.8" class="st10" width="6" height="2.2"/>
			</g>
		</g>
	</g>
	<g>
		<rect x="89.6" y="106.6" class="st9" width="21.3" height="52.4"/>
		<rect x="88.9" y="105" class="st11" width="22.7" height="1.9"/>
		<g>
			<g>
				<rect x="90.9" y="108" class="st8" width="3.9" height="3.9"/>
			</g>
			<g>
				<rect x="95.8" y="108" class="st8" width="3.9" height="3.9"/>
			</g>
			<g>
				<rect x="100.8" y="108" class="st8" width="3.9" height="3.9"/>
			</g>
			<g>
				<rect x="105.8" y="108" class="st8" width="3.9" height="3.9"/>
			</g>
		</g>
		<g>
			<g>
				<rect x="90.9" y="114.1" class="st8" width="3.9" height="3.9"/>
			</g>
			<g>
				<rect x="95.8" y="114.1" class="st8" width="3.9" height="3.9"/>
			</g>
			<g>
				<rect x="100.8" y="114.1" class="st8" width="3.9" height="3.9"/>
			</g>
			<g>
				<rect x="105.8" y="114.1" class="st8" width="3.9" height="3.9"/>
			</g>
		</g>
		<g>
			<g>
				<rect x="100.8" y="120.1" class="st8" width="3.9" height="3.9"/>
			</g>
			<g>
				<rect x="105.8" y="120.1" class="st8" width="3.9" height="3.9"/>
			</g>
		</g>
		<g>
			<g>
				<rect x="100.8" y="126.1" class="st8" width="3.9" height="3.9"/>
			</g>
			<g>
				<rect x="105.8" y="126.1" class="st8" width="3.9" height="3.9"/>
			</g>
		</g>
		<g>
			<g>
				<rect x="100.8" y="132.2" class="st8" width="3.9" height="3.9"/>
			</g>
			<g>
				<rect x="105.8" y="132.2" class="st8" width="3.9" height="3.9"/>
			</g>
		</g>
		<rect x="75.6" y="116.9" class="st10" width="25.3" height="42.1"/>
		<rect x="90.6" y="137.6" class="st9" width="30.3" height="20.8"/>
		<rect x="107.2" y="135.3" class="st11" width="12" height="2.3"/>
		<rect x="78.4" y="114.8" class="st11" width="19.6" height="2.1"/>
		<circle class="st11" cx="100.3" cy="105.7" r="3.5"/>
		<g>
			<rect x="99.5" y="103.8" class="st10" width="1.4" height="4"/>
		</g>
		<g>
			<rect x="98.3" y="105" class="st10" width="4" height="1.4"/>
		</g>
		<g>
			<rect x="76.7" y="118.3" class="st8" width="6" height="1.8"/>
		</g>
		<g>
			<rect x="76.7" y="122.3" class="st8" width="6" height="1.8"/>
		</g>
		<g>
			<rect x="76.7" y="126.4" class="st8" width="6" height="1.8"/>
		</g>
		<g>
			<rect x="76.7" y="130.4" class="st8" width="6" height="1.8"/>
		</g>
		<g>
			<rect x="76.7" y="134.5" class="st8" width="6" height="1.8"/>
		</g>
		<g>
			<rect x="76.7" y="138.5" class="st8" width="6" height="1.8"/>
		</g>
		<g>
			<rect x="76.7" y="142.5" class="st8" width="6" height="1.8"/>
		</g>
		<g>
			<rect x="76.7" y="146.6" class="st8" width="6" height="1.8"/>
		</g>
		<g>
			<rect x="76.7" y="150.6" class="st8" width="6" height="1.8"/>
		</g>
		<g>
			<rect x="76.7" y="154.6" class="st8" width="6" height="1.8"/>
		</g>
		<g>
			<rect x="72.5" y="120.7" class="st11" width="3.1" height="1.8"/>
		</g>
		<g>
			<rect x="72.5" y="124.7" class="st11" width="3.1" height="1.8"/>
		</g>
		<g>
			<rect x="72.5" y="128.8" class="st11" width="3.1" height="1.8"/>
		</g>
		<g>
			<rect x="72.5" y="132.8" class="st11" width="3.1" height="1.8"/>
		</g>
		<g>
			<rect x="72.5" y="136.8" class="st11" width="3.1" height="1.8"/>
		</g>
		<g>
			<rect x="72.5" y="140.9" class="st11" width="3.1" height="1.8"/>
		</g>
		<g>
			<rect x="72.5" y="144.9" class="st11" width="3.1" height="1.8"/>
		</g>
		<g>
			<rect x="72.5" y="149" class="st11" width="3.1" height="1.8"/>
		</g>
		<g>
			<rect x="72.5" y="153" class="st11" width="3.1" height="1.8"/>
		</g>
		<g>
			<rect x="93.4" y="118.3" class="st8" width="6" height="1.8"/>
		</g>
		<g>
			<rect x="93.4" y="122.3" class="st8" width="6" height="1.8"/>
		</g>
		<g>
			<rect x="93.4" y="126.4" class="st8" width="6" height="1.8"/>
		</g>
		<g>
			<rect x="93.4" y="130.4" class="st8" width="6" height="1.8"/>
		</g>
		<g>
			<rect x="93.4" y="134.5" class="st8" width="6" height="1.8"/>
		</g>
		<g>
			<g>
				<rect x="84" y="117.9" class="st11" width="1.5" height="3.9"/>
			</g>
			<g>
				<rect x="86.3" y="117.9" class="st11" width="1.5" height="3.9"/>
			</g>
			<g>
				<rect x="88.6" y="117.9" class="st11" width="1.5" height="3.9"/>
			</g>
			<g>
				<rect x="90.9" y="117.9" class="st11" width="1.5" height="3.9"/>
			</g>
		</g>
		<g>
			<g>
				<rect x="84" y="123.1" class="st11" width="1.5" height="3.9"/>
			</g>
			<g>
				<rect x="86.3" y="123.1" class="st11" width="1.5" height="3.9"/>
			</g>
			<g>
				<rect x="88.6" y="123.1" class="st11" width="1.5" height="3.9"/>
			</g>
			<g>
				<rect x="90.9" y="123.1" class="st11" width="1.5" height="3.9"/>
			</g>
		</g>
		<g>
			<g>
				<rect x="84" y="128.2" class="st11" width="1.5" height="3.9"/>
			</g>
			<g>
				<rect x="86.3" y="128.2" class="st11" width="1.5" height="3.9"/>
			</g>
			<g>
				<rect x="88.6" y="128.2" class="st11" width="1.5" height="3.9"/>
			</g>
			<g>
				<rect x="90.9" y="128.2" class="st11" width="1.5" height="3.9"/>
			</g>
		</g>
		<g>
			<g>
				<rect x="84" y="133.4" class="st11" width="1.5" height="3.9"/>
			</g>
			<g>
				<rect x="86.3" y="133.4" class="st11" width="1.5" height="3.9"/>
			</g>
			<g>
				<rect x="88.6" y="133.4" class="st11" width="1.5" height="3.9"/>
			</g>
			<g>
				<rect x="90.9" y="133.4" class="st11" width="1.5" height="3.9"/>
			</g>
		</g>
		<g>
			<g>
				<rect x="84" y="138.5" class="st11" width="1.5" height="3.9"/>
			</g>
			<g>
				<rect x="86.3" y="138.5" class="st11" width="1.5" height="3.9"/>
			</g>
			<g>
				<rect x="88.6" y="138.5" class="st11" width="1.5" height="3.9"/>
			</g>
		</g>
		<g>
			<g>
				<rect x="84" y="143.6" class="st11" width="1.5" height="3.9"/>
			</g>
			<g>
				<rect x="86.3" y="143.6" class="st11" width="1.5" height="3.9"/>
			</g>
			<g>
				<rect x="88.6" y="143.6" class="st11" width="1.5" height="3.9"/>
			</g>
		</g>
		<g>
			<g>
				<rect x="84" y="148.8" class="st11" width="1.5" height="3.9"/>
			</g>
			<g>
				<rect x="86.3" y="148.8" class="st11" width="1.5" height="3.9"/>
			</g>
			<g>
				<rect x="88.6" y="148.8" class="st11" width="1.5" height="3.9"/>
			</g>
		</g>
		<g>
			<g>
				<rect x="84" y="153.9" class="st11" width="1.5" height="3.9"/>
			</g>
			<g>
				<rect x="86.3" y="153.9" class="st11" width="1.5" height="3.9"/>
			</g>
			<g>
				<rect x="88.6" y="153.9" class="st11" width="1.5" height="3.9"/>
			</g>
		</g>
		<path class="st10" d="M95.5,139.3h-0.4v0.5h0.3v0.3h-0.3v0.5h0.4v-0.5h0.7v1h-2v-0.5h0.2v-1.3h-0.2v-0.5h2v0.9h-0.7V139.3z"/>
		<path class="st10" d="M96.3,138.9h1.4l0.3,1l0.3-1h1.4v0.5h-0.2v1.3h0.2v0.5h-1.2v-0.5h0.2v-1.2l-0.6,1.7h-0.3l-0.7-1.7v1.2h0.2
			v0.5h-1v-0.5h0.2v-1.3h-0.2V138.9z"/>
		<path class="st10" d="M101.3,139.3h-0.4v0.5h0.3v0.3h-0.3v0.5h0.4v-0.5h0.7v1h-2v-0.5h0.2v-1.3h-0.2v-0.5h2v0.9h-0.7V139.3z"/>
		<path class="st10" d="M103.1,140.7h0.2v0.5h-1.2v-0.5h0.2v-1.3h-0.2v-0.5h1.4c0.1,0,0.2,0,0.3,0c0.1,0,0.2,0.1,0.2,0.1
			c0.1,0.1,0.1,0.1,0.2,0.2c0,0.1,0.1,0.2,0.1,0.3c0,0.1,0,0.2-0.1,0.3c-0.1,0.1-0.1,0.2-0.2,0.2l0,0c0.2,0,0.3,0.1,0.3,0.4v0.2h0.1
			v0.5h-0.9v-0.7c0-0.1,0-0.1,0-0.1c0,0,0-0.1-0.1-0.1c0,0-0.1,0-0.1,0c0,0-0.1,0-0.2,0V140.7z M103.3,139.8c0.1,0,0.1,0,0.1,0
			c0,0,0-0.1,0-0.1v-0.1c0-0.1,0-0.1,0-0.1c0,0-0.1,0-0.1,0h-0.2v0.5H103.3z"/>
		<path class="st10" d="M105.7,140h1.1v0.4h-0.1v0.6c0,0-0.1,0-0.2,0.1c-0.1,0-0.1,0-0.2,0.1c-0.1,0-0.2,0-0.3,0c-0.1,0-0.2,0-0.3,0
			c-0.2,0-0.3,0-0.5-0.1c-0.1,0-0.3-0.1-0.4-0.2c-0.1-0.1-0.2-0.2-0.2-0.4c-0.1-0.2-0.1-0.3-0.1-0.6c0-0.2,0-0.4,0.1-0.6
			c0.1-0.2,0.1-0.3,0.2-0.4c0.1-0.1,0.2-0.2,0.4-0.2c0.1,0,0.3-0.1,0.5-0.1c0.1,0,0.2,0,0.3,0c0.1,0,0.2,0,0.3,0
			c0.1,0,0.1,0,0.2,0.1c0.1,0,0.1,0,0.2,0.1v0.7h-0.7v-0.1c0-0.1,0-0.1-0.1-0.2c0,0-0.1-0.1-0.2-0.1c-0.1,0-0.1,0-0.2,0.1
			c0,0-0.1,0.1-0.1,0.2v0.9c0,0.1,0,0.1,0.1,0.2c0,0,0.1,0.1,0.2,0.1c0.1,0,0.1,0,0.2-0.1c0,0,0.1-0.1,0.1-0.2v0h-0.2V140z"/>
		<path class="st10" d="M108.2,139.3h-0.4v0.5h0.3v0.3h-0.3v0.5h0.4v-0.5h0.7v1h-2v-0.5h0.2v-1.3h-0.2v-0.5h2v0.9h-0.7V139.3z"/>
		<path class="st10" d="M110.7,138.9h1v0.5h-0.2v1.8h-0.8l-0.9-1.3v0.9h0.2v0.5h-1v-0.5h0.2v-1.3H109v-0.5h1.1l0.8,1.2v-0.7h-0.2
			V138.9z"/>
		<path class="st10" d="M113.1,140.2h0.7v0.8c0,0-0.1,0-0.1,0.1c-0.1,0-0.1,0-0.2,0.1c-0.1,0-0.2,0-0.3,0.1c-0.1,0-0.2,0-0.3,0
			c-0.2,0-0.3,0-0.5-0.1c-0.1,0-0.3-0.1-0.4-0.2c-0.1-0.1-0.2-0.2-0.2-0.4c-0.1-0.2-0.1-0.3-0.1-0.6c0-0.2,0-0.4,0.1-0.6
			c0.1-0.2,0.1-0.3,0.2-0.4c0.1-0.1,0.2-0.2,0.4-0.2c0.1,0,0.3-0.1,0.5-0.1c0.1,0,0.2,0,0.3,0c0.1,0,0.2,0,0.3,0.1
			c0.1,0,0.1,0,0.2,0.1c0.1,0,0.1,0.1,0.2,0.1v0.7h-0.7v-0.2c0-0.1,0-0.1-0.1-0.2c0,0-0.1-0.1-0.2-0.1c-0.1,0-0.1,0-0.2,0.1
			c0,0-0.1,0.1-0.1,0.2v0.9c0,0.1,0,0.1,0.1,0.2c0,0,0.1,0.1,0.2,0.1c0.1,0,0.1,0,0.2-0.1c0,0,0.1-0.1,0.1-0.2V140.2z"/>
		<path class="st10" d="M115.1,139.3H115l0.2,0.5h0l0.2-0.5h-0.1v-0.5h0.9v0.5h-0.1l-0.6,1v0.3h0.2v0.5h-1.2v-0.5h0.2v-0.3l-0.6-1
			H114v-0.5h1.1V139.3z"/>
		<rect x="103.8" y="152.7" class="st11" width="3.9" height="6.2"/>
		<rect x="69.3" y="158.4" class="st11" width="54.2" height="1.2"/>
		<g>
			<rect x="91.7" y="151.5" class="st10" width="3" height="5.4"/>
		</g>
		<g>
			<rect x="95.7" y="151.5" class="st10" width="3" height="5.4"/>
		</g>
		<g>
			<rect x="99.6" y="151.5" class="st10" width="3" height="5.4"/>
		</g>
		<g>
			<rect x="108.9" y="151.5" class="st10" width="3" height="5.4"/>
		</g>
		<g>
			<rect x="112.8" y="151.5" class="st10" width="3" height="5.4"/>
		</g>
		<g>
			<rect x="116.8" y="151.5" class="st10" width="3" height="5.4"/>
		</g>
		<g>
			<g>
				<rect x="91.7" y="142.5" class="st10" width="7.9" height="1.8"/>
			</g>
			<g>
				<rect x="101.8" y="142.5" class="st10" width="7.9" height="1.8"/>
			</g>
			<g>
				<rect x="111.8" y="142.5" class="st10" width="7.9" height="1.8"/>
			</g>
		</g>
		<g>
			<g>
				<rect x="91.7" y="145.5" class="st10" width="7.9" height="1.8"/>
			</g>
			<g>
				<rect x="101.8" y="145.5" class="st10" width="7.9" height="1.8"/>
			</g>
			<g>
				<rect x="111.8" y="145.5" class="st10" width="7.9" height="1.8"/>
			</g>
		</g>
		<g>
			<g>
				<rect x="91.7" y="148.4" class="st10" width="7.9" height="1.8"/>
			</g>
			<g>
				<rect x="101.8" y="148.4" class="st10" width="7.9" height="1.8"/>
			</g>
			<g>
				<rect x="111.8" y="148.4" class="st10" width="7.9" height="1.8"/>
			</g>
		</g>
	</g>
	<path class="st8" d="M171.6,29.4L171.6,29.4c-0.3-1.5-1.5-2.6-3-2.6c-0.1,0-0.1,0-0.2,0c0,0,0,0,0,0c0-1.6-1.3-2.8-2.8-2.8
		c-0.6,0-1.2,0.2-1.6,0.5c-0.8-1-2-1.6-3.4-1.6c-2.2,0-4.1,1.6-4.4,3.8c-0.2-0.1-0.5-0.1-0.8-0.1c-1.6,0-2.9,1.3-2.9,2.9v0.2
		c0,1.8,1.5,3.3,3.3,3.3h12.5c0.1,0,0.1,0,0.1,0c0,0,0.1,0,0.1,0c1.7,0,3-1.4,3-3c0,0,0-0.1,0-0.1c0,0,0-0.1,0-0.1V29.4z"/>
	<path class="st8" d="M615.8,96.4L615.8,96.4c-0.3-1.5-1.5-2.6-3-2.6c-0.1,0-0.1,0-0.2,0c0,0,0,0,0,0c0-1.6-1.3-2.8-2.8-2.8
		c-0.6,0-1.2,0.2-1.6,0.5c-0.8-1-2-1.6-3.4-1.6c-2.2,0-4.1,1.6-4.4,3.8c-0.2-0.1-0.5-0.1-0.8-0.1c-1.6,0-2.9,1.3-2.9,2.9v0.2
		c0,1.8,1.5,3.3,3.3,3.3h12.5c0.1,0,0.1,0,0.1,0c0,0,0.1,0,0.1,0c1.7,0,3-1.4,3-3c0,0,0-0.1,0-0.1c0,0,0-0.1,0-0.1V96.4z"/>
	<path class="st8" d="M650.9,22.4L650.9,22.4c-0.4-2.4-2.5-4.2-5-4.2c-0.1,0-0.2,0-0.3,0c0,0,0,0,0,0c0-2.5-2.1-4.6-4.6-4.6
		c-1,0-1.9,0.3-2.6,0.8c-1.3-1.6-3.3-2.7-5.6-2.7c-3.6,0-6.6,2.7-7.2,6.2c-0.4-0.1-0.8-0.2-1.2-0.2c-2.6,0-4.7,2.1-4.7,4.7v0.3
		c0,3,2.4,5.4,5.4,5.4h20.4c0.1,0,0.2,0,0.2,0c0.1,0,0.2,0,0.2,0c2.7,0,5-2.2,5-5c0-0.1,0-0.2,0-0.2c0-0.1,0-0.2,0-0.2V22.4z"/>
</g>
<g>
	<ellipse transform="matrix(1 -9.388983e-03 9.388983e-03 1 -0.3945 5.3433)" class="st12" cx="568.9" cy="44.7" rx="37" ry="37"/>
	<path class="st10" d="M550.6,58.6c-0.3,2,1.1,4,3.2,4.3c2,0.3,4-1.1,4.3-3.2c0.3-2-1.1-4-3.2-4.3l0,0v-5.1c0-0.3,0-0.6,0-1
		c0.3-2.8,2.7-4.8,5.5-4.6c2.8,0.3,4.8,2.7,4.6,5.5v4.5c0,0.3,0,0.6,0,0.9c0.3,3.9,3.6,6.8,7.5,6.5c3.9-0.3,6.8-3.6,6.5-7.5V44.3
		c4.8-0.6,8.3-4.7,8.3-9.5v-8.7c0-0.5-0.4-1-1-1H583c-0.5,0-1,0.4-1,1c0,0.5,0.4,1,1,1h2.3v7.7c0,4.2-3.4,7.6-7.6,7.6
		c-4.2,0-7.6-3.4-7.6-7.6v-7.7h2.1c0,0,0,0,0,0c0.5,0,1-0.4,1-1c0-0.5-0.4-1-1-1h-3.1c-0.5,0-1,0.4-1,1v8.7c0,5,3.9,9.1,8.8,9.5
		v10.4c0,0.3,0,0.6,0,1c-0.3,2.8-2.7,4.8-5.5,4.6s-4.8-2.7-4.6-5.5v-4.5c0-0.3,0-0.6,0-0.9c-0.3-3.9-3.6-6.8-7.5-6.5
		c-3.9,0.3-6.8,3.6-6.5,7.5v5.1c0,0.1,0,0.1,0,0.2C551.7,56.1,550.8,57.2,550.6,58.6z M552.4,59.1L552.4,59.1c0-1,0.8-1.7,1.7-1.7
		s1.7,0.8,1.7,1.7c0,1-0.8,1.7-1.7,1.7C553.2,60.9,552.4,60.1,552.4,59.1z"/>
</g>
<g>
	<path class="st13" d="M672.6,132.5l0,44.8c0,1.8-0.7,3.5-1.9,4.8c-1.2,1.3-2.9,2-4.6,2l-61.9,0c-1.8,0-3.4-0.7-4.7-2
		c-1.3-1.3-2-3-2-4.8l0-44.8c0-1.7,0.7-3.3,2-4.5c0.7-0.7,1.6-1.2,2.5-1.5c0.7-0.2,1.4-0.3,2.2-0.3h6.3v3.7c0,3,2.4,5.5,5.4,5.5
		c1.5,0,2.8-0.6,3.9-1.6c1-1,1.6-2.4,1.6-3.9v-3.7l27.4,0v3.7c0,3,2.4,5.5,5.4,5.5c0.6,0,1.1-0.1,1.6-0.2c2.2-0.7,3.8-2.8,3.8-5.3
		v-3.7h6.5C669.9,126.2,672.6,128.9,672.6,132.5z"/>
	<g id="XMLID_2_">
		<g>
			<polygon class="st10" points="667.8,145.7 667.8,178.5 602.7,178.5 602.7,145.7 			"/>
		</g>
	</g>
	<g>
		<path class="st14" d="M657.6,124v6c0,1.3-0.9,2.5-2.1,2.9c-0.3,0.1-0.6,0.1-0.9,0.1H654c-0.8,0-1.6-0.3-2.1-0.9
			c-0.6-0.6-0.9-1.3-0.9-2.1v-6c0-1.7,1.3-3,3-3h0.6C656.3,121,657.6,122.3,657.6,124z M656.7,130v-6c0-1.2-1-2.1-2.1-2.1H654
			c-1.2,0-2.1,0.9-2.1,2.1v6c0,0.6,0.2,1.1,0.6,1.5c0.4,0.4,0.9,0.6,1.5,0.6h0.6C655.8,132.1,656.7,131.2,656.7,130z"/>
		<path class="st14" d="M619.3,124v6c0,1.3-0.9,2.5-2.1,2.9c-0.3,0.1-0.6,0.1-0.9,0.1h-0.6c-1.7,0-3-1.3-3-3v-6
			c0-0.8,0.3-1.6,0.9-2.1c0.6-0.6,1.3-0.9,2.1-0.9h0.6C618,121,619.3,122.4,619.3,124z M618.5,130v-6c0-0.6-0.2-1.1-0.6-1.5
			c-0.4-0.4-0.9-0.6-1.5-0.6h-0.6c-0.2,0-0.4,0-0.6,0.1c-0.3,0.1-0.6,0.3-0.9,0.5c-0.4,0.4-0.6,0.9-0.6,1.5v6c0,1.2,1,2.1,2.1,2.1
			h0.6C617.5,132.1,618.5,131.2,618.5,130z"/>
		<g>
			<path class="st14" d="M663.3,164v10.4l-10.4,0V164H663.3z M662.4,173.5v-8.6h-8.6v8.6H662.4z"/>
			<path class="st14" d="M648,164l0,10.4h-10.4V164L648,164z M647.2,173.5v-8.6l-8.6,0v8.6H647.2z"/>
			<path class="st14" d="M632.8,164v10.4h-10.4V164H632.8z M631.9,173.5v-8.6h-8.6v8.6H631.9z"/>
			<path class="st14" d="M617.6,164v10.4l-10.4,0V164H617.6z M616.7,173.5v-8.6h-8.6v8.6H616.7z"/>
			<path class="st14" d="M663.3,150.3v10.4l-10.4,0v-10.4H663.3z M662.4,159.9v-8.6h-8.6v8.6H662.4z"/>
			<path class="st14" d="M648,150.3l0,10.4h-10.4v-10.4L648,150.3z M647.2,159.9v-8.6l-8.6,0v8.6H647.2z"/>
			<path class="st14" d="M632.8,150.4v10.4h-10.4v-10.4H632.8z M631.9,159.9v-8.6h-8.6v8.6H631.9z"/>
			<path class="st14" d="M617.6,150.4v10.4l-10.4,0v-10.4H617.6z M616.7,159.9v-8.6h-8.6v8.6H616.7z"/>
		</g>
	</g>
</g>
<g>
	<circle class="st12" cx="287.3" cy="79.2" r="28.2"/>
	<path class="st10" d="M279.7,65.2c-5.8,0-10.4,4.7-10.4,10.4c0,1.5,0.3,3,0.7,4.5c0.2,0.7,0.5,1.4,0.8,2
		c4.4,9.1,16.5,14.9,16.5,14.9V68.5C285.3,66.4,282.6,65.2,279.7,65.2z"/>
	<path class="st10" d="M294.9,65.2c-2.9,0-5.6,1.2-7.6,3.3V97c0,0,12.1-5.9,16.5-14.9c0,0,0.6-1.2,0.8-2c0.5-1.4,0.7-2.9,0.7-4.5
		C305.4,69.9,300.7,65.2,294.9,65.2C294.9,65.2,294.9,65.2,294.9,65.2z"/>
	<path class="st10" d="M294.9,65.2c-2.9,0-5.6,1.2-7.6,3.3V97c0,0,12.1-5.9,16.5-14.9c0,0,0.6-1.2,0.8-2c0.5-1.4,0.7-2.9,0.7-4.5
		C305.4,69.9,300.7,65.2,294.9,65.2C294.9,65.2,294.9,65.2,294.9,65.2z"/>
	<polyline class="st15" points="273.2,81.5 282.3,81.5 284.4,76.4 287.3,87 290.3,78.7 291.6,81.4 302.6,81.4 	"/>
	<path class="st16" d="M315.5,79.2c0-15.6-12.6-28.2-28.2-28.2v56.4C302.9,107.4,315.5,94.8,315.5,79.2z"/>
</g>
<circle class="st10" cx="501.9" cy="78.9" r="3.6"/>
<rect x="507.5" y="77.7" class="st10" width="16" height="2.4"/>
<path class="st17" d="M501.9,78.6c0.6-0.1,1.1-0.6,1.1-1.3c0-1-0.5-1.3-1.1-1.3c-0.6,0-1.1,0.3-1.1,1.3
	C500.8,78,501.3,78.6,501.9,78.6z"/>
<path class="st17" d="M504.3,80.5l-0.5-1.2c0-0.1-0.1-0.1-0.1-0.1l-0.8-0.4c0,0,0,0-0.1,0c-0.5,0.4-1.1,0.4-1.6,0c0,0,0,0-0.1,0
	l-0.8,0.4c-0.1,0-0.1,0.1-0.1,0.1l-0.6,1.2c-0.1,0.1,0,0.3,0.1,0.4c0,0,0.1,0,0.1,0c1.2,1.1,3,1.1,4.3,0c0.1,0,0.3-0.1,0.3-0.3
	C504.3,80.5,504.3,80.5,504.3,80.5z"/>
<rect x="433.3" y="100.2" class="st10" width="25.3" height="8.8"/>
<rect x="464.5" y="100" class="st10" width="25.3" height="8.8"/>
<rect x="495.8" y="99.9" class="st10" width="25.3" height="8.8"/>
<polygon class="st9" points="401.1,219.5 393.8,256.7 460.3,256.7 453,219.5 "/>
<polygon class="st18" points="455.6,232.4 453,219.5 401.1,219.5 398.6,232.4 "/>
<path class="st9" d="M315.8,58.3h223.3c3.8,0,6.8,3.1,6.8,6.8v156.1c0,3.8-3.1,6.8-6.8,6.8H315.8c-3.8,0-6.8-3.1-6.8-6.8V65.1
	C309,61.3,312.1,58.3,315.8,58.3z"/>
<path class="st19" d="M538.6,46.9h-223c-3.6,0-6.5,3-6.5,6.6c0,0.1,0,0.2,0,0.2v144.3h237V53.8C546,50,542.4,46.9,538.6,46.9z"/>
<path class="st9" d="M387.8,253.8h79c2.8,0,5.1,2.3,5.1,5.1v0.7l0,0h-88.6l0,0v-1.2C383.2,255.9,385.2,253.8,387.8,253.8
	C387.8,253.8,387.8,253.8,387.8,253.8z"/>
<rect x="323.5" y="65.8" class="st13" width="205.3" height="118.5"/>
<polyline class="st10" points="424.6,65.8 528.9,65.8 528.9,184.3 424.6,184.3 "/>
<rect x="424.6" y="66" class="st20" width="104.3" height="50"/>
<rect x="436.2" y="157.1" class="st21" width="19.7" height="19"/>
<rect x="467.3" y="157.1" class="st22" width="19.7" height="19"/>
<rect x="497.4" y="157.1" class="st23" width="19.7" height="19"/>
<rect x="346.2" y="162.6" class="st10" width="7.3" height="1.8"/>
<rect x="379.8" y="162.6" class="st20" width="7.3" height="1.8"/>
<rect x="346.2" y="157.9" class="st10" width="30.3" height="1.8"/>
<rect x="339" y="172.1" class="st23" width="3.8" height="1.8"/>
<rect x="339" y="77.8" class="st23" width="4.5" height="1.8"/>
<rect x="339" y="87.2" class="st20" width="5.2" height="1.8"/>
<rect x="346.2" y="87.2" class="st10" width="14.4" height="1.8"/>
<rect x="342.9" y="91.9" class="st10" width="7.8" height="1.8"/>
<rect x="374.2" y="91.9" class="st10" width="7.8" height="1.8"/>
<rect x="383.7" y="91.9" class="st24" width="7.8" height="1.8"/>
<rect x="353.5" y="91.9" class="st10" width="18" height="1.8"/>
<rect x="346.2" y="96.7" class="st24" width="10.4" height="1.8"/>
<rect x="359.6" y="96.7" class="st10" width="22.4" height="1.8"/>
<rect x="350.8" y="106.1" class="st20" width="6.5" height="1.8"/>
<rect x="350.8" y="110.8" class="st23" width="6.5" height="1.8"/>
<rect x="360.2" y="106.1" class="st10" width="20" height="1.8"/>
<rect x="360.2" y="110.8" class="st10" width="27.8" height="1.8"/>
<rect x="355.5" y="115.5" class="st24" width="6.6" height="1.8"/>
<rect x="360.2" y="120.2" class="st10" width="44.4" height="1.8"/>
<rect x="360.2" y="124.9" class="st10" width="14.7" height="1.8"/>
<rect x="377.5" y="124.9" class="st24" width="6.5" height="1.8"/>
<rect x="386.3" y="124.9" class="st23" width="6.5" height="1.8"/>
<rect x="343.6" y="129.6" class="st23" width="4.5" height="1.8"/>
<rect x="345.6" y="134.4" class="st24" width="11.2" height="1.8"/>
<rect x="406.9" y="134.4" class="st24" width="7.9" height="1.8"/>
<rect x="359.4" y="134.4" class="st10" width="44.1" height="1.8"/>
<rect x="352.2" y="139.1" class="st10" width="37.4" height="1.8"/>
<rect x="352.2" y="143.8" class="st10" width="45.2" height="1.8"/>
<rect x="349.5" y="148.5" class="st24" width="5.3" height="1.8"/>
<rect x="343.6" y="153.2" class="st24" width="7.9" height="1.8"/>
<rect x="356.3" y="162.6" class="st10" width="20.2" height="1.8"/>
<rect x="331.2" y="78.4" class="st10" width="1.8" height="94.8"/>
<g>
	<g>
		<rect x="435.5" y="126.4" class="st18" width="85.5" height="1.7"/>
		<rect x="435.5" y="133.4" class="st18" width="85.5" height="1.7"/>
		<rect x="435.5" y="140.4" class="st18" width="85.5" height="1.7"/>
		<rect x="435.5" y="147.5" class="st18" width="64.6" height="1.7"/>
	</g>
</g>
<path class="st23" d="M405.5,17.1h-24c-2.2,0-4,1.8-4,4v15.5c0,2.2,1.8,4,4,4h5.1l6.9,9.6l6.9-9.6h5.1c2.2,0,4-1.8,4-4V21.1
	C409.5,18.9,407.7,17.1,405.5,17.1C405.5,17.1,405.5,17.1,405.5,17.1z"/>
<g>
	<path class="st10" d="M389.2,35.5l-6.5-4.3v-1.7l6.5-4.9v2.9l-4,2.7l4,2.4V35.5z"/>
	<path class="st10" d="M396.3,22.9l-3.5,14.5h-2.2l3.5-14.5H396.3z"/>
	<path class="st10" d="M397.7,32.6l4-2.4l-4-2.7v-2.9l6.5,4.9v1.7l-6.5,4.3V32.6z"/>
</g>
<g>
	<g>
		<rect x="342.5" y="226.8" class="st23" width="2.3" height="2.3"/>
		<rect x="347.4" y="226.8" class="st23" width="2.3" height="2.3"/>
		<rect x="352.2" y="226.8" class="st23" width="2.3" height="2.3"/>
	</g>
	<path class="st23" d="M362.3,228.9v-2c-0.6,0.1-1.2-0.1-1.7-0.4c-0.2-0.2-0.4-0.5-0.3-0.9c0-1.6,0-3.4,0-5.2s0-3.3,0-4.8
		c0-0.5-0.2-1-0.6-1.4c-0.8-0.5-1.8-0.7-2.8-0.4l0.3,1.3c0.6-0.1,1.2-0.1,1.7,0.2c0.1,0.1,0.2,0.2,0.2,0.4c0,1.4,0,3.1,0,4.8
		s0,3.6,0,5.2c0,0.7,0.3,1.4,0.8,1.8c0.3,0.2,0.6,0.4,0.9,0.5c-0.3,0.1-0.6,0.3-0.9,0.5c-0.4,0.4-0.6,0.9-0.6,1.4c0,1.4,0,3.1,0,4.8
		s0,3.6,0,5.2c0,0.5-0.2,0.7-0.3,0.7c-0.5,0.2-1.1,0.3-1.7,0.1l-0.3,1.2c0.4,0.1,0.8,0.1,1.2,0.1c0.6,0,1.2-0.1,1.6-0.5
		c0.5-0.4,0.8-1.1,0.8-1.8c0-1.6,0-3.4,0-5.2s0-3.3,0-4.8c0-0.2,0.1-0.4,0.2-0.5C361.2,229.1,361.7,228.9,362.3,228.9z"/>
	<path class="st23" d="M334.8,228.9v-2c0.6,0.1,1.2-0.1,1.7-0.4c0.2-0.2,0.4-0.5,0.3-0.9c0-1.6,0-3.4,0-5.2s0-3.3,0-4.8
		c0-0.5,0.2-1,0.6-1.4c0.8-0.5,1.8-0.7,2.8-0.4l-0.2,1.3c-0.6-0.1-1.2-0.1-1.7,0.2c-0.1,0.1-0.2,0.2-0.1,0.4c0,1.4,0,3.1,0,4.8
		s0,3.6,0,5.2c0,0.7-0.3,1.4-0.8,1.8c-0.3,0.2-0.6,0.4-0.9,0.5c0.3,0.1,0.6,0.3,0.9,0.5c0.4,0.4,0.6,0.9,0.6,1.4c0,1.4,0,3.1,0,4.8
		s0,3.6,0,5.2c0,0.5,0.2,0.7,0.3,0.7c0.5,0.2,1.1,0.3,1.7,0.1l0.3,1.2c-0.4,0.1-0.8,0.2-1.2,0.1c-0.6,0-1.2-0.1-1.6-0.5
		c-0.5-0.4-0.8-1.1-0.8-1.8c0-1.6,0-3.4,0-5.2s0-3.3,0-4.8c0-0.2-0.1-0.4-0.2-0.5C335.9,229.1,335.3,228.9,334.8,228.9z"/>
</g>
<g>
	<circle class="st10" cx="476.7" cy="91" r="18"/>
	<g>
		<circle class="st20" cx="476.7" cy="91" r="15.3"/>
		<path class="st10" d="M487.3,94.5l0-7.2l-6.9,0l0-6.9l-7.2,0l0,6.9l-6.9,0l0,7.2l6.9,0l0,6.9l7.2,0l0-6.9L487.3,94.5z M480.1,91.5
			c-0.9,1.9-3.4,3.1-3.4,3.1l0,0c0,0-2.5-1.2-3.4-3c-0.1-0.1-0.1-0.3-0.2-0.4c-0.1-0.3-0.2-0.6-0.2-0.9c0-1.2,0.9-2.1,2.1-2.1
			c0.6,0,1.2,0.2,1.6,0.7v0c0.4-0.4,1-0.7,1.6-0.7c0,0,0,0,0,0c1.2,0,2.1,1,2.1,2.2c0,0.3-0.1,0.6-0.2,0.9
			C480.2,91.3,480.1,91.5,480.1,91.5z"/>
	</g>
</g>
<g>
	<path class="st25" d="M538.8,150.4h74.6c2.5,0,4.5,2,4.5,4.6v112.4c0,2.5-2,4.5-4.5,4.5h-74.6c-2.5,0-4.5-2-4.5-4.5V155
		C534.3,152.5,536.3,150.4,538.8,150.4z"/>
	<path class="st26" d="M571.5,262.3h9.2c1.1,0,2,0.9,2,2v0.5c0,1.1-0.9,2-2,2h-9.2c-1.1,0-2-0.9-2-2v-0.5
		C569.5,263.2,570.4,262.3,571.5,262.3z"/>
	<path class="st26" d="M576.1,158.5c-1.2-0.1-2-1.1-1.9-2.2c0.1-1,0.9-1.9,1.9-1.9c1.2-0.1,2.1,0.8,2.2,1.9c0.1,1.2-0.8,2.1-1.9,2.2
		C576.3,158.5,576.2,158.5,576.1,158.5z"/>
	<rect x="539" y="162.3" class="st10" width="74.2" height="94.9"/>
	<rect x="542" y="193.5" class="st13" width="14.8" height="14.8"/>
	<rect x="559.7" y="193.5" class="st20" width="14.8" height="14.8"/>
	<rect x="577.5" y="193.5" class="st21" width="14.8" height="14.8"/>
	<rect x="595.3" y="193.5" class="st18" width="14.8" height="14.8"/>
	<rect x="542" y="211.2" class="st21" width="14.8" height="14.8"/>
	<rect x="559.7" y="211.2" class="st18" width="14.8" height="14.8"/>
	<rect x="577.5" y="211.2" class="st23" width="14.8" height="14.8"/>
	<rect x="595.3" y="211.2" class="st22" width="14.8" height="14.8"/>
	<rect x="542" y="239.3" class="st13" width="14.8" height="14.8"/>
	<rect x="559.7" y="239.3" class="st22" width="14.8" height="14.8"/>
	<rect x="539" y="162.3" class="st20" width="74.2" height="28.1"/>
	<g>
		<circle class="st10" cx="576.1" cy="176.4" r="11"/>
		<g>
			<circle class="st20" cx="576.1" cy="176.4" r="9"/>
			<path class="st10" d="M582.3,178.4l0-4.2l-4.1,0l0-4.1l-4.2,0l0,4.1l-4.1,0l0,4.2l4.1,0l0,4.1l4.2,0l0-4.1L582.3,178.4z
				 M578.1,176.7c-0.5,1.1-2,1.8-2,1.8l0,0c0,0-1.5-0.7-2-1.8c0-0.1-0.1-0.2-0.1-0.2c-0.1-0.2-0.1-0.4-0.1-0.5
				c0-0.7,0.6-1.3,1.2-1.3c0.3,0,0.7,0.1,0.9,0.4v0c0.2-0.3,0.6-0.4,0.9-0.4c0,0,0,0,0,0c0.7,0,1.2,0.6,1.2,1.3c0,0.2,0,0.4-0.1,0.5
				C578.2,176.5,578.1,176.7,578.1,176.7z"/>
		</g>
	</g>
</g>
<g>
	<path class="st25" d="M487.1,271.9c-3.5,0-6.3-2.8-6.3-6.3v-78.2c0-3.5,2.8-6.3,6.3-6.3h36.8c3.5,0,6.3,2.8,6.3,6.3v78.2
		c0,3.5-2.8,6.3-6.3,6.3H487.1z"/>
	<path class="st26" d="M511,265.4c0,0.8-0.7,1.5-1.5,1.5h-8c-0.8,0-1.5-0.7-1.5-1.5v-0.6c0-0.8,0.7-1.5,1.5-1.5h8
		c0.8,0,1.5,0.7,1.5,1.5l0,0L511,265.4z"/>
	<path class="st26" d="M507.3,188c0,1-0.8,1.8-1.8,1.8c-1,0-1.8-0.8-1.8-1.8c0-1,0.8-1.8,1.8-1.8C506.5,186.1,507.3,187,507.3,188
		L507.3,188z"/>
	<rect x="484.4" y="194.8" class="st10" width="42.3" height="63.4"/>
	<rect x="484.4" y="194.8" class="st20" width="42.2" height="19.6"/>
	<rect x="488.2" y="218.4" class="st22" width="34.7" height="14.5"/>
	<rect x="488.2" y="236.5" class="st21" width="33.6" height="7"/>
	<g>
		
			<ellipse transform="matrix(9.853919e-03 -1 1 9.853919e-03 295.7189 707.8674)" class="st10" cx="505.3" cy="204.6" rx="7" ry="7"/>
		<g>
			<circle class="st20" cx="505.3" cy="204.6" r="5"/>
			<path class="st10" d="M508.7,205.8l0-2.3l-2.3,0l0-2.3l-2.3,0l0,2.3l-2.3,0l0,2.3l2.3,0l0,2.3l2.3,0l0-2.3L508.7,205.8z
				 M506.4,204.8c-0.3,0.6-1.1,1-1.1,1l0,0c0,0-0.8-0.4-1.1-1c0,0,0-0.1-0.1-0.1c0-0.1,0-0.2-0.1-0.3c0-0.4,0.3-0.7,0.7-0.7
				c0.2,0,0.4,0.1,0.5,0.2v0c0.1-0.1,0.3-0.2,0.5-0.2c0,0,0,0,0,0c0.4,0,0.7,0.3,0.7,0.7c0,0.1,0,0.2,0,0.3
				C506.4,204.7,506.4,204.8,506.4,204.8z"/>
		</g>
	</g>
	<g>
		<rect x="488.2" y="248.7" class="st18" width="33.6" height="1.5"/>
		<rect x="488.2" y="252.3" class="st18" width="16.8" height="1.5"/>
	</g>
</g>
<path class="st27" d="M751,257h24v24h-24V257z"/>
<g>
	<path class="st13" d="M238.8,210h-59.6c-1.5,0-2.7-1.2-2.7-2.7V125c0-1.5,1.2-2.7,2.7-2.7h59.6c1.5,0,2.7,1.2,2.7,2.7v82.2
		C241.5,208.8,240.3,210,238.8,210z"/>
	<rect x="182.4" y="127.6" class="st10" width="53.1" height="77.2"/>
	<g>
		<g>
			<rect x="187.5" y="134.7" class="st13" width="4.2" height="4.1"/>
			<rect x="194.5" y="135.6" class="st13" width="35.9" height="2.1"/>
		</g>
		<g>
			<rect x="187.5" y="144.5" class="st13" width="4.2" height="4.1"/>
			<rect x="194.5" y="145.4" class="st13" width="35.9" height="2.1"/>
		</g>
		<g>
			<rect x="187.5" y="154.3" class="st13" width="4.2" height="4.1"/>
			<rect x="194.5" y="155.3" class="st13" width="35.9" height="2.1"/>
		</g>
		<g>
			<rect x="187.5" y="164.1" class="st13" width="4.2" height="4.1"/>
			<rect x="194.5" y="165.1" class="st13" width="35.9" height="2.1"/>
		</g>
		<g>
			<rect x="187.5" y="173.9" class="st13" width="4.2" height="4.1"/>
			<rect x="194.5" y="174.9" class="st13" width="35.9" height="2.1"/>
		</g>
		<g>
			<rect x="187.5" y="183.8" class="st13" width="4.2" height="4.1"/>
			<rect x="194.5" y="184.7" class="st13" width="35.9" height="2.1"/>
		</g>
		<g>
			<rect x="187.5" y="193.6" class="st13" width="4.2" height="4.1"/>
			<rect x="194.5" y="194.6" class="st13" width="35.9" height="2.1"/>
		</g>
	</g>
	<path class="st13" d="M222,129.4h-26c-0.3,0-0.6-0.3-0.6-0.6V120c0-0.3,0.3-0.6,0.6-0.6h26c0.3,0,0.6,0.3,0.6,0.6v8.8
		C222.6,129.1,222.3,129.4,222,129.4z"/>
	<path class="st13" d="M209,125c-3,0-5.5-2.5-5.5-5.5c0-3,2.5-5.5,5.5-5.5s5.5,2.5,5.5,5.5C214.5,122.6,212,125,209,125z M209,116.5
		c-1.7,0-3.1,1.4-3.1,3.1c0,1.7,1.4,3.1,3.1,3.1c1.7,0,3.1-1.4,3.1-3.1C212.1,117.8,210.7,116.5,209,116.5z"/>
</g>
<g>
	<path class="st28" d="M246.3,191.1v-4.9c0-2-1.7-3.7-3.7-3.7c-2,0-3.7,1.7-3.7,3.7h1.4c0.1-1.3,1.2-2.3,2.5-2.2
		c1.2,0.1,2.1,1,2.2,2.2v4.9c-1,0.4-1.5,1.5-1.1,2.5c0.4,1,1.5,1.5,2.5,1.1c1-0.4,1.5-1.5,1.1-2.5
		C247.3,191.7,246.9,191.3,246.3,191.1L246.3,191.1z"/>
	<path class="st28" d="M236.2,191.1v-4.9c0-2-1.7-3.7-3.7-3.7c-2,0-3.7,1.7-3.7,3.7h1.4c0.1-1.3,1.2-2.3,2.5-2.2
		c1.2,0.1,2.1,1,2.2,2.2v4.9c-1,0.4-1.5,1.5-1.1,2.5c0.4,1,1.5,1.5,2.5,1.1c1-0.4,1.5-1.5,1.1-2.5
		C237.1,191.7,236.7,191.3,236.2,191.1L236.2,191.1z"/>
	<path class="st29" d="M297.3,269.2v-4.6c0-1.2,1-2.1,2.1-2.1h14.4v8.9h-14.4C298.3,271.4,297.3,270.4,297.3,269.2
		C297.3,269.2,297.3,269.2,297.3,269.2z"/>
	<rect x="308.3" y="262.5" class="st10" width="9.1" height="8.9"/>
	<rect x="227.1" y="156" class="st13" width="102.8" height="114"/>
	<rect x="227.1" y="266.2" class="st25" width="102.8" height="5.7"/>
	<rect x="227.1" y="156" class="st25" width="102.8" height="8.6"/>
	<rect x="250.4" y="251.8" class="st10" width="6.9" height="1.4"/>
	<rect x="282.2" y="251.8" class="st30" width="6.9" height="1.4"/>
	<rect x="250.4" y="247.4" class="st10" width="28.7" height="1.4"/>
	<rect x="243.6" y="260.4" class="st23" width="3.6" height="1.4"/>
	<rect x="243.6" y="173.6" class="st23" width="4.3" height="1.4"/>
	<rect x="243.6" y="182.3" class="st20" width="4.9" height="1.4"/>
	<rect x="250.4" y="182.3" class="st10" width="13.6" height="1.4"/>
	<rect x="247.3" y="186.6" class="st10" width="7.4" height="1.4"/>
	<rect x="277" y="186.6" class="st10" width="7.4" height="1.4"/>
	<rect x="285.9" y="186.6" class="st31" width="7.4" height="1.4"/>
	<rect x="257.3" y="186.6" class="st10" width="17" height="1.4"/>
	<rect x="250.4" y="191" class="st31" width="9.9" height="1.4"/>
	<rect x="263.1" y="191" class="st10" width="21.2" height="1.4"/>
	<rect x="254.8" y="199.6" class="st20" width="6.1" height="1.4"/>
	<rect x="254.8" y="204" class="st23" width="6.1" height="1.4"/>
	<rect x="263.7" y="199.6" class="st10" width="18.9" height="1.4"/>
	<rect x="263.7" y="204" class="st10" width="26.3" height="1.4"/>
	<rect x="259.2" y="208.3" class="st31" width="6.3" height="1.4"/>
	<rect x="263.7" y="212.7" class="st10" width="42" height="1.4"/>
	<rect x="263.7" y="217" class="st10" width="13.9" height="1.4"/>
	<rect x="280.1" y="217" class="st31" width="6.2" height="1.4"/>
	<rect x="288.5" y="217" class="st10" width="6.2" height="1.4"/>
	<rect x="247.9" y="221.4" class="st23" width="4.3" height="1.4"/>
	<rect x="249.8" y="225.7" class="st31" width="10.6" height="1.4"/>
	<rect x="307.9" y="225.7" class="st31" width="7.5" height="1.4"/>
	<rect x="262.9" y="225.7" class="st10" width="41.8" height="1.4"/>
	<rect x="256.1" y="230" class="st10" width="35.5" height="1.4"/>
	<rect x="256.1" y="234.4" class="st10" width="42.9" height="1.4"/>
	<rect x="253.6" y="238.7" class="st31" width="5" height="1.4"/>
	<rect x="247.9" y="243.1" class="st31" width="7.5" height="1.4"/>
	<rect x="260" y="251.8" class="st10" width="19.1" height="1.4"/>
	<circle class="st32" cx="232.7" cy="160.3" r="1.6"/>
	<circle class="st30" cx="238.3" cy="160.3" r="1.6"/>
	<circle class="st33" cx="243.9" cy="160.3" r="1.6"/>
</g>
<path class="st23" d="M200.5,236.3v24c0,2.2,1.8,4,4,4H220c2.2,0,4-1.8,4-4v-5.1l9.6-6.9l-9.6-6.9v-5.1c0-2.2-1.8-4-4-4h-15.5
	C202.3,232.3,200.5,234.1,200.5,236.3C200.5,236.3,200.5,236.3,200.5,236.3z"/>
<path class="st10" d="M214.9,240h-3.2v1.7c-0.7,0.2-1.4,0.4-2,0.8l-1.2-1.2l-2.3,2.3l1.2,1.2c-0.4,0.6-0.7,1.3-0.8,2H205v3.2h1.7
	c0.2,0.7,0.4,1.4,0.8,2l-1.2,1.2l2.3,2.3l1.2-1.2c0.6,0.4,1.3,0.7,2,0.8v1.7h3.2V255c0.7-0.2,1.4-0.4,2-0.8l1.2,1.2l2.3-2.3
	l-1.2-1.2c0.4-0.6,0.7-1.3,0.8-2h1.7v-3.2H220c-0.2-0.7-0.4-1.4-0.8-2l1.2-1.2l-2.3-2.3l-1.2,1.2c-0.6-0.4-1.3-0.7-2-0.8V240z
	 M216.2,248.3c0,1.7-1.3,3-3,3c-1.7,0-3-1.3-3-3s1.3-3,3-3l0,0C214.9,245.3,216.2,246.6,216.2,248.3z"/>
<path class="st16" d="M605.9,44.7c0-20.4-16.6-37-37-37v74C589.3,81.7,605.9,65.1,605.9,44.7z"/>
<g>
	<path class="st20" d="M646.6,246h-9.3c1.3,0,2.4,1.9,2.4,4.1c0,2.3-1.1,4.1-2.4,4.1h9.3c2.3,0,4.1-1.9,4.1-4.1
		C650.7,247.9,648.8,246,646.6,246z"/>
	<path class="st22" d="M639.6,250.2c0-2.3-1.1-4.1-2.4-4.1h-6.5c-2.3,0-4.1,1.9-4.1,4.1c0,2.3,1.9,4.1,4.1,4.1h6.5
		C638.5,254.3,639.6,252.5,639.6,250.2z"/>
	<path class="st9" d="M649.4,254v-9.4c0,1.3-1.9,2.4-4.1,2.4c-2.3,0-4.1-1.1-4.1-2.4v9.3c0,2.3,1.8,4.1,4.1,4.2
		C647.5,258.1,649.4,256.3,649.4,254z"/>
	<path class="st22" d="M645.3,247.1c2.3,0,4.1-1.1,4.1-2.4v-6.5c0-2.3-1.9-4.1-4.1-4.1c-2.3,0-4.1,1.9-4.1,4.1v6.5
		C641.1,246,643,247.1,645.3,247.1z"/>
	<path class="st34" d="M654.3,249.1l-6.7,3.4c0.9-0.5,2.4,0.4,3.3,2.1c0.9,1.6,0.8,3.3-0.2,3.8l6.7-3.4c1.6-0.9,2.3-2.9,1.4-4.5
		S655.9,248.2,654.3,249.1z"/>
	<path class="st22" d="M650.9,254.6c-0.8-1.6-2.3-2.6-3.3-2.1l-4.7,2.4c-1.6,0.8-2.3,2.8-1.4,4.5c0.8,1.6,2.8,2.3,4.5,1.4l4.7-2.4
		C651.6,257.9,651.7,256.2,650.9,254.6z"/>
</g>
</svg>
