<?xml version="1.0" encoding="UTF-8"?>
<svg width="427px" height="319px" viewBox="0 0 427 319" version="1.1" xmlns="http://www.w3.org/2000/svg" xmlns:xlink="http://www.w3.org/1999/xlink">
    <!-- Generator: Sketch 46.2 (44496) - http://www.bohemiancoding.com/sketch -->
    <title>Page 1</title>
    <desc>Created with Sketch.</desc>
    <defs>
        <polygon id="path-1" points="415.097 0.425264834 415.097 318.999879 0.952996815 318.999879 0.952996815 0.425264834 415.097 0.425264834"></polygon>
        <polygon id="path-3" points="0 319.575 426.097 319.575 426.097 1 0 1"></polygon>
    </defs>
    <g id="icon-asset" stroke="none" stroke-width="1" fill="none" fill-rule="evenodd">
        <g id="Page-1" transform="translate(0.000000, -1.000000)">
            <g id="Group-3" transform="translate(11.000000, 0.575000)">
                <mask id="mask-2" fill="white">
                    <use xlink:href="#path-1"></use>
                </mask>
                <g id="Clip-2"></g>
                <path d="M12.4096,116.0217 C4.4586,127.9997 -3.4714,143.1527 3.8506,155.1907 C9.5196,164.5107 20.6526,168.6007 30.8226,170.7787 C42.4656,173.2707 51.4446,172.8957 60.4496,180.6857 C70.3736,189.2697 73.2016,203.7227 71.8656,216.7757 C70.5296,229.8297 65.7286,242.2507 62.9006,255.0637 C60.2166,267.2267 59.3546,280.1277 63.1336,291.9967 C66.9126,303.8657 75.9586,314.5347 87.9666,317.8447 C102.2146,321.7727 117.0756,315.0157 129.8666,307.6127 C150.5376,295.6477 170.1346,281.4067 192.5246,273.0917 C205.7896,268.1657 221.3466,265.6317 233.5726,272.7557 C245.9166,279.9487 252.0716,295.4177 265.0416,301.4057 C278.9716,307.8377 295.2886,301.0227 308.3376,292.9517 C365.7406,257.4477 405.2736,194.9027 413.9776,127.9707 C416.2266,110.6747 415.9676,91.3927 404.7876,78.0057 C393.4096,64.3817 373.8206,60.7997 356.1016,61.8407 C338.3816,62.8827 320.8816,67.6037 303.1476,66.8347 C297.1976,66.5777 291.1826,65.6717 285.7776,63.1727 C273.5986,57.5427 266.4856,45.0187 258.6496,34.1277 C250.7086,23.0937 241.0836,12.9347 229.0486,6.6127 C217.0136,0.2917 202.2906,-1.8043 189.6686,3.2517 C173.7456,9.6327 162.7836,25.7537 149.8606,36.3847 C144.1136,41.1137 137.1766,46.2777 129.5136,47.0727 C119.1336,48.1477 115.7376,38.4937 107.0126,35.5837 C103.1976,34.3127 98.9766,35.1427 95.2496,36.6537 C78.1736,43.5727 64.1896,55.6257 51.4626,68.6707 C37.1986,83.2917 23.7136,98.9917 12.4096,116.0217" id="Fill-1" fill="#F0F8FF" mask="url(#mask-2)"></path>
            </g>
            <path d="M246.3441,238.9365 L42.5271,238.9365 C40.0541,238.9365 38.0491,236.9315 38.0491,234.4585 L38.0491,79.3805 C38.0491,76.9075 40.0541,74.9025 42.5271,74.9025 L246.3441,74.9025 C248.8171,74.9025 250.8221,76.9075 250.8221,79.3805 L250.8221,234.4585 C250.8221,236.9315 248.8171,238.9365 246.3441,238.9365" id="Fill-4" fill="#F0F8FF"></path>
            <path d="M246.3441,238.9365 L42.5271,238.9365 C40.0541,238.9365 38.0491,236.9315 38.0491,234.4585 L38.0491,79.3805 C38.0491,76.9075 40.0541,74.9025 42.5271,74.9025 L246.3441,74.9025 C248.8171,74.9025 250.8221,76.9075 250.8221,79.3805 L250.8221,234.4585 C250.8221,236.9315 248.8171,238.9365 246.3441,238.9365 Z" id="Stroke-6" stroke="#1B79EA" stroke-width="2" stroke-linecap="round" stroke-linejoin="round"></path>
            <mask id="mask-4" fill="white">
                <use xlink:href="#path-3"></use>
            </mask>
            <g id="Clip-9"></g>
            <polygon id="Fill-8" fill="#FFFFFF" mask="url(#mask-4)" points="62.975 237.379 225.896 237.379 225.896 93.757 62.975 93.757"></polygon>
            <path d="M250.8222,92.5234 L38.0492,92.5234 L38.0492,79.3804 C38.0492,76.9074 40.0542,74.9024 42.5272,74.9024 L246.3442,74.9024 C248.8172,74.9024 250.8222,76.9074 250.8222,79.3804 L250.8222,92.5234 Z" id="Fill-10" fill="#549BEF" mask="url(#mask-4)"></path>
            <path d="M250.8222,92.5234 L38.0492,92.5234 L38.0492,79.3804 C38.0492,76.9074 40.0542,74.9024 42.5272,74.9024 L246.3442,74.9024 C248.8172,74.9024 250.8222,76.9074 250.8222,79.3804 L250.8222,92.5234 Z" id="Stroke-11" stroke="#1B79EA" stroke-width="2" stroke-linecap="round" stroke-linejoin="round" mask="url(#mask-4)"></path>
            <path d="M50.829,83.7129 C50.829,85.0939 49.71,86.2129 48.329,86.2129 C46.948,86.2129 45.829,85.0939 45.829,83.7129 C45.829,82.3329 46.948,81.2129 48.329,81.2129 C49.71,81.2129 50.829,82.3329 50.829,83.7129" id="Fill-12" fill="#FFFFFF" mask="url(#mask-4)"></path>
            <path d="M59.2455,83.7129 C59.2455,85.0939 58.1265,86.2129 56.7455,86.2129 C55.3655,86.2129 54.2455,85.0939 54.2455,83.7129 C54.2455,82.3329 55.3655,81.2129 56.7455,81.2129 C58.1265,81.2129 59.2455,82.3329 59.2455,83.7129" id="Fill-13" fill="#FFFFFF" mask="url(#mask-4)"></path>
            <path d="M67.6625,83.7129 C67.6625,85.0939 66.5425,86.2129 65.1625,86.2129 C63.7815,86.2129 62.6625,85.0939 62.6625,83.7129 C62.6625,82.3329 63.7815,81.2129 65.1625,81.2129 C66.5425,81.2129 67.6625,82.3329 67.6625,83.7129" id="Fill-14" fill="#FFFFFF" mask="url(#mask-4)"></path>
            <path d="M207.8061,116.6113 L80.2301,116.6113 C79.4821,116.6113 78.8691,115.9983 78.8691,115.2503 L78.8691,106.6163 C78.8691,105.8683 79.4821,105.2553 80.2301,105.2553 L207.8061,105.2553 C208.5551,105.2553 209.1671,105.8683 209.1671,106.6163 L209.1671,115.2503 C209.1671,115.9983 208.5551,116.6113 207.8061,116.6113" id="Fill-15" fill="#8DBCF5" mask="url(#mask-4)"></path>
            <path d="M207.8061,177.0146 L80.2301,177.0146 C79.4821,177.0146 78.8691,176.4016 78.8691,175.6536 L78.8691,167.0196 C78.8691,166.2716 79.4821,165.6586 80.2301,165.6586 L207.8061,165.6586 C208.5551,165.6586 209.1671,166.2716 209.1671,167.0196 L209.1671,175.6536 C209.1671,176.4016 208.5551,177.0146 207.8061,177.0146" id="Fill-16" fill="#D9E9FC" mask="url(#mask-4)"></path>
            <path d="M118.1859,138.3857 L170.6859,138.3857" id="Stroke-17" stroke="#1B79EA" stroke-width="2" stroke-linecap="round" stroke-linejoin="round" mask="url(#mask-4)"></path>
            <path d="M130.1054,146.1777 L158.7664,146.1777" id="Stroke-18" stroke="#1B79EA" stroke-width="2" stroke-linecap="round" stroke-linejoin="round" mask="url(#mask-4)"></path>
            <path d="M202.4052,100.3896 L208.2662,100.3896" id="Stroke-19" stroke="#1B79EA" stroke-width="2" stroke-linecap="round" stroke-linejoin="round" mask="url(#mask-4)"></path>
            <path d="M190.5717,100.3896 L196.4327,100.3896" id="Stroke-20" stroke="#1B79EA" stroke-width="2" stroke-linecap="round" stroke-linejoin="round" mask="url(#mask-4)"></path>
            <path d="M178.7387,100.3896 L184.5997,100.3896" id="Stroke-21" stroke="#1B79EA" stroke-width="2" stroke-linecap="round" stroke-linejoin="round" mask="url(#mask-4)"></path>
            <path d="M166.9052,100.3896 L172.7662,100.3896" id="Stroke-22" stroke="#1B79EA" stroke-width="2" stroke-linecap="round" stroke-linejoin="round" mask="url(#mask-4)"></path>
            <path d="M79.8695,100.3896 L85.7305,100.3896" id="Stroke-23" stroke="#1B79EA" stroke-width="2" stroke-linecap="round" stroke-linejoin="round" mask="url(#mask-4)"></path>
            <path d="M109.2597,221.0146 L80.4797,221.0146 C79.5937,221.0146 78.8697,220.2896 78.8697,219.4046 L78.8697,190.6236 C78.8697,189.7386 79.5937,189.0146 80.4797,189.0146 L109.2597,189.0146 C110.1447,189.0146 110.8697,189.7386 110.8697,190.6236 L110.8697,219.4046 C110.8697,220.2896 110.1447,221.0146 109.2597,221.0146" id="Fill-24" fill="#D9E9FC" mask="url(#mask-4)"></path>
            <path d="M86.7909,206.9209 L102.9479,206.9209" id="Stroke-25" stroke="#1B79EA" stroke-width="2" stroke-linecap="round" stroke-linejoin="round" mask="url(#mask-4)"></path>
            <path d="M86.7909,211.5459 L102.9479,211.5459" id="Stroke-26" stroke="#1B79EA" stroke-width="2" stroke-linecap="round" stroke-linejoin="round" mask="url(#mask-4)"></path>
            <path d="M97.8695,197.0459 C97.8695,198.7019 96.5265,200.0459 94.8695,200.0459 C93.2125,200.0459 91.8695,198.7019 91.8695,197.0459 C91.8695,195.3889 93.2125,194.0459 94.8695,194.0459 C96.5265,194.0459 97.8695,195.3889 97.8695,197.0459 Z" id="Stroke-27" stroke="#1B79EA" stroke-width="1.728" stroke-linecap="round" stroke-linejoin="round" mask="url(#mask-4)"></path>
            <path d="M207.557,221.0146 L178.777,221.0146 C177.891,221.0146 177.167,220.2896 177.167,219.4046 L177.167,190.6236 C177.167,189.7386 177.891,189.0146 178.777,189.0146 L207.557,189.0146 C208.442,189.0146 209.167,189.7386 209.167,190.6236 L209.167,219.4046 C209.167,220.2896 208.442,221.0146 207.557,221.0146" id="Fill-28" fill="#D9E9FC" mask="url(#mask-4)"></path>
            <path d="M185.0883,206.9209 L201.2453,206.9209" id="Stroke-29" stroke="#1B79EA" stroke-width="2" stroke-linecap="round" stroke-linejoin="round" mask="url(#mask-4)"></path>
            <path d="M185.0883,211.5459 L201.2453,211.5459" id="Stroke-30" stroke="#1B79EA" stroke-width="2" stroke-linecap="round" stroke-linejoin="round" mask="url(#mask-4)"></path>
            <path d="M196.1669,197.0459 C196.1669,198.7019 194.8239,200.0459 193.1669,200.0459 C191.5099,200.0459 190.1669,198.7019 190.1669,197.0459 C190.1669,195.3889 191.5099,194.0459 193.1669,194.0459 C194.8239,194.0459 196.1669,195.3889 196.1669,197.0459 Z" id="Stroke-31" stroke="#1B79EA" stroke-width="1.728" stroke-linecap="round" stroke-linejoin="round" mask="url(#mask-4)"></path>
            <path d="M158.3148,221.0146 L129.5348,221.0146 C128.6488,221.0146 127.9248,220.2896 127.9248,219.4046 L127.9248,190.6236 C127.9248,189.7386 128.6488,189.0146 129.5348,189.0146 L158.3148,189.0146 C159.2008,189.0146 159.9248,189.7386 159.9248,190.6236 L159.9248,219.4046 C159.9248,220.2896 159.2008,221.0146 158.3148,221.0146" id="Fill-32" fill="#D9E9FC" mask="url(#mask-4)"></path>
            <path d="M135.8466,206.9209 L152.0036,206.9209" id="Stroke-33" stroke="#1B79EA" stroke-width="2" stroke-linecap="round" stroke-linejoin="round" mask="url(#mask-4)"></path>
            <path d="M135.8466,211.5459 L152.0036,211.5459" id="Stroke-34" stroke="#1B79EA" stroke-width="2" stroke-linecap="round" stroke-linejoin="round" mask="url(#mask-4)"></path>
            <polygon id="Stroke-35" stroke="#1B79EA" stroke-width="2" stroke-linecap="round" stroke-linejoin="round" mask="url(#mask-4)" points="143.9247 193.9834 145.8147 197.2554 147.7037 200.5284 143.9247 200.5284 140.1457 200.5284 142.0357 197.2554"></polygon>
            <path d="M277.1586,221.0058 L309.3156,221.0058 C310.4156,221.0058 311.3156,220.1068 311.3156,219.0058 L311.3156,191.5678" id="Stroke-36" stroke="#1B79EA" stroke-width="2" stroke-linecap="round" stroke-linejoin="round" mask="url(#mask-4)"></path>
            <path d="M271.0526,261.2509 L225.2646,261.2509 C221.9066,261.2509 219.1586,258.5029 219.1586,255.1449 L219.1586,163.3569 C219.1586,159.9989 221.9066,157.2509 225.2646,157.2509 L271.0526,157.2509 C274.4106,157.2509 277.1586,159.9989 277.1586,163.3569 L277.1586,255.1449 C277.1586,258.5029 274.4106,261.2509 271.0526,261.2509" id="Fill-37" fill="#8DBCF5" mask="url(#mask-4)"></path>
            <polygon id="Fill-38" fill="#FFFFFF" mask="url(#mask-4)" points="225.159 250.251 271.159 250.251 271.159 168.251 225.159 168.251"></polygon>
            <polygon id="Stroke-39" stroke="#1B79EA" stroke-width="1.979" stroke-linecap="round" stroke-linejoin="round" mask="url(#mask-4)" points="225.159 250.251 271.159 250.251 271.159 168.251 225.159 168.251"></polygon>
            <path d="M245.6127,163.1289 L256.2827,163.1289" id="Stroke-40" stroke="#1B79EA" stroke-width="1.986" stroke-linecap="round" stroke-linejoin="round" mask="url(#mask-4)"></path>
            <path d="M242.0346,163.1289 C242.0346,163.6809 241.5866,164.1289 241.0346,164.1289 C240.4826,164.1289 240.0346,163.6809 240.0346,163.1289 C240.0346,162.5759 240.4826,162.1289 241.0346,162.1289 C241.5866,162.1289 242.0346,162.5759 242.0346,163.1289" id="Fill-41" fill="#1B79EA" mask="url(#mask-4)"></path>
            <path d="M250.6147,255.6679 C250.6147,257.0239 249.5147,258.1239 248.1587,258.1239 C246.8017,258.1239 245.7027,257.0239 245.7027,255.6679 C245.7027,254.3119 246.8017,253.2119 248.1587,253.2119 C249.5147,253.2119 250.6147,254.3119 250.6147,255.6679" id="Fill-42" fill="#1B79EA" mask="url(#mask-4)"></path>
            <path d="M263.0204,191.0146 L233.2974,191.0146 C232.6704,191.0146 232.1584,190.5016 232.1584,189.8756 L232.1584,176.1526 C232.1584,175.5266 232.6704,175.0146 233.2974,175.0146 L263.0204,175.0146 C263.6464,175.0146 264.1584,175.5266 264.1584,176.1526 L264.1584,189.8756 C264.1584,190.5016 263.6464,191.0146 263.0204,191.0146" id="Fill-43" fill="#D9E9FC" mask="url(#mask-4)"></path>
            <path d="M263.0204,211.0146 L233.2974,211.0146 C232.6704,211.0146 232.1584,210.5016 232.1584,209.8756 L232.1584,196.1526 C232.1584,195.5266 232.6704,195.0146 233.2974,195.0146 L263.0204,195.0146 C263.6464,195.0146 264.1584,195.5266 264.1584,196.1526 L264.1584,209.8756 C264.1584,210.5016 263.6464,211.0146 263.0204,211.0146" id="Fill-44" fill="#D9E9FC" mask="url(#mask-4)"></path>
            <path d="M262.6518,243.0459 L233.6658,243.0459 C232.8368,243.0459 232.1588,242.3669 232.1588,241.5389 L232.1588,216.5219 C232.1588,215.6919 232.8368,215.0149 233.6658,215.0149 L262.6518,215.0149 C263.4808,215.0149 264.1588,215.6919 264.1588,216.5219 L264.1588,241.5389 C264.1588,242.3669 263.4808,243.0459 262.6518,243.0459" id="Fill-45" fill="#D9E9FC" mask="url(#mask-4)"></path>
            <path d="M249.706,180.9209 L258.455,180.9209" id="Stroke-46" stroke="#1B79EA" stroke-width="2" stroke-linecap="round" stroke-linejoin="round" mask="url(#mask-4)"></path>
            <path d="M249.706,185.5459 L258.455,185.5459" id="Stroke-47" stroke="#1B79EA" stroke-width="2" stroke-linecap="round" stroke-linejoin="round" mask="url(#mask-4)"></path>
            <path d="M249.706,200.7021 L258.455,200.7021" id="Stroke-48" stroke="#1B79EA" stroke-width="2" stroke-linecap="round" stroke-linejoin="round" mask="url(#mask-4)"></path>
            <path d="M249.706,205.3271 L258.455,205.3271" id="Stroke-49" stroke="#1B79EA" stroke-width="2" stroke-linecap="round" stroke-linejoin="round" mask="url(#mask-4)"></path>
            <path d="M249.706,221.2382 L258.455,221.2382" id="Stroke-50" stroke="#1B79EA" stroke-width="2" stroke-linecap="round" stroke-linejoin="round" mask="url(#mask-4)"></path>
            <path d="M249.873,226.1132 L258.621,226.1132" id="Stroke-51" stroke="#1B79EA" stroke-width="2" stroke-linecap="round" stroke-linejoin="round" mask="url(#mask-4)"></path>
            <path d="M249.706,230.9882 L258.455,230.9882" id="Stroke-52" stroke="#1B79EA" stroke-width="2" stroke-linecap="round" stroke-linejoin="round" mask="url(#mask-4)"></path>
            <path d="M249.706,235.8632 L258.455,235.8632" id="Stroke-53" stroke="#1B79EA" stroke-width="2" stroke-linecap="round" stroke-linejoin="round" mask="url(#mask-4)"></path>
            <path d="M243.5346,183.0459 C243.5346,184.7019 242.1916,186.0459 240.5346,186.0459 C238.8776,186.0459 237.5346,184.7019 237.5346,183.0459 C237.5346,181.3889 238.8776,180.0459 240.5346,180.0459 C242.1916,180.0459 243.5346,181.3889 243.5346,183.0459 Z" id="Stroke-54" stroke="#1B79EA" stroke-width="1.728" stroke-linecap="round" stroke-linejoin="round" mask="url(#mask-4)"></path>
            <polygon id="Stroke-55" stroke="#1B79EA" stroke-width="2" stroke-linecap="round" stroke-linejoin="round" mask="url(#mask-4)" points="240.5346 199.7412 242.4236 203.0142 244.3136 206.2872 240.5346 206.2872 236.7556 206.2872 238.6446 203.0142"></polygon>
            <path d="M241.5346,237.3789 L238.7556,237.3789 C237.6556,237.3789 236.7556,236.4799 236.7556,235.3789 L236.7556,222.6809 C236.7556,221.5809 237.6556,220.6809 238.7556,220.6809 L241.5346,220.6809 C242.6346,220.6809 243.5346,221.5809 243.5346,222.6809 L243.5346,235.3789 C243.5346,236.4799 242.6346,237.3789 241.5346,237.3789 Z" id="Stroke-56" stroke="#1B79EA" stroke-width="2" stroke-linecap="round" stroke-linejoin="round" mask="url(#mask-4)"></path>
            <path d="M389.6913,205.1679 L353.3803,205.1679 C352.3833,205.1679 351.5683,204.3529 351.5683,203.3559 L351.5683,176.0679 C351.5683,175.0709 352.3833,174.2559 353.3803,174.2559 L389.6913,174.2559 C390.6883,174.2559 391.5033,175.0709 391.5033,176.0679 L391.5033,203.3559 C391.5033,204.3529 390.6883,205.1679 389.6913,205.1679" id="Fill-57" fill="#549BEF" mask="url(#mask-4)"></path>
            <path d="M389.6913,205.1679 L353.3803,205.1679 C352.3833,205.1679 351.5683,204.3529 351.5683,203.3559 L351.5683,176.0679 C351.5683,175.0709 352.3833,174.2559 353.3803,174.2559 L389.6913,174.2559 C390.6883,174.2559 391.5033,175.0709 391.5033,176.0679 L391.5033,203.3559 C391.5033,204.3529 390.6883,205.1679 389.6913,205.1679 Z" id="Stroke-58" stroke="#1B79EA" stroke-width="2" stroke-linecap="round" stroke-linejoin="round" mask="url(#mask-4)"></path>
            <path d="M386.2187,134.2099 C386.2187,142.3189 379.6457,148.8929 371.5357,148.8929 C363.4267,148.8929 356.8537,142.3189 356.8537,134.2099 C356.8537,126.1019 363.4267,119.5269 371.5357,119.5269 C379.6457,119.5269 386.2187,126.1019 386.2187,134.2099" id="Fill-59" fill="#FFFFFF" mask="url(#mask-4)"></path>
            <path d="M386.2187,134.2099 C386.2187,142.3189 379.6457,148.8929 371.5357,148.8929 C363.4267,148.8929 356.8537,142.3189 356.8537,134.2099 C356.8537,126.1019 363.4267,119.5269 371.5357,119.5269 C379.6457,119.5269 386.2187,126.1019 386.2187,134.2099 Z" id="Stroke-60" stroke="#1B79EA" stroke-width="2" stroke-linecap="round" stroke-linejoin="round" mask="url(#mask-4)"></path>
            <polygon id="Fill-61" fill="#FFFFFF" mask="url(#mask-4)" points="311.3153 134.1025 319.8543 148.8925 328.3943 163.6835 311.3153 163.6835 294.2373 163.6835 302.7763 148.8925"></polygon>
            <polygon id="Stroke-62" stroke="#1B79EA" stroke-width="2" stroke-linecap="round" stroke-linejoin="round" mask="url(#mask-4)" points="311.3153 134.1025 319.8543 148.8925 328.3943 163.6835 311.3153 163.6835 294.2373 163.6835 302.7763 148.8925"></polygon>
            <g id="Group-65" mask="url(#mask-4)">
                <g transform="translate(371.000000, 148.575000)">
                    <path d="M0.536,0.3176 L0.536,25.6806" id="Fill-63" stroke="none" fill="#D9E9FC" fill-rule="evenodd"></path>
                    <path d="M0.536,0.3176 L0.536,25.6806" id="Stroke-64" stroke="#1B79EA" stroke-width="2" fill="none" stroke-linecap="round" stroke-linejoin="round"></path>
                </g>
            </g>
            <g id="Group-68" mask="url(#mask-4)">
                <g transform="translate(371.000000, 204.575000)">
                    <path d="M0.536,0.7521 L0.536,26.1141" id="Fill-66" stroke="none" fill="#D9E9FC" fill-rule="evenodd"></path>
                    <path d="M0.536,0.7521 L0.536,26.1141" id="Stroke-67" stroke="#1B79EA" stroke-width="2" fill="none" stroke-linecap="round" stroke-linejoin="round"></path>
                </g>
            </g>
            <path d="M351.5683,193.122 L313.3153,193.122 C312.2153,193.122 311.3153,192.222 311.3153,191.122 L311.3153,163.684" id="Stroke-69" stroke="#1B79EA" stroke-width="2" stroke-linecap="round" stroke-linejoin="round" mask="url(#mask-4)"></path>
            <path d="M250.9477,105.2549 L309.3157,105.2549 C310.4157,105.2549 311.3157,106.1549 311.3157,107.2549 L311.3157,134.6929" id="Stroke-70" stroke="#1B79EA" stroke-width="2" stroke-linecap="round" stroke-linejoin="round" mask="url(#mask-4)"></path>
            <polygon id="Fill-71" fill="#8DBCF5" mask="url(#mask-4)" points="379.3896 230.2177 363.6826 230.2177 355.8296 243.8207 363.6826 257.4217 379.3896 257.4217 387.2426 243.8207"></polygon>
            <polygon id="Stroke-72" stroke="#1B79EA" stroke-width="2" stroke-linecap="round" stroke-linejoin="round" mask="url(#mask-4)" points="379.3896 230.2177 363.6826 230.2177 355.8296 243.8207 363.6826 257.4217 379.3896 257.4217 387.2426 243.8207"></polygon>
            <path d="M323.4579,82.3886 C323.4579,84.1026 322.0679,85.4916 320.3539,85.4916 C318.6409,85.4916 317.2519,84.1026 317.2519,82.3886 C317.2519,80.6746 318.6409,79.2846 320.3539,79.2846 C322.0679,79.2846 323.4579,80.6746 323.4579,82.3886" id="Fill-73" fill="#1B79EA" mask="url(#mask-4)"></path>
            <path d="M25.8964,139.6084 C25.8964,141.3214 24.5074,142.7114 22.7934,142.7114 C21.0804,142.7114 19.6904,141.3214 19.6904,139.6084 C19.6904,137.8944 21.0804,136.5044 22.7934,136.5044 C24.5074,136.5044 25.8964,137.8944 25.8964,139.6084" id="Fill-74" fill="#1B79EA" mask="url(#mask-4)"></path>
            <path d="M351.6845,98.3349 L351.6845,98.3349 C348.7525,98.3349 346.3765,95.9579 346.3765,93.0259 C346.3765,91.9119 345.6225,90.8729 344.5235,90.6889 C343.1275,90.4529 341.9075,91.5359 341.9075,92.8909 L341.9075,93.0259 C341.9075,95.9579 339.5305,98.3349 336.5985,98.3349 C335.4845,98.3349 334.4455,99.0889 334.2605,100.1879 C334.0265,101.5829 335.1095,102.8039 336.4625,102.8039 L336.5985,102.8039 C339.5305,102.8039 341.9075,105.1809 341.9075,108.1119 C341.9075,109.2269 342.6615,110.2659 343.7595,110.4499 C345.1555,110.6859 346.3765,109.6029 346.3765,108.2479 C346.3765,105.2409 348.8135,102.8039 351.8205,102.8039 C353.1745,102.8039 354.2575,101.5829 354.0235,100.1879 C353.8375,99.0889 352.7985,98.3349 351.6845,98.3349" id="Fill-75" fill="#1B79EA" mask="url(#mask-4)"></path>
            <path d="M128.8964,265.6328 L128.8964,265.6328 C127.1004,265.6328 125.6444,264.1758 125.6444,262.3798 C125.6444,261.6968 125.1814,261.0608 124.5084,260.9468 C123.6534,260.8038 122.9054,261.4668 122.9054,262.2968 L122.9054,262.3798 C122.9054,264.1758 121.4494,265.6328 119.6534,265.6328 C118.9704,265.6328 118.3334,266.0948 118.2204,266.7678 C118.0764,267.6218 118.7404,268.3698 119.5694,268.3698 L119.6534,268.3698 C121.4494,268.3698 122.9054,269.8268 122.9054,271.6228 C122.9054,272.3058 123.3674,272.9428 124.0414,273.0558 C124.8964,273.1988 125.6444,272.5358 125.6444,271.7058 C125.6444,269.8638 127.1374,268.3698 128.9794,268.3698 C129.8094,268.3698 130.4724,267.6218 130.3294,266.7678 C130.2154,266.0948 129.5794,265.6328 128.8964,265.6328" id="Fill-76" fill="#1B79EA" mask="url(#mask-4)"></path>
            <path d="M10.6957,120.6884 L10.6957,120.6884 C8.8997,120.6884 7.4437,119.2324 7.4437,117.4364 C7.4437,116.7534 6.9807,116.1164 6.3077,116.0034 C5.4527,115.8594 4.7047,116.5234 4.7047,117.3524 L4.7047,117.4364 C4.7047,119.2324 3.2487,120.6884 1.4527,120.6884 C0.7697,120.6884 0.1327,121.1504 0.0197,121.8244 C-0.1243,122.6784 0.5397,123.4264 1.3687,123.4264 L1.4527,123.4264 C3.2487,123.4264 4.7047,124.8824 4.7047,126.6794 C4.7047,127.3624 5.1667,127.9994 5.8407,128.1124 C6.6957,128.2554 7.4437,127.5924 7.4437,126.7624 C7.4437,124.9194 8.9367,123.4264 10.7787,123.4264 C11.6087,123.4264 12.2717,122.6784 12.1287,121.8244 C12.0147,121.1504 11.3787,120.6884 10.6957,120.6884" id="Fill-77" fill="#1B79EA" mask="url(#mask-4)"></path>
        </g>
    </g>
</svg>