<?xml version="1.0" encoding="UTF-8" standalone="no"?>
<!-- Generator: Adobe Illustrator 22.0.1, SVG Export Plug-In . SVG Version: 6.00 Build 0)  -->

<svg
   xmlns:dc="http://purl.org/dc/elements/1.1/"
   xmlns:cc="http://creativecommons.org/ns#"
   xmlns:rdf="http://www.w3.org/1999/02/22-rdf-syntax-ns#"
   xmlns:svg="http://www.w3.org/2000/svg"
   xmlns="http://www.w3.org/2000/svg"
   xmlns:sodipodi="http://sodipodi.sourceforge.net/DTD/sodipodi-0.dtd"
   xmlns:inkscape="http://www.inkscape.org/namespaces/inkscape"
   version="1.1"
   id="Layer_1"
   x="0px"
   y="0px"
   viewBox="0 0 3177.1 2118.4"
   style="enable-background:new 0 0 3177.1 2118.4;"
   xml:space="preserve"
   sodipodi:docname="hero-illustration.svg"
   inkscape:version="0.92.3 (2405546, 2018-03-11)"><metadata
   id="metadata735"><rdf:RDF><cc:Work
       rdf:about=""><dc:format>image/svg+xml</dc:format><dc:type
         rdf:resource="http://purl.org/dc/dcmitype/StillImage" /></cc:Work></rdf:RDF></metadata><defs
   id="defs733">
	

		
		
		
		
		
		
	</defs><sodipodi:namedview
   pagecolor="#ffffff"
   bordercolor="#666666"
   borderopacity="1"
   objecttolerance="10"
   gridtolerance="10"
   guidetolerance="10"
   inkscape:pageopacity="0"
   inkscape:pageshadow="2"
   inkscape:window-width="1366"
   inkscape:window-height="685"
   id="namedview731"
   showgrid="false"
   inkscape:zoom="0.18318593"
   inkscape:cx="890.32281"
   inkscape:cy="1055.5368"
   inkscape:window-x="0"
   inkscape:window-y="0"
   inkscape:window-maximized="1"
   inkscape:current-layer="g1165"
   showguides="true" />
<style
   type="text/css"
   id="style2">
	.st0{opacity:0.3;}
	.st1{fill:#191954;}
	.st2{fill:#EF9A9E;}
	.st3{fill:#2693ED;}
	.st4{fill:#D4C8DB;}
	.st5{fill:#F1F0F2;}
	.st6{fill:#FDC7C2;}
	.st7{fill:#FFB7B3;}
	.st8{fill:none;}
	.st9{fill:#A1B7CE;}
	.st10{fill:#C5DEFD;}
	.st11{fill:#DEEEFF;}
	.st12{fill:#E7F1F2;}
	.st13{fill:#CBD7D8;}
	.st14{fill:#EDF4F4;}
	.st15{fill:#475256;}
	.st16{opacity:0.2;fill:#51506D;enable-background:new    ;}
	.st17{fill:#B0CCEA;}
	.st18{fill:#BDD0D1;}
	.st19{fill:#F8FEFF;}
	.st20{fill:#F2F6F9;}
	.st21{opacity:0.5;fill:#80A3E5;enable-background:new    ;}
	.st22{fill:#00ED92;}
	.st23{fill:#7CACF1;}
	.st24{fill:#5D93E4;}
	.st25{fill:#3D3C5E;}
	.st26{fill:#4C4C70;}
	.st27{fill:#E0E0E9;}
	.st28{fill:#FF9D33;}
	.st29{fill:#F9B46E;}
	.st30{fill:#F75476;}
	.st31{fill:#11D384;}
	.st32{fill:#D0DBF3;}
	.st33{fill:#E1E0E9;}
	.st34{fill:#F7F7F7;}
	.st35{fill:#C1AC99;}
	.st36{fill:#F1DCC9;}
	.st37{fill:#51636D;}
	.st38{fill:#364651;}
	.st39{fill:#FC8C95;}
	.st40{fill:#5AE5D4;}
	.st41{fill:none;stroke:#2DD397;stroke-width:0.25;stroke-miterlimit:10;}
	.st42{fill:#FFE6E6;}
	.st43{fill:#BAC8E0;}
	.st44{fill:#F9F9F9;}
	.st45{opacity:0.24;fill:#EAEAF4;enable-background:new    ;}
	.st46{fill:#E8E9EE;}
	.st47{fill:#8697B2;}
	.st48{opacity:0.1;fill:url(#SVGID_1_);enable-background:new    ;}
	.st49{opacity:0.1;fill:url(#SVGID_2_);enable-background:new    ;}
	.st50{fill:#80A3E5;}
	.st51{fill:#ACCCF4;}
	.st52{fill:#9FC4F5;}
	.st53{opacity:0.44;fill:url(#SVGID_3_);enable-background:new    ;}
	.st54{fill:#C9DFF4;}
	.st55{fill:#282844;}
	.st56{fill:#8FB8E5;}
	.st57{fill:#7FA7D3;}
	.st58{fill:#00FC9B;}
	.st59{opacity:0.12;fill:#282844;enable-background:new    ;}
	.st60{fill:#443E3F;}
	.st61{fill:#FFCFD4;}
	.st62{fill:#FF9298;}
	.st63{opacity:0.1;fill:#4B70B2;enable-background:new    ;}
	.st64{fill:#83AFDB;}
	.st65{fill:#CBEDF7;}
	.st66{fill:#83D9FF;}
	.st67{fill:#AAC4E0;}
	.st68{fill:#E2F0F2;}
	.st69{fill:#B0B5CC;}
	.st70{fill:#00CE7A;}
	.st71{fill:#C8D9DB;}
	.st72{fill:#C3D6D8;}
	.st73{fill:#C3C5C9;}
	.st74{fill:#CFE0E8;}
	.st75{fill:#E6E6E6;}
	.st76{fill:#C5CAD1;}
	.st77{opacity:0.27;}
	.st78{fill:#12141C;}
	.st79{fill:#9DA2AA;}
	.st80{fill:#8DAFD3;}
	.st81{fill:url(#SVGID_4_);}
	.st82{fill:#3061CE;}
	.st83{opacity:0.24;}
	.st84{fill:#2B4FB2;}
	.st85{opacity:0.16;}
	.st86{fill:#E6EFFF;}
	.st87{opacity:0.46;}
	.st88{fill:#D4E4FF;}
	.st89{fill:#B6D0FF;}
	.st90{fill:#E2882D;}
	.st91{fill:#FFAB57;}
	.st92{opacity:0.32;}
	.st93{fill:#4F71ED;}
	.st94{opacity:0.14;}
	.st95{fill:#06F2D6;}
	.st96{fill:#3254CE;}
	.st97{fill:#FF7373;}
	.st98{fill:#FEACAD;}
	.st99{fill:none;stroke:#80A3E5;stroke-width:3;stroke-linecap:round;stroke-linejoin:round;stroke-miterlimit:10;}
</style>
<g
   id="Layer_3">
</g>
<g
   id="Layer_2_1_">
</g>
<g
   id="Layer_6"
   class="st0">
	<g
   id="g18">
		
		
		
		
		
		
	</g>
</g>
<g
   id="Layer_1_2_">
	<g
   id="Layer_2_2_">
	</g>
	<g
   id="Layer_1_1_">
		
		
		
		
		
		
		
		
		
		
		
	</g>
</g>

<g
   id="g717">
			
		</g><g
   id="g1409"><g
     id="g1165"><g
       id="g756"
       transform="translate(194.16146,-9.8629468)"><path
         style="fill:#191954"
         inkscape:connector-curvature="0"
         id="path14"
         d="m 2366.7516,1490.5762 -212.7,-122.5 c -12.9,-7.4 -33.8,-7.4 -46.7,0.1 l -456.4,264.3 c -8.5,4.9 -11.4,11.8 -8.7,18.1 -2.7,6.3 0.1,13.2 8.7,18.2 l 212.7,122.5 c 12.9,7.4 33.8,7.4 46.7,-0.1 l 456.4,-264.3 c 8.5,-4.9 11.4,-11.9 8.7,-18.2 2.7,-6.3 -0.2,-13.3 -8.7,-18.1 z"
         class="st1" /><g
         id="g921"><g
           id="g509"><g
             id="g265"><g
               transform="translate(436.71477,131.01443)"
               id="g707">
			<path
   style="fill:#80a3e5"
   inkscape:connector-curvature="0"
   id="path705"
   d="m 1845.8,142.3 11.1,21.5 c 0.6,0.7 1.1,1.5 1.2,2.4 0.1,0.9 -0.2,1.8 -0.8,2.7 l 1,-0.1 9.2,110.2 c 2.2,0.1 4.3,0.3 6.5,0.5 l 7.4,-108.1 0.9,0.1 c -0.6,-0.8 -0.9,-1.7 -0.8,-2.6 0.1,-1 0.6,-1.9 1.4,-2.7 l 11.1,-21.5 7.7,22.9 c 0.5,0.8 0.8,1.7 0.8,2.6 -0.1,1 -0.5,1.9 -1.2,2.6 l 1.1,0.1 -0.5,6.6 11.1,-21.4 7.7,22.9 c 0.5,0.8 0.8,1.7 0.8,2.6 -0.1,0.9 -0.5,1.8 -1.2,2.5 l 1,0.1 -7,103.1 c 0.8,0.3 1.6,0.7 2.3,1 l 6.9,-101 0.9,0.1 c -0.5,-0.8 -0.8,-1.6 -0.7,-2.5 0.1,-1 0.6,-1.9 1.4,-2.7 l 11.1,-21.5 7.7,22.9 c 0.5,0.8 0.8,1.7 0.8,2.6 -0.1,0.9 -0.5,1.8 -1.2,2.5 l 1,0.1 -7.7,112.6 c 8.9,8.1 14.1,17.8 14.1,28.1 v 72 c 7.8,4.5 15.7,9.1 23.8,13.7 l 1.2,-0.7 c 1.5,-0.8 3.4,-1.3 5.3,-1.3 1.9,0 3.8,0.4 5.3,1.3 51.7,29.1 151.4,87.5 187,108.1 0.7,0.4 1.1,0.9 0.9,1.5 l -1,1.4 -4.2,2.4 c 0,0 0.1,0 0.1,0.1 l 4.3,-2.4 c 0.5,-0.3 0.9,-0.8 1,-1.2 l -0.2,1.5 c 0,0.6 -0.1,1.8 -0.8,2.2 l -2.1,1.2 c 42.3,24.5 73.7,42.7 82.6,47.8 0.7,0.4 1,1 0.9,1.6 l 0.1,-0.1 v 2 c 0,0.5 -0.2,1.7 -0.8,2.1 l -4.1,2.4 c 1.7,0.7 3.1,1.3 4.1,1.7 1,0.5 1.4,1.1 1.3,1.8 l 0.4,1.4 c 0.2,0.5 0.3,1.7 -0.2,2.1 l -3.6,2.9 -2.5,2 v 0 l 2.5,-2 6.9,25.4 0.2,0.6 c 2,0.9 3.6,1.5 4.9,2 0.9,0.4 1.4,1.1 1.4,1.7 l 0.5,2.2 c 0.1,0.2 0,0.4 -0.2,0.6 l -23.5,18.7 -2.9,6.5 -19.2,11.1 -6.7,5.3 v 0 l -204.9,163.3 c -2.6,2 -5.2,3 -7.8,3 -1.3,0 -2.6,-0.3 -3.8,-0.8 -0.7,-0.3 -1.4,-0.7 -2,-1.2 L 1956,819 l -11.5,6.7 c -2.7,1.6 -5.4,2.3 -7.7,2.3 -1.6,0 -3.1,-0.4 -4.4,-1.1 l -31.8,-26.1 c -1.9,1 -3.8,1.5 -5.7,1.5 -1.4,0 -2.7,-0.3 -4,-0.8 -0.9,-0.4 -1.3,-0.6 -1.3,-0.6 0,0 0.5,0.2 1.4,0.7 l -222.9,-93.7 c -3.7,-1.6 -6.8,-5.4 -8.3,-11 -0.2,-0.7 -0.4,-1.4 -0.5,-2.2 0,-0.1 0,-0.3 -0.1,-0.4 L 1478.1,618 c -3.6,-1.5 -6.5,-5.1 -8,-10.5 -1.5,-5.4 -1.2,-11.5 0.4,-17.1 1.6,-5.6 4.6,-10.6 8.5,-13.7 l 0.2,0.1 21.1,-16.7 -11.4,-6.6 c -1.9,-1.1 -3.4,-3 -4.2,-5.5 1.3,-1.4 2.8,-2.7 4.3,-3.9 l -9.6,-5.5 c -3.1,-1.8 -5,-5.7 -5,-11.1 0,-5.5 1.9,-11.5 5,-16.9 3.1,-5.4 7.4,-10.1 12.1,-12.8 h -0.1 L 1768.3,338 v -6.5 c 0,-7.1 2.5,-14 6.9,-20.2 l -38.6,-127.7 0.9,-0.3 c -0.8,-0.6 -1.4,-1.3 -1.6,-2.1 -0.3,-1 -0.2,-2 0.3,-3 l 2.8,-24 15.3,18.7 c 0.8,0.5 1.4,1.2 1.7,2.1 0.3,0.9 0.2,1.9 -0.2,2.8 l 1,-0.3 35.7,118.3 c 13.9,-8.7 32.7,-14.6 53.9,-16.4 l -9.1,-108.8 1,-0.1 c -0.7,-0.7 -1.1,-1.5 -1.2,-2.4 0,-1 0.3,-1.9 1,-2.8 l 7.7,-23 m 401.5,443.4 2.7,-1.5 4.2,-2.4 v 0 0 l -4.2,2.4 -2.7,1.5 m -351.7,214.4 v 0 c 0.1,-0.1 0,-0.1 0,0 -0.1,0 0,0 0,0 m 279.1,-274 v 0 m 0,0 c 0,0.1 0,0.2 0,0.2 v -0.2 M 1845.8,139.3 c -0.1,0 -0.2,0 -0.2,0 -1.2,0.1 -2.2,0.9 -2.6,2 l -7.6,22.5 c -0.9,1.3 -1.3,2.7 -1.3,4.2 0,0.1 0,0.2 0,0.3 0,0.5 0.1,1 0.3,1.4 -0.1,0.3 -0.1,0.7 -0.1,1.1 l 8.9,105.9 c -18.3,1.9 -35.4,7 -48.9,14.6 l -34.6,-114.6 c -0.1,-0.4 -0.3,-0.7 -0.5,-1 0,-0.5 -0.1,-1 -0.3,-1.5 v -0.1 c -0.5,-1.4 -1.3,-2.5 -2.5,-3.4 l -15,-18.4 c -0.6,-0.7 -1.4,-1.1 -2.3,-1.1 -0.3,0 -0.6,0 -0.8,0.1 -1.2,0.3 -2,1.3 -2.1,2.5 l -2.7,23.5 c -0.6,1.5 -0.7,3.1 -0.2,4.7 0.1,0.5 0.3,0.9 0.6,1.3 0,0.4 0,0.7 0.1,1.1 l 38.2,126.3 c -4.4,6.6 -6.6,13.5 -6.6,20.7 v 4.7 l -275.4,159 c -0.2,0.1 -0.3,0.2 -0.5,0.4 -4.8,2.9 -9.3,7.7 -12.6,13.6 -3.5,6.1 -5.4,12.6 -5.4,18.4 0,6.3 2.4,11.3 6.5,13.7 l 5.9,3.4 c -0.5,0.4 -0.9,0.9 -1.3,1.4 -0.7,0.8 -1,1.9 -0.6,2.9 1,3.1 3,5.7 5.6,7.2 l 7.6,4.4 -16.8,13.3 c -0.4,0.1 -0.7,0.3 -1.1,0.5 -4.3,3.4 -7.7,8.8 -9.5,15.2 -1.8,6.4 -2,13.1 -0.4,18.7 1.7,6.1 5.2,10.6 9.7,12.5 l 179.8,75.6 c 0.1,0.5 0.2,0.9 0.3,1.3 1.7,6.3 5.2,10.9 10,12.9 l 222.9,93.7 c 0.2,0.1 0.4,0.1 0.6,0.2 1.4,0.5 2.9,0.8 4.4,0.8 1.8,0 3.5,-0.3 5.3,-1 l 30.4,24.9 c 0.1,0.1 0.3,0.2 0.4,0.3 1.8,1 3.8,1.5 5.9,1.5 2.9,0 6,-0.9 9.2,-2.7 l 10.2,-5.9 37.4,15.7 c 0.8,0.5 1.6,1 2.3,1.3 1.6,0.7 3.3,1 5,1 3.3,0 6.6,-1.3 9.6,-3.6 l 204.9,-163.3 6.5,-5.2 19,-11 c 0.5,-0.3 1,-0.8 1.2,-1.4 l 2.6,-5.8 22.9,-18.2 c 0.1,-0.1 0.2,-0.1 0.3,-0.2 1.2,-1.2 1.3,-2.6 1,-3.6 l -0.4,-1.7 c -0.1,-1.7 -1.2,-3.2 -3.1,-4 -0.1,0 -0.1,-0.1 -0.2,-0.1 l -0.4,-0.1 c -0.9,-0.4 -1.9,-0.7 -3.1,-1.2 l -6.2,-22.7 2.1,-1.7 c 1.7,-1.4 1.7,-3.9 1.2,-5.3 l -0.2,-0.9 c -0.1,-1.2 -0.6,-2.5 -2.1,-3.5 1.5,-1.5 1.5,-3.8 1.5,-4.1 v -2 c 0,-0.2 0,-0.4 -0.1,-0.7 -0.2,-1.3 -1,-2.6 -2.4,-3.4 0,0 0,0 -0.1,0 -6.8,-4 -26.9,-15.6 -55,-31.9 l -23.8,-13.8 c 0.4,-0.8 0.6,-1.7 0.6,-2.8 l 0.1,-1.2 c 0,-0.1 0,-0.3 0.1,-0.4 0,-0.1 0,-0.2 0,-0.3 0,-0.4 -0.1,-0.8 -0.3,-1.2 -0.2,-1 -1,-2.1 -2.4,-2.9 -9.3,-5.4 -23.2,-13.4 -39.2,-22.8 -46.3,-26.9 -109.7,-63.9 -147.8,-85.3 -1.9,-1.1 -4.3,-1.7 -6.8,-1.7 -2.4,0 -4.7,0.5 -6.6,1.5 -7,-4.1 -13.9,-8.1 -20.8,-12 v -70.2 c 0,-10.5 -4.8,-20.6 -14,-29.3 l 7.6,-111.2 c 0,-0.3 0,-0.7 -0.1,-1 0.2,-0.5 0.3,-1.1 0.3,-1.6 0,-0.1 0,-0.1 0,-0.2 0,-1.3 -0.4,-2.6 -1.1,-3.9 l -7.6,-22.6 c -0.4,-1.1 -1.4,-1.9 -2.6,-2 -0.1,0 -0.2,0 -0.2,0 -1.1,0 -2.1,0.6 -2.7,1.6 l -9.8,19 c -0.1,-0.2 -0.2,-0.4 -0.3,-0.6 l -7.6,-22.6 c -0.4,-1.1 -1.4,-1.9 -2.6,-2 -0.1,0 -0.2,0 -0.2,0 -1.1,0 -2.1,0.6 -2.7,1.6 l -5.4,10.5 c -0.1,-0.3 -0.3,-0.6 -0.5,-0.9 l -7.6,-22.6 c -0.4,-1.1 -1.4,-1.9 -2.6,-2 -0.1,0 -0.2,0 -0.2,0 -1.1,0 -2.1,0.6 -2.7,1.6 l -10.9,21.1 c -1.1,1.2 -1.8,2.6 -1.9,4.2 v 0.1 c 0,0.5 0,1.1 0.1,1.6 -0.1,0.3 -0.2,0.6 -0.2,0.9 l -7.2,105 c -0.3,0 -0.6,0 -0.9,-0.1 l -9,-107.6 c 0,-0.4 -0.1,-0.7 -0.3,-1 0.1,-0.5 0.1,-1.1 0.1,-1.6 0,0 0,0 0,-0.1 -0.1,-1.3 -0.7,-2.5 -1.7,-3.7 l -11,-21.2 c -0.6,-1.1 -1.6,-1.7 -2.7,-1.7 z"
   class="st50" />
		</g><path
               class="st1"
               d="m 1914.8148,794.01443 181.3,76.2 c 0,0.1 0,0.3 0.1,0.4 0.1,0.8 0.3,1.5 0.5,2.2 1.5,5.6 4.6,9.4 8.3,11 l 222.9,93.7 c -1.9,-0.8 -1.9,-0.9 -0.1,-0.1 3,1.3 6.3,1.1 9.7,-0.7 l 31.8,26.09997 c 3.1,1.8 7.4,1.5 12.1,-1.2 l 11.5,-6.69997 39.1,16.39997 c 0.7,0.5 1.3,0.9 2,1.2 3.5,1.5 7.7,0.9 11.6,-2.2 l 204.9,-163.29997 v 0 l 6.7,-5.3 19.2,-11.1 2.9,-6.5 23.5,-18.7 c 0.2,-0.2 0.3,-0.4 0.2,-0.6 l -0.5,-2.2 c 0.1,-0.6 -0.4,-1.3 -1.4,-1.7 -1.3,-0.5 -2.9,-1.1 -4.9,-2 l -0.2,-0.6 -6.9,-25.4 -2.5,2 v 0 l 2.5,-2 3.6,-2.9 c 0.5,-0.4 0.4,-1.6 0.2,-2.1 l -0.4,-1.4 c 0.1,-0.7 -0.4,-1.3 -1.3,-1.8 -1.1,-0.5 -2.5,-1 -4.1,-1.7 l 4.1,-2.4 c 0.6,-0.4 0.8,-1.6 0.8,-2.1 v -2 l -0.1,0.1 c 0.1,-0.6 -0.2,-1.1 -0.9,-1.6 -8.9,-5.1 -40.3,-23.3 -82.6,-47.8 l 2.1,-1.2 c 0.7,-0.4 0.8,-1.6 0.8,-2.2 l 0.2,-1.7 c 0,0.5 -0.4,1 -1,1.4 l -4.3,2.4 c 0,0 -0.1,0 -0.1,-0.1 l 4.2,-2.4 1,-1.4 c 0.2,-0.6 -0.2,-1.1 -0.9,-1.5 -35.6,-20.6 -135.3,-79 -187,-108.1 -3,-1.7 -7.7,-1.7 -10.7,0 l -1.2,0.7 c -8,-4.6 -16,-9.2 -23.8,-13.7 v -72 c 0,-10.3 -5.2,-20 -14.1,-28.1 l 7.7,-112.6 -1,-0.1 c 0.7,-0.7 1.1,-1.6 1.2,-2.5 0,-0.9 -0.3,-1.8 -0.8,-2.6 l -7.7,-22.9 -11.1,21.5 c -0.8,0.8 -1.3,1.7 -1.4,2.7 -0.1,0.9 0.2,1.7 0.7,2.5 l -0.9,-0.1 -6.9,101 c -0.8,-0.4 -1.5,-0.7 -2.3,-1 l 7,-103.1 -1,-0.1 c 0.7,-0.7 1.1,-1.6 1.2,-2.5 0,-0.9 -0.3,-1.8 -0.8,-2.6 l -7.7,-22.9 -11.1,21.4 0.5,-6.6 -1.1,-0.1 c 0.7,-0.8 1.1,-1.6 1.2,-2.6 0,-0.9 -0.3,-1.8 -0.8,-2.6 l -7.7,-22.9 -11.1,21.5 c -0.8,0.8 -1.3,1.7 -1.4,2.7 -0.1,0.9 0.2,1.8 0.8,2.6 l -0.9,-0.1 -7.4,108.1 c -2.1,-0.2 -4.3,-0.3 -6.5,-0.5 l -9.2,-110.2 -1,0.1 c 0.6,-0.8 0.9,-1.7 0.8,-2.7 -0.1,-0.9 -0.6,-1.7 -1.2,-2.4 l -11.1,-21.5 -7.7,22.9 c -0.7,0.9 -1,1.8 -1,2.8 0.1,0.9 0.5,1.7 1.2,2.4 l -1,0.1 9.1,108.8 c -21.2,1.8 -40,7.7 -53.9,16.4 l -35.7,-118.3 -1,0.3 c 0.4,-0.9 0.5,-1.9 0.2,-2.8 -0.3,-0.9 -0.9,-1.6 -1.7,-2.1 l -15.3,-18.7 -2.8,24 c -0.5,1 -0.6,2 -0.3,3 0.3,0.9 0.8,1.6 1.6,2.1 l -0.9,0.3 38.6,127.7 c -4.5,6.2 -6.9,13 -6.9,20.2 v 6.5 l -276.9,159.8 h 0.1 c -4.7,2.7 -9,7.4 -12.1,12.8 -3.1,5.4 -5,11.4 -5,16.9 0,5.4 1.9,9.3 5,11.1 l 9.6,5.5 c -1.5,1.1 -3,2.4 -4.3,3.9 0.8,2.5 2.3,4.4 4.2,5.5 l 11.4,6.6 -21.1,16.7 -0.2,-0.1 c -3.9,3.1 -6.9,8.1 -8.5,13.7 -1.6,5.6 -1.9,11.7 -0.4,17.1 1.4,5.6 4.3,9.2 7.9,10.7 z m 771.9,-33.8 4.2,-2.4 v 0 0 l -4.2,2.4 -2.7,1.5 z m -354.3,215.8 v 0 h -0.2 c 0.1,0 0.2,0 0.2,0 z"
               id="path6"
               inkscape:connector-curvature="0"
               style="fill:#191954" /></g><path
             style="fill:#191954"
             inkscape:connector-curvature="0"
             id="path8"
             d="m 1228.1193,1755.8668 c 0.1,-0.5 0.1,-1 0.1,-1.5 0,-5 -3.3,-10 -9.9,-13.8 l -314.80002,-181.7 -314.80002,-181.5 c -6.6,-3.8 -15.2,-5.7 -23.9,-5.7 -8.6,0 -17.3,1.9 -23.9,5.7 l -219.2,126.5 -219.2,126.6 c -5.500004,3.2 -8.700004,7.2 -9.600004,11.3 -4.9,3.6 -7.4,7.9 -7.4,12.2 0,5 3.3,10.1 10,13.9 l 317.900004,183.5 317.9,183.5 c 6.7,3.8 15.3,5.8 24.1,5.8 8.8,0 17.5,-1.9 24.1,-5.8 l 221.30004,-127.8 221.3,-127.8 c 6.7,-3.8 10,-8.9 10,-13.9 0.1,-3.3 -1.3,-6.6 -4,-9.5 z"
             class="st1" /><path
             sodipodi:nodetypes="ccccccccccccsccccccsccccssccccccccccscc"
             style="fill:#191954"
             inkscape:connector-curvature="0"
             id="path10"
             d="m 854.1,1367.7 0.1,0.1 5.2,3.1 97.9,56.5 246.4,142.3 c 11.1,6.4 25.8,9.6 40.4,9.6 v 0 0 c 14.6,0 29.1,-3.2 40.1,-9.5 0.1,0 0.2,-0.1 0.2,-0.1 l 342,-197.5 342,-197.5 c 11.1,-6.4 16.6,-14.9 16.6,-23.3 v -25.4 0 0 c 0,-8.5 -5.6,-16.8 -16.7,-23.2 L 1720.4,960.4 1472.4,818 c -11.1,-6.4 -25.8,-9.5 -40.4,-9.5 -14.7,0 -29.3,3.3 -40.4,9.7 l -3.2,1.8 v -0.1 l 3.1,-1.8 c 22.2,-12.9 40.3,-44.4 40.3,-70 v -569 c 0,-12.3 -4.2,-21.1 -10.9,-25.5 v 0 l -0.4,-0.2 c -0.5,-0.3 -1,-0.6 -1.6,-0.9 l -7.5,-4.2 c -1.7,-1.3 -3.5,-2.3 -5.5,-3.1 -6.9,-2.5 -15.7,-1.3 -25.3,4.3 L 699.8,544.3 c -12.6,7.3 -23.9,20.6 -31.3,35.4 h 0.1 c -5.7,11.3 -9.1,23.5 -9.1,34.6 v 506.5 c 4.4297,35.3663 194.6,246.9 194.6,246.9 z"
             class="st1" /><g
             id="g677"><g
               id="g170"
               transform="translate(436.71477,131.01443)">
			<g
   id="g82">
				<g
   id="g42">
					<path
   class="st2"
   d="m 2015.4,825.7 -7.3,5.8 c 0,0 -1.4,1.1 -2.1,1.6 v 0 c -1.6,1.3 -3.2,2 -4.6,2.2 -0.4,0 -1.2,0 -2.1,-0.4 -0.5,-0.2 -0.9,-0.5 -1.4,-0.8 -1.8,-1.3 -3.4,-3.5 -4.5,-6.3 -0.3,-0.7 -0.5,-1.3 -0.7,-2 -0.1,-0.2 -0.1,-0.5 -0.2,-0.8 -0.1,-0.4 -0.1,-0.7 -0.2,-1.1 l -3.7,-1.6 c 0,0.3 0,0.7 0.1,1 0.1,0.9 0.3,1.8 0.6,2.7 1.5,5.4 4.4,9 8,10.5 3.5,1.5 7.7,0.9 11.6,-2.2 L 2266,629.4 c 0.2,-0.2 0.3,-0.4 0.2,-0.6 l -0.6,-2.4 -0.6,1.3 z"
   id="path22"
   inkscape:connector-curvature="0"
   style="fill:#ef9a9e" />
					<path
   class="st3"
   d="m 2006.2,792.2 c 0.4,-0.3 0.6,-0.5 0.6,-0.5 z"
   id="path24"
   inkscape:connector-curvature="0"
   style="fill:#2693ed" />
					<path
   class="st4"
   d="m 1998.1,826.3 c -0.8,-0.3 -1.6,-0.8 -2.3,-1.4 -1.5,-1.2 -2.9,-3 -3.9,-5.1 0.1,1.4 0.2,2.8 0.5,4.1 z"
   id="path26"
   inkscape:connector-curvature="0"
   style="fill:#d4c8db" />
					<path
   class="st2"
   d="m 2255,591.4 -3.5,2.8 -20.9,16.6 -2,1.6 -224.5,178.1 -5.9,4.7 c -0.6,0.5 -1.2,1.1 -1.8,1.7 -2.9,3 -5.1,7 -6.5,11.4 -0.1,0.2 -0.1,0.4 -0.2,0.6 -1.3,4.3 -1.6,9 -1.1,13.4 l 3.7,1.6 c -0.3,-1.3 -0.4,-2.7 -0.5,-4.1 -0.1,-3.4 0.3,-7 1.3,-10.5 1.6,-5.5 4.4,-10.1 7.9,-12.9 0,0 3.7,-3 5.2,-4.2 v 0 l 0.6,-0.5 7.3,-5.8 217.3,-172.4 2,-1.6 18.9,-15 3.6,-2.9 c 0.5,-0.4 0.4,-1.6 0.2,-2.1 l -0.5,-2 z"
   id="path28"
   inkscape:connector-curvature="0"
   style="fill:#ef9a9e" />
					<path
   class="st5"
   d="m 2233.4,611.9 -2,1.6 -217.3,172.4 -7.3,5.8 c 0,0 -0.2,0.2 -0.6,0.5 -1.5,1.2 -5.2,4.2 -5.2,4.2 -3.4,2.7 -6.3,7.4 -7.9,12.9 -1,3.5 -1.4,7.1 -1.3,10.5 1,2.2 2.3,3.9 3.9,5.1 0.7,0.6 1.5,1.1 2.3,1.4 3.3,1.4 7.1,0.8 10.7,-2.1 l 251.2,-199.3 v -0.1 l -0.5,-1.9 -0.2,-0.6 -6.9,-25.4 z"
   id="path30"
   inkscape:connector-curvature="0"
   style="fill:#f1f0f2" />
					<g
   id="g36">
						<path
   class="st6"
   d="m 2006.2,823.1 v 0 c 0.3,-0.2 0.8,-0.6 1.2,-0.9 -0.5,0.3 -0.9,0.7 -1.2,0.9 z"
   id="path32"
   inkscape:connector-curvature="0"
   style="fill:#fdc7c2" />
						<path
   class="st6"
   d="m 2259.4,622.9 0.5,1.9 v 0.1 l -251.2,199.3 c -3.6,2.9 -7.5,3.5 -10.7,2.1 -0.8,-0.3 -1.6,-0.8 -2.3,-1.4 0.7,0.6 1.5,1.1 2.3,1.4 l -5.7,-2.4 c 0.1,0.4 0.1,0.7 0.2,1.1 0.1,0.3 0.1,0.5 0.2,0.8 0.2,0.7 0.4,1.4 0.7,2 1.1,2.8 2.7,5 4.5,6.3 0.4,0.3 0.9,0.6 1.4,0.8 1,0.4 1.7,0.4 2.1,0.4 1.4,-0.1 3,-0.9 4.6,-2.2 v 0 c 0.6,-0.5 2.1,-1.6 2.1,-1.6 l 7.3,-5.8 249.6,-198 v 0 c 1.1,-0.9 0.8,-2.1 -0.7,-2.8 -1.3,-0.5 -2.9,-1.1 -4.9,-2 z"
   id="path34"
   inkscape:connector-curvature="0"
   style="fill:#fdc7c2" />
					</g>
					<path
   class="st7"
   d="m 1994.3,793.5 -476.1,-200.1 -2.8,-1.2 -16.8,-7.1 -8.5,-3.6 -1.3,-0.6 -7,-3 -2.8,-1.2 c -3.9,3.1 -6.9,8.1 -8.5,13.7 -1.6,5.6 -1.9,11.7 -0.4,17.1 1.5,5.4 4.4,9 8,10.5 l 519.2,218.2 c -3.5,-1.5 -6.5,-5.1 -8,-10.5 -0.2,-0.9 -0.4,-1.8 -0.6,-2.7 -0.1,-0.3 -0.1,-0.7 -0.1,-1 -0.6,-4.4 -0.2,-9.1 1.1,-13.4 0.1,-0.2 0.1,-0.4 0.2,-0.6 1.4,-4.4 3.6,-8.5 6.5,-11.4 0.6,-0.6 1.2,-1.2 1.8,-1.7 z"
   id="path38"
   inkscape:connector-curvature="0"
   style="fill:#ffb7b3" />
					<path
   class="st6"
   d="M 1733.7,374.9 1479,577 l 2.8,1.2 7,3 1.3,0.6 8.5,3.6 16.8,7.1 2.8,1.2 476.1,200.1 3.9,1.6 5.9,-4.7 224.6,-178.2 2,-1.6 20.9,-16.6 3.5,-2.8 v 0 c 1.1,-0.9 0.8,-2.1 -0.7,-2.8 -39,-16.4 -454.3,-191.6 -510.5,-214.7 -3.4,-1.3 -7.8,-0.9 -10.2,0.9 z"
   id="path40"
   inkscape:connector-curvature="0"
   style="fill:#fdc7c2" />
				</g>
				<polygon
   class="st8"
   points="2143.6,555.4 2132.6,564.1 2131.6,564.9 2132.6,564.1 "
   id="polygon44"
   style="fill:none" />
				<path
   class="st9"
   d="m 2169.2,580.5 -0.7,1.4 c 0.5,-0.5 0.7,-0.9 0.7,-1.4 z"
   id="path46"
   inkscape:connector-curvature="0"
   style="fill:#a1b7ce" />
				<path
   class="st10"
   d="m 2158.8,542.4 -0.6,1.5 c 0.5,-0.5 0.7,-1 0.6,-1.5 z"
   id="path48"
   inkscape:connector-curvature="0"
   style="fill:#c5defd" />
				<polygon
   class="st10"
   points="2130.5,565.8 2131.6,564.9 2130.5,565.8 1895.7,752.1 "
   id="polygon50"
   style="fill:#c5defd" />
				<polygon
   class="st10"
   points="2158.1,543.9 2154.5,546.8 2143.6,555.4 2154.5,546.8 "
   id="polygon52"
   style="fill:#c5defd" />
				<path
   class="st11"
   d="m 1883,765.2 c 1.3,-2.4 2.8,-4.6 4.5,-6.4 0.1,-0.1 0.1,-0.1 0.2,-0.2 -0.1,0.1 -0.1,0.1 -0.2,0.2 -1.7,1.8 -3.2,4 -4.5,6.4 z"
   id="path54"
   inkscape:connector-curvature="0"
   style="fill:#deeeff" />
				<path
   class="st11"
   d="m 1881.8,767.8 c -0.4,0.9 -0.7,1.9 -1.1,2.9 0.4,-0.9 0.7,-1.9 1.1,-2.9 z"
   id="path56"
   inkscape:connector-curvature="0"
   style="fill:#deeeff" />
				<path
   class="st11"
   d="m 1879.7,774.8 c -0.2,1.2 -0.4,2.3 -0.5,3.5 0.2,-1.1 0.3,-2.3 0.5,-3.5 z"
   id="path58"
   inkscape:connector-curvature="0"
   style="fill:#deeeff" />
				<path
   class="st11"
   d="m 1898.5,753.4 -0.7,0.5 v 0 0 0 c 0.4,-0.3 0.7,-0.5 0.7,-0.5 z"
   id="path60"
   inkscape:connector-curvature="0"
   style="fill:#deeeff" />
				<path
   class="st11"
   d="M 1897.8,753.9 Z"
   id="path62"
   inkscape:connector-curvature="0"
   style="fill:#deeeff" />
				<path
   class="st11"
   d="m 1897.8,786.2 c 0.3,-0.2 0.8,-0.6 1.2,-0.9 -0.4,0.3 -0.9,0.7 -1.2,0.9 z"
   id="path64"
   inkscape:connector-curvature="0"
   style="fill:#deeeff" />
				<path
   class="st11"
   d="m 1879.4,785.4 v 0 c -0.1,-0.6 -0.1,-1.2 -0.2,-1.7 0.1,0.5 0.1,1.1 0.2,1.7 z"
   id="path66"
   inkscape:connector-curvature="0"
   style="fill:#deeeff" />
				<path
   class="st11"
   d="m 1889.5,757 c -0.6,0.5 -1.2,1 -1.7,1.6 0.5,-0.5 1,-1.1 1.7,-1.6 z"
   id="path68"
   inkscape:connector-curvature="0"
   style="fill:#deeeff" />
				<path
   class="st11"
   d="m 1883,765.2 c -0.4,0.8 -0.8,1.7 -1.2,2.6 0.4,-0.9 0.8,-1.7 1.2,-2.6 z"
   id="path70"
   inkscape:connector-curvature="0"
   style="fill:#deeeff" />
				<g
   id="g78">
					<path
   class="st12"
   d="m 1887.2,792.3 c 1.1,3 2.8,5.3 4.7,6.6 0.5,0.3 0.9,0.6 1.4,0.8 1,0.4 1.8,0.4 2.2,0.4 1.4,-0.1 3.1,-0.9 4.8,-2.3 v 0 c 0.4,-0.3 1.2,-0.9 1.7,-1.3 l -15.7,-6.6 c 0,0.1 0,0.1 0,0.2 0.4,0.8 0.6,1.5 0.9,2.2 z"
   id="path72"
   inkscape:connector-curvature="0"
   style="fill:#e7f1f2" />
					<path
   class="st13"
   d="m 2161.5,543.5 c 0.1,0.5 -0.1,1.1 -0.6,1.5 l -3.6,2.9 -10.9,8.7 -10.9,8.7 -1.1,0.8 -1.1,0.8 -234.9,186.3 -0.1,0.1 -6.2,4.9 c -0.6,0.5 -1.2,1 -1.7,1.6 -0.1,0.1 -0.1,0.1 -0.2,0.2 -1.8,1.8 -3.3,4 -4.5,6.4 -0.4,0.8 -0.8,1.7 -1.2,2.6 -0.4,0.9 -0.7,1.9 -1.1,2.9 -0.1,0.2 -0.1,0.4 -0.2,0.6 -0.3,1.1 -0.6,2.3 -0.8,3.5 -0.2,1.2 -0.4,2.3 -0.5,3.5 -0.1,1.8 -0.2,3.5 0,5.3 0,0.6 0.1,1.2 0.2,1.7 v 0 c 0,0.4 0.1,0.7 0.1,1.1 0,0.2 0.1,0.4 0.1,0.6 0.1,0.7 0.3,1.5 0.5,2.2 1.5,5.6 4.6,9.4 8.3,11 3.7,1.6 8.1,0.9 12.2,-2.4 l 1.7,-1.3 -2.9,-1.2 c -0.5,0.4 -1.3,1 -1.7,1.3 v 0 c -1.7,1.3 -3.4,2.1 -4.8,2.3 -0.5,0 -1.2,0 -2.2,-0.4 -0.5,-0.2 -1,-0.5 -1.4,-0.8 -1.9,-1.3 -3.6,-3.7 -4.7,-6.6 -0.3,-0.7 -0.5,-1.4 -0.7,-2.1 0,-0.1 0,-0.1 0,-0.2 0,-0.2 -0.1,-0.4 -0.1,-0.6 -0.1,-0.4 -0.2,-0.8 -0.2,-1.1 -0.1,-0.7 -0.2,-1.4 -0.3,-2.1 -0.1,-0.7 -0.1,-1.5 -0.2,-2.2 -0.2,-3.6 0.3,-7.3 1.4,-11 1.7,-5.7 4.7,-10.6 8.2,-13.5 0,0 3.9,-3.1 5.4,-4.4 v 0 0 0 l 0.7,-0.5 0.1,-0.1 7.6,-6 226.9,-180.4 2.1,-1.7 19.8,-15.7 3.8,-3 c 0.6,-0.4 0.4,-1.7 0.2,-2.2 z"
   id="path74"
   inkscape:connector-curvature="0"
   style="fill:#cbd7d8" />
					<path
   class="st14"
   d="m 2160.1,542.1 c -40.8,-17.2 -155,-65.9 -213.8,-90 -3.4,-1.4 -8.1,-0.9 -10.5,1 l -260.3,206.5 -6.2,4.9 c -4.1,3.3 -7.2,8.5 -8.9,14.4 -1.5,5.1 -1.9,10.6 -0.9,15.7 0.1,0.8 0.3,1.5 0.5,2.2 1.5,5.6 4.6,9.4 8.3,11 l 222.9,93.7 c -3.7,-1.6 -6.8,-5.3 -8.3,-11 -0.2,-0.7 -0.3,-1.5 -0.5,-2.2 0,-0.2 -0.1,-0.4 -0.1,-0.6 -0.1,-0.4 -0.1,-0.7 -0.1,-1.1 v 0 c -0.1,-0.6 -0.1,-1.2 -0.2,-1.7 -0.1,-1.7 -0.1,-3.5 0,-5.3 0.1,-1.2 0.3,-2.4 0.5,-3.5 0.2,-1.2 0.5,-2.3 0.8,-3.5 0.1,-0.2 0.1,-0.4 0.2,-0.6 0.3,-1 0.7,-2 1.1,-2.9 0.4,-0.9 0.8,-1.8 1.2,-2.6 1.3,-2.4 2.8,-4.6 4.5,-6.4 0.1,-0.1 0.1,-0.1 0.2,-0.2 0.6,-0.6 1.1,-1.1 1.7,-1.6 l 6.1,-4.9 0.1,-0.1 234.9,-186.3 1.1,-0.8 1.1,-0.8 10.9,-8.7 10.9,-8.7 3.6,-2.9 0.6,-1.5 c -0.1,-0.6 -0.6,-1.1 -1.4,-1.5 z"
   id="path76"
   inkscape:connector-curvature="0"
   style="fill:#edf4f4" />
				</g>
				<polygon
   class="st11"
   points="1889.5,757 1895.6,752.2 1895.7,752.1 1895.6,752.2 "
   id="polygon80"
   style="fill:#deeeff" />
			</g>
			<path
   class="st8"
   d="m 2179,545.1 4.2,-2.4 z"
   id="path84"
   inkscape:connector-curvature="0"
   style="fill:none" />
			<path
   class="st8"
   d="m 2184.2,541.2 -1,1.4 c 0.7,-0.3 1,-0.9 1,-1.4 z"
   id="path86"
   inkscape:connector-curvature="0"
   style="fill:none" />
			<path
   class="st15"
   d="m 2169.4,574.8 4.2,-2.4 z"
   id="path88"
   inkscape:connector-curvature="0"
   style="fill:#475256" />
			<path
   class="st15"
   d="m 2174.7,570.9 -1,1.4 c 0.6,-0.3 1,-0.9 1,-1.4 z"
   id="path90"
   inkscape:connector-curvature="0"
   style="fill:#475256" />
			<polygon
   class="st15"
   points="2238.1,614.6 2236.8,615.3 "
   id="polygon92"
   style="fill:#475256" />
			<path
   class="st16"
   d="m 2238.1,614.6 c -15,-8.7 -38.1,-22.1 -66.1,-38.3 l 1.9,-1.1 c 0.7,-0.4 0.8,-1.6 0.8,-2.2 v -2.1 0 c 0,0.5 -0.4,1 -1,1.4 l -4.2,2.4 v 0 l 4.2,-2.4 1,-1.4 c 0,-0.5 -0.3,-1.1 -1,-1.5 -35.6,-20.6 -135.3,-79 -187,-108.1 -3,-1.7 -7.7,-1.7 -10.7,0 l -1.3,0.7 c -78.3,-45.3 -147.4,-85.1 -167,-96.2 -2.8,-1.6 -7.4,-1.6 -10.2,0 l -306.1,176.7 c -2.4,1.4 -4.7,3.3 -6.7,5.5 0.8,2.5 2.3,4.4 4.2,5.5 l 158.6,91.6 c -0.1,0.8 -0.1,1.5 -0.1,2.2 0,5.7 2,9.7 5.3,11.6 l 194.9,112.6 c 3.2,1.9 7.7,1.6 12.7,-1.2 l 2,-1.2 70.3,57.7 c 3.1,1.8 7.4,1.5 12.1,-1.2 l 294.9,-171 10.4,-23 4.4,-2.5 c 0.6,-0.4 0.8,-1.6 0.8,-2.1 v -2 0 c 0,-0.5 -0.3,-1 -1,-1.4 -3,-1.5 -8.5,-4.7 -16.1,-9 l -1.2,0.7 z m -290.9,173.1 c 0.1,0 0.2,-0.1 0.4,-0.2 -0.2,0.1 -0.3,0.2 -0.4,0.2 z"
   id="path94"
   inkscape:connector-curvature="0"
   style="opacity:0.2;fill:#51506d;enable-background:new" />
			<polygon
   class="st15"
   points="1963.8,772.9 1964.6,772.5 1973.3,767.4 1964.6,772.5 "
   id="polygon96"
   style="fill:#475256" />
			<path
   class="st15"
   d="m 1942.2,798.8 c -0.3,1.4 -0.5,2.8 -0.6,4.1 0.1,-1.3 0.3,-2.7 0.6,-4.1 z"
   id="path98"
   inkscape:connector-curvature="0"
   style="fill:#475256" />
			<g
   id="g162">
				<g
   id="g120">
					<path
   class="st17"
   d="m 1954.2,791.7 -8.7,5 c 0,0 -1.7,0.9 -2.5,1.4 v 0 c -1.9,1.1 -3.8,1.7 -5.1,1.7 -0.5,0 -1.2,-0.1 -2,-0.6 -0.4,-0.2 -0.8,-0.5 -1.1,-0.9 -1.5,-1.4 -2.4,-3.8 -2.8,-6.7 -0.1,-0.7 -0.1,-1.4 -0.1,-2.1 0,-0.3 0,-0.5 0,-0.8 0,-0.4 0,-0.7 0.1,-1.1 l -3.3,-1.9 c -0.1,0.3 -0.1,0.7 -0.2,1 -0.1,0.9 -0.2,1.8 -0.2,2.7 0,5.4 1.9,9.3 5,11.1 3.1,1.8 7.4,1.5 12.1,-1.2 L 2254.6,620 c 0.2,-0.1 0.4,-0.3 0.4,-0.5 v -2.4 l -1,1.3 z"
   id="path100"
   inkscape:connector-curvature="0"
   style="fill:#b0ccea" />
					<path
   class="st3"
   d="m 1954.2,757.8 c 0.5,-0.3 0.8,-0.4 0.8,-0.4 z"
   id="path102"
   inkscape:connector-curvature="0"
   style="fill:#2693ed" />
					<path
   class="st4"
   d="m 1937,790.7 c -0.7,-0.4 -1.4,-0.9 -1.9,-1.6 -1.2,-1.3 -2,-3.2 -2.4,-5.4 -0.3,1.4 -0.5,2.8 -0.6,4.1 z"
   id="path104"
   inkscape:connector-curvature="0"
   style="fill:#d4c8db" />
					<path
   class="st17"
   d="m 2254.2,581.8 -4.2,2.4 -25.1,14.5 -2.4,1.4 -269.9,155.8 -7.1,4.1 c -0.8,0.4 -1.5,1 -2.3,1.5 -3.6,2.7 -6.9,6.4 -9.5,10.7 -0.1,0.2 -0.2,0.4 -0.4,0.6 -2.4,4.2 -4,8.7 -4.7,13.1 l 3.3,1.9 c 0.1,-1.3 0.3,-2.7 0.6,-4.1 0.8,-3.4 2.2,-6.9 4.1,-10.2 3,-5.2 7.1,-9.6 11.3,-12 0,0 4.4,-2.6 6.3,-3.7 v 0 l 0.8,-0.4 8.8,-5.1 261.1,-150.7 2.4,-1.4 22.7,-13.1 4.4,-2.5 c 0.6,-0.4 0.8,-1.6 0.8,-2.1 v -2 z"
   id="path106"
   inkscape:connector-curvature="0"
   style="fill:#b0ccea" />
					<path
   class="st5"
   d="m 2227.3,600.1 -2.4,1.4 -261.1,150.7 -8.8,5.1 c 0,0 -0.3,0.2 -0.8,0.4 -1.8,1.1 -6.3,3.7 -6.3,3.7 -4.1,2.4 -8.2,6.8 -11.3,12 -1.9,3.4 -3.3,6.9 -4.1,10.2 0.4,2.3 1.2,4.1 2.4,5.4 0.6,0.6 1.2,1.2 1.9,1.6 2.9,1.7 6.8,1.4 11.2,-1.1 l 301.8,-174.3 v -0.1 -1.9 -0.6 -25.7 z"
   id="path108"
   inkscape:connector-curvature="0"
   style="fill:#f1f0f2" />
					<g
   id="g114">
						<path
   class="st10"
   d="m 1945.9,788.3 v 0 c 0.3,-0.2 0.9,-0.5 1.4,-0.8 -0.5,0.3 -1.1,0.6 -1.4,0.8 z"
   id="path110"
   inkscape:connector-curvature="0"
   style="fill:#c5defd" />
						<path
   class="st10"
   d="m 2250,613.3 v 1.9 0.1 l -301.8,174.3 c -4.3,2.5 -8.3,2.7 -11.2,1.1 -0.7,-0.4 -1.4,-0.9 -1.9,-1.6 0.6,0.6 1.2,1.2 1.9,1.6 l -5,-2.9 c 0,0.4 -0.1,0.7 -0.1,1.1 0,0.3 0,0.5 0,0.8 0,0.7 0.1,1.4 0.1,2.1 0.3,2.9 1.3,5.2 2.8,6.7 0.4,0.3 0.7,0.7 1.1,0.9 0.9,0.5 1.6,0.6 2,0.6 1.4,0 3.2,-0.6 5.1,-1.7 v 0 c 0.7,-0.4 2.5,-1.4 2.5,-1.4 l 8.7,-5 299.9,-173.2 v 0 c 1.3,-0.8 1.3,-2 0,-2.8 -1,-0.8 -2.4,-1.6 -4.1,-2.6 z"
   id="path112"
   inkscape:connector-curvature="0"
   style="fill:#c5defd" />
					</g>
					<path
   class="st10"
   d="m 1942.1,758 -416.4,-240.4 -2.4,-1.4 -14.7,-8.5 -7.4,-4.3 -1.2,-0.7 -6.1,-3.5 -2.4,-1.4 c -4.7,2.7 -9,7.4 -12.1,12.8 -3.1,5.4 -5,11.4 -5,16.9 0,5.4 1.9,9.3 5,11.1 l 454,262.2 c -3.1,-1.8 -5,-5.6 -5,-11.1 0,-0.9 0.1,-1.8 0.2,-2.7 0,-0.3 0.1,-0.7 0.2,-1 0.6,-4.4 2.3,-9 4.7,-13.1 0.1,-0.2 0.2,-0.4 0.4,-0.6 2.6,-4.3 5.8,-8 9.5,-10.7 0.7,-0.5 1.5,-1.1 2.3,-1.5 z"
   id="path116"
   inkscape:connector-curvature="0"
   style="fill:#c5defd" />
					<path
   class="st11"
   d="m 1797.5,321.1 -306.1,176.7 2.4,1.4 6.1,3.5 1.2,0.7 7.4,4.3 14.7,8.5 2.4,1.4 416.5,240.4 3.4,2 7.1,-4.1 269.9,-155.8 2.4,-1.4 25.1,-14.5 4.2,-2.4 v 0 c 1.3,-0.8 1.3,-2 0,-2.8 -34.1,-19.7 -397.1,-230.1 -446.4,-257.9 -2.9,-1.6 -7.5,-1.6 -10.3,0 z"
   id="path118"
   inkscape:connector-curvature="0"
   style="fill:#deeeff" />
				</g>
				<polygon
   class="st8"
   points="2153.7,536.2 2140.6,543.8 2139.3,544.5 2140.6,543.8 "
   id="polygon122"
   style="fill:none" />
				<path
   class="st9"
   d="m 2172.3,563.3 -1,1.3 c 0.6,-0.4 0.9,-0.8 1,-1.3 z"
   id="path124"
   inkscape:connector-curvature="0"
   style="fill:#a1b7ce" />
				<path
   class="st10"
   d="m 2172.3,524.7 -1,1.4 c 0.6,-0.4 1,-0.9 1,-1.4 z"
   id="path126"
   inkscape:connector-curvature="0"
   style="fill:#c5defd" />
				<polygon
   class="st10"
   points="2138.1,545.3 2139.3,544.5 2138.1,545.3 1855.9,708.2 "
   id="polygon128"
   style="fill:#c5defd" />
				<polygon
   class="st10"
   points="2171.2,526.1 2166.9,528.6 2153.7,536.2 2166.9,528.6 "
   id="polygon130"
   style="fill:#c5defd" />
				<path
   class="st11"
   d="m 1839.8,720.1 c 1.9,-2.3 4,-4.3 6.2,-6 0.1,-0.1 0.1,-0.1 0.2,-0.1 -0.1,0 -0.1,0.1 -0.2,0.1 -2.2,1.6 -4.3,3.7 -6.2,6 z"
   id="path132"
   inkscape:connector-curvature="0"
   style="fill:#deeeff" />
				<path
   class="st11"
   d="m 1837.9,722.5 c -0.6,0.9 -1.3,1.8 -1.8,2.8 0.6,-0.9 1.2,-1.9 1.8,-2.8 z"
   id="path134"
   inkscape:connector-curvature="0"
   style="fill:#deeeff" />
				<path
   class="st11"
   d="m 1834,729.3 c -0.5,1.1 -1,2.3 -1.4,3.4 0.4,-1.1 0.9,-2.3 1.4,-3.4 z"
   id="path136"
   inkscape:connector-curvature="0"
   style="fill:#deeeff" />
				<path
   class="st11"
   d="m 1858.3,709.7 -0.8,0.5 v 0 0 0 c 0.5,-0.3 0.8,-0.5 0.8,-0.5 z"
   id="path138"
   inkscape:connector-curvature="0"
   style="fill:#deeeff" />
				<path
   class="st11"
   d="M 1857.5,710.2 Z"
   id="path140"
   inkscape:connector-curvature="0"
   style="fill:#deeeff" />
				<path
   class="st11"
   d="m 1848.7,742.1 c 0.4,-0.2 1,-0.5 1.5,-0.8 -0.5,0.3 -1.1,0.6 -1.5,0.8 z"
   id="path142"
   inkscape:connector-curvature="0"
   style="fill:#deeeff" />
				<path
   class="st11"
   d="m 1830.8,739.7 v 0 c 0.1,-0.6 0.2,-1.1 0.3,-1.7 -0.1,0.5 -0.2,1.1 -0.3,1.7 z"
   id="path144"
   inkscape:connector-curvature="0"
   style="fill:#deeeff" />
				<path
   class="st11"
   d="m 1848.4,712.5 c -0.7,0.4 -1.4,0.9 -2.2,1.4 0.7,-0.4 1.4,-0.9 2.2,-1.4 z"
   id="path146"
   inkscape:connector-curvature="0"
   style="fill:#deeeff" />
				<path
   class="st11"
   d="m 1839.8,720.1 c -0.7,0.8 -1.3,1.6 -1.9,2.5 0.6,-0.9 1.2,-1.7 1.9,-2.5 z"
   id="path148"
   inkscape:connector-curvature="0"
   style="fill:#deeeff" />
				<g
   id="g158">
					<path
   class="st18"
   d="m 1836.6,747.1 c 0.3,3 1.3,5.5 2.9,7 0.4,0.4 0.8,0.7 1.2,0.9 0.9,0.5 1.6,0.6 2.1,0.6 1.4,0 3.4,-0.6 5.4,-1.8 v 0 c 0.5,-0.3 1.4,-0.8 2,-1.1 l -13.7,-7.9 c 0,0.1 0,0.1 0,0.2 0,0.7 0,1.4 0.1,2.1 z"
   id="path150"
   inkscape:connector-curvature="0"
   style="fill:#bdd0d1" />
					<path
   class="st13"
   d="m 2174.7,526.1 c 0,0.5 -0.4,1 -1,1.4 l -4.4,2.5 -13.2,7.6 -13.1,7.6 -1.3,0.7 -1.3,0.7 -282.2,163 -0.1,0.1 -7.4,4.3 c -0.7,0.4 -1.4,0.9 -2.2,1.4 -0.1,0 -0.1,0.1 -0.2,0.1 -2.2,1.6 -4.3,3.7 -6.2,6 -0.7,0.8 -1.3,1.6 -1.9,2.5 -0.6,0.9 -1.3,1.8 -1.8,2.8 -0.1,0.2 -0.3,0.4 -0.4,0.6 -0.6,1.1 -1.2,2.2 -1.7,3.3 -0.5,1.1 -1,2.3 -1.4,3.4 -0.6,1.7 -1.1,3.5 -1.5,5.2 -0.1,0.6 -0.2,1.2 -0.3,1.7 v 0 c -0.1,0.4 -0.1,0.7 -0.2,1.1 0,0.2 0,0.4 -0.1,0.6 -0.1,0.8 -0.1,1.5 -0.1,2.2 0,5.7 2,9.7 5.3,11.6 3.2,1.9 7.7,1.6 12.7,-1.2 l 2,-1.2 -2.5,-1.5 c -0.6,0.3 -1.5,0.8 -2,1.1 v 0 c -2,1.2 -3.9,1.8 -5.4,1.8 -0.5,0 -1.2,-0.1 -2.1,-0.6 -0.4,-0.2 -0.8,-0.6 -1.2,-0.9 -1.5,-1.5 -2.6,-4 -2.9,-7 -0.1,-0.7 -0.1,-1.4 -0.1,-2.2 0,-0.1 0,-0.1 0,-0.2 0,-0.2 0,-0.4 0,-0.6 0,-0.4 0.1,-0.8 0.1,-1.2 0.1,-0.7 0.1,-1.4 0.2,-2.1 0.1,-0.7 0.3,-1.4 0.4,-2.2 0.8,-3.5 2.3,-7.2 4.3,-10.7 3.2,-5.5 7.5,-10.1 11.8,-12.6 0,0 4.6,-2.7 6.5,-3.8 v 0 0 0 l 0.8,-0.5 0.1,-0.1 9.1,-5.3 273.1,-157.7 2.5,-1.5 23.7,-13.7 4.6,-2.6 c 0.7,-0.4 0.8,-1.6 0.8,-2.2 z"
   id="path152"
   inkscape:connector-curvature="0"
   style="fill:#cbd7d8" />
					<path
   class="st19"
   d="m 2173.6,524.6 c -35.6,-20.6 -135.3,-79 -187,-108.1 -3,-1.7 -7.7,-1.7 -10.7,0 l -312.7,180.5 -7.5,4.3 c -0.8,0.5 -1.6,1 -2.4,1.6 l 194.9,112.6 c 0.1,0 0.1,-0.1 0.2,-0.1 0.7,-0.5 1.4,-1 2.2,-1.4 l 7.4,-4.3 0.1,-0.1 282.2,-163 1.3,-0.7 1.3,-0.7 13.1,-7.6 13.1,-7.6 4.4,-2.5 1,-1.4 c 0.2,-0.6 -0.2,-1.1 -0.9,-1.5 z"
   id="path154"
   inkscape:connector-curvature="0"
   style="fill:#f8feff" />
					<path
   class="st20"
   d="m 1643.2,614.7 c -2.8,4.9 -4.7,10.3 -5.2,15.4 -0.1,0.8 -0.1,1.5 -0.1,2.2 0,5.7 2,9.7 5.3,11.6 l 194.9,112.6 c -3.2,-1.9 -5.3,-5.9 -5.3,-11.6 0,-0.7 0.1,-1.5 0.1,-2.2 0,-0.2 0,-0.4 0.1,-0.6 0,-0.4 0.1,-0.7 0.2,-1.1 v 0 c 0.1,-0.6 0.2,-1.1 0.3,-1.7 0.3,-1.7 0.8,-3.5 1.5,-5.2 0.4,-1.2 0.9,-2.3 1.4,-3.4 0.5,-1.1 1.1,-2.3 1.7,-3.3 0.1,-0.2 0.3,-0.4 0.4,-0.6 0.6,-1 1.2,-1.9 1.8,-2.8 0.6,-0.8 1.2,-1.7 1.9,-2.5 1.9,-2.3 4,-4.3 6.2,-6 v 0 L 1653.5,602.9 c -4,2.9 -7.6,7.1 -10.3,11.8 z"
   id="path156"
   inkscape:connector-curvature="0"
   style="fill:#f2f6f9" />
				</g>
				<polygon
   class="st11"
   points="1848.4,712.5 1855.8,708.3 1855.9,708.2 1855.8,708.3 "
   id="polygon160"
   style="fill:#deeeff" />
			</g>
			<path
   class="st20"
   d="m 1806.4,640.4 v 0 c -4.7,-2.7 -4.7,-7.2 0,-9.9 l 229.7,-132.6 c 4.7,-2.7 12.4,-2.7 17.2,0 v 0 c 4.7,2.7 4.7,7.2 0,9.9 l -229.7,132.6 c -4.8,2.7 -12.5,2.7 -17.2,0 z"
   id="path164"
   inkscape:connector-curvature="0"
   style="fill:#f2f6f9" />
			<path
   class="st20"
   d="m 1771.2,620 v 0 c -4.7,-2.7 -4.7,-7.2 0,-9.9 l 229.7,-132.6 c 4.7,-2.7 12.4,-2.7 17.2,0 v 0 c 4.7,2.7 4.7,7.2 0,9.9 L 1788.4,620 c -4.8,2.8 -12.5,2.8 -17.2,0 z"
   id="path166"
   inkscape:connector-curvature="0"
   style="fill:#f2f6f9" />
			<path
   class="st21"
   d="m 1950.9,576.3 c 0,0.4 -0.1,0.8 -0.2,1.2 0,0.1 -0.1,0.2 -0.1,0.3 -0.2,0.4 -0.3,0.7 -0.6,1.1 v 0 c -1.9,2.5 -6.4,4.9 -13.1,7 l 3.3,16.5 4.4,21.8 v 0 0 h -0.9 c 0.3,0.1 0.6,0.2 0.8,0.4 v 0 c 0.2,0.1 0.3,0.3 0.3,0.4 v 0 0 0 0 c 0,0.1 -0.1,0.2 -0.1,0.2 -0.1,0.1 -0.2,0.3 -0.4,0.4 -0.1,0.1 -0.2,0.1 -0.3,0.2 l -1.9,2 -5.8,5.8 v 0 0 l -11.1,-7.3 c -0.8,-0.3 -1.3,-0.6 -1.4,-0.9 v 0 c 0,-0.1 0,-0.3 0.2,-0.4 v 0 c 0.1,-0.1 0.3,-0.3 0.6,-0.4 v 0 h -0.9 v 0 0 l -3.9,-19.2 -3,-15.1 c -0.8,0.1 -1.6,0.2 -2.3,0.4 l 7,35 v 0 0 h -0.9 v 0 c 0.3,0.1 0.6,0.2 0.8,0.4 v 0 c 0.2,0.1 0.3,0.3 0.3,0.4 v 0 0 0 0 0 0 0 c 0,0.1 -0.1,0.2 -0.1,0.3 -0.1,0.2 -0.3,0.4 -0.7,0.6 l -4.6,4.7 -3.1,3.1 v 0 0 l -4.2,-2.7 -6.9,-4.5 v 0 l 0.5,2.3 h -0.9 c 0.3,0.1 0.6,0.2 0.8,0.4 v 0 c 0.2,0.1 0.3,0.3 0.3,0.4 v 0 0 0 0 c 0,0.3 -0.3,0.6 -0.8,0.9 l -7.7,7.8 v 0 0 l -11.1,-7.3 c -0.8,-0.3 -1.3,-0.6 -1.4,-0.9 v 0 0 0 c 0,-0.2 0,-0.3 0.2,-0.4 v 0 c 0.1,-0.1 0.3,-0.3 0.6,-0.4 h -0.9 l -7.4,-36.7 c -2.1,0.1 -4.3,0.1 -6.5,0.2 l -9.2,37.4 h -0.9 c 0.3,0.1 0.5,0.3 0.6,0.4 v 0 c 0.1,0.1 0.2,0.3 0.1,0.4 v 0 0 0 0 0 0 0 0 0 c 0,0.1 -0.2,0.2 -0.3,0.3 -0.2,0.1 -0.4,0.3 -0.7,0.4 -0.1,0 -0.1,0.1 -0.2,0.1 l -11.1,7.3 v 0 0 l -7.7,-7.8 c -0.2,-0.1 -0.3,-0.2 -0.5,-0.3 -0.3,-0.2 -0.5,-0.4 -0.5,-0.6 0,0 0,0 0,-0.1 v 0 0 c 0,-0.2 0.2,-0.3 0.4,-0.4 v 0 c 0.2,-0.1 0.5,-0.3 0.8,-0.4 h -0.9 l 8,-32.6 1.1,-4.3 c -21.2,-0.6 -40,-2.6 -53.9,-5.6 l -35.7,40.1 -0.9,-0.1 c 0.2,0.1 0.3,0.3 0.3,0.4 v 0 c 0,0.1 0,0.3 -0.1,0.4 v 0 0 0 0 0 c -0.1,0.1 -0.3,0.2 -0.5,0.3 -0.3,0.1 -0.7,0.3 -1.2,0.4 l -12.1,5 -3.2,1.3 v 0 0 l -2.8,-8.1 c -0.5,-0.3 -0.6,-0.7 -0.3,-1 v 0 c 0.1,-0.1 0.3,-0.3 0.6,-0.4 v 0 c 0.3,-0.1 0.6,-0.2 1,-0.3 h -0.2 l -0.7,-0.1 15.9,-17.9 22.7,-25.4 c -3.9,-1.9 -6.3,-3.9 -6.9,-6 -0.1,-0.3 -0.1,-0.6 -0.1,-0.9 v 0 0 0 -68.9 c 0,-3.4 4.8,-6.6 13.2,-9.3 5.3,-1.7 12.1,-3.3 20,-4.5 v 0 c 15.8,-2.6 36,-4.1 58.1,-4.1 34.7,0 64.8,3.8 80.3,9.4 0.1,0 0.2,0.1 0.2,0.1 6.9,2.5 10.8,5.4 10.8,8.4 v 0 69 z"
   id="path168"
   inkscape:connector-curvature="0"
   style="opacity:0.5;fill:#80a3e5;enable-background:new" />
		</g><g
               id="g210"
               transform="translate(436.71477,131.01443)">
			<path
   class="st22"
   d="m 1950.9,331.5 c 0,-29.1 -40.9,-52.7 -91.3,-52.7 -50.4,0 -91.3,23.6 -91.3,52.7 v 0 c 0,29.1 40.9,52.7 91.3,52.7 50.4,0 91.3,-23.6 91.3,-52.7 z"
   id="path172"
   inkscape:connector-curvature="0"
   style="fill:#00ed92" />
			<g
   id="g178">
				<path
   class="st23"
   d="m 1736.6,183.6 107.1,354.1 c 1,3.2 6.3,4.4 11.8,2.8 5.6,-1.7 9.3,-5.6 8.3,-8.9 l -107,-354.1 z"
   id="path174"
   inkscape:connector-curvature="0"
   style="fill:#7cacf1" />
				<path
   class="st24"
   d="m 1756,175 v 0 0 c -0.3,-0.9 -0.9,-1.6 -1.7,-2.1 l -15.3,-18.7 -2.8,24 c -0.5,1 -0.6,2 -0.3,3 1,3.2 6.3,4.4 11.8,2.8 5.6,-1.7 9.3,-5.7 8.3,-9 0,0.1 0,0.1 0,0 z"
   id="path176"
   inkscape:connector-curvature="0"
   style="fill:#5d93e4" />
			</g>
			<g
   id="g184">
				<path
   class="st25"
   d="m 1837.3,170.5 30.9,368.6 c 0.3,3.3 5.2,5.7 11,5.2 5.8,-0.5 10.3,-3.6 10,-6.9 l -30.9,-368.6 z"
   id="path180"
   inkscape:connector-curvature="0"
   style="fill:#3d3c5e" />
				<path
   class="st26"
   d="m 1858.1,166.2 v 0 0 c -0.1,-0.9 -0.6,-1.7 -1.2,-2.4 l -11.1,-21.5 -7.7,22.9 c -0.7,0.9 -1,1.8 -1,2.8 0.3,3.3 5.2,5.7 11,5.2 5.8,-0.5 10.3,-3.6 10,-7 0,0.1 0,0 0,0 z"
   id="path182"
   inkscape:connector-curvature="0"
   style="fill:#4c4c70" />
			</g>
			<g
   id="g190">
				<path
   class="st5"
   d="m 1881.4,171.4 -25.2,369.1 c -0.2,3.3 4.3,6.4 10.1,6.8 5.8,0.4 10.7,-2 10.9,-5.3 l 25.2,-369.1 z"
   id="path186"
   inkscape:connector-curvature="0"
   style="fill:#f1f0f2" />
				<path
   class="st27"
   d="m 1902.5,170.2 v 0 0 c 0,-0.9 -0.3,-1.8 -0.8,-2.6 l -7.7,-22.9 -11.1,21.5 c -0.8,0.8 -1.3,1.7 -1.4,2.7 -0.2,3.3 4.3,6.4 10.1,6.8 5.8,0.3 10.7,-2 10.9,-5.5 0,0.1 0,0.1 0,0 z"
   id="path188"
   inkscape:connector-curvature="0"
   style="fill:#e0e0e9" />
			</g>
			<g
   id="g196">
				<path
   class="st28"
   d="m 1900.4,184.7 -25.3,369.1 c -0.2,3.3 4.3,6.4 10.1,6.8 5.8,0.4 10.7,-2 10.9,-5.3 l 25.2,-369.1 z"
   id="path192"
   inkscape:connector-curvature="0"
   style="fill:#ff9d33" />
				<path
   class="st29"
   d="m 1921.5,183.6 v 0 0 c 0,-0.9 -0.3,-1.8 -0.8,-2.6 l -7.7,-22.9 -11.1,21.5 c -0.8,0.8 -1.3,1.7 -1.4,2.7 -0.2,3.3 4.3,6.4 10.1,6.8 5.8,0.3 10.7,-2.1 10.9,-5.5 z"
   id="path194"
   inkscape:connector-curvature="0"
   style="fill:#f9b46e" />
			</g>
			<g
   id="g202">
				<path
   class="st30"
   d="m 1923.5,189.3 -25.2,369.1 c -0.2,3.3 4.3,6.4 10.1,6.8 5.8,0.4 10.7,-2 10.9,-5.3 l 25.2,-369.1 z"
   id="path198"
   inkscape:connector-curvature="0"
   style="fill:#f75476" />
				<path
   class="st30"
   d="m 1944.7,188.2 v 0 0 c 0,-0.9 -0.3,-1.8 -0.8,-2.6 l -7.7,-22.9 -11.1,21.5 c -0.8,0.8 -1.3,1.7 -1.4,2.7 -0.2,3.3 4.3,6.4 10.1,6.8 5.8,0.3 10.7,-2.1 10.9,-5.5 z"
   id="path200"
   inkscape:connector-curvature="0"
   style="fill:#f75476" />
			</g>
			<path
   class="st11"
   d="M 1768.2,331.5 Z"
   id="path204"
   inkscape:connector-curvature="0"
   style="fill:#deeeff" />
			<path
   class="st11"
   d="M 1950.9,331.5 Z"
   id="path206"
   inkscape:connector-curvature="0"
   style="fill:#deeeff" />
			<path
   class="st31"
   d="m 1859.6,384.2 c -50.4,0 -91.3,-23.6 -91.3,-52.7 v 203 c 0,29.1 40.9,52.7 91.3,52.7 50.4,0 91.3,-23.6 91.3,-52.7 v -203 c 0,29.1 -40.9,52.7 -91.3,52.7 z"
   id="path208"
   inkscape:connector-curvature="0"
   style="fill:#11d384" />
		</g><g
               id="g292"
               transform="translate(-1943.3807,682.36683)">
			<g
   id="g236">
				<path
   class="st11"
   d="M 2481.6,657 2260.3,784.8 2039,912.6 c -6.7,3.8 -10,8.9 -10,13.9 0,5 3.3,10.1 10,13.9 l 317.9,183.5 317.9,183.5 c 6.7,3.8 15.3,5.8 24.1,5.8 8.8,0 17.5,-1.9 24.1,-5.8 l 221.3,-127.8 221.3,-127.8 c 6.7,-3.8 10,-8.9 10,-13.9 0,-5 -3.3,-10.1 -10,-13.9 L 2847.7,840.5 2529.9,657 c -6.7,-3.8 -15.3,-5.8 -24.1,-5.8 -8.8,0.1 -17.5,2 -24.2,5.8 z"
   id="path212"
   inkscape:connector-curvature="0"
   style="fill:#deeeff" />
				<path
   class="st32"
   d="M 2484.3,656.4 2265.1,783 2045.9,909.6 c -6.6,3.8 -9.9,8.8 -9.9,13.8 0,5 3.3,10 9.9,13.8 l 314.8,181.7 314.8,181.7 c 6.6,3.8 15.2,5.7 23.9,5.7 8.7,0 17.3,-1.9 23.9,-5.7 l 219.2,-126.6 219.2,-126.6 c 6.6,-3.8 9.9,-8.8 9.9,-13.8 0,-5 -3.3,-10 -9.9,-13.8 L 2846.9,838.1 2532.1,656.4 c -6.6,-3.8 -15.2,-5.7 -23.9,-5.7 -8.6,0 -17.3,1.9 -23.9,5.7 z"
   id="path214"
   inkscape:connector-curvature="0"
   style="fill:#d0dbf3" />
				<path
   class="st19"
   d="m 2484.3,650 -219.2,126.5 -219.2,126.6 c -6.6,3.8 -9.9,8.8 -9.9,13.8 0,5 3.3,10 9.9,13.8 l 314.8,181.7 314.8,181.7 c 6.6,3.8 15.2,5.7 23.9,5.7 8.7,0 17.3,-1.9 23.9,-5.7 l 219.2,-126.6 219.2,-126.6 c 6.6,-3.8 9.9,-8.8 9.9,-13.8 0,-5 -3.3,-10 -9.9,-13.8 L 2846.9,831.6 2532.1,650 c -6.6,-3.8 -15.2,-5.7 -23.9,-5.7 -8.6,0 -17.3,1.9 -23.9,5.7 z"
   id="path216"
   inkscape:connector-curvature="0"
   style="fill:#f8feff" />
				<path
   class="st33"
   d="m 2540.2,687.6 163.4,94.3 200.7,115.9 196.4,113.4 c 1.1,0.6 1.1,1.6 0,2.2 l -424,244.8 c -1.1,0.6 -2.8,0.6 -3.9,0 l -309.3,-178.6 -60.2,-34.8 -190.9,-110.2 c -1.1,-0.6 -1.1,-1.6 0,-2.2 l 424,-244.8 c 0.9,-0.6 2.7,-0.6 3.8,0 z"
   id="path218"
   inkscape:connector-curvature="0"
   style="fill:#e1e0e9" />
				<path
   class="st34"
   d="m 2547.4,723.9 142.6,82.3 175.1,101.1 171.4,98.9 c 1,0.5 1,1.4 0,1.9 l -370,213.6 c -1,0.5 -2.4,0.5 -3.4,0 l -269.9,-155.7 -52.5,-30.4 -166.6,-96.2 c -1,-0.5 -1,-1.4 0,-1.9 l 370,-213.6 c 0.7,-0.5 2.3,-0.5 3.3,0 z"
   id="path220"
   inkscape:connector-curvature="0"
   style="fill:#f7f7f7" />
				<path
   class="st35"
   d="m 2902.8,1149.9 c 0,1.1 0.3,2.1 0.8,3.1 h -2.8 c -0.5,-1 -0.7,-2 -0.7,-3.1 0,-1.6 0.6,-3.2 1.7,-4.7 h 2.9 c -1.2,1.4 -1.9,3 -1.9,4.7 z"
   id="path222"
   inkscape:connector-curvature="0"
   style="fill:#c1ac99" />
				<path
   class="st35"
   d="m 2938,1149.9 c 0,-1.7 -0.7,-3.3 -2,-4.7 h 2.9 c 1.2,1.5 1.7,3.1 1.7,4.7 0,1 -0.3,2.1 -0.7,3.1 h -2.8 c 0.6,-1 0.9,-2 0.9,-3.1 z"
   id="path224"
   inkscape:connector-curvature="0"
   style="fill:#c1ac99" />
				<path
   class="st36"
   d="m 2932.8,1142.7 c -3.3,-1.9 -7.7,-3 -12.5,-3 -4.8,0 -9.1,1.1 -12.5,3 -1.3,0.7 -2.3,1.6 -3.1,2.5 h -2.9 c 1,-1.3 2.4,-2.5 4.2,-3.5 7.9,-4.6 20.8,-4.6 28.7,0 1.8,1.1 3.2,2.3 4.2,3.5 h -2.9 c -0.8,-0.9 -1.9,-1.7 -3.2,-2.5 z"
   id="path226"
   inkscape:connector-curvature="0"
   style="fill:#f1dcc9" />
				<path
   class="st36"
   d="m 2906,1158.2 c -2.6,-1.5 -4.3,-3.3 -5.2,-5.2 h 2.8 c 0.8,1.5 2.3,2.9 4.3,4.1 3.3,1.9 7.7,3 12.5,3 4.8,0 9.1,-1.1 12.5,-3 2,-1.2 3.5,-2.6 4.3,-4.1 h 2.8 c -0.9,1.9 -2.6,3.7 -5.2,5.2 -8,4.6 -20.8,4.6 -28.8,0 z"
   id="path228"
   inkscape:connector-curvature="0"
   style="fill:#f1dcc9" />
				<g
   id="g234">
					<ellipse
   class="st37"
   cx="2301.5"
   cy="792.59998"
   rx="7.4000001"
   ry="4.3000002"
   id="ellipse230"
   style="fill:#51636d" />
					<ellipse
   class="st38"
   cx="2301.5"
   cy="792.59998"
   rx="3.5999999"
   ry="2.0999999"
   id="ellipse232"
   style="fill:#364651" />
				</g>
			</g>
			<g
   id="g290">
				<path
   class="st19"
   d="m 2555.3,754.7 122.6,70.8 150.6,87 147.4,85.1 c 0.8,0.5 0.8,1.2 0,1.7 l -318.3,183.8 c -0.8,0.5 -2.1,0.5 -2.9,0 l -232.2,-134 -45.2,-26.1 -143.3,-82.7 c -0.8,-0.5 -0.8,-1.2 0,-1.7 l 318.3,-183.8 c 0.9,-0.5 2.2,-0.5 3,-0.1 z"
   id="path238"
   inkscape:connector-curvature="0"
   style="fill:#f8feff" />
				<ellipse
   class="st6"
   cx="2411.7"
   cy="922.70001"
   rx="29.5"
   ry="17"
   id="ellipse240"
   style="fill:#fdc7c2" />
				<g
   id="g246">
					<path
   class="st32"
   d="m 2573,827 -124.6,72 c -2.9,1.7 -7.6,1.7 -10.5,0 v 0 c -2.9,-1.7 -2.9,-4.4 0,-6.1 l 124.6,-72 c 2.9,-1.7 7.6,-1.7 10.5,0 v 0 c 2.9,1.7 2.9,4.4 0,6.1 z"
   id="path242"
   inkscape:connector-curvature="0"
   style="fill:#d0dbf3" />
					<path
   class="st32"
   d="m 2501.3,885.7 -38,21.9 c -2.9,1.7 -7.6,1.7 -10.5,0 v 0 c -2.9,-1.7 -2.9,-4.4 0,-6.1 l 38,-21.9 c 2.9,-1.7 7.6,-1.7 10.5,0 v 0 c 2.9,1.7 2.9,4.4 0,6.1 z"
   id="path244"
   inkscape:connector-curvature="0"
   style="fill:#d0dbf3" />
				</g>
				<ellipse
   class="st23"
   cx="2472.3"
   cy="957.70001"
   rx="29.5"
   ry="17"
   id="ellipse248"
   style="fill:#7cacf1" />
				<g
   id="g254">
					<path
   class="st32"
   d="m 2595.4,884 -86.4,49.9 c -2.9,1.7 -7.6,1.7 -10.5,0 v 0 c -2.9,-1.7 -2.9,-4.4 0,-6.1 l 86.4,-49.9 c 2.9,-1.7 7.6,-1.7 10.5,0 v 0 c 2.9,1.7 2.9,4.4 0,6.1 z"
   id="path250"
   inkscape:connector-curvature="0"
   style="fill:#d0dbf3" />
					<path
   class="st32"
   d="M 2633.8,879.2 2524,942.6 c -2.9,1.7 -7.6,1.7 -10.5,0 v 0 c -2.9,-1.7 -2.9,-4.4 0,-6.1 l 109.8,-63.4 c 2.9,-1.7 7.6,-1.7 10.5,0 v 0 c 2.9,1.7 2.9,4.4 0,6.1 z"
   id="path252"
   inkscape:connector-curvature="0"
   style="fill:#d0dbf3" />
				</g>
				<ellipse
   class="st28"
   cx="2532.8999"
   cy="992.70001"
   rx="29.5"
   ry="17"
   id="ellipse256"
   style="fill:#ff9d33" />
				<g
   id="g262">
					<path
   class="st32"
   d="m 2682.4,903.8 -112.8,65.1 c -2.9,1.7 -7.6,1.7 -10.5,0 v 0 c -2.9,-1.7 -2.9,-4.4 0,-6.1 l 112.8,-65.1 c 2.9,-1.7 7.6,-1.7 10.5,0 v 0 c 2.9,1.7 2.9,4.4 0,6.1 z"
   id="path258"
   inkscape:connector-curvature="0"
   style="fill:#d0dbf3" />
					<path
   class="st32"
   d="m 2635.7,948 -51.2,29.5 c -2.9,1.7 -7.6,1.7 -10.5,0 v 0 c -2.9,-1.7 -2.9,-4.4 0,-6.1 l 51.2,-29.5 c 2.9,-1.7 7.6,-1.7 10.5,0 v 0 c 2.9,1.7 2.9,4.5 0,6.1 z"
   id="path260"
   inkscape:connector-curvature="0"
   style="fill:#d0dbf3" />
				</g>
				<ellipse
   class="st32"
   cx="2537.2"
   cy="1060.1"
   rx="7.5999999"
   ry="4.4000001"
   id="ellipse264"
   style="fill:#d0dbf3" />
				<ellipse
   class="st39"
   cx="2593.5"
   cy="1027.6"
   rx="29.5"
   ry="17"
   id="ellipse266"
   style="fill:#fc8c95" />
				<g
   id="g272">
					<path
   class="st32"
   d="m 2716.6,954 -86.4,49.9 c -2.9,1.7 -7.6,1.7 -10.5,0 v 0 c -2.9,-1.7 -2.9,-4.4 0,-6.1 l 86.4,-49.9 c 2.9,-1.7 7.6,-1.7 10.5,0 v 0 c 2.9,1.7 2.9,4.4 0,6.1 z"
   id="path268"
   inkscape:connector-curvature="0"
   style="fill:#d0dbf3" />
					<path
   class="st32"
   d="m 2683.1,990.6 -38,21.9 c -2.9,1.7 -7.6,1.7 -10.5,0 v 0 c -2.9,-1.7 -2.9,-4.4 0,-6.1 l 38,-21.9 c 2.9,-1.7 7.6,-1.7 10.5,0 v 0 c 2.9,1.7 2.9,4.5 0,6.1 z"
   id="path270"
   inkscape:connector-curvature="0"
   style="fill:#d0dbf3" />
				</g>
				<ellipse
   class="st32"
   cx="2597.8"
   cy="1095.1"
   rx="7.5999999"
   ry="4.4000001"
   id="ellipse274"
   style="fill:#d0dbf3" />
				<ellipse
   class="st23"
   cx="2654.1001"
   cy="1062.6"
   rx="29.5"
   ry="17"
   id="ellipse276"
   style="fill:#7cacf1" />
				<g
   id="g282">
					<path
   class="st32"
   d="m 2803.6,973.7 -112.8,65.1 c -2.9,1.7 -7.6,1.7 -10.5,0 v 0 c -2.9,-1.7 -2.9,-4.4 0,-6.1 l 112.8,-65.1 c 2.9,-1.7 7.6,-1.7 10.5,0 v 0 c 2.9,1.7 2.9,4.5 0,6.1 z"
   id="path278"
   inkscape:connector-curvature="0"
   style="fill:#d0dbf3" />
					<path
   class="st32"
   d="m 2781.7,1003.7 -76,43.9 c -2.9,1.7 -7.6,1.7 -10.5,0 v 0 c -2.9,-1.7 -2.9,-4.4 0,-6.1 l 76,-43.9 c 2.9,-1.7 7.6,-1.7 10.5,0 v 0 c 2.9,1.7 2.9,4.4 0,6.1 z"
   id="path280"
   inkscape:connector-curvature="0"
   style="fill:#d0dbf3" />
				</g>
				<path
   class="st40"
   d="m 2361.9,956.4 -4.8,-17.1 c -0.4,-1.3 -1.7,-2 -3,-1.7 -1.3,0.4 -2,1.7 -1.7,3 l 4,14.2 -6.7,0.3 c -1.3,0.1 -2.3,1.2 -2.3,2.5 0.1,1.3 1.1,2.3 2.4,2.3 h 0.1 l 9.7,-0.5 c 0.7,0 1.4,-0.4 1.8,-1 0.5,-0.5 0.7,-1.3 0.5,-2 z"
   id="path284"
   inkscape:connector-curvature="0"
   style="fill:#5ae5d4" />
				<path
   class="st40"
   d="m 2423.2,993.4 -4.8,-17.1 c -0.4,-1.3 -1.7,-2 -3,-1.7 -1.3,0.4 -2,1.7 -1.7,3 l 4,14.2 -6.7,0.3 c -1.3,0.1 -2.3,1.2 -2.3,2.5 0.1,1.3 1.1,2.3 2.4,2.3 h 0.1 l 9.7,-0.5 c 0.7,0 1.4,-0.4 1.8,-1 0.6,-0.5 0.7,-1.3 0.5,-2 z"
   id="path286"
   inkscape:connector-curvature="0"
   style="fill:#5ae5d4" />
				<path
   class="st40"
   d="m 2483.8,1028.4 -4.8,-17.1 c -0.4,-1.3 -1.7,-2 -3,-1.7 -1.3,0.4 -2,1.7 -1.7,3 l 4,14.2 -6.7,0.3 c -1.3,0.1 -2.3,1.2 -2.3,2.5 0.1,1.3 1.1,2.3 2.4,2.3 h 0.1 l 9.7,-0.5 c 0.7,0 1.4,-0.4 1.8,-1 0.5,-0.6 0.7,-1.3 0.5,-2 z"
   id="path288"
   inkscape:connector-curvature="0"
   style="fill:#5ae5d4" />
			</g>
		</g><g
               id="g296">
			<path
   class="st41"
   d="m 1263.9,726.2 c -8.2,3.9 -53.9,-140.5 -66.6,-114.9 -12.4,25 6.9,30.8 -48.2,34.6 -28.4,1.9 -17.7,131.6 -44.1,120.2 -26.4,-11.4 -28.5,-128.5 -48.6,-85.7 -20.1,42.8 -70.9,213.1 -126.2,210.6 -16.9,-0.7 -42.8,-38.5 -65.2,-16.6"
   id="path294"
   inkscape:connector-curvature="0"
   style="fill:none;stroke:#2dd397;stroke-width:0.25;stroke-miterlimit:10" />
		</g><g
               id="g346"
               transform="translate(0,20)">
			<path
   class="st42"
   d="m 1421,108.6 -9.5,-5.3 c -1.7,-1.3 -3.5,-2.3 -5.5,-3.1 v 0 0 c -6.9,-2.5 -15.7,-1.3 -25.3,4.3 L 699.8,499.3 c -12.6,7.3 -23.9,20.6 -31.3,35.4 l 406.1,176.2 346.3,-493 v -90.2 c 0,-6.6 -1.2,-12.3 -3.4,-16.7 z"
   id="path298"
   inkscape:connector-curvature="0"
   style="fill:#ffe6e6" />
			<path
   class="st32"
   d="M 1074.7,710.9 668.6,534.7 c -5.7,11.3 -9.1,23.5 -9.1,34.6 v 569.1 c 0,25.7 18.2,36.1 40.3,23.2 l 680.8,-394.8 c 22.2,-12.9 40.3,-44.4 40.3,-70 v -479 z"
   id="path300"
   inkscape:connector-curvature="0"
   style="fill:#d0dbf3" />
			<path
   class="st43"
   d="M 717.9,1189.3 1051.2,996 1391.6,798.6 c 11.1,-6.4 25.7,-9.7 40.4,-9.7 14.6,0 29.3,3.1 40.4,9.5 l 248,142.4 246.8,141.7 17.9,-1.5 v 25.4 c 0,8.4 -5.5,16.9 -16.6,23.3 l -342,197.5 -342,197.5 c -11.1,6.4 -25.8,9.6 -40.4,9.6 -14.6,0 -29.3,-3.2 -40.4,-9.6 L 957.3,1382.4 710.9,1240.1 c -11.1,-6.4 -16.7,-14.9 -16.7,-23.3 v -25.4 z"
   id="path302"
   inkscape:connector-curvature="0"
   style="fill:#bac8e0" />
			<path
   class="st32"
   d="m 1747.2,956.2 220,126.3 17.9,-1.5 v 25.4 c 0,8.4 -5.5,16.9 -16.6,23.3 l -342,197.5 -342,197.5 c -11.1,6.4 -25.7,9.6 -40.4,9.6 V 956.2 Z"
   id="path304"
   inkscape:connector-curvature="0"
   style="fill:#d0dbf3" />
			<path
   class="st44"
   d="m 1968.4,1057.8 c 11.1,6.4 16.7,14.8 16.7,23.3 0,8.4 -5.5,16.9 -16.6,23.3 l -342,197.5 -342,197.5 c -11.1,6.4 -25.8,9.6 -40.4,9.6 -14.6,0 -29.3,-3.2 -40.4,-9.6 L 957.3,1357.1 710.9,1214.8 c -11.1,-6.4 -16.7,-14.9 -16.7,-23.3 0,-8.4 5.5,-16.9 16.6,-23.4 l 340.5,-197.5 340.4,-197.4 c 11.1,-6.4 25.7,-9.7 40.4,-9.7 14.6,0 29.3,3.1 40.4,9.5 l 248,142.4 z"
   id="path306"
   inkscape:connector-curvature="0"
   style="fill:#f9f9f9" />
			<path
   class="st25"
   d="m 1391.6,773.2 c 22.2,-12.9 40.3,-44.4 40.3,-70 V 134.1 c 0,-25.7 -18.2,-36.1 -40.3,-23.2 L 710.9,505.6 c -22.2,12.9 -40.3,44.4 -40.3,70 v 569.1 c 0,25.7 18.2,36.1 40.3,23.2 z"
   id="path308"
   inkscape:connector-curvature="0"
   style="fill:#3d3c5e" />
			<polygon
   class="st33"
   points="694.2,1122.6 694.2,570.7 1411.4,156.4 1411.4,708.4 "
   id="polygon310"
   style="fill:#e1e0e9" />
			<polygon
   class="st34"
   points="735.4,1098.5 735.4,601.8 1381.6,228.6 1381.6,725.2 "
   id="polygon312"
   style="fill:#f7f7f7" />
			<path
   class="st8"
   d="m 1263.9,590.7 c -8.2,3.9 -15,6.6 -19,7.3 -19,3.2 -47.6,42.6 -66.1,64.5 -18.4,21.9 -11,14 -26.4,37.9 -15.4,23.9 -14,20.2 -40.4,8.8 -26.4,-11.4 -27.5,16.3 -47.6,59.1 -20.1,42.8 -82.9,101 -138.2,98.6 -16.9,-0.7 -38.8,14.8 -61.2,36.7"
   id="path314"
   inkscape:connector-curvature="0"
   style="fill:none" />
			<polygon
   class="st45"
   points="1137.5,866.6 787.6,516.7 947.7,424.2 1297.6,774.1 "
   id="polygon316"
   style="opacity:0.23999999;fill:#eaeaf4;enable-background:new" />
			<path
   class="st46"
   d="m 1704.7,1002.1 c 6,3.5 9,8 9,12.6 0,4.6 -3,9.1 -9,12.6 l -275.9,159.5 -286.9,158.2 c -6,3.5 -13.9,5.2 -21.9,5.2 -8,0 -15.8,-1.7 -21.9,-5.2 l -133.3,-77 -133.3,-77 c -6,-3.5 -9,-8.1 -9,-12.6 0,-4.6 3,-9.2 9,-12.6 l 286,-158.2 275,-159.5 c 6,-3.5 13.9,-5.2 21.8,-5.3 7.9,0 15.9,1.7 21.9,5.2 l 134.2,77 z"
   id="path318"
   inkscape:connector-curvature="0"
   style="fill:#e8e9ee" />
			<path
   class="st47"
   d="m 736.2,1236.7 c -3.1,-1.8 -5.7,-0.8 -5.7,2.2 0,3 2.6,7 5.7,8.8 l 10,5.8 c 3.1,1.8 5.7,0.8 5.7,-2.2 0,-3 -2.6,-7 -5.7,-8.8 z"
   id="path320"
   inkscape:connector-curvature="0"
   style="fill:#8697b2" />
			<path
   class="st47"
   d="m 770.7,1257.6 c -3.1,-1.8 -5.7,-0.8 -5.7,2.2 0,3 2.6,7 5.7,8.8 l 10,5.8 c 3.1,1.8 5.7,0.8 5.7,-2.2 0,-3 -2.6,-7 -5.7,-8.8 z"
   id="path322"
   inkscape:connector-curvature="0"
   style="fill:#8697b2" />
			<path
   class="st47"
   d="m 806.8,1277.2 c -3.1,-1.8 -5.7,-0.8 -5.7,2.2 0,3 2.6,7 5.7,8.8 l 10,5.8 c 3.1,1.8 5.7,0.8 5.7,-2.2 0,-3 -2.6,-7 -5.7,-8.8 z"
   id="path324"
   inkscape:connector-curvature="0"
   style="fill:#8697b2" />
			
				<ellipse
   transform="matrix(0.8661,-0.4999,0.4999,0.8661,-541.525,606.3029)"
   class="st47"
   cx="860.90002"
   cy="1313.9"
   rx="5.6999998"
   ry="9.8000002"
   id="ellipse326"
   style="fill:#8697b2" />
			<path
   class="st46"
   d="m 1654.8,1209.6 c 1.5,0.8 2.2,2 2.2,3.1 0,1.1 -0.7,2.2 -2.2,3.1 l -67.7,39.2 -70.4,38.8 c -1.5,0.9 -3.4,1.3 -5.4,1.3 -1.9,0 -3.9,-0.4 -5.4,-1.3 l -32.7,-18.9 -32.7,-18.9 c -1.5,-0.9 -2.2,-2 -2.2,-3.1 0,-1.1 0.7,-2.2 2.2,-3.1 l 70.2,-38.8 67.5,-39.1 c 1.5,-0.9 3.4,-1.3 5.4,-1.3 1.9,0 3.9,0.4 5.4,1.3 l 32.9,18.9 z"
   id="path328"
   inkscape:connector-curvature="0"
   style="fill:#e8e9ee" />
			
				<linearGradient
   id="SVGID_1_"
   gradientUnits="userSpaceOnUse"
   x1="694.19989"
   y1="981.75"
   x2="1985.1"
   y2="981.75"
   gradientTransform="matrix(1,0,0,-1,0,2118)">
				<stop
   offset="5.617995e-03"
   style="stop-color:#E2AFD3"
   id="stop330" />
				<stop
   offset="1"
   style="stop-color:#C5DEFD"
   id="stop332" />
			</linearGradient>
			<path
   class="st48"
   d="m 1968.4,1057.8 c 11.1,6.4 16.7,14.8 16.7,23.3 0,8.4 -5.5,16.9 -16.6,23.3 l -342,197.5 -342,197.5 c -11.1,6.4 -25.8,9.6 -40.4,9.6 -14.6,0 -29.3,-3.2 -40.4,-9.6 L 957.3,1357.1 710.9,1214.8 c -11.1,-6.4 -16.7,-14.9 -16.7,-23.3 0,-8.4 5.5,-16.9 16.6,-23.4 l 340.5,-197.5 340.4,-197.4 c 11.1,-6.4 25.7,-9.7 40.4,-9.7 14.6,0 29.3,3.1 40.4,9.5 l 248,142.4 z"
   id="path335"
   style="opacity:0.1;fill:url(#SVGID_1_);enable-background:new"
   inkscape:connector-curvature="0" />
			
				<linearGradient
   id="SVGID_2_"
   gradientUnits="userSpaceOnUse"
   x1="694.20001"
   y1="956.40002"
   x2="1985.1001"
   y2="956.40002"
   gradientTransform="matrix(1,0,0,-1,0,2118)">
				<stop
   offset="5.617995e-03"
   style="stop-color:#8DAFD3"
   id="stop337" />
				<stop
   offset="0.4719"
   style="stop-color:#BCD6F6"
   id="stop339" />
				<stop
   offset="1"
   style="stop-color:#C5BDD4"
   id="stop341" />
			</linearGradient>
			<path
   class="st49"
   d="M 717.9,1189.3 1051.2,996 1391.6,798.6 c 11.1,-6.4 25.7,-9.7 40.4,-9.7 14.6,0 29.3,3.1 40.4,9.5 l 248,142.4 246.8,141.7 17.9,-1.5 v 25.4 c 0,8.4 -5.5,16.9 -16.6,23.3 l -342,197.5 -342,197.5 c -11.1,6.4 -25.8,9.6 -40.4,9.6 -14.6,0 -29.3,-3.2 -40.4,-9.6 L 957.3,1382.4 710.9,1240.1 c -11.1,-6.4 -16.7,-14.9 -16.7,-23.3 v -25.4 z"
   id="path344"
   style="opacity:0.1;fill:url(#SVGID_2_);enable-background:new"
   inkscape:connector-curvature="0" />
		</g><g
               id="g356">
			<g
   id="g350">
				<path
   class="st50"
   d="m 853.3,854.4 c -0.5,0 -1,-0.2 -1.4,-0.6 -0.8,-0.8 -0.8,-2.1 0,-2.8 26,-25.4 47.1,-37.9 62.7,-37.3 24.5,1 53.2,-10.3 81,-31.9 23.9,-18.6 45.1,-43.7 55.3,-65.5 4.8,-10.3 8.6,-19.7 11.8,-28 7.1,-18 11.8,-29.9 20.9,-33.7 4.7,-2 10.5,-1.5 17.4,1.6 3.3,1.4 6.1,2.7 8.6,3.8 8.5,3.8 12.7,5.8 16,4.5 3.5,-1.3 7.2,-6.8 13.4,-16.4 5.1,-7.9 7.7,-12.3 9.5,-15.5 3.8,-6.5 4.6,-7.9 17,-22.6 3.2,-3.8 6.6,-8 10.3,-12.6 18,-22.2 40.5,-49.8 57,-52.6 3.6,-0.6 10,-3.1 18.5,-7.1 1,-0.5 2.2,0 2.7,0.9 0.5,1 0.1,2.2 -0.9,2.7 -8.9,4.3 -15.5,6.8 -19.5,7.5 -15,2.5 -37.9,30.7 -54.5,51.2 -3.7,4.5 -7.2,8.8 -10.4,12.6 -12.2,14.5 -12.9,15.8 -16.6,22.1 -1.9,3.2 -4.5,7.6 -9.6,15.6 -13.8,21.4 -15.4,22 -34.3,13.4 -2.5,-1.1 -5.3,-2.4 -8.5,-3.8 -6,-2.6 -10.6,-3.1 -14.3,-1.5 -7.5,3.1 -12.2,15 -18.7,31.5 -3.3,8.3 -7,17.8 -11.9,28.2 -19.9,42.4 -80.9,99.8 -136.6,99.8 -1.2,0 -2.3,0 -3.5,-0.1 -14.5,-0.6 -34.6,11.6 -59.7,36.1 -0.6,0.4 -1.1,0.5 -1.7,0.5 z"
   id="path348"
   inkscape:connector-curvature="0"
   style="fill:#80a3e5" />
			</g>
			<g
   id="g354">
				<path
   class="st22"
   d="m 919.8,817.2 c -0.4,0 -0.9,0 -1.3,0 -6.5,-0.3 -13.8,-5.3 -21.6,-10.6 -14.1,-9.7 -28.7,-19.6 -42.1,-6.6 -0.8,0.8 -2.1,0.8 -2.8,0 -0.8,-0.8 -0.8,-2.1 0,-2.8 15.7,-15.4 33.2,-3.4 47.2,6.1 7.3,5 14.2,9.7 19.5,9.9 0.4,0 0.8,0 1.1,0 42.2,0 82.8,-106.1 107.2,-169.7 6.4,-16.6 11.9,-30.9 16,-39.8 3.5,-7.5 6.8,-10.8 10.4,-10.5 6.8,0.7 10.5,14.4 16.5,38.5 5.7,23.1 12.8,51.8 24.2,56.7 1.7,0.7 3.1,0.7 4.4,0 7.5,-4.2 10.8,-29.2 14.1,-53.3 4.5,-33.9 8.8,-65.9 24.7,-67 38.5,-2.7 39.1,-5.9 41.1,-16.5 0.8,-4.4 1.9,-10 5.4,-17 1.7,-3.5 4.1,-4.2 5.7,-4.2 9.8,0.3 22.9,29.6 41.8,74.4 8.1,19.3 17.3,41.1 20.7,43.6 0.8,-0.1 1.6,0.3 2,1.1 0.5,1 0.1,2.2 -0.9,2.7 -0.7,0.3 -1.5,0.4 -2.3,0.1 -4.1,-1.6 -9.9,-14.5 -23.1,-45.9 -6.9,-16.3 -14.7,-34.8 -21.7,-48.8 -10.4,-20.7 -15,-23.1 -16.5,-23.1 -0.7,0 -1.3,0.6 -2,1.9 -3.3,6.6 -4.3,11.8 -5.1,16 -2.5,13.1 -5,17 -44.8,19.7 -12.6,0.8 -17.1,34.2 -21,63.5 -3.7,27.4 -6.8,51.1 -16.1,56.3 -2.4,1.4 -5.1,1.4 -8,0.2 -13.2,-5.7 -20.3,-34.3 -26.5,-59.4 -3.9,-15.6 -8.7,-35 -13,-35.5 -0.6,-0.1 -2.7,0.4 -6.4,8.2 -4.1,8.7 -9.5,23 -15.9,39.5 -12.3,32.1 -29.2,76.1 -48.2,111.1 -22.4,41.1 -42.9,61.2 -62.7,61.2 z"
   id="path352"
   inkscape:connector-curvature="0"
   style="fill:#00ed92" />
			</g>
		</g><g
               id="g493"
               transform="translate(903.25164,-297.22383)">
			<path
   class="st68"
   d="m 747.7,1921 212.7,122.5 c 12.9,7.4 33.8,7.4 46.7,-0.1 l 456.4,-264.3 c 12.9,-7.5 12.9,-19.6 0,-27 l -212.7,-122.5 c -12.9,-7.4 -33.8,-7.4 -46.7,0.1 L 747.7,1894 c -12.9,7.5 -12.9,19.5 0,27 z"
   id="path461"
   inkscape:connector-curvature="0"
   style="fill:#e2f0f2" />
			<path
   class="st69"
   d="m 747.7,1921 212.7,122.5 c 12.9,7.4 33.8,7.4 46.7,-0.1 l 456.4,-264.3 c 12.9,-7.5 12.9,-19.6 0,-27 l -212.7,-122.5 c -12.9,-7.4 -33.8,-7.4 -46.7,0.1 L 747.7,1894 c -12.9,7.5 -12.9,19.5 0,27 z"
   id="path463"
   inkscape:connector-curvature="0"
   style="fill:#b0b5cc" />
			<path
   class="st19"
   d="m 747.7,1911.7 212.7,122.5 c 12.9,7.4 33.8,7.4 46.7,-0.1 l 456.4,-264.3 c 12.9,-7.5 12.9,-19.6 0,-27 l -212.7,-122.5 c -12.9,-7.4 -33.8,-7.4 -46.7,0.1 l -456.4,264.3 c -12.9,7.4 -12.9,19.5 0,27 z"
   id="path465"
   inkscape:connector-curvature="0"
   style="fill:#f8feff" />
			<polygon
   class="st11"
   points="1421.1,1778.9 1188.3,1644.9 790,1875.5 1022.8,2009.6 "
   id="polygon467"
   style="fill:#deeeff" />
			
				<ellipse
   transform="matrix(1,-0.00123763,0.00123763,1,-2.4225,1.0905)"
   class="st5"
   cx="879.90002"
   cy="1957.9"
   rx="21.1"
   ry="12.2"
   id="ellipse469"
   style="fill:#f1f0f2" />
			<g
   id="g475">
				
					<ellipse
   transform="matrix(1,-0.00123763,0.00123763,1,-2.1158,1.6652)"
   class="st25"
   cx="1344.4"
   cy="1710.4"
   rx="4.1999998"
   ry="2.4000001"
   id="ellipse471"
   style="fill:#3d3c5e" />
				<path
   class="st25"
   d="m 1303.5,1689.4 29,16.7 c 0.8,0.5 2.1,0.5 2.9,0 l 1.5,-0.9 c 0.8,-0.5 0.8,-1.2 0,-1.7 l -29,-16.7 c -0.8,-0.5 -2.1,-0.5 -2.9,0 l -1.5,0.9 c -0.8,0.5 -0.8,1.2 0,1.7 z"
   id="path473"
   inkscape:connector-curvature="0"
   style="fill:#3d3c5e" />
			</g>
			<path
   class="st59"
   d="m 1000.5,1836.8 c -6.7,-3.9 -15.6,-5.8 -24.5,-5.8 -8.9,0 -17.8,1.9 -24.5,5.8 l -3.8,2.2 -3.8,2.2 c -6.7,3.9 -10.1,9 -10.1,14.1 0,5.1 3.4,10.3 10.1,14.1 l 42.7,24.6 42.7,24.6 c 6.7,3.9 15.6,5.8 24.5,5.8 8.9,0 17.8,-1.9 24.5,-5.8 l 3.8,-2.2 3.8,-2.2 c 6.7,-3.9 10.1,-9 10.1,-14.1 0,-5.1 -3.4,-10.3 -10.1,-14.1 l -42.7,-24.6 z"
   id="path477"
   inkscape:connector-curvature="0"
   style="opacity:0.12000002;fill:#282844;enable-background:new" />
			<g
   id="g487">
				<path
   class="st61"
   d="m 1210.4,1751.8 c 12.4,19.7 13.4,38.4 28.3,53.9 24,25.1 71.4,15.3 95,21.6 l 85,-49.1 -230.2,-132.9 -95.4,55.1 c 51.6,6.6 100.7,25.1 117.3,51.4 z"
   id="path479"
   inkscape:connector-curvature="0"
   style="fill:#ffcfd4" />
				<path
   class="st23"
   d="m 1238.7,1805.6 c -14.8,-15.5 -15.8,-34.2 -28.3,-53.9 -0.2,-0.3 -0.4,-0.6 -0.6,-0.9 -22,9 -52.5,7.8 -72.2,-3.6 -18.9,-10.9 -21.5,-27.6 -8,-40.1 -11.8,-2.9 -24.1,-5.2 -36.6,-6.8 l -63,36.4 230.2,132.9 73.4,-42.4 c -23.5,-6.2 -70.9,3.6 -94.9,-21.6 z"
   id="path481"
   inkscape:connector-curvature="0"
   style="fill:#7cacf1" />
				<path
   class="st28"
   d="m 1209.8,1750.9 c 2.6,-1 5,-2.2 7.3,-3.6 22,-12.7 22,-33.2 0,-45.9 -22,-12.7 -57.6,-12.7 -79.5,0 -3.1,1.8 -5.8,3.8 -8,5.8 36.4,9.1 67.3,24.2 80.2,43.7 z"
   id="path483"
   inkscape:connector-curvature="0"
   style="fill:#ff9d33" />
				<path
   class="st30"
   d="m 1137.6,1747.3 c 19.7,11.4 50.3,12.5 72.2,3.6 -12.9,-19.5 -43.8,-34.6 -80.2,-43.7 -13.5,12.5 -10.9,29.2 8,40.1 z"
   id="path485"
   inkscape:connector-curvature="0"
   style="fill:#f75476" />
			</g>
			<path
   class="st70"
   d="m 1123.1,1872.7 c -1.5,-1.3 -3.3,-2.6 -5.4,-3.8 l -52.7,-30.4 -52.7,-30.4 c -8.3,-4.8 -19.3,-7.2 -30.3,-7.2 -11,0 -22,2.4 -30.3,7.2 l -4.6,2.7 -4.6,2.7 c -3.6,2.1 -6.4,4.4 -8.4,6.9 l -4.1,-1.1 v 11.7 c 0,6.3 4.2,12.7 12.5,17.5 l 52.7,30.4 52.7,30.4 c 8.3,4.8 19.3,7.2 30.3,7.2 11,0 22,-2.4 30.3,-7.2 l 4.7,-2.7 4.7,-2.7 c 8.3,-4.8 12.5,-11.1 12.5,-17.5 v -11.7 z"
   id="path489"
   inkscape:connector-curvature="0"
   style="fill:#00ce7a" />
			<path
   class="st58"
   d="m 1012.2,1796.4 c -8.3,-4.8 -19.3,-7.2 -30.3,-7.2 -11,0 -22,2.4 -30.3,7.2 l -4.6,2.7 -4.6,2.7 c -8.3,4.8 -12.5,11.1 -12.5,17.5 0,6.4 4.2,12.7 12.5,17.5 l 52.7,30.4 52.7,30.4 c 8.3,4.8 19.3,7.2 30.3,7.2 11,0 22,-2.4 30.3,-7.2 l 4.7,-2.7 4.7,-2.7 c 8.3,-4.8 12.5,-11.1 12.5,-17.5 0,-6.3 -4.2,-12.7 -12.5,-17.5 l -52.7,-30.4 z"
   id="path491"
   inkscape:connector-curvature="0"
   style="fill:#00fc9b" />
		</g><g
               id="Layer_4"
               transform="translate(100.36129,127.38164)">
	<g
   id="g702">
		<g
   id="g644">
			<g
   class="st83"
   id="g620"
   style="opacity:0.23999999">
				<path
   class="st84"
   d="m 388.6,2.9 c 11.9,-6.9 21.7,-1.3 21.7,12.5 v 53 c 0,13.8 -9.7,30.6 -21.7,37.5 L 142.2,248.2 c -11.9,6.9 -21.7,1.3 -21.7,-12.5 v -53 c 0,-13.8 9.7,-30.6 21.7,-37.5 z"
   id="path618"
   inkscape:connector-curvature="0"
   style="fill:#2b4fb2" />
			</g>
			<g
   class="st85"
   id="g624"
   style="opacity:0.16000001">
				<path
   class="st86"
   d="M 414.3,17.8 C 426.2,10.9 436,16.5 436,30.3 v 53 c 0,13.8 -9.7,30.6 -21.7,37.5 L 167.9,263 c -11.9,6.9 -21.7,1.3 -21.7,-12.5 v -53 c 0,-13.8 9.7,-30.6 21.7,-37.5 z"
   id="path622"
   inkscape:connector-curvature="0"
   style="fill:#e6efff" />
			</g>
			<g
   class="st87"
   id="g628"
   style="opacity:0.46000001">
				<path
   class="st88"
   d="m 421.5,26.7 c 11.9,-6.9 21.7,-1.3 21.7,12.5 v 53 c 0,13.8 -9.7,30.6 -21.7,37.5 L 175,272 c -11.9,6.9 -21.7,1.3 -21.7,-12.5 v -53 c 0,-13.8 9.7,-30.6 21.7,-37.5 z"
   id="path626"
   inkscape:connector-curvature="0"
   style="fill:#d4e4ff" />
			</g>
			<g
   id="g632">
				<path
   class="st89"
   d="m 344.3,105 c 3.3,-1.9 6.1,-0.4 6.1,3.5 v 11.7 c 0,3.9 -2.7,8.6 -6.1,10.5 l -143.9,83.1 c -3.3,1.9 -6.1,0.4 -6.1,-3.5 v -11.7 c 0,-3.9 2.7,-8.6 6.1,-10.5 z"
   id="path630"
   inkscape:connector-curvature="0"
   style="fill:#b6d0ff" />
			</g>
			<g
   id="g636">
				<path
   class="st89"
   d="m 400.8,58.4 c 9,-5.2 16.5,-1 16.5,9.5 v 13.5 c 0,10.5 -7.4,23.3 -16.5,28.5 l -11.7,6.7 c -9,5.2 -16.5,1 -16.5,-9.5 V 93.6 c 0,-10.4 7.4,-23.3 16.5,-28.5 z"
   id="path634"
   inkscape:connector-curvature="0"
   style="fill:#b6d0ff" />
			</g>
			<g
   id="g642">
				<path
   class="st90"
   d="m 389.5,85 c 4,-7 9.6,-13.1 15.7,-16.7 6.1,-3.5 11.7,-3.9 15.7,-1.5 l 4.9,3.3 -0.6,1.1 c 1.5,2.6 2.3,5.9 2.3,9.9 0,7.1 -2.5,15 -6.5,22 -4,7 -9.6,13.1 -15.7,16.7 -3.5,2 -6.8,3 -9.8,3 l -1.1,1.9 -4.9,-3.3 c -4,-2.3 -6.5,-7.3 -6.5,-14.4 0,-7.1 2.4,-15 6.5,-22 z"
   id="path638"
   inkscape:connector-curvature="0"
   style="fill:#e2882d" />
				<path
   class="st91"
   d="m 410.1,71.7 c 6.1,-3.5 11.7,-3.9 15.7,-1.5 4,2.3 6.5,7.3 6.5,14.4 0,7.1 -2.5,15 -6.5,22 -4,7 -9.6,13.1 -15.7,16.7 -6.1,3.5 -11.7,3.9 -15.7,1.5 -4,-2.3 -6.5,-7.3 -6.5,-14.4 0,-7.1 2.5,-15 6.5,-22 4,-7 9.6,-13.1 15.7,-16.7 z"
   id="path640"
   inkscape:connector-curvature="0"
   style="fill:#ffab57" />
			</g>
		</g>
		<g
   id="g672">
			<g
   class="st83"
   id="g648"
   style="opacity:0.23999999">
				<path
   class="st84"
   d="m 388.6,358.8 c 11.9,-6.9 21.7,-1.3 21.7,12.5 v 53 c 0,13.8 -9.7,30.6 -21.7,37.5 L 142.2,604.1 c -11.9,6.9 -21.7,1.3 -21.7,-12.5 v -53 c 0,-13.8 9.7,-30.6 21.7,-37.5 z"
   id="path646"
   inkscape:connector-curvature="0"
   style="fill:#2b4fb2" />
			</g>
			<g
   class="st92"
   id="g652"
   style="opacity:0.32000002">
				<path
   class="st93"
   d="m 414.3,373.7 c 11.9,-6.9 21.7,-1.3 21.7,12.5 v 53 c 0,13.8 -9.7,30.6 -21.7,37.5 L 167.9,618.9 c -11.9,6.9 -21.7,1.3 -21.7,-12.5 v -53 c 0,-13.8 9.7,-30.6 21.7,-37.5 z"
   id="path650"
   inkscape:connector-curvature="0"
   style="fill:#4f71ed" />
			</g>
			<g
   class="st94"
   id="g656"
   style="opacity:0.13999999">
				<path
   class="st95"
   d="m 480,414.7 c 11.9,-6.9 21.7,-1.3 21.7,12.5 v 53 c 0,13.8 -9.7,30.6 -21.7,37.5 L 233.6,660 c -11.9,6.9 -21.7,1.3 -21.7,-12.5 v -53 c 0,-13.8 9.7,-30.6 21.7,-37.5 z"
   id="path654"
   inkscape:connector-curvature="0"
   style="fill:#06f2d6" />
			</g>
			<g
   id="g660">
				<path
   class="st58"
   d="m 343.9,460.9 c 3.3,-1.9 6.1,-0.4 6.1,3.5 v 11.7 c 0,3.9 -2.7,8.6 -6.1,10.5 L 200,569.7 c -3.3,1.9 -6.1,0.4 -6.1,-3.5 v -11.7 c 0,-3.9 2.7,-8.6 6.1,-10.5 z"
   id="path658"
   inkscape:connector-curvature="0"
   style="fill:#00fc9b" />
			</g>
			<g
   id="g664">
				<path
   class="st58"
   d="m 400.4,414.3 c 9,-5.2 16.5,-1 16.5,9.5 v 13.5 c 0,10.5 -7.4,23.3 -16.5,28.5 l -11.7,6.7 c -9,5.2 -16.5,1 -16.5,-9.5 v -13.5 c 0,-10.5 7.4,-23.3 16.5,-28.5 z"
   id="path662"
   inkscape:connector-curvature="0"
   style="fill:#00fc9b" />
			</g>
			<g
   id="g670">
				<path
   class="st96"
   d="m 389.1,441 c 4,-7 9.6,-13.1 15.7,-16.7 6.1,-3.5 11.7,-3.9 15.7,-1.5 l 4.9,3.3 -0.6,1.1 c 1.5,2.6 2.3,5.9 2.3,9.9 0,7.1 -2.5,15 -6.5,22 -4,7 -9.6,13.1 -15.7,16.7 -3.5,2 -6.8,3 -9.8,3 l -1.1,1.9 -4.9,-3.3 c -4,-2.3 -6.5,-7.3 -6.5,-14.4 -0.1,-7.2 2.4,-15 6.5,-22 z"
   id="path666"
   inkscape:connector-curvature="0"
   style="fill:#3254ce" />
				<path
   class="st93"
   d="m 409.7,427.6 c 6.1,-3.5 11.7,-3.9 15.7,-1.5 4,2.4 6.5,7.3 6.5,14.4 0,7.1 -2.5,15 -6.5,22 -4,7 -9.6,13.1 -15.7,16.7 -6.1,3.5 -11.7,3.9 -15.7,1.5 -4,-2.4 -6.5,-7.3 -6.5,-14.4 0,-7.1 2.5,-15 6.5,-22 4,-7 9.6,-13.1 15.7,-16.7 z"
   id="path668"
   inkscape:connector-curvature="0"
   style="fill:#4f71ed" />
			</g>
		</g>
		<g
   id="g700">
			<g
   class="st83"
   id="g676"
   style="opacity:0.23999999">
				<path
   class="st84"
   d="m 542.8,91.9 c 11.9,-6.9 21.7,-1.3 21.7,12.5 v 53 c 0,13.8 -9.7,30.6 -21.7,37.5 L 296.3,337.2 c -11.9,6.9 -21.7,1.3 -21.7,-12.5 v -53 c 0,-13.8 9.7,-30.6 21.7,-37.5 z"
   id="path674"
   inkscape:connector-curvature="0"
   style="fill:#2b4fb2" />
			</g>
			<g
   class="st85"
   id="g680"
   style="opacity:0.16000001">
				<path
   class="st86"
   d="m 568.4,106.7 c 11.9,-6.9 21.7,-1.3 21.7,12.5 v 53 c 0,13.8 -9.7,30.6 -21.7,37.5 L 322,352 c -11.9,6.9 -21.7,1.3 -21.7,-12.5 v -53 c 0,-13.8 9.7,-30.6 21.7,-37.5 z"
   id="path678"
   inkscape:connector-curvature="0"
   style="fill:#e6efff" />
			</g>
			<g
   class="st87"
   id="g684"
   style="opacity:0.46000001">
				<path
   class="st88"
   d="m 634.1,88.5 c 11.9,-6.9 21.7,-1.3 21.7,12.5 v 53 c 0,13.8 -9.7,30.6 -21.7,37.5 L 387.7,333.7 C 375.8,340.6 366,335 366,321.2 v -53 c 0,-13.8 9.7,-30.6 21.7,-37.5 z"
   id="path682"
   inkscape:connector-curvature="0"
   style="fill:#d4e4ff" />
			</g>
			<g
   id="g688">
				<path
   class="st89"
   d="m 496.4,194 c 3.3,-1.9 6.1,-0.4 6.1,3.5 v 11.7 c 0,3.8 -2.7,8.6 -6.1,10.5 l -143.9,83.1 c -3.3,1.9 -6.1,0.4 -6.1,-3.5 v -11.7 c 0,-3.9 2.7,-8.6 6.1,-10.5 z"
   id="path686"
   inkscape:connector-curvature="0"
   style="fill:#b6d0ff" />
			</g>
			<g
   id="g692">
				<path
   class="st89"
   d="m 552.8,147.3 c 9,-5.2 16.5,-1 16.5,9.5 v 13.5 c 0,10.4 -7.4,23.3 -16.5,28.5 l -11.7,6.7 c -9,5.2 -16.5,1 -16.5,-9.5 v -13.5 c 0,-10.5 7.4,-23.3 16.5,-28.5 z"
   id="path690"
   inkscape:connector-curvature="0"
   style="fill:#b6d0ff" />
			</g>
			<g
   id="g698">
				<path
   class="st97"
   d="m 541.5,174 c 4,-7 9.6,-13.1 15.7,-16.7 6.1,-3.5 11.7,-3.9 15.7,-1.5 l 4.9,3.3 -0.6,1.1 c 1.5,2.6 2.3,5.9 2.3,9.9 0,7.1 -2.5,15 -6.5,22 -4,7 -9.6,13.1 -15.7,16.7 -3.5,2 -6.8,3 -9.8,3 l -1.1,1.9 -4.9,-3.3 c -4,-2.3 -6.5,-7.3 -6.5,-14.4 0,-7.1 2.5,-15 6.5,-22 z"
   id="path694"
   inkscape:connector-curvature="0"
   style="fill:#ff7373" />
				<path
   class="st98"
   d="m 562.2,160.7 c 6.1,-3.5 11.7,-3.9 15.7,-1.5 4,2.4 6.5,7.3 6.5,14.4 0,7.1 -2.5,15 -6.5,22 -4,7 -9.6,13.1 -15.7,16.7 -6.1,3.6 -11.7,3.9 -15.7,1.5 -4,-2.4 -6.5,-7.3 -6.5,-14.4 0,-7.1 2.5,-15 6.5,-22 4,-7 9.6,-13.2 15.7,-16.7 z"
   id="path696"
   inkscape:connector-curvature="0"
   style="fill:#feacad" />
			</g>
		</g>
	</g>
</g><g
               id="g711"
               transform="translate(-1943.3807,682.36683)">
			<path
   class="st50"
   d="m 2508.2,644.3 c 8.7,0 17.3,1.9 23.9,5.7 l 314.8,181.6 314.8,181.7 c 6.6,3.8 9.9,8.8 9.9,13.8 0,0.5 0,1 -0.1,1.5 2.7,2.9 4.1,6.1 4.1,9.4 0,5 -3.3,10.1 -10,13.9 l -221.3,127.8 -221.3,127.8 c -6.7,3.8 -15.3,5.8 -24.1,5.8 -8.8,0 -17.5,-1.9 -24.1,-5.8 L 2356.8,1124 2038.9,940.5 c -6.7,-3.8 -10,-8.9 -10,-13.9 0,-4.3 2.5,-8.7 7.4,-12.2 0.9,-4.2 4.1,-8.2 9.6,-11.3 L 2265.1,776.5 2484.3,650 c 6.6,-3.8 15.3,-5.7 23.9,-5.7 m 0,-3 c -9.5,0 -18.6,2.2 -25.4,6.1 l -219.2,126.5 -219.2,126.6 c -5.7,3.3 -9.4,7.4 -10.8,12.2 -5,3.9 -7.7,8.9 -7.7,14 0,6.4 4.1,12.3 11.5,16.5 l 317.9,183.5 317.9,183.5 c 6.9,4 16,6.2 25.6,6.2 9.6,0 18.7,-2.2 25.6,-6.2 l 221.3,-127.8 221.3,-127.8 c 7.4,-4.3 11.5,-10.1 11.5,-16.5 0,-3.6 -1.4,-7.2 -4,-10.4 0,-0.1 0,-0.3 0,-0.4 0,-6.3 -4,-12.2 -11.4,-16.4 L 2848.4,829 2533.6,647.4 c -6.8,-4 -15.9,-6.1 -25.4,-6.1 z"
   id="path709"
   inkscape:connector-curvature="0"
   style="fill:#80a3e5" />
		</g><path
               class="st99"
               d="m 852.9,1323.9 c 0.6,0.5 1.3,1 1.9,1.4 1.8,1.1 3.4,1.2 4.6,0.6 l 97.9,56.5 246.4,142.3 c 11.1,6.4 25.8,9.6 40.4,9.6 v 0 0 c 14.6,0 29.1,-3.2 40.1,-9.5 0.1,0 0.2,-0.1 0.2,-0.1 l 342,-197.5 342,-197.5 c 11.1,-6.4 16.6,-14.9 16.6,-23.3 v -25.4 0 0 c 0,-8.5 -5.6,-16.8 -16.7,-23.2 L 1720.4,915.4 1472.4,773 c -11.1,-6.4 -25.8,-9.5 -40.4,-9.5 -14.7,0 -29.3,3.3 -40.4,9.7 l -3.2,1.8 v -0.1 l 3.1,-1.8 c 22.2,-12.9 40.3,-44.4 40.3,-70 v -569 c 0,-12.3 -4.2,-21.1 -10.9,-25.5 v 0 l -0.4,-0.2 c -0.5,-0.3 -1,-0.6 -1.6,-0.9 l -7.5,-4.2 c -1.7,-1.3 -3.5,-2.3 -5.5,-3.1 -6.9,-2.5 -15.7,-1.3 -25.3,4.3 L 699.8,499.3 c -12.6,7.3 -23.9,20.6 -31.3,35.4 h 0.1 c -5.7,11.3 -9.1,23.5 -9.1,34.6 l -0.96501,582.736 M 705.1884,1236.1644 852.9,1323.9"
               id="path713"
               inkscape:connector-curvature="0"
               style="fill:none;stroke:#80a3e5;stroke-width:3;stroke-linecap:round;stroke-linejoin:round;stroke-miterlimit:10"
               sodipodi:nodetypes="ccccccccccccsccccccsccccssccccccccccsccc" /><g
               id="g721"
               transform="translate(903.25164,-297.22383)">
			<path
   class="st50"
   d="m 1227.5,1614.7 c 8.4,0 16.8,1.9 23.3,5.5 l 212.7,122.5 c 8.5,4.9 11.4,11.8 8.7,18.1 2.7,6.3 -0.2,13.2 -8.7,18.2 l -456.4,264.3 c -6.5,3.8 -15,5.6 -23.4,5.6 -8.4,0 -16.8,-1.9 -23.3,-5.5 L 747.7,1921 c -8.5,-5 -11.4,-11.9 -8.7,-18.2 -2.7,-6.3 0.1,-13.2 8.7,-18.1 l 456.4,-264.3 c 6.5,-3.8 15,-5.7 23.4,-5.7 m 0,-3 c -9.4,0 -18.2,2.1 -24.9,6 L 746.2,1882 c -9.1,5.2 -13,13.1 -10.4,20.7 -2.6,7.6 1.3,15.5 10.4,20.8 L 958.9,2046 c 6.7,3.8 15.5,5.9 24.8,5.9 9.4,0 18.2,-2.1 24.9,-6 L 1465,1781.6 c 9.1,-5.3 13,-13.2 10.4,-20.8 2.6,-7.6 -1.3,-15.5 -10.4,-20.7 l -212.7,-122.5 c -6.7,-3.8 -15.5,-5.9 -24.8,-5.9 z"
   id="path719"
   inkscape:connector-curvature="0"
   style="fill:#80a3e5" />
		</g></g></g></g></g></g></g>
</svg>