<?xml version="1.0" encoding="utf-8"?>
<!-- Generator: Adobe Illustrator 22.0.1, SVG Export Plug-In . SVG Version: 6.00 Build 0)  -->
<svg version="1.1" id="Layer_1" xmlns="http://www.w3.org/2000/svg" xmlns:xlink="http://www.w3.org/1999/xlink" x="0px" y="0px"
	 viewBox="0 0 240 240" style="enable-background:new 0 0 240 240;" xml:space="preserve">
<style type="text/css">
	.st0{fill:none;stroke:#0073F1;stroke-width:1.0471;stroke-linecap:round;stroke-linejoin:round;stroke-miterlimit:10;}
	.st1{fill:#FFFFFF;}
	.st2{fill:#E0F0FE;}
</style>
<g>
	<polygon class="st0" points="56.4,192.3 41.8,192.3 36.5,175.5 61.6,175.5 	"/>
	<polygon class="st0" points="207.2,192.3 188.4,192.3 185.2,167.1 210.3,167.1 	"/>
	<polygon class="st1" points="57.5,175.5 40.7,175.5 40.7,153.5 49.1,147.2 57.5,153.5 	"/>
	<g>
		<polygon class="st1" points="134.9,192.3 130.8,180.7 116.1,180.7 111.9,192.3 		"/>
	</g>
	<polyline class="st1" points="149.6,109.5 173.7,109.5 173.7,180.7 73.2,180.7 73.2,109.5 99.3,109.5 	"/>
	<polygon class="st1" points="118.2,121 113,77.1 123.4,53 133.9,77.1 128.7,121 	"/>
	<polygon class="st2" points="49.1,147.2 57.5,153.5 57.5,175.5 49.1,175.5 	"/>
	<polygon class="st2" points="132.7,186 130.8,180.7 116.1,180.7 114.2,186 	"/>
	<polygon class="st2" points="123.4,53 133.9,77.1 128.7,121 123.4,121 	"/>
	<polygon class="st2" points="173.7,109.5 173.7,167.1 73.2,167.1 	"/>
	<polyline class="st0" points="190.4,161.9 192.5,159.8 188.4,155.6 190.4,153.5 	"/>
	<polyline class="st0" points="197.8,161.9 199.9,159.8 195.7,155.6 197.8,153.5 	"/>
	<polyline class="st0" points="205.1,161.9 207.2,159.8 203,155.6 205.1,153.5 	"/>
	<polygon class="st0" points="126.6,175.5 123.4,177.6 120.3,175.5 120.3,172.4 123.4,170.3 126.6,172.4 	"/>
	<g>
		<polygon class="st0" points="134.9,192.3 130.8,180.7 116.1,180.7 111.9,192.3 		"/>
	</g>
	<polygon class="st0" points="57.5,175.5 40.7,175.5 40.7,153.5 49.1,147.2 57.5,153.5 	"/>
	<line class="st0" x1="40.7" y1="158.7" x2="37.6" y2="158.7"/>
	<line class="st0" x1="40.7" y1="153.5" x2="38.6" y2="152.5"/>
	<line class="st0" x1="40.7" y1="165" x2="37.6" y2="165"/>
	<line class="st0" x1="40.7" y1="171.3" x2="37.6" y2="171.3"/>
	<line class="st0" x1="57.5" y1="158.7" x2="60.6" y2="158.7"/>
	<line class="st0" x1="57.5" y1="165" x2="60.6" y2="165"/>
	<line class="st0" x1="57.5" y1="171.3" x2="60.6" y2="171.3"/>
	<line class="st0" x1="44.9" y1="150.4" x2="42.8" y2="148.3"/>
	<line class="st0" x1="57.5" y1="153.5" x2="59.6" y2="152.5"/>
	<line class="st0" x1="53.3" y1="150.4" x2="55.4" y2="148.3"/>
	<line class="st0" x1="37.8" y1="179.7" x2="60.3" y2="179.7"/>
	<polyline class="st0" points="44.9,171.3 47,168.2 44.9,165 47,161.9 44.9,158.7 47,155.6 	"/>
	<polyline class="st0" points="51.2,171.3 53.3,168.2 51.2,165 53.3,161.9 51.2,158.7 53.3,155.6 	"/>
	<g>
		<line class="st0" x1="34.4" y1="192.3" x2="216.6" y2="192.3"/>
		<line class="st0" x1="221.9" y1="192.3" x2="225" y2="192.3"/>
		<line class="st0" x1="25" y1="192.3" x2="28.1" y2="192.3"/>
	</g>
	<polygon class="st0" points="127.6,82.8 123.4,85.4 119.2,82.8 119.2,77.6 123.4,75 127.6,77.6 	"/>
	<polygon class="st0" points="118.2,121 113,77.1 123.4,53 133.9,77.1 128.7,121 	"/>
	<polygon class="st0" points="111.9,131.5 106.7,137.8 101.4,131.5 106.7,108.5 	"/>
	<polygon class="st0" points="128.7,131.5 123.4,137.8 118.2,131.5 123.4,108.5 	"/>
	<polygon class="st0" points="145.4,131.5 140.2,137.8 134.9,131.5 140.2,108.5 	"/>
	<line class="st0" x1="108.6" y1="117.1" x2="116" y2="102.4"/>
	<line class="st0" x1="110.9" y1="127.3" x2="118.2" y2="121"/>
	<line class="st0" x1="138.2" y1="117.1" x2="130.9" y2="102.4"/>
	<line class="st0" x1="135.9" y1="127.3" x2="128.7" y2="121"/>
	<line class="st0" x1="123.4" y1="53" x2="123.4" y2="47.7"/>
	<line class="st0" x1="101.4" y1="131.5" x2="111.9" y2="131.5"/>
	<line class="st0" x1="118.2" y1="131.5" x2="128.7" y2="131.5"/>
	<line class="st0" x1="134.9" y1="131.5" x2="145.4" y2="131.5"/>
	<g>
		<polygon class="st0" points="197.8,184.9 204.1,178.6 200.9,173.4 197.8,176.5 194.6,173.4 191.5,178.6 		"/>
	</g>
	<polyline class="st0" points="209.6,173.4 217.7,173.4 212.4,186 208,186 	"/>
	<g>
		<line class="st0" x1="123.4" y1="143" x2="123.4" y2="149.3"/>
		<line class="st0" x1="123.4" y1="153.5" x2="123.4" y2="155.6"/>
		<line class="st0" x1="127.6" y1="140.9" x2="127.6" y2="147.2"/>
		<line class="st0" x1="127.6" y1="151.4" x2="127.6" y2="153.5"/>
		<line class="st0" x1="119.2" y1="140.9" x2="119.2" y2="147.2"/>
		<line class="st0" x1="119.2" y1="151.4" x2="119.2" y2="153.5"/>
		<line class="st0" x1="123.4" y1="159.8" x2="123.4" y2="160.8"/>
		<line class="st0" x1="127.6" y1="157.7" x2="127.6" y2="158.7"/>
		<line class="st0" x1="119.2" y1="157.7" x2="119.2" y2="158.7"/>
	</g>
	<g>
		<line class="st0" x1="106.7" y1="143" x2="106.7" y2="149.3"/>
		<line class="st0" x1="106.7" y1="153.5" x2="106.7" y2="155.6"/>
		<line class="st0" x1="110.9" y1="140.9" x2="110.9" y2="147.2"/>
		<line class="st0" x1="110.9" y1="151.4" x2="110.9" y2="153.5"/>
		<line class="st0" x1="102.5" y1="140.9" x2="102.5" y2="147.2"/>
		<line class="st0" x1="102.5" y1="151.4" x2="102.5" y2="153.5"/>
		<line class="st0" x1="106.7" y1="159.8" x2="106.7" y2="160.8"/>
		<line class="st0" x1="110.9" y1="157.7" x2="110.9" y2="158.7"/>
		<line class="st0" x1="102.5" y1="157.7" x2="102.5" y2="158.7"/>
	</g>
	<g>
		<line class="st0" x1="140.2" y1="143" x2="140.2" y2="149.3"/>
		<line class="st0" x1="140.2" y1="153.5" x2="140.2" y2="155.6"/>
		<line class="st0" x1="144.4" y1="140.9" x2="144.4" y2="147.2"/>
		<line class="st0" x1="144.4" y1="151.4" x2="144.4" y2="153.5"/>
		<line class="st0" x1="136" y1="140.9" x2="136" y2="147.2"/>
		<line class="st0" x1="136" y1="151.4" x2="136" y2="153.5"/>
		<line class="st0" x1="140.2" y1="159.8" x2="140.2" y2="160.8"/>
		<line class="st0" x1="144.4" y1="157.7" x2="144.4" y2="158.7"/>
		<line class="st0" x1="136" y1="157.7" x2="136" y2="158.7"/>
	</g>
	<polyline class="st0" points="149.6,109.5 173.7,109.5 173.7,180.7 73.2,180.7 73.2,109.5 99.3,109.5 	"/>
	<line class="st0" x1="73.2" y1="167.1" x2="173.7" y2="167.1"/>
</g>
</svg>
