<?xml version="1.0" encoding="utf-8"?>
<!-- Generator: Adobe Illustrator 22.1.0, SVG Export Plug-In . SVG Version: 6.00 Build 0)  -->
<svg version="1.1" id="Layer_1" xmlns="http://www.w3.org/2000/svg" xmlns:xlink="http://www.w3.org/1999/xlink" x="0px" y="0px"
	 viewBox="0 0 240 240" style="enable-background:new 0 0 240 240;" xml:space="preserve">
<style type="text/css">
	.st0{fill:#FFFFFF;stroke:#0073F1;stroke-linecap:round;stroke-linejoin:round;stroke-miterlimit:10;}
	.st1{fill:#FFFFFF;}
	.st2{fill:#E0F0FE;stroke:#0073F1;stroke-linecap:round;stroke-linejoin:round;stroke-miterlimit:10;}
	.st3{fill:none;stroke:#0073F1;stroke-linecap:round;stroke-linejoin:round;stroke-miterlimit:10;}
	.st4{fill:none;stroke:#0073F1;stroke-linejoin:round;stroke-miterlimit:10;}
	.st5{fill:#E0F0FE;stroke:#0073F1;stroke-linejoin:round;stroke-miterlimit:10;}
	.st6{fill:#E0F0FE;}
	.st7{fill:none;stroke:#0073F1;stroke-linecap:round;stroke-linejoin:round;}
	.st8{fill:none;stroke:#0073F1;stroke-linecap:round;stroke-linejoin:round;stroke-dasharray:1.0909,2.1818;}
</style>
<g>
	<rect x="30.5" y="102.5" class="st0" width="36" height="36"/>
	<rect x="100.5" y="84" class="st1" width="44" height="80.5"/>
	<polygon class="st2" points="93.5,60.2 93.4,49.2 83.2,54.8 	"/>
	<polygon class="st2" points="187.4,89.5 189.6,83.1 182.5,84.3 	"/>
	<polygon class="st2" points="71.3,178.9 73.5,172.5 66.4,173.7 	"/>
	<polygon class="st2" points="125.7,66.8 129,60.9 121.8,60.8 	"/>
	<polyline class="st3" points="57.5,65.4 60.2,69.6 65,68.2 67.7,72.4 72.5,71 75.2,75.2 	"/>
	<polyline class="st3" points="168.9,167.8 170.6,172.5 175.6,172.3 177.2,177 182.2,176.8 183.8,181.5 	"/>
	<polyline class="st3" points="40.8,165.6 45.7,166.5 47.9,162 52.8,162.9 55.1,158.4 60,159.3 	"/>
	<polyline class="st3" points="182.4,65.4 179.7,69.6 174.9,68.2 172.2,72.4 167.4,71 164.6,75.2 	"/>
	<polygon class="st4" points="125.5,157.2 122.5,159.2 119.5,157.2 119.5,154.2 122.5,152.2 125.5,154.2 	"/>
	<polygon class="st5" points="151.6,50.9 148,50.2 147.3,46.6 149.4,44.5 153,45.2 153.7,48.7 	"/>
	<polygon class="st5" points="192.7,168.5 189.2,167.8 188.5,164.3 190.6,162.1 194.2,162.8 194.9,166.4 	"/>
	<g>
		<line class="st3" x1="30.5" y1="195.5" x2="204.5" y2="195.5"/>
		<line class="st3" x1="209.5" y1="195.5" x2="212.5" y2="195.5"/>
		<line class="st3" x1="21.5" y1="195.5" x2="24.5" y2="195.5"/>
	</g>
	<polygon class="st6" points="144.5,84 144.5,147.5 100.5,147.5 	"/>
	<rect x="100.5" y="84" class="st3" width="44" height="80.5"/>
	<line class="st3" x1="100.5" y1="147.5" x2="144.5" y2="147.5"/>
	<polygon class="st1" points="134.5,195.5 134.5,182.2 145.5,166.2 144.5,164.5 111.5,164.5 111.5,158.2 100.5,151.2 100.5,130.7 
		94.5,126.2 88.5,131.2 88.5,161.2 100.5,177.2 100.5,195.5 	"/>
	<polygon class="st0" points="153.5,134 155.5,140 153.5,146 130.5,146 127.5,140 130.5,134 	"/>
	<polygon class="st0" points="151.5,146 153.5,152 151.5,158 132.5,158 129.5,152 132.5,146 	"/>
	<polyline class="st3" points="71.5,113.5 71.5,143.5 41.5,143.5 	"/>
	<polygon class="st1" points="218.5,135.5 184.5,135.5 176.5,144 176.5,103.5 218.5,103.5 	"/>
	<polygon class="st6" points="190.5,110.5 190.5,114.5 186.5,117 182.5,114.5 	"/>
	<polygon class="st6" points="182.5,131.5 176.5,138 176.5,144 184.5,135.5 218.5,135.5 218.5,131.5 	"/>
	<polygon class="st6" points="207.3,115.4 202.5,127 197.5,124 194.5,128 212.5,128 	"/>
	<polygon class="st7" points="218.5,135.5 184.5,135.5 176.5,144 176.5,103.5 218.5,103.5 	"/>
	<polygon class="st7" points="190.5,114.5 186.5,117 182.5,114.5 182.5,110.5 186.5,108 190.5,110.5 	"/>
	<polygon class="st7" points="205.5,111 200.5,123 195.5,120 189.5,128 212.5,128 	"/>
	<line class="st7" x1="184.5" y1="128" x2="214.5" y2="128"/>
	<polygon class="st7" points="205.5,111 200.5,123 195.5,120 189.5,128 212.5,128 	"/>
	<polygon class="st6" points="111.5,170 111.5,164.5 131.8,164.5 134.5,170 	"/>
	<line class="st3" x1="111.5" y1="168.5" x2="111.5" y2="164.5"/>
	<polygon class="st3" points="134.5,195.5 134.5,182.2 145.5,166.2 144.5,164.5 111.5,164.5 111.5,158.2 100.5,151.2 100.5,130.7 
		94.5,126.2 88.5,131.2 88.5,161.2 100.5,177.2 100.5,195.5 	"/>
	<polygon class="st0" points="149.5,158 151.5,164 149.5,170 134.5,170 131.5,164 134.5,158 	"/>
	<g>
		<circle class="st3" cx="41" cy="127.5" r="3"/>
		<circle class="st3" cx="41" cy="113.5" r="3"/>
		<g>
			<g>
				<line class="st7" x1="48" y1="126" x2="48.5" y2="126"/>
				<line class="st8" x1="50.7" y1="126" x2="59.4" y2="126"/>
				<line class="st7" x1="60.5" y1="126" x2="61" y2="126"/>
			</g>
		</g>
		<path class="st3" d="M48.4,124c-2.7-2.8-4.4-6.7-4.4-10.5"/>
		<path class="st3" d="M44,127.5c0-6.6,5.4-14,12-14c1.8,0,3.5,0.4,5,1.1l-15,5.9l9,3.5"/>
	</g>
</g>
<g>
	<polyline class="st3" points="114.5,101.5 110.5,101.5 110.5,123.5 133.5,123.5 133.5,101.5 129.5,101.5 	"/>
	<line class="st0" x1="117.5" y1="101.5" x2="126.5" y2="101.5"/>
	<line class="st0" x1="110.5" y1="106.5" x2="133.5" y2="106.5"/>
	<rect x="114.5" y="99.5" class="st2" width="3" height="4"/>
	<rect x="126.5" y="99.5" class="st2" width="3" height="4"/>
	<polyline class="st3" points="114.5,106.5 110.5,106.5 110.5,123.5 133.5,123.5 133.5,106.5 113.5,106.5 	"/>
</g>
</svg>
