<?xml version="1.0" encoding="UTF-8"?>
<svg width="880px" height="400px" viewBox="0 0 880 400" version="1.1" xmlns="http://www.w3.org/2000/svg" xmlns:xlink="http://www.w3.org/1999/xlink">
    <!-- Generator: Sketch 51 (57462) - http://www.bohemiancoding.com/sketch -->
    <title>Group</title>
    <desc>Created with Sketch.</desc>
    <defs>
        <polygon id="path-1" points="0 0.462387427 879.406231 0.462387427 879.406231 194.859041 0 194.859041"></polygon>
        <polygon id="path-3" points="0 400 879.406231 400 879.406231 0.406394316 0 0.406394316"></polygon>
    </defs>
    <g id="Page-2" stroke="none" stroke-width="1" fill="none" fill-rule="evenodd">
        <g id="Perdoo-/-Partners-/-Branded" transform="translate(-410.000000, -341.000000)">
            <rect fill="#FFFFFF" x="0" y="0" width="1440" height="3647"></rect>
            <g id="Group" transform="translate(410.000000, 341.000000)">
                <g id="Group-236">
                    <g id="Group-3" transform="translate(0.000000, 203.907638)">
                        <mask id="mask-2" fill="white">
                            <use xlink:href="#path-1"></use>
                        </mask>
                        <g id="Clip-2"></g>
                        <path d="M45.7803132,148.248739 C100.3879,137.636306 86.5799257,1.2746714 152.595551,0.468987567 C217.110418,-0.318934281 177.785285,69.6988277 307.200684,71.3215631 C361.86154,72.0064654 374.908836,154.346075 453.725301,152.681421 C532.541766,151.016767 523.800717,39.2625933 646.345866,37.0537123 C768.891015,34.8448313 756.134922,156.147851 819.647626,157.848739 C860.908901,158.952824 879.406657,194.625293 879.406657,194.625293 L-0.000284100081,194.859041 C-0.000284100081,194.859041 17.5414754,153.736483 45.7803132,148.248739" id="Fill-1" fill="#D2E1EC" mask="url(#mask-2)"></path>
                    </g>
                    <path d="M91.5588507,296.342096 L91.5588507,386.917584 C91.5588507,392.664654 96.2330073,397.339609 101.977511,397.339609 L134.709391,397.339609 C140.454605,397.339609 145.128052,392.664654 145.128052,386.917584 L145.128052,296.342096 L91.5588507,296.342096 Z M134.709391,398.760568 L101.977511,398.760568 C95.4496013,398.760568 90.1383503,393.448313 90.1383503,386.917584 L90.1383503,294.921137 L146.548552,294.921137 L146.548552,386.917584 C146.548552,393.448313 141.237301,398.760568 134.709391,398.760568 Z" id="Fill-4" fill="#FFFFFF"></path>
                    <path d="M274.750347,296.342096 L274.750347,386.917584 C274.750347,392.664654 279.424504,397.339609 285.169007,397.339609 L317.900888,397.339609 C323.646102,397.339609 328.319548,392.664654 328.319548,386.917584 L328.319548,296.342096 L274.750347,296.342096 Z M317.900888,398.760568 L285.169007,398.760568 C278.641098,398.760568 273.329847,393.448313 273.329847,386.917584 L273.329847,294.921137 L329.740048,294.921137 L329.740048,386.917584 C329.740048,393.448313 324.428797,398.760568 317.900888,398.760568 Z" id="Fill-6" fill="#FFFFFF"></path>
                    <mask id="mask-4" fill="white">
                        <use xlink:href="#path-3"></use>
                    </mask>
                    <g id="Clip-9"></g>
                    <polygon id="Fill-8" fill="#E0EEF8" mask="url(#mask-4)" points="290.752994 299.715808 337.473963 299.715808 337.473963 291.548135 290.752994 291.548135"></polygon>
                    <polygon id="Fill-10" fill="#E0EEF8" mask="url(#mask-4)" points="81.6617272 299.715808 290.752994 299.715808 290.752994 291.548135 81.6617272 291.548135"></polygon>
                    <path d="M138.158295,289.47595 L145.690499,268.758366 L122.904252,268.758366 L116.71087,285.792114 C115.694502,288.589982 117.765592,291.547709 120.74225,291.547709 L137.40472,291.547709 L152.595551,291.547709 C152.595551,290.403837 151.667964,289.47595 150.524462,289.47595 L138.158295,289.47595 Z" id="Fill-11" fill="#AFC5D5" mask="url(#mask-4)"></path>
                    <polygon id="Fill-12" fill="#AFC5D5" mask="url(#mask-4)" points="99.6218241 291.547425 139.15222 291.547425 139.15222 289.624867 99.6218241 289.624867"></polygon>
                    <path d="M174.899183,277.229556 L93.964042,277.229556 C91.3453495,277.229556 89.0739693,275.419964 88.4887232,272.867211 L77.8882389,226.647673 C77.462799,224.793321 78.8719354,223.024938 80.7739855,223.024938 L161.709127,223.024938 C164.327819,223.024938 166.599199,224.833819 167.185156,227.386572 L177.78493,273.60611 C178.21037,275.461172 176.801944,277.229556 174.899183,277.229556" id="Fill-13" fill="#AFC5D5" mask="url(#mask-4)"></path>
                    <polygon id="Fill-14" fill="#FFFFFF" mask="url(#mask-4)" points="81.6618692 226.259609 90.9647264 267.482345 172.040497 267.482345 163.371183 226.259609"></polygon>
                    <polygon id="Fill-15" fill="#EEF5FA" mask="url(#mask-4)" points="321.321453 334.161989 743.906828 334.161989 743.906828 64.7104796 321.321453 64.7104796"></polygon>
                    <polygon id="Fill-16" fill="#FFFFFF" mask="url(#mask-4)" points="432.042357 118.519574 726.375722 118.519574 726.375722 94.700746 340.697789 94.700746 340.697789 317.320995 432.042357 317.320995"></polygon>
                    <polygon id="Fill-17" fill="#E0EEF8" mask="url(#mask-4)" points="392.891235 296.982593 414.56594 296.982593 414.56594 294.219538 392.891235 294.219538"></polygon>
                    <polygon id="Fill-18" fill="#E0EEF8" mask="url(#mask-4)" points="392.891235 302.500888 414.56594 302.500888 414.56594 299.737833 392.891235 299.737833"></polygon>
                    <polygon id="Fill-19" fill="#E0EEF8" mask="url(#mask-4)" points="392.891235 308.019893 414.56594 308.019893 414.56594 305.256838 392.891235 305.256838"></polygon>
                    <polygon id="Fill-20" fill="#9BB0BF" mask="url(#mask-4)" points="321.321453 85.4728242 743.906828 85.4728242 743.906828 64.7104796 321.321453 64.7104796"></polygon>
                    <polygon id="Fill-21" fill="#FFFFFF" mask="url(#mask-4)" points="340.697789 74.8603908 346.234189 74.8603908 346.234189 69.3236234 340.697789 69.3236234"></polygon>
                    <polygon id="Fill-22" fill="#FFFFFF" mask="url(#mask-4)" points="348.540371 74.8603908 354.076061 74.8603908 354.076061 69.3236234 348.540371 69.3236234"></polygon>
                    <polygon id="Fill-23" fill="#FFFFFF" mask="url(#mask-4)" points="340.697789 82.7040853 346.234189 82.7040853 346.234189 77.1673179 340.697789 77.1673179"></polygon>
                    <polygon id="Fill-24" fill="#FFFFFF" mask="url(#mask-4)" points="348.540371 82.7040853 354.076061 82.7040853 354.076061 77.1673179 348.540371 77.1673179"></polygon>
                    <polygon id="Fill-25" fill="#00CE6A" mask="url(#mask-4)" points="356.407103 155.634103 417.416885 155.634103 417.416885 146.802842 356.407103 146.802842"></polygon>
                    <polygon id="Fill-26" fill="#272162" mask="url(#mask-4)" points="382.496013 155.634103 391.326554 155.634103 391.326554 146.802842 382.496013 146.802842"></polygon>
                    <polygon id="Fill-27" fill="#E0EEF8" mask="url(#mask-4)" points="359.216852 133.55524 364.033059 133.55524 364.033059 128.738188 359.216852 128.738188"></polygon>
                    <polygon id="Fill-28" fill="#E0EEF8" mask="url(#mask-4)" points="367.645391 133.55524 372.461598 133.55524 372.461598 128.738188 367.645391 128.738188"></polygon>
                    <polygon id="Fill-29" fill="#E0EEF8" mask="url(#mask-4)" points="376.074641 133.55524 380.890847 133.55524 380.890847 128.738188 376.074641 128.738188"></polygon>
                    <polygon id="Fill-30" fill="#E0EEF8" mask="url(#mask-4)" points="384.50389 133.55524 389.320097 133.55524 389.320097 128.738188 384.50389 128.738188"></polygon>
                    <polygon id="Fill-31" fill="#E0EEF8" mask="url(#mask-4)" points="392.932429 133.55524 397.748636 133.55524 397.748636 128.738188 392.932429 128.738188"></polygon>
                    <polygon id="Fill-32" fill="#E0EEF8" mask="url(#mask-4)" points="401.360969 133.55524 406.177885 133.55524 406.177885 128.738188 401.360969 128.738188"></polygon>
                    <polygon id="Fill-33" fill="#E0EEF8" mask="url(#mask-4)" points="409.790218 133.55524 414.607135 133.55524 414.607135 128.738188 409.790218 128.738188"></polygon>
                    <polygon id="Fill-34" fill="#E0EEF8" mask="url(#mask-4)" points="359.216852 122.91794 364.033059 122.91794 364.033059 118.100888 359.216852 118.100888"></polygon>
                    <polygon id="Fill-35" fill="#E0EEF8" mask="url(#mask-4)" points="367.645391 122.91794 372.461598 122.91794 372.461598 118.100888 367.645391 118.100888"></polygon>
                    <polygon id="Fill-36" fill="#E0EEF8" mask="url(#mask-4)" points="376.074641 122.91794 380.890847 122.91794 380.890847 118.100888 376.074641 118.100888"></polygon>
                    <polygon id="Fill-37" fill="#E0EEF8" mask="url(#mask-4)" points="384.50389 122.91794 389.320097 122.91794 389.320097 118.100888 384.50389 118.100888"></polygon>
                    <polygon id="Fill-38" fill="#E0EEF8" mask="url(#mask-4)" points="392.932429 122.91794 397.748636 122.91794 397.748636 118.100888 392.932429 118.100888"></polygon>
                    <polygon id="Fill-39" fill="#E0EEF8" mask="url(#mask-4)" points="401.360969 122.91794 406.177885 122.91794 406.177885 118.100888 401.360969 118.100888"></polygon>
                    <polygon id="Fill-40" fill="#E0EEF8" mask="url(#mask-4)" points="409.790218 122.91794 414.607135 122.91794 414.607135 118.100888 409.790218 118.100888"></polygon>
                    <polygon id="Fill-41" fill="#E0EEF8" mask="url(#mask-4)" points="359.216852 143.591474 364.033059 143.591474 364.033059 138.774423 359.216852 138.774423"></polygon>
                    <polygon id="Fill-42" fill="#E0EEF8" mask="url(#mask-4)" points="367.645391 143.591474 372.461598 143.591474 372.461598 138.774423 367.645391 138.774423"></polygon>
                    <polygon id="Fill-43" fill="#E0EEF8" mask="url(#mask-4)" points="376.074641 143.591474 380.890847 143.591474 380.890847 138.774423 376.074641 138.774423"></polygon>
                    <polygon id="Fill-44" fill="#E0EEF8" mask="url(#mask-4)" points="384.50389 143.591474 389.320097 143.591474 389.320097 138.774423 384.50389 138.774423"></polygon>
                    <polygon id="Fill-45" fill="#E0EEF8" mask="url(#mask-4)" points="392.932429 143.591474 397.748636 143.591474 397.748636 138.774423 392.932429 138.774423"></polygon>
                    <polygon id="Fill-46" fill="#E0EEF8" mask="url(#mask-4)" points="401.360969 143.591474 406.177885 143.591474 406.177885 138.774423 401.360969 138.774423"></polygon>
                    <polygon id="Fill-47" fill="#E0EEF8" mask="url(#mask-4)" points="409.790218 143.591474 414.607135 143.591474 414.607135 138.774423 409.790218 138.774423"></polygon>
                    <polygon id="Fill-48" fill="#E0EEF8" mask="url(#mask-4)" points="359.216852 153.626998 364.033059 153.626998 364.033059 148.809947 359.216852 148.809947"></polygon>
                    <polygon id="Fill-49" fill="#E0EEF8" mask="url(#mask-4)" points="367.645391 153.626998 372.461598 153.626998 372.461598 148.809947 367.645391 148.809947"></polygon>
                    <polygon id="Fill-50" fill="#E0EEF8" mask="url(#mask-4)" points="376.074641 153.626998 380.890847 153.626998 380.890847 148.809947 376.074641 148.809947"></polygon>
                    <polygon id="Fill-51" fill="#E0EEF8" mask="url(#mask-4)" points="384.50389 153.626998 389.320097 153.626998 389.320097 148.809947 384.50389 148.809947"></polygon>
                    <polygon id="Fill-52" fill="#E0EEF8" mask="url(#mask-4)" points="392.932429 153.626998 397.748636 153.626998 397.748636 148.809947 392.932429 148.809947"></polygon>
                    <polygon id="Fill-53" fill="#E0EEF8" mask="url(#mask-4)" points="401.360969 153.626998 406.177885 153.626998 406.177885 148.809947 401.360969 148.809947"></polygon>
                    <polygon id="Fill-54" fill="#E0EEF8" mask="url(#mask-4)" points="409.790218 153.626998 414.607135 153.626998 414.607135 148.809947 409.790218 148.809947"></polygon>
                    <polygon id="Fill-55" fill="#E0EEF8" mask="url(#mask-4)" points="359.216852 163.662522 364.033059 163.662522 364.033059 158.845471 359.216852 158.845471"></polygon>
                    <polygon id="Fill-56" fill="#E0EEF8" mask="url(#mask-4)" points="367.645391 163.662522 372.461598 163.662522 372.461598 158.845471 367.645391 158.845471"></polygon>
                    <polygon id="Fill-57" fill="#E0EEF8" mask="url(#mask-4)" points="376.074641 163.662522 380.890847 163.662522 380.890847 158.845471 376.074641 158.845471"></polygon>
                    <polygon id="Fill-58" fill="#E0EEF8" mask="url(#mask-4)" points="384.50389 163.662522 389.320097 163.662522 389.320097 158.845471 384.50389 158.845471"></polygon>
                    <polygon id="Fill-59" fill="#E0EEF8" mask="url(#mask-4)" points="392.932429 163.662522 397.748636 163.662522 397.748636 158.845471 392.932429 158.845471"></polygon>
                    <polygon id="Fill-60" fill="#E0EEF8" mask="url(#mask-4)" points="401.360969 163.662522 406.177885 163.662522 406.177885 158.845471 401.360969 158.845471"></polygon>
                    <polygon id="Fill-61" fill="#E0EEF8" mask="url(#mask-4)" points="409.790218 163.662522 414.607135 163.662522 414.607135 158.845471 409.790218 158.845471"></polygon>
                    <polygon id="Fill-62" fill="#E0EEF8" mask="url(#mask-4)" points="359.216852 173.698757 364.033059 173.698757 364.033059 168.881705 359.216852 168.881705"></polygon>
                    <polygon id="Fill-63" fill="#E0EEF8" mask="url(#mask-4)" points="367.645391 173.698757 372.461598 173.698757 372.461598 168.881705 367.645391 168.881705"></polygon>
                    <polygon id="Fill-64" fill="#E0EEF8" mask="url(#mask-4)" points="376.074641 173.698757 380.890847 173.698757 380.890847 168.881705 376.074641 168.881705"></polygon>
                    <polygon id="Fill-65" fill="#E0EEF8" mask="url(#mask-4)" points="384.50389 173.698757 389.320097 173.698757 389.320097 168.881705 384.50389 168.881705"></polygon>
                    <polygon id="Fill-66" fill="#E0EEF8" mask="url(#mask-4)" points="392.932429 173.698757 397.748636 173.698757 397.748636 168.881705 392.932429 168.881705"></polygon>
                    <polygon id="Fill-67" fill="#E0EEF8" mask="url(#mask-4)" points="401.360969 173.698757 406.177885 173.698757 406.177885 168.881705 401.360969 168.881705"></polygon>
                    <polygon id="Fill-68" fill="#E0EEF8" mask="url(#mask-4)" points="409.790218 173.698757 414.607135 173.698757 414.607135 168.881705 409.790218 168.881705"></polygon>
                    <polygon id="Fill-69" fill="#FFFFFF" mask="url(#mask-4)" points="446.804907 317.321492 726.375722 317.321492 726.375722 124.921492 446.804907 124.921492"></polygon>
                    <polygon id="Fill-70" fill="#E0EEF8" mask="url(#mask-4)" points="453.724875 137.148135 477.664568 137.148135 477.664568 131.612078 453.724875 131.612078"></polygon>
                    <polygon id="Fill-71" fill="#E0EEF8" mask="url(#mask-4)" points="453.724875 148.682771 477.664568 148.682771 477.664568 143.146004 453.724875 143.146004"></polygon>
                    <polygon id="Fill-72" fill="#E0EEF8" mask="url(#mask-4)" points="453.724875 160.218117 477.664568 160.218117 477.664568 154.68135 453.724875 154.68135"></polygon>
                    <polygon id="Fill-73" fill="#E0EEF8" mask="url(#mask-4)" points="453.724875 171.752753 477.664568 171.752753 477.664568 166.216696 453.724875 166.216696"></polygon>
                    <polygon id="Fill-74" fill="#E0EEF8" mask="url(#mask-4)" points="453.724875 183.287389 477.664568 183.287389 477.664568 177.750622 453.724875 177.750622"></polygon>
                    <polygon id="Fill-75" fill="#E0EEF8" mask="url(#mask-4)" points="453.724875 194.822025 477.664568 194.822025 477.664568 189.285258 453.724875 189.285258"></polygon>
                    <polygon id="Fill-76" fill="#E0EEF8" mask="url(#mask-4)" points="453.724875 206.356661 477.664568 206.356661 477.664568 200.819893 453.724875 200.819893"></polygon>
                    <polygon id="Fill-77" fill="#E0EEF8" mask="url(#mask-4)" points="453.724875 217.892007 477.664568 217.892007 477.664568 212.35524 453.724875 212.35524"></polygon>
                    <polygon id="Fill-78" fill="#E0EEF8" mask="url(#mask-4)" points="453.724875 229.426643 477.664568 229.426643 477.664568 223.889876 453.724875 223.889876"></polygon>
                    <polygon id="Fill-79" fill="#E0EEF8" mask="url(#mask-4)" points="453.724875 240.961279 477.664568 240.961279 477.664568 235.425222 453.724875 235.425222"></polygon>
                    <polygon id="Fill-80" fill="#E0EEF8" mask="url(#mask-4)" points="453.724875 252.495915 477.664568 252.495915 477.664568 246.959147 453.724875 246.959147"></polygon>
                    <polygon id="Fill-81" fill="#E0EEF8" mask="url(#mask-4)" points="453.724875 264.030551 477.664568 264.030551 477.664568 258.493783 453.724875 258.493783"></polygon>
                    <polygon id="Fill-82" fill="#E0EEF8" mask="url(#mask-4)" points="453.724875 275.565187 477.664568 275.565187 477.664568 270.028419 453.724875 270.028419"></polygon>
                    <polygon id="Fill-83" fill="#E0EEF8" mask="url(#mask-4)" points="453.724875 287.100533 477.664568 287.100533 477.664568 281.563766 453.724875 281.563766"></polygon>
                    <polygon id="Fill-84" fill="#E0EEF8" mask="url(#mask-4)" points="453.724875 298.635169 477.664568 298.635169 477.664568 293.098401 453.724875 293.098401"></polygon>
                    <polygon id="Fill-85" fill="#E0EEF8" mask="url(#mask-4)" points="453.724875 310.169805 477.664568 310.169805 477.664568 304.633037 453.724875 304.633037"></polygon>
                    <polygon id="Fill-86" fill="#E0EEF8" mask="url(#mask-4)" points="487.427667 111.474956 516.378886 111.474956 516.378886 102.247247 487.427667 102.247247"></polygon>
                    <polygon id="Fill-87" fill="#E0EEF8" mask="url(#mask-4)" points="521.277482 111.474956 550.228701 111.474956 550.228701 102.247247 521.277482 102.247247"></polygon>
                    <polygon id="Fill-88" fill="#E0EEF8" mask="url(#mask-4)" points="555.128006 111.474956 584.079225 111.474956 584.079225 102.247247 555.128006 102.247247"></polygon>
                    <polygon id="Fill-89" fill="#E0EEF8" mask="url(#mask-4)" points="588.978531 111.474956 617.92975 111.474956 617.92975 102.247247 588.978531 102.247247"></polygon>
                    <polygon id="Fill-90" fill="#E0EEF8" mask="url(#mask-4)" points="622.829056 111.474956 651.780274 111.474956 651.780274 102.247247 622.829056 102.247247"></polygon>
                    <polygon id="Fill-91" fill="#E0EEF8" mask="url(#mask-4)" points="656.67958 111.474956 685.630089 111.474956 685.630089 102.247247 656.67958 102.247247"></polygon>
                    <polygon id="Fill-92" fill="#E0EEF8" mask="url(#mask-4)" points="690.529395 111.474956 719.480613 111.474956 719.480613 102.247247 690.529395 102.247247"></polygon>
                    <path d="M370.37538,231.103872 C366.009472,231.103872 362.470295,227.564263 362.470295,223.197655 C362.470295,218.831048 366.009472,215.291439 370.37538,215.291439 C374.741288,215.291439 378.280465,218.831048 378.280465,223.197655 C378.280465,227.564263 374.741288,231.103872 370.37538,231.103872 M370.37538,212.873677 C364.674202,212.873677 360.052604,217.496057 360.052604,223.197655 C360.052604,228.899254 364.674202,233.520924 370.37538,233.520924 C376.075848,233.520924 380.698157,228.899254 380.698157,223.197655 C380.698157,217.496057 376.075848,212.873677 370.37538,212.873677" id="Fill-93" fill="#E0EEF8" mask="url(#mask-4)"></path>
                    <path d="M370.37538,270.028632 C366.009472,270.028632 362.470295,266.489023 362.470295,262.123126 C362.470295,257.756519 366.009472,254.216909 370.37538,254.216909 C374.741288,254.216909 378.280465,257.756519 378.280465,262.123126 C378.280465,266.489023 374.741288,270.028632 370.37538,270.028632 M370.37538,251.799147 C364.674202,251.799147 360.052604,256.421528 360.052604,262.123126 C360.052604,267.824014 364.674202,272.446394 370.37538,272.446394 C376.075848,272.446394 380.698157,267.824014 380.698157,262.123126 C380.698157,256.421528 376.075848,251.799147 370.37538,251.799147" id="Fill-94" fill="#E0EEF8" mask="url(#mask-4)"></path>
                    <polygon id="Fill-95" fill="#E0EEF8" mask="url(#mask-4)" points="358.531461 111.474956 414.607135 111.474956 414.607135 102.247247 358.531461 102.247247"></polygon>
                    <polygon id="Fill-96" fill="#E0EEF8" mask="url(#mask-4)" points="358.531461 199.435879 414.607135 199.435879 414.607135 190.208171 358.531461 190.208171"></polygon>
                    <path d="M379.219203,228.523552 C380.157443,226.968313 380.698654,225.145933 380.698654,223.197087 C380.698654,219.795311 379.052294,216.779325 376.51457,214.897975 L375.072052,216.848242 C377.015296,218.289094 378.280962,220.592469 378.280962,223.197087 C378.280962,224.689805 377.859073,226.080924 377.14101,227.271687 L379.219203,228.523552 Z" id="Fill-97" fill="#FFBB00" mask="url(#mask-4)"></path>
                    <path d="M370.37538,272.446323 C373.160271,272.446323 375.685921,271.341528 377.542515,269.548988 L375.861353,267.807602 C374.439432,269.180249 372.507551,270.029272 370.37538,270.029272 C366.009472,270.029272 362.470295,266.488952 362.470295,262.123055 C362.470295,258.069059 365.522951,254.731936 369.453475,254.275098 L369.171506,251.871545 C364.038528,252.468348 360.052604,256.829272 360.052604,262.123055 C360.052604,267.824654 364.674202,272.446323 370.37538,272.446323" id="Fill-98" fill="#37D592" mask="url(#mask-4)"></path>
                    <polygon id="Fill-99" fill="#E0EEF8" mask="url(#mask-4)" points="392.891235 219.060746 414.56594 219.060746 414.56594 216.297691 392.891235 216.297691"></polygon>
                    <polygon id="Fill-100" fill="#E0EEF8" mask="url(#mask-4)" points="392.891235 224.579041 414.56594 224.579041 414.56594 221.815986 392.891235 221.815986"></polygon>
                    <polygon id="Fill-101" fill="#E0EEF8" mask="url(#mask-4)" points="392.891235 230.098046 414.56594 230.098046 414.56594 227.334991 392.891235 227.334991"></polygon>
                    <polygon id="Fill-102" fill="#E0EEF8" mask="url(#mask-4)" points="392.891235 258.021314 414.56594 258.021314 414.56594 255.258259 392.891235 255.258259"></polygon>
                    <polygon id="Fill-103" fill="#37D592" mask="url(#mask-4)" points="487.427667 209.544583 516.378886 209.544583 516.378886 128.900888 487.427667 128.900888"></polygon>
                    <polygon id="Fill-104" fill="#272162" mask="url(#mask-4)" points="588.978531 139.937478 617.92975 139.937478 617.92975 128.900888 588.978531 128.900888"></polygon>
                    <polygon id="Fill-105" fill="#698FDF" mask="url(#mask-4)" points="622.829056 190.914387 651.780274 190.914387 651.780274 128.900888 622.829056 128.900888"></polygon>
                    <polygon id="Fill-106" fill="#37D592" mask="url(#mask-4)" points="521.277482 232.752398 550.228701 232.752398 550.228701 189.285968 521.277482 189.285968"></polygon>
                    <polygon id="Fill-107" fill="#272162" mask="url(#mask-4)" points="487.427667 244.35524 516.378886 244.35524 516.378886 209.544583 487.427667 209.544583"></polygon>
                    <polygon id="Fill-108" fill="#698FDF" mask="url(#mask-4)" points="487.427667 302.32611 516.378886 302.32611 516.378886 244.35524 487.427667 244.35524"></polygon>
                    <polygon id="Fill-109" fill="#698FDF" mask="url(#mask-4)" points="521.277482 244.935702 550.228701 244.935702 550.228701 232.752398 521.277482 232.752398"></polygon>
                    <polygon id="Fill-110" fill="#698FDF" mask="url(#mask-4)" points="690.529395 140.50444 719.480613 140.50444 719.480613 128.900888 690.529395 128.900888"></polygon>
                    <polygon id="Fill-111" fill="#E0EEF8" mask="url(#mask-4)" points="392.891235 263.54032 414.56594 263.54032 414.56594 260.777265 392.891235 260.777265"></polygon>
                    <polygon id="Fill-112" fill="#E0EEF8" mask="url(#mask-4)" points="392.891235 269.059325 414.56594 269.059325 414.56594 266.29627 392.891235 266.29627"></polygon>
                    <polygon id="Fill-113" fill="#E0EEF8" mask="url(#mask-4)" points="476.810137 334.161989 559.749605 334.161989 559.749605 297.712256 476.810137 297.712256"></polygon>
                    <polygon id="Fill-114" fill="#FFFFFF" mask="url(#mask-4)" points="461.585924 371.073535 546.93314 371.073535 546.93314 285.715808 461.585924 285.715808"></polygon>
                    <polygon id="Fill-115" fill="#05A9F4" mask="url(#mask-4)" points="521.559451 347.08135 532.631542 347.08135 532.631542 336.007815 521.559451 336.007815"></polygon>
                    <polygon id="Fill-116" fill="#05A9F4" mask="url(#mask-4)" points="498.954318 360.461812 510.026408 360.461812 510.026408 349.388277 498.954318 349.388277"></polygon>
                    <polygon id="Fill-117" fill="#37D592" mask="url(#mask-4)" points="511.871638 330.471048 531.247974 330.471048 531.247974 311.093428 511.871638 311.093428"></polygon>
                    <polygon id="Fill-118" fill="#698FDF" mask="url(#mask-4)" points="480.500597 334.161989 499.876933 334.161989 499.876933 314.784369 480.500597 314.784369"></polygon>
                    <polygon id="Fill-119" fill="#272162" mask="url(#mask-4)" points="476.809427 343.389698 482.345827 343.389698 482.345827 337.852931 476.809427 337.852931"></polygon>
                    <polygon id="Fill-120" fill="#272162" mask="url(#mask-4)" points="504.028345 340.62167 509.564746 340.62167 509.564746 335.084902 504.028345 335.084902"></polygon>
                    <polygon id="Fill-121" fill="#37D592" mask="url(#mask-4)" points="529.862986 363.22984 535.399387 363.22984 535.399387 357.693073 529.862986 357.693073"></polygon>
                    <polygon id="Fill-122" fill="#37D592" mask="url(#mask-4)" points="487.882228 354.925044 493.417918 354.925044 493.417918 349.388277 487.882228 349.388277"></polygon>
                    <polygon id="Fill-123" fill="#272162" mask="url(#mask-4)" points="535.399387 307.862877 540.935787 307.862877 540.935787 302.32611 535.399387 302.32611"></polygon>
                    <polygon id="Fill-124" fill="#E0EEF8" mask="url(#mask-4)" points="468.966844 302.32611 527.095851 302.32611 527.095851 293.098401 468.966844 293.098401"></polygon>
                    <path d="M146.067429,280.43119 C146.176097,282.290515 158.30646,289.106146 160.735516,289.12746 C163.164571,289.149485 173.811222,273.668135 173.811222,273.668135 L167.548236,269.921776 L159.030205,277.840071 L148.022037,278.032611 L146.067429,280.43119 Z" id="Fill-125" fill="#272162" mask="url(#mask-4)"></path>
                    <polygon id="Fill-126" fill="#FFFFFF" mask="url(#mask-4)" points="183.436746 382.056838 186.215245 387.744938 189.755132 382.549911 189.001556 379.471403 186.111548 378.105151"></polygon>
                    <path d="M123.88667,289.394103 C120.463264,286.616838 120.498776,287.36 119.412804,288.142238 C118.672723,288.675808 117.519987,287.481492 118.984523,285.303872 C120.981747,282.336199 125.152336,283.78984 125.775225,284.407957 C126.398115,285.026075 127.837082,288.059822 127.837082,288.059822 L123.88667,289.394103 Z" id="Fill-127" fill="#FCD3C5" mask="url(#mask-4)"></path>
                    <path d="M136.822741,275.409307 C135.766599,277.140746 135.8845,279.733996 136.686373,280.178046 C137.106841,280.410373 137.287955,280.229911 137.704872,279.361705 C137.89948,278.956021 138.377479,277.920142 138.131022,277.088171 C137.849763,276.137549 136.822741,275.409307 136.822741,275.409307" id="Fill-128" fill="#FCD3C5" mask="url(#mask-4)"></path>
                    <polygon id="Fill-129" fill="#FFFFFF" mask="url(#mask-4)" points="147.416833 393.431474 152.414864 390.794885 152.622257 387.594174 146.117075 386.172504"></polygon>
                    <path d="M182.797592,316.374991 C178.102838,330.843908 167.928504,325.02508 165.753007,331.338401 C162.203887,341.636092 183.860836,382.925613 183.860836,382.925613 C186.860933,379.319929 187.843209,379.087602 189.001627,379.471972 C189.001627,379.471972 187.393621,338.029698 188.879464,333.467709 C190.57128,328.270551 216.527374,332.65421 217.006793,328.90714 C217.951425,321.512469 215.922951,315.327744 215.922951,315.327744 L193.333443,294.505009 L182.797592,316.374991 Z" id="Fill-130" fill="#003571" mask="url(#mask-4)"></path>
                    <path d="M146.091719,281.561137 C142.016303,280.463446 137.657498,279.870906 137.794576,278.876234 C137.892591,278.165044 138.122002,278.113179 139.078709,278.274458 C141.150508,278.621883 138.636223,277.47659 138.636223,277.47659 L137.876965,277.573925 C137.016852,276.255986 135.56368,276.016554 138.14544,274.082629 C139.455141,273.100746 140.780468,274.080497 142.382793,274.779609 C144.806166,275.838224 145.279903,277.120639 146.326102,278.109627 C147.3723,279.097904 146.091719,281.561137 146.091719,281.561137" id="Fill-131" fill="#FCD3C5" mask="url(#mask-4)"></path>
                    <path d="M147.716843,282.207744 C147.05702,282.011652 145.962525,281.785009 144.511483,281.329591 C142.860862,280.811652 144.566883,277.591048 146.240232,277.953393 L149.209078,279.640071 L147.716843,282.207744 Z" id="Fill-132" fill="#FFFFFF" mask="url(#mask-4)"></path>
                    <path d="M189.984684,382.164405 C188.563474,381.449663 187.086153,384.361208 183.35876,388.990693 C180.555403,392.472043 174.391141,396.208455 175.671722,397.021243 C177.091513,397.922131 192.383199,391.191758 192.38533,386.21627 C192.38533,385.655702 190.747493,382.548064 189.984684,382.164405" id="Fill-133" fill="#698FDF" mask="url(#mask-4)"></path>
                    <path d="M172.157333,303.097194 C146.176381,308.08405 129.133927,319.999503 133.254799,342.805897 C134.976446,352.337691 146.11672,388.805187 146.11672,388.805187 C148.783709,388.057052 150.502515,388.057052 152.639658,388.057052 C152.639658,388.057052 150.583483,350.408739 153.927341,339.324547 C157.213669,328.430053 179.168923,330.474813 192.229004,330.068419 C192.229004,330.068419 203.470844,315.419041 202.382031,303.656341 C201.292507,291.892931 172.157333,303.097194 172.157333,303.097194" id="Fill-134" fill="#003571" mask="url(#mask-4)"></path>
                    <path d="M206.357869,282.251794 C201.207135,266.297975 202.332171,263.054636 196.870347,252.903304 C191.357385,242.656057 173.965488,250.820888 173.965488,250.820888 C173.965488,250.820888 172.962615,251.812007 172.533624,251.97897 C157.454302,257.858899 153.589831,270.82373 147.789217,277.158366 C144.485843,280.765471 135.778176,283.068845 129.26092,283.503659 C124.609492,283.814139 123.080323,285.647886 123.858047,289.127815 C123.858047,289.127815 138.050977,289.127105 143.37004,289.127815 C151.097563,289.129236 165.816077,280.066359 165.816077,280.066359 C165.816077,280.066359 169.794189,303.576128 167.548378,321.856767 C167.548378,321.856767 172.364584,319.955524 181.697272,318.638295 C188.993672,317.607389 199.837772,316.722131 199.837772,316.722131 L198.492559,301.758011 L203.994157,316.223375 C203.994157,316.223375 210.801195,315.381456 215.922809,315.328171 C215.922809,315.328171 211.455335,298.041492 206.357869,282.251794" id="Fill-135" fill="#05A9F4" mask="url(#mask-4)"></path>
                    <path d="M161.318418,235.232185 C161.512316,240.673037 164.366102,249.871616 169.227054,249.49222 C174.35364,249.092931 173.492107,251.874458 173.492107,251.874458 C173.492107,251.874458 184.214754,250.371083 182.598935,247.774281 C180.637224,244.620462 179.257918,242.955808 178.784181,240.805187 C177.637837,235.598082 176.072446,231.378544 172.217918,230.327744 C166.771719,228.842131 161.192704,231.704654 161.318418,235.232185" id="Fill-136" fill="#FCD3C5" mask="url(#mask-4)"></path>
                    <path d="M175.072555,249.925329 L172.533411,251.979325 C172.533411,251.979325 178.780061,251.398153 182.187132,249.999218 C184.14103,249.196377 184.827132,248.555524 185.035235,247.872043 C185.035235,247.872043 180.775864,247.401705 179.23036,248.478792 C177.651474,249.579325 175.072555,249.925329 175.072555,249.925329" id="Fill-137" fill="#FFFFFF" mask="url(#mask-4)"></path>
                    <path d="M160.516262,231.626998 C158.952291,234.194671 161.0525,238.480284 165.953937,241.556661 C165.953937,241.556661 167.274292,238.466785 169.941282,240.438366 C173.107577,242.779396 170.831935,244.080284 171.337634,244.336767 C176.170176,246.789343 174.388158,247.258259 175.69928,246.960568 C177.768949,246.490231 180.828707,244.960568 180.993485,243.267496 C181.158263,241.574423 179.318005,239.745648 178.932339,236.150622 C178.545963,232.555595 177.007561,228.250089 173.312839,227.30302 C169.616697,226.35595 162.489337,228.386501 160.516262,231.626998" id="Fill-138" fill="#003571" mask="url(#mask-4)"></path>
                    <path d="M139.728588,280.007318 C137.922421,279.575346 136.5282,278.992753 136.81301,278.330586 C137.097111,277.667709 139.376303,278.317798 139.376303,278.317798 L139.728588,280.007318 Z" id="Fill-139" fill="#FCD3C5" mask="url(#mask-4)"></path>
                    <path d="M132.129479,396.557869 C147.014192,396.636021 152.311948,396.687176 152.983135,396.661599 C153.655031,396.635311 153.3965,392.888242 152.414935,390.795169 C152.414935,390.795169 147.504975,391.905648 143.91324,392.758934 C140.321504,393.61222 133.473272,394.361066 132.206896,394.464796 C130.94123,394.567815 131.096065,396.552185 132.129479,396.557869" id="Fill-140" fill="#698FDF" mask="url(#mask-4)"></path>
                    <path d="M178.595751,335.697336 L220.74697,393.527531 C222.486373,395.914742 225.28902,397.339964 228.242951,397.339964 L236.774476,397.339964 C237.400917,397.339964 237.945679,397.00675 238.23191,396.448313 C238.51743,395.890586 238.469843,395.253286 238.104065,394.744583 L194.74471,334.47389 L178.595751,335.697336 Z M236.774476,398.760924 L228.242951,398.760924 C224.836591,398.760924 221.605663,397.117584 219.599206,394.364476 L175.945808,334.473179 L195.432232,332.997513 L239.256801,393.914742 C239.930118,394.851155 240.02174,396.070337 239.496155,397.09627 C238.97057,398.122913 237.927212,398.760924 236.774476,398.760924 Z" id="Fill-141" fill="#FFFFFF" mask="url(#mask-4)"></path>
                    <path d="M216.611467,334.477655 L173.252113,394.748348 C172.886334,395.257052 172.838747,395.893641 173.123558,396.452078 C173.409789,397.010515 173.95455,397.34302 174.581701,397.34302 L183.113227,397.34302 C186.067157,397.34302 188.869094,395.918508 190.609207,393.531297 L232.759716,335.701101 L216.611467,334.477655 Z M183.113227,398.763979 L174.581701,398.763979 C173.428965,398.763979 172.385608,398.126679 171.860023,397.100036 C171.333727,396.073393 171.42606,394.85421 172.099377,393.918508 L215.923945,333.001279 L235.41037,334.476945 L191.756972,394.368242 C189.750515,397.12135 186.518877,398.763979 183.113227,398.763979 Z" id="Fill-142" fill="#FFFFFF" mask="url(#mask-4)"></path>
                    <polygon id="Fill-143" fill="#E0EEF8" mask="url(#mask-4)" points="217.110702 339.173002 237.40184 339.173002 237.40184 331.005329 217.110702 331.005329"></polygon>
                    <polygon id="Fill-144" fill="#FFFFFF" mask="url(#mask-4)" points="173.065956 339.173002 217.110702 339.173002 217.110702 331.005329 173.065956 331.005329"></polygon>
                    <polygon id="Fill-145" fill="#E0EEF8" mask="url(#mask-4)" points="321.385375 221.121137 348.238515 221.121137 348.238515 131.611368 321.385375 131.611368"></polygon>
                    <path d="M242.267125,389.451012 C242.163429,390.148703 240.656988,392.629698 241.79978,394.800213 C242.942573,396.971439 246.422089,398.522416 250.837004,398.6773 C255.251919,398.832185 256.792452,398.754742 257.519748,398.6773 C258.247044,398.599858 258.725043,396.27659 257.201556,395.630764 C255.678069,394.984227 250.516681,391.161137 250.408013,389.455275 C250.299345,387.749414 242.267125,389.451012 242.267125,389.451012" id="Fill-146" fill="#698FDF" mask="url(#mask-4)"></path>
                    <path d="M272.683093,389.451012 C272.528258,390.148703 270.279606,392.629698 271.985627,394.800213 C273.690938,396.971439 278.884998,398.522416 285.474699,398.6773 C292.06369,398.832185 294.36348,398.754742 295.448743,398.6773 C296.534715,398.599858 297.205902,397.384938 294.932391,396.739112 C292.658169,396.093286 281.431245,391.544085 281.269308,389.838934 C281.10737,388.133073 272.683093,389.451012 272.683093,389.451012" id="Fill-147" fill="#698FDF" mask="url(#mask-4)"></path>
                    <path d="M237.517682,272.446323 C237.517682,272.446323 245.524333,309.824654 246.65221,327.605115 C247.780797,345.386998 241.216665,389.453783 241.216665,389.453783 L251.361879,389.450941 C251.361879,389.450941 263.512129,346.828561 264.84811,331.746501 C266.184801,316.665151 261.989353,281.563908 261.989353,281.563908 L237.517682,272.446323 Z" id="Fill-148" fill="#003571" mask="url(#mask-4)"></path>
                    <path d="M253.092901,272.446323 C253.092901,272.446323 264.057743,327.094991 265.186331,344.876874 C266.314918,362.657336 271.868365,389.455204 271.868365,389.455204 L282.013579,389.452362 C282.013579,389.452362 283.100262,345.325187 284.436242,330.242416 C285.772933,315.161066 276.970092,276.872611 276.970092,276.872611 L253.092901,272.446323 Z" id="Fill-149" fill="#003571" mask="url(#mask-4)"></path>
                    <polygon id="Fill-150" fill="#FFFFFF" mask="url(#mask-4)" points="246.658531 202.102309 332.006457 202.102309 332.006457 116.745293 246.658531 116.745293"></polygon>
                    <polygon id="Fill-151" fill="#E0EEF8" mask="url(#mask-4)" points="254.37753 156.655773 286.209524 156.655773 286.209524 124.819893 254.37753 124.819893"></polygon>
                    <polygon id="Fill-152" fill="#E0EEF8" mask="url(#mask-4)" points="291.284972 156.655773 323.116965 156.655773 323.116965 124.819893 291.284972 124.819893"></polygon>
                    <polygon id="Fill-153" fill="#E0EEF8" mask="url(#mask-4)" points="254.37753 193.564476 286.209524 193.564476 286.209524 161.728597 254.37753 161.728597"></polygon>
                    <polygon id="Fill-154" fill="#E0EEF8" mask="url(#mask-4)" points="291.284972 193.564476 323.116965 193.564476 323.116965 161.728597 291.284972 161.728597"></polygon>
                    <polygon id="Fill-155" fill="#FFFFFF" mask="url(#mask-4)" points="260.209395 151.349911 280.377659 151.349911 280.377659 144.42913 260.209395 144.42913"></polygon>
                    <polygon id="Fill-156" fill="#FFFFFF" mask="url(#mask-4)" points="297.116836 151.349911 317.285101 151.349911 317.285101 144.42913 297.116836 144.42913"></polygon>
                    <polygon id="Fill-157" fill="#FFFFFF" mask="url(#mask-4)" points="260.209395 187.631261 280.377659 187.631261 280.377659 180.71048 260.209395 180.71048"></polygon>
                    <polygon id="Fill-158" fill="#FFFFFF" mask="url(#mask-4)" points="297.116836 187.631261 317.285101 187.631261 317.285101 180.71048 297.116836 180.71048"></polygon>
                    <polygon id="Fill-159" fill="#698FDF" mask="url(#mask-4)" points="254.492591 129.649023 259.308797 129.649023 259.308797 124.831972 254.492591 124.831972"></polygon>
                    <polygon id="Fill-160" fill="#272162" mask="url(#mask-4)" points="291.284262 129.649023 296.101178 129.649023 296.101178 124.831972 291.284262 124.831972"></polygon>
                    <polygon id="Fill-161" fill="#37D592" mask="url(#mask-4)" points="254.37753 166.545648 259.194447 166.545648 259.194447 161.728597 254.37753 161.728597"></polygon>
                    <polygon id="Fill-162" fill="#698FDF" mask="url(#mask-4)" points="291.169911 166.545648 295.986118 166.545648 295.986118 161.728597 291.169911 161.728597"></polygon>
                    <path d="M246.658673,135.298757 C246.658673,135.298757 246.945614,158.79929 248.964856,176.093783 C250.548003,189.65897 255.066615,195.898401 259.193879,198.564831 C263.321143,201.231972 276.432362,207.730728 283.203887,209.544583 C289.974702,211.359858 295.640368,237.369805 301.842983,234.564121 C308.044888,231.759147 313.87107,204.922913 313.87107,204.922913 L320.072975,204.922913 C320.072975,204.922913 315.693572,248.154174 302.049666,251.624867 C288.405049,255.094849 282.893508,245.601421 282.893508,245.601421 L280.392006,285.533925 C280.392006,285.533925 275.719981,290.828419 262.583193,286.106572 C251.807987,282.233037 246.091893,289.521137 235.132023,281.560924 C235.132023,281.560924 236.74216,243.027353 237.756397,228.523623 C238.771345,214.019893 229.829295,190.317584 231.540998,175.150266 C233.006244,162.166963 241.8517,135.298757 241.8517,135.298757 L246.658673,135.298757 Z" id="Fill-163" fill="#698FDF" mask="url(#mask-4)"></path>
                    <path d="M246.658673,129.334281 C246.658673,129.334281 248.337705,125.582238 249.474815,126.04476 C250.611926,126.507993 248.209149,129.852931 248.066389,131.797513 C247.924339,133.742806 246.658673,135.298757 246.658673,135.298757 L241.8517,135.298757 C241.8517,135.298757 240.585324,127.760568 241.412765,126.04476 C242.239496,124.329663 246.658673,122.409236 246.658673,122.409236 L246.658673,129.334281 Z" id="Fill-164" fill="#FCD3C5" mask="url(#mask-4)"></path>
                    <path d="M313.871354,204.922629 C313.597908,203.785151 310.53744,203.986217 309.814405,202.102735 L313.638392,202.092789 C313.638392,202.092789 314.470095,199.897407 315.964462,197.479645 C317.477295,195.031332 321.972468,193.564192 321.321169,197.91659 C320.833227,201.181243 320.073259,204.922629 320.073259,204.922629 L313.871354,204.922629 Z" id="Fill-165" fill="#FCD3C5" mask="url(#mask-4)"></path>
                    <path d="M256.785989,196.594956 C247.201162,203.992469 238.011945,224.4827 237.756965,228.523197 C237.501275,232.563694 234.758999,253.764405 234.601324,265.063162 C234.485553,273.421243 239.973656,280.64611 250.11887,280.64611 C256.325747,280.64611 285.351542,284.870622 283.068087,271.34238 C282.044617,265.275595 282.893366,245.601705 282.893366,245.601705 C282.893366,245.601705 276.039451,235.573996 278.417369,224.926039 C280.794576,214.278082 283.909023,209.824085 283.909023,209.824085 L256.785989,196.594956 Z" id="Fill-166" fill="#05A9F4" mask="url(#mask-4)"></path>
                    <path d="M260.209608,198.265009 C260.121537,204.560568 267.150173,208.812789 274.075822,209.064298 C281.000762,209.316519 280.377872,208.101599 280.377872,208.101599 C280.377872,208.101599 274.334354,205.336412 274.489188,203.217052 C274.644023,201.097691 275.161085,199.960924 275.161085,199.960924 L268.028752,196.594671 C268.028752,196.594671 265.806379,199.702309 264.204765,199.598579 C262.602441,199.49556 260.209608,198.265009 260.209608,198.265009" id="Fill-167" fill="#05A9F4" mask="url(#mask-4)"></path>
                    <path d="M275.161298,199.96071 C277.996617,198.323055 283.538699,197.542948 283.687141,193.564263 C283.908739,187.631048 280.984639,178.904938 278.219635,178.595169 C275.454631,178.284689 267.511903,182.980959 267.744865,186.935488 C267.977117,190.889307 268.028965,196.595169 268.028965,196.595169 L275.161298,199.96071 Z" id="Fill-168" fill="#FCD3C5" mask="url(#mask-4)"></path>
                    <path d="M248.85498,217.17286 C242.957062,224.366465 250.038967,229.164334 256.786344,228.337336 C263.53301,227.510337 265.54728,237.500391 270.975012,234.230053 C276.402744,230.959005 275.93611,226.890089 273.869282,220.377833 C271.801743,213.864867 270.364907,211.027922 272.318805,205.284405 C274.272704,199.541599 277.716707,198.107851 278.215303,193.189201 C278.215303,193.189201 276.349475,192.069485 276.905601,190.381385 C277.461017,188.692575 279.095303,187.939467 279.095303,187.939467 C279.095303,187.939467 282.861759,184.176057 282.319128,181.895417 C281.776497,179.615488 281.913575,176.187425 278.360904,176.009805 C278.360904,176.009805 277.449653,173.509627 274.7159,173.905364 C271.981437,174.300391 268.803777,172.159716 263.118935,180.710337 C257.434092,189.260959 263.326328,190.564689 260.741727,195.133073 C258.157837,199.702167 255.573236,196.187425 252.782663,201.976412 C249.99209,207.7654 253.093043,212.004121 248.85498,217.17286" id="Fill-169" fill="#175ECA" mask="url(#mask-4)"></path>
                    <path d="M694.357004,134.529307 L691.992581,130.506572 C691.992581,130.506572 688.944187,124.525755 684.89292,126.619538 C680.840943,128.713321 681.717391,135.366252 684.553421,134.502309 C688.135212,133.411723 689.388094,135.648313 689.388094,135.648313 C689.388094,135.648313 689.912969,136.62167 690.762428,138.201066 C693.695051,143.651155 694.357004,134.529307 694.357004,134.529307" id="Fill-170" fill="#FCD3C5" mask="url(#mask-4)"></path>
                    <path d="M692.954544,132.143588 C692.330944,129.325826 691.846554,125.310906 691.235028,125.335773 C688.576562,125.446607 690.912575,130.653002 690.212268,132.207531 C689.511251,133.76206 691.247813,132.904512 691.247813,132.904512 L692.954544,132.143588 Z" id="Fill-171" fill="#FCD3C5" mask="url(#mask-4)"></path>
                    <polygon id="Fill-172" fill="#37D592" mask="url(#mask-4)" points="658.526941 158.063233 687.47816 158.063233 687.47816 128.901599 658.526941 128.901599"></polygon>
                    <path d="M667.60401,147.431403 C667.470483,144.237798 668.979054,142.591616 668.913711,140.939041 C668.848368,139.287176 667.765947,141.405115 667.34974,142.207957 C666.934244,143.010799 667.160814,139.313464 665.98606,137.379538 C664.810596,135.445613 661.741605,137.573499 661.875842,140.803339 C662.010079,144.032469 662.519328,145.417904 662.880846,146.783446 C663.241653,148.148988 663.245914,149.154316 663.245914,149.154316 L667.60401,147.431403 Z" id="Fill-173" fill="#FCD3C5" mask="url(#mask-4)"></path>
                    <path d="M742.691519,254.370373 C741.979848,261.843908 735.28645,316.035027 734.879477,322.255275 C734.215393,332.400924 741.518186,379.809094 741.518186,379.809094 C740.84913,381.648526 737.507403,383.384938 735.441995,381.454565 C735.441995,381.454565 717.275926,322.639645 717.986886,318.235382 C719.192181,310.762558 716.938557,259.172504 716.938557,259.172504 L725.046773,248.908917 L742.691519,254.370373 Z" id="Fill-174" fill="#003571" mask="url(#mask-4)"></path>
                    <path d="M702.779435,252.323197 C695.194673,274.079503 703.602615,308.362274 703.912284,333.084121 C703.98544,338.987496 711.200161,382.269201 711.200161,382.269201 C711.200161,382.269201 715.655561,386.074529 716.740823,379.455702 C715.377853,369.910409 717.547667,341.925329 718.665601,333.754103 C722.427797,306.242913 732.476416,261.278792 732.476416,261.278792 L702.779435,252.323197 Z" id="Fill-175" fill="#003571" mask="url(#mask-4)"></path>
                    <path d="M700.407981,256.989201 L697.777924,274.075524 C697.777924,274.075524 711.30819,275.908561 723.367529,274.579254 C735.428287,273.249236 744.773759,262.487602 744.773759,262.487602 L742.360329,248.619751 L700.407981,256.989201 Z" id="Fill-176" fill="#05A9F4" mask="url(#mask-4)"></path>
                    <path d="M741.572023,247.048739 C732.094444,231.410373 738.311264,236.491723 734.590973,214.910195 C729.708713,186.587638 717.089698,193.974494 717.089698,193.974494 C713.728084,196.668632 717.777931,195.333641 711.242918,200.066856 C709.353653,200.764547 706.897608,200.485329 704.274654,199.691012 C697.732539,197.708064 691.788455,203.438082 696.277236,214.778757 C699.013831,221.693854 698.762402,232.118721 696.765889,243.796163 C693.483112,263.003979 695.966857,263.136838 700.344839,265.604334 C714.466034,273.564547 750.654702,262.037726 741.572023,247.048739" id="Fill-177" fill="#FFFFFF" mask="url(#mask-4)"></path>
                    <path d="M703.361343,199.393535 C705.848639,205.034742 702.356339,242.754103 698.091997,233.234387 C698.091997,233.234387 694.834079,215.590337 690.523571,209.287673 C686.212352,202.984298 672.765185,192.548064 668.755822,187.394956 C664.74717,182.242558 662.436726,148.32071 662.436726,148.32071 L668.325411,147.062451 C668.325411,147.062451 676.38533,177.443979 678.34491,180.14238 C680.305201,182.841492 703.361343,199.393535 703.361343,199.393535" id="Fill-178" fill="#05A9F4" mask="url(#mask-4)"></path>
                    <path d="M715.233104,199.371012 C721.370376,194.80405 731.441014,206.971012 735.033459,217.654494 C735.033459,217.654494 735.468132,202.082202 731.45877,195.47048 C727.448697,188.858046 712.862289,162.288242 711.752878,160.55254 C710.642047,158.817549 694.419222,133.304938 694.419222,133.304938 L688.889214,137.907425 L704.780352,171.720568 L715.233104,199.371012 Z" id="Fill-179" fill="#05A9F4" mask="url(#mask-4)"></path>
                    <path d="M719.269172,176.196448 C706.535806,180.88206 706.718341,184.180107 707.023038,186.89556 C707.327025,189.611012 709.069979,189.810657 709.83918,192.835169 C710.609091,195.860391 709.603377,197.647247 708.33558,200.58579 C707.458421,202.619183 712.044507,202.558082 714.997017,200.750622 C717.950948,198.943872 718.967316,198.655417 717.98717,193.846181 C717.006315,189.036945 722.007186,188.388988 722.760762,182.683126 C723.515048,176.977975 719.269172,176.196448 719.269172,176.196448" id="Fill-180" fill="#FCD3C5" mask="url(#mask-4)"></path>
                    <path d="M717.944413,175.338188 C714.810079,176.008171 716.40175,185.342451 715.888239,185.615275 C715.888239,185.615275 718.676681,185.808526 717.179474,187.729663 C715.680846,189.65151 714.35978,188.134636 714.35978,188.134636 C714.35978,188.134636 713.881072,190.658259 715.621185,191.797158 C717.362008,192.935346 717.860604,192.680284 717.860604,192.680284 C717.860604,192.680284 722.401944,193.348135 725.772081,189.973357 C729.853178,185.885968 724.860119,173.860391 717.944413,175.338188" id="Fill-181" fill="#003571" mask="url(#mask-4)"></path>
                    <path d="M725.689195,185.462522 C724.34185,185.750266 724.646547,188.256838 725.131648,188.6746 C725.615328,189.093073 729.697847,191.406394 729.459913,195.897336 C729.221269,200.388277 726.009517,199.673535 725.343303,206.833748 C724.675667,213.993961 743.651422,220.063588 741.251487,225.935702 C738.851551,231.807815 731.458557,227.433393 730.10553,233.164831 C729.497556,235.735346 730.295877,238.862877 741.481608,237.038366 C752.667338,235.213854 754.299493,224.825222 747.236765,214.461456 C740.173327,204.097691 744.530002,199.031972 742.889324,193.998224 C741.248646,188.964476 732.106305,184.091297 725.689195,185.462522" id="Fill-182" fill="#003571" mask="url(#mask-4)"></path>
                    <path d="M716.634854,378.225506 C715.355693,377.233677 712.556597,377.141314 709.571416,380.80881 C707.422199,383.448242 703.42278,393.073819 699.946105,394.943801 C697.54901,396.233321 696.24144,398.421599 699.76144,398.532433 C703.978195,398.665293 718.669721,384.920355 718.237889,382.740604 C718.215161,382.623375 718.191012,382.508988 718.166864,382.396021 C717.73006,380.341314 717.321666,378.757655 716.634854,378.225506" id="Fill-183" fill="#698FDF" mask="url(#mask-4)"></path>
                    <path d="M699.761582,398.532504 C699.761582,398.532504 702.941372,399.254352 706.351283,396.27389 C711.051719,392.167318 716.798354,386.514742 717.259306,385.863943 C718.076804,384.706572 718.681937,383.734636 718.238031,382.740675 C717.794124,381.746714 715.36791,381.665719 713.200936,383.610302 C712.521937,384.219893 707.580726,392.252575 703.324197,396.715808 C701.60184,398.521847 699.761582,398.532504 699.761582,398.532504" id="Fill-184" fill="#698FDF" mask="url(#mask-4)"></path>
                    <path d="M741.050486,378.980391 C739.734392,378.375062 737.985756,378.54913 735.852165,380.748774 C733.471406,383.202771 732.26327,393.087673 728.100494,394.495133 C725.231083,395.464938 723.976071,397.688739 728.609743,398.551972 C734.159638,399.585009 744.173456,386.381456 743.151406,383.803837 C743.096717,383.666004 742.786337,379.77897 741.050486,378.980391" id="Fill-185" fill="#698FDF" mask="url(#mask-4)"></path>
                    <path d="M728.609956,398.551901 C728.609956,398.551901 732.468746,399.140178 735.027067,397.242487 C737.525017,395.389556 740.434202,391.771083 741.501708,389.175702 C742.33199,387.15865 743.686437,385.315666 743.151619,383.803766 C742.665098,382.428988 740.637333,381.741243 738.473911,383.826501 C736.613056,385.621172 736.921304,392.349414 732.279819,396.552611 C730.401918,398.253499 728.609956,398.551901 728.609956,398.551901" id="Fill-186" fill="#698FDF" mask="url(#mask-4)"></path>
                    <path d="M546.331558,27.6191829 L729.939048,27.6191829 C729.939048,27.6191829 720.188733,19.7044405 690.299984,19.3364121 C664.537078,19.0188277 672.180791,11.3371226 643.219629,12.0007105 C622.578337,12.4738899 629.473446,-1.56802842 608.102728,0.642273535 C588.998418,2.61811723 592.222954,14.6905861 574.5846,15.7868561 C559.479709,16.7253996 546.331558,27.6191829 546.331558,27.6191829" id="Fill-187" fill="#E0EEF8" mask="url(#mask-4)"></path>
                    <path d="M363.04091,313.177123 C358.675002,313.177123 355.135826,309.637513 355.135826,305.270906 C355.135826,300.905009 358.675002,297.364689 363.04091,297.364689 C367.406818,297.364689 370.945995,300.905009 370.945995,305.270906 C370.945995,309.637513 367.406818,313.177123 363.04091,313.177123 M363.04091,294.947638 C357.339732,294.947638 352.718134,299.570018 352.718134,305.270906 C352.718134,310.972504 357.339732,315.594885 363.04091,315.594885 C368.741379,315.594885 373.362977,310.972504 373.362977,305.270906 C373.362977,299.570018 368.741379,294.947638 363.04091,294.947638" id="Fill-189" fill="#272162" mask="url(#mask-4)"></path>
                    <path d="M366.371913,295.500462 L365.589927,297.793179 L365.589927,297.79389 C368.703664,298.855346 370.945924,301.798153 370.945924,305.270977 C370.945924,306.835453 370.485682,308.289805 369.701566,309.517513 L371.743535,310.819822 C372.767006,309.21698 373.362906,307.314316 373.362906,305.270977 C373.362906,300.735986 370.438095,296.886607 366.371913,295.500462" id="Fill-190" fill="#E0EEF8" mask="url(#mask-4)"></path>
                    <path d="M416.288155,254.835879 C416.288155,254.835879 391.307235,281.737478 369.143877,293.37087 C369.143877,293.37087 366.498195,294.135346 364.732513,296.973712 C363.918567,298.280284 360.883667,300.005329 361.758696,297.557016 C362.634434,295.108703 361.0314,295.75524 359.345266,296.727886 C357.808994,297.614565 355.901973,298.714387 355.901973,298.714387 C355.901973,298.714387 354.571674,296.730018 359.853805,293.719005 C365.135935,290.707282 365.816355,291.108703 367.498938,289.647957 C368.786621,288.531083 387.550722,270.95595 387.550722,270.95595 L408.815613,247.532149 C408.815613,247.532149 415.96286,250.236945 416.288155,254.835879" id="Fill-191" fill="#FCD3C5" mask="url(#mask-4)"></path>
                    <path d="M391.95271,265.389059 C391.95271,265.389059 396.702864,261.482842 395.873291,256.222451 C395.043719,250.96206 394.73405,244.879645 394.73405,244.879645 C394.73405,244.879645 402.359296,263.45016 403.728659,268.019254 L400.63907,271.163837 C401.456568,269.704512 394.197101,262.818544 391.95271,265.389059" id="Fill-192" fill="#272162" mask="url(#mask-4)"></path>
                    <path d="M414.833349,387.354956 L414.691299,388.97556 C414.691299,388.97556 414.682776,391.342877 415.013753,392.183375 C415.34473,393.023162 415.027248,393.567389 415.027248,393.567389 L408.64707,397.086394 L407.745052,394.347496 C407.745052,394.347496 409.89569,392.387282 409.988023,391.557442 C410.081065,390.728313 409.953931,388.711972 409.953931,388.711972 L409.738725,384.083197 L414.833349,387.354956 Z" id="Fill-193" fill="#FFFFFF" mask="url(#mask-4)"></path>
                    <path d="M408.665821,399.935417 C412.337814,399.828135 416.316636,398.418544 415.864917,395.589414 C415.700849,394.567034 415.117734,392.535773 415.117734,392.535773 C413.244094,394.735417 408.108274,394.164192 407.862528,393.685329 C407.862528,393.685329 393.39189,396.247318 393.045998,397.870764 C393.028952,397.951758 393.048129,398.515879 393.090744,398.611794 C393.555248,400.237371 405.368129,400.032753 408.665821,399.935417" id="Fill-194" fill="#698FDF" mask="url(#mask-4)"></path>
                    <path d="M437.83949,384.681634 C437.83949,384.681634 438.375729,386.756945 439.081007,388.473464 C439.437553,389.339538 440.340281,391.491581 440.340281,391.491581 L435.688852,398.481989 C435.688852,398.481989 434.733566,394.072043 433.538925,389.048242 C433.261927,387.884476 432.016149,384.501172 432.016149,384.501172 L437.83949,384.681634 Z" id="Fill-195" fill="#FFFFFF" mask="url(#mask-4)"></path>
                    <path d="M434.140507,399.057691 C437.695309,398.714529 441.343154,397.766039 441.240878,394.901385 C441.210337,394.04952 440.340281,391.491794 440.340281,391.491794 C439.111548,392.249165 437.118586,393.378117 434.480717,393.086821 C434.480717,393.086821 418.412016,396.634245 417.806883,398.244902 C417.776342,398.325897 417.715261,398.906359 417.747222,399.01151 C418.008594,400.74508 430.615535,399.398011 434.140507,399.057691" id="Fill-196" fill="#698FDF" mask="url(#mask-4)"></path>
                    <path d="M405.688168,283.963481 C395.088394,310.281776 394.977595,333.706288 399.24975,346.398295 C402.087199,354.828845 409.850944,386.501314 409.850944,386.501314 C409.850944,386.501314 413.147215,387.353179 414.833349,387.3546 C414.623115,380.757798 411.832542,338.28746 413.307022,331.195453 C418.235448,307.489591 421.929459,288.664725 421.929459,288.664725 L405.688168,283.963481 Z" id="Fill-197" fill="#003571" mask="url(#mask-4)"></path>
                    <path d="M444.269172,285.793819 C448.718889,299.628277 428.505169,331.541599 429.316985,337.272327 C430.641601,346.620107 438.072239,385.518153 438.072239,385.518153 L432.856872,386.874458 C432.856872,386.874458 413.640342,339.052789 413.448575,334.915666 C413.124701,327.893996 413.115467,305.570018 416.13332,294.824725 C417.145427,291.222593 419.784006,280.567531 419.784006,280.567531 C419.784006,280.567531 436.984846,263.147282 444.269172,285.793819" id="Fill-198" fill="#003571" mask="url(#mask-4)"></path>
                    <path d="M436.692933,301.560355 C436.692933,301.560355 450.377324,302.675098 446.901359,274.877584 C444.012061,251.761421 434.13035,242.688597 413.356952,231.127673 C393.896097,220.297833 389.139551,235.212931 390.460617,243.711687 C390.595564,244.581314 396.586525,254.653073 400.580972,266.864085 C402.579616,272.97421 404.696872,279.976696 404.091738,285.914885 C403.38575,292.836377 432.956307,300.590551 432.956307,300.590551 L434.985492,286.744725 L436.692933,301.560355 Z" id="Fill-199" fill="#698FDF" mask="url(#mask-4)"></path>
                    <path d="M373.12206,236.596945 C378.896394,247.793393 380.824013,247.862309 383.291422,247.27119 C385.758831,246.680782 385.743916,245.052362 388.442867,243.9973 C391.142528,242.942238 391.992697,245.413996 394.845062,246.245968 C396.820268,246.821456 397.151245,240.853428 395.147629,238.339041 C393.144013,235.824654 392.492713,233.065861 388.172972,234.519503 C383.85323,235.973144 382.953343,233.293925 377.609421,233.252007 C372.264788,233.210799 373.12206,236.596945 373.12206,236.596945" id="Fill-200" fill="#FCD3C5" mask="url(#mask-4)"></path>
                    <path d="M372.250583,230.431901 C367.537362,236.13492 372.89549,237.263162 375.269856,236.840426 C378.519251,236.262096 382.905756,237.417336 382.905756,237.417336 C385.991083,232.971155 388.217007,238.103659 387.092681,239.073464 C385.405837,240.527815 393.188048,237.425151 395.981462,243.928881 C398.775587,250.432611 404.374489,248.099396 406.413617,242.076661 C408.262399,236.613783 410.638896,230.335275 416.032536,232.971865 C421.426176,235.608455 431.51386,242.861741 435.527483,247.635453 C442.106531,255.459964 445.381495,266.422664 445.381495,266.422664 C446.081801,262.248597 451.140914,267.954458 452.814263,262.32675 C455.400994,253.63048 448.028597,242.83048 438.379848,241.422309 C430.177879,240.225151 428.33478,236.171155 423.642867,227.204192 C418.950954,218.236519 402.657814,228.584654 396.977233,226.41627 C379.789889,219.855702 378.702496,222.625861 372.250583,230.431901" id="Fill-201" fill="#272162" mask="url(#mask-4)"></path>
                    <path d="M418.365495,262.907211 C413.079103,280.019822 410.004429,287.289449 394.920846,294.219467 C379.834421,301.150906 378.329401,302.872398 375.072194,306.63865 C371.814986,310.405613 367.525785,303.159432 369.476843,301.567957 C370.0074,301.135986 373.033776,300.137052 375.072194,298.793535 C375.072194,298.793535 377.923848,296.982522 383.031257,294.219467 C384.929046,293.193535 402.863574,282.453925 403.776245,278.906501 C405.412662,272.551261 407.380055,259.963694 407.380055,259.963694 L414.654437,257.045044 L418.365495,262.907211 Z" id="Fill-202" fill="#FCD3C5" mask="url(#mask-4)"></path>
                    <path d="M410.530583,235.311616 C407.379913,241.817478 407.379913,259.963837 407.379913,259.963837 C407.379913,259.963837 416.518702,258.4427 418.365353,262.907353 C418.365353,262.907353 422.605546,252.94643 421.835635,247.386927 C421.065724,241.827425 412.327516,231.600071 410.530583,235.311616" id="Fill-203" fill="#272162" mask="url(#mask-4)"></path>
                    <path d="M643.549824,398.767034 C643.611616,398.767034 643.675538,398.76135 643.738751,398.751403 C644.369453,398.647673 644.797734,398.052291 644.693327,397.420675 L620.74227,251.765968 C620.637863,251.135062 620.037701,250.707353 619.411971,250.811083 C618.781269,250.914813 618.352988,251.510195 618.457395,252.141812 L642.409162,397.796519 C642.501495,398.364192 642.992988,398.767034 643.549824,398.767034" id="Fill-204" fill="#E0EEF8" mask="url(#mask-4)"></path>
                    <polygon id="Fill-205" fill="#E0EEF8" mask="url(#mask-4)" points="577.59109 301.909059 596.698951 301.909059 596.698951 299.592895 577.59109 299.592895"></polygon>
                    <path d="M561.876591,398.767034 C562.433427,398.767034 562.92563,398.362771 563.016542,397.794387 L586.651538,252.13897 C586.754525,251.508064 586.325533,250.913393 585.694121,250.810373 C585.061288,250.707353 584.46965,251.136483 584.366663,251.768099 L560.732378,397.422806 C560.629391,398.054423 561.059093,398.649094 561.689085,398.751403 C561.752297,398.76135 561.814799,398.767034 561.876591,398.767034" id="Fill-206" fill="#E0EEF8" mask="url(#mask-4)"></path>
                    <path d="M581.387661,398.767034 C581.944497,398.767034 582.436701,398.362771 582.528323,397.794387 L606.162609,252.13897 C606.265595,251.508064 605.836604,250.913393 605.205191,250.810373 C604.574489,250.707353 603.98072,251.136483 603.877734,251.768099 L580.243448,397.422806 C580.140462,398.054423 580.570163,398.649094 581.200155,398.751403 C581.263367,398.76135 581.325869,398.767034 581.387661,398.767034" id="Fill-207" fill="#E0EEF8" mask="url(#mask-4)"></path>
                    <path d="M662.664149,398.615062 C662.72523,398.615062 662.785601,398.610089 662.847393,398.600142 C663.467441,398.499964 663.890751,397.91595 663.789185,397.294281 L640.18615,251.078295 C640.086715,250.456625 639.498628,250.033179 638.88071,250.135488 C638.260662,250.236377 637.838063,250.820391 637.938208,251.44206 L661.541953,397.657336 C661.631445,398.216483 662.115835,398.615062 662.664149,398.615062" id="Fill-208" fill="#E0EEF8" mask="url(#mask-4)"></path>
                    <polygon id="Fill-209" fill="#AFC5D5" mask="url(#mask-4)" points="588.490589 255.567318 643.551316 255.567318 643.551316 248.339609 588.490589 248.339609"></polygon>
                    <polygon id="Fill-210" fill="#E0EEF8" mask="url(#mask-4)" points="581.386667 255.567318 613.840839 255.567318 613.840839 248.339609 581.386667 248.339609"></polygon>
                    <path d="M622.206237,268.943517 L640.954712,268.943517 C641.583283,268.943517 642.093953,268.434103 642.093953,267.804618 C642.093953,267.175844 641.583283,266.665719 640.954712,266.665719 L622.206237,266.665719 C621.576956,266.665719 621.066996,267.175844 621.066996,267.804618 C621.066996,268.434103 621.576956,268.943517 622.206237,268.943517" id="Fill-211" fill="#E0EEF8" mask="url(#mask-4)"></path>
                    <path d="M625.526586,289.134565 L644.27435,289.134565 C644.902922,289.134565 645.413592,288.62444 645.413592,287.995666 C645.413592,287.366892 644.902922,286.856767 644.27435,286.856767 L625.526586,286.856767 C624.897304,286.856767 624.387345,287.366892 624.387345,287.995666 C624.387345,288.62444 624.897304,289.134565 625.526586,289.134565" id="Fill-212" fill="#E0EEF8" mask="url(#mask-4)"></path>
                    <path d="M628.846153,309.324973 L647.594628,309.324973 C648.22391,309.324973 648.733869,308.814849 648.733869,308.186075 C648.733869,307.558011 648.22391,307.047176 647.594628,307.047176 L628.846153,307.047176 C628.217582,307.047176 627.706912,307.558011 627.706912,308.186075 C627.706912,308.814849 628.217582,309.324973 628.846153,309.324973" id="Fill-213" fill="#E0EEF8" mask="url(#mask-4)"></path>
                    <path d="M632.166431,329.516092 L650.914906,329.516092 C651.544187,329.516092 652.054147,329.005968 652.054147,328.377194 C652.054147,327.74913 651.544187,327.238295 650.914906,327.238295 L632.166431,327.238295 C631.53786,327.238295 631.02719,327.74913 631.02719,328.377194 C631.02719,329.005968 631.53786,329.516092 632.166431,329.516092" id="Fill-214" fill="#E0EEF8" mask="url(#mask-4)"></path>
                    <path d="M635.486709,349.70714 L654.235893,349.70714 C654.864465,349.70714 655.374425,349.197016 655.374425,348.568242 C655.374425,347.940178 654.864465,347.429343 654.235893,347.429343 L635.486709,347.429343 C634.858137,347.429343 634.348178,347.940178 634.348178,348.568242 C634.348178,349.197016 634.858137,349.70714 635.486709,349.70714" id="Fill-215" fill="#E0EEF8" mask="url(#mask-4)"></path>
                    <path d="M638.806986,369.898188 L657.556171,369.898188 C658.184743,369.898188 658.695412,369.388064 658.695412,368.75929 C658.695412,368.130515 658.184743,367.620391 657.556171,367.620391 L638.806986,367.620391 C638.178415,367.620391 637.668455,368.130515 637.668455,368.75929 C637.668455,369.388064 638.178415,369.898188 638.806986,369.898188" id="Fill-216" fill="#E0EEF8" mask="url(#mask-4)"></path>
                    <path d="M642.127974,390.089307 L660.876449,390.089307 C661.50502,390.089307 662.01569,389.579183 662.01569,388.949698 C662.01569,388.321634 661.50502,387.81151 660.876449,387.81151 L642.127974,387.81151 C641.498692,387.81151 640.988733,388.321634 640.988733,388.949698 C640.988733,389.579183 641.498692,390.089307 642.127974,390.089307" id="Fill-217" fill="#E0EEF8" mask="url(#mask-4)"></path>
                    <polygon id="Fill-218" fill="#E0EEF8" mask="url(#mask-4)" points="824.820662 398.767318 853.407522 398.767318 853.407522 349.018117 824.820662 349.018117"></polygon>
                    <polygon id="Fill-219" fill="#FFFFFF" mask="url(#mask-4)" points="761.927296 398.766607 824.820662 398.766607 824.820662 349.017407 761.927296 349.017407"></polygon>
                    <polygon id="Fill-220" fill="#AFC5D5" mask="url(#mask-4)" points="761.927225 369.483339 821.086805 369.483339 824.820591 349.017265 761.927225 349.017265"></polygon>
                    <polygon id="Fill-221" fill="#FFFFFF" mask="url(#mask-4)" points="824.820449 349.017478 761.927083 349.017478 744.773831 363.590835 807.667196 363.590835"></polygon>
                    <polygon id="Fill-222" fill="#E0EEF8" mask="url(#mask-4)" points="870.560846 306.581599 807.66677 306.581599 790.513517 349.017833 853.407593 349.017833"></polygon>
                    <polygon id="Fill-223" fill="#AFC5D5" mask="url(#mask-4)" points="824.820449 349.017478 839.906163 387.832398 853.407309 387.832398 853.407309 349.017478"></polygon>
                    <polygon id="Fill-224" fill="#E0EEF8" mask="url(#mask-4)" points="844.017304 374.494849 872.603454 374.494849 853.407522 349.017762 824.820662 349.017762"></polygon>
                    <polygon id="Fill-225" fill="#37D592" mask="url(#mask-4)" points="849.669475 348.96476 856.106473 308.876661 828.197902 308.876661 821.155771 349.025861"></polygon>
                    <polygon id="Fill-226" fill="#272162" mask="url(#mask-4)" points="836.79619 349.006394 839.709637 329.11865 811.801065 329.11865 808.286037 349.039787"></polygon>
                    <path d="M49.0836158,371.275453 C48.7249395,370.265861 48.0786118,369.208668 48.0786118,369.208668 C48.0786118,369.208668 40.4704116,355.623588 37.8865214,351.532647 C36.63364,349.548988 36.3239709,346.785933 35.5000807,344.198366 C34.6243422,341.447389 33.2627926,338.913819 32.9097982,338.425009 C32.2854883,337.559645 32.7272639,342.280782 33.8040032,350.493215 C34.8800323,358.704938 41.6906215,361.634956 47.5047296,369.208668 L48.2462308,371.313108 L51.8592736,389.676874 L52.8159806,389.676874 C52.8159806,389.676874 49.4422922,372.285044 49.0836158,371.275453" id="Fill-227" fill="#698FDF" mask="url(#mask-4)"></path>
                    <path d="M29.7913737,317.043126 C29.7913737,317.043126 38.4557159,325.361421 41.6873543,326.502451 C44.9182825,327.644192 49.3239645,343.373499 48.9276449,347.423943 C48.5313253,351.475098 53.7182825,392.425719 53.7182825,392.425719 L52.8816077,392.628917 C52.8816077,392.628917 47.5220597,350.256625 47.5788797,347.751474 C47.63641,345.245613 46.8068378,344.869769 45.7009782,344.272256 C44.5958289,343.674032 39.7980888,333.216483 38.1815593,331.481492 C36.5657401,329.747922 30.8318902,321.335844 30.8318902,321.335844 L29.7913737,317.043126 Z" id="Fill-228" fill="#37D592" mask="url(#mask-4)"></path>
                    <path d="M58.9171719,388.575346 C58.9171719,388.575346 61.8249362,332.264867 61.3689556,327.183517 C60.912975,322.101456 62.4741049,319.938046 62.2759451,318.070906 C62.0763648,316.203766 63.0273898,298.721705 62.763887,295.576412 C62.4989637,292.43254 54.8481485,275.285115 53.833201,272.431829 C52.8189637,269.579254 51.3714738,271.073393 51.147745,272.599503 C50.9240161,274.126323 53.5576239,283.626856 54.798431,291.726323 C55.6486005,297.274458 54.5974302,312.620107 57.0186731,319.453499 C57.7232413,321.444263 59.6714576,324.665577 59.8937659,327.506075 C60.1160743,330.347282 57.6124423,388.445329 57.6124423,388.445329 L58.9171719,388.575346 Z" id="Fill-229" fill="#37D592" mask="url(#mask-4)"></path>
                    <path d="M70.7414173,319.934991 C70.7414173,319.934991 63.3107797,329.371581 60.2680678,330.949556 C57.2260662,332.526821 55.0384956,348.714387 55.9909411,352.671048 C56.9440969,356.628419 54.6080839,389.28206 54.6080839,389.28206 L55.4653559,389.368028 C55.4653559,389.368028 57.7750896,355.28206 57.3716675,352.808881 C56.9689556,350.334991 57.7388668,349.848313 58.7502631,349.10302 C59.7623697,348.358437 63.0671638,337.336767 64.4287135,335.395737 C65.7895529,333.453996 70.3039031,324.330018 70.3039031,324.330018 L70.7414173,319.934991 Z" id="Fill-230" fill="#698FDF" mask="url(#mask-4)"></path>
                    <polygon id="Fill-231" fill="#FFFFFF" mask="url(#mask-4)" points="68.2946764 398.767034 48.6001485 398.767034 46.4907054 377.775204 70.7414883 377.775204"></polygon>
                    <polygon id="Fill-232" fill="#E0EEF8" mask="url(#mask-4)" points="633.144374 248.339609 608.641453 248.339609 608.602389 213.0373 633.105311 213.0373"></polygon>
                    <polygon id="Fill-233" fill="#272162" mask="url(#mask-4)" points="624.82841 227.334281 628.420145 227.334281 628.420145 221.227709 624.82841 221.227709"></polygon>
                    <path d="M610.574541,213.536838 C612.242918,214.312682 612.313233,214.660107 612.284113,218.258686 C612.254282,221.857975 612.225162,224.588348 612.691797,224.670764 C613.159851,224.75389 613.07178,214.743233 613.655606,214.412149 C614.238722,214.081066 614.880077,213.874316 615.201821,214.99119 C615.522854,216.108064 615.11446,217.224938 615.639335,217.431687 C616.16421,217.638437 615.573282,214.154245 616.56337,214.19119 C617.552749,214.228845 620.248859,214.122274 621.241789,214.949982 C622.233298,215.77698 623.095542,215.071474 623.464161,214.76881 C623.834202,214.466856 628.45509,214.63595 628.823709,213.919076 C629.19375,213.202202 629.911813,213.044476 629.911813,213.044476 L610.124952,213.044476 C610.124952,213.044476 610.385614,213.448739 610.574541,213.536838" id="Fill-234" fill="#272162" mask="url(#mask-4)"></path>
                    <path d="M628.079012,231.047318 C627.983128,231.047318 627.886534,231.046607 627.78994,231.043766 C620.794686,230.87325 616.644694,225.819609 612.250376,220.468988 C611.456316,219.502025 610.635267,218.50238 609.795041,217.529734 C609.666486,217.381243 609.682822,217.156732 609.831264,217.028135 C609.979706,216.900959 610.203435,216.915169 610.33199,217.064369 C611.178609,218.044831 612.002499,219.048028 612.7994,220.018544 C617.08718,225.239858 621.137737,230.171297 627.806276,230.333286 C630.226098,230.400782 631.983968,229.668277 633.030166,228.181243 C634.954234,225.443766 634.179351,220.696341 632.81354,217.165258 C632.741805,216.982664 632.832717,216.776625 633.015961,216.705577 C633.198496,216.63595 633.405178,216.725471 633.475493,216.908774 C634.908068,220.611083 635.696446,225.623517 633.610441,228.589769 C632.464097,230.22103 630.603952,231.047318 628.079012,231.047318" id="Fill-235" fill="#AFC5D5" mask="url(#mask-4)"></path>
                </g>
                <polygon id="Fill-237" points="632 220 633 220 633 216 632 216"></polygon>
                <g id="Group-249" transform="translate(593.000000, 222.000000)">
                    <path d="M1.57842727,24.5307789 C1.12539697,24.5307789 0.866821212,24.3247263 0.729518182,24.1513579 C0.426336364,23.7676737 0.371972727,23.1452526 0.563639394,22.2485684 C0.638215152,21.5074895 1.21530606,19.9962 2.8197303,19.8576474 L10.1588212,17.7672789 C10.7923667,17.6180684 11.5492758,17.0873053 11.5499727,16.6744895 L11.5687909,16.5586737 L12.7773364,13.0039105 L13.4366697,13.2362526 L12.2448515,16.7412789 C12.1904879,17.6166474 11.0837,18.2788579 10.3302758,18.4557789 L2.94239697,20.5532526 C1.45018485,20.6889632 1.25782121,22.2947526 1.25015455,22.3629632 C1.05082121,23.3022789 1.19927576,23.6134895 1.27245758,23.7051474 C1.31079091,23.7548842 1.38536667,23.8202526 1.57842727,23.8202526 L1.57982121,23.8202526 L16.1625182,23.7904105 L16.1639121,24.5009368 L1.58121515,24.5307789 L1.57842727,24.5307789 Z" id="Fill-239" fill="#272162"></path>
                    <polygon id="Fill-241" fill="#272162" points="1.94935455 21.4777184 21.8255364 21.3903237 21.8471424 26.6261921 1.97096061 26.7135868"></polygon>
                    <path d="M2.69671515,24.0971447 C2.69671515,25.5423553 2.37192727,26.7133026 1.9711697,26.7133026 C1.57110909,26.7133026 1.24562424,25.5423553 1.24562424,24.0971447 C1.24562424,22.6526447 1.57110909,21.4809868 1.9711697,21.4809868 C2.37192727,21.4809868 2.69671515,22.6526447 2.69671515,24.0971447" id="Fill-243" fill="#272162"></path>
                    <path d="M22.5726182,24.0100342 C22.5726182,25.4552447 22.2478303,26.6261921 21.8470727,26.6261921 C21.4470121,26.6261921 21.1215273,25.4552447 21.1215273,24.0100342 C21.1215273,22.5648237 21.4470121,21.3931658 21.8470727,21.3931658 C22.2478303,21.3931658 22.5726182,22.5648237 22.5726182,24.0100342" id="Fill-245" fill="#272162"></path>
                    <polygon id="Fill-247" fill="#AFC5D5" points="13.1002424 16.7583316 18.1253939 0.946278947 16.1634242 0.289042105 11.132 16.0847526"></polygon>
                </g>
            </g>
        </g>
    </g>
</svg>