<?xml version="1.0" encoding="UTF-8"?>
<svg width="557px" height="414px" viewBox="0 0 557 414" version="1.1" xmlns="http://www.w3.org/2000/svg" xmlns:xlink="http://www.w3.org/1999/xlink">
    <!-- Generator: Sketch 51.1 (57501) - http://www.bohemiancoding.com/sketch -->
    <title>seo-hero-image</title>
    <desc>Created with Sketch.</desc>
    <defs>
        <polygon id="path-1" points="0.400025037 0.349445455 53.1822415 0.349445455 53.1822415 53.1818182 0.400025037 53.1818182"></polygon>
    </defs>
    <g id="Welcome" stroke="none" stroke-width="1" fill="none" fill-rule="evenodd">
        <g id="BK-Services---SEO" transform="translate(-734.000000, -153.000000)">
            <g id="seo-hero-image" transform="translate(735.000000, 154.000000)">
                <g id="Group-204">
                    <g id="Group-3" transform="translate(349.837997, 359.247273)">
                        <mask id="mask-2" fill="white">
                            <use xlink:href="#path-1"></use>
                        </mask>
                        <g id="Clip-2"></g>
                        <path d="M53.1822415,26.7669 C53.1822415,41.3542636 41.3604963,53.1819 26.7923594,53.1819 C12.2160486,53.1819 0.400025037,41.3542636 0.400025037,26.7669 C0.400025037,12.1729909 12.2160486,0.349445455 26.7923594,0.349445455 C41.3604963,0.350263636 53.1822415,12.1738091 53.1822415,26.7669" id="Fill-1" fill-opacity="0.1" fill="#000000" mask="url(#mask-2)"></path>
                    </g>
                    <path d="M121.357085,171.063655 L28.3197946,171.063655 C25.9935353,171.063655 24.0906782,172.9692 24.0906782,175.296927 L24.0906782,254.684291 C24.0906782,257.013655 25.9935353,258.917564 28.3197946,258.917564 L121.347276,258.960109 C123.757725,258.960109 125.587018,257.013655 125.587018,254.684291 L125.587018,175.296927 C125.587018,172.9692 123.682527,171.063655 121.357085,171.063655" id="Fill-4" fill-opacity="0.1" fill="#000000"></path>
                    <path d="M157.186462,70.0933091 L175.103399,69.6514909 C178.919739,72.1502182 183.298436,73.9232182 188.093996,74.6898545 C206.322353,77.6025818 223.459511,65.1686727 226.369378,46.9256727 C229.280063,28.6753091 216.861632,11.5254 198.633274,8.61185455 C180.404099,5.69830909 163.268576,18.1256727 160.357891,36.3760364 C159.329629,42.8208545 160.245093,49.1061273 162.620395,54.7008545 L157.186462,70.0933091 Z" id="Fill-6" fill-opacity="0.1" fill="#000000"></path>
                    <path d="M61.7415839,334.353682 C61.2094705,332.075045 60.8988667,329.714591 60.8988667,327.274773 C60.8988667,310.200955 74.724824,296.360591 91.7826959,296.360591 C103.716422,296.360591 114.051356,303.145773 119.194301,313.0695 C120.318197,312.848591 121.476422,312.725045 122.665708,312.725045 C132.699029,312.725045 140.83358,320.865955 140.83358,330.910773 C140.83358,331.759227 140.757563,332.579864 140.643948,333.395591 C150.136982,335.755227 157.186871,344.319955 157.186871,354.552955 C157.186871,366.6015 147.425737,376.374682 135.3833,376.374682 L69.9815766,376.374682 C57.9407739,376.374682 48.1829094,366.6015 48.1829094,354.552955 C48.1829094,345.418773 53.7884912,337.605955 61.7415839,334.353682" id="Fill-8" fill-opacity="0.1" fill="#000000"></path>
                    <path d="M490.704435,66.6667636 C489.286284,51.8593091 476.963485,40.2419455 461.805201,40.2419455 C450.070915,40.2419455 440.021247,47.2136727 435.392432,57.2167636 C433.998802,56.7708545 432.54632,56.4664909 431.003927,56.4664909 C422.948662,56.4664909 416.414538,63.0111273 416.414538,71.0710364 C416.414538,72.6754909 416.73822,74.1899455 417.2123,75.6291273 C410.946276,79.2880364 406.687734,85.9995818 406.687734,93.7829455 C406.687734,105.432218 416.122734,114.878127 427.762204,114.878127 L427.762204,114.883036 L486.119759,114.883036 L486.119759,114.878127 C499.557462,114.878127 510.43023,103.9824 510.43023,90.5380364 C510.43023,78.6703091 501.938485,68.8161273 490.704435,66.6667636" id="Fill-10" fill-opacity="0.1" fill="#000000"></path>
                    <path d="M509.131334,295.920327 L416.093227,295.920327 C413.767785,295.920327 411.86411,297.825873 411.86411,300.1536 L411.86411,379.540964 C411.86411,381.869509 413.767785,383.774236 416.093227,383.774236 L509.121526,383.816782 C511.531975,383.816782 513.360451,381.869509 513.360451,379.540964 L513.360451,300.1536 C513.360451,297.825873 511.456776,295.920327 509.131334,295.920327" id="Fill-12" fill-opacity="0.1" fill="#000000"></path>
                    <path d="M343.861244,363.330818 C343.861244,365.879455 341.793276,367.942909 339.247142,367.942909 C336.709182,367.942909 334.640397,365.879455 334.640397,363.330818 C334.640397,360.783 336.709182,358.718727 339.247142,358.718727 C341.793276,358.718727 343.861244,360.783 343.861244,363.330818" id="Fill-14" fill="#2C8EF5"></path>
                    <path d="M343.861244,363.330818 C343.861244,365.879455 341.793276,367.942909 339.247142,367.942909 C336.709182,367.942909 334.640397,365.879455 334.640397,363.330818 C334.640397,360.783 336.709182,358.718727 339.247142,358.718727 C341.793276,358.718727 343.861244,360.783 343.861244,363.330818 Z" id="Stroke-16" stroke="#000000" stroke-width="2"></path>
                    <path d="M113.176924,162.875455 L20.1388166,162.875455 C17.8133748,162.875455 15.9105177,164.781 15.9105177,167.108727 L15.9105177,246.496091 C15.9105177,248.824636 17.8133748,250.729364 20.1388166,250.729364 L113.167116,250.771909 C115.577565,250.771909 117.406858,248.824636 117.406858,246.496091 L117.406858,167.108727 C117.406858,164.781 115.502366,162.875455 113.176924,162.875455" id="Fill-18" fill="#FFFFFF"></path>
                    <path d="M113.176924,162.875455 L20.1388166,162.875455 C17.8133748,162.875455 15.9105177,164.781 15.9105177,167.108727 L15.9105177,246.496091 C15.9105177,248.824636 17.8133748,250.729364 20.1388166,250.729364 L113.167116,250.771909 C115.577565,250.771909 117.406858,248.824636 117.406858,246.496091 L117.406858,167.108727 C117.406858,164.781 115.502366,162.875455 113.176924,162.875455 Z" id="Stroke-20" stroke="#000000" stroke-width="2"></path>
                    <polygon id="Fill-22" fill="#F2F2F2" points="28.1734021 242.702182 105.141848 242.702182 105.141848 239.314909 28.1734021 239.314909"></polygon>
                    <polygon id="Stroke-24" stroke="#000000" stroke-width="2" points="28.1734021 242.702182 105.141848 242.702182 105.141848 239.314909 28.1734021 239.314909"></polygon>
                    <polygon id="Fill-25" fill="#23BCA7" points="21.1962592 232.511727 112.119809 232.511727 112.119809 168.167455 21.1962592 168.167455"></polygon>
                    <polygon id="Stroke-26" stroke="#000000" stroke-width="2" stroke-linecap="round" stroke-linejoin="round" points="21.1962592 232.511727 112.119809 232.511727 112.119809 168.167455 21.1962592 168.167455"></polygon>
                    <path d="M62.6048174,241.008218 C62.6048174,243.354764 60.7044124,245.256218 58.3609882,245.256218 C56.0167467,245.256218 54.1171591,243.354764 54.1171591,241.008218 C54.1171591,238.662491 56.0167467,236.760218 58.3609882,236.760218 C60.7044124,236.760218 62.6048174,238.662491 62.6048174,241.008218" id="Fill-27" fill="#FFE6A6"></path>
                    <path d="M62.6048174,241.008218 C62.6048174,243.354764 60.7044124,245.256218 58.3609882,245.256218 C56.0167467,245.256218 54.1171591,243.354764 54.1171591,241.008218 C54.1171591,238.662491 56.0167467,236.760218 58.3609882,236.760218 C60.7044124,236.760218 62.6048174,238.662491 62.6048174,241.008218 Z" id="Stroke-28" stroke="#000000" stroke-width="2"></path>
                    <path d="M149.006302,61.9051091 L166.923239,61.4632909 C170.739579,63.9620182 175.118275,65.7350182 179.913835,66.5016545 C198.142193,69.4143818 215.279351,56.9804727 218.189218,38.7374727 C221.099903,20.4871091 208.681471,3.3372 190.453113,0.423654545 C172.223938,-2.48989091 155.088415,9.93747273 152.176913,28.1878364 C151.149468,34.6326545 152.064932,40.9179273 154.440234,46.5126545 L149.006302,61.9051091 Z" id="Fill-29" fill="#FFFFFF"></path>
                    <path d="M149.006302,61.9051091 L166.923239,61.4632909 C170.739579,63.9620182 175.118275,65.7350182 179.913835,66.5016545 C198.142193,69.4143818 215.279351,56.9804727 218.189218,38.7374727 C221.099903,20.4871091 208.681471,3.3372 190.453113,0.423654545 C172.223938,-2.48989091 155.088415,9.93747273 152.176913,28.1878364 C151.149468,34.6326545 152.064932,40.9179273 154.440234,46.5126545 L149.006302,61.9051091 Z" id="Stroke-30" stroke="#000000" stroke-width="2"></path>
                    <path d="M171.299401,32.9571818 C171.299401,35.5058182 169.231434,37.5692727 166.6853,37.5692727 C164.147339,37.5692727 162.078554,35.5058182 162.078554,32.9571818 C162.078554,30.4093636 164.147339,28.3450909 166.6853,28.3450909 C169.231434,28.3450909 171.299401,30.4093636 171.299401,32.9571818" id="Fill-31" fill="#23BCA7"></path>
                    <path d="M171.299401,32.9571818 C171.299401,35.5058182 169.231434,37.5692727 166.6853,37.5692727 C164.147339,37.5692727 162.078554,35.5058182 162.078554,32.9571818 C162.078554,30.4093636 164.147339,28.3450909 166.6853,28.3450909 C169.231434,28.3450909 171.299401,30.4093636 171.299401,32.9571818 Z" id="Stroke-32" stroke="#000000" stroke-width="2" stroke-linecap="round" stroke-linejoin="round"></path>
                    <path d="M188.895762,32.9571818 C188.895762,35.5058182 186.835151,37.5692727 184.2882,37.5692727 C181.742066,37.5692727 179.681454,35.5058182 179.681454,32.9571818 C179.681454,30.4093636 181.742066,28.3450909 184.2882,28.3450909 C186.835151,28.3450909 188.895762,30.4093636 188.895762,32.9571818" id="Fill-33" fill="#23BCA7"></path>
                    <path d="M188.895762,32.9571818 C188.895762,35.5058182 186.835151,37.5692727 184.2882,37.5692727 C181.742066,37.5692727 179.681454,35.5058182 179.681454,32.9571818 C179.681454,30.4093636 181.742066,28.3450909 184.2882,28.3450909 C186.835151,28.3450909 188.895762,30.4093636 188.895762,32.9571818 Z" id="Stroke-34" stroke="#000000" stroke-width="2" stroke-linecap="round" stroke-linejoin="round"></path>
                    <path d="M206.49057,32.9571818 C206.49057,35.5058182 204.429959,37.5692727 201.883007,37.5692727 C199.338508,37.5692727 197.27708,35.5058182 197.27708,32.9571818 C197.27708,30.4093636 199.338508,28.3450909 201.883007,28.3450909 C204.429959,28.3450909 206.49057,30.4093636 206.49057,32.9571818" id="Fill-35" fill="#23BCA7"></path>
                    <path d="M206.49057,32.9571818 C206.49057,35.5058182 204.429959,37.5692727 201.883007,37.5692727 C199.338508,37.5692727 197.27708,35.5058182 197.27708,32.9571818 C197.27708,30.4093636 199.338508,28.3450909 201.883007,28.3450909 C204.429959,28.3450909 206.49057,30.4093636 206.49057,32.9571818 Z" id="Stroke-36" stroke="#000000" stroke-width="2" stroke-linecap="round" stroke-linejoin="round"></path>
                    <path d="M53.5610147,326.165482 C53.0297187,323.886845 52.7182975,321.526391 52.7182975,319.085755 C52.7182975,302.012755 66.5450722,288.172391 83.6021267,288.172391 C95.5358527,288.172391 105.870786,294.957573 111.013732,304.8813 C112.137627,304.660391 113.295853,304.536027 114.485956,304.536027 C124.519277,304.536027 132.65301,312.677755 132.65301,322.722573 C132.65301,323.571027 132.576994,324.390845 132.463378,325.207391 C141.95723,327.567027 149.006302,336.130936 149.006302,346.363936 C149.006302,358.4133 139.245168,368.186482 127.203548,368.186482 L61.8010074,368.186482 C49.7602047,368.186482 40.0023402,358.4133 40.0023402,346.363936 C40.0023402,337.230573 45.6079219,329.416936 53.5610147,326.165482" id="Stroke-37" stroke="#000000" stroke-width="2" stroke-linecap="round" stroke-linejoin="round"></path>
                    <path d="M109.035349,335.456264 L99.9518218,335.456264 L99.9518218,293.022082 C99.9518218,293.022082 95.9033461,289.955536 89.0504448,288.636627 L89.0504448,335.456264 L79.9685523,335.456264 C78.9631767,335.456264 78.1523373,336.270355 78.1523373,337.272627 C78.1523373,337.776627 78.3542297,338.230718 78.6819985,338.557991 L93.2158056,353.1069 C93.5460265,353.434991 94.0021237,353.640355 94.5031767,353.640355 C95.002595,353.640355 95.4586922,353.434991 95.786461,353.1069 L110.316999,338.557991 C110.648854,338.230718 110.851564,337.776627 110.851564,337.272627 C110.851564,336.270355 110.037455,335.456264 109.035349,335.456264" id="Fill-38" fill="#23BCA7"></path>
                    <path d="M109.035349,335.456264 L99.9518218,335.456264 L99.9518218,293.022082 C99.9518218,293.022082 95.9033461,289.955536 89.0504448,288.636627 L89.0504448,335.456264 L79.9685523,335.456264 C78.9631767,335.456264 78.1523373,336.270355 78.1523373,337.272627 C78.1523373,337.776627 78.3542297,338.230718 78.6819985,338.557991 L93.2158056,353.1069 C93.5460265,353.434991 94.0021237,353.640355 94.5031767,353.640355 C95.002595,353.640355 95.4586922,353.434991 95.786461,353.1069 L110.316999,338.557991 C110.648854,338.230718 110.851564,337.776627 110.851564,337.272627 C110.851564,336.270355 110.037455,335.456264 109.035349,335.456264 Z" id="Stroke-39" stroke="#000000" stroke-width="2" stroke-linecap="round" stroke-linejoin="round"></path>
                    <path d="M397.552385,205.749327 C397.552385,272.330509 343.630743,326.305145 277.114933,326.305145 C210.599123,326.305145 156.677481,272.330509 156.677481,205.749327 C156.677481,139.168145 210.599123,85.1935091 277.114933,85.1935091 C343.630743,85.1935091 397.552385,139.168145 397.552385,205.749327" id="Fill-40" fill="#23BCA7"></path>
                    <path d="M397.552385,205.749327 C397.552385,272.330509 343.630743,326.305145 277.114933,326.305145 C210.599123,326.305145 156.677481,272.330509 156.677481,205.749327 C156.677481,139.168145 210.599123,85.1935091 277.114933,85.1935091 C343.630743,85.1935091 397.552385,139.168145 397.552385,205.749327 Z" id="Stroke-41" stroke="#000000" stroke-width="2" stroke-linecap="round" stroke-linejoin="round"></path>
                    <path d="M339.99627,290.334027 L209.555739,290.334027 C209.273744,290.334027 209.040791,290.105755 209.040791,289.821027 L209.040791,109.902027 C209.040791,109.619755 209.273744,109.388209 209.555739,109.388209 L339.99627,109.388209 C340.279082,109.388209 340.506314,109.619755 340.506314,109.902027 L340.506314,289.821027 C340.506314,290.105755 340.279082,290.334027 339.99627,290.334027" id="Fill-42" fill="#5FD4AF"></path>
                    <path d="M339.99627,290.334027 L209.555739,290.334027 C209.273744,290.334027 209.040791,290.105755 209.040791,289.821027 L209.040791,109.902027 C209.040791,109.619755 209.273744,109.388209 209.555739,109.388209 L339.99627,109.388209 C340.279082,109.388209 340.506314,109.619755 340.506314,109.902027 L340.506314,289.821027 C340.506314,290.105755 340.279082,290.334027 339.99627,290.334027 Z" id="Stroke-43" stroke="#000000" stroke-width="2"></path>
                    <path d="M328.184578,68.2640182 L221.370373,68.2640182 C210.042325,68.2640182 200.826382,77.4890182 200.826382,88.8273818 L200.826382,310.895018 C200.826382,322.231745 210.042325,331.458382 221.370373,331.458382 L328.184578,331.458382 C339.512627,331.458382 348.7253,322.231745 348.7253,310.895018 L348.7253,88.8273818 C348.7253,77.4890182 339.512627,68.2640182 328.184578,68.2640182" id="Fill-44" fill="#453F4F"></path>
                    <path d="M328.184578,68.2640182 L221.370373,68.2640182 C210.042325,68.2640182 200.826382,77.4890182 200.826382,88.8273818 L200.826382,310.895018 C200.826382,322.231745 210.042325,331.458382 221.370373,331.458382 L328.184578,331.458382 C339.512627,331.458382 348.7253,322.231745 348.7253,310.895018 L348.7253,88.8273818 C348.7253,77.4890182 339.512627,68.2640182 328.184578,68.2640182 Z" id="Stroke-45" stroke="#000000" stroke-width="2"></path>
                    <path d="M287.100519,310.204555 C287.100519,317.018373 281.582397,322.541918 274.775269,322.541918 C267.968958,322.541918 262.450836,317.018373 262.450836,310.204555 C262.450836,303.390736 267.968958,297.867191 274.775269,297.867191 C281.582397,297.867191 287.100519,303.390736 287.100519,310.204555" id="Fill-46" fill="#2D2835"></path>
                    <path d="M287.100519,310.204555 C287.100519,317.018373 281.582397,322.541918 274.775269,322.541918 C267.968958,322.541918 262.450836,317.018373 262.450836,310.204555 C262.450836,303.390736 267.968958,297.867191 274.775269,297.867191 C281.582397,297.867191 287.100519,303.390736 287.100519,310.204555 Z" id="Stroke-47" stroke="#000000" stroke-width="2"></path>
                    <path d="M266.561923,84.7147091 L282.9945,84.7147091 C285.262725,84.7147091 287.100192,86.5548 287.100192,88.8268909 C287.100192,91.1014364 285.262725,92.9398909 282.9945,92.9398909 L266.561923,92.9398909 C264.287976,92.9398909 262.450509,91.1014364 262.450509,88.8268909 C262.450509,86.5548 264.287976,84.7147091 266.561923,84.7147091" id="Fill-48" fill="#2D2835"></path>
                    <path d="M266.561923,84.7147091 L282.9945,84.7147091 C285.262725,84.7147091 287.100192,86.5548 287.100192,88.8268909 C287.100192,91.1014364 285.262725,92.9398909 282.9945,92.9398909 L266.561923,92.9398909 C264.287976,92.9398909 262.450509,91.1014364 262.450509,88.8268909 C262.450509,86.5548 264.287976,84.7147091 266.561923,84.7147091 Z" id="Stroke-49" stroke="#000000" stroke-width="2"></path>
                    <path d="M251.316669,85.9080273 C252.795307,84.4271182 255.63161,84.3845727 257.1503,85.9080273 C257.890027,86.6877545 258.342855,87.7145727 258.342855,88.8273 C258.342855,89.9367545 257.890027,90.9619364 257.1503,91.7490273 C256.371338,92.4845727 255.341441,92.9394818 254.233076,92.9394818 C253.122258,92.9394818 252.098083,92.4845727 251.316669,91.7490273 C250.576942,90.9619364 250.124932,89.9367545 250.124932,88.8273 C250.124932,87.7145727 250.576942,86.6877545 251.316669,85.9080273" id="Fill-50" fill="#2D2835"></path>
                    <path d="M251.316669,85.9080273 C252.795307,84.4271182 255.63161,84.3845727 257.1503,85.9080273 C257.890027,86.6877545 258.342855,87.7145727 258.342855,88.8273 C258.342855,89.9367545 257.890027,90.9619364 257.1503,91.7490273 C256.371338,92.4845727 255.341441,92.9394818 254.233076,92.9394818 C253.122258,92.9394818 252.098083,92.4845727 251.316669,91.7490273 C250.576942,90.9619364 250.124932,89.9367545 250.124932,88.8273 C250.124932,87.7145727 250.576942,86.6877545 251.316669,85.9080273 Z" id="Stroke-51" stroke="#000000" stroke-width="2"></path>
                    <path d="M336.401848,290.334027 L213.152613,290.334027 C210.883571,290.334027 209.0412,288.493118 209.0412,286.220209 L209.0412,113.502027 C209.0412,111.229118 210.883571,109.388209 213.152613,109.388209 L336.401848,109.388209 C338.666803,109.388209 340.505905,111.229118 340.505905,113.502027 L340.505905,286.220209 C340.505905,288.493118 338.666803,290.334027 336.401848,290.334027" id="Fill-52" fill="#FFFFFF"></path>
                    <path d="M336.401848,290.334027 L213.152613,290.334027 C210.883571,290.334027 209.0412,288.493118 209.0412,286.220209 L209.0412,113.502027 C209.0412,111.229118 210.883571,109.388209 213.152613,109.388209 L336.401848,109.388209 C338.666803,109.388209 340.505905,111.229118 340.505905,113.502027 L340.505905,286.220209 C340.505905,288.493118 338.666803,290.334027 336.401848,290.334027 Z" id="Stroke-53" stroke="#000000" stroke-width="2"></path>
                    <path d="M332.304983,178.389327 L217.418348,178.389327 C215.190175,178.389327 213.383768,176.581964 213.383768,174.350782 L213.383768,143.028327 C213.383768,140.797964 215.190175,138.9906 217.418348,138.9906 L332.304983,138.9906 C334.533157,138.9906 336.338746,140.797964 336.338746,143.028327 L336.338746,174.350782 C336.338746,176.581964 334.533157,178.389327 332.304983,178.389327 Z" id="Stroke-54" stroke="#000000" stroke-width="2" stroke-linecap="round" stroke-linejoin="round"></path>
                    <polygon id="Fill-55" fill="#47B0FF" points="221.564337 153.910636 328.718571 153.910636 328.718571 148.641545 221.564337 148.641545"></polygon>
                    <polygon id="Stroke-56" stroke="#000000" stroke-width="2" points="221.564337 153.910636 328.718571 153.910636 328.718571 148.641545 221.564337 148.641545"></polygon>
                    <polygon id="Fill-57" fill="#FFFFFF" points="221.564337 168.421909 328.718571 168.421909 328.718571 163.152818 221.564337 163.152818"></polygon>
                    <polygon id="Stroke-58" stroke="#000000" stroke-width="2" points="221.564337 168.421909 328.718571 168.421909 328.718571 163.152818 221.564337 163.152818"></polygon>
                    <path d="M332.304983,229.661918 L217.418348,229.661918 C215.190175,229.661918 213.383768,227.854555 213.383768,225.624191 L213.383768,194.300918 C213.383768,192.070555 215.190175,190.263191 217.418348,190.263191 L332.304983,190.263191 C334.533157,190.263191 336.338746,192.070555 336.338746,194.300918 L336.338746,225.624191 C336.338746,227.854555 334.533157,229.661918 332.304983,229.661918 Z" id="Stroke-59" stroke="#000000" stroke-width="2" stroke-linecap="round" stroke-linejoin="round"></path>
                    <polygon id="Fill-60" fill="#47B0FF" points="221.564337 205.182818 328.718571 205.182818 328.718571 199.913727 221.564337 199.913727"></polygon>
                    <polygon id="Stroke-61" stroke="#000000" stroke-width="2" points="221.564337 205.182818 328.718571 205.182818 328.718571 199.913727 221.564337 199.913727"></polygon>
                    <polygon id="Fill-62" fill="#FFFFFF" points="221.564337 219.694909 328.718571 219.694909 328.718571 214.425818 221.564337 214.425818"></polygon>
                    <polygon id="Stroke-63" stroke="#000000" stroke-width="2" points="221.564337 219.694909 328.718571 219.694909 328.718571 214.425818 221.564337 214.425818"></polygon>
                    <path d="M332.304983,280.932136 L217.418348,280.932136 C215.190175,280.932136 213.383768,279.124773 213.383768,276.894409 L213.383768,245.571136 C213.383768,243.340773 215.190175,241.533409 217.418348,241.533409 L332.304983,241.533409 C334.533157,241.533409 336.338746,243.340773 336.338746,245.571136 L336.338746,276.894409 C336.338746,279.124773 334.533157,280.932136 332.304983,280.932136 Z" id="Stroke-64" stroke="#000000" stroke-width="2" stroke-linecap="round" stroke-linejoin="round"></path>
                    <polygon id="Fill-65" fill="#47B0FF" points="221.564337 256.453364 328.718571 256.453364 328.718571 251.184273 221.564337 251.184273"></polygon>
                    <polygon id="Stroke-66" stroke="#000000" stroke-width="2" points="221.564337 256.453364 328.718571 256.453364 328.718571 251.184273 221.564337 251.184273"></polygon>
                    <polygon id="Fill-67" fill="#FFFFFF" points="221.564337 270.964636 328.718571 270.964636 328.718571 265.695545 221.564337 265.695545"></polygon>
                    <polygon id="Stroke-68" stroke="#000000" stroke-width="2" points="221.564337 270.964636 328.718571 270.964636 328.718571 265.695545 221.564337 265.695545"></polygon>
                    <path d="M482.524275,58.4785636 C481.106123,43.6711091 468.783325,32.0537455 453.625041,32.0537455 C441.890755,32.0537455 431.840269,39.0246545 427.212272,49.0285636 C425.818641,48.5826545 424.36616,48.2782909 422.823767,48.2782909 C414.768501,48.2782909 408.234378,54.8229273 408.234378,62.8828364 C408.234378,64.4872909 408.557242,66.0009273 409.032139,67.4409273 C402.766116,71.0990182 398.507574,77.8113818 398.507574,85.5947455 C398.507574,97.2440182 407.942574,106.689109 419.582043,106.689109 L419.582043,106.694836 L477.939599,106.694836 L477.939599,106.689109 C491.377301,106.689109 502.25007,95.7942 502.25007,82.3490182 C502.25007,70.4812909 493.758325,60.6279273 482.524275,58.4785636" id="Fill-69" fill="#FFFFFF"></path>
                    <path d="M482.524275,58.4785636 C481.106123,43.6711091 468.783325,32.0537455 453.625041,32.0537455 C441.890755,32.0537455 431.840269,39.0246545 427.212272,49.0285636 C425.818641,48.5826545 424.36616,48.2782909 422.823767,48.2782909 C414.768501,48.2782909 408.234378,54.8229273 408.234378,62.8828364 C408.234378,64.4872909 408.557242,66.0009273 409.032139,67.4409273 C402.766116,71.0990182 398.507574,77.8113818 398.507574,85.5947455 C398.507574,97.2440182 407.942574,106.689109 419.582043,106.689109 L419.582043,106.694836 L477.939599,106.694836 L477.939599,106.689109 C491.377301,106.689109 502.25007,95.7942 502.25007,82.3490182 C502.25007,70.4812909 493.758325,60.6279273 482.524275,58.4785636 Z" id="Stroke-70" stroke="#000000" stroke-width="2"></path>
                    <g id="Group-73" transform="translate(434.027982, 57.338182)">
                        <path d="M9.86951841,49.3564091 L9.86951841,19.8257727 L4.0955567,19.8257727 C0.573472754,19.8257727 -0.863478645,17.4710455 0.893885125,14.6033182 L13.1529278,2.50895455 C15.5560206,0.106772727 17.0763446,0.0233181818 19.5521841,2.50895455 L31.8104094,14.6033182 C33.5775817,17.4735 32.1275523,19.8257727 28.6071031,19.8257727 L22.8372283,19.8257727 L22.8372283,49.3564091" id="Fill-71" fill="#47B0FF"></path>
                        <path d="M9.86951841,49.3564091 L9.86951841,19.8257727 L4.0955567,19.8257727 C0.573472754,19.8257727 -0.863478645,17.4710455 0.893885125,14.6033182 L13.1529278,2.50895455 C15.5560206,0.106772727 17.0763446,0.0233181818 19.5521841,2.50895455 L31.8104094,14.6033182 C33.5775817,17.4735 32.1275523,19.8257727 28.6071031,19.8257727 L22.8372283,19.8257727 L22.8372283,49.3564091" id="Stroke-72" stroke="#000000" stroke-width="2"></path>
                    </g>
                    <path d="M500.950765,287.731718 L407.913475,287.731718 C405.587216,287.731718 403.684359,289.637264 403.684359,291.964991 L403.684359,371.352355 C403.684359,373.681718 405.587216,375.585627 407.913475,375.585627 L500.940957,375.628173 C503.351406,375.628173 505.180699,373.681718 505.180699,371.352355 L505.180699,291.964991 C505.180699,289.637264 503.276207,287.731718 500.950765,287.731718" id="Fill-74" fill="#FFFFFF"></path>
                    <path d="M500.950765,287.731718 L407.913475,287.731718 C405.587216,287.731718 403.684359,289.637264 403.684359,291.964991 L403.684359,371.352355 C403.684359,373.681718 405.587216,375.585627 407.913475,375.585627 L500.940957,375.628173 C503.351406,375.628173 505.180699,373.681718 505.180699,371.352355 L505.180699,291.964991 C505.180699,289.637264 503.276207,287.731718 500.950765,287.731718 Z" id="Stroke-75" stroke="#000000" stroke-width="2"></path>
                    <polygon id="Fill-76" fill="#F2F2F2" points="415.94757 367.558364 492.916016 367.558364 492.916016 364.171091 415.94757 364.171091"></polygon>
                    <polygon id="Stroke-77" stroke="#000000" stroke-width="2" points="415.94757 367.558364 492.916016 367.558364 492.916016 364.171091 415.94757 364.171091"></polygon>
                    <polygon id="Fill-78" fill="#47B0FF" points="409.158424 358.581273 500.081973 358.581273 500.081973 294.237 409.158424 294.237"></polygon>
                    <polygon id="Stroke-79" stroke="#000000" stroke-width="2" points="409.158424 358.581273 500.081973 358.581273 500.081973 294.237 409.158424 294.237"></polygon>
                    <path d="M450.378658,365.864482 C450.378658,368.211027 448.478253,370.112482 446.134829,370.112482 C443.790588,370.112482 441.891817,368.211027 441.891817,365.864482 C441.891817,363.518755 443.790588,361.616482 446.134829,361.616482 C448.478253,361.616482 450.378658,363.518755 450.378658,365.864482" id="Fill-80" fill="#FFE6A6"></path>
                    <path d="M450.378658,365.864482 C450.378658,368.211027 448.478253,370.112482 446.134829,370.112482 C443.790588,370.112482 441.891817,368.211027 441.891817,365.864482 C441.891817,363.518755 443.790588,361.616482 446.134829,361.616482 C448.478253,361.616482 450.378658,363.518755 450.378658,365.864482 Z" id="Stroke-81" stroke="#000000" stroke-width="2"></path>
                    <path d="M48.833134,134.210782 L57.2145331,133.942418" id="Stroke-82" stroke="#000000" stroke-width="2" stroke-linecap="round" stroke-linejoin="round"></path>
                    <path d="M52.8872496,129.879736 L53.1553498,138.272645" id="Stroke-83" stroke="#000000" stroke-width="2" stroke-linecap="round" stroke-linejoin="round"></path>
                    <path d="M381.377609,73.9917 L389.759008,73.7233364" id="Stroke-84" stroke="#000000" stroke-width="2" stroke-linecap="round" stroke-linejoin="round"></path>
                    <path d="M385.431806,69.6602455 L385.699906,78.0539727" id="Stroke-85" stroke="#000000" stroke-width="2" stroke-linecap="round" stroke-linejoin="round"></path>
                    <path d="M262.727273,368.672564 L271.108672,368.4042" id="Stroke-86" stroke="#000000" stroke-width="2" stroke-linecap="round" stroke-linejoin="round"></path>
                    <path d="M266.78098,364.341109 L267.049898,372.734836" id="Stroke-87" stroke="#000000" stroke-width="2" stroke-linecap="round" stroke-linejoin="round"></path>
                    <path d="M239.92086,33.2455909 L248.302259,32.9772273" id="Stroke-88" stroke="#000000" stroke-width="2" stroke-linecap="round" stroke-linejoin="round"></path>
                    <path d="M243.975057,28.9142182 L244.243158,37.3079455" id="Stroke-89" stroke="#000000" stroke-width="2" stroke-linecap="round" stroke-linejoin="round"></path>
                    <path d="M19.1735744,284.803364 L27.5549735,284.535" id="Stroke-90" stroke="#000000" stroke-width="2" stroke-linecap="round" stroke-linejoin="round"></path>
                    <path d="M23.2277717,280.471909 L23.4958719,288.865636" id="Stroke-91" stroke="#000000" stroke-width="2" stroke-linecap="round" stroke-linejoin="round"></path>
                    <path d="M524.628422,350.2962 L533.009821,350.027836" id="Stroke-92" stroke="#000000" stroke-width="2" stroke-linecap="round" stroke-linejoin="round"></path>
                    <path d="M528.682619,345.964827 L528.950719,354.358555" id="Stroke-93" stroke="#000000" stroke-width="2" stroke-linecap="round" stroke-linejoin="round"></path>
                    <path d="M33.7023954,328.737845 L42.0837946,328.469482" id="Stroke-94" stroke="#000000" stroke-width="2" stroke-linecap="round" stroke-linejoin="round"></path>
                    <path d="M37.7565928,324.406473 L38.0246929,332.8002" id="Stroke-95" stroke="#000000" stroke-width="2" stroke-linecap="round" stroke-linejoin="round"></path>
                    <path d="M-8.17378492e-05,337.034291 L8.38131738,336.765927" id="Stroke-96" stroke="#000000" stroke-width="2" stroke-linecap="round" stroke-linejoin="round"></path>
                    <path d="M4.05411561,332.702918 L4.32221576,341.096645" id="Stroke-97" stroke="#000000" stroke-width="2" stroke-linecap="round" stroke-linejoin="round"></path>
                    <path d="M521.00531,302.813755 L529.386709,302.545391" id="Stroke-98" stroke="#000000" stroke-width="2" stroke-linecap="round" stroke-linejoin="round"></path>
                    <path d="M525.059507,298.4823 L525.327608,306.876027" id="Stroke-99" stroke="#000000" stroke-width="2" stroke-linecap="round" stroke-linejoin="round"></path>
                    <path d="M27.5342121,126.199145 C25.9321502,127.208782 23.8167747,126.726055 22.8097644,125.122418 C21.8003019,123.517964 22.2817378,121.402145 23.8854345,120.394964 C25.4858616,119.386145 27.6004197,119.866418 28.6090648,121.470873 C29.6177099,123.073691 29.1354566,125.190327 27.5342121,126.199145 Z" id="Stroke-100" stroke="#000000" stroke-width="2" stroke-linecap="round" stroke-linejoin="round"></path>
                    <path d="M289.876337,362.336482 C288.274275,363.346118 286.158899,362.863391 285.151889,361.259755 C284.142426,359.6553 284.623862,357.539482 286.227559,356.531482 C287.827986,355.523482 289.942544,356.003755 290.951189,357.608209 C291.959834,359.211027 291.477581,361.327664 289.876337,362.336482 Z" id="Stroke-101" stroke="#000000" stroke-width="2" stroke-linecap="round" stroke-linejoin="round"></path>
                    <path d="M261.901884,51.9203455 C260.131443,53.4650727 257.416929,52.8481636 256.481848,50.6971636 C255.899057,49.3586182 256.266877,47.7320727 257.367886,46.7748 C259.134241,45.2382545 261.841398,45.8478 262.782201,47.9938909 C263.367444,49.3316182 263.002076,50.9606182 261.901884,51.9203455 Z" id="Stroke-102" stroke="#000000" stroke-width="2" stroke-linecap="round" stroke-linejoin="round"></path>
                    <path d="M270.654373,21.366 C268.883932,22.9099091 266.169418,22.293 265.234337,20.1428182 C264.651546,18.8042727 265.019366,17.1777273 266.120375,16.2196364 C267.88673,14.6839091 270.593887,15.2934545 271.53469,17.4395455 C272.12075,18.7772727 271.754565,20.4062727 270.654373,21.366 Z" id="Stroke-103" stroke="#000000" stroke-width="2" stroke-linecap="round" stroke-linejoin="round"></path>
                    <path d="M530.17409,129.818618 C528.572028,130.828255 526.456652,130.345527 525.449642,128.741891 C524.44018,127.137436 524.921616,125.021618 526.525312,124.013618 C528.125739,123.005618 530.240297,123.485891 531.248943,125.090345 C532.257588,126.693164 531.775334,128.8098 530.17409,129.818618 Z" id="Stroke-104" stroke="#000000" stroke-width="2" stroke-linecap="round" stroke-linejoin="round"></path>
                    <path d="M25.187028,39.3707455 C23.5849661,40.3803818 21.4695906,39.8976545 20.4625803,38.2940182 C19.4531178,36.6895636 19.9345538,34.5737455 21.5382504,33.5657455 C23.1386775,32.5577455 25.2532356,33.0380182 26.2618807,34.6424727 C27.2705258,36.2452909 26.7882725,38.3619273 25.187028,39.3707455 Z" id="Stroke-105" stroke="#000000" stroke-width="2" stroke-linecap="round" stroke-linejoin="round"></path>
                    <path d="M171.816638,289.044082 C170.214577,290.053718 168.099201,289.570991 167.092191,287.967355 C166.082728,286.3629 166.564164,284.247082 168.167861,283.239082 C169.768288,282.231082 171.882846,282.711355 172.891491,284.315809 C173.900136,285.918627 173.417883,288.035264 171.816638,289.044082 Z" id="Stroke-106" stroke="#000000" stroke-width="2" stroke-linecap="round" stroke-linejoin="round"></path>
                    <path d="M225.115438,351.787991 C223.513376,352.797627 221.398001,352.3149 220.39099,350.711264 C219.381528,349.106809 219.862964,346.990991 221.466661,345.982991 C223.067088,344.974991 225.181646,345.455264 226.190291,347.059718 C227.198936,348.662536 226.716683,350.779173 225.115438,351.787991 Z" id="Stroke-107" stroke="#000000" stroke-width="2" stroke-linecap="round" stroke-linejoin="round"></path>
                    <path d="M373.597392,107.466791 C371.99533,108.476427 369.879954,107.9937 368.872944,106.390064 C367.863482,104.785609 368.344918,102.669791 369.948614,101.661791 C371.549041,100.653791 373.663599,101.133245 374.672244,102.738518 C375.68089,104.341336 375.198636,106.457973 373.597392,107.466791 Z" id="Stroke-108" stroke="#000000" stroke-width="2" stroke-linecap="round" stroke-linejoin="round"></path>
                    <path d="M380.877128,309.176591 C379.275066,310.186227 377.159691,309.7035 376.15268,308.099864 C375.143218,306.495409 375.624654,304.379591 377.228351,303.371591 C378.828778,302.363591 380.943336,302.843864 381.951981,304.448318 C382.960626,306.051136 382.478373,308.167773 380.877128,309.176591 Z" id="Stroke-109" stroke="#000000" stroke-width="2" stroke-linecap="round" stroke-linejoin="round"></path>
                    <path d="M148.153776,376.366173 C146.551714,377.375809 144.436339,376.893082 143.429328,375.289445 C142.419866,373.684991 142.901302,371.569173 144.504999,370.561173 C146.105426,369.553173 148.219984,370.033445 149.228629,371.6379 C150.237274,373.240718 149.755021,375.357355 148.153776,376.366173 Z" id="Stroke-110" stroke="#000000" stroke-width="2" stroke-linecap="round" stroke-linejoin="round"></path>
                    <path d="M31.7140405,382.360336 C30.1119786,383.369973 27.9966031,382.887245 26.9895928,381.283609 C25.9801303,379.679155 26.4615663,377.563336 28.0652629,376.555336 C29.66569,375.547336 31.7802482,376.027609 32.7888932,377.632064 C33.7975383,379.234882 33.315285,381.351518 31.7140405,382.360336 Z" id="Stroke-111" stroke="#000000" stroke-width="2" stroke-linecap="round" stroke-linejoin="round"></path>
                    <path d="M542.435912,309.777873 C540.83385,310.787509 538.718474,310.304782 537.711464,308.701145 C536.702001,307.096691 537.183437,304.980873 538.787134,303.972873 C540.387561,302.964873 542.502119,303.445145 543.510764,305.0496 C544.519409,306.652418 544.037156,308.769055 542.435912,309.777873 Z" id="Stroke-112" stroke="#000000" stroke-width="2" stroke-linecap="round" stroke-linejoin="round"></path>
                    <path d="M413.14249,175.903282 C411.540429,176.912918 409.425053,176.429373 408.418043,174.826555 C407.40858,173.221282 407.890016,171.106282 409.493713,170.098282 C411.09414,169.089464 413.208698,169.570555 414.217343,171.175009 C415.225988,172.777827 414.743735,174.894464 413.14249,175.903282 Z" id="Stroke-113" stroke="#000000" stroke-width="2" stroke-linecap="round" stroke-linejoin="round"></path>
                    <path d="M160.206104,102.464673 C158.604042,103.474309 156.488666,102.991582 155.481656,101.387945 C154.472194,99.7834909 154.954447,97.6676727 156.557326,96.6596727 C158.157753,95.6516727 160.272311,96.1319455 161.281774,97.7364 C162.289602,99.3392182 161.807348,101.455855 160.206104,102.464673 Z" id="Stroke-114" stroke="#000000" stroke-width="2" stroke-linecap="round" stroke-linejoin="round"></path>
                    <path d="M546.660532,123.296727 L554.203301,123.296727" id="Stroke-115" stroke="#000000" stroke-width="2" stroke-linecap="round" stroke-linejoin="round"></path>
                    <path d="M238.878376,12.0144273 L246.421144,12.0144273" id="Stroke-116" stroke="#000000" stroke-width="2" stroke-linecap="round" stroke-linejoin="round"></path>
                    <path d="M132.69061,248.107827 L140.233378,248.107827" id="Stroke-117" stroke="#000000" stroke-width="2" stroke-linecap="round" stroke-linejoin="round"></path>
                    <path d="M543.652416,368.771645 L551.195185,368.771645" id="Stroke-118" stroke="#000000" stroke-width="2" stroke-linecap="round" stroke-linejoin="round"></path>
                    <path d="M170.881557,105.492845 L178.424326,105.492845" id="Stroke-119" stroke="#000000" stroke-width="2" stroke-linecap="round" stroke-linejoin="round"></path>
                    <path d="M5.46973343,109.050464 L13.0125022,109.050464" id="Stroke-120" stroke="#000000" stroke-width="2" stroke-linecap="round" stroke-linejoin="round"></path>
                    <path d="M403.195403,139.830136 L410.738172,139.830136" id="Stroke-121" stroke="#000000" stroke-width="2" stroke-linecap="round" stroke-linejoin="round"></path>
                    <path d="M287.706769,380.368391 L295.249538,380.368391" id="Stroke-122" stroke="#000000" stroke-width="2" stroke-linecap="round" stroke-linejoin="round"></path>
                    <path d="M136.461831,141.243627 L144.004599,141.243627" id="Stroke-123" stroke="#000000" stroke-width="2" stroke-linecap="round" stroke-linejoin="round"></path>
                    <path d="M117.010021,295.473682 L124.552789,295.473682" id="Stroke-124" stroke="#000000" stroke-width="2" stroke-linecap="round" stroke-linejoin="round"></path>
                    <path d="M89.2234838,374.4162 C90.3808918,382.668382 99.5469742,387.063655 107.690516,388.793291 C127.064021,392.907927 147.845052,390.026291 165.372099,380.793927 C170.485619,378.100473 175.44302,374.777018 178.785281,370.057745 C182.126724,365.338473 183.611901,358.992655 181.423778,353.638473 C180.518123,351.422018 178.786915,349.308655 176.423874,348.931473 C171.662644,348.171382 168.939957,354.473836 169.426297,359.275745 C170.335222,368.261018 176.366658,376.263655 184.166901,380.802109 C191.967144,385.341382 201.323675,386.689745 210.314839,385.946836 C221.9445,384.986291 233.426216,380.514927 241.956378,372.5442 C250.48654,364.573473 255.819117,352.992109 255.311525,341.3232" id="Stroke-125" stroke="#000000" stroke-width="2" stroke-dasharray="8.018000000000001,8.018000000000001"></path>
                    <path d="M449.916104,115.408145 C463.325198,124.448236 480.429661,127.805236 496.255743,124.503055 C512.081825,121.201691 526.422731,111.283691 535.10656,97.6347818 C544.201531,83.3411455 546.520434,63.4945091 536.509999,49.8284182 C533.27645,45.4126909 527.754241,41.6007818 522.617834,43.4817818 C517.775684,45.2539636 515.867105,51.8787818 518.276737,56.4401455 C520.687186,61.0015091 526.339359,63.2400545 531.452061,62.5781455 C539.652002,61.5161455 546.200839,53.1976909 545.313983,44.9684182 C544.338851,35.9242364 536.138092,29.5317818 528.17846,25.1414182 C490.042032,4.10514545 440.846472,4.80223636 403.319808,26.9103273 C391.753085,33.7257818 381.217076,42.4156909 368.860765,47.6602364 C357.203313,52.6077818 344.425235,54.2654182 331.786929,55.0369636 C321.843519,55.6448727 311.779955,55.7258727 302.017186,53.7483273 C297.715323,52.8769636 293.375043,51.5482364 289.955132,48.7942364 C280.593696,41.2563273 282.954285,24.1710545 293.553232,18.5059636 C304.152179,12.8416909 318.841288,19.1629636 323.136612,30.3949636 C327.431936,41.6269636 321.689035,55.3560545 311.255198,61.3206" id="Stroke-126" stroke="#000000" stroke-width="2" stroke-dasharray="8.018000000000001,8.018000000000001"></path>
                    <polygon id="Fill-127" fill-opacity="0.1" fill="#231F20" points="41.6593299 122.161091 139.367121 122.161091 139.367121 25.4920909 41.6593299 25.4920909"></polygon>
                    <polygon id="Fill-128" fill="#FFFFFF" points="31.2516495 114.046364 128.958623 114.046364 128.958623 17.3773636 31.2516495 17.3773636"></polygon>
                    <polygon id="Stroke-129" stroke="#000000" stroke-width="2" points="31.2516495 114.046364 128.958623 114.046364 128.958623 17.3773636 31.2516495 17.3773636"></polygon>
                    <polygon id="Fill-130" fill="#FBB04E" points="39.0396318 92.7850909 121.134676 92.7850909 121.134676 22.338 39.0396318 22.338"></polygon>
                    <polygon id="Stroke-131" stroke="#000000" stroke-width="2" points="39.0396318 92.7850909 121.134676 92.7850909 121.134676 22.338 39.0396318 22.338"></polygon>
                    <polygon id="Fill-132" fill="#FFE6A6" points="39.0396318 92.3244545 121.134676 92.3244545 121.134676 21.8773636 39.0396318 21.8773636"></polygon>
                    <polygon id="Stroke-133" stroke="#000000" stroke-width="2" points="39.0396318 92.3244545 121.134676 92.3244545 121.134676 21.8773636 39.0396318 21.8773636"></polygon>
                    <path d="M79.7861134,29.7447545 C94.5667688,29.7447545 106.549538,41.7384818 106.549538,56.5344818 C106.549538,71.3296636 94.5667688,83.3233909 79.7861134,83.3233909 C65.005458,83.3233909 53.0226892,71.3296636 53.0226892,56.5344818 C53.0226892,41.7384818 65.005458,29.7447545 79.7861134,29.7447545" id="Fill-134" fill="#47B0FF"></path>
                    <path d="M79.7861134,29.7447545 C94.5667688,29.7447545 106.549538,41.7384818 106.549538,56.5344818 C106.549538,71.3296636 94.5667688,83.3233909 79.7861134,83.3233909 C65.005458,83.3233909 53.0226892,71.3296636 53.0226892,56.5344818 C53.0226892,41.7384818 65.005458,29.7447545 79.7861134,29.7447545 Z" id="Stroke-135" stroke="#000000" stroke-width="2"></path>
                    <path d="M88.9904492,41.6511 C86.6895287,41.6511 84.6714212,42.7499182 83.3971281,44.4501 L69.0243446,59.6167364 C66.9710898,60.8219182 65.5553903,63.0547364 65.5553903,65.6410091 C65.5553903,69.5036455 68.6704197,72.6225545 72.5292636,72.6225545 C76.3881075,72.6225545 79.503137,69.5036455 79.503137,65.6410091 C79.503137,63.7632818 78.7593225,62.0622818 77.5561414,60.7867364 L84.353461,53.8411909 C85.5917894,54.9391909 87.2200074,55.6125545 88.9904492,55.6125545 C92.8492931,55.6125545 95.9643225,52.4944636 95.9643225,48.6318273 C95.9643225,44.7700091 92.8492931,41.6511 88.9904492,41.6511" id="Fill-136" fill="#FFFFFF"></path>
                    <path d="M88.9904492,41.6511 C86.6895287,41.6511 84.6714212,42.7499182 83.3971281,44.4501 L69.0243446,59.6167364 C66.9710898,60.8219182 65.5553903,63.0547364 65.5553903,65.6410091 C65.5553903,69.5036455 68.6704197,72.6225545 72.5292636,72.6225545 C76.3881075,72.6225545 79.503137,69.5036455 79.503137,65.6410091 C79.503137,63.7632818 78.7593225,62.0622818 77.5561414,60.7867364 L84.353461,53.8411909 C85.5917894,54.9391909 87.2200074,55.6125545 88.9904492,55.6125545 C92.8492931,55.6125545 95.9643225,52.4944636 95.9643225,48.6318273 C95.9643225,44.7700091 92.8492931,41.6511 88.9904492,41.6511 Z" id="Stroke-137" stroke="#000000" stroke-width="2"></path>
                    <polygon id="Fill-138" fill="#FFFFFF" points="31.2516495 113.94 128.958623 113.94 128.958623 92.3244545 31.2516495 92.3244545"></polygon>
                    <polygon id="Stroke-139" stroke="#000000" stroke-width="2" points="31.2516495 113.94 128.958623 113.94 128.958623 92.3244545 31.2516495 92.3244545"></polygon>
                    <path d="M60.0676745,95.6555182 C64.1929838,95.6555182 67.5376966,99.0027 67.5376966,103.132882 C67.5376966,107.262245 64.1929838,110.609427 60.0676745,110.609427 C55.9423652,110.609427 52.5984698,107.262245 52.5984698,103.132882 C52.5984698,99.0027 55.9423652,95.6555182 60.0676745,95.6555182" id="Fill-140" fill="#EC5D68"></path>
                    <path d="M60.0676745,95.6555182 C64.1929838,95.6555182 67.5376966,99.0027 67.5376966,103.132882 C67.5376966,107.262245 64.1929838,110.609427 60.0676745,110.609427 C55.9423652,110.609427 52.5984698,107.262245 52.5984698,103.132882 C52.5984698,99.0027 55.9423652,95.6555182 60.0676745,95.6555182 Z" id="Stroke-141" stroke="#000000" stroke-width="2"></path>
                    <path d="M100.141944,95.6555182 C104.267253,95.6555182 107.611966,99.0027 107.611966,103.132882 C107.611966,107.262245 104.267253,110.609427 100.141944,110.609427 C96.0166348,110.609427 92.6719219,107.262245 92.6719219,103.132882 C92.6719219,99.0027 96.0166348,95.6555182 100.141944,95.6555182" id="Fill-142" fill="#91E1C0"></path>
                    <path d="M100.141944,95.6555182 C104.267253,95.6555182 107.611966,99.0027 107.611966,103.132882 C107.611966,107.262245 104.267253,110.609427 100.141944,110.609427 C96.0166348,110.609427 92.6719219,107.262245 92.6719219,103.132882 C92.6719219,99.0027 96.0166348,95.6555182 100.141944,95.6555182 Z" id="Stroke-143" stroke="#000000" stroke-width="2"></path>
                    <path d="M69.8031429,103.132636 L70.5109926,103.132636" id="Stroke-144" stroke="#000000" stroke-width="2"></path>
                    <path d="M71.9978859,103.132636 L89.0614794,103.132636" id="Stroke-145" stroke="#000000" stroke-width="2" stroke-dasharray="1.815,1.815"></path>
                    <path d="M89.8050486,103.132636 L90.5128984,103.132636" id="Stroke-146" stroke="#000000" stroke-width="2"></path>
                    <path d="M538.172629,149.167718 L439.220788,149.167718 C435.942283,149.167718 433.302968,151.8219 433.302968,155.097082 L433.302968,267.014536 C433.302968,270.288082 435.942283,272.947173 439.220788,272.947173 L538.172629,272.947173 C541.442143,272.947173 544.098623,270.288082 544.098623,267.014536 L544.098623,155.097082 C544.098623,151.8219 541.442143,149.167718 538.172629,149.167718" id="Fill-147" fill-opacity="0.1" fill="#1D1D1B"></path>
                    <path d="M533.316256,268.086109 L434.364415,268.086109 C431.08591,268.086109 428.445778,265.427018 428.445778,262.152655 L428.445778,150.2352 C428.445778,146.960836 431.08591,144.306655 434.364415,144.306655 L533.316256,144.306655 C536.58577,144.306655 539.24225,146.960836 539.24225,150.2352 L539.24225,262.152655 C539.24225,265.427018 536.58577,268.086109 533.316256,268.086109" id="Fill-150" fill="#FFFFFF"></path>
                    <path d="M533.316256,268.086109 L434.364415,268.086109 C431.08591,268.086109 428.445778,265.427018 428.445778,262.152655 L428.445778,150.2352 C428.445778,146.960836 431.08591,144.306655 434.364415,144.306655 L533.316256,144.306655 C536.58577,144.306655 539.24225,146.960836 539.24225,150.2352 L539.24225,262.152655 C539.24225,265.427018 536.58577,268.086109 533.316256,268.086109 Z" id="Stroke-151" stroke="#1D1D1B" stroke-width="2" stroke-linecap="round" stroke-linejoin="round"></path>
                    <polygon id="Fill-152" fill="#FFFFFF" points="435.393822 247.665273 533.009249 247.665273 533.009249 149.804182 435.393822 149.804182"></polygon>
                    <polygon id="Stroke-153" stroke="#1D1D1B" stroke-width="2" stroke-linecap="round" stroke-linejoin="round" points="435.393822 247.665273 533.009249 247.665273 533.009249 149.804182 435.393822 149.804182"></polygon>
                    <path d="M489.882234,256.177391 C489.882234,259.317573 487.338552,261.864573 484.201454,261.864573 C481.06272,261.864573 478.519038,259.317573 478.519038,256.177391 C478.519038,253.036391 481.06272,250.490209 484.201454,250.490209 C487.338552,250.490209 489.882234,253.036391 489.882234,256.177391" id="Fill-154" fill="#CEDFE0"></path>
                    <path d="M489.882234,256.177391 C489.882234,259.317573 487.338552,261.864573 484.201454,261.864573 C481.06272,261.864573 478.519038,259.317573 478.519038,256.177391 C478.519038,253.036391 481.06272,250.490209 484.201454,250.490209 C487.338552,250.490209 489.882234,253.036391 489.882234,256.177391 Z" id="Stroke-155" stroke="#1D1D1B" stroke-width="2" stroke-linecap="round" stroke-linejoin="round"></path>
                    <polygon id="Fill-156" fill="#23BCA7" points="442.563049 209.986364 524.863255 209.986364 524.863255 157.656273 442.563049 157.656273"></polygon>
                    <polygon id="Stroke-157" stroke="#1D1D1B" stroke-width="2" stroke-linecap="round" stroke-linejoin="round" points="442.563049 209.986364 524.863255 209.986364 524.863255 157.656273 442.563049 157.656273"></polygon>
                    <path d="M483.337239,193.604809 C482.501061,193.604809 481.688587,193.493536 480.916164,193.287355 C476.929809,192.217991 473.992968,188.576264 473.992968,184.251355 C473.992968,179.924809 476.929809,176.284718 480.916164,175.217809 C481.688587,175.011627 482.501061,174.901173 483.337239,174.901173 C484.170148,174.901173 484.979353,175.011627 485.750141,175.217809 C488.971429,176.0769 491.503668,178.611627 492.361098,181.833627 C492.564625,182.606809 492.678241,183.416809 492.678241,184.251355 C492.678241,189.418173 488.495715,193.604809 483.337239,193.604809 Z M504.105192,186.401536 L504.105192,182.103627 L500.952563,181.027718 C500.865104,180.548264 500.762932,180.073718 500.637055,179.6139 C500.516901,179.144264 500.369772,178.681991 500.209566,178.229536 L502.397689,175.716082 L500.246348,171.995809 L496.985008,172.6389 L496.992365,172.662627 C496.675222,172.284627 496.340096,171.922991 495.995163,171.579355 C495.651864,171.229991 495.2914,170.897809 494.919493,170.582809 L494.934205,170.591809 L495.579117,167.322355 L491.86168,165.172173 L489.355597,167.363264 C488.89623,167.204536 488.440951,167.057264 487.965236,166.933718 C487.506687,166.810173 487.035877,166.703809 486.563432,166.613809 L485.48531,163.462991 L481.189169,163.462991 L480.113499,166.613809 C479.62961,166.703809 479.161253,166.810173 478.699434,166.933718 C478.231893,167.0589 477.770892,167.204536 477.315612,167.363264 L474.807895,165.172173 L471.088823,167.322355 L471.737821,170.591809 L471.755803,170.582809 C471.379809,170.897809 471.020163,171.229991 470.671959,171.579355 C470.326208,171.922991 469.994353,172.284627 469.679662,172.662627 L469.693557,172.6389 L466.419957,171.995809 L464.271886,175.723445 L466.464912,178.229536 C466.142865,179.130355 465.888661,180.062264 465.719463,181.027718 L462.566017,182.103627 L462.566017,186.401536 L465.719463,187.478264 C465.888661,188.4429 466.142865,189.378082 466.464912,190.273173 L464.271886,192.787445 L466.423226,196.507718 L469.693557,195.8679 L469.679662,195.849082 C469.994353,196.220536 470.326208,196.581355 470.671959,196.924991 C471.020163,197.272718 471.379809,197.605718 471.746812,197.925627 L471.088823,201.181173 L474.815251,203.336264 L477.315612,201.138627 C477.770892,201.301445 478.231893,201.445445 478.699434,201.571445 C479.161253,201.694991 479.62961,201.7989 480.113499,201.886445 L481.189169,205.042991 L485.48531,205.042991 L486.563432,201.886445 C487.5214,201.714627 488.450759,201.460173 489.355597,201.138627 L491.86168,203.336264 L495.583204,201.181173 L494.934205,197.912536 C495.301208,197.5959 495.656768,197.268627 495.995163,196.924991 C496.340096,196.581355 496.675222,196.220536 496.992365,195.849082 L496.985008,195.864627 L500.246348,196.507718 L502.405045,192.787445 L500.209566,190.273173 C500.530796,189.378082 500.777644,188.4429 500.952563,187.478264 L504.105192,186.401536 Z" id="Fill-158" fill="#FFFFFF"></path>
                    <path d="M483.337239,193.604809 C482.501061,193.604809 481.688587,193.493536 480.916164,193.287355 C476.929809,192.217991 473.992968,188.576264 473.992968,184.251355 C473.992968,179.924809 476.929809,176.284718 480.916164,175.217809 C481.688587,175.011627 482.501061,174.901173 483.337239,174.901173 C484.170148,174.901173 484.979353,175.011627 485.750141,175.217809 C488.971429,176.0769 491.503668,178.611627 492.361098,181.833627 C492.564625,182.606809 492.678241,183.416809 492.678241,184.251355 C492.678241,189.418173 488.495715,193.604809 483.337239,193.604809 Z M504.105192,186.401536 L504.105192,182.103627 L500.952563,181.027718 C500.865104,180.548264 500.762932,180.073718 500.637055,179.6139 C500.516901,179.144264 500.369772,178.681991 500.209566,178.229536 L502.397689,175.716082 L500.246348,171.995809 L496.985008,172.6389 L496.992365,172.662627 C496.675222,172.284627 496.340096,171.922991 495.995163,171.579355 C495.651864,171.229991 495.2914,170.897809 494.919493,170.582809 L494.934205,170.591809 L495.579117,167.322355 L491.86168,165.172173 L489.355597,167.363264 C488.89623,167.204536 488.440951,167.057264 487.965236,166.933718 C487.506687,166.810173 487.035877,166.703809 486.563432,166.613809 L485.48531,163.462991 L481.189169,163.462991 L480.113499,166.613809 C479.62961,166.703809 479.161253,166.810173 478.699434,166.933718 C478.231893,167.0589 477.770892,167.204536 477.315612,167.363264 L474.807895,165.172173 L471.088823,167.322355 L471.737821,170.591809 L471.755803,170.582809 C471.379809,170.897809 471.020163,171.229991 470.671959,171.579355 C470.326208,171.922991 469.994353,172.284627 469.679662,172.662627 L469.693557,172.6389 L466.419957,171.995809 L464.271886,175.723445 L466.464912,178.229536 C466.142865,179.130355 465.888661,180.062264 465.719463,181.027718 L462.566017,182.103627 L462.566017,186.401536 L465.719463,187.478264 C465.888661,188.4429 466.142865,189.378082 466.464912,190.273173 L464.271886,192.787445 L466.423226,196.507718 L469.693557,195.8679 L469.679662,195.849082 C469.994353,196.220536 470.326208,196.581355 470.671959,196.924991 C471.020163,197.272718 471.379809,197.605718 471.746812,197.925627 L471.088823,201.181173 L474.815251,203.336264 L477.315612,201.138627 C477.770892,201.301445 478.231893,201.445445 478.699434,201.571445 C479.161253,201.694991 479.62961,201.7989 480.113499,201.886445 L481.189169,205.042991 L485.48531,205.042991 L486.563432,201.886445 C487.5214,201.714627 488.450759,201.460173 489.355597,201.138627 L491.86168,203.336264 L495.583204,201.181173 L494.934205,197.912536 C495.301208,197.5959 495.656768,197.268627 495.995163,196.924991 C496.340096,196.581355 496.675222,196.220536 496.992365,195.849082 L496.985008,195.864627 L500.246348,196.507718 L502.405045,192.787445 L500.209566,190.273173 C500.530796,189.378082 500.777644,188.4429 500.952563,187.478264 L504.105192,186.401536 Z" id="Stroke-159" stroke="#1D1D1B" stroke-width="2" stroke-linecap="round" stroke-linejoin="round"></path>
                    <polygon id="Fill-160" fill="#FFFFFF" points="442.720803 240.001364 467.5969 240.001364 467.5969 215.100818 442.720803 215.100818"></polygon>
                    <polygon id="Stroke-161" stroke="#1D1D1B" stroke-width="2" stroke-linecap="round" stroke-linejoin="round" points="442.720803 240.001364 467.5969 240.001364 467.5969 215.100818 442.720803 215.100818"></polygon>
                    <polygon id="Fill-162" fill="#FFE6A6" points="499.140353 240.001364 524.016451 240.001364 524.016451 215.100818 499.140353 215.100818"></polygon>
                    <polygon id="Stroke-163" stroke="#1D1D1B" stroke-width="2" points="499.140353 240.001364 524.016451 240.001364 524.016451 215.100818 499.140353 215.100818"></polygon>
                    <path d="M472.325761,215.167582 L493.806468,215.167582" id="Stroke-164" stroke="#1D1D1B" stroke-width="2" stroke-linecap="round" stroke-linejoin="round"></path>
                    <path d="M472.325761,218.660809 L493.806468,218.660809" id="Stroke-165" stroke="#1D1D1B" stroke-width="2" stroke-linecap="round" stroke-linejoin="round"></path>
                    <path d="M472.325761,222.155264 L493.806468,222.155264" id="Stroke-166" stroke="#1D1D1B" stroke-width="2" stroke-linecap="round" stroke-linejoin="round"></path>
                    <path d="M472.325761,225.648573 L493.806468,225.648573" id="Stroke-167" stroke="#1D1D1B" stroke-width="2" stroke-linecap="round" stroke-linejoin="round"></path>
                    <path d="M472.325761,229.142618 L493.806468,229.142618" id="Stroke-168" stroke="#1D1D1B" stroke-width="2" stroke-linecap="round" stroke-linejoin="round"></path>
                    <path d="M472.325761,232.635845 L493.806468,232.635845" id="Stroke-169" stroke="#1D1D1B" stroke-width="2" stroke-linecap="round" stroke-linejoin="round"></path>
                    <path d="M472.325761,236.1303 L493.806468,236.1303" id="Stroke-170" stroke="#1D1D1B" stroke-width="2" stroke-linecap="round" stroke-linejoin="round"></path>
                    <path d="M472.325761,239.623527 L493.806468,239.623527" id="Stroke-171" stroke="#1D1D1B" stroke-width="2" stroke-linecap="round" stroke-linejoin="round"></path>
                    <path d="M452.570622,228.974809 L458.144326,228.974809 L455.854032,221.7879 L454.884621,221.7879 L452.570622,228.974809 Z M458.957618,232.186991 L451.781035,232.186991 L450.305666,236.901355 L446.589864,236.901355 C446.589864,236.901355 451.957588,220.306991 452.187272,219.596809 C452.3156,219.135355 452.394068,219.057627 453.053693,219.057627 L457.685777,219.057627 C458.349488,219.057627 458.425504,219.135355 458.55465,219.596809 C458.780247,220.306991 464.156962,236.901355 464.156962,236.901355 L460.438708,236.901355 L458.957618,232.186991 Z" id="Fill-172" fill="#CEDFE0"></path>
                    <path d="M452.570622,228.974809 L458.144326,228.974809 L455.854032,221.7879 L454.884621,221.7879 L452.570622,228.974809 Z M458.957618,232.186991 L451.781035,232.186991 L450.305666,236.901355 L446.589864,236.901355 C446.589864,236.901355 451.957588,220.306991 452.187272,219.596809 C452.3156,219.135355 452.394068,219.057627 453.053693,219.057627 L457.685777,219.057627 C458.349488,219.057627 458.425504,219.135355 458.55465,219.596809 C458.780247,220.306991 464.156962,236.901355 464.156962,236.901355 L460.438708,236.901355 L458.957618,232.186991 Z" id="Stroke-173" stroke="#1D1D1B" stroke-width="2" stroke-linecap="round" stroke-linejoin="round"></path>
                    <polygon id="Fill-174" fill="#FFFFFF" points="517.177445 219.843736 504.132084 219.843736 504.230169 232.976373 507.540552 229.618555 513.891583 235.965191 520.21891 229.547373 513.867062 223.201555"></polygon>
                    <polygon id="Stroke-175" stroke="#1D1D1B" stroke-width="2" stroke-linecap="round" stroke-linejoin="round" points="517.177445 219.843736 504.132084 219.843736 504.230169 232.976373 507.540552 229.618555 513.891583 235.965191 520.21891 229.547373 513.867062 223.201555"></polygon>
                    <polygon id="Fill-176" fill="#FFFFFF" points="416.780479 335.289273 472.503623 335.289273 472.503623 317.566636 416.780479 317.566636"></polygon>
                    <polygon id="Stroke-177" stroke="#000000" stroke-width="2" stroke-linecap="round" stroke-linejoin="round" points="416.780479 335.289273 472.503623 335.289273 472.503623 317.566636 416.780479 317.566636"></polygon>
                    <polygon id="Fill-178" fill="#C7DFF3" points="420.9393 332.004273 467.619786 332.004273 467.619786 320.889273 420.9393 320.889273"></polygon>
                    <polygon id="Stroke-179" stroke="#1D1D1B" stroke-width="2" points="420.9393 332.004273 467.619786 332.004273 467.619786 320.889273 420.9393 320.889273"></polygon>
                    <polygon id="Fill-180" fill="#99D3B7" points="472.54204 335.251636 492.460736 335.251636 492.460736 317.529 472.54204 317.529"></polygon>
                    <polygon id="Stroke-181" stroke="#1D1D1B" stroke-width="2" points="472.54204 335.251636 492.460736 335.251636 492.460736 317.529 472.54204 317.529"></polygon>
                    <path d="M489.903813,321.462491 L487.575919,319.552855 C487.347053,319.362218 486.965337,319.399855 486.774888,319.628945 L480.364189,327.573491 L477.845845,325.281764 C477.616979,325.052673 477.235264,325.091127 477.044814,325.320218 L475.021803,327.535855 C474.793754,327.764945 474.831353,328.146218 475.060219,328.337673 L480.402605,333.226309 C480.631471,333.456218 480.97477,333.417764 481.203636,333.150218 L483.111398,330.7824 L490.018246,322.226673 C490.209513,322.035218 490.171096,321.691582 489.903813,321.462491" id="Fill-182" fill="#FFFFFF"></path>
                    <path d="M489.903813,321.462491 L487.575919,319.552855 C487.347053,319.362218 486.965337,319.399855 486.774888,319.628945 L480.364189,327.573491 L477.845845,325.281764 C477.616979,325.052673 477.235264,325.091127 477.044814,325.320218 L475.021803,327.535855 C474.793754,327.764945 474.831353,328.146218 475.060219,328.337673 L480.402605,333.226309 C480.631471,333.456218 480.97477,333.417764 481.203636,333.150218 L483.111398,330.7824 L490.018246,322.226673 C490.209513,322.035218 490.171096,321.691582 489.903813,321.462491 Z" id="Stroke-183" stroke="#1D1D1B" stroke-width="2"></path>
                    <path d="M398.111962,381.101073 C398.111962,395.688436 386.291035,407.516073 371.72208,407.516073 C357.146587,407.516073 345.329746,395.688436 345.329746,381.101073 C345.329746,366.507164 357.146587,354.683618 371.72208,354.683618 C386.291035,354.684436 398.111962,366.507982 398.111962,381.101073" id="Fill-184" fill="#FFFFFF"></path>
                    <path d="M398.111962,381.101073 C398.111962,395.688436 386.291035,407.516073 371.72208,407.516073 C357.146587,407.516073 345.329746,395.688436 345.329746,381.101073 C345.329746,366.507164 357.146587,354.683618 371.72208,354.683618 C386.291035,354.684436 398.111962,366.507982 398.111962,381.101073 Z" id="Stroke-185" stroke="#1D1D1B" stroke-width="2"></path>
                    <path d="M371.725186,388.9026 C367.422506,388.9026 363.930665,385.408145 363.930665,381.0996 C363.930665,376.792691 367.422506,373.298236 371.725186,373.298236 C376.029501,373.298236 379.519708,376.792691 379.519708,381.0996 C379.519708,385.408145 376.029501,388.9026 371.725186,388.9026 Z M387.731909,383.414236 C388.269744,383.414236 388.706225,382.973236 388.706225,382.434873 L388.706225,379.766782 C388.706225,379.228418 388.269744,378.788236 387.731909,378.788236 L385.403198,378.788236 C384.86618,378.788236 384.304641,378.364418 384.153426,377.849782 L382.815378,374.599145 C382.556269,374.125418 382.656806,373.428327 383.036887,373.0446 L384.675731,371.405782 C385.057447,371.022055 385.057447,370.402691 384.675731,370.023055 L382.78677,368.133873 C382.409141,367.754236 381.789568,367.754236 381.409487,368.133873 L379.769008,369.778418 C379.38811,370.157236 378.692521,370.257873 378.219258,369.998509 L374.970179,368.659964 C374.456865,368.506145 374.033463,367.944055 374.033463,367.404873 L374.033463,365.076327 C374.033463,364.538782 373.596166,364.096964 373.055878,364.096964 L370.391225,364.096964 C369.852572,364.096964 369.41037,364.538782 369.41037,365.076327 L369.41037,367.404873 C369.41037,367.944055 368.993507,368.506145 368.480194,368.659964 L365.227027,369.998509 C364.752948,370.257873 364.061446,370.158873 363.681365,369.778418 L362.041703,368.135509 C361.661622,367.754236 361.03878,367.754236 360.659516,368.135509 L358.773824,370.023055 C358.391291,370.402691 358.391291,371.022055 358.773824,371.405782 L360.410216,373.0446 C360.791932,373.427509 360.891652,374.125418 360.635812,374.599145 L359.298581,377.849782 C359.143279,378.364418 358.578471,378.788236 358.043905,378.788236 L355.719281,378.788236 C355.181446,378.788236 354.738426,379.228418 354.738426,379.766782 L354.738426,382.434873 C354.738426,382.973236 355.181446,383.414236 355.719281,383.414236 L358.043905,383.414236 C358.578471,383.414236 359.143279,383.8356 359.298581,384.351055 L360.635812,387.601691 C360.891652,388.076236 360.792749,388.769236 360.41512,389.152964 L358.773824,390.7926 C358.391291,391.173873 358.391291,391.798145 358.773824,392.177782 L360.655429,394.065327 C361.039597,394.444145 361.66244,394.444145 362.042521,394.065327 L363.682182,392.422418 C364.062263,392.0436 364.753765,391.943782 365.227845,392.197418 L368.481011,393.540055 C368.994325,393.6906 369.411188,394.258418 369.411188,394.796782 L369.411188,397.122873 C369.411188,397.658782 369.85339,398.098964 370.392042,398.098964 L373.055878,398.098964 C373.596166,398.098964 374.033463,397.658782 374.033463,397.122873 L374.033463,394.796782 C374.033463,394.258418 374.456865,393.6906 374.970179,393.540055 L378.219258,392.197418 C378.692521,391.943782 379.387292,392.042782 379.769008,392.422418 L381.409487,394.065327 C381.78875,394.4466 382.408323,394.4466 382.78677,394.065327 L384.675731,392.177782 C385.057447,391.798145 385.057447,391.173873 384.675731,390.7926 L383.036887,389.152964 C382.657624,388.770055 382.556269,388.070509 382.815378,387.601691 L384.153426,384.351055 C384.304641,383.8356 384.86618,383.414236 385.403198,383.414236 L387.731909,383.414236 Z" id="Fill-186" fill="#CDD4D8"></path>
                    <path d="M371.725186,388.9026 C367.422506,388.9026 363.930665,385.408145 363.930665,381.0996 C363.930665,376.792691 367.422506,373.298236 371.725186,373.298236 C376.029501,373.298236 379.519708,376.792691 379.519708,381.0996 C379.519708,385.408145 376.029501,388.9026 371.725186,388.9026 Z M387.731909,383.414236 C388.269744,383.414236 388.706225,382.973236 388.706225,382.434873 L388.706225,379.766782 C388.706225,379.228418 388.269744,378.788236 387.731909,378.788236 L385.403198,378.788236 C384.86618,378.788236 384.304641,378.364418 384.153426,377.849782 L382.815378,374.599145 C382.556269,374.125418 382.656806,373.428327 383.036887,373.0446 L384.675731,371.405782 C385.057447,371.022055 385.057447,370.402691 384.675731,370.023055 L382.78677,368.133873 C382.409141,367.754236 381.789568,367.754236 381.409487,368.133873 L379.769008,369.778418 C379.38811,370.157236 378.692521,370.257873 378.219258,369.998509 L374.970179,368.659964 C374.456865,368.506145 374.033463,367.944055 374.033463,367.404873 L374.033463,365.076327 C374.033463,364.538782 373.596166,364.096964 373.055878,364.096964 L370.391225,364.096964 C369.852572,364.096964 369.41037,364.538782 369.41037,365.076327 L369.41037,367.404873 C369.41037,367.944055 368.993507,368.506145 368.480194,368.659964 L365.227027,369.998509 C364.752948,370.257873 364.061446,370.158873 363.681365,369.778418 L362.041703,368.135509 C361.661622,367.754236 361.03878,367.754236 360.659516,368.135509 L358.773824,370.023055 C358.391291,370.402691 358.391291,371.022055 358.773824,371.405782 L360.410216,373.0446 C360.791932,373.427509 360.891652,374.125418 360.635812,374.599145 L359.298581,377.849782 C359.143279,378.364418 358.578471,378.788236 358.043905,378.788236 L355.719281,378.788236 C355.181446,378.788236 354.738426,379.228418 354.738426,379.766782 L354.738426,382.434873 C354.738426,382.973236 355.181446,383.414236 355.719281,383.414236 L358.043905,383.414236 C358.578471,383.414236 359.143279,383.8356 359.298581,384.351055 L360.635812,387.601691 C360.891652,388.076236 360.792749,388.769236 360.41512,389.152964 L358.773824,390.7926 C358.391291,391.173873 358.391291,391.798145 358.773824,392.177782 L360.655429,394.065327 C361.039597,394.444145 361.66244,394.444145 362.042521,394.065327 L363.682182,392.422418 C364.062263,392.0436 364.753765,391.943782 365.227845,392.197418 L368.481011,393.540055 C368.994325,393.6906 369.411188,394.258418 369.411188,394.796782 L369.411188,397.122873 C369.411188,397.658782 369.85339,398.098964 370.392042,398.098964 L373.055878,398.098964 C373.596166,398.098964 374.033463,397.658782 374.033463,397.122873 L374.033463,394.796782 C374.033463,394.258418 374.456865,393.6906 374.970179,393.540055 L378.219258,392.197418 C378.692521,391.943782 379.387292,392.042782 379.769008,392.422418 L381.409487,394.065327 C381.78875,394.4466 382.408323,394.4466 382.78677,394.065327 L384.675731,392.177782 C385.057447,391.798145 385.057447,391.173873 384.675731,390.7926 L383.036887,389.152964 C382.657624,388.770055 382.556269,388.070509 382.815378,387.601691 L384.153426,384.351055 C384.304641,383.8356 384.86618,383.414236 385.403198,383.414236 L387.731909,383.414236 Z" id="Stroke-187" stroke="#1D1D1B" stroke-width="2"></path>
                    <path d="M234.809057,124.013864 C234.809057,126.5625 232.741089,128.625955 230.194955,128.625955 C227.656995,128.625955 225.58821,126.5625 225.58821,124.013864 C225.58821,121.466045 227.656995,119.401773 230.194955,119.401773 C232.741089,119.401773 234.809057,121.466045 234.809057,124.013864" id="Fill-188" fill="#2C8EF5"></path>
                    <path d="M234.809057,124.013864 C234.809057,126.5625 232.741089,128.625955 230.194955,128.625955 C227.656995,128.625955 225.58821,126.5625 225.58821,124.013864 C225.58821,121.466045 227.656995,119.401773 230.194955,119.401773 C232.741089,119.401773 234.809057,121.466045 234.809057,124.013864 Z" id="Stroke-189" stroke="#000000" stroke-width="2"></path>
                    <path d="M252.405009,124.013864 C252.405009,126.5625 250.344398,128.625955 247.797446,128.625955 C245.251312,128.625955 243.190701,126.5625 243.190701,124.013864 C243.190701,121.466045 245.251312,119.401773 247.797446,119.401773 C250.344398,119.401773 252.405009,121.466045 252.405009,124.013864" id="Fill-190" fill="#EC5D68"></path>
                    <path d="M252.405009,124.013864 C252.405009,126.5625 250.344398,128.625955 247.797446,128.625955 C245.251312,128.625955 243.190701,126.5625 243.190701,124.013864 C243.190701,121.466045 245.251312,119.401773 247.797446,119.401773 C250.344398,119.401773 252.405009,121.466045 252.405009,124.013864 Z" id="Stroke-191" stroke="#000000" stroke-width="2"></path>
                    <path d="M269.999817,124.013864 C269.999817,126.5625 267.939205,128.625955 265.393071,128.625955 C262.847755,128.625955 260.786326,126.5625 260.786326,124.013864 C260.786326,121.466045 262.847755,119.401773 265.393071,119.401773 C267.939205,119.401773 269.999817,121.466045 269.999817,124.013864" id="Fill-192" fill="#FFE6A6"></path>
                    <path d="M269.999817,124.013864 C269.999817,126.5625 267.939205,128.625955 265.393071,128.625955 C262.847755,128.625955 260.786326,126.5625 260.786326,124.013864 C260.786326,121.466045 262.847755,119.401773 265.393071,119.401773 C267.939205,119.401773 269.999817,121.466045 269.999817,124.013864 Z" id="Stroke-193" stroke="#000000" stroke-width="2"></path>
                    <path d="M287.122507,124.013864 C287.122507,126.5625 285.054539,128.625955 282.509222,128.625955 C279.970445,128.625955 277.90166,126.5625 277.90166,124.013864 C277.90166,121.466045 279.970445,119.401773 282.509222,119.401773 C285.054539,119.401773 287.122507,121.466045 287.122507,124.013864" id="Fill-194" fill="#2C8EF5"></path>
                    <path d="M287.122507,124.013864 C287.122507,126.5625 285.054539,128.625955 282.509222,128.625955 C279.970445,128.625955 277.90166,126.5625 277.90166,124.013864 C277.90166,121.466045 279.970445,119.401773 282.509222,119.401773 C285.054539,119.401773 287.122507,121.466045 287.122507,124.013864 Z" id="Stroke-195" stroke="#000000" stroke-width="2"></path>
                    <path d="M304.718867,124.013864 C304.718867,126.5625 302.658256,128.625955 300.111305,128.625955 C297.565171,128.625955 295.50456,126.5625 295.50456,124.013864 C295.50456,121.466045 297.565171,119.401773 300.111305,119.401773 C302.658256,119.401773 304.718867,121.466045 304.718867,124.013864" id="Fill-196" fill="#23BCA7"></path>
                    <path d="M304.718867,124.013864 C304.718867,126.5625 302.658256,128.625955 300.111305,128.625955 C297.565171,128.625955 295.50456,126.5625 295.50456,124.013864 C295.50456,121.466045 297.565171,119.401773 300.111305,119.401773 C302.658256,119.401773 304.718867,121.466045 304.718867,124.013864 Z" id="Stroke-197" stroke="#000000" stroke-width="2" stroke-linecap="round" stroke-linejoin="round"></path>
                    <path d="M322.313675,124.013864 C322.313675,126.5625 320.253064,128.625955 317.706113,128.625955 C315.161613,128.625955 313.100185,126.5625 313.100185,124.013864 C313.100185,121.466045 315.161613,119.401773 317.706113,119.401773 C320.253064,119.401773 322.313675,121.466045 322.313675,124.013864" id="Fill-198" fill="#EC5D68"></path>
                    <path d="M322.313675,124.013864 C322.313675,126.5625 320.253064,128.625955 317.706113,128.625955 C315.161613,128.625955 313.100185,126.5625 313.100185,124.013864 C313.100185,121.466045 315.161613,119.401773 317.706113,119.401773 C320.253064,119.401773 322.313675,121.466045 322.313675,124.013864 Z" id="Stroke-199" stroke="#000000" stroke-width="2"></path>
                    <path d="M59.203215,180.272209 C66.4615361,180.272209 72.3450265,186.1623 72.3450265,193.426936 C72.3450265,200.692391 66.4615361,206.581664 59.203215,206.581664 C51.9457113,206.581664 46.0614035,200.692391 46.0614035,193.426936 C46.0614035,186.1623 51.9457113,180.272209 59.203215,180.272209" id="Fill-200" fill="#23BCA7"></path>
                    <path d="M59.203215,180.272209 C66.4615361,180.272209 72.3450265,186.1623 72.3450265,193.426936 C72.3450265,200.692391 66.4615361,206.581664 59.203215,206.581664 C51.9457113,206.581664 46.0614035,200.692391 46.0614035,193.426936 C46.0614035,186.1623 51.9457113,180.272209 59.203215,180.272209 Z" id="Stroke-201" stroke="#000000" stroke-width="2" stroke-linecap="round" stroke-linejoin="round"></path>
                    <path d="M59.5348255,182.469518 C53.3129404,182.469518 48.2599065,187.522609 48.2599065,193.755518 C48.2599065,199.985973 53.312123,205.041518 59.5348255,205.041518 C65.757528,205.041518 70.8056576,199.986791 70.8056576,193.755518 C70.8056576,187.524245 65.7591627,182.469518 59.5348255,182.469518 Z M89.8186988,216.199064 C89.8186988,216.199064 89.8186988,219.0177 86.998743,221.829791 C84.1861436,224.648427 81.3751789,224.648427 81.3751789,224.648427 L67.4078152,210.083155 C64.997366,211.258064 62.313095,211.974791 59.453905,211.974791 C49.3543763,211.974791 41.1650611,203.785609 41.1650611,193.674518 C41.1650611,183.564245 49.3543763,175.372609 59.453905,175.372609 C69.5452599,175.372609 77.7370272,183.564245 77.7370272,193.674518 C77.7370272,196.547973 77.0201863,199.222609 75.8480655,201.636245 L86.1789124,211.973973 L89.8186988,216.199064 Z" id="Fill-202" fill="#FFFFFF"></path>
                    <path d="M59.5348255,182.469518 C53.3129404,182.469518 48.2599065,187.522609 48.2599065,193.755518 C48.2599065,199.985973 53.312123,205.041518 59.5348255,205.041518 C65.757528,205.041518 70.8056576,199.986791 70.8056576,193.755518 C70.8056576,187.524245 65.7591627,182.469518 59.5348255,182.469518 Z M89.8186988,216.199064 C89.8186988,216.199064 89.8186988,219.0177 86.998743,221.829791 C84.1861436,224.648427 81.3751789,224.648427 81.3751789,224.648427 L67.4078152,210.083155 C64.997366,211.258064 62.313095,211.974791 59.453905,211.974791 C49.3543763,211.974791 41.1650611,203.785609 41.1650611,193.674518 C41.1650611,183.564245 49.3543763,175.372609 59.453905,175.372609 C69.5452599,175.372609 77.7370272,183.564245 77.7370272,193.674518 C77.7370272,196.547973 77.0201863,199.222609 75.8480655,201.636245 L86.1789124,211.973973 L89.8186988,216.199064 Z" id="Stroke-203" stroke="#000000" stroke-width="2"></path>
                </g>
            </g>
        </g>
    </g>
</svg>