<?xml version="1.0" encoding="UTF-8"?> <svg xmlns="http://www.w3.org/2000/svg" xmlns:xlink="http://www.w3.org/1999/xlink" width="970px" height="807px" viewBox="0 0 970 807"><!-- Generator: Sketch 52.2 (67145) - http://www.bohemiancoding.com/sketch --><title>Hero IMG</title><desc>Created with Sketch.</desc><defs><linearGradient x1="50.0000371%" y1="71.5275558%" x2="50.0000371%" y2="119.574628%" id="linearGradient-1"><stop stop-color="#F2FEFF" offset="0%"></stop><stop stop-color="#D2ECFA" offset="100%"></stop></linearGradient><linearGradient x1="43.9193163%" y1="40.5594377%" x2="85.5263037%" y2="96.8271319%" id="linearGradient-2"><stop stop-color="#B2F1FF" offset="0%"></stop><stop stop-color="#93CBFA" offset="100%"></stop></linearGradient><linearGradient x1="48.8854983%" y1="31.6933529%" x2="52.9863469%" y2="113.314358%" id="linearGradient-3"><stop stop-color="#F2FEFF" offset="0%"></stop><stop stop-color="#D2ECFA" offset="100%"></stop></linearGradient><linearGradient x1="49.0841417%" y1="32.7782987%" x2="53.219346%" y2="110.534401%" id="linearGradient-4"><stop stop-color="#F2FEFF" offset="0%"></stop><stop stop-color="#D2ECFA" offset="100%"></stop></linearGradient><linearGradient x1="48.8579837%" y1="30.6559763%" x2="53.9343869%" y2="118.390593%" id="linearGradient-5"><stop stop-color="#F2FEFF" offset="0%"></stop><stop stop-color="#D2ECFA" offset="100%"></stop></linearGradient><linearGradient x1="48.6733638%" y1="-5.59157754%" x2="51.3267123%" y2="105.591578%" id="linearGradient-6"><stop stop-color="#1E96E5" stop-opacity="0.2" offset="0%"></stop><stop stop-color="#1E96E5" offset="100%"></stop></linearGradient><linearGradient x1="81.8119299%" y1="108.284752%" x2="22.1341337%" y2="-0.724232438%" id="linearGradient-7"><stop stop-color="#F2FEFF" offset="0%"></stop><stop stop-color="#D2ECFA" offset="100%"></stop></linearGradient><linearGradient x1="48.6807458%" y1="-5.28609626%" x2="51.3193303%" y2="105.286096%" id="linearGradient-8"><stop stop-color="#1E96E5" stop-opacity="0.2" offset="0%"></stop><stop stop-color="#1E96E5" offset="100%"></stop></linearGradient><linearGradient x1="48.5700972%" y1="29.907052%" x2="54.565836%" y2="121.20226%" id="linearGradient-9"><stop stop-color="#F2FEFF" offset="0%"></stop><stop stop-color="#D2ECFA" offset="100%"></stop></linearGradient><linearGradient x1="50%" y1="247.59058%" x2="50%" y2="108.636348%" id="linearGradient-10"><stop stop-color="#58BCE5" stop-opacity="0.2" offset="0%"></stop><stop stop-color="#58BCE5" offset="100%"></stop></linearGradient><linearGradient x1="50%" y1="402.28912%" x2="50%" y2="154.655601%" id="linearGradient-11"><stop stop-color="#58BCE5" stop-opacity="0.2" offset="0%"></stop><stop stop-color="#58BCE5" offset="100%"></stop></linearGradient><linearGradient x1="50%" y1="401.972277%" x2="50%" y2="154.338757%" id="linearGradient-12"><stop stop-color="#58BCE5" stop-opacity="0.2" offset="0%"></stop><stop stop-color="#58BCE5" offset="100%"></stop></linearGradient><linearGradient x1="50%" y1="142.800876%" x2="50%" y2="77.5193594%" id="linearGradient-13"><stop stop-color="#58BCE5" stop-opacity="0.2" offset="0%"></stop><stop stop-color="#58BCE5" offset="100%"></stop></linearGradient><linearGradient x1="50%" y1="546.35977%" x2="50%" y2="197.178927%" id="linearGradient-14"><stop stop-color="#58BCE5" stop-opacity="0.2" offset="0%"></stop><stop stop-color="#58BCE5" offset="100%"></stop></linearGradient><linearGradient x1="50%" y1="546.446648%" x2="50%" y2="197.265805%" id="linearGradient-15"><stop stop-color="#58BCE5" stop-opacity="0.2" offset="0%"></stop><stop stop-color="#58BCE5" offset="100%"></stop></linearGradient><linearGradient x1="50%" y1="546.642586%" x2="50%" y2="197.461743%" id="linearGradient-16"><stop stop-color="#58BCE5" stop-opacity="0.2" offset="0%"></stop><stop stop-color="#58BCE5" offset="100%"></stop></linearGradient><linearGradient x1="50%" y1="544.64271%" x2="50%" y2="196.794618%" id="linearGradient-17"><stop stop-color="#58BCE5" stop-opacity="0.2" offset="0%"></stop><stop stop-color="#58BCE5" offset="100%"></stop></linearGradient><linearGradient x1="50%" y1="546.433199%" x2="50%" y2="197.252356%" id="linearGradient-18"><stop stop-color="#58BCE5" stop-opacity="0.2" offset="0%"></stop><stop stop-color="#58BCE5" offset="100%"></stop></linearGradient><linearGradient x1="50.0005917%" y1="546.629356%" x2="50.0005917%" y2="197.448513%" id="linearGradient-19"><stop stop-color="#58BCE5" stop-opacity="0.2" offset="0%"></stop><stop stop-color="#58BCE5" offset="100%"></stop></linearGradient><linearGradient x1="50%" y1="544.629313%" x2="50%" y2="196.781221%" id="linearGradient-20"><stop stop-color="#58BCE5" stop-opacity="0.2" offset="0%"></stop><stop stop-color="#58BCE5" offset="100%"></stop></linearGradient><linearGradient x1="50%" y1="546.637165%" x2="50%" y2="197.456322%" id="linearGradient-21"><stop stop-color="#58BCE5" stop-opacity="0.2" offset="0%"></stop><stop stop-color="#58BCE5" offset="100%"></stop></linearGradient><linearGradient x1="50%" y1="546.3409%" x2="50%" y2="197.160057%" id="linearGradient-22"><stop stop-color="#58BCE5" stop-opacity="0.2" offset="0%"></stop><stop stop-color="#58BCE5" offset="100%"></stop></linearGradient><linearGradient x1="50%" y1="546.536839%" x2="50%" y2="197.355996%" id="linearGradient-23"><stop stop-color="#58BCE5" stop-opacity="0.2" offset="0%"></stop><stop stop-color="#58BCE5" offset="100%"></stop></linearGradient><linearGradient x1="50%" y1="546.623716%" x2="50%" y2="197.442874%" id="linearGradient-24"><stop stop-color="#58BCE5" stop-opacity="0.2" offset="0%"></stop><stop stop-color="#58BCE5" offset="100%"></stop></linearGradient><linearGradient x1="50%" y1="546.327452%" x2="50%" y2="197.146609%" id="linearGradient-25"><stop stop-color="#58BCE5" stop-opacity="0.2" offset="0%"></stop><stop stop-color="#58BCE5" offset="100%"></stop></linearGradient><linearGradient x1="50.0005917%" y1="546.523609%" x2="50.0005917%" y2="197.342766%" id="linearGradient-26"><stop stop-color="#58BCE5" stop-opacity="0.2" offset="0%"></stop><stop stop-color="#58BCE5" offset="100%"></stop></linearGradient><linearGradient x1="50%" y1="546.610268%" x2="50%" y2="197.429425%" id="linearGradient-27"><stop stop-color="#58BCE5" stop-opacity="0.2" offset="0%"></stop><stop stop-color="#58BCE5" offset="100%"></stop></linearGradient><linearGradient x1="50%" y1="546.531801%" x2="50%" y2="197.349042%" id="linearGradient-28"><stop stop-color="#58BCE5" stop-opacity="0.2" offset="0%"></stop><stop stop-color="#58BCE5" offset="100%"></stop></linearGradient><linearGradient x1="50%" y1="546.618678%" x2="50%" y2="197.43592%" id="linearGradient-29"><stop stop-color="#58BCE5" stop-opacity="0.2" offset="0%"></stop><stop stop-color="#58BCE5" offset="100%"></stop></linearGradient><linearGradient x1="50%" y1="546.431475%" x2="50%" y2="197.248716%" id="linearGradient-30"><stop stop-color="#58BCE5" stop-opacity="0.2" offset="0%"></stop><stop stop-color="#58BCE5" offset="100%"></stop></linearGradient><linearGradient x1="50%" y1="546.518352%" x2="50%" y2="197.335594%" id="linearGradient-31"><stop stop-color="#58BCE5" stop-opacity="0.2" offset="0%"></stop><stop stop-color="#58BCE5" offset="100%"></stop></linearGradient><linearGradient x1="50.0005917%" y1="546.418245%" x2="50.0005917%" y2="197.235486%" id="linearGradient-32"><stop stop-color="#58BCE5" stop-opacity="0.2" offset="0%"></stop><stop stop-color="#58BCE5" offset="100%"></stop></linearGradient><linearGradient x1="50%" y1="546.504904%" x2="50%" y2="197.322146%" id="linearGradient-33"><stop stop-color="#58BCE5" stop-opacity="0.2" offset="0%"></stop><stop stop-color="#58BCE5" offset="100%"></stop></linearGradient><linearGradient x1="50%" y1="546.424521%" x2="50%" y2="197.243295%" id="linearGradient-34"><stop stop-color="#58BCE5" stop-opacity="0.2" offset="0%"></stop><stop stop-color="#58BCE5" offset="100%"></stop></linearGradient><linearGradient x1="50%" y1="546.511398%" x2="50%" y2="197.330172%" id="linearGradient-35"><stop stop-color="#58BCE5" stop-opacity="0.2" offset="0%"></stop><stop stop-color="#58BCE5" offset="100%"></stop></linearGradient><linearGradient x1="50%" y1="546.707337%" x2="50%" y2="197.526111%" id="linearGradient-36"><stop stop-color="#58BCE5" stop-opacity="0.2" offset="0%"></stop><stop stop-color="#58BCE5" offset="100%"></stop></linearGradient><linearGradient x1="50%" y1="546.411073%" x2="50%" y2="197.229847%" id="linearGradient-37"><stop stop-color="#58BCE5" stop-opacity="0.2" offset="0%"></stop><stop stop-color="#58BCE5" offset="100%"></stop></linearGradient><linearGradient x1="50%" y1="546.49795%" x2="50%" y2="197.316724%" id="linearGradient-38"><stop stop-color="#58BCE5" stop-opacity="0.2" offset="0%"></stop><stop stop-color="#58BCE5" offset="100%"></stop></linearGradient><linearGradient x1="50.0005917%" y1="546.694107%" x2="50.0005917%" y2="197.512881%" id="linearGradient-39"><stop stop-color="#58BCE5" stop-opacity="0.2" offset="0%"></stop><stop stop-color="#58BCE5" offset="100%"></stop></linearGradient><linearGradient x1="50%" y1="546.397625%" x2="50%" y2="197.216398%" id="linearGradient-40"><stop stop-color="#58BCE5" stop-opacity="0.2" offset="0%"></stop><stop stop-color="#58BCE5" offset="100%"></stop></linearGradient><linearGradient x1="50%" y1="544.615267%" x2="50%" y2="196.767176%" id="linearGradient-41"><stop stop-color="#58BCE5" stop-opacity="0.2" offset="0%"></stop><stop stop-color="#58BCE5" offset="100%"></stop></linearGradient><linearGradient x1="50%" y1="546.405651%" x2="50%" y2="197.224808%" id="linearGradient-42"><stop stop-color="#58BCE5" stop-opacity="0.2" offset="0%"></stop><stop stop-color="#58BCE5" offset="100%"></stop></linearGradient><linearGradient x1="50%" y1="546.60159%" x2="50%" y2="197.420747%" id="linearGradient-43"><stop stop-color="#58BCE5" stop-opacity="0.2" offset="0%"></stop><stop stop-color="#58BCE5" offset="100%"></stop></linearGradient><linearGradient x1="50%" y1="546.688467%" x2="50%" y2="197.507625%" id="linearGradient-44"><stop stop-color="#58BCE5" stop-opacity="0.2" offset="0%"></stop><stop stop-color="#58BCE5" offset="100%"></stop></linearGradient><linearGradient x1="50%" y1="546.392203%" x2="50%" y2="197.21136%" id="linearGradient-45"><stop stop-color="#58BCE5" stop-opacity="0.2" offset="0%"></stop><stop stop-color="#58BCE5" offset="100%"></stop></linearGradient><linearGradient x1="50.0005917%" y1="546.58836%" x2="50.0005917%" y2="197.407517%" id="linearGradient-46"><stop stop-color="#58BCE5" stop-opacity="0.2" offset="0%"></stop><stop stop-color="#58BCE5" offset="100%"></stop></linearGradient><linearGradient x1="50%" y1="546.675019%" x2="50%" y2="197.494176%" id="linearGradient-47"><stop stop-color="#58BCE5" stop-opacity="0.2" offset="0%"></stop><stop stop-color="#58BCE5" offset="100%"></stop></linearGradient><linearGradient x1="48.7652256%" y1="24.377944%" x2="54.3430451%" y2="140.129722%" id="linearGradient-48"><stop stop-color="#58BCE5" stop-opacity="0.2" offset="0%"></stop><stop stop-color="#58BCE5" offset="100%"></stop></linearGradient><linearGradient x1="50%" y1="546.60523%" x2="50%" y2="197.422471%" id="linearGradient-49"><stop stop-color="#58BCE5" stop-opacity="0.2" offset="0%"></stop><stop stop-color="#58BCE5" offset="100%"></stop></linearGradient><linearGradient x1="49.7605943%" y1="41.856966%" x2="50.7627747%" y2="76.0750331%" id="linearGradient-50"><stop stop-color="#F2FEFF" offset="0%"></stop><stop stop-color="#D2ECFA" offset="100%"></stop></linearGradient><linearGradient x1="22.0383188%" y1="-30.8397239%" x2="77.7206332%" y2="130.219325%" id="linearGradient-51"><stop stop-color="#58BCE5" stop-opacity="0.2" offset="0%"></stop><stop stop-color="#58BCE5" offset="100%"></stop></linearGradient><linearGradient x1="50%" y1="447.203303%" x2="50%" y2="167.881435%" id="linearGradient-52"><stop stop-color="#1E96E5" stop-opacity="0.2" offset="0%"></stop><stop stop-color="#1E96E5" offset="100%"></stop></linearGradient><linearGradient x1="50%" y1="447.123064%" x2="50%" y2="167.801196%" id="linearGradient-53"><stop stop-color="#1E96E5" stop-opacity="0.2" offset="0%"></stop><stop stop-color="#1E96E5" offset="100%"></stop></linearGradient><linearGradient x1="48.984521%" y1="31.5711441%" x2="53.9056587%" y2="114.871475%" id="linearGradient-54"><stop stop-color="#F2FEFF" offset="0%"></stop><stop stop-color="#D2ECFA" offset="100%"></stop></linearGradient><linearGradient x1="-735.808901%" y1="-6.15320667%" x2="-183.049738%" y2="33.3635495%" id="linearGradient-55"><stop stop-color="#58BCE5" stop-opacity="0.2" offset="0%"></stop><stop stop-color="#58BCE5" offset="100%"></stop></linearGradient><linearGradient x1="50%" y1="125.343746%" x2="50%" y2="72.3602735%" id="linearGradient-56"><stop stop-color="#1E96E5" stop-opacity="0.2" offset="0%"></stop><stop stop-color="#1E96E5" offset="100%"></stop></linearGradient><linearGradient x1="50%" y1="141.948091%" x2="50%" y2="77.2759579%" id="linearGradient-57"><stop stop-color="#1E96E5" stop-opacity="0.2" offset="0%"></stop><stop stop-color="#1E96E5" offset="100%"></stop></linearGradient><linearGradient x1="50%" y1="110.423077%" x2="50%" y2="67.9049475%" id="linearGradient-58"><stop stop-color="#1E96E5" stop-opacity="0.2" offset="0%"></stop><stop stop-color="#1E96E5" offset="100%"></stop></linearGradient><linearGradient x1="50%" y1="128.411368%" x2="50%" y2="73.2645854%" id="linearGradient-59"><stop stop-color="#1E96E5" stop-opacity="0.2" offset="0%"></stop><stop stop-color="#1E96E5" offset="100%"></stop></linearGradient><linearGradient x1="50%" y1="110.506194%" x2="50%" y2="67.9478367%" id="linearGradient-60"><stop stop-color="#1E96E5" stop-opacity="0.2" offset="0%"></stop><stop stop-color="#1E96E5" offset="100%"></stop></linearGradient><linearGradient x1="15.9790362%" y1="-2.83074054%" x2="85.6598467%" y2="106.864876%" id="linearGradient-61"><stop stop-color="#F2FEFF" offset="0%"></stop><stop stop-color="#D2ECFA" offset="100%"></stop></linearGradient><linearGradient x1="34.2111518%" y1="-33.1861226%" x2="62.0706032%" y2="114.52032%" id="linearGradient-62"><stop stop-color="#58BCE5" offset="39.23%"></stop><stop stop-color="#56B6E5" offset="51.01%"></stop><stop stop-color="#52A7E5" offset="66.01%"></stop><stop stop-color="#4B8DE5" offset="82.78%"></stop><stop stop-color="#416AE5" offset="99.97%"></stop></linearGradient><linearGradient x1="45.0467135%" y1="42.9214039%" x2="102.417677%" y2="124.908691%" id="linearGradient-63"><stop stop-color="#416AE5" stop-opacity="0.2" offset="0%"></stop><stop stop-color="#416AE5" offset="99.96%"></stop></linearGradient><linearGradient x1="41.1934019%" y1="32.9837838%" x2="98.8957584%" y2="144.476991%" id="linearGradient-64"><stop stop-color="#416AE5" stop-opacity="0.2" offset="0%"></stop><stop stop-color="#416AE5" offset="99.52%"></stop></linearGradient><linearGradient x1="49.0837975%" y1="32.8502299%" x2="53.2177384%" y2="110.231199%" id="linearGradient-65"><stop stop-color="#F2FEFF" offset="0%"></stop><stop stop-color="#D2ECFA" offset="100%"></stop></linearGradient><linearGradient x1="6.92266667%" y1="-4.16452859%" x2="98.7016203%" y2="110.66079%" id="linearGradient-66"><stop stop-color="#58BCE5" offset="39.23%"></stop><stop stop-color="#56B6E5" offset="51.01%"></stop><stop stop-color="#52A7E5" offset="66.01%"></stop><stop stop-color="#4B8DE5" offset="82.78%"></stop><stop stop-color="#416AE5" offset="99.97%"></stop></linearGradient><linearGradient x1="50%" y1="180.20768%" x2="50%" y2="88.6178838%" id="linearGradient-67"><stop stop-color="#1E96E5" stop-opacity="0.2" offset="0%"></stop><stop stop-color="#1E96E5" offset="100%"></stop></linearGradient><linearGradient x1="50%" y1="135.443157%" x2="50%" y2="75.3371965%" id="linearGradient-68"><stop stop-color="#1E96E5" stop-opacity="0.2" offset="0%"></stop><stop stop-color="#1E96E5" offset="100%"></stop></linearGradient><linearGradient x1="50%" y1="135.65365%" x2="50%" y2="75.4147124%" id="linearGradient-69"><stop stop-color="#1E96E5" stop-opacity="0.2" offset="0%"></stop><stop stop-color="#1E96E5" offset="100%"></stop></linearGradient><linearGradient x1="50%" y1="135.564491%" x2="50%" y2="75.3253319%" id="linearGradient-70"><stop stop-color="#1E96E5" stop-opacity="0.2" offset="0%"></stop><stop stop-color="#1E96E5" offset="100%"></stop></linearGradient><linearGradient x1="50%" y1="135.688009%" x2="50%" y2="75.4490708%" id="linearGradient-71"><stop stop-color="#1E96E5" stop-opacity="0.2" offset="0%"></stop><stop stop-color="#1E96E5" offset="100%"></stop></linearGradient><linearGradient x1="50%" y1="135.59885%" x2="50%" y2="75.3599115%" id="linearGradient-72"><stop stop-color="#1E96E5" stop-opacity="0.2" offset="0%"></stop><stop stop-color="#1E96E5" offset="100%"></stop></linearGradient><linearGradient x1="50%" y1="135.431302%" x2="50%" y2="75.3251214%" id="linearGradient-73"><stop stop-color="#1E96E5" stop-opacity="0.2" offset="0%"></stop><stop stop-color="#1E96E5" offset="100%"></stop></linearGradient><linearGradient x1="50%" y1="135.488918%" x2="50%" y2="75.3829581%" id="linearGradient-74"><stop stop-color="#1E96E5" stop-opacity="0.2" offset="0%"></stop><stop stop-color="#1E96E5" offset="100%"></stop></linearGradient><linearGradient x1="50%" y1="135.699513%" x2="50%" y2="75.4605752%" id="linearGradient-75"><stop stop-color="#1E96E5" stop-opacity="0.2" offset="0%"></stop><stop stop-color="#1E96E5" offset="100%"></stop></linearGradient><linearGradient x1="50%" y1="135.610796%" x2="50%" y2="75.3711947%" id="linearGradient-76"><stop stop-color="#1E96E5" stop-opacity="0.2" offset="0%"></stop><stop stop-color="#1E96E5" offset="100%"></stop></linearGradient><linearGradient x1="50%" y1="135.668097%" x2="50%" y2="75.4291593%" id="linearGradient-77"><stop stop-color="#1E96E5" stop-opacity="0.2" offset="0%"></stop><stop stop-color="#1E96E5" offset="100%"></stop></linearGradient><linearGradient x1="50%" y1="135.579602%" x2="50%" y2="75.34%" id="linearGradient-78"><stop stop-color="#1E96E5" stop-opacity="0.2" offset="0%"></stop><stop stop-color="#1E96E5" offset="100%"></stop></linearGradient><linearGradient x1="50%" y1="135.437417%" x2="50%" y2="75.331457%" id="linearGradient-79"><stop stop-color="#1E96E5" stop-opacity="0.2" offset="0%"></stop><stop stop-color="#1E96E5" offset="100%"></stop></linearGradient><linearGradient x1="50%" y1="135.648341%" x2="50%" y2="75.4098451%" id="linearGradient-80"><stop stop-color="#1E96E5" stop-opacity="0.2" offset="0%"></stop><stop stop-color="#1E96E5" offset="100%"></stop></linearGradient><linearGradient x1="50%" y1="135.559181%" x2="50%" y2="75.3200221%" id="linearGradient-81"><stop stop-color="#1E96E5" stop-opacity="0.2" offset="0%"></stop><stop stop-color="#1E96E5" offset="100%"></stop></linearGradient><linearGradient x1="50%" y1="135.652412%" x2="50%" y2="75.4134735%" id="linearGradient-82"><stop stop-color="#1E96E5" stop-opacity="0.2" offset="0%"></stop><stop stop-color="#1E96E5" offset="100%"></stop></linearGradient><linearGradient x1="50%" y1="135.484746%" x2="50%" y2="75.3787859%" id="linearGradient-83"><stop stop-color="#1E96E5" stop-opacity="0.2" offset="0%"></stop><stop stop-color="#1E96E5" offset="100%"></stop></linearGradient><linearGradient x1="50%" y1="135.695332%" x2="50%" y2="75.4561726%" id="linearGradient-84"><stop stop-color="#1E96E5" stop-opacity="0.2" offset="0%"></stop><stop stop-color="#1E96E5" offset="100%"></stop></linearGradient><linearGradient x1="50%" y1="135.646659%" x2="50%" y2="75.4077212%" id="linearGradient-85"><stop stop-color="#1E96E5" stop-opacity="0.2" offset="0%"></stop><stop stop-color="#1E96E5" offset="100%"></stop></linearGradient><linearGradient x1="50%" y1="135.479448%" x2="50%" y2="75.3739294%" id="linearGradient-86"><stop stop-color="#1E96E5" stop-opacity="0.2" offset="0%"></stop><stop stop-color="#1E96E5" offset="100%"></stop></linearGradient><linearGradient x1="50%" y1="135.690022%" x2="50%" y2="75.4508628%" id="linearGradient-87"><stop stop-color="#1E96E5" stop-opacity="0.2" offset="0%"></stop><stop stop-color="#1E96E5" offset="100%"></stop></linearGradient><linearGradient x1="50%" y1="135.660288%" x2="50%" y2="75.4213496%" id="linearGradient-88"><stop stop-color="#1E96E5" stop-opacity="0.2" offset="0%"></stop><stop stop-color="#1E96E5" offset="100%"></stop></linearGradient><linearGradient x1="50%" y1="135.571571%" x2="50%" y2="75.3326327%" id="linearGradient-89"><stop stop-color="#1E96E5" stop-opacity="0.2" offset="0%"></stop><stop stop-color="#1E96E5" offset="100%"></stop></linearGradient><linearGradient x1="50%" y1="135.404084%" x2="50%" y2="75.2981236%" id="linearGradient-90"><stop stop-color="#1E96E5" stop-opacity="0.2" offset="0%"></stop><stop stop-color="#1E96E5" offset="100%"></stop></linearGradient><linearGradient x1="50%" y1="135.660863%" x2="50%" y2="75.4219248%" id="linearGradient-91"><stop stop-color="#1E96E5" stop-opacity="0.2" offset="0%"></stop><stop stop-color="#1E96E5" offset="100%"></stop></linearGradient><linearGradient x1="50%" y1="135.572146%" x2="50%" y2="75.333208%" id="linearGradient-92"><stop stop-color="#1E96E5" stop-opacity="0.2" offset="0%"></stop><stop stop-color="#1E96E5" offset="100%"></stop></linearGradient><linearGradient x1="50%" y1="135.404658%" x2="50%" y2="75.2986976%" id="linearGradient-93"><stop stop-color="#1E96E5" stop-opacity="0.2" offset="0%"></stop><stop stop-color="#1E96E5" offset="100%"></stop></linearGradient><linearGradient x1="50%" y1="135.491369%" x2="50%" y2="75.3854084%" id="linearGradient-94"><stop stop-color="#1E96E5" stop-opacity="0.2" offset="0%"></stop><stop stop-color="#1E96E5" offset="100%"></stop></linearGradient><linearGradient x1="50%" y1="135.702412%" x2="50%" y2="75.4634735%" id="linearGradient-95"><stop stop-color="#1E96E5" stop-opacity="0.2" offset="0%"></stop><stop stop-color="#1E96E5" offset="100%"></stop></linearGradient><linearGradient x1="50%" y1="135.613252%" x2="50%" y2="75.3743142%" id="linearGradient-96"><stop stop-color="#1E96E5" stop-opacity="0.2" offset="0%"></stop><stop stop-color="#1E96E5" offset="100%"></stop></linearGradient><linearGradient x1="50%" y1="180.218833%" x2="50%" y2="88.6290373%" id="linearGradient-97"><stop stop-color="#1E96E5" stop-opacity="0.2" offset="0%"></stop><stop stop-color="#1E96E5" offset="100%"></stop></linearGradient><linearGradient x1="50.0000612%" y1="180.230481%" x2="50.0000612%" y2="88.6402419%" id="linearGradient-98"><stop stop-color="#1E96E5" stop-opacity="0.2" offset="0%"></stop><stop stop-color="#1E96E5" offset="100%"></stop></linearGradient><linearGradient x1="50%" y1="180.235541%" x2="50%" y2="88.6457453%" id="linearGradient-99"><stop stop-color="#1E96E5" stop-opacity="0.2" offset="0%"></stop><stop stop-color="#1E96E5" offset="100%"></stop></linearGradient><linearGradient x1="50.0000612%" y1="180.098274%" x2="50.0000612%" y2="88.5899403%" id="linearGradient-100"><stop stop-color="#1E96E5" stop-opacity="0.2" offset="0%"></stop><stop stop-color="#1E96E5" offset="100%"></stop></linearGradient><linearGradient x1="50%" y1="180.174849%" x2="50%" y2="88.5850532%" id="linearGradient-101"><stop stop-color="#1E96E5" stop-opacity="0.2" offset="0%"></stop><stop stop-color="#1E96E5" offset="100%"></stop></linearGradient><linearGradient x1="50%" y1="180.18618%" x2="50%" y2="88.5962067%" id="linearGradient-102"><stop stop-color="#1E96E5" stop-opacity="0.2" offset="0%"></stop><stop stop-color="#1E96E5" offset="100%"></stop></linearGradient><linearGradient x1="50.0000612%" y1="180.197385%" x2="50.0000612%" y2="88.6075888%" id="linearGradient-103"><stop stop-color="#1E96E5" stop-opacity="0.2" offset="0%"></stop><stop stop-color="#1E96E5" offset="100%"></stop></linearGradient><linearGradient x1="55.6371484%" y1="-7.30120491%" x2="58.1315209%" y2="118.139028%" id="linearGradient-104"><stop stop-color="#F2FEFF" offset="0%"></stop><stop stop-color="#D2ECFA" offset="100%"></stop></linearGradient><linearGradient x1="50%" y1="153.959018%" x2="50%" y2="80.7567689%" id="linearGradient-105"><stop stop-color="#58BCE5" stop-opacity="0.2" offset="0%"></stop><stop stop-color="#58BCE5" offset="100%"></stop></linearGradient><linearGradient x1="50%" y1="279.06018%" x2="50%" y2="117.817387%" id="linearGradient-106"><stop stop-color="#58BCE5" stop-opacity="0.2" offset="0%"></stop><stop stop-color="#58BCE5" offset="100%"></stop></linearGradient><linearGradient x1="50%" y1="239.9575%" x2="50%" y2="106.214837%" id="linearGradient-107"><stop stop-color="#58BCE5" stop-opacity="0.2" offset="0%"></stop><stop stop-color="#58BCE5" offset="100%"></stop></linearGradient><linearGradient x1="50%" y1="176.98682%" x2="50%" y2="87.5350958%" id="linearGradient-108"><stop stop-color="#58BCE5" stop-opacity="0.2" offset="0%"></stop><stop stop-color="#58BCE5" offset="100%"></stop></linearGradient><linearGradient x1="50%" y1="444.615%" x2="50%" y2="166.675714%" id="linearGradient-109"><stop stop-color="#58BCE5" stop-opacity="0.2" offset="0%"></stop><stop stop-color="#58BCE5" offset="100%"></stop></linearGradient><linearGradient x1="50%" y1="269.196426%" x2="50%" y2="114.910219%" id="linearGradient-110"><stop stop-color="#58BCE5" stop-opacity="0.2" offset="0%"></stop><stop stop-color="#58BCE5" offset="100%"></stop></linearGradient><linearGradient x1="50%" y1="452.018736%" x2="50%" y2="169.16069%" id="linearGradient-111"><stop stop-color="#58BCE5" stop-opacity="0.2" offset="0%"></stop><stop stop-color="#58BCE5" offset="100%"></stop></linearGradient><linearGradient x1="50%" y1="176.971877%" x2="50%" y2="87.5201533%" id="linearGradient-112"><stop stop-color="#58BCE5" stop-opacity="0.2" offset="0%"></stop><stop stop-color="#58BCE5" offset="100%"></stop></linearGradient><linearGradient x1="50%" y1="188.076793%" x2="50%" y2="90.8053261%" id="linearGradient-113"><stop stop-color="#58BCE5" stop-opacity="0.2" offset="0%"></stop><stop stop-color="#58BCE5" offset="100%"></stop></linearGradient><linearGradient x1="50%" y1="240.07625%" x2="50%" y2="106.33413%" id="linearGradient-114"><stop stop-color="#58BCE5" stop-opacity="0.2" offset="0%"></stop><stop stop-color="#58BCE5" offset="100%"></stop></linearGradient><linearGradient x1="50%" y1="239.936576%" x2="50%" y2="106.194457%" id="linearGradient-115"><stop stop-color="#58BCE5" stop-opacity="0.2" offset="0%"></stop><stop stop-color="#58BCE5" offset="100%"></stop></linearGradient><linearGradient x1="50%" y1="444.523333%" x2="50%" y2="166.584048%" id="linearGradient-116"><stop stop-color="#58BCE5" stop-opacity="0.2" offset="0%"></stop><stop stop-color="#58BCE5" offset="100%"></stop></linearGradient><linearGradient x1="50%" y1="176.957318%" x2="50%" y2="87.5055939%" id="linearGradient-117"><stop stop-color="#58BCE5" stop-opacity="0.2" offset="0%"></stop><stop stop-color="#58BCE5" offset="100%"></stop></linearGradient><linearGradient x1="50%" y1="392.661078%" x2="50%" y2="151.400294%" id="linearGradient-118"><stop stop-color="#58BCE5" stop-opacity="0.2" offset="0%"></stop><stop stop-color="#58BCE5" offset="100%"></stop></linearGradient><linearGradient x1="50%" y1="189.550818%" x2="50%" y2="91.3128942%" id="linearGradient-119"><stop stop-color="#58BCE5" stop-opacity="0.2" offset="0%"></stop><stop stop-color="#58BCE5" offset="100%"></stop></linearGradient><linearGradient x1="50%" y1="189.551617%" x2="50%" y2="91.3136926%" id="linearGradient-120"><stop stop-color="#58BCE5" stop-opacity="0.2" offset="0%"></stop><stop stop-color="#58BCE5" offset="100%"></stop></linearGradient><linearGradient x1="50%" y1="440.424235%" x2="50%" y2="165.754824%" id="linearGradient-121"><stop stop-color="#58BCE5" stop-opacity="0.2" offset="0%"></stop><stop stop-color="#58BCE5" offset="100%"></stop></linearGradient><linearGradient x1="50%" y1="176.942375%" x2="50%" y2="87.4906513%" id="linearGradient-122"><stop stop-color="#58BCE5" stop-opacity="0.2" offset="0%"></stop><stop stop-color="#58BCE5" offset="100%"></stop></linearGradient><linearGradient x1="50%" y1="382.885048%" x2="50%" y2="148.517905%" id="linearGradient-123"><stop stop-color="#58BCE5" stop-opacity="0.2" offset="0%"></stop><stop stop-color="#58BCE5" offset="100%"></stop></linearGradient><linearGradient x1="50%" y1="176.927816%" x2="50%" y2="87.4757088%" id="linearGradient-124"><stop stop-color="#58BCE5" stop-opacity="0.2" offset="0%"></stop><stop stop-color="#58BCE5" offset="100%"></stop></linearGradient><linearGradient x1="50%" y1="239.90288%" x2="50%" y2="106.160489%" id="linearGradient-125"><stop stop-color="#58BCE5" stop-opacity="0.2" offset="0%"></stop><stop stop-color="#58BCE5" offset="100%"></stop></linearGradient><linearGradient x1="50%" y1="240.062663%" x2="50%" y2="106.320272%" id="linearGradient-126"><stop stop-color="#58BCE5" stop-opacity="0.2" offset="0%"></stop><stop stop-color="#58BCE5" offset="100%"></stop></linearGradient><linearGradient x1="50%" y1="440.333647%" x2="50%" y2="165.664235%" id="linearGradient-127"><stop stop-color="#58BCE5" stop-opacity="0.2" offset="0%"></stop><stop stop-color="#58BCE5" offset="100%"></stop></linearGradient><linearGradient x1="50%" y1="177.593308%" x2="50%" y2="87.7975385%" id="linearGradient-128"><stop stop-color="#58BCE5" stop-opacity="0.2" offset="0%"></stop><stop stop-color="#58BCE5" offset="100%"></stop></linearGradient><linearGradient x1="50%" y1="413.984687%" x2="50%" y2="157.645625%" id="linearGradient-129"><stop stop-color="#58BCE5" stop-opacity="0.2" offset="0%"></stop><stop stop-color="#58BCE5" offset="100%"></stop></linearGradient><linearGradient x1="50%" y1="189.528463%" x2="50%" y2="91.2907385%" id="linearGradient-130"><stop stop-color="#58BCE5" stop-opacity="0.2" offset="0%"></stop><stop stop-color="#58BCE5" offset="100%"></stop></linearGradient><linearGradient x1="50%" y1="177.578692%" x2="50%" y2="87.7825385%" id="linearGradient-131"><stop stop-color="#58BCE5" stop-opacity="0.2" offset="0%"></stop><stop stop-color="#58BCE5" offset="100%"></stop></linearGradient><linearGradient x1="48.0186619%" y1="40.8274381%" x2="31.9608737%" y2="-30.9599709%" id="linearGradient-132"><stop stop-color="#F2FEFF" offset="0%"></stop><stop stop-color="#D2ECFA" offset="100%"></stop></linearGradient><linearGradient x1="22.4040273%" y1="-58.4285246%" x2="80.9639765%" y2="170.356393%" id="linearGradient-133"><stop stop-color="#B2F1FF" offset="0%"></stop><stop stop-color="#93CBFA" offset="100%"></stop></linearGradient><linearGradient x1="50%" y1="-29.9228321%" x2="50%" y2="79.7565201%" id="linearGradient-134"><stop stop-color="#1E96E5" stop-opacity="0.2" offset="0%"></stop><stop stop-color="#1E96E5" offset="100%"></stop></linearGradient><linearGradient x1="50%" y1="-29.9550854%" x2="50%" y2="79.7534715%" id="linearGradient-135"><stop stop-color="#1E96E5" stop-opacity="0.2" offset="0%"></stop><stop stop-color="#1E96E5" offset="100%"></stop></linearGradient><linearGradient x1="49.9999282%" y1="-29.9181052%" x2="49.9999282%" y2="79.7904517%" id="linearGradient-136"><stop stop-color="#1E96E5" stop-opacity="0.2" offset="0%"></stop><stop stop-color="#1E96E5" offset="100%"></stop></linearGradient><linearGradient x1="-441.842202%" y1="202.799683%" x2="-152.895413%" y2="111.008156%" id="linearGradient-137"><stop stop-color="#58BCE5" stop-opacity="0.2" offset="0%"></stop><stop stop-color="#58BCE5" offset="100%"></stop></linearGradient><linearGradient x1="-441.991743%" y1="202.847465%" x2="-153.046789%" y2="111.055141%" id="linearGradient-138"><stop stop-color="#58BCE5" stop-opacity="0.2" offset="0%"></stop><stop stop-color="#58BCE5" offset="100%"></stop></linearGradient><linearGradient x1="30.1283791%" y1="-27.1603574%" x2="72.0097318%" y2="136.166776%" id="linearGradient-139"><stop stop-color="#F2FEFF" offset="0%"></stop><stop stop-color="#D2ECFA" offset="100%"></stop></linearGradient><linearGradient x1="50%" y1="20.3345962%" x2="50%" y2="114.118664%" id="linearGradient-140"><stop stop-color="#F2FEFF" offset="0%"></stop><stop stop-color="#D2ECFA" offset="100%"></stop></linearGradient><linearGradient x1="48.8879066%" y1="32.2014543%" x2="53.4525438%" y2="109.411453%" id="linearGradient-141"><stop stop-color="#F2FEFF" offset="0%"></stop><stop stop-color="#D2ECFA" offset="100%"></stop></linearGradient><linearGradient x1="34.0331665%" y1="33.7325907%" x2="109.344204%" y2="105.291486%" id="linearGradient-142"><stop stop-color="#F2FEFF" offset="0%"></stop><stop stop-color="#D2ECFA" offset="100%"></stop></linearGradient><linearGradient x1="103.522298%" y1="78.5057393%" x2="145.228121%" y2="100.714612%" id="linearGradient-143"><stop stop-color="#58BCE5" stop-opacity="0.2" offset="0%"></stop><stop stop-color="#58BCE5" offset="100%"></stop></linearGradient><linearGradient x1="103.244085%" y1="76.1948435%" x2="141.655731%" y2="95.1063292%" id="linearGradient-144"><stop stop-color="#58BCE5" stop-opacity="0.2" offset="0%"></stop><stop stop-color="#58BCE5" offset="100%"></stop></linearGradient><linearGradient x1="103.851025%" y1="81.7813497%" x2="149.44915%" y2="108.697013%" id="linearGradient-145"><stop stop-color="#58BCE5" stop-opacity="0.2" offset="0%"></stop><stop stop-color="#58BCE5" offset="100%"></stop></linearGradient><linearGradient x1="102.62419%" y1="72.1626448%" x2="133.695958%" y2="85.2503759%" id="linearGradient-146"><stop stop-color="#58BCE5" stop-opacity="0.2" offset="0%"></stop><stop stop-color="#58BCE5" offset="100%"></stop></linearGradient><linearGradient x1="102.802412%" y1="73.1940039%" x2="135.984418%" y2="87.7755872%" id="linearGradient-147"><stop stop-color="#58BCE5" stop-opacity="0.2" offset="0%"></stop><stop stop-color="#58BCE5" offset="100%"></stop></linearGradient><linearGradient x1="103.007629%" y1="74.5097724%" x2="138.619516%" y2="90.9826907%" id="linearGradient-148"><stop stop-color="#58BCE5" stop-opacity="0.2" offset="0%"></stop><stop stop-color="#58BCE5" offset="100%"></stop></linearGradient><linearGradient x1="50.0436709%" y1="840.666223%" x2="50.0436709%" y2="284.366051%" id="linearGradient-149"><stop stop-color="#58BCE5" stop-opacity="0.2" offset="0%"></stop><stop stop-color="#58BCE5" offset="100%"></stop></linearGradient><linearGradient x1="50.0574956%" y1="843.516888%" x2="50.0574956%" y2="285.032251%" id="linearGradient-150"><stop stop-color="#58BCE5" stop-opacity="0.2" offset="0%"></stop><stop stop-color="#58BCE5" offset="100%"></stop></linearGradient><linearGradient x1="49.7786164%" y1="857.696473%" x2="49.7786164%" y2="288.795633%" id="linearGradient-151"><stop stop-color="#58BCE5" stop-opacity="0.2" offset="0%"></stop><stop stop-color="#58BCE5" offset="100%"></stop></linearGradient><linearGradient x1="49.6454545%" y1="883.502866%" x2="49.6454545%" y2="295.932176%" id="linearGradient-152"><stop stop-color="#58BCE5" stop-opacity="0.2" offset="0%"></stop><stop stop-color="#58BCE5" offset="100%"></stop></linearGradient><linearGradient x1="50.0436709%" y1="840.641611%" x2="50.0436709%" y2="284.341783%" id="linearGradient-153"><stop stop-color="#58BCE5" stop-opacity="0.2" offset="0%"></stop><stop stop-color="#58BCE5" offset="100%"></stop></linearGradient><linearGradient x1="50.0322946%" y1="848.502171%" x2="50.0322946%" y2="286.190533%" id="linearGradient-154"><stop stop-color="#58BCE5" stop-opacity="0.2" offset="0%"></stop><stop stop-color="#58BCE5" offset="100%"></stop></linearGradient><linearGradient x1="49.7786164%" y1="857.578826%" x2="49.7786164%" y2="288.677146%" id="linearGradient-155"><stop stop-color="#58BCE5" stop-opacity="0.2" offset="0%"></stop><stop stop-color="#58BCE5" offset="100%"></stop></linearGradient><linearGradient x1="49.6454545%" y1="883.261486%" x2="49.6454545%" y2="295.685624%" id="linearGradient-156"><stop stop-color="#58BCE5" stop-opacity="0.2" offset="0%"></stop><stop stop-color="#58BCE5" offset="100%"></stop></linearGradient><linearGradient x1="50.0436709%" y1="840.617514%" x2="50.0436709%" y2="284.317686%" id="linearGradient-157"><stop stop-color="#58BCE5" stop-opacity="0.2" offset="0%"></stop><stop stop-color="#58BCE5" offset="100%"></stop></linearGradient><linearGradient x1="50.0252814%" y1="840.476765%" x2="50.0252814%" y2="284.279899%" id="linearGradient-158"><stop stop-color="#58BCE5" stop-opacity="0.2" offset="0%"></stop><stop stop-color="#58BCE5" offset="100%"></stop></linearGradient><linearGradient x1="49.7786164%" y1="857.460339%" x2="49.7786164%" y2="288.559498%" id="linearGradient-159"><stop stop-color="#58BCE5" stop-opacity="0.2" offset="0%"></stop><stop stop-color="#58BCE5" offset="100%"></stop></linearGradient><linearGradient x1="49.6454545%" y1="883.020107%" x2="49.6454545%" y2="295.444245%" id="linearGradient-160"><stop stop-color="#58BCE5" stop-opacity="0.2" offset="0%"></stop><stop stop-color="#58BCE5" offset="100%"></stop></linearGradient><linearGradient x1="50.0436709%" y1="840.765535%" x2="50.0436709%" y2="284.465363%" id="linearGradient-161"><stop stop-color="#58BCE5" stop-opacity="0.2" offset="0%"></stop><stop stop-color="#58BCE5" offset="100%"></stop></linearGradient><linearGradient x1="50.0574956%" y1="843.678061%" x2="50.0574956%" y2="285.194262%" id="linearGradient-162"><stop stop-color="#58BCE5" stop-opacity="0.2" offset="0%"></stop><stop stop-color="#58BCE5" offset="100%"></stop></linearGradient><linearGradient x1="49.7786164%" y1="857.341011%" x2="49.7786164%" y2="288.440171%" id="linearGradient-163"><stop stop-color="#58BCE5" stop-opacity="0.2" offset="0%"></stop><stop stop-color="#58BCE5" offset="100%"></stop></linearGradient><linearGradient x1="49.6454545%" y1="882.777003%" x2="49.6454545%" y2="295.202866%" id="linearGradient-164"><stop stop-color="#58BCE5" stop-opacity="0.2" offset="0%"></stop><stop stop-color="#58BCE5" offset="100%"></stop></linearGradient><linearGradient x1="50.0436709%" y1="840.741438%" x2="50.0436709%" y2="284.441266%" id="linearGradient-165"><stop stop-color="#58BCE5" stop-opacity="0.2" offset="0%"></stop><stop stop-color="#58BCE5" offset="100%"></stop></linearGradient><linearGradient x1="50.0041139%" y1="840.719605%" x2="50.0041139%" y2="284.419778%" id="linearGradient-166"><stop stop-color="#58BCE5" stop-opacity="0.2" offset="0%"></stop><stop stop-color="#58BCE5" offset="100%"></stop></linearGradient><linearGradient x1="49.7786164%" y1="857.223364%" x2="49.7786164%" y2="288.322524%" id="linearGradient-167"><stop stop-color="#58BCE5" stop-opacity="0.2" offset="0%"></stop><stop stop-color="#58BCE5" offset="100%"></stop></linearGradient><linearGradient x1="49.6454545%" y1="882.535624%" x2="49.6454545%" y2="294.961486%" id="linearGradient-168"><stop stop-color="#58BCE5" stop-opacity="0.2" offset="0%"></stop><stop stop-color="#58BCE5" offset="100%"></stop></linearGradient><linearGradient x1="43.2920278%" y1="-160.117471%" x2="56.7615302%" y2="245.853933%" id="linearGradient-169"><stop stop-color="#58BCE5" offset="39.23%"></stop><stop stop-color="#56B6E5" offset="51.98%"></stop><stop stop-color="#52A7E5" offset="68.24%"></stop><stop stop-color="#4B8DE5" offset="86.31%"></stop><stop stop-color="#4474E5" offset="100%"></stop></linearGradient></defs><g id="Hero-IMG" stroke="none" stroke-width="1" fill="none" fill-rule="evenodd"><g id="heroIMG4"><g id="Group" opacity="0.36" transform="translate(755.544218, 206.443149)"><path d="M114.297862,147.809524 L0.188532556,83.0014577 L0.0942662779,4.14771623 C0.0942662779,1.31972789 3.15792031,-0.47133139 5.60884354,0.942662779 L116.465986,63.9125364 C119.906706,65.8449951 122.027697,69.52138 122.027697,73.4805637 L122.07483,143.237609 C122.121963,147.243926 117.785714,149.789116 114.297862,147.809524 Z" id="Path" fill="url(#linearGradient-1)"></path><path d="M122.07483,74.611759 L0.141399417,5.3260447 L0.141399417,4.14771623 C0.141399417,1.31972789 3.20505345,-0.47133139 5.65597668,0.942662779 L118.162779,64.8551992 C120.566569,66.2220603 122.07483,68.8143829 122.07483,71.5952381 L122.07483,74.611759 Z" id="Path" fill="url(#linearGradient-2)" opacity="0.64"></path></g><path d="M546.603013,196.733722 L466.052478,150.873178 L466.052478,97.9897959 C466.052478,94.6433431 469.68173,92.5223518 472.603984,94.1720117 L545.047619,135.413508 C549.666667,138.052964 552.541788,142.95481 552.541788,148.327988 L552.541788,193.293003 C552.588921,196.356657 549.242468,198.241983 546.603013,196.733722 Z" id="Path" fill="url(#linearGradient-3)" opacity="0.76"></path><polygon id="Path" fill="url(#linearGradient-4)" opacity="0.37" points="941.437318 505.172983 854.948008 455.918853 854.948008 395.447036 941.437318 444.701166"></polygon><g id="Group" opacity="0.32" transform="translate(590.578231, 24.509232)"><path d="M81.0218659,119.105442 L5.46744412,76.0728863 C2.35665695,74.281827 0.424198251,70.9825073 0.424198251,67.3532556 L0.424198251,3.81778426 C0.424198251,1.0840622 3.39358601,-0.659863946 5.79737609,0.706997085 L81.2103984,43.6452867 C84.7453839,45.6720117 86.9135083,49.3955296 86.9135083,53.4489796 L86.9135083,115.664723 C86.9135083,118.681244 83.6613217,120.566569 81.0218659,119.105442 Z" id="Path" fill="url(#linearGradient-5)"></path><path d="M75.6011865,62.3158239 C76.5611192,62.8622696 76.8963167,64.0834306 76.349871,65.0433634 C75.8034252,66.0032961 74.5822642,66.3384935 73.6223315,65.7920478 L11.6893869,30.5364599 C10.7294541,29.9900141 10.3942567,28.7688531 10.9407024,27.8089204 C11.4871481,26.8489877 12.7083092,26.5137902 13.6682419,27.0602359 L75.6011865,62.3158239 Z" id="Path" fill="url(#linearGradient-6)" fill-rule="nonzero" opacity="0.3"></path><path d="M75.6011865,77.3984284 C76.5611192,77.9448741 76.8963167,79.1660351 76.349871,80.1259678 C75.8034252,81.0859006 74.5822642,81.421098 73.6223315,80.8746523 L11.6893869,45.6190643 C10.7294541,45.0726186 10.3942567,43.8514576 10.9407024,42.8915249 C11.4871481,41.9315921 12.7083092,41.5963947 13.6682419,42.1428404 L75.6011865,77.3984284 Z" id="Path" fill="url(#linearGradient-6)" fill-rule="nonzero" opacity="0.3"></path><path d="M75.6011865,92.4810328 C76.5611192,93.0274786 76.8963167,94.2486396 76.349871,95.2085723 C75.8034252,96.168505 74.5822642,96.5037025 73.6223315,95.9572568 L11.6893869,60.7016688 C10.7294541,60.1552231 10.3942567,58.9340621 10.9407024,57.9741293 C11.4871481,57.0141966 12.7083092,56.6789992 13.6682419,57.2254449 L75.6011865,92.4810328 Z" id="Path" fill="url(#linearGradient-6)" fill-rule="nonzero" opacity="0.3"></path></g><g id="Group" opacity="0.35" transform="translate(882.803693, 437.866861)"><path d="M78.3824101,117.12585 L7.06997085,76.5442177 C2.92225462,74.1875607 0.377065112,69.8041788 0.377065112,65.0437318 L0.377065112,4.24198251 C0.377065112,1.0840622 3.77065112,-0.89552964 6.50437318,0.659863946 L81.1632653,43.1739553 C84.6982507,45.2006803 86.8663751,48.9241983 86.8663751,53.0247813 L86.8663751,112.176871 C86.9135083,116.560253 82.2001944,119.293975 78.3824101,117.12585 Z" id="Path" fill="url(#linearGradient-7)"></path><polygon id="Path" fill="url(#linearGradient-8)" fill-rule="nonzero" opacity="0.4" points="75.4775081 62.0617565 73.7460099 65.1034524 11.8130653 29.8478645 13.5445635 26.8061686"></polygon><polygon id="Path" fill="url(#linearGradient-8)" fill-rule="nonzero" opacity="0.4" points="75.4775081 77.144361 73.7460099 80.1860569 11.8130653 44.930469 13.5445635 41.888773"></polygon><polygon id="Path" fill="url(#linearGradient-8)" fill-rule="nonzero" opacity="0.4" points="75.4775081 92.2269654 73.7460099 95.2686614 11.8130653 60.0130734 13.5445635 56.9713775"></polygon></g><g id="Group" transform="translate(623.571429, 187.589893)"><path d="M180.661322,295.571914 L0.329931973,192.915938 L0.329931973,4.43051506 C0.329931973,1.03692906 3.95918367,-1.0840622 6.88143829,0.612730807 L181.556851,100.063654 C186.458698,102.844509 189.475219,108.076288 189.475219,113.732264 L189.475219,290.481535 C189.475219,294.959184 184.573372,297.787172 180.661322,295.571914 Z" id="Path" fill="url(#linearGradient-9)"></path><polygon id="Path" fill="url(#linearGradient-10)" opacity="0.1" points="114.674927 83.9912536 75.0830904 61.4616132 75.0830904 53.920311 114.674927 76.4499514"></polygon><g transform="translate(16.967930, 20.738581)" id="Path" opacity="0.1"><polygon fill="url(#linearGradient-11)" points="16.5908649 17.0621963 0.235665695 7.77696793 0.235665695 0.188532556 16.5908649 9.52089407"></polygon><polygon fill="url(#linearGradient-12)" points="155.586492 96.2458698 139.231293 86.9135083 139.231293 79.372206 155.586492 88.6574344"></polygon></g><polygon id="Path" fill="url(#linearGradient-13)" opacity="0.4" points="144.463071 130.605928 45.2949466 74.1404276 45.2949466 66.5991254 144.463071 123.017493"></polygon><g transform="translate(20.267250, 79.183673)" id="Path"><polygon fill="url(#linearGradient-14)" opacity="0.2" points="8.24829932 12.3960155 0.235665695 7.82410107 0.235665695 0.0942662779 8.24829932 4.61904762"></polygon><polygon fill="url(#linearGradient-15)" opacity="0.2" points="31.6734694 25.7346939 23.7079689 21.2099125 23.7079689 13.4329446 31.6734694 17.9577259"></polygon><polygon fill="url(#linearGradient-16)" opacity="0.2" points="55.1457726 39.0733722 47.1802721 34.5485909 47.1802721 26.7716229 55.1457726 31.3435374"></polygon><polygon fill="url(#linearGradient-17)" opacity="0.2" points="78.6180758 52.4591837 70.6054422 47.8872692 70.6054422 40.1103013 78.6180758 44.6822157"></polygon><polygon fill="url(#linearGradient-18)" opacity="0.2" points="102.043246 65.797862 94.0777454 61.2730807 94.0777454 53.4961127 102.043246 58.0208941"></polygon><polygon fill="url(#linearGradient-19)" opacity="0.2" points="125.515549 79.1365403 117.550049 74.611759 117.550049 66.8347911 125.515549 71.3595724"></polygon><polygon fill="url(#linearGradient-20)" opacity="0.2" points="148.987852 92.5223518 140.975219 87.9504373 140.975219 80.1734694 148.987852 84.7453839"></polygon><polygon fill="url(#linearGradient-21)" opacity="0.2" points="8.24829932 36.292517 0.235665695 31.7677357 0.235665695 23.9907677 8.24829932 28.5626822"></polygon><polygon fill="url(#linearGradient-22)" opacity="0.2" points="31.6734694 49.6783285 23.7079689 45.106414 23.7079689 37.3765792 31.6734694 41.9013605"></polygon><polygon fill="url(#linearGradient-23)" opacity="0.2" points="55.1457726 63.0170068 47.1802721 58.4922255 47.1802721 50.7152575 55.1457726 55.2400389"></polygon><polygon fill="url(#linearGradient-24)" opacity="0.2" points="78.6180758 76.3556851 70.6054422 71.8309038 70.6054422 64.0539359 78.6180758 68.6258503"></polygon><polygon fill="url(#linearGradient-25)" opacity="0.2" points="102.043246 89.7414966 94.0777454 85.1695821 94.0777454 77.4397473 102.043246 81.9645287"></polygon><polygon fill="url(#linearGradient-26)" opacity="0.2" points="125.515549 103.080175 117.550049 98.5553936 117.550049 90.7784257 125.515549 95.303207"></polygon><polygon fill="url(#linearGradient-27)" opacity="0.2" points="148.987852 116.418853 140.975219 111.894072 140.975219 104.117104 148.987852 108.689018"></polygon><polygon fill="url(#linearGradient-28)" opacity="0.2" points="8.24829932 60.2361516 0.235665695 55.7113703 0.235665695 47.9344023 8.24829932 52.4591837"></polygon><polygon fill="url(#linearGradient-29)" opacity="0.2" points="31.6734694 73.5748299 23.7079689 69.0500486 23.7079689 61.2730807 31.6734694 65.8449951"></polygon><polygon fill="url(#linearGradient-30)" opacity="0.2" points="55.1457726 86.9606414 47.1802721 82.3887269 47.1802721 74.6588921 55.1457726 79.1836735"></polygon><polygon fill="url(#linearGradient-31)" opacity="0.2" points="78.6180758 100.29932 70.6054422 95.7745384 70.6054422 87.9975705 78.6180758 92.5223518"></polygon><polygon fill="url(#linearGradient-32)" opacity="0.2" points="125.515549 127.02381 117.550049 122.451895 117.550049 114.72206 125.515549 119.246842"></polygon><polygon fill="url(#linearGradient-33)" opacity="0.2" points="148.987852 140.362488 140.975219 135.837707 140.975219 128.060739 148.987852 132.58552"></polygon><polygon fill="url(#linearGradient-34)" opacity="0.2" points="8.24829932 84.1797862 0.235665695 79.6078717 0.235665695 71.8780369 8.24829932 76.4028183"></polygon><polygon fill="url(#linearGradient-35)" opacity="0.2" points="31.6734694 97.5184645 23.7079689 92.9936832 23.7079689 85.2167153 31.6734694 89.7414966"></polygon><polygon fill="url(#linearGradient-36)" opacity="0.2" points="55.1457726 110.857143 47.1802721 106.332362 47.1802721 98.5553936 55.1457726 103.127308"></polygon><polygon fill="url(#linearGradient-37)" opacity="0.2" points="78.6180758 124.242954 70.6054422 119.67104 70.6054422 111.941205 78.6180758 116.465986"></polygon><polygon fill="url(#linearGradient-38)" opacity="0.2" points="102.043246 137.581633 94.0777454 133.056851 94.0777454 125.279883 102.043246 129.804665"></polygon><polygon fill="url(#linearGradient-39)" opacity="0.2" points="125.515549 150.920311 117.550049 146.39553 117.550049 138.618562 125.515549 143.190476"></polygon><polygon fill="url(#linearGradient-40)" opacity="0.2" points="148.987852 164.306122 140.975219 159.734208 140.975219 152.004373 148.987852 156.529155"></polygon><polygon fill="url(#linearGradient-41)" opacity="0.2" points="8.24829932 108.123421 0.235665695 103.551506 0.235665695 95.7745384 8.24829932 100.346453"></polygon><polygon fill="url(#linearGradient-42)" opacity="0.2" points="31.6734694 121.462099 23.7079689 116.937318 23.7079689 109.16035 31.6734694 113.685131"></polygon><polygon fill="url(#linearGradient-43)" opacity="0.2" points="55.1457726 134.800777 47.1802721 130.275996 47.1802721 122.499028 55.1457726 127.02381"></polygon><polygon fill="url(#linearGradient-44)" opacity="0.2" points="78.6180758 148.139456 70.6054422 143.614674 70.6054422 135.837707 78.6180758 140.409621"></polygon><polygon fill="url(#linearGradient-45)" opacity="0.2" points="102.043246 161.525267 94.0777454 156.953353 94.0777454 149.223518 102.043246 153.748299"></polygon><polygon fill="url(#linearGradient-46)" opacity="0.2" points="125.515549 174.863946 117.550049 170.339164 117.550049 162.562196 125.515549 167.086978"></polygon><polygon fill="url(#linearGradient-47)" opacity="0.2" points="148.987852 188.202624 140.975219 183.677843 140.975219 175.900875 148.987852 180.472789"></polygon><path d="M110.81001,115.193392 C110.81001,122.121963 105.201166,124.525753 98.2725948,120.613703 C91.3440233,116.654519 85.7351798,107.887755 85.7351798,100.959184 C85.7351798,94.0306122 91.3440233,91.6268222 98.2725948,95.5388727 C105.201166,99.4980564 110.81001,108.26482 110.81001,115.193392 Z" fill="url(#linearGradient-48)" opacity="0.4"></path><polygon fill="url(#linearGradient-49)" opacity="0.2" points="102.043246 113.637998 94.0777454 109.113217 94.0777454 101.336249 102.043246 105.908163"></polygon></g></g><g id="Group" transform="translate(225.767736, 0.000000)"><path d="M268.140428,187.54276 L5.5617104,38.0364431 C2.16812439,36.1039845 0.0942662779,32.5218659 0.0942662779,28.6098154 L0.0942662779,3.39358601 C0.0942662779,0.989795918 2.68658892,-0.518464529 4.76044704,0.706997085 L260.551992,146.348397 C265.265306,149.034985 268.140428,154.031098 268.140428,159.404276 L268.140428,187.54276 Z" id="Path" fill="url(#linearGradient-50)"></path><polygon id="Path" fill="url(#linearGradient-51)" opacity="0.4" points="110.715743 97.8955296 67.5417881 73.3391642 67.5417881 36.4339164 110.715743 61.037415"></polygon><g opacity="0.3" transform="translate(16.025267, 23.095238)" fill="#1E96E5" id="Path"><polygon points="0.47133139 0.141399417 5.3260447 2.92225462 5.3260447 3.81778426 1.55539359 1.64965986 1.55539359 4.28911565 4.7133139 6.12730807 4.7133139 7.02283771 1.50826045 5.18464529 1.50826045 8.24829932 5.42031098 10.4635569 5.42031098 11.3590865 0.424198251 8.53109815"></polygon><path d="M9.75655977,5.42031098 L10.840622,6.03304179 L13.904276,13.0558795 L14.7998056,15.3182702 L14.8469388,15.3654033 C14.7998056,14.4698737 14.7055394,13.4800777 14.7055394,12.5845481 L14.7055394,8.24829932 L15.7424684,8.81389699 L15.7424684,17.2507289 L14.6584062,16.6379981 L11.5947522,9.61516035 L10.6992225,7.35276968 L10.6520894,7.30563654 C10.6992225,8.20116618 10.7934888,9.14382896 10.7934888,9.99222546 L10.7934888,14.4227405 L9.75655977,13.8571429 L9.75655977,5.42031098 Z"></path><path d="M23.9907677,13.3858115 C25.1219631,14.0456754 25.9232264,14.9883382 26.3945578,15.7896016 L25.781827,16.1195335 C25.3576288,15.4125364 24.8391642,14.7998056 23.9907677,14.3284742 C22.2939747,13.3386783 21.2099125,14.0456754 21.2099125,16.1195335 C21.2099125,18.2405248 22.1997085,20.1258503 23.9907677,21.1627794 C24.6034985,21.4927114 25.1690962,21.6341108 25.4990282,21.5398445 L25.4990282,19.324587 L23.7079689,18.2876579 L23.7079689,17.4392614 L26.4888241,18.994655 L26.4888241,22.5296404 C25.9232264,22.7653061 24.9805637,22.6710398 23.8493683,22.0111759 C21.6341108,20.7385811 20.0787172,18.2405248 20.0787172,15.4596696 C20.0787172,12.8202138 21.7283771,12.0660836 23.9907677,13.3858115 Z"></path></g><path d="M90.0713766,66.6789031 C89.7409766,66.2363489 89.8318955,65.6097456 90.2744497,65.2793455 C90.7170039,64.9489455 91.3436072,65.0398644 91.6740072,65.4824186 L96.8115194,72.3638569 C97.2515686,72.9532806 96.9260868,73.8000862 96.2045403,73.9430341 L91.2084275,74.93283 C90.6666721,75.0401589 90.1404853,74.6879867 90.0331564,74.1462312 C89.9258275,73.6044758 90.2779997,73.078289 90.8197552,72.9709601 L94.2600321,72.2893958 L90.0713766,66.6789031 Z" id="Path" fill="#FFFFFF" fill-rule="nonzero" opacity="0.6"></path><path d="M96.1777842,71.8589764 C96.6568675,72.1337448 96.8224975,72.7448623 96.5477291,73.2239455 C96.2729608,73.7030288 95.6618433,73.8686588 95.18276,73.5938905 L82.3625462,66.2411208 C81.8834629,65.9663524 81.7178329,65.3552349 81.9926013,64.8761516 C82.2673696,64.3970683 82.8784871,64.2314384 83.3575704,64.5062067 L96.1777842,71.8589764 Z" id="Path" fill="#FFFFFF" fill-rule="nonzero" opacity="0.6"></path><path d="M245.965851,156.238467 C246.412734,155.913945 247.038081,156.013138 247.362602,156.46002 C247.687124,156.906903 247.587931,157.53225 247.141049,157.856771 L243.181865,160.731893 C242.690572,161.088666 241.997297,160.928864 241.711753,160.393027 L237.893968,153.22879 C237.634236,152.741391 237.818796,152.135722 238.306195,151.87599 C238.793594,151.616258 239.399263,151.800818 239.658996,152.288217 L242.936407,158.43842 L245.965851,156.238467 Z" id="Path" fill="#FFFFFF" fill-rule="nonzero" opacity="0.8"></path><polygon id="Path" fill="url(#linearGradient-52)" opacity="0.2" points="157.51895 117.879981 121.509232 97.4241983 121.509232 76.4970845 157.51895 97"></polygon><g transform="translate(131.501458, 88.610301)" fill="#FFFFFF"><polygon id="Path" points="0.141399417 0.188532556 4.99611273 2.96938776 4.99611273 3.8649174 1.22546161 1.696793 1.22546161 4.57191448 4.43051506 6.4101069 4.43051506 7.30563654 1.22546161 5.46744412 1.22546161 9.23809524 0.141399417 8.62536443"></polygon><path d="M13.6214772,16.2609329 L11.5947522,11.547619 L10.0864917,10.6992225 L10.0864917,14.2813411 L9.00242954,13.6686103 L9.00242954,5.23177843 L11.6418853,6.74003887 C13.3386783,7.72983479 14.5641399,9.04956268 14.5641399,10.7934888 C14.5641399,12.1132167 13.8100097,12.4431487 12.6788144,12.1132167 L14.8469388,17.0150632 L13.6214772,16.2609329 Z M10.0393586,9.80369291 L11.4533528,10.6049563 C12.7730807,11.3590865 13.4800777,11.2176871 13.4800777,10.1336249 C13.4800777,9.04956268 12.7730807,8.20116618 11.4533528,7.4941691 L10.0393586,6.69290573 L10.0393586,9.80369291 Z" id="Shape" fill-rule="nonzero"></path></g><polygon id="Path" fill="url(#linearGradient-53)" opacity="0.2" points="201.588435 143.001944 165.578717 122.499028 165.578717 101.619048 201.588435 122.07483"></polygon><g transform="translate(175.335277, 113.590865)" fill="#FFFFFF"><path d="M0.377065112,0.282798834 L2.49805637,1.46112731 C5.09037901,2.92225462 6.50437318,5.23177843 6.50437318,7.91836735 C6.50437318,10.6049563 5.13751215,11.3590865 2.59232264,9.94509232 L0.424198251,8.71963071 L0.424198251,0.282798834 L0.377065112,0.282798834 Z M2.40379009,9.00242954 C4.38338192,10.1336249 5.37317784,9.42662779 5.37317784,7.30563654 C5.37317784,5.18464529 4.38338192,3.44071914 2.40379009,2.30952381 L1.46112731,1.79105928 L1.46112731,8.48396501 L2.40379009,9.00242954 Z" id="Shape" fill-rule="nonzero"></path><polygon id="Path" points="10.7934888 6.22157434 15.6482021 9.00242954 15.6482021 9.89795918 11.877551 7.72983479 11.877551 10.3692906 15.0826045 12.207483 15.0826045 13.1030126 11.877551 11.2648202 11.877551 14.3284742 15.7896016 16.5437318 15.7896016 17.4392614 10.7934888 14.6112731 10.7934888 6.22157434"></polygon></g><g transform="translate(110.291545, 97.565598)" id="Path"><path d="M157.848882,222.185617 L5.37317784,135.366375 C2.30952381,133.622449 0.424198251,130.370262 0.424198251,126.88241 L0.424198251,0.329931973 L157.848882,89.9300292 L157.848882,222.185617 Z" fill="url(#linearGradient-54)"></path><polygon fill="url(#linearGradient-55)" opacity="0.2" points="139.844023 155.303693 139.844023 88.7045675 148.846453 93.8420797 148.846453 160.394072"></polygon><polygon fill="url(#linearGradient-56)" opacity="0.1" points="76.8741497 70.8411079 13.904276 35.0199223 13.904276 31.202138 76.8741497 67.0704568"></polygon><polygon fill="url(#linearGradient-57)" opacity="0.1" points="64.2896016 83.4727891 13.904276 54.8158406 13.904276 50.9980564 64.2896016 79.702138"></polygon><polygon fill="url(#linearGradient-58)" opacity="0.1" points="93.9834791 120.189504 13.904276 74.5646259 13.904276 70.7939747 93.9834791 116.37172"></polygon><polygon fill="url(#linearGradient-59)" opacity="0.1" points="74.1875607 128.673469 13.904276 94.3605442 13.904276 90.5898931 74.1875607 124.902818"></polygon><polygon fill="url(#linearGradient-60)" opacity="0.1" points="93.9834791 159.734208 13.904276 114.156463 13.904276 110.385811 93.9834791 155.963557"></polygon></g></g><g id="Group" opacity="0.3" transform="translate(253.104956, 454.363460)" fill="url(#linearGradient-61)"><path d="M284.259961,254.613217 L444.324101,162.185131 C444.6069,162.043732 444.6069,161.760933 444.324101,161.5724 L165.107386,0.329931973 C164.824587,0.188532556 164.353256,0.188532556 164.070457,0.329931973 L2.21525753,93.7949466 C-0.377065112,95.303207 -0.377065112,99.026725 2.21525753,100.487852 L269.08309,254.566084 C273.796404,257.346939 279.59378,257.346939 284.259961,254.613217 Z" id="Path"></path></g><g id="Group" opacity="0.3" transform="translate(372.823129, 514.222546)" stroke="#FFFFFF" stroke-width="0.3171"><path d="M67.7774538,64.4781341 C68.0602527,64.6666667 68.5315841,64.6666667 68.8143829,64.4781341 L109.961613,40.7230321 C110.244412,40.5816327 110.244412,40.2988338 109.961613,40.1103013 L42.5612245,0.235665695 C42.2784257,0.047133139 41.8070943,0.047133139 41.5242954,0.235665695 L0.377065112,23.9907677 C0.0942662779,24.1321672 0.0942662779,24.414966 0.377065112,24.6034985 L67.7774538,64.4781341 Z" id="Path"></path></g><g id="Group" transform="translate(248.862974, 201.729835)"><path d="M283.977162,449.980078 L444.324101,357.410593 C444.6069,357.269193 444.6069,356.986395 444.324101,356.797862 L165.107386,195.602527 C164.824587,195.461127 164.353256,195.461127 164.070457,195.602527 L2.30952381,288.973275 C-0.329931973,290.481535 -0.329931973,294.29932 2.30952381,295.80758 L269.365889,449.980078 C273.890671,452.5724 279.452381,452.5724 283.977162,449.980078 Z" id="Path" fill="url(#linearGradient-62)"></path><g opacity="0.79" transform="translate(106.992225, 219.640428)" fill="url(#linearGradient-63)" id="Path"><path d="M226.993197,170.527697 C227.275996,170.669096 227.747328,170.669096 228.030126,170.527697 L295.289116,131.68999 C295.571914,131.548591 295.571914,131.265792 295.289116,131.077259 L68.5787172,0.188532556 C68.2959184,0.047133139 67.824587,0.047133139 67.5417881,0.188532556 L0.282798834,39.0262391 C-5.35960165e-14,39.1676385 -5.35960165e-14,39.4504373 0.282798834,39.6389699 L226.993197,170.527697 Z"></path></g><g opacity="0.5" transform="translate(119.718173, 311.078717)" fill="url(#linearGradient-64)" id="Path"><path d="M67.7774538,64.4781341 C68.0602527,64.6666667 68.5315841,64.6666667 68.8143829,64.4781341 L109.961613,40.7230321 C110.244412,40.5816327 110.244412,40.2988338 109.961613,40.1103013 L42.5612245,0.235665695 C42.2784257,0.047133139 41.8070943,0.047133139 41.5242954,0.235665695 L0.377065112,23.9907677 C0.0942662779,24.1321672 0.0942662779,24.414966 0.377065112,24.6034985 L67.7774538,64.4781341 Z"></path></g><g transform="translate(165.437318, 0.000000)"><path d="M137.958698,219.97036 L219.404762,266.113703" id="Path" stroke="#FFFFFF" stroke-width="0.6342"></path><path d="M137.958698,236.278426 L219.404762,282.421769" id="Path" stroke="#FFFFFF" stroke-width="0.6342"></path><g id="Path"><polygon fill="url(#linearGradient-65)" points="279.358115 356.326531 0.0942662779 195.461127 0.0942662779 0.329931973 279.358115 161.195335"></polygon><path d="M279.358115,193.057337 L0.0942662779,32.1919339 L0.0942662779,5.37317784 C0.0942662779,3.11078717 2.5451895,1.696793 4.4776482,2.82798834 L274.833333,158.603013 C277.614189,160.205539 279.310982,163.127794 279.310982,166.332847 L279.358115,193.057337 Z" fill="url(#linearGradient-66)"></path><polygon fill="url(#linearGradient-67)" opacity="0.4" points="94.3605442 111.517007 17.3921283 67.2118562 17.3921283 58.3979592 94.3605442 102.750243"></polygon><polygon fill="url(#linearGradient-68)" opacity="0.1" points="50.6681244 96.5286686 17.6749271 77.5340136 17.6749271 75.1773567 50.6681244 94.2191448"></polygon><polygon fill="url(#linearGradient-69)" opacity="0.1" points="50.6681244 105.295432 17.6749271 86.3007775 17.6749271 83.9912536 50.6681244 102.985909"></polygon><polygon fill="url(#linearGradient-70)" opacity="0.1" points="50.6681244 114.109329 17.6749271 95.1146744 17.6749271 92.8051506 50.6681244 111.799806"></polygon><polygon fill="url(#linearGradient-71)" opacity="0.1" points="137.5345 146.536929 104.541302 127.542274 104.541302 125.23275 137.5345 144.227405"></polygon><polygon fill="url(#linearGradient-72)" opacity="0.1" points="137.5345 155.350826 104.541302 136.356171 104.541302 134.046647 137.5345 153.041302"></polygon><polygon fill="url(#linearGradient-73)" opacity="0.1" points="137.5345 164.164723 104.541302 145.122935 104.541302 142.813411 137.5345 161.808066"></polygon><polygon fill="url(#linearGradient-74)" opacity="0.1" points="137.5345 173.497085 104.541302 154.50243 104.541302 152.145773 137.5345 171.187561"></polygon><polygon fill="url(#linearGradient-75)" opacity="0.1" points="137.5345 182.263848 104.541302 163.269193 104.541302 160.95967 137.5345 179.954325"></polygon><polygon fill="url(#linearGradient-76)" opacity="0.1" points="137.5345 191.077745 104.541302 172.08309 104.541302 169.773567 137.5345 188.768222"></polygon><polygon fill="url(#linearGradient-77)" opacity="0.1" points="137.5345 200.410107 104.541302 181.415452 104.541302 179.105928 137.5345 198.100583"></polygon><polygon fill="url(#linearGradient-78)" opacity="0.1" points="137.5345 209.224004 104.541302 190.229349 104.541302 187.919825 137.5345 206.91448"></polygon><polygon fill="url(#linearGradient-79)" opacity="0.1" points="50.6681244 142.153547 17.6749271 123.158892 17.6749271 120.802235 50.6681244 139.844023"></polygon><polygon fill="url(#linearGradient-80)" opacity="0.1" points="50.6681244 150.920311 17.6749271 131.925656 17.6749271 129.616132 50.6681244 148.610787"></polygon><polygon fill="url(#linearGradient-81)" opacity="0.1" points="50.6681244 159.734208 17.6749271 140.739553 17.6749271 138.430029 50.6681244 157.424684"></polygon><polygon fill="url(#linearGradient-82)" opacity="0.1" points="223.835277 196.262391 190.84208 177.267736 190.84208 174.958212 223.835277 193.952867"></polygon><polygon fill="url(#linearGradient-83)" opacity="0.1" points="223.835277 205.076288 190.84208 186.081633 190.84208 183.724976 223.835277 202.766764"></polygon><polygon fill="url(#linearGradient-84)" opacity="0.1" points="223.835277 213.843052 190.84208 194.848397 190.84208 192.538873 223.835277 211.533528"></polygon><polygon fill="url(#linearGradient-85)" opacity="0.1" points="223.835277 241.887269 190.84208 222.892614 190.84208 220.58309 223.835277 239.577745"></polygon><polygon fill="url(#linearGradient-86)" opacity="0.1" points="223.835277 250.701166 190.84208 231.706511 190.84208 229.349854 223.835277 248.391642"></polygon><polygon fill="url(#linearGradient-87)" opacity="0.1" points="223.835277 259.46793 190.84208 240.473275 190.84208 238.163751 223.835277 257.158406"></polygon><polygon fill="url(#linearGradient-88)" opacity="0.1" points="50.6681244 186.64723 17.6749271 167.652575 17.6749271 165.343052 50.6681244 184.337707"></polygon><polygon fill="url(#linearGradient-89)" opacity="0.1" points="50.6681244 195.461127 17.6749271 176.466472 17.6749271 174.156948 50.6681244 193.151603"></polygon><polygon fill="url(#linearGradient-90)" opacity="0.1" points="50.6681244 204.275024 17.6749271 185.233236 17.6749271 182.923712 50.6681244 201.918367"></polygon><polygon fill="url(#linearGradient-91)" opacity="0.1" points="138.618562 237.315355 105.625364 218.3207 105.625364 216.011176 138.618562 235.005831"></polygon><polygon fill="url(#linearGradient-92)" opacity="0.1" points="138.618562 246.129252 105.625364 227.134597 105.625364 224.825073 138.618562 243.819728"></polygon><polygon fill="url(#linearGradient-93)" opacity="0.1" points="138.618562 254.943149 105.625364 235.901361 105.625364 233.591837 138.618562 252.586492"></polygon><polygon fill="url(#linearGradient-94)" opacity="0.1" points="223.835277 286.428086 190.84208 267.433431 190.84208 265.076774 223.835277 284.118562"></polygon><polygon fill="url(#linearGradient-95)" opacity="0.1" points="223.835277 295.194849 190.84208 276.200194 190.84208 273.890671 223.835277 292.885326"></polygon><polygon fill="url(#linearGradient-96)" opacity="0.1" points="223.835277 304.008746 190.84208 285.014091 190.84208 282.704568 223.835277 301.699223"></polygon><polygon fill="url(#linearGradient-97)" opacity="0.4" points="180.944121 161.666667 103.975705 117.361516 103.975705 108.547619 180.944121 152.899903"></polygon><polygon fill="url(#linearGradient-98)" opacity="0.4" points="267.527697 211.816327 190.559281 167.511176 190.559281 158.697279 267.527697 203.049563"></polygon><polygon fill="url(#linearGradient-99)" opacity="0.4" points="94.3605442 156.576288 17.3921283 112.271137 17.3921283 103.45724 94.3605442 147.809524"></polygon><polygon fill="url(#linearGradient-100)" opacity="0.4" points="267.527697 256.922741 190.559281 212.570457 190.559281 203.75656 267.527697 248.108844"></polygon><polygon fill="url(#linearGradient-101)" opacity="0.4" points="94.3605442 201.682702 17.3921283 157.330418 17.3921283 148.563654 94.3605442 192.868805"></polygon><polygon fill="url(#linearGradient-102)" opacity="0.4" points="180.944121 251.832362 103.975705 207.480078 103.975705 198.713314 180.944121 243.018465"></polygon><polygon fill="url(#linearGradient-103)" opacity="0.4" points="267.527697 301.982021 190.559281 257.629738 190.559281 248.862974 267.527697 293.168124"></polygon></g><g transform="translate(10.840622, 18.853256)" fill="#FFFFFF"><g transform="translate(21.209913, 11.311953)"><path d="M3.34645287,2.02672498 L0.47133139,0.377065112 C0.377065112,0.329931973 0.329931973,0.377065112 0.329931973,0.47133139 L0.329931973,10.6520894 C0.329931973,10.7463557 0.377065112,10.840622 0.47133139,10.9348882 L0.989795918,11.2648202 C1.0840622,11.3119534 1.17832847,11.2648202 1.17832847,11.1705539 L1.17832847,7.06997085 L3.34645287,8.29543246 C4.57191448,9.00242954 5.5617104,9.28522838 6.22157434,9.14382896 C6.92857143,9.00242954 7.2585034,8.38969874 7.2585034,7.30563654 C7.2585034,5.23177843 6.03304179,3.53498542 3.34645287,2.02672498 Z M6.36297376,6.83430515 C6.36297376,8.53109815 5.37317784,8.71963071 3.15792031,7.44703596 L1.17832847,6.31584062 L1.17832847,1.50826045 L3.15792031,2.63945578 C4.33624879,3.29931973 5.09037901,3.91205053 5.60884354,4.52478134 C6.12730807,5.23177843 6.36297376,5.93877551 6.36297376,6.83430515 Z" id="Shape" fill-rule="nonzero"></path><path d="M10.6992225,16.3080661 C10.6992225,16.2137998 10.6049563,16.1195335 10.5578231,16.0724004 C10.5578231,16.0724004 10.5578231,16.0724004 10.51069,16.0724004 C10.4164237,16.0252672 10.3692906,16.0252672 10.3221574,15.9781341 C10.1336249,15.8838678 10.0393586,15.6482021 10.0393586,15.3654033 L10.0393586,6.03304179 C10.0393586,5.93877551 9.99222546,5.84450923 9.89795918,5.79737609 L9.37949466,5.51457726 C9.28522838,5.46744412 9.23809524,5.51457726 9.23809524,5.60884354 L9.23809524,14.8469388 C9.23809524,15.6953353 9.56802721,16.3551992 10.2750243,16.7322643 C10.4635569,16.8265306 10.5578231,16.8736638 10.6992225,16.9207969 C10.7934888,16.96793 10.840622,16.8736638 10.7934888,16.7793975 L10.6992225,16.3080661 Z" id="Path"></path><path d="M18.3347911,13.1501458 L17.8163265,12.8673469 C17.7220603,12.8202138 17.627794,12.8202138 17.627794,12.9144801 L17.627794,18.6175899 C16.6379981,19.2303207 15.9781341,19.2774538 15.1297376,18.7589893 C14.5170068,18.3819242 14.0928086,17.9577259 13.8100097,17.3921283 C13.5272109,16.8265306 13.3858115,16.1666667 13.3858115,15.3182702 L13.3858115,10.4635569 C13.3858115,10.3692906 13.3386783,10.2750243 13.2444121,10.2278912 L12.7259475,9.94509232 C12.6316812,9.89795918 12.5845481,9.94509232 12.5845481,9.99222546 L12.5845481,14.9412051 C12.5845481,15.9781341 12.7730807,16.8736638 13.1501458,17.5806608 C13.574344,18.3347911 14.1399417,18.9475219 14.9883382,19.4188533 C15.931001,19.9844509 16.7793975,19.9844509 17.6749271,19.4659864 L17.7220603,20.6443149 C17.7220603,20.7385811 17.8163265,20.8328474 17.8634597,20.8799806 L18.2405248,21.1156463 C18.3347911,21.1627794 18.4290573,21.1627794 18.4290573,21.0685131 L18.4290573,13.3858115 C18.5233236,13.3386783 18.4290573,13.1972789 18.3347911,13.1501458 Z" id="Path"></path><path d="M24.1793003,16.3551992 C23.048105,15.6953353 22.1997085,15.8838678 21.4455782,16.1666667 L21.3984451,15.0826045 C21.3984451,14.9883382 21.3041788,14.8940719 21.2570457,14.8469388 L20.8328474,14.6112731 C20.7385811,14.5641399 20.6443149,14.5641399 20.6443149,14.6584062 L20.6443149,22.3411079 C20.6443149,22.4353741 20.7385811,22.5767736 20.8328474,22.6239067 L21.351312,22.9067055 C21.4455782,22.9538387 21.5398445,22.9067055 21.5398445,22.8124393 L21.5398445,16.96793 C22.5296404,16.5437318 23.1423712,16.4494655 24.085034,16.96793 C24.6977648,17.3449951 25.1690962,17.7691934 25.451895,18.3347911 C25.7346939,18.9003887 25.8760933,19.5602527 25.8760933,20.4086492 L25.8760933,25.2633625 C25.8760933,25.3576288 25.9232264,25.451895 26.0174927,25.4990282 L26.5359572,25.781827 C26.6302235,25.8289602 26.6773567,25.781827 26.6773567,25.6875607 L26.6773567,20.7385811 C26.6773567,19.7016521 26.4888241,18.8061224 26.0646259,18.0991254 C25.6404276,17.4392614 25.0276968,16.8265306 24.1793003,16.3551992 Z" id="Path"></path><path d="M31.9562682,20.8328474 C31.0607386,20.3143829 30.1652089,20.2201166 29.5524781,20.5500486 C28.845481,20.9271137 28.4684159,21.7755102 28.4684159,23.0009718 C28.4684159,24.2735666 28.845481,25.5461613 29.5524781,26.6773567 C30.2123421,27.7614189 31.1550049,28.7040816 32.1919339,29.3168124 C33.3231293,29.9766764 33.9829932,29.9766764 34.595724,29.9766764 C34.6899903,29.9766764 34.6899903,29.8824101 34.6428571,29.7881438 L34.4543246,29.3168124 C34.4071914,29.2696793 34.3600583,29.175413 34.3129252,29.1282799 C34.265792,29.1282799 34.265792,29.0811467 34.2186589,29.0811467 C33.6059281,29.1282799 32.9460641,28.9868805 32.2390671,28.5626822 C31.3906706,28.0913508 30.6836735,27.3372206 30.1180758,26.3945578 C29.5996113,25.4990282 29.3168124,24.5092323 29.3168124,23.5665695 L34.8785228,26.7716229 C34.9727891,26.8187561 35.0199223,26.8187561 35.0199223,26.7244898 C35.0199223,26.5830904 35.0199223,26.3945578 35.0199223,26.2531584 C35.0670554,23.9907677 33.8887269,21.9169096 31.9562682,20.8328474 Z M34.265792,25.8289602 L29.3168124,23.0009718 C29.4110787,22.1997085 29.6938776,21.5869776 30.2123421,21.351312 C30.6836735,21.1156463 31.2964043,21.2099125 31.9562682,21.5869776 C33.4173955,22.388241 34.265792,23.9436346 34.265792,25.8289602 Z" id="Shape" fill-rule="nonzero"></path><path d="M40.5816327,33.7473275 L40.4402332,33.2759961 C40.4402332,33.1817298 40.345967,33.1345967 40.2988338,33.0874636 C40.2988338,33.0874636 40.2517007,33.0874636 40.2517007,33.0403304 C39.9689018,32.9931973 39.6389699,32.8517979 39.4033042,32.7575316 C38.9319728,32.4747328 38.6020408,32.1448008 38.3663751,31.7206025 C38.1778426,31.3906706 38.1307094,30.9664723 38.1307094,30.4008746 L38.1307094,25.1219631 L40.2517007,26.3474247 C40.345967,26.3945578 40.3931001,26.3945578 40.3931001,26.3002915 L40.3931001,25.8760933 C40.3931001,25.781827 40.345967,25.6875607 40.2517007,25.6404276 L38.1307094,24.414966 L38.1307094,22.1997085 C38.1307094,22.1054422 38.0364431,21.9640428 37.9421769,21.9169096 L37.5179786,21.6812439 C37.4237123,21.6341108 37.3765792,21.6812439 37.3765792,21.7283771 L37.2823129,23.8493683 L36.1982507,23.2837707 C36.1039845,23.2366375 36.0568513,23.2837707 36.0568513,23.3780369 L36.0568513,23.7079689 C36.0568513,23.8022352 36.1039845,23.8965015 36.1982507,23.9436346 L37.2823129,24.5563654 L37.2823129,29.7881438 C37.2823129,30.5894072 37.4237123,31.2492711 37.7065112,31.7677357 C38.0364431,32.4275996 38.5549077,32.9460641 39.3090379,33.3702624 C39.5918367,33.5116618 40.016035,33.7001944 40.4873664,33.7944606 C40.5816327,33.8887269 40.6287658,33.8415938 40.5816327,33.7473275 Z" id="Path"></path></g><g><path d="M9.1909621,4.28911565 C8.48396501,2.82798834 7.30563654,1.41399417 5.89164237,0.612730807 C3.72351798,-0.612730807 1.97959184,0.0942662779 1.97959184,2.26239067 C1.97959184,4.33624879 3.6292517,7.02283771 5.70310982,8.29543246 C5.70310982,8.15403304 5.70310982,8.01263362 5.70310982,7.87123421 C5.70310982,5.42031098 7.16423712,4.14771623 9.1909621,4.28911565 M18.1933916,15.0826045 C18.1933916,11.6418853 15.4125364,7.21137026 11.9246842,5.23177843 C10.9348882,4.66618076 9.99222546,4.33624879 9.14382896,4.28911565 C9.52089407,5.13751215 9.75655977,5.98590865 9.75655977,6.74003887 C9.75655977,8.90816327 8.01263362,9.66229349 5.84450923,8.38969874 C5.79737609,8.3425656 5.70310982,8.29543246 5.65597668,8.29543246 C5.84450923,11.6890185 8.57823129,15.8367347 11.877551,17.7220603 C15.4125364,19.7487852 18.1933916,18.5233236 18.1933916,15.0826045" id="Shape" fill-rule="nonzero"></path><path d="M4.57191448,11.3119534 C4.57191448,12.4902818 3.58211856,12.9144801 2.40379009,12.207483 C1.22546161,11.5004859 0.235665695,9.99222546 0.235665695,8.81389699 C0.235665695,7.63556851 1.22546161,7.21137026 2.40379009,7.91836735 C3.58211856,8.62536443 4.57191448,10.1336249 4.57191448,11.3119534" id="Path"></path></g></g></g></g><g id="Group" transform="translate(625.456754, 519.878523)"><path d="M201.447036,168.123907 L7.63556851,285.673955 C4.38338192,287.653547 0.235665695,285.29689 0.235665695,281.479106 L0.235665695,131.124393 C0.235665695,125.98688 2.92225462,121.226433 7.30563654,118.539845 L201.117104,0.989795918 C204.369291,-0.989795918 208.517007,1.36686103 208.517007,5.18464529 L208.517007,155.539359 C208.517007,160.676871 205.830418,165.484451 201.447036,168.123907 Z" id="Path" fill="url(#linearGradient-104)" opacity="0.552408854"></path><g transform="translate(16.967930, 33.464529)" id="Path"><g transform="translate(40.534500, 0.000000)"><polygon fill="url(#linearGradient-105)" opacity="0.29" points="31.2964043 64.8551992 0.188532556 83.7084548 2.07385811 79.5136054 33.1817298 60.6603499"></polygon><polygon fill="url(#linearGradient-106)" opacity="0.29" points="59.1049563 47.9815355 48.7356657 54.250243 50.6209913 50.0553936 60.9902818 43.7866861"></polygon><polygon fill="url(#linearGradient-107)" opacity="0.22" points="131.218659 4.24198251 109.537415 17.3921283 109.537415 13.1972789 131.218659 0.047133139"></polygon></g><polygon fill="url(#linearGradient-108)" opacity="0.1" points="28.4684159 90.0242954 11.5004859 100.346453 11.5004859 98.3197279 28.4684159 88.0447036"></polygon><polygon fill="url(#linearGradient-109)" opacity="0.4" points="3.48785228 105.201166 0.188532556 107.180758 0.188532556 105.201166 3.48785228 103.221574"></polygon></g><g transform="translate(28.279883, 68.343052)" id="Path"><g transform="translate(92.380952, 0.000000)" opacity="0.09"><polygon fill="url(#linearGradient-110)" points="18.0991254 19.1360544 0.188532556 29.9766764 0.188532556 25.781827 18.0991254 14.9412051"></polygon><polygon fill="url(#linearGradient-111)" points="42.6083576 4.24198251 36.0097182 8.24829932 36.0097182 4.05344995 42.6083576 0.047133139"></polygon></g><polygon fill="url(#linearGradient-112)" opacity="0.1" points="17.1564626 74.611759 0.188532556 84.9339164 0.188532556 82.9071914 17.1564626 72.6321672"></polygon></g><g transform="translate(16.967930, 72.113703)" id="Path"><g transform="translate(49.961127, 0.000000)"><polygon fill="url(#linearGradient-113)" opacity="0.29" points="21.8697765 65.1379981 0.188532556 78.2881438 2.07385811 74.0932945 23.755102 60.9431487"></polygon><polygon fill="url(#linearGradient-114)" opacity="0.29" points="60.9902818 41.382896 39.3090379 54.5330418 39.3090379 50.3381924 60.9902818 37.1880466"></polygon><polygon fill="url(#linearGradient-115)" opacity="0.25" points="121.792031 4.52478134 100.110787 17.6749271 100.110787 13.4800777 121.792031 0.329931973"></polygon></g><polygon fill="url(#linearGradient-116)" opacity="0.4" points="3.48785228 105.483965 0.188532556 107.463557 0.188532556 105.483965 3.48785228 103.504373"></polygon><polygon fill="url(#linearGradient-117)" opacity="0.1" points="28.4684159 90.3070943 11.5004859 100.629252 11.5004859 98.6025267 28.4684159 88.3275024"></polygon></g><g transform="translate(16.967930, 91.909621)" id="Path"><g transform="translate(62.687075, 0.000000)"><polygon fill="url(#linearGradient-118)" opacity="0.09" points="9.14382896 64.8080661 0.188532556 70.2283771 0.188532556 66.0335277 9.14382896 60.6132167"></polygon><polygon fill="url(#linearGradient-119)" opacity="0.09" points="59.1049563 34.5014577 27.0544218 53.920311 27.0544218 49.7254616 59.1049563 30.3066084"></polygon><polygon fill="url(#linearGradient-120)" opacity="0.29" points="109.066084 4.19484937 77.0155491 23.6137026 77.0155491 19.4188533 109.066084 0"></polygon></g><polygon fill="url(#linearGradient-121)" opacity="0.4" points="3.48785228 105.154033 0.188532556 107.133625 0.188532556 105.154033 3.48785228 103.127308"></polygon><polygon fill="url(#linearGradient-122)" opacity="0.1" points="28.4684159 89.9771623 11.5004859 100.29932 11.5004859 98.2725948 28.4684159 87.9975705"></polygon></g><g transform="translate(28.279883, 184.761905)" id="Path"><polygon fill="url(#linearGradient-123)" opacity="0.14" points="38.8377065 4.57191448 29.4110787 10.2750243 29.4110787 6.08017493 38.8377065 0.377065112"></polygon><polygon fill="url(#linearGradient-124)" opacity="0.1" points="17.1564626 16.5908649 0.188532556 26.9130224 0.188532556 24.8862974 17.1564626 14.6112731"></polygon></g><g transform="translate(16.967930, 167.793975)" id="Path"><g transform="translate(49.961127, 0.000000)" opacity="0.29"><polygon fill="url(#linearGradient-125)" points="21.8697765 27.808552 0.188532556 41.0058309 0.188532556 36.8109815 21.8697765 23.6608358"></polygon><polygon fill="url(#linearGradient-126)" points="60.5189504 4.38338192 38.8377065 17.5335277 38.8377065 13.3386783 60.5189504 0.188532556"></polygon></g><polygon fill="url(#linearGradient-127)" opacity="0.4" points="3.48785228 68.2016521 0.188532556 70.1812439 0.188532556 68.2016521 3.48785228 66.1749271"></polygon><polygon fill="url(#linearGradient-128)" opacity="0.1" points="28.4684159 53.0247813 11.5004859 63.2998056 11.5004859 61.3202138 28.4684159 51.0451895"></polygon></g><g transform="translate(28.279883, 149.883382)" id="Path"><g transform="translate(102.278912, 0.000000)" opacity="0.09"><polygon fill="url(#linearGradient-129)" points="8.20116618 34.8785228 0.188532556 39.7803693 0.188532556 35.5855199 8.20116618 30.7308066"></polygon><polygon fill="url(#linearGradient-130)" points="58.1622935 4.61904762 26.111759 24.0379009 26.111759 19.8430515 58.1622935 0.424198251"></polygon></g><polygon fill="url(#linearGradient-131)" opacity="0.1" points="17.1564626 90.4013605 0.188532556 100.676385 0.188532556 98.696793 17.1564626 88.4217687"></polygon></g></g><g id="Group" opacity="0.35" transform="translate(4.713314, 474.159378)"><g fill="url(#linearGradient-132)" id="Path"><path d="M139.514091,129.521866 C139.79689,129.663265 140.268222,129.663265 140.55102,129.521866 L221.47862,82.8129252 C222.98688,81.9645287 222.98688,79.7964043 221.47862,78.9008746 L86.3479106,0.848396501 C84.6039845,-0.141399417 82.4829932,-0.141399417 80.7390671,0.848396501 L1.13119534,46.803207 C0.0942662779,47.4159378 0.0942662779,48.9241983 1.13119534,49.5369291 L139.514091,129.521866 Z"></path></g><g opacity="0.64" transform="translate(73.527697, 0.000000)" fill="url(#linearGradient-133)" id="Path"><path d="M0.612730807,4.66618076 C0.329931973,4.80758017 0.329931973,5.09037901 0.612730807,5.27891156 L140.928086,86.2536443 C141.210884,86.3950437 141.682216,86.3950437 141.965015,86.2536443 L147.90379,82.8129252 C149.412051,81.9645287 149.412051,79.7964043 147.90379,78.9008746 L12.7730807,0.848396501 C11.0291545,-0.141399417 8.90816327,-0.141399417 7.16423712,0.848396501 L0.612730807,4.66618076 Z"></path></g></g><g id="Group" transform="translate(258.760933, 608.017493)"><g><path d="M61.6030126,73.7633625 L5.18464529,41.1943635 C2.21525753,39.4504373 0.377065112,36.292517 0.377065112,32.8517979 L0.377065112,3.39358601 C0.377065112,1.13119534 2.82798834,-0.235665695 4.76044704,0.848396501 L61.1788144,33.4173955 C64.1482021,35.1613217 65.9863946,38.319242 65.9863946,41.7599611 L65.9863946,71.218173 C65.9863946,73.4805637 63.5354713,74.8945578 61.6030126,73.7633625 Z" id="Path" fill="url(#linearGradient-134)" opacity="0.2"></path><g transform="translate(9.897959, 17.439261)" fill="#FFFFFF"><polygon id="Path" points="4.43051506 4.10058309 0.141399417 1.60252672 0.141399417 0.282798834 10.5578231 6.26870748 10.5578231 7.58843537 6.26870748 5.09037901 6.26870748 16.0724004 4.4776482 15.0354713 4.4776482 4.10058309"></polygon><path d="M25.0748299,27.0072886 L21.6812439,19.8430515 L19.1360544,18.3819242 L19.1360544,23.5665695 L17.297862,22.5296404 L17.297862,10.2278912 L21.7283771,12.8202138 C24.6034985,14.4698737 26.6773567,16.5908649 26.6773567,19.1360544 C26.6773567,21.0685131 25.4047619,21.4927114 23.5194363,20.7857143 L27.148688,28.2327502 L25.0748299,27.0072886 Z M19.0889213,17.1093294 L21.4455782,18.4761905 C23.6608358,19.7487852 24.8391642,19.654519 24.8391642,18.0519922 C24.8391642,16.4494655 23.6137026,15.1768707 21.4455782,13.904276 L19.0889213,12.537415 L19.0889213,17.1093294 Z" id="Shape" fill-rule="nonzero"></path><path d="M40.2988338,32.0976676 L35.1141885,29.1282799 L33.7473275,32.0976676 L31.9091351,31.0136054 L36.7167153,21.4455782 L38.7434402,22.6239067 L43.5510204,37.7065112 L41.6656948,36.622449 L40.2988338,32.0976676 Z M39.8746356,30.5422741 L39.2147716,28.2798834 C38.6963071,26.6302235 38.2721088,25.0276968 37.8007775,23.3309038 L37.7065112,23.2837707 C37.2351798,24.4620991 36.8109815,25.5461613 36.292517,26.6302235 L35.5855199,28.0913508 L39.8746356,30.5422741 Z" id="Shape" fill-rule="nonzero"></path></g></g><g transform="translate(91.909621, 53.260447)"><path d="M61.4144801,73.4805637 L4.99611273,40.9115646 C2.02672498,39.1676385 0.188532556,36.0097182 0.188532556,32.568999 L0.188532556,3.11078717 C0.188532556,0.848396501 2.63945578,-0.518464529 4.57191448,0.565597668 L60.9902818,33.1345967 C63.9596696,34.8785228 65.797862,38.0364431 65.797862,41.4771623 L65.797862,70.9353741 C65.797862,73.1977648 63.3940719,74.5646259 61.4144801,73.4805637 Z" id="Path" fill="url(#linearGradient-135)" opacity="0.2"></path><g transform="translate(11.783285, 18.381924)" fill="#FFFFFF"><polygon id="Path" points="0.047133139 0.235665695 8.20116618 4.94897959 8.20116618 6.26870748 1.83819242 2.59232264 1.83819242 6.45724004 7.21137026 9.56802721 7.21137026 10.8877551 1.83819242 7.77696793 1.83819242 12.2546161 8.38969874 16.0252672 8.38969874 17.3449951 0 12.4902818"></polygon><path d="M15.6482021,9.23809524 L19.1831876,11.2648202 C23.5665695,13.7628766 25.8760933,17.3449951 25.8760933,21.2570457 C25.8760933,25.1690962 23.5194363,26.111759 19.2774538,23.6608358 L15.6482021,21.5869776 L15.6482021,9.23809524 Z M19.0889213,22.2468416 C22.4353741,24.1793003 24.0379009,23.2837707 24.0379009,20.1729835 C24.0379009,17.0621963 22.388241,14.3756074 19.0889213,12.4902818 L17.4863946,11.547619 L17.4863946,21.3041788 L19.0889213,22.2468416 Z" id="Shape" fill-rule="nonzero"></path><polygon id="Path" points="35.7269193 22.1525753 31.4378037 19.654519 31.4378037 18.3347911 41.8542274 24.3206997 41.8542274 25.6404276 37.5651118 23.1423712 37.5651118 34.1243926 35.7740525 33.0874636 35.7740525 22.1525753"></polygon></g></g><g transform="translate(183.347911, 106.049563)"><path d="M61.3673469,73.4334305 L4.94897959,40.8644315 C1.97959184,39.1205053 0.141399417,35.962585 0.141399417,32.5218659 L0.141399417,3.06365403 C0.141399417,0.801263362 2.59232264,-0.565597668 4.52478134,0.518464529 L60.9431487,33.0874636 C63.9125364,34.8313897 65.7507289,37.98931 65.7507289,41.4300292 L65.7507289,70.888241 C65.7035957,73.1506317 63.2998056,74.5174927 61.3673469,73.4334305 Z" id="Path" fill="url(#linearGradient-136)" opacity="0.2"></path><g transform="translate(12.725948, 18.853256)" fill="#FFFFFF"><path d="M0.235665695,0.377065112 L4.61904762,2.87512148 C7.72983479,4.66618076 9.85082604,6.83430515 9.85082604,9.52089407 C9.85082604,12.1132167 7.72983479,12.1132167 4.61904762,10.3221574 L2.07385811,8.86103013 L2.07385811,13.7628766 L0.235665695,12.7259475 L0.235665695,0.377065112 Z M4.33624879,8.9552964 C6.83430515,10.3692906 8.01263362,10.2750243 8.01263362,8.53109815 C8.01263362,6.74003887 6.78717201,5.46744412 4.33624879,4.05344995 L2.02672498,2.73372206 L2.02672498,7.63556851 L4.33624879,8.9552964 Z" id="Shape" fill-rule="nonzero"></path><path d="M24.6506317,26.8187561 L21.2570457,19.654519 L18.7118562,18.1933916 L18.7118562,23.3780369 L16.8736638,22.3411079 L16.8736638,10.0393586 L21.3041788,12.6316812 C24.1793003,14.2813411 26.2531584,16.4023324 26.2531584,18.9475219 C26.2531584,20.8799806 24.9805637,21.3041788 23.0952381,20.5971817 L26.7244898,28.0442177 L24.6506317,26.8187561 Z M18.7118562,16.9207969 L21.0685131,18.2876579 C23.2837707,19.5602527 24.4620991,19.4659864 24.4620991,17.8634597 C24.4620991,16.2609329 23.2366375,14.9883382 21.0685131,13.7157434 L18.7118562,12.3488824 L18.7118562,16.9207969 Z" id="Shape" fill-rule="nonzero"></path><polygon id="Path" points="33.6530612 19.7016521 41.8542274 24.414966 41.8542274 25.7346939 35.4912536 22.058309 35.4912536 26.2060253 40.9115646 29.3168124 40.9115646 30.6365403 35.4912536 27.5257532 35.4912536 33.0403304 33.6530612 32.0034014"></polygon></g></g><polygon id="Path" fill="url(#linearGradient-137)" opacity="0.4" points="77.2983479 59.0578231 82.4358601 65.4207969 77.2983479 65.8921283"></polygon><polygon id="Path" fill="url(#linearGradient-138)" opacity="0.4" points="167.841108 111.328474 172.97862 117.691448 167.841108 118.162779"></polygon></g><g id="Group" opacity="0.48" transform="translate(0.000000, 504.795918)"><g fill="url(#linearGradient-139)" id="Path"><path d="M143.803207,128.579203 L221.431487,83.7555879 C222.939747,82.9071914 222.939747,80.7390671 221.431487,79.8435374 L83.9912536,0.47133139 C83.7084548,0.329931973 83.2371234,0.329931973 82.9543246,0.47133139 L1.03692906,47.7930029 C5.55111512e-17,48.4057337 5.55111512e-17,49.9139942 1.03692906,50.526725 L136.214772,128.579203 C138.571429,129.946064 141.493683,129.946064 143.803207,128.579203 Z"></path></g><g opacity="0.64" transform="translate(73.527697, 0.942663)" fill="url(#linearGradient-133)" id="Path"><path d="M0.612730807,4.66618076 C0.329931973,4.80758017 0.329931973,5.09037901 0.612730807,5.27891156 L140.928086,86.2536443 C141.210884,86.3950437 141.682216,86.3950437 141.965015,86.2536443 L147.90379,82.8129252 C149.412051,81.9645287 149.412051,79.7964043 147.90379,78.9008746 L12.7730807,0.848396501 C11.0291545,-0.141399417 8.90816327,-0.141399417 7.16423712,0.848396501 L0.612730807,4.66618076 Z"></path></g></g><g id="Group" opacity="0.48" transform="translate(182.405248, 107.463557)" fill="url(#linearGradient-140)"><path d="M108.076288,140.503887 L3.34645287,80.03207 C2.02672498,79.2779397 0.329931973,76.308552 0.329931973,74.7531584 L0.329931973,2.45092323 C0.329931973,0.47133139 1.36686103,-0.141399417 3.06365403,0.848396501 L107.793489,61.2730807 C109.207483,62.074344 111.045675,65.2793975 111.045675,66.9290573 L111.045675,138.759961 C111.045675,140.880952 109.91448,141.540816 108.076288,140.503887 Z" id="Path"></path></g><g id="Group" transform="translate(162.609329, 245.563654)"><path d="M169.962099,128.296404 L0.424198251,227.605928 L0.424198251,103.975705 C0.424198251,98.8853256 3.11078717,94.1720117 7.4941691,91.6268222 L162.609329,0.754130224 C165.861516,-1.13119534 169.962099,1.17832847 169.962099,4.94897959 L169.962099,128.296404 Z" id="Path" fill="url(#linearGradient-141)"></path><path d="M162.232264,156.529155 L10.0393586,245.65792 C5.79737609,248.155977 0.424198251,245.092323 0.424198251,240.143343 L0.424198251,181.651118 L169.962099,82.3415938 L169.962099,143.049077 C169.962099,148.563654 167.039845,153.701166 162.232264,156.529155 Z" id="Path" fill="url(#linearGradient-142)"></path><g opacity="0.8" transform="translate(10.369291, 19.324587)" id="Path"><polygon fill="url(#linearGradient-143)" points="40.7701652 132.302721 43.0325559 130.982993 43.0325559 110.574344 158.932945 42.7026239 158.932945 40.3931001 40.7701652 109.631681"></polygon><polygon fill="url(#linearGradient-144)" points="30.6365403 138.241497 32.9460641 136.874636 32.9460641 106.379495 158.932945 32.568999 158.932945 30.3066084 30.6365403 105.436832"></polygon><polygon fill="url(#linearGradient-145)" points="50.8566569 126.363946 53.1661808 125.044218 53.1661808 114.769193 158.932945 52.7891156 158.932945 50.526725 50.8566569 113.826531"></polygon><polygon fill="url(#linearGradient-146)" points="0.329931973 92.8994169 0.329931973 155.963557 2.59232264 154.643829 2.59232264 93.8420797 158.932945 2.26239067 158.932945 0"></polygon><polygon fill="url(#linearGradient-147)" points="10.4164237 150.071914 12.7259475 148.705053 12.7259475 98.0369291 158.932945 12.3960155 158.932945 10.0864917 10.4164237 97.0942663"></polygon><polygon fill="url(#linearGradient-148)" points="20.5500486 144.133139 22.8124393 142.813411 22.8124393 102.231778 158.932945 22.4825073 158.932945 20.2201166 20.5500486 101.289116"></polygon></g><g transform="translate(10.369291, 99.922255)" id="Path"><path d="M44.8236152,62.2157434 L0.141399417,88.3746356 L0.141399417,87.0077745 L44.44655,61.037415 C44.6350826,60.9431487 44.776482,60.9902818 44.776482,61.1788144 L44.776482,62.2157434 L44.8236152,62.2157434 Z" fill="url(#linearGradient-149)" opacity="0.1"></path><path d="M102.844509,28.2327502 L76.1200194,43.8809524 L76.1200194,42.5140914 L102.514577,27.0544218 C102.70311,26.9601555 102.844509,27.0072886 102.844509,27.1958212 L102.844509,28.2327502 Z" fill="url(#linearGradient-150)" opacity="0.1"></path><path d="M148.846453,1.27259475 L141.352284,5.65597668 L141.352284,4.28911565 L148.516521,0.0942662779 C148.705053,0 148.846453,0.047133139 148.846453,0.235665695 L148.846453,1.27259475 Z" fill="url(#linearGradient-151)" opacity="0.1"></path><path d="M53.6375121,57.0310982 L51.0451895,58.5393586 L51.0451895,57.1724976 L53.3075802,55.8527697 C53.4961127,55.7585034 53.6375121,55.8056365 53.6375121,55.9941691 L53.6375121,57.0310982 Z" fill="url(#linearGradient-152)" opacity="0.46"></path></g><g transform="translate(10.369291, 109.348882)" id="Path"><path d="M44.8236152,62.1686103 L0.141399417,88.3275024 L0.141399417,86.9606414 L44.44655,60.9902818 C44.6350826,60.8960155 44.776482,60.9431487 44.776482,61.1316812 L44.776482,62.1686103 L44.8236152,62.1686103 Z" fill="url(#linearGradient-153)" opacity="0.1"></path><path d="M92.7580175,34.0772595 L76.1200194,43.8338192 L76.1200194,42.4669582 L92.4280855,32.9460641 C92.6166181,32.8517979 92.7580175,32.898931 92.7580175,33.0874636 L92.7580175,34.0772595 Z" fill="url(#linearGradient-154)" opacity="0.1"></path><path d="M148.846453,1.22546161 L141.352284,5.60884354 L141.352284,4.24198251 L148.516521,0.047133139 C148.705053,-0.047133139 148.846453,0 148.846453,0.188532556 L148.846453,1.22546161 Z" fill="url(#linearGradient-155)" opacity="0.1"></path><path d="M53.6375121,56.983965 L51.0451895,58.4922255 L51.0451895,57.1253644 L53.3075802,55.8056365 C53.4961127,55.7113703 53.6375121,55.7585034 53.6375121,55.947036 L53.6375121,56.983965 Z" fill="url(#linearGradient-156)" opacity="0.46"></path></g><g transform="translate(10.369291, 118.304179)" id="Path"><path d="M44.8236152,62.5928086 L0.141399417,88.7517007 L0.141399417,87.3848397 L44.44655,61.4144801 C44.6350826,61.3202138 44.776482,61.3673469 44.776482,61.5558795 L44.776482,62.5928086 L44.8236152,62.5928086 Z" fill="url(#linearGradient-157)" opacity="0.1"></path><path d="M130.558795,12.3488824 L76.1200194,44.2580175 L76.1200194,42.8911565 L130.228863,11.2176871 C130.417396,11.1234208 130.558795,11.1705539 130.558795,11.3590865 L130.558795,12.3488824 Z" fill="url(#linearGradient-158)" opacity="0.1"></path><path d="M148.846453,1.64965986 L141.352284,6.03304179 L141.352284,4.66618076 L148.469388,0.47133139 C148.65792,0.377065112 148.79932,0.424198251 148.79932,0.612730807 L148.79932,1.64965986 L148.846453,1.64965986 Z" fill="url(#linearGradient-159)" opacity="0.1"></path><path d="M53.6375121,57.4081633 L51.0451895,58.9164237 L51.0451895,57.5495627 L53.3075802,56.2298348 C53.4961127,56.1355685 53.6375121,56.1827017 53.6375121,56.3712342 L53.6375121,57.4081633 Z" fill="url(#linearGradient-160)" opacity="0.46"></path></g><g transform="translate(10.369291, 127.730807)" id="Path"><path d="M44.8236152,62.4985423 L0.141399417,88.6574344 L0.141399417,87.2905734 L44.44655,61.3202138 C44.6350826,61.2259475 44.776482,61.2730807 44.776482,61.4616132 L44.776482,62.4985423 L44.8236152,62.4985423 Z" fill="url(#linearGradient-161)" opacity="0.1"></path><path d="M102.844509,28.5155491 L76.1200194,44.1637512 L76.1200194,42.7968902 L102.514577,27.3372206 C102.70311,27.2429543 102.844509,27.2900875 102.844509,27.47862 L102.844509,28.5155491 Z" fill="url(#linearGradient-162)" opacity="0.1"></path><path d="M148.846453,1.60252672 L141.352284,5.98590865 L141.352284,4.61904762 L148.516521,0.424198251 C148.705053,0.329931973 148.846453,0.377065112 148.846453,0.565597668 L148.846453,1.60252672 Z" fill="url(#linearGradient-163)" opacity="0.1"></path><path d="M53.6375121,57.3610301 L51.0451895,58.8692906 L51.0451895,57.5024295 L53.3075802,56.1827017 C53.4961127,56.0884354 53.6375121,56.1355685 53.6375121,56.3241011 L53.6375121,57.3610301 Z" fill="url(#linearGradient-164)" opacity="0.46"></path></g><g transform="translate(10.369291, 137.157434)" id="Path"><path d="M44.8236152,62.4514091 L0.141399417,88.6103013 L0.141399417,87.2434402 L44.44655,61.2730807 C44.6350826,61.1788144 44.776482,61.2259475 44.776482,61.4144801 L44.776482,62.4514091 L44.8236152,62.4514091 Z" fill="url(#linearGradient-165)" opacity="0.1"></path><path d="M120.802235,17.9577259 L76.1200194,44.1166181 L76.1200194,42.749757 L120.42517,16.7793975 C120.613703,16.6851312 120.755102,16.7322643 120.755102,16.9207969 L120.755102,17.9577259 L120.802235,17.9577259 Z" fill="url(#linearGradient-166)" opacity="0.1"></path><path d="M148.846453,1.55539359 L141.352284,5.93877551 L141.352284,4.57191448 L148.516521,0.377065112 C148.705053,0.282798834 148.846453,0.329931973 148.846453,0.518464529 L148.846453,1.55539359 Z" fill="url(#linearGradient-167)" opacity="0.1"></path><path d="M53.6375121,57.313897 L51.0451895,58.8221574 L51.0451895,57.4552964 L53.3075802,56.1355685 C53.4961127,56.0413022 53.6375121,56.0884354 53.6375121,56.2769679 L53.6375121,57.313897 Z" fill="url(#linearGradient-168)" opacity="0.46"></path></g></g><path d="M278.988275,176.372132 C279.639088,176.141844 280.353363,176.482747 280.583651,177.133561 C280.813939,177.784375 280.473035,178.498649 279.822221,178.728937 C278.947823,179.03834 278.073703,179.908119 276.503212,181.914698 C276.422963,182.017231 276.349248,182.111683 276.193957,182.310788 C273.984826,185.142388 272.897175,186.232105 271.196149,186.757421 C268.038615,187.733387 264.578064,187.470385 261.597805,185.809244 C260.410984,185.154446 259.558754,184.42198 257.768987,182.678394 C257.706622,182.617635 257.706622,182.617635 257.644446,182.557076 C255.875764,180.834673 255.006717,180.124569 253.979418,179.689262 C252.167361,178.912666 250.923244,179.409163 248.25161,181.537908 C248.040788,181.70606 247.929867,181.794488 247.827422,181.875794 C247.664901,182.004779 247.527323,182.112928 247.394751,182.215611 C247.07126,182.466168 246.787017,182.676573 246.508048,182.869312 C240.646036,186.904204 236.985342,188.53336 232.663638,187.885051 C229.344124,187.418244 226.572447,184.806472 224.375916,180.578149 C223.893198,179.649846 222.460834,176.721194 222.409528,176.619077 C220.675781,173.168315 219.354398,171.503716 217.082063,170.315905 C214.185288,168.802664 211.033688,168.745981 208.941716,170.191337 C208.00262,170.836089 207.277536,171.603011 205.79076,173.405544 C205.722823,173.487919 205.722823,173.487919 205.654661,173.570554 C203.273354,176.456912 201.989416,177.618489 199.905112,178.186842 C198.345246,178.632518 196.667952,178.419302 194.901038,177.653507 C194.811373,177.613158 194.441457,177.448413 194.367039,177.415093 C194.122623,177.305657 193.915548,177.211359 193.706346,177.113572 C193.150073,176.853551 192.646517,176.599759 192.164592,176.330349 C191.570072,175.997996 191.034139,175.655476 190.557928,175.294212 C190.007927,174.87697 189.900305,174.092865 190.317547,173.542865 C190.734789,172.992864 191.518894,172.885242 192.068894,173.302484 C192.444561,173.587472 192.88491,173.868904 193.384485,174.148181 C193.808075,174.384979 194.259545,174.61252 194.764985,174.848779 C194.960292,174.940072 195.155655,175.029036 195.38867,175.133367 C195.45901,175.164862 195.831947,175.330952 195.911003,175.366661 C197.170644,175.912505 198.274175,176.052785 199.232814,175.778982 C200.649765,175.392541 201.677789,174.462488 203.726248,171.979572 C203.794077,171.897341 203.794077,171.897341 203.862162,171.814787 C205.499355,169.829891 206.328297,168.953119 207.523668,168.132423 C210.446695,166.112877 214.577859,166.187179 218.239904,168.100187 C221.080112,169.584841 222.695704,171.620067 224.643426,175.496713 C224.707045,175.623338 226.128267,178.529207 226.594194,179.42522 C228.455857,183.008923 230.651003,185.077426 233.023132,185.41106 C236.501919,185.932878 239.74436,184.489861 245.08878,180.811237 C245.324298,180.648516 245.573576,180.463993 245.863889,180.239134 C245.987685,180.143249 246.117878,180.040905 246.273274,179.917574 C246.373221,179.838251 246.481575,179.751869 246.693696,179.582683 C250.031751,176.922936 252.019858,176.129531 254.959504,177.389391 C256.371597,177.987735 257.391125,178.820798 259.388625,180.766032 C259.451153,180.826933 259.451153,180.826933 259.513501,180.887676 C261.137049,182.469332 261.885862,183.112914 262.810225,183.62292 C265.174823,184.940893 267.929933,185.150281 270.458175,184.368825 C271.461125,184.05909 272.368062,183.150431 274.222865,180.772999 C274.378115,180.573946 274.453018,180.477971 274.534509,180.373852 C276.417,177.968637 277.487934,176.903021 278.988275,176.372132 Z" id="Path" fill="url(#linearGradient-169)" fill-rule="nonzero" opacity="0.15"></path></g></g></svg> 