<svg width="720" height="360" viewBox="0 0 720 360" fill="none" xmlns="http://www.w3.org/2000/svg">
<rect width="720" height="360" rx="4" fill="#F5F5F5"/>
<path fill-rule="evenodd" clip-rule="evenodd" d="M123.483 294.894C238.149 296.9 326.175 269.793 341.32 263.776C453.046 219.385 375.818 161.93 364.203 151.822C328.865 121.067 268.703 129.115 227.18 115.05C152.178 89.6432 75.6271 91.0563 52.2969 110.97C12.2702 145.136 82.584 169.296 84.7472 188.016C87.7153 213.695 -26.5102 292.27 123.483 294.894Z" fill="#D8D8D8" fill-opacity="0.5"/>
<path fill-rule="evenodd" clip-rule="evenodd" d="M95.0457 213.214C95.0457 214.871 96.3888 216.214 98.0457 216.214H345.686C347.343 216.214 348.686 214.871 348.686 213.214V68.0647C348.686 66.4078 347.343 65.0647 345.686 65.0647H98.0457C96.3888 65.0647 95.0457 66.4078 95.0457 68.0647V213.214Z" fill="white"/>
<path fill-rule="evenodd" clip-rule="evenodd" d="M117.292 88.6548C117.292 92.5354 114.146 95.6806 110.265 95.6806C106.386 95.6806 103.238 92.5354 103.238 88.6548C103.238 84.7741 106.386 81.6289 110.265 81.6289C114.146 81.6289 117.292 84.7741 117.292 88.6548Z" stroke="#21282C" stroke-width="1.5"/>
<path fill-rule="evenodd" clip-rule="evenodd" d="M117.292 140.419C117.292 144.299 114.146 147.445 110.265 147.445C106.386 147.445 103.238 144.299 103.238 140.419C103.238 136.539 106.386 133.392 110.265 133.392C114.146 133.392 117.292 136.539 117.292 140.419Z" stroke="#21282C" stroke-width="1.5"/>
<path fill-rule="evenodd" clip-rule="evenodd" d="M117.292 192.224C117.292 196.105 114.146 199.251 110.265 199.251C106.386 199.251 103.238 196.105 103.238 192.224C103.238 188.343 106.386 185.198 110.265 185.198C114.146 185.198 117.292 188.343 117.292 192.224Z" stroke="#21282C" stroke-width="1.5"/>
<mask id="mask0" mask-type="alpha" maskUnits="userSpaceOnUse" x="125" y="80" width="35" height="16">
<path fill-rule="evenodd" clip-rule="evenodd" d="M126.035 80C125.476 80 125.024 80.4899 125.024 81.0928V94.9059C125.024 95.5101 125.476 96 126.035 96H158.988C159.548 96 160 95.5101 160 94.9059V81.0928C160 80.4899 159.548 80 158.988 80H126.035Z" fill="white"/>
</mask>
<g mask="url(#mask0)">
<path fill-rule="evenodd" clip-rule="evenodd" d="M122.487 98.7371H162.532V77.259H122.487V98.7371Z" fill="#0CE79A"/>
</g>
<mask id="mask1" mask-type="alpha" maskUnits="userSpaceOnUse" x="163" y="80" width="76" height="17">
<path fill-rule="evenodd" clip-rule="evenodd" d="M164.018 80C163.455 80 163 80.4954 163 81.105V95.0727C163 95.6837 163.455 96.1791 164.018 96.1791H237.981C238.545 96.1791 239 95.6837 239 95.0727V81.105C239 80.4954 238.545 80 237.981 80H164.018Z" fill="white"/>
</mask>
<g mask="url(#mask1)">
<path fill-rule="evenodd" clip-rule="evenodd" d="M160.449 98.9467H241.55V77.2283H160.449V98.9467Z" fill="#FBD1DD"/>
</g>
<mask id="mask2" mask-type="alpha" maskUnits="userSpaceOnUse" x="242" y="99" width="92" height="17">
<path fill-rule="evenodd" clip-rule="evenodd" d="M243.232 99C242.551 99 242 99.4954 242 100.105V114.073C242 114.684 242.551 115.179 243.232 115.179H332.766C333.449 115.179 334 114.684 334 114.073V100.105C334 99.4954 333.449 99 332.766 99H243.232Z" fill="white"/>
</mask>
<g mask="url(#mask2)">
<path fill-rule="evenodd" clip-rule="evenodd" d="M238.912 117.947H337.087V96.2283H238.912V117.947Z" fill="#FBD1DD"/>
</g>
<path fill-rule="evenodd" clip-rule="evenodd" d="M275 167C275 167.552 275.448 168 276 168H308C308.552 168 309 167.552 309 167V153C309 152.448 308.552 152 308 152H276C275.448 152 275 152.448 275 153V167Z" fill="#FBD1DD"/>
<path fill-rule="evenodd" clip-rule="evenodd" d="M248 200C248 200.552 248.448 201 249 201H281C281.552 201 282 200.552 282 200V186C282 185.448 281.552 185 281 185H249C248.448 185 248 185.448 248 186V200Z" fill="#16D5EA"/>
<mask id="mask3" mask-type="alpha" maskUnits="userSpaceOnUse" x="125" y="99" width="114" height="16">
<path fill-rule="evenodd" clip-rule="evenodd" d="M126.046 99C125.481 99 125.024 99.49 125.024 100.093V113.908C125.024 114.51 125.481 115 126.046 115H237.979C238.543 115 239 114.51 239 113.908V100.093C239 99.49 238.543 99 237.979 99H126.046Z" fill="white"/>
</mask>
<g mask="url(#mask3)">
<path fill-rule="evenodd" clip-rule="evenodd" d="M122.46 117.738H241.56V96.2576H122.46V117.738Z" fill="#FBCA00"/>
<path fill-rule="evenodd" clip-rule="evenodd" d="M122.46 117.738H241.56V96.2576H122.46V117.738Z" fill="#FBCA00"/>
</g>
<mask id="mask4" mask-type="alpha" maskUnits="userSpaceOnUse" x="125" y="133" width="184" height="17">
<path fill-rule="evenodd" clip-rule="evenodd" d="M126.046 133C125.481 133 125.024 133.491 125.024 134.095V147.935C125.024 148.54 125.481 149.03 126.046 149.03H307.288C307.852 149.03 308.309 148.54 308.309 147.935V134.095C308.309 133.491 307.852 133 307.288 133H126.046Z" fill="white"/>
</mask>
<g mask="url(#mask4)">
<path fill-rule="evenodd" clip-rule="evenodd" d="M122.462 151.772H310.866V130.254H122.462V151.772Z" fill="#0CE79A"/>
</g>
<mask id="mask5" mask-type="alpha" maskUnits="userSpaceOnUse" x="125" y="152" width="23" height="16">
<path fill-rule="evenodd" clip-rule="evenodd" d="M126.046 152C125.481 152 125.024 152.491 125.024 153.094V166.907C125.024 167.51 125.481 168 126.046 168H146.273C146.837 168 147.294 167.51 147.294 166.907V153.094C147.294 152.491 146.837 152 146.273 152H126.046Z" fill="white"/>
</mask>
<g mask="url(#mask5)">
<path fill-rule="evenodd" clip-rule="evenodd" d="M122.462 170.738H149.852V149.26H122.462V170.738Z" fill="#19D4EA"/>
</g>
<mask id="mask6" mask-type="alpha" maskUnits="userSpaceOnUse" x="150" y="152" width="122" height="16">
<path fill-rule="evenodd" clip-rule="evenodd" d="M151.356 152C150.809 152 150.365 152.491 150.365 153.094V166.907C150.365 167.51 150.809 168 151.356 168H271.011C271.557 168 272 167.51 272 166.907V153.094C272 152.491 271.557 152 271.011 152H151.356Z" fill="white"/>
</mask>
<g mask="url(#mask6)">
<path fill-rule="evenodd" clip-rule="evenodd" d="M147.885 170.738H274.478V149.26H147.885V170.738Z" fill="#FBCA00"/>
</g>
<mask id="mask7" mask-type="alpha" maskUnits="userSpaceOnUse" x="125" y="185" width="75" height="17">
<path fill-rule="evenodd" clip-rule="evenodd" d="M126.212 185C125.555 185 125.024 185.495 125.024 186.105V200.073C125.024 200.682 125.555 201.177 126.212 201.177H198.421C199.076 201.177 199.608 200.682 199.608 200.073V186.105C199.608 185.495 199.076 185 198.421 185H126.212Z" fill="white"/>
</mask>
<g mask="url(#mask7)">
<path fill-rule="evenodd" clip-rule="evenodd" d="M122.044 203.947H202.584V182.229H122.044V203.947Z" fill="#0041FF"/>
</g>
<path fill-rule="evenodd" clip-rule="evenodd" d="M242 95C242 95.5523 242.448 96 243 96H308C308.552 96 309 95.5523 309 95V81C309 80.4477 308.552 80 308 80H243C242.448 80 242 80.4477 242 81V95Z" fill="#0041FF"/>
<path d="M156.126 158H223.419" stroke="#21282C" stroke-width="1.5" stroke-linecap="round"/>
<path d="M156.126 161.106L180 160.99" stroke="#21282C" stroke-width="1.5" stroke-linecap="round"/>
<path d="M260.265 105.475H298.57" stroke="#21282C" stroke-width="1.5" stroke-linecap="round"/>
<path d="M262.265 108.581H282.891" stroke="#21282C" stroke-width="1.5" stroke-linecap="round"/>
<path d="M247 86H294" stroke="#21282C" stroke-width="1.5" stroke-linecap="round"/>
<path d="M247 89H278.879" stroke="#21282C" stroke-width="1.5" stroke-linecap="round"/>
<path d="M169.585 86H194.431" stroke="#21282C" stroke-width="1.5" stroke-linecap="round"/>
<path d="M169.585 89.1057H183.043" stroke="#21282C" stroke-width="1.5" stroke-linecap="round"/>
<path d="M130 86H154.846" stroke="#21282C" stroke-width="1.5" stroke-linecap="round"/>
<path d="M130 89.1057H143.458" stroke="#21282C" stroke-width="1.5" stroke-linecap="round"/>
<path d="M130.245 158H143.703" stroke="#21282C" stroke-width="1.5" stroke-linecap="round"/>
<path d="M130.245 161.106H137.492" stroke="#21282C" stroke-width="1.5" stroke-linecap="round"/>
<path fill-rule="evenodd" clip-rule="evenodd" d="M248.042 105.389L249.818 105.389C249.818 105.389 260.5 101.5 253.442 109.064C246.383 116.627 249.818 112.169 249.818 112.169L246.38 113.94L248.042 105.389Z" fill="white"/>
<path fill-rule="evenodd" clip-rule="evenodd" d="M213.218 157.887L210.418 165.177C207.414 169.383 208.342 188.083 208.342 204.367C207.808 211.709 200.932 209.632 197.928 251.016L205.147 254.23C215.43 227.035 216.752 226.192 218.454 218.143C219.674 212.377 218.795 218.343 219.456 215.64C220.117 212.936 218.839 215.64 218.454 218.143C219.956 212.636 219.436 219.284 219.456 221.647C219.476 224.01 219.456 227.154 219.956 238.168C219.956 240.672 220.297 243.894 220.657 254.801L228.667 255.432C233.046 231.014 235.626 213.992 236.407 204.367C237.589 189.928 235.486 179.975 234.114 169.322C231.911 160.841 229.108 162.513 230.159 155.224C230.029 152.19 229.779 154.262 213.218 157.887Z" fill="#CBCBCB"/>
<path d="M221.866 210.52C226.007 198.614 227.042 192.898 227.042 187.744" stroke="#071E23" stroke-width="1.5" stroke-linecap="round"/>
<path d="M219.456 215.138C219.456 215.138 215.451 227.154 213.949 231.659C212.447 236.165 205.378 253.738 205.378 253.738L198.259 250.995" stroke="#071E23" stroke-width="1.5" stroke-linecap="round" stroke-linejoin="round"/>
<path fill-rule="evenodd" clip-rule="evenodd" d="M229.128 260.087C230.234 260.958 231.429 261.71 232.692 262.33C235.326 263.211 237.128 262.33 238.43 264.523C239.551 266.466 238.122 267.667 236.36 267.747H219.916C219.746 266.085 219.656 264.743 219.656 263.742C219.704 262.548 220.097 261.393 220.787 260.418C222.79 260.418 224.272 260.418 225.173 260.418C226.074 260.418 227.396 260.248 229.128 260.087Z" fill="white" stroke="#071E23" stroke-width="1.5"/>
<path fill-rule="evenodd" clip-rule="evenodd" d="M205.207 261.128C208.572 260.527 210.264 261.579 210.304 264.272C210.344 266.966 210.354 268.057 210.304 267.536C207.622 268.038 204.855 267.806 202.294 266.865C199.084 265.427 196.102 263.528 193.442 261.228C193.611 259.89 194.033 258.595 194.684 257.413C195.455 255.821 196.466 255.02 197.688 255.01C199.292 255.872 200.939 256.651 202.624 257.343C203.535 257.664 204.376 258.925 205.207 261.128Z" fill="white" stroke="#071E23" stroke-width="1.5"/>
<path d="M226.594 256.543V259.728" stroke="#071E23" stroke-width="1.5" stroke-linecap="round"/>
<path d="M221.418 256.122V259.638" stroke="#071E23" stroke-width="1.5" stroke-linecap="round"/>
<path d="M199.65 251.556L198.488 254.561" stroke="#071E23" stroke-width="1.5" stroke-linecap="round"/>
<path d="M203.835 253.929L202.674 256.934" stroke="#071E23" stroke-width="1.5" stroke-linecap="round"/>
<path d="M221.288 255.491L228.297 256.022C231.027 241.664 232.836 231.688 233.724 226.094" stroke="#071E23" stroke-width="1.5" stroke-linecap="round" stroke-linejoin="round"/>
<path d="M201.346 99.5784C207.317 94.6027 210.515 95.7482 212.743 98.0894C214.491 97.0148 217.011 96.0522 220.52 95.641C228.077 94.7553 220.231 99.232 215.364 101.581L202.347 113.596C200.011 111.761 195.338 104.584 201.346 99.5784Z" fill="#0041FF"/>
<path fill-rule="evenodd" clip-rule="evenodd" d="M217.888 107C220.958 106.085 222.416 119.715 217.888 121.924C213.361 124.133 206.82 120.518 204.283 115.352C201.745 110.186 203.678 108.447 208.163 106.085C212.1 104.036 208.707 110.804 217.888 107Z" fill="white" stroke="#172328" stroke-width="1.5" stroke-linecap="round" stroke-linejoin="round"/>
<path fill-rule="evenodd" clip-rule="evenodd" d="M196.616 176.74C195.675 173.456 183.69 143.046 212.947 129.529C242.205 116.012 242.696 111.815 244.848 111.907C247 112 250 113 250 113C251.722 112.78 248.112 120.008 239.541 126.947C228.527 135.828 229.839 133.304 232.973 141.044C235.396 147.052 242.485 164.073 232.973 167.077" fill="white"/>
<path d="M196.616 176.74C195.675 173.456 183.69 143.046 212.947 129.529C242.205 116.012 242.696 111.815 244.848 111.907C247 112 250 113 250 113C251.722 112.78 248.112 120.008 239.541 126.947C228.527 135.828 229.839 133.304 232.973 141.044C235.396 147.052 242.485 164.073 232.973 167.077" stroke="#21282C" stroke-width="1.5" stroke-linecap="round" stroke-linejoin="round"/>
<path fill-rule="evenodd" clip-rule="evenodd" d="M256.5 105.5C256.5 105.5 247.662 100.543 246.741 105.159C245.819 109.775 246.5 111.5 246.5 111.5" fill="white"/>
<path d="M256.5 105.5C256.5 105.5 247.662 100.543 246.741 105.159C245.819 109.775 246.5 111.5 246.5 111.5" stroke="#21282C" stroke-width="1.5" stroke-linecap="round" stroke-linejoin="round"/>
<path d="M258 108.5C255.929 108.5 253.672 109.91 252.5 111L250.5 113" stroke="#21282C" stroke-width="1.5" stroke-linecap="round" stroke-linejoin="round"/>
<path d="M218.714 121.53L219.155 124.325" stroke="#21282C" stroke-width="1.5" stroke-linecap="round"/>
<path d="M211.775 122.522L212.978 126.895" stroke="#21282C" stroke-width="1.5" stroke-linecap="round"/>
<path fill-rule="evenodd" clip-rule="evenodd" d="M233.251 167.049C229.93 157.508 229.377 158.745 229.377 158.745C229.377 158.745 220.94 161.118 215.538 162.62C210.136 164.122 203.91 172.034 203.91 172.034C198.877 172.993 204.41 169.427 205.939 169.079C196.696 171.219 205.79 168.496 207.325 172.034C208.466 174.652 209.866 177.803 208.942 179.593C208.849 179.765 214.793 178.297 212.948 178.436C215.107 178.575 221.392 177.59 218.455 177.59L227.688 176.588C227.688 176.588 236.572 196.095 236.573 190.297C236.573 187.115 236.573 176.589 233.251 167.049Z" fill="#CBCBCB"/>
<path d="M232.973 162.57C232.973 162.57 239.341 155.523 223.691 159.808C208.041 164.093 210.945 166.376 209.443 166.376" stroke="#071E23" stroke-width="1.5" stroke-linecap="round" stroke-linejoin="round"/>
<path d="M219.996 99.9914C222.5 102.328 219.996 104.497 217.453 104.497M215.451 96.9875C218.955 95.4858 221.639 94.4952 222.96 95.4858C224.963 96.9873 217.453 101.493 211.446 104.497" stroke="#21282C" stroke-width="1.5" stroke-linecap="round"/>
<path d="M215.951 101.493C213.448 97.989 210.636 92.2393 201.933 99.4908C195.926 104.497 200.598 111.673 202.935 113.509" stroke="#21282C" stroke-width="1.5" stroke-linecap="round"/>
<path d="M186.149 267.977H245.677" stroke="#21282C" stroke-width="1.5" stroke-linecap="round"/>
<path fill-rule="evenodd" clip-rule="evenodd" d="M342.482 217.216C342.482 217.216 346.294 283.148 346.294 284.521C346.294 285.894 350.872 285.437 354.992 284.521L355.114 281.661L356.164 245.753L358.067 200.98L327.063 201.437C327.063 202.811 328.955 284.53 328.955 284.53C328.955 284.53 335.715 284.528 338.199 284.82C338.606 284.868 338.898 284.923 339.027 284.987" fill="#CBCBCB"/>
<path d="M342.482 217.216C342.482 217.216 346.294 283.148 346.294 284.521C346.294 285.894 350.872 285.437 354.992 284.521L355.114 281.661L356.164 245.753L358.067 200.98L327.063 201.437C327.063 202.811 328.955 284.53 328.955 284.53C328.955 284.53 335.715 284.528 338.199 284.82C338.606 284.868 338.898 284.923 339.027 284.987" stroke="#21282C" stroke-width="1.5" stroke-linecap="round"/>
<path fill-rule="evenodd" clip-rule="evenodd" d="M320.391 183.633L284.57 165.206L309.114 152.701L345.598 171.129L320.391 183.633Z" fill="white" stroke="#21282C" stroke-width="1.5" stroke-linejoin="round"/>
<path fill-rule="evenodd" clip-rule="evenodd" d="M301.515 173.306C301.515 173.306 293.731 167.745 291.572 169.326C288.245 171.761 296.513 177.683 296.513 177.683L301.515 173.306Z" fill="white"/>
<path fill-rule="evenodd" clip-rule="evenodd" d="M301.515 173.306C301.515 173.306 293.731 167.745 291.572 169.326C288.245 171.761 298 178.5 298 178.5L301.515 173.306Z" stroke="#21282C" stroke-width="1.5"/>
<path fill-rule="evenodd" clip-rule="evenodd" d="M326.004 169.138C325.875 167.464 327.678 161.783 332.778 156.842C337.604 152.165 345.537 144.786 351.425 151.306C353.261 153.337 360.586 162.248 361.801 177.793C362.752 189.962 366.334 233.853 365.083 234.166C354.782 236.741 319.127 237.917 319.127 237.917C319.127 237.917 326.433 174.714 326.004 169.138Z" fill="#FCCB00"/>
<path fill-rule="evenodd" clip-rule="evenodd" d="M339.5 152C326.191 154.303 319.65 176.315 316.5 179C316.5 179 302.778 171.064 300 171.5C297.222 171.936 296 174.5 297 177.5C298.036 179.689 315.832 189.196 318.924 189.526C322.015 189.856 338.673 165.241 338.673 165.241L339.5 152Z" fill="#FCCB00"/>
<path fill-rule="evenodd" clip-rule="evenodd" d="M350.335 136.417C350.335 129.77 347.344 125.042 340.697 125.042C334.05 125.042 328.662 130.43 328.662 137.078C328.662 141.484 332.361 149.964 337.468 147.567L338.301 151.736L343.928 151.527L343.744 148.621C348.264 147.056 350.335 141.944 350.335 136.417Z" fill="white"/>
<path fill-rule="evenodd" clip-rule="evenodd" d="M350.335 136.417C350.335 129.77 347.344 125.042 340.697 125.042C334.05 125.042 328.662 130.43 328.662 137.078C328.662 141.484 332.361 149.964 337.468 147.567L338.301 151.736L343.928 151.527L343.744 148.621C348.264 147.056 350.335 141.944 350.335 136.417Z" stroke="#21282C" stroke-width="1.5" stroke-linejoin="round"/>
<path fill-rule="evenodd" clip-rule="evenodd" d="M348.537 124.614C353.366 129.442 353.454 137.183 348.734 141.903C344.014 146.623 336.273 146.535 331.445 141.706C329.068 139.329 327.839 136.245 327.768 133.164C327.695 129.987 328.852 126.813 331.248 124.417C335.968 119.697 343.709 119.785 348.537 124.614Z" fill="white"/>
<path fill-rule="evenodd" clip-rule="evenodd" d="M348.537 124.614C353.366 129.442 353.454 137.183 348.734 141.903C344.014 146.623 336.273 146.535 331.445 141.706C329.068 139.329 327.839 136.245 327.768 133.164C327.695 129.987 328.852 126.813 331.248 124.417C335.968 119.697 343.709 119.785 348.537 124.614Z" stroke="#21282C" stroke-width="1.5"/>
<path fill-rule="evenodd" clip-rule="evenodd" d="M342.941 157.075C342.941 157.075 341.728 164.795 349.328 164.645C355.979 164.513 356.265 157.537 355.98 153.041C355.517 145.728 347.737 135.05 347.783 135.299C347.783 135.299 345.514 133.86 344.999 137.799C344.683 140.214 342.941 157.075 342.941 157.075Z" fill="white"/>
<path fill-rule="evenodd" clip-rule="evenodd" d="M342.941 157.075C342.941 157.075 341.728 164.795 349.328 164.645C355.979 164.513 356.265 157.537 355.98 153.041C355.517 145.728 347.737 135.05 347.783 135.299C347.783 135.299 345.514 133.86 344.999 137.799C344.683 140.214 342.941 157.075 342.941 157.075Z" stroke="#21282C" stroke-width="1.5"/>
<path d="M296.5 177.5C296.5 177.5 314.97 190.531 318.924 189.527C322.878 188.522 336.947 169.452 336.947 169.452" stroke="#21282C" stroke-width="1.5" stroke-linecap="round"/>
<path d="M365.083 234.166C365.083 234.166 360.574 230.412 345.57 230.947C332.439 231.417 319.126 237.917 319.126 237.917L320.377 225.1" stroke="#21282C" stroke-width="1.5" stroke-linecap="round" stroke-linejoin="round"/>
<path fill-rule="evenodd" clip-rule="evenodd" d="M355.417 289.331C355.417 289.331 361.018 300.585 343.198 298.71C325.378 296.834 348.826 291.207 348.826 291.207L355.417 289.331Z" fill="white"/>
<path fill-rule="evenodd" clip-rule="evenodd" d="M354.382 289.331C354.382 289.331 359.983 300.585 342.163 298.71C324.343 296.834 347.79 291.207 347.79 291.207L354.382 289.331Z" stroke="#21282C" stroke-width="1.5"/>
<path fill-rule="evenodd" clip-rule="evenodd" d="M352.672 284.691L352.725 289.171L352.672 284.691Z" fill="white"/>
<path d="M352.672 284.691L352.725 289.171" stroke="#21282C" stroke-width="1.5"/>
<path fill-rule="evenodd" clip-rule="evenodd" d="M349.109 285.514L349.171 290.718L349.109 285.514Z" fill="white"/>
<path d="M349.109 285.514L349.171 290.718" stroke="#21282C" stroke-width="1.5"/>
<path fill-rule="evenodd" clip-rule="evenodd" d="M335.664 284.691L335.742 289.619L335.664 284.691Z" fill="white"/>
<path d="M335.664 284.691L335.742 289.619" stroke="#21282C" stroke-width="1.5"/>
<path fill-rule="evenodd" clip-rule="evenodd" d="M332.022 284.506L331.985 290.893L332.022 284.506Z" fill="white"/>
<path d="M332.022 284.506L331.985 290.893" stroke="#21282C" stroke-width="1.5"/>
<path fill-rule="evenodd" clip-rule="evenodd" d="M337.507 289.41C337.507 289.41 343.108 300.665 325.288 298.789C307.468 296.913 330.915 291.286 330.915 291.286L337.507 289.41Z" fill="white"/>
<path fill-rule="evenodd" clip-rule="evenodd" d="M337.507 289.41C337.507 289.41 343.108 300.665 325.288 298.789C307.468 296.913 330.915 291.286 330.915 291.286L337.507 289.41Z" stroke="#21282C" stroke-width="1.5"/>
<path d="M347.15 170.305V223.706" stroke="#21282C" stroke-width="1.5" stroke-linecap="round"/>
<path fill-rule="evenodd" clip-rule="evenodd" d="M323.171 204.559L332.47 200.645C332.47 200.645 332.117 210.356 330.512 214.102C328.31 219.24 321.276 220.953 321.276 220.953L323.171 204.559Z" stroke="#21282C" stroke-width="1.5" stroke-linejoin="round"/>
<path d="M306.311 299H365.839" stroke="#21282C" stroke-width="1.5" stroke-linecap="round"/>
<path d="M180.64 187.2C180.485 187.036 180.378 186.834 180.328 186.614L179.317 182.096C179.224 181.679 179.35 181.244 179.652 180.941L185.46 175.113C185.803 174.769 186.313 174.655 186.77 174.819L189.837 175.927C190.794 176.273 191.864 176.061 192.618 175.378L210.596 159.077C211.099 158.621 211.876 158.65 212.343 159.144L231.513 179.407C231.988 179.909 231.966 180.7 231.464 181.175L202.544 208.534C202.043 209.009 201.252 208.987 200.777 208.485L180.64 187.2Z" fill="#FFB0C5" stroke="#21282C" stroke-width="1.5"/>
<path d="M199.608 179.462C196.709 179.876 196.502 174.286 195.467 170.145C197.537 162.277 201.506 163.416 203.231 164.969C203.059 169.455 202.506 179.048 199.608 179.462Z" fill="white"/>
<path fill-rule="evenodd" clip-rule="evenodd" d="M204.136 179.645C204.136 179.645 206.189 187.655 202.234 189.417C198.279 191.179 199.23 186.573 199.23 186.573C198.231 184.802 198.135 182.661 198.97 180.806" fill="white"/>
<path d="M204.136 179.645C204.136 179.645 206.189 187.655 202.234 189.417C198.279 191.179 199.23 186.573 199.23 186.573C198.231 184.802 198.135 182.661 198.97 180.806" stroke="#21282C" stroke-width="1.5" stroke-linecap="round"/>
<path fill-rule="evenodd" clip-rule="evenodd" d="M207.29 145.961C205.207 146.271 204.568 150.056 207.29 167.578C208.892 177.89 206.359 180.094 198.429 180.094" fill="white"/>
<path d="M207.29 145.961C205.207 146.271 204.568 150.056 207.29 167.578C208.892 177.89 206.359 180.094 198.429 180.094" stroke="#071E23" stroke-width="1.5" stroke-linecap="round" stroke-linejoin="round"/>
<rect opacity="0.269764" x="451.149" y="269.636" width="191.851" height="10.6364" rx="2" fill="#999EA1"/>
<rect x="450" y="233" width="191.851" height="52" rx="4" fill="#0041FF"/>
<path d="M512.985 262.551H508.127V253.091H506.438V264H512.985V262.551ZM517.9 264.165C519.78 264.165 520.931 263.153 521.272 261.976L519.759 261.56C519.487 262.295 518.891 262.77 517.895 262.77C516.552 262.77 515.759 261.928 515.631 260.415H521.378V259.728C521.378 256.878 519.679 255.712 517.793 255.712C515.471 255.712 514.022 257.485 514.022 259.994C514.022 262.53 515.498 264.165 517.9 264.165ZM517.788 257.102C519.024 257.102 519.78 257.986 519.78 259.174H515.668C515.887 257.858 516.67 257.102 517.788 257.102ZM527.844 264H529.452V258.561C529.452 256.207 527.652 255.712 526.336 255.712C524.861 255.712 523.481 256.324 522.964 257.821L524.514 258.178C524.728 257.603 525.34 257.059 526.347 257.059C527.204 257.059 527.806 257.48 527.806 258.54V258.609C527.806 259.094 526.933 259.089 525.995 259.201C524.211 259.392 522.767 259.962 522.767 261.683C522.767 263.276 523.987 264.176 525.495 264.176C526.794 264.176 527.497 263.505 527.769 262.983H527.844V264ZM527.806 261.145C527.806 262.029 527.05 262.844 525.83 262.844C524.978 262.844 524.376 262.445 524.376 261.71C524.376 260.863 525.074 260.554 526.054 260.431C526.512 260.373 527.62 260.245 527.806 260.032V261.145ZM536.312 255.983C536.056 255.834 535.63 255.696 535.204 255.696C534.32 255.696 533.451 256.298 533.217 257.107H533.121V255.818H531.502V264H533.142V259.371C533.153 258.359 533.883 257.278 535.055 257.278C535.401 257.278 535.662 257.384 535.784 257.448L536.312 255.983ZM539.236 259.318C539.236 257.906 540.126 257.161 541.058 257.161C541.979 257.161 542.651 257.821 542.651 258.913V264H544.286V258.828C544.286 256.649 543.098 255.712 541.612 255.712C540.472 255.712 539.668 256.282 539.257 257.038H539.172V255.818H537.596V264H539.236V259.318ZM550.633 253.091V264H552.263V256.154H552.364L555.459 263.888H556.801L559.901 256.164H560.002V264H561.632V253.091H559.608L556.21 261.385H556.082L552.651 253.091H550.633ZM567.216 264.165C569.49 264.165 570.971 262.455 570.971 259.936C570.971 257.411 569.49 255.712 567.216 255.712C564.936 255.712 563.461 257.411 563.461 259.936C563.461 262.455 564.936 264.165 567.216 264.165ZM567.216 262.77C565.714 262.77 565.059 261.491 565.059 259.936C565.059 258.386 565.714 257.102 567.216 257.102C568.713 257.102 569.373 258.386 569.373 259.936C569.373 261.491 568.713 262.77 567.216 262.77ZM577.459 255.983C577.204 255.834 576.777 255.696 576.351 255.696C575.467 255.696 574.599 256.298 574.364 257.107H574.269V255.818H572.649V264H574.29V259.371C574.301 258.359 575.03 257.278 576.202 257.278C576.548 257.278 576.809 257.384 576.932 257.448L577.459 255.983ZM581.826 264.165C583.706 264.165 584.857 263.153 585.198 261.976L583.685 261.56C583.413 262.295 582.817 262.77 581.82 262.77C580.478 262.77 579.684 261.928 579.557 260.415H585.304V259.728C585.304 256.878 583.605 255.712 581.719 255.712C579.397 255.712 577.948 257.485 577.948 259.994C577.948 262.53 579.423 264.165 581.826 264.165ZM581.714 257.102C582.95 257.102 583.706 257.986 583.706 259.174H579.594C579.812 257.858 580.595 257.102 581.714 257.102Z" fill="white"/>
<path d="M458.07 159C462.023 159 463.656 157.072 463.656 154.557C463.656 151.911 461.827 150.473 460.291 150.375V150.22C461.721 149.836 463.003 148.888 463.003 146.716C463.003 144.266 461.369 142.273 457.874 142.273H452.026V159H458.07ZM454.051 144.07H457.874C460.095 144.07 461.075 145.246 461.075 146.716C461.075 148.48 459.638 149.624 457.808 149.624H454.051V144.07ZM461.729 154.557C461.729 156.027 460.716 157.203 458.07 157.203H454.051V151.388H458.168C460.357 151.388 461.729 152.858 461.729 154.557ZM471.983 159.261C474.531 159.261 476.394 157.987 476.982 156.092L475.119 155.57C474.629 156.876 473.519 157.53 471.983 157.53C469.713 157.53 468.283 156.092 468.087 153.381H477.178V152.564C477.178 147.892 474.401 146.291 471.787 146.291C468.389 146.291 466.135 148.97 466.135 152.825C466.135 156.68 468.357 159.261 471.983 159.261ZM471.787 148.023C473.878 148.023 475.218 149.591 475.218 151.714H468.128C468.438 149.362 469.86 148.023 471.787 148.023ZM487.669 159H489.597V150.734C489.597 146.749 486.558 146.291 484.957 146.291C483.062 146.291 480.906 146.945 479.926 149.232L481.756 149.885C482.18 148.97 483.193 147.99 485.055 147.99C486.558 147.99 487.669 148.643 487.669 150.734V150.767C487.669 151.584 486.166 151.518 484.435 151.747C482.082 152.041 479.567 152.597 479.567 155.439C479.567 157.889 481.462 159.294 483.847 159.294C486.036 159.294 487.179 158.118 487.571 157.301H487.669V159ZM487.669 154.459C487.669 156.027 486.428 157.562 484.141 157.562C482.605 157.562 481.494 156.876 481.494 155.537C481.494 154.067 482.834 153.609 484.337 153.413C485.153 153.315 487.342 153.087 487.669 152.695V154.459ZM501.021 154.034C501.021 156.386 499.224 157.301 497.787 157.301C496.186 157.301 495.042 156.256 495.042 154.426V146.455H493.115V154.426C493.115 157.726 495.336 159.163 497.166 159.163C499.061 159.163 500.27 158.183 500.89 157.236H501.021V159H502.949V146.455H501.021V154.034ZM511.739 146.455H509.06V143.776H507.132V146.455H505.238V148.251H507.132V155.929C507.132 158.118 508.897 159.163 510.53 159.163C511.249 159.163 511.706 159.033 511.968 158.935L511.576 157.203C511.412 157.236 511.151 157.301 510.726 157.301C509.877 157.301 509.06 157.04 509.06 155.406V148.251H511.739V146.455ZM515.602 144.658C516.452 144.658 516.974 144.07 516.974 143.351C516.974 142.697 516.452 142.044 515.602 142.044C514.753 142.044 514.23 142.697 514.23 143.351C514.23 144.07 514.753 144.658 515.602 144.658ZM516.582 146.455H514.655V159H516.582V146.455ZM520.962 159H522.89V148.251H525.699V146.455H522.89V145.736C522.89 144.494 523.413 143.841 524.687 143.841C525.242 143.841 525.569 143.972 525.765 144.037L526.32 142.371C526.026 142.24 525.438 142.044 524.491 142.044C522.694 142.044 520.962 143.122 520.962 145.278V146.455H518.937V148.251H520.962V159ZM536.262 154.034C536.262 156.386 534.465 157.301 533.028 157.301C531.427 157.301 530.284 156.256 530.284 154.426V146.455H528.356V154.426C528.356 157.726 530.578 159.163 532.407 159.163C534.302 159.163 535.511 158.183 536.132 157.236H536.262V159H538.19V146.455H536.262V154.034ZM543.648 142.273H541.72V159H543.648V142.273ZM548.836 142.273H546.909V159H548.836V142.273ZM555.601 160.241C554.882 162.104 554 162.267 552.628 161.94L552.138 163.639C552.334 163.737 552.889 163.868 553.543 163.868C555.274 163.868 556.516 162.953 557.235 161.026L562.625 146.455H560.534L557.071 156.452H556.932L553.478 146.455H551.387L556.042 159.082L555.601 160.241ZM580.296 149.264C579.642 147.435 578.238 146.291 575.918 146.291C573.272 146.291 571.312 147.794 571.312 149.918C571.312 151.453 572.324 152.825 574.611 153.413L576.702 153.936C577.944 154.23 578.499 154.786 578.499 155.602C578.499 156.648 577.454 157.595 575.657 157.595C573.794 157.595 572.912 156.582 572.455 155.439L570.691 156.092C571.312 157.661 572.684 159.261 575.689 159.261C578.793 159.261 580.459 157.464 580.459 155.537C580.459 154.099 579.512 152.793 577.225 152.237L575.363 151.78C573.925 151.42 573.239 150.669 573.239 149.82C573.239 148.741 574.383 147.925 575.918 147.925C577.846 147.925 578.336 149.199 578.564 149.754L580.296 149.264ZM584.108 144.658C584.958 144.658 585.48 144.07 585.48 143.351C585.48 142.697 584.958 142.044 584.108 142.044C583.259 142.044 582.736 142.697 582.736 143.351C582.736 144.07 583.259 144.658 584.108 144.658ZM585.088 146.455H583.161V159H585.088V146.455ZM597.668 151.126C597.668 149.362 598.649 148.153 600.347 148.153C601.393 148.153 602.798 148.774 602.798 150.734V159H604.725V150.8C604.725 147.729 603.026 146.291 600.935 146.291C599.106 146.291 597.668 147.5 597.309 148.545H597.178C596.623 147.304 595.512 146.291 593.944 146.291C592.343 146.291 591.036 147.5 590.677 148.578H590.546V146.455H588.619V159H590.546V151.518C590.546 149.46 591.951 148.153 593.421 148.153C594.826 148.153 595.708 148.905 595.708 150.8V159H597.668V151.126ZM608.25 163.705H610.177V157.072H610.34C610.765 157.759 611.582 159.261 614 159.261C617.136 159.261 619.325 156.746 619.325 152.76C619.325 148.807 617.136 146.291 613.967 146.291C611.517 146.291 610.765 147.794 610.34 148.447H610.112V146.455H608.25V163.705ZM617.397 152.727C617.397 155.406 616.156 157.53 613.738 157.53C611.419 157.53 610.144 155.57 610.144 152.727C610.144 149.918 611.386 148.023 613.738 148.023C616.188 148.023 617.397 150.081 617.397 152.727ZM624.193 142.273H622.265V159H624.193V142.273ZM632.983 159.261C635.531 159.261 637.394 157.987 637.982 156.092L636.119 155.57C635.629 156.876 634.519 157.53 632.983 157.53C630.713 157.53 629.283 156.092 629.087 153.381H638.178V152.564C638.178 147.892 635.401 146.291 632.787 146.291C629.389 146.291 627.135 148.97 627.135 152.825C627.135 156.68 629.357 159.261 632.983 159.261ZM632.787 148.023C634.878 148.023 636.218 149.591 636.218 151.714H629.128C629.438 149.362 630.86 148.023 632.787 148.023ZM451.764 196.705H453.692V190.072H453.855C454.28 190.759 455.097 192.261 457.514 192.261C460.651 192.261 462.839 189.746 462.839 185.76C462.839 181.807 460.651 179.291 457.482 179.291C455.031 179.291 454.28 180.794 453.855 181.447H453.626V179.455H451.764V196.705ZM460.912 185.727C460.912 188.406 459.67 190.53 457.253 190.53C454.933 190.53 453.659 188.57 453.659 185.727C453.659 182.918 454.901 181.023 457.253 181.023C459.703 181.023 460.912 183.081 460.912 185.727ZM472.706 179.716C472.314 179.487 471.693 179.259 471.04 179.259C469.57 179.259 468.197 180.402 467.838 181.611H467.707V179.455H465.78V192H467.707V184.911C467.74 183.212 468.916 181.251 470.974 181.251C471.53 181.251 471.857 181.415 472.053 181.513L472.706 179.716ZM479.254 192.261C482.652 192.261 484.939 189.68 484.939 185.793C484.939 181.872 482.652 179.291 479.254 179.291C475.857 179.291 473.57 181.872 473.57 185.793C473.57 189.68 475.857 192.261 479.254 192.261ZM479.254 190.53C476.673 190.53 475.497 188.308 475.497 185.793C475.497 183.277 476.673 181.023 479.254 181.023C481.835 181.023 483.011 183.277 483.011 185.793C483.011 188.308 481.835 190.53 479.254 190.53ZM488.829 177.658C489.678 177.658 490.201 177.07 490.201 176.351C490.201 175.697 489.678 175.044 488.829 175.044C487.979 175.044 487.457 175.697 487.457 176.351C487.457 177.07 487.979 177.658 488.829 177.658ZM487.881 179.455V192.915C487.881 194.189 487.359 194.94 486.183 194.94H485.823V196.737H486.215C488.633 196.737 489.809 195.234 489.809 192.915V179.455H487.881ZM498.599 192.261C501.148 192.261 503.01 190.987 503.598 189.092L501.736 188.57C501.246 189.876 500.135 190.53 498.599 190.53C496.329 190.53 494.899 189.092 494.703 186.381H503.794V185.564C503.794 180.892 501.017 179.291 498.403 179.291C495.006 179.291 492.751 181.97 492.751 185.825C492.751 189.68 494.973 192.261 498.599 192.261ZM498.403 181.023C500.494 181.023 501.834 182.591 501.834 184.714H494.744C495.055 182.362 496.476 181.023 498.403 181.023ZM516.801 183.212C516.474 180.859 514.481 179.291 511.835 179.291C508.437 179.291 506.183 181.97 506.183 185.727C506.183 189.582 508.372 192.261 511.868 192.261C514.645 192.261 516.474 190.562 516.801 188.341H514.873C514.514 189.713 513.37 190.53 511.868 190.53C509.581 190.53 508.111 188.635 508.111 185.727C508.111 182.885 509.613 181.023 511.868 181.023C513.566 181.023 514.579 182.068 514.873 183.212H516.801ZM525.058 179.455H522.379V176.776H520.452V179.455H518.557V181.251H520.452V188.929C520.452 191.118 522.216 192.163 523.85 192.163C524.568 192.163 525.026 192.033 525.287 191.935L524.895 190.203C524.732 190.236 524.47 190.301 524.046 190.301C523.196 190.301 522.379 190.04 522.379 188.406V181.251H525.058V179.455ZM534.443 196.705H536.37V190.072H536.534C536.959 190.759 537.775 192.261 540.193 192.261C543.329 192.261 545.518 189.746 545.518 185.76C545.518 181.807 543.329 179.291 540.16 179.291C537.71 179.291 536.959 180.794 536.534 181.447H536.305V179.455H534.443V196.705ZM543.591 185.727C543.591 188.406 542.349 190.53 539.932 190.53C537.612 190.53 536.338 188.57 536.338 185.727C536.338 182.918 537.579 181.023 539.932 181.023C542.382 181.023 543.591 183.081 543.591 185.727ZM550.386 175.273H548.459V192H550.386V175.273ZM561.431 192H563.358V183.734C563.358 179.749 560.32 179.291 558.719 179.291C556.824 179.291 554.668 179.945 553.688 182.232L555.517 182.885C555.942 181.97 556.955 180.99 558.817 180.99C560.32 180.99 561.431 181.643 561.431 183.734V183.767C561.431 184.584 559.928 184.518 558.196 184.747C555.844 185.041 553.328 185.597 553.328 188.439C553.328 190.889 555.223 192.294 557.608 192.294C559.797 192.294 560.941 191.118 561.333 190.301H561.431V192ZM561.431 187.459C561.431 189.027 560.189 190.562 557.902 190.562C556.367 190.562 555.256 189.876 555.256 188.537C555.256 187.067 556.596 186.609 558.098 186.413C558.915 186.315 561.104 186.087 561.431 185.695V187.459ZM568.804 184.584C568.804 182.232 570.601 181.153 572.038 181.153C573.639 181.153 574.783 182.33 574.783 184.159V192H576.71V184.028C576.71 180.827 575.011 179.291 572.659 179.291C570.764 179.291 569.523 180.304 568.935 181.578H568.804V179.455H566.877V192H568.804V184.584ZM582.168 184.584C582.168 182.232 583.965 181.153 585.403 181.153C587.004 181.153 588.147 182.33 588.147 184.159V192H590.075V184.028C590.075 180.827 588.376 179.291 586.023 179.291C584.129 179.291 582.887 180.304 582.299 181.578H582.168V179.455H580.241V192H582.168V184.584ZM594.552 177.658C595.402 177.658 595.925 177.07 595.925 176.351C595.925 175.697 595.402 175.044 594.552 175.044C593.703 175.044 593.18 175.697 593.18 176.351C593.18 177.07 593.703 177.658 594.552 177.658ZM595.533 179.455H593.605V192H595.533V179.455ZM600.991 184.584C600.991 182.232 602.787 181.153 604.225 181.153C605.826 181.153 606.969 182.33 606.969 184.159V192H608.897V184.028C608.897 180.827 607.198 179.291 604.846 179.291C602.951 179.291 601.709 180.304 601.121 181.578H600.991V179.455H599.063V192H600.991V184.584ZM620.985 179.455V181.447H620.789C620.364 180.794 619.58 179.291 617.13 179.291C613.961 179.291 611.772 181.807 611.772 185.662C611.772 189.582 614.059 191.804 617.097 191.804C619.547 191.804 620.331 190.366 620.756 189.68H620.92V191.902C620.952 193.993 619.286 194.973 617.358 194.973C615.202 194.973 614.32 193.732 613.83 193.111L612.295 194.189C613.079 195.528 614.68 196.705 617.358 196.705C620.266 196.705 622.847 195.332 622.847 192.098V179.455H620.985ZM613.699 185.629C613.699 183.081 614.908 181.023 617.358 181.023C619.711 181.023 620.952 182.918 620.952 185.629C620.952 188.406 619.678 190.072 617.358 190.072C614.941 190.072 613.699 188.243 613.699 185.629Z" fill="#21282C"/>
<path fill-rule="evenodd" clip-rule="evenodd" d="M461.219 110.478L450 77H458.693L469.911 110.478H461.219ZM470.959 107.368L466.602 94.3679L471.374 80.1655L475.745 93.1899L470.959 107.368ZM472.41 77L483.628 110.478H492.319L481.102 77H472.41ZM489.027 94.3681L494.817 77H503.565L493.384 107.37L489.027 94.3681Z" fill="#21282C"/>
<path fill-rule="evenodd" clip-rule="evenodd" d="M517.626 103.399H514.129V87.5261H508.587V84.55H523.234V87.5261H517.626V103.399ZM529.408 101.159C530.926 101.159 532.014 100.583 532.509 98.8866L535.511 99.7506C534.818 102.759 532.212 103.783 529.276 103.783C525.12 103.783 522.283 101.031 522.283 96.1665C522.283 91.1743 525.021 88.2622 529.408 88.2622C533.466 88.2622 535.577 90.9183 535.577 94.6624C535.577 95.4305 535.445 96.1665 535.313 96.6465H525.615C525.747 99.3346 527.033 101.159 529.408 101.159ZM525.713 94.4702H532.212C532.245 94.2782 532.245 94.0862 532.245 93.8941C532.245 92.1981 531.123 90.822 529.243 90.822C527.231 90.822 525.944 92.1981 525.713 94.4702ZM545.809 98.8863V96.9662C542.049 96.8702 540.498 97.7343 540.498 99.3983C540.498 100.486 541.257 101.318 542.675 101.318C544.127 101.318 545.809 100.518 545.809 98.8863ZM549.24 92.9344V99.5906C549.24 100.647 549.735 100.935 550.362 100.935C550.724 100.935 551.021 100.871 551.252 100.775V103.303C550.757 103.527 550.131 103.655 549.339 103.655C547.525 103.655 546.403 102.919 546.04 101.287C545.281 103.143 543.566 103.783 541.554 103.783C538.882 103.783 537.034 102.279 537.034 99.7506C537.034 96.4865 539.673 94.6304 545.809 94.9184V93.2544C545.809 91.5903 544.853 90.8863 543.368 90.8863C541.884 90.8863 540.993 91.6863 540.894 93.1904L537.529 92.6463C537.76 89.5102 540.564 88.2622 543.599 88.2622C546.865 88.2622 549.24 89.5742 549.24 92.9344ZM565.245 91.5263C566.036 89.1902 567.95 88.2622 570.094 88.2622C572.634 88.2622 574.547 89.6062 574.547 92.7744V103.399H571.083V93.9584C571.083 92.1983 570.391 91.1103 568.741 91.1103C567.125 91.1103 565.575 92.1983 565.575 95.0144V103.399H562.144V93.9584C562.144 92.1983 561.451 91.1103 559.769 91.1103C558.152 91.1103 556.635 92.1983 556.635 95.0464V103.399H553.171V88.6142H555.975L556.404 91.4623C557.196 89.1902 559.01 88.2622 561.121 88.2622C563.232 88.2622 564.849 89.1262 565.245 91.5263ZM588.672 88.6141L590.685 95.6863C591.542 98.6625 591.707 100.967 591.707 100.967H591.839C591.839 100.967 591.938 98.6945 592.697 95.7183L594.511 88.6141H597.975L593.884 103.399H589.761L587.947 96.9664C587.188 94.3103 587.023 92.2622 587.023 92.2622H586.891C586.891 92.2622 586.726 94.2783 586 96.9664L584.285 103.399H580.162L575.939 88.6141H579.469L581.382 95.6863C582.207 98.6625 582.405 100.967 582.405 100.967H582.537C582.537 100.967 582.636 98.6304 583.427 95.6543L585.374 88.6141H588.672ZM605.667 101.159C607.185 101.159 608.273 100.583 608.768 98.8866L611.77 99.7506C611.077 102.759 608.471 103.783 605.535 103.783C601.379 103.783 598.542 101.031 598.542 96.1665C598.542 91.1743 601.28 88.2622 605.667 88.2622C609.725 88.2622 611.836 90.9183 611.836 94.6624C611.836 95.4305 611.704 96.1665 611.572 96.6465H601.873C602.005 99.3346 603.292 101.159 605.667 101.159ZM601.972 94.4702H608.47C608.503 94.2782 608.503 94.0862 608.503 93.8941C608.503 92.1981 607.382 90.822 605.502 90.822C603.489 90.822 602.203 92.1981 601.972 94.4702ZM620.485 101.159C622.002 101.159 623.091 100.583 623.586 98.8866L626.588 99.7506C625.895 102.759 623.289 103.783 620.353 103.783C616.196 103.783 613.359 101.031 613.359 96.1665C613.359 91.1743 616.097 88.2622 620.485 88.2622C624.542 88.2622 626.654 90.9183 626.654 94.6624C626.654 95.4305 626.522 96.1665 626.39 96.6465H616.691C616.823 99.3346 618.11 101.159 620.485 101.159ZM616.79 94.4702H623.288C623.321 94.2782 623.321 94.0862 623.321 93.8941C623.321 92.1981 622.2 90.822 620.319 90.822C618.307 90.822 617.021 92.1981 616.79 94.4702ZM636.167 95.4945L642.5 103.399H638.344L633.363 96.9666H632.472V103.399H629.008V82.022H632.472V94.3425H633.231L637.915 88.6142H642.005L636.167 95.4945Z" fill="#21282C"/>
</svg>
