<?xml version="1.0" encoding="UTF-8"?>
<svg width="344px" height="417px" viewBox="0 0 344 417" version="1.1" xmlns="http://www.w3.org/2000/svg" xmlns:xlink="http://www.w3.org/1999/xlink">
    <!-- Generator: Sketch 51 (57462) - http://www.bohemiancoding.com/sketch -->
    <title>Illustration</title>
    <desc>Created with Sketch.</desc>
    <defs>
        <path d="M18.8153109,0.044338474 C13.8531339,0.044338474 8.68299144,0.255717855 5.5659216,4.8560706 C3.48787505,7.92297243 1.6798241,32.6947435 0.141768766,79.1713838 C-0.172718285,80.9744818 5.34977415,83.412762 16.7092461,86.4862244 C28.068718,89.5596868 35.4485144,87.1214066 38.8486352,79.1713838 L30.2097259,3.5097933 C25.28322,1.19949008 21.4850817,0.044338474 18.8153109,0.044338474 Z" id="path-1"></path>
        <linearGradient x1="40.0516222%" y1="-47.2215821%" x2="84.5472059%" y2="98.1879733%" id="linearGradient-3">
            <stop stop-color="#B797EE" offset="0%"></stop>
            <stop stop-color="#71EBAA" offset="100%"></stop>
        </linearGradient>
        <linearGradient x1="40.0516222%" y1="-47.2215821%" x2="85.8959961%" y2="102.595759%" id="linearGradient-4">
            <stop stop-color="#EE979C" offset="0%"></stop>
            <stop stop-color="#F34A55" offset="100%"></stop>
        </linearGradient>
    </defs>
    <g id="Page-1" stroke="none" stroke-width="1" fill="none" fill-rule="evenodd">
        <g id="Visibility-ja-VMI-(When-user-before-click-&quot;Loe,-kuidas&quot;-button)-" transform="translate(-998.000000, -141.000000)">
            <rect fill="#FFFFFF" x="0" y="0" width="1440" height="4583"></rect>
            <g id="Section-1" transform="translate(120.000000, 141.000000)">
                <g id="Illustration" transform="translate(878.000000, 0.000000)">
                    <g id="Group-7" transform="translate(138.000000, 0.000000)">
                        <g id="Group-10">
                            <g id="Group-38">
                                <path d="M43.2990829,0.491892451 L138.006037,54.5150904 C140.34188,55.8475129 141.783872,58.330159 141.783872,61.0193055 L141.783872,138.062001 C141.783872,140.129755 140.107626,141.806001 138.039872,141.806001 C137.389276,141.806001 136.749908,141.636467 136.184789,141.314109 L41.4778342,87.2909107 C39.1419919,85.9584883 37.7,83.4758422 37.7,80.7866956 L37.7,3.744 C37.7,1.6762459 39.3762459,5.47895063e-13 41.444,5.47561996e-13 C42.0945961,5.47450973e-13 42.7339631,0.169534117 43.2990829,0.491892451 Z" id="Rectangle-22" fill="#E7F2FE" opacity="0.538783482"></path>
                                <g id="Group-9">
                                    <path d="M5.59908288,0.491892451 L100.306037,54.5150904 C102.64188,55.8475129 104.083872,58.330159 104.083872,61.0193055 L104.083872,138.062001 C104.083872,140.129755 102.407626,141.806001 100.339872,141.806001 C99.6892756,141.806001 99.0499085,141.636467 98.4847887,141.314109 L3.77783424,87.2909107 C1.44199191,85.9584883 -4.11156663e-15,83.4758422 -4.4408921e-15,80.7866956 L-1.77635684e-15,3.744 C-1.1113164e-15,1.6762459 1.6762459,5.47895063e-13 3.744,5.47561996e-13 C4.39459605,5.47450973e-13 5.03396313,0.169534117 5.59908288,0.491892451 Z" id="Rectangle-22" fill="#E7F2FE"></path>
                                    <path d="M24.7,54.7 L39.2526367,63.3023437 L39.2526367,88.0023437 L24.7,79.4 L24.7,54.7 Z M44.2,53.4 L58.7526367,62.0023437 L58.7526367,99.7023437 L44.2,91.1 L44.2,53.4 Z M63.7,78.1 L78.2526367,86.7023437 L78.2526367,111.402344 L63.7,102.8 L63.7,78.1 Z" id="Combined-Shape" fill="#F5FAFF"></path>
                                </g>
                            </g>
                            <g id="Group-38-Copy" opacity="0.638950893" transform="translate(37.700000, 0.000000)"></g>
                        </g>
                        <g id="Group-10-Copy" transform="translate(133.000000, 64.000000)">
                            <g id="Group-38">
                                <g id="Group-9">
                                    <path d="M21.1837634,0.500855437 L69.0640628,27.9250098 C71.3934545,29.2592036 72.8304307,31.7382455 72.8304307,34.4226708 L72.8304307,59.1010367 C72.8304307,61.1687908 71.1541848,62.8450367 69.0864307,62.8450367 C68.4335959,62.8450367 67.7921076,62.6743344 67.2256147,62.3498672 L19.3453153,34.9257129 C17.0159235,33.5915191 15.5789474,31.1124771 15.5789474,28.4280518 L15.5789474,3.74968594 C15.5789474,1.68193184 17.2551933,0.0056859429 19.3229474,0.0056859429 C19.9757822,0.0056859429 20.6172705,0.17638817 21.1837634,0.500855437 Z" id="Rectangle-22" fill="#E7F2FE" opacity="0.538783482"></path>
                                    <path d="M5.60481604,9.62585544 L53.4851154,37.0500098 C55.8145071,38.3842036 57.2514833,40.8632455 57.2514833,43.5476708 L57.2514833,68.2260367 C57.2514833,70.2937908 55.5752374,71.9700367 53.5074833,71.9700367 C52.8546485,71.9700367 52.2131602,71.7993344 51.6466673,71.4748672 L3.76636792,44.0507129 C1.43697618,42.7165191 2.10510412e-15,40.2374771 1.77635684e-15,37.5530518 L4.4408921e-16,12.8746859 C1.90862365e-16,10.8069318 1.6762459,9.13068594 3.744,9.13068594 C4.39683479,9.13068594 5.0383231,9.30138817 5.60481604,9.62585544 Z" id="Rectangle-22" fill="#E7F2FE"></path>
                                    <polygon id="Rectangle-3" fill="#F5FAFF" points="6.49122807 20.8571429 20.7719298 28.9155844 20.7719298 43.0178571 6.49122807 34.9594156"></polygon>
                                    <path d="M25.4565173,34.1843785 L46.9392104,46.0118771" id="Path-9" stroke="#F5FAFF" stroke-width="1.95" stroke-linecap="round" stroke-linejoin="round"></path>
                                    <path d="M25.4565173,40.7022356 L35.7385557,46.3631085" id="Path-9" stroke="#F5FAFF" stroke-width="1.95" stroke-linecap="round" stroke-linejoin="round"></path>
                                </g>
                            </g>
                        </g>
                        <g id="Group-9" transform="translate(133.000000, 157.000000)" fill="#E7F2FE">
                            <path d="M3.88923443,11.2488894 L23.6559179,22.5356972 C25.6821775,23.6926946 26.9328318,25.8469979 26.9328318,28.1803155 L26.9328318,54.9491908 C26.9328318,56.3851312 25.7687722,57.5491908 24.3328318,57.5491908 C23.894539,57.5491908 23.4633588,57.4383909 23.0793641,57.2270886 L3.87801285,46.661086 C1.4860065,45.3448273 3.56277871e-15,42.830984 4.4408921e-15,40.1007402 L4.4408921e-16,13.5067367 C2.68237235e-16,12.0707964 1.16405965,10.9067367 2.6,10.9067367 C3.05218628,10.9067367 3.49655459,11.0246686 3.88923443,11.2488894 Z" id="Rectangle-22"></path>
                            <path d="M19.5255981,-0.490241029 L39.2922815,10.7965668 C41.3185411,11.9535642 42.5691955,14.1078675 42.5691955,16.4411851 L42.5691955,43.2100604 C42.5691955,44.6460007 41.4051358,45.8100604 39.9691955,45.8100604 C39.5309026,45.8100604 39.0997225,45.6992605 38.7157277,45.4879582 L19.5143765,34.9219555 C17.1223701,33.6056968 15.6363636,31.0918536 15.6363636,28.3616097 L15.6363636,1.76760631 C15.6363636,0.331665957 16.8004233,-0.832393694 18.2363636,-0.832393694 C18.6885499,-0.832393694 19.1329182,-0.714461844 19.5255981,-0.490241029 Z" id="Rectangle-22-Copy-2" opacity="0.538783482"></path>
                        </g>
                    </g>
                    <g id="Group-26" transform="translate(0.000000, 79.000000)">
                        <g id="Group-12" transform="translate(78.000000, 225.000000)" fill="#85C1FF" opacity="0.104185268">
                            <polygon id="Rectangle-22" points="0 59.3459513 89.6260365 112.543601 193.119586 53.1976492 103.493549 0"></polygon>
                            <polygon id="Rectangle-22-Copy" points="37 59.3459513 126.626036 112.543601 230.119586 53.1976492 140.493549 0"></polygon>
                        </g>
                        <g id="Group-28" transform="translate(114.000000, 36.000000)">
                            <g id="Group-4-Copy" transform="translate(17.000000, 0.000000)">
                                <g id="Group-3">
                                    <path d="M84.3663927,117.634002 L84.3663927,229.840835 C84.3663927,232.458927 82.2440096,234.581311 79.6259173,234.581311 L79.6259173,234.581311 C76.9641952,234.581311 74.7640341,232.506106 74.6085784,229.848927 L68.2406948,121.003726 L84.3663927,117.634002 Z" id="Path-81" fill="#46456C"></path>
                                    <polygon id="Path-5" fill="#46456C" points="59.5828164 138.541608 74.4795188 143.23141 74.4795188 114.163509 57.4932246 114.163509"></polygon>
                                    <path d="M63.9197426,103.187721 L63.9197426,217.458309 C63.9197426,220.076401 61.7973594,222.198784 59.1792672,222.198784 L59.1792672,222.198784 C56.5183016,222.198784 54.3195,220.122699 54.1668528,217.466115 L48.3074709,115.492819 L63.9197426,103.187721 Z" id="Path-81" fill="#46456C"></path>
                                    <path d="M52.2740344,51.5938607 L34.0645634,81.797686 L14.382862,87.5349368 C0.223747487,90.1683141 -3.41140666,92.6107236 3.47739955,94.8621652 C13.8106089,98.2393276 12.8610544,89.9801354 18.7235657,90.9856557 C22.6319066,91.6560026 29.0056006,91.9906092 37.8446478,91.9894754 L57.0339737,59.5578848 L52.2740344,51.5938607 Z" id="Path-80" fill="#F4CBB2"></path>
                                    <path d="M53.3449907,45.9749668 L37.407985,71.0735662 C41.9249976,84.276709 45.7249463,88.3247745 48.8078311,83.2177627 C51.0784685,79.4562948 53.820516,71.5696689 57.0339737,59.5578848 L53.3449907,45.9749668 Z" id="Path-80" fill="#FFFFFF"></path>
                                    <g id="Path-79" transform="translate(47.794045, 41.275089)">
                                        <g id="Path-2">
                                            <mask id="mask-2" fill="white">
                                                <use xlink:href="#path-1"></use>
                                            </mask>
                                            <use id="Mask" fill="#FFFFFF" xlink:href="#path-1"></use>
                                            <path d="M16.279558,3.74734357 C18.9499176,3.74734357 21.1146716,1.43740774 21.1146716,-1.4120425 C21.1146716,-4.26149275 18.9499176,-6.57142857 16.279558,-6.57142857 C13.6091985,-6.57142857 11.4444444,-4.26149275 11.4444444,-1.4120425 C11.4444444,1.43740774 13.6091985,3.74734357 16.279558,3.74734357 Z" id="Oval-4" fill="#BAD4F0" mask="url(#mask-2)"></path>
                                            <path d="M30.8237244,30.3325547 C31.9082751,44.2671657 33.3069937,52.707263 35.0198802,55.6528464 C37.5892099,60.0712216 42.8187663,63.260784 45.9151093,55.6528464 C47.979338,50.5808881 47.979338,41.6574343 45.9151093,28.8824851 L30.8237244,30.3325547 Z" fill="#DD8357" mask="url(#mask-2)"></path>
                                        </g>
                                    </g>
                                    <g id="Group-2" transform="translate(43.749380, 0.000000)">
                                        <path d="M19.8390428,39.2113341 C25.5576084,39.2113341 34.7146402,31.3575523 34.7146402,21.6694215 C34.7146402,11.9812907 29.7836687,4.12750885 19.8390428,4.12750885 C9.89441692,4.12750885 4.04466501,11.9812907 4.04466501,21.6694215 C4.04466501,31.3575523 14.1204772,39.2113341 19.8390428,39.2113341 Z" id="Oval-23" fill="#F4CBB2"></path>
                                        <path d="M1.74622582,7.85345221 C-0.56388464,17.2018164 -0.259522661,21.707042 2.65931175,21.3691291 C4.4831874,21.1579794 14.2255276,9.46149408 17.09438,8.94881406 C20.480896,8.34362466 23.1627536,12.3858422 22.0474953,14.1621117 C20.4498391,16.7066955 23.4329743,16.7066955 24.053843,18.0546875 C24.5958055,19.2313633 26.2912047,20.0817835 26.6418075,21.3691291 C27.3382692,23.9264015 28.3534094,26.0347134 29.4121523,27.4908486 C29.8380385,28.0765885 30.3429898,21.0076742 30.7650822,21.3691291 C31.8863927,22.329353 32.8591283,30.0006085 33.491635,29.036662 C35.7073158,25.6599426 39.2018274,14.8271259 33.491635,7.85345221 C32.1541159,6.21998337 27.8260148,5.06713601 25.6998987,3.96401929 C20.6612598,1.34976555 15.70433,-0.41775515 11.4725496,2.00782749 C10.1119442,2.7877028 6.86983622,4.73624438 1.74622582,7.85345221 Z" id="Combined-Shape" fill="#5D483E"></path>
                                        <g id="Group-5" transform="translate(30.625310, 16.510035)">
                                            <path d="M2.03987855,8.25501771 C4.29835315,8.25501771 6.12920857,6.40706905 6.12920857,4.12750885 C6.12920857,1.84794866 4.29835315,0 2.03987855,0 C-0.218596064,0 0.0061956204,1.84794866 0.0061956204,4.12750885 C0.0061956204,6.40706905 -0.218596064,8.25501771 2.03987855,8.25501771 Z" id="Oval-5" fill="#F4CBB2"></path>
                                            <path d="M1.01993927,6.19126328 C2.14917658,6.19126328 3.06460429,5.26728895 3.06460429,4.12750885 C3.06460429,2.98772876 2.14917658,2.06375443 1.01993927,2.06375443 C-0.109298032,2.06375443 0.0030978102,2.98772876 0.0030978102,4.12750885 C0.0030978102,5.26728895 -0.109298032,6.19126328 1.01993927,6.19126328 Z" id="Oval-5" fill="#E79F74"></path>
                                        </g>
                                        <path d="M7.31828478,10.9613772 L4.43189197,17.6315973 C1.740362,15.6663011 1.740362,13.4428944 4.43189197,10.9613772 C7.12342193,8.47986008 9.72056629,7.70485882 12.2233251,8.63637345 L7.31828478,10.9613772 Z" id="Path-75" fill="#5D483E"></path>
                                        <path d="M6.95790736,30.1891044 C9.64552104,28.4350121 12.9762993,27.5135789 16.9502421,27.4248047 C20.924185,27.3360305 24.0335677,27.7967471 26.2783904,28.8069545 L27.3600884,21.2095424 L29.9146518,23.5222168 C30.8092813,31.5995977 29.9577601,36.3348447 27.3600884,37.7279576 C23.4635807,39.817627 10.3482921,41.8976702 8.78601686,39.4823172 C7.74450004,37.8720819 7.13513021,34.7743443 6.95790736,30.1891044 Z" id="Path-11" fill="#5D483E"></path>
                                    </g>
                                    <path d="M83.9301043,53.2918227 C91.7999347,65.8691698 97.6264313,76.6356934 101.409594,85.5913933 C102.804574,88.8936625 101.668487,88.3839316 98.9441154,91.6163873 C95.3533984,95.8767583 80.9245799,99.3391113 64.1323165,97.61363 C60.2598698,97.2157185 50.6960121,100.191162 48.3139803,98.7294573 C45.9319485,97.2677531 48.7908988,92.9920231 52.2216642,91.4192243 C54.5088411,90.3706918 57.8717885,90.6685822 62.3105065,92.3128953 L88.4327602,87.533217 L78.3262446,72.218305 L83.9301043,53.2918227 Z" id="Combined-Shape" fill="#F4CBB2"></path>
                                    <polygon id="Path-8" fill="#EFB592" points="86.7619853 85.3848164 99.3105178 81.0456921 95.7792775 73.5348553 85.6063702 79.921359"></polygon>
                                    <path d="M77.9301525,45.2820522 C90.7190237,60.5487859 98.2716176,70.4888756 100.587934,75.1023212 C101.143121,76.2080948 95.5905106,79.6040189 83.9301043,85.2900933 L78.3262446,72.218305 L71.1701389,43.9351981 L77.9301525,45.2820522 Z" id="Path-78" fill="#FFFFFF"></path>
                                    <path d="M84.3260476,237.256685 C74.1945242,246.557378 68.3123855,250.549244 66.6796316,249.232284 C65.0468776,247.915324 67.5485462,241.196809 74.1846372,229.076741 L84.3260476,229.076741 L84.3260476,237.256685 Z" id="Path-83" fill="#FFFFFF"></path>
                                    <path d="M63.8793975,224.874158 C53.7478741,234.174851 47.8657354,238.166718 46.2329814,236.849757 C44.6002275,235.532797 47.101896,228.814283 53.7379871,216.694215 L63.8793975,216.694215 L63.8793975,224.874158 Z" id="Path-83-Copy" fill="#FFFFFF"></path>
                                </g>
                            </g>
                            <g id="Group-19" transform="translate(0.000000, 87.000000)">
                                <path d="M39.6987523,31.8372953 L49.8404846,31.8372953 L49.8404846,167.648286 C49.8404846,170.448848 47.5701805,172.719152 44.7696184,172.719152 L44.7696184,172.719152 C41.9690564,172.719152 39.6987523,170.448848 39.6987523,167.648286 L39.6987523,31.8372953 Z" id="Rectangle-57" fill="#4272C7"></path>
                                <ellipse id="Oval-38" fill="#4272C7" cx="45.6846033" cy="27.1303047" rx="45.6846033" ry="23.8417829"></ellipse>
                                <ellipse id="Oval-38" fill="#FFFFFF" cx="45.6846033" cy="23.8417829" rx="45.6846033" ry="23.8417829"></ellipse>
                            </g>
                            <g id="Group-11" transform="translate(7.000000, 61.000000)">
                                <path d="M40.029949,21.4326573 L81.671429,44.7322389 C82.7558585,45.3390077 83.143079,46.7099949 82.5363101,47.7944245 C82.3198012,48.1813735 81.9937882,48.4957256 81.5992131,48.6980031 L48.1829306,65.8287393 L4.96318639,41.6460744 C3.87875686,41.0393056 3.4915364,39.6683184 4.09830528,38.5838888 C4.31481419,38.1969398 4.64082715,37.8825877 5.03540225,37.6803102 L36.842316,21.3746111 C37.8476105,20.8592505 39.044084,20.8810381 40.029949,21.4326573 Z" id="Rectangle-6" fill="#DEEEFF"></path>
                                <path d="M34.8253408,27.0997892 L68.9667037,45.7213687 L46.3243473,57.1186145 C45.6645696,57.4507199 44.8838089,57.437839 44.2353454,57.0841502 L14.89757,41.0825712 C13.8066481,40.4875542 13.4046376,39.1208307 13.9996546,38.0299088 C14.2186485,37.6283987 14.5547996,37.3031592 14.9633151,37.0975291 L34.8253408,27.0997892 Z" id="Rectangle-6" fill="#BAD4F0"></path>
                                <path d="M5.00972473,1.15337782 L44.5916195,24.0089572 C46.3318465,25.0138079 47.4038462,26.8706861 47.4038462,28.8801922 L47.4038462,66.3392448 L46.1563136,67 L2.68408049,39.5741861 C2.03081622,39.162054 1.63461538,38.4436403 1.63461538,37.6712368 L1.63461538,3.10187184 C1.63461538,1.85923116 2.6419747,0.851871845 3.88461538,0.851871845 C4.2796157,0.851871845 4.66765551,0.95585847 5.00972473,1.15337782 Z" id="Rectangle-6" fill="#FFFFFF"></path>
                                <path d="M3.35931684,1.1804575 L42.9175229,23.5978036 C44.6799637,24.596566 45.7692308,26.4658588 45.7692308,28.4916238 L45.7692308,65.3658537 L1.14068316,40.075182 C0.435706816,39.6756771 -6.11801507e-15,38.92796 -6.21724894e-15,38.117654 L-5.77315973e-15,3.13798557 C-5.92533932e-15,1.89534488 1.00735931,0.887985568 2.25,0.887985568 C2.63883216,0.887985568 3.02102801,0.98875169 3.35931684,1.1804575 Z" id="Rectangle-6" fill="#DEEEFF"></path>
                                <path d="M22.8846154,35.5191078 C24.6901617,36.527937 26.1538462,35.7101371 26.1538462,33.6925006 C26.1538462,31.674864 24.6901617,29.2214288 22.8846154,28.2125996 C21.0790691,27.2037703 19.6153846,28.0215702 19.6153846,30.0392067 C19.6153846,32.0568433 21.0790691,34.5102785 22.8846154,35.5191078 Z" id="Oval-8" fill="#FFFFFF"></path>
                            </g>
                        </g>
                        <g id="Group-62" transform="translate(0.000000, 146.000000)">
                            <polygon id="Rectangle-34-Copy" fill="#FFC76C" points="0 5.4 59.0526316 39.0801878 59.0526316 99 0 65.3198122"></polygon>
                            <polygon id="Rectangle-34-Copy" fill="#FFC76C" opacity="0.404464286" points="8.94736842 0 68 33.6801878 68 93.6 8.94736842 59.9198122"></polygon>
                            <g id="Group-61" transform="translate(16.105263, 36.000000)">
                                <path d="M13.1231945,27.8691266 C20.3709346,32.0666592 26.2463889,29.6952784 26.2463889,22.5724993 C26.2463889,15.4497201 20.3709346,6.27279422 13.1231945,2.07526156 C5.8754543,-2.1222711 0,0.249109707 0,7.37188885 C0,14.494668 5.8754543,23.6715939 13.1231945,27.8691266 Z" id="Oval-8" stroke="#FFFFFF" stroke-width="2.7"></path>
                                <path d="M23.9868273,15.2025748 C28.2352408,17.4115662 31.6792605,16.0477628 31.6792605,12.1564346 C31.6792605,8.26510639 28.2352408,3.31982024 23.9868273,1.11082883 C19.7384137,-1.09816257 16.294394,0.265640864 16.294394,4.15696907 C16.294394,8.04829728 19.7384137,12.9935834 23.9868273,15.2025748 Z" id="Oval-7" fill="#FFFFFF"></path>
                                <polyline id="Rectangle-5" stroke="#FFC76C" stroke-width="2.7" stroke-linecap="round" stroke-linejoin="round" points="27.6389537 8.64058414 23.7993972 10.1610169 21.2396929 6.48552386"></polyline>
                                <polyline id="Path-124" stroke="#FFFFFF" stroke-width="2.7" stroke-linecap="round" stroke-linejoin="round" points="12.4239104 5.53862473 12.4239104 15.141312 22.2810444 21.7454135"></polyline>
                            </g>
                        </g>
                        <g id="Group-63" transform="translate(283.000000, 155.000000)">
                            <polygon id="Rectangle-34-Copy-2" fill="url(#linearGradient-3)" points="0 3.6 44.8275862 28.212445 44.8275862 72 0 47.387555"></polygon>
                            <polygon id="Rectangle-34-Copy-2" fill="url(#linearGradient-3)" opacity="0.225334821" points="7.17241379 0 52 24.612445 52 68.4 7.17241379 43.787555"></polygon>
                            <g id="Group-13" transform="translate(5.000000, 29.000000)" stroke="#FFFFFF" stroke-linecap="round" stroke-linejoin="round" stroke-width="4">
                                <polyline id="Path-10" points="0 6.26923988 8.05636358 0.0992663724 16.4793522 15.1707718 33.4649556 9.5204738"></polyline>
                                <polyline id="Rectangle-4" points="28.2964849 5.03197942 34 8 34 14"></polyline>
                            </g>
                        </g>
                        <g id="Group-7-Copy-2" transform="translate(13.000000, 0.000000)">
                            <polygon id="Rectangle-34" fill="url(#linearGradient-4)" points="0 1.8 39.6 23.8216613 39.6 63 0 40.9783387"></polygon>
                            <polygon id="Rectangle-34" fill="url(#linearGradient-4)" opacity="0.295145089" points="5.4 0 45 22.0216613 45 61.2 5.4 39.1783387"></polygon>
                            <path d="M22.200524,35.5823729 L16.3241921,32.0591683 C17.1275109,34.2145522 18.8772052,36.1980614 21.1331004,37.5875702 C22.0354585,38.1433737 22.9598253,38.6514712 23.4,38.8200508 L23.4,41.4 C22.8167686,41.1443677 21.991441,40.6841591 21.1220961,40.1349332 C16.8744105,37.4513734 13.7821834,33.7247121 12.8248035,29.9610802 L10.8,28.7470922 L10.8,27.2540223 L12.53869,28.2792863 C12.5166812,28.0273787 12.5056769,27.7819945 12.5056769,27.5335257 C12.5056769,27.3041699 12.5166812,27.0907749 12.5276856,26.8773482 L10.8,25.8743501 L10.8,24.3812802 L12.8027948,25.5241992 C13.7491703,22.8464138 16.8524017,22.7244062 21.1220961,25.0220906 C21.8924017,25.4366213 22.8277729,26.031799 23.3559825,26.4596379 L23.3559825,29.0081879 C22.8057642,28.5905259 21.9804367,28.061869 21.1771179,27.6168106 C18.8882096,26.3486988 17.1055022,26.2765451 16.3021834,27.5211674 L22.200524,30.8871265 L22.200524,32.4928601 L15.8730131,28.8194593 C15.8510044,29.0312941 15.84,29.2494857 15.84,29.4838467 C15.84,29.7377379 15.8510044,29.9981015 15.8840175,30.2519461 L22.200524,33.9766393 L22.200524,35.5823729 Z" id="€" fill="#FFFFFF"></path>
                        </g>
                    </g>
                </g>
            </g>
        </g>
    </g>
</svg>