<?xml version="1.0" encoding="UTF-8" standalone="no"?>
<svg
   xmlns:dc="http://purl.org/dc/elements/1.1/"
   xmlns:cc="http://creativecommons.org/ns#"
   xmlns:rdf="http://www.w3.org/1999/02/22-rdf-syntax-ns#"
   xmlns:svg="http://www.w3.org/2000/svg"
   xmlns="http://www.w3.org/2000/svg"
   xmlns:sodipodi="http://sodipodi.sourceforge.net/DTD/sodipodi-0.dtd"
   xmlns:inkscape="http://www.inkscape.org/namespaces/inkscape"
   xml:space="preserve"
   style="enable-background:new 0 0 798 454;"
   viewBox="0 0 798 454"
   y="0px"
   x="0px"
   id="Calque_1"
   version="1.1"
   sodipodi:docname="monarch.svg"
   inkscape:version="0.92.3 (2405546, 2018-03-11)"><sodipodi:namedview
   pagecolor="#ffffff"
   bordercolor="#666666"
   borderopacity="1"
   objecttolerance="10"
   gridtolerance="10"
   guidetolerance="10"
   inkscape:pageopacity="0"
   inkscape:pageshadow="2"
   inkscape:window-width="1366"
   inkscape:window-height="692"
   id="namedview7"
   showgrid="false"
   inkscape:zoom="0.72932331"
   inkscape:cx="241.8719"
   inkscape:cy="234.36245"
   inkscape:window-x="0"
   inkscape:window-y="0"
   inkscape:window-maximized="1"
   inkscape:current-layer="Calque_1" /><metadata
   id="metadata25"><rdf:RDF><cc:Work
       rdf:about=""><dc:format>image/svg+xml</dc:format><dc:type
         rdf:resource="http://purl.org/dc/dcmitype/StillImage" /><dc:title /></cc:Work></rdf:RDF></metadata><defs
   id="defs23" />
<style
   id="style2"
   type="text/css">
	.st0{opacity:0.2;}
	.st1{fill:#FFFFFF;}
</style>








<path
   id="path856"
   d="m 32.460409,347.62459 c -1.289548,-1.28955 1.435804,-5.23525 6.0562,-8.76811 5.923145,-4.52884 8.738926,-20.70056 9.54676,-54.82912 0.981159,-41.4455 -0.450087,-49.64673 -9.953141,-57.03651 -10.173346,-7.91104 -8.731918,-8.50527 17.284808,-7.12565 27.783904,1.47338 28.601504,2.06109 38.691076,27.80952 5.669061,14.46738 13.479228,34.19562 17.355828,43.84052 l 7.04839,17.53624 13.81468,-39.4303 c 7.59809,-21.68663 15.4477,-42.07248 17.44357,-45.30189 1.99585,-3.22935 15.96819,-5.73365 31.04955,-5.565 26.6322,0.29811 27.04249,0.57051 14.26852,9.48108 -11.73623,8.18677 -13.15215,14.09653 -13.15215,54.8933 0,40.61808 1.44953,46.73402 12.99147,54.81837 7.14529,5.00474 11.09095,9.26399 8.7681,9.46489 -2.32285,0.20109 -18.69073,0.36535 -36.37308,0.36535 -17.68236,0 -34.05025,-0.16367 -36.37309,-0.36535 -2.32286,-0.20107 1.62273,-4.46015 8.7681,-9.46489 10.81534,-7.57534 12.99148,-14.62517 12.99148,-42.08689 0,-38.63526 -4.89753,-35.54024 -23.18616,14.65266 -7.32142,20.09358 -16.6127,36.53379 -20.64726,36.53379 -4.03455,0 -13.045477,-13.80978 -20.02419,-30.68838 -23.552713,-56.96371 -23.005001,-56.53916 -23.42785,-18.16161 -0.295201,26.79124 1.8306,36.76269 8.372492,39.27305 16.370862,6.28206 8.859521,12.49964 -15.10062,12.49964 -13.12784,0 -24.923861,-1.05516 -26.213483,-2.34471 z m 202.062721,-2.05927 c -22.18815,-11.58326 -31.75406,-35.49505 -22.186,-55.45817 22.15625,-46.22739 92.33086,-33.55402 92.33086,16.67467 0,33.09475 -39.35769,54.85583 -70.14486,38.7835 z m 37.36973,-13.61027 c 6.71842,-17.50798 3.52946,-47.79191 -5.85252,-55.57828 -7.98716,-6.62876 -10.62391,-6.12891 -17.53622,3.32421 -9.98712,13.6582 -10.63152,44.97531 -1.12097,54.48574 9.72512,9.72517 20.29068,8.76312 24.50985,-2.23167 z m 40.64007,13.63019 c -1.49016,-2.41121 0.0749,-4.38405 3.48088,-4.38405 3.60655,0 6.1904,-13.41906 6.1904,-32.14971 0,-18.73062 -2.58385,-32.14974 -6.1904,-32.14974 -3.4047,0 -4.75207,-2.32717 -2.99425,-5.17144 4.6073,-7.45474 37.77769,-11.3441 39.99583,-4.68965 1.06886,3.2065 7.20301,2.2776 14.32307,-2.16887 9.78993,-6.11395 15.67188,-6.31107 27.50024,-0.92169 13.74025,6.26047 15.04658,9.91151 15.04658,42.0534 0,19.56826 2.59567,35.19777 5.84542,35.19777 3.21498,0 5.84539,1.97288 5.84539,4.38403 0,2.41124 -11.83694,4.38408 -26.3043,4.38408 -25.39309,0 -32.65799,-4.15135 -20.45893,-11.69083 8.10244,-5.00757 7.36761,-53.90059 -0.8868,-59.0021 -3.70271,-2.28835 -10.2788,0.68952 -14.61353,6.6177 -9.19415,12.57375 -10.53722,47.13032 -2.03582,52.3844 11.90041,7.35493 5.18954,11.69083 -18.09441,11.69083 -13.16689,0 -25.15909,-1.97289 -26.64931,-4.38408 z m 118.22882,-1.87901 c -10.82113,-10.82107 -10.93571,-11.69454 -3.38513,-25.8029 3.19029,-5.96113 15.02723,-13.88354 26.3043,-17.60523 13.98456,-4.61537 20.50381,-10.33989 20.50381,-18.00439 0,-15.04394 -10.31514,-14.20322 -23.4911,1.9146 -8.3031,10.15705 -12.35385,11.57773 -17.78796,6.23829 -18.90236,-18.57285 22.24259,-38.02958 54.49209,-25.76836 14.73532,5.60235 16.01401,8.61723 16.01401,37.75757 0,29.24083 5.14407,38.76521 20.93702,38.76521 5.81744,0 1.78926,-56.77115 -4.47245,-63.03298 -8.61466,-8.61468 -6.5862,-10.37671 17.1465,-14.89421 11.28229,-2.14766 18.99758,-1.21802 18.99758,2.2887 0,3.75053 4.51411,3.48906 12.37271,-0.71671 9.75709,-5.22181 14.22849,-4.76598 21.15061,2.15608 11.85805,11.85801 4.18438,22.25791 -14.96493,20.2815 -14.27862,-1.47363 -15.79715,0.35541 -17.49581,21.0768 -1.02314,12.4798 0.94975,25.50046 4.38403,28.93479 3.4343,3.4343 6.23758,7.69093 6.22951,9.45916 -0.0233,5.0239 -78.03241,3.67751 -86.08421,-1.48578 -3.95232,-2.5344 -12.32825,-1.85597 -18.6133,1.50765 -15.48587,8.28777 -21.44731,7.72008 -32.23728,-3.06994 z m 42.45354,-25.53434 c 1.32707,-9.06776 -0.54656,-12.52151 -5.84542,-10.77507 -4.28929,1.4137 -8.67763,8.57568 -9.75189,15.91564 -1.32707,9.06772 0.54656,12.52154 5.8454,10.77505 4.28926,-1.4137 8.67763,-8.57566 9.75191,-15.91562 z m 147.10457,30.88031 c -14.47439,-5.53108 -23.38162,-20.69956 -23.38162,-39.81741 0,-36.33476 31.67092,-57.53913 65.19813,-43.65175 18.14483,7.51584 21.99431,21.32072 7.49667,26.88401 -5.60685,2.15165 -12.59031,-1.41703 -18.06289,-9.23023 -7.06585,-10.08794 -10.63646,-11.31501 -17.16345,-5.89808 -8.49682,7.05171 -10.94406,32.4817 -4.69332,48.77073 4.16338,10.84966 26.16343,12.26891 36.1032,2.32917 3.80442,-3.80437 8.77717,-5.05698 11.05062,-2.78352 11.74101,11.74102 -35.69153,31.36671 -56.54734,23.39708 z m 60.47357,-3.46706 c -1.49016,-2.41123 0.0753,-4.38407 3.48089,-4.38407 8.85176,0 8.18404,-100.88547 -0.72665,-109.79615 -8.6146,-8.61466 -6.5862,-10.37673 17.14656,-14.89428 l 18.99752,-3.6162 v 28.57317 28.57309 l 17.24341,-6.50863 c 26.78873,-10.11162 41.21069,6.13517 41.21069,46.42525 0,19.90781 2.4743,31.24375 6.81966,31.24375 3.75075,0 5.13846,1.68109 3.0838,3.73587 -2.05468,2.0546 -14.33206,4.02747 -27.28302,4.38405 -22.84267,0.62873 -29.67648,-3.63631 -17.69286,-11.04262 10.04076,-6.2056 7.1359,-55.40304 -3.51269,-59.48927 -5.14687,-1.9751 -11.68268,0.0795 -14.52396,4.56749 -7.0609,11.15123 -6.70269,50.47003 0.50038,54.92178 11.90041,7.35493 5.18954,11.69081 -18.09441,11.69081 -13.16689,0 -25.15907,-1.97288 -26.64932,-4.38404 z M 34.996318,202.89325 c -3.628004,-4.3732 -3.541257,-8.0773 0.243762,-10.41668 8.032108,-4.96411 1.75952,-20.5386 -16.024878,-39.78967 C 7.1041638,139.57711 6.1839874,136.61203 14.22668,136.61203 c 5.423939,0 9.861712,-2.52458 9.861712,-5.61006 0,-3.08557 7.886095,-5.05839 17.524641,-4.38411 20.138242,1.40891 19.729812,0.8135 10.592745,15.44424 -12.995567,20.80917 14.619416,39.79241 30.336654,20.85426 5.812379,-7.00345 5.781877,-10.56956 -0.152512,-17.71895 -6.142474,-7.40123 -5.518583,-10.34736 3.603864,-17.01783 6.067818,-4.43691 13.034206,-6.82991 15.480856,-5.31776 2.44672,1.51205 4.44854,-2.66679 4.44854,-9.28647 0,-7.0315 3.80938,-12.03575 9.16202,-12.03575 6.71666,0 8.09677,3.35625 5.17085,12.57505 -3.17336,9.99832 -2.05618,11.83255 5.45153,8.95154 5.19341,-1.99299 9.44261,-0.79422 9.44261,2.66386 0,3.45802 4.23857,4.66089 9.41893,2.67299 7.2233,-2.77186 8.43458,-1.21421 5.19611,6.68135 -7.26736,17.71848 -6.18848,25.99282 4.27287,32.76933 7.93865,5.14238 12.32358,4.35144 20.34463,-3.66961 8.47304,-8.47297 8.99259,-12.19809 3.03237,-21.74188 -9.40695,-15.0629 -9.8329,-14.41196 10.35536,-15.82437 9.63856,-0.67428 17.5246,1.29844 17.5246,4.38411 0,3.08548 4.1795,5.61006 9.28775,5.61006 7.22008,0 5.91877,4.00368 -5.84539,17.98467 -16.47043,19.57392 -18.57612,28.84285 -8.77841,38.64053 11.64289,11.64287 -5.59855,14.88263 -83.4041,15.672 -51.370476,0.52141 -77.750556,-1.42453 -81.55959,-6.01598 z m 21.241968,-42.89958 c -4.770013,-7.71817 1.618299,-17.53624 11.410407,-17.53624 11.430402,0 15.656633,15.99272 5.278641,19.97516 -11.721027,4.4978 -12.469472,4.38843 -16.689048,-2.43892 z m 100.467904,2.0703 c -8.03066,-8.0307 -3.86522,-20.43413 6.21074,-18.49369 5.62619,1.08343 10.22945,5.66045 10.22945,10.17095 0,9.22907 -10.31298,14.4499 -16.44019,8.32274 z"
   style="fill:#000000;fill-opacity:0.2;stroke-width:5.84540558"
   inkscape:connector-curvature="0"
   sodipodi:nodetypes="cccccsscscccsccsccssscscscscsscscccccsssccccssssccccscccscsccsssccsccccccccccccccccscccccccccscsccccssccccccsccccsscsccccssccsccccccssccccccsscccsc" /></svg>