<svg xmlns="http://www.w3.org/2000/svg" xmlns:xlink="http://www.w3.org/1999/xlink" width="419.999" height="316.8" viewBox="0 0 419.999 316.8"><defs><linearGradient id="a" x1="1.176" y1="0.71" x2="1.176" y2="1.71" gradientUnits="objectBoundingBox"><stop offset="0" stop-color="gray" stop-opacity="0.251"/><stop offset="0.54" stop-color="gray" stop-opacity="0.122"/><stop offset="1" stop-color="gray" stop-opacity="0.102"/></linearGradient><linearGradient id="b" x1="0.788" y1="-0.799" x2="0.788" y2="0.201" xlink:href="#a"/></defs><g transform="translate(-0.016 -0.004)"><path d="M258.678,43.391c-18.022,15.3-41.4,14.308-61.882,6.348s-39.3-22.129-59.26-32.2A166.375,166.375,0,0,0,85.474,1.082c-25.437-3.53-53.843.779-71.565,25.5C-5.828,54.123-4.312,103.8,17.026,129.062,27.886,141.921,42.1,148.233,54.5,158.286S78.386,185,77.33,204.383c-.978,17.924-12.344,31.707-24.108,40.345-9.091,6.675-20.286,13.965-21.381,27.794-1.06,13.377,8.354,23.863,17.344,29.825,29.326,19.448,65.463,19.261,94.687-.491,10.42-7.049,19.99-16.424,30.92-21.911,28.7-14.417,60.323.094,90.713,5.4a150.948,150.948,0,0,0,77.153-6.811c15.049-5.389,30.156-13.638,40.727-28.975,7.626-11.066,12.376-25.075,16.833-38.908q7.131-22.121,13.712-44.562c2.63-8.982,5.221-18.135,5.9-27.74,1.231-17.41-3.959-34.621-11.027-49.312-16.783-34.886-45.049-59.415-75.66-65.646s-63,5.938-86.738,32.568" transform="translate(0 0)" fill="#ede8f2"/><ellipse cx="10.494" cy="1.773" rx="10.494" ry="1.773" transform="translate(182.421 308.991)" fill="#646b74" opacity="0.1"/><g transform="translate(114.437 37.295)"><circle cx="42.644" cy="42.644" r="42.644" transform="translate(30.715 30.715)" fill="#00a9dd"/><circle cx="61.977" cy="61.977" r="61.977" transform="translate(11.382 11.382)" fill="#00a9dd"/><circle cx="73.359" cy="73.359" r="73.359" fill="#fff"/><circle cx="28.038" cy="28.038" r="28.038" transform="translate(45.321 45.321)" fill="#fff"/></g><g transform="translate(113.71 36.567)"><circle cx="39.788" cy="39.788" r="39.788" transform="translate(34.299 34.299)" fill="none" stroke="#a8a8a8" stroke-miterlimit="10" stroke-width="1" stroke-dasharray="3 6"/><circle cx="57.826" cy="57.826" r="57.826" transform="translate(16.26 16.26)" fill="none" stroke="#a8a8a8" stroke-miterlimit="10" stroke-width="1" stroke-dasharray="3 6"/><circle cx="74.087" cy="74.087" r="74.087" fill="none" stroke="#a8a8a8" stroke-miterlimit="10" stroke-width="1" stroke-dasharray="3 6"/></g><ellipse cx="88.445" cy="4.037" rx="88.445" ry="4.037" transform="translate(102.326 203.471)" fill="#646b74" opacity="0.1"/><ellipse cx="5.56" cy="1.839" rx="5.56" ry="1.839" transform="translate(376.312 155.259)" fill="#646b74" opacity="0.1"/><ellipse cx="32.747" cy="5.373" rx="32.747" ry="5.373" transform="translate(36.836 248.618)" fill="#646b74" opacity="0.1"/><g transform="translate(21.862 105.102)" opacity="0.1"><path d="M161.206,269.72H61.3a5.237,5.237,0,0,0-5.221,5.221v63.125a5.237,5.237,0,0,0,5.221,5.221h78.372s2.03,10.778-4.641,11.939c0,0,14.94,1.072,12.329-11.939h13.845a5.237,5.237,0,0,0,5.221-5.221V274.941A5.237,5.237,0,0,0,161.206,269.72Z" transform="translate(-56.08 -269.72)"/><g transform="translate(14.706 16.755)" opacity="0.2"><rect width="80.932" height="4.933" rx="2.467"/><rect width="80.932" height="4.933" rx="2.467" transform="translate(0 22.047)"/><rect width="67.871" height="4.933" rx="2.467" transform="translate(0 33.067)"/><rect width="35.093" height="4.933" rx="2.467" transform="translate(0 11.023)"/></g></g><path d="M163.44,268.6H63.531a5.237,5.237,0,0,0-5.221,5.221v63.125a5.237,5.237,0,0,0,5.221,5.221H141.9s2.034,10.778-4.641,11.935c0,0,14.94,1.072,12.329-11.935H163.44a5.233,5.233,0,0,0,5.218-5.221V273.821A5.233,5.233,0,0,0,163.44,268.6Z" transform="translate(-35.579 -163.935)" fill="#fff"/><g transform="translate(37.44 121.421)" opacity="0.2"><rect width="80.932" height="4.933" rx="2.467" fill="#383c40"/><rect width="80.932" height="4.933" rx="2.467" transform="translate(0 22.047)" fill="#383c40"/><rect width="67.871" height="4.933" rx="2.467" transform="translate(0 33.07)" fill="#383c40"/><rect width="35.093" height="4.933" rx="2.467" transform="translate(0 11.023)" fill="#383c40"/></g><path d="M201.569,255.9l-5.537,11.776a10.084,10.084,0,0,1-1.344,2.618c-.526.409-2.852,7.4-2.852,7.4l-5.935,9.173h0l-.39.623-2.338-.643-1.633-6.106.1-1.773v-.222s3.674-3.842,4.489-4.134c0,0,.639.074,1.866-2.9s2.338-3.624,2.338-3.624l.639-2.159,6.881-10.953s5.767-8.272,7.337-4.6S201.569,255.9,201.569,255.9Z" transform="translate(-110.792 -152.24)" fill="#ffd2c6"/><path d="M149.214,475.376a1.327,1.327,0,0,1-.187.565c-.639.931-4.251,19.986-4.251,19.986.288,1.286-.522,3.85-1.052,5.015a72.141,72.141,0,0,0-1.691,7.224s-.288,13.054-1.044,15.092.242,6.41.242,6.41a9.813,9.813,0,0,0,1.851,5.218c.055.07.1.14.14.2.234.335.39.526.39.526a3.036,3.036,0,0,0,.814,1.009c.051.043.105.082.164.125a9.271,9.271,0,0,0,3.265,1.379l.113.023c.468.105.779.144.779.144l.288,1.559-3.086.639-5.884.39s-6.936.526-5.362-2.564a4.869,4.869,0,0,0,.284-.655h0c.058-.148.113-.3.16-.46a15.994,15.994,0,0,0,.308-6.578l-1.356-10.5c-2.209-9.788,1.746-20.687,1.746-20.687s-.347-.873.413-3.086,0-7.049,0-7.049-.39-6.235-.931-9.325a18.818,18.818,0,0,1-.21-3.924,19.591,19.591,0,0,1,.21-2.3l13.287-1.761A10.252,10.252,0,0,1,149.214,475.376Z" transform="translate(-81.427 -288.072)" fill="#ffd2c6"/><path d="M150.628,637.944l-3.086.639-5.884.39s-6.936.526-5.362-2.564a4.879,4.879,0,0,0,.284-.655h0c.058-.148.113-.3.16-.46a10.672,10.672,0,0,1,3.507.709c1.976.779,3.464-1.227,3.464-1.227l.959-1.831.14-.265c.234.335.39.526.39.526a3.118,3.118,0,0,0,.978,1.13l-.164.343-.931,1.948s1.192.121,2.825.39a1.262,1.262,0,0,0,1.535-.842l.113.023c.468.105.779.144.779.144Z" transform="translate(-83.035 -386.147)" opacity="0.1"/><path d="M152.7,640.148c-.234,1.048-6.729,1.372-6.729,1.372s-3.616-.351-4.629.495-4,.643-4.115.643-1.687-.062-2.3-2.883c-.6-2.751.8-3.23.873-3.254h0a10.567,10.567,0,0,1,3.675.713c1.976.779,3.464-1.224,3.464-1.224l1.1-2.1c.234.335.39.526.39.526a3.08,3.08,0,0,0,.978,1.134l-1.095,2.3s1.192.121,2.825.39a1.349,1.349,0,0,0,1.648-1.282,1.313,1.313,0,0,0,0-.175s1.017.292,2.268.643A2.338,2.338,0,0,1,152.7,640.148Z" transform="translate(-82.247 -386.898)" fill="#626696"/><path d="M189.4,486.91c-.156.931-.316,3.343-.316,3.343.546,2.018-.853,6.815-.853,6.815l-.7,2.728c.312,3.507-1.921,12.044-1.921,12.044s-1.5,7.926-2.276,11.347a9.435,9.435,0,0,0,.39,5.712c.039.094.062.14.062.14a.653.653,0,0,0,.047.191c.02.062.051.187.082.277a4.206,4.206,0,0,0,.779,1.3,3.945,3.945,0,0,0,.417.429l.023.023a8.426,8.426,0,0,0,2.478,1.523h0l.39.156a11.787,11.787,0,0,0,1.235.39h0a1.34,1.34,0,0,0,.14.031l-.316,1.831-4.115-1.052-5.514-1.789-2.728-1.559s.031-.148.086-.433v-.047c.023-.121.047-.265.082-.429.464-2.377,1.52-9.118.99-14.067-.659-6.137,1.9-14.608,2.521-16.627a10.077,10.077,0,0,0,.468-3.573c-1.013-1.481-1.247-7.38-1.247-7.38s-1.863-3.811-3.406-7.852A20.671,20.671,0,0,1,175.1,476.3a14.269,14.269,0,0,1-.226-2.985s12.516-11.421,13.887-.362c.047.39.09.733.132,1.083C190.09,484.147,189.553,486.01,189.4,486.91Z" transform="translate(-106.717 -285.718)" fill="#ffd2c6"/><path d="M192.332,628.791l-.316,1.831-4.115-1.052-5.514-1.789-2.728-1.559s.031-.148.086-.433v-.047c.023-.121.047-.265.082-.429l.39-.039h.031a5.191,5.191,0,0,1,2.311.312c.9.339,2.073.725,2.315.561a2.947,2.947,0,0,1,1.321-.234l.573-1.255.082-.191a4.149,4.149,0,0,0,.779,1.3,4.382,4.382,0,0,0,.44.452l-.023.444-.031.627a8.018,8.018,0,0,0,1.98.916,1.147,1.147,0,0,0,.553,0h0l.39.156a11.687,11.687,0,0,0,1.235.39h0A1.257,1.257,0,0,0,192.332,628.791Z" transform="translate(-109.644 -381.136)" opacity="0.1"/><path d="M189.666,633.432c-1.15-.331-3.92-.857-4.368-.448s-4.286,0-4.286,0a2.338,2.338,0,0,1-1.983-1.169c-.779-1.243-.152-5.264-.152-5.264l.284-.027.475-.047h.031a5.131,5.131,0,0,1,2.311.312,5.531,5.531,0,0,0,2.315.561,2.888,2.888,0,0,1,1.321-.234l.655-1.446a4.214,4.214,0,0,0,.779,1.3,4.39,4.39,0,0,0,.44.452l-.055,1.072a8.083,8.083,0,0,0,1.979.912.779.779,0,0,0,.951-.3.583.583,0,0,0,.07-.16h0a6.7,6.7,0,0,0,1.625.542h0a2.975,2.975,0,0,1,3.172,2.283C195.815,633.557,190.792,633.759,189.666,633.432Z" transform="translate(-109.02 -381.869)" fill="#626696"/><path d="M151.87,475.358c-.257.074-.491.144-.709.214a9.831,9.831,0,0,1-1.718.362,71.617,71.617,0,0,1-11.663.086,19.575,19.575,0,0,1,.21-2.3l13.287-1.761A10.41,10.41,0,0,1,151.87,475.358Z" transform="translate(-84.083 -288.053)" opacity="0.1"/><path d="M161.618,443.751s-4.879.756-8.845,1.625c-1.325.288-2.548.588-3.452.885a10.6,10.6,0,0,1-1.718.362c-4.419.62-12.266.047-12.266.047-2.155-6.99,2.618-15.793,2.618-15.793-.113-.7.994-2.852.994-2.852l.019-.07.678-2.494h18.123l.222,1.072.46,2.182,2.845,13.51Z" transform="translate(-82.25 -259.673)" fill="#626696"/><path d="M188.89,474.029l-.109.047-2.12.939c-2.3,1.06-9.165,1.259-11.565,1.278a14.27,14.27,0,0,1-.226-2.985s12.516-11.421,13.887-.362C188.8,473.34,188.847,473.679,188.89,474.029Z" transform="translate(-106.717 -285.712)" opacity="0.1"/><path d="M171.543,446.923l-.444.195-2.12.943c-2.338,1.075-9.426,1.266-11.69,1.278h-.6a2.73,2.73,0,0,1-2.1-1.274c0-.14-.109-.83-.2-1.422-.078-.475-.148-.885-.148-.885a54.433,54.433,0,0,1-7.049-3.651c-1.781-1.212-1.333-9.823-.986-14.152.121-1.492.226-2.474.226-2.474l18.345,1.072,2.572.148,1.473.327.39.082s1.052,7.692,1.559,8.331.179,2.8.117,4.025a7.485,7.485,0,0,1-.171,1.559,9.635,9.635,0,0,1,.577,3.367A6.72,6.72,0,0,0,171.543,446.923Z" transform="translate(-89.035 -259.685)" fill="#626696"/><circle cx="7.517" cy="7.517" r="7.517" transform="translate(55.357 108.328)" fill="#ffd2c6"/><path d="M142.266,305.3s.522,7.119-.931,8.752a65.059,65.059,0,0,1-5.245,4.719l1.169,4.836,6.585.76,7.692-8.218-1.75-2.155s-1.34-4.547-.234-6.819S142.266,305.3,142.266,305.3Z" transform="translate(-83.052 -186.317)" fill="#ffd2c6"/><path d="M185.9,332.058h0l-.39.623-2.338-.643-1.633-6.106.1-1.773.479-.69s2.564.062,2.451,2.393C184.459,327.908,185.624,331.279,185.9,332.058Z" transform="translate(-110.792 -197.424)" opacity="0.1"/><path d="M168.991,428.024s-1.855.413-3.978.69-4.575.417-5.58-.168c-1.687-1-10.829-.713-13.451-.612a2.987,2.987,0,0,0-.452.02l.678-2.494h18.123l.222,1.072,2.572.148,1.473.327C168.843,427.611,168.991,428.024,168.991,428.024Z" transform="translate(-88.813 -259.673)" opacity="0.1"/><path d="M145.369,324.66s2.564.058,2.447,2.389,1.4,6.351,1.4,6.351l-.584,1.34s-.814,3.261-.175,4.08,2.973.814,1.633,7.517c0,0-.288,5.011.409,6.644s.7,5.533,1.746,7.166a39.385,39.385,0,0,1,2.451,5.42s-7.579,1.687-9.558.522-14.16-.573-14.16-.573.058-2.042,0-2.272a1.949,1.949,0,0,1,.292-1.488c.39-.553,1.048-1.485.7-2.3s.877-2.018.234-3.281-1.422-1.516-1.266-2.206a2.989,2.989,0,0,0-.713-2.205c-.464-.581-3.616-6.741-3.616-6.741l-.522-2.887s-4.056-2.973-3.982-4.372a8.18,8.18,0,0,1,1.535-3.335l3.9-3.83s2.155,2.338,4.251,1.516,6.62-4.719,6.62-4.719,1.613-.873,1.73-1.512,1.107-.058,1.107-.058,1.457-.8,1.75-.518a5.058,5.058,0,0,0,1.559.518Z" transform="translate(-74.511 -198.15)" fill="#ffcde5"/><path d="M95.954,355.81l-1.243.97a16.6,16.6,0,0,0-1.559,6.351,87.023,87.023,0,0,1-1.559,9.843l-2.447,4.376s-4.033,8.444-4.555,10.684a27.879,27.879,0,0,1-2.915,6.032s-8.1,7.279-2.447,8.573,5.825-5.794,5.825-5.794a7.655,7.655,0,0,0,1.535-2.447c.214-.99,7.38-13.665,7.38-13.665s2.509-3.41,1.983-5.214c0,0,3.261-7.672,3.261-9.6a34.081,34.081,0,0,0-.522-4.773l.522-4.021Z" transform="translate(-47.124 -217.162)" fill="#ffd2c6"/><path d="M157.464,397.04s-5.712,2.989-6.819,3.145,4.836-.624,4.836-.624Z" transform="translate(-91.851 -242.327)" opacity="0.1"/><path d="M163.23,403.02s-7.575,2.564-10.91,2.1C152.336,405.116,160.608,406.691,163.23,403.02Z" transform="translate(-92.957 -245.977)" opacity="0.1"/><path d="M164.54,405.17s-6.819,4.286-10.84,3.589c0,0,9.383,1.866,10.84.877l-4.2-1.169S165.008,406,164.54,405.17Z" transform="translate(-93.8 -247.289)" opacity="0.1"/><path d="M128.246,263.08a7.1,7.1,0,0,0-5.736,1.083c-1.169.92-1.948,2.338-3.261,3.008a19.2,19.2,0,0,1-2.131.752,6.149,6.149,0,0,0-3.752,6.624c.207,1.169.748,2.221,1.013,3.359a13.125,13.125,0,0,1-.46,6.188,65.117,65.117,0,0,1-6.488,16.066,1.682,1.682,0,0,0-.323,1.079,1.559,1.559,0,0,0,.39.69c2.693,3.117,7.076,4.181,11.191,4.321a8.475,8.475,0,0,0,4.434-.736,6.7,6.7,0,0,0,2.163-1.983,10.52,10.52,0,0,0,2.018-6.784c-.113-1.948-.779-3.932-.277-5.821a1.558,1.558,0,0,1,.351-.713c.444-.452,1.169-.335,1.808-.409,1.711-.2,2.817-2,3.02-3.71s-.226-3.433-.234-5.151A10.789,10.789,0,0,1,134,274.6a6.839,6.839,0,0,0,1.488-2.537c.242-1.227-.471-2.131-1.087-3.117-.955-1.512-1.422-3.277-2.876-4.43A7.766,7.766,0,0,0,128.246,263.08Z" transform="translate(-65.361 -160.46)" opacity="0.1"/><path d="M127.075,261.88a7.089,7.089,0,0,0-5.736,1.087c-1.169.916-1.948,2.338-3.261,3.008a18.766,18.766,0,0,1-2.128.748,6.153,6.153,0,0,0-3.756,6.624c.207,1.169.748,2.221,1.017,3.363a13.159,13.159,0,0,1-.46,6.184,65.151,65.151,0,0,1-6.476,16.066,1.647,1.647,0,0,0-.32,1.076,1.5,1.5,0,0,0,.39.69c2.7,3.117,7.076,4.181,11.191,4.321a8.474,8.474,0,0,0,4.434-.733,6.714,6.714,0,0,0,2.163-1.987,10.521,10.521,0,0,0,2.007-6.768c-.113-1.948-.779-3.932-.273-5.825a1.562,1.562,0,0,1,.347-.713c.444-.452,1.169-.335,1.812-.39,1.711-.2,2.813-2,3.016-3.713s-.222-3.429-.234-5.151a10.79,10.79,0,0,1,2.026-6.363,6.814,6.814,0,0,0,1.485-2.541c.242-1.227-.468-2.128-1.083-3.117-.955-1.512-1.422-3.277-2.88-4.427A7.723,7.723,0,0,0,127.075,261.88Z" transform="translate(-64.658 -159.728)" fill="#985c7e"/><path d="M153.7,449.13s1.5,6.991,3.982,8.9Z" transform="translate(-93.8 -274.119)" opacity="0.1"/><g transform="translate(41.286 109.076)" opacity="0.1"><path d="M122.7,294.3c-.078-.273-.168-.546-.261-.814C122.518,293.763,122.608,294.036,122.7,294.3Z" transform="translate(-116.006 -288.202)"/><path d="M133.884,279.92a2.538,2.538,0,0,1-.031.659,6.908,6.908,0,0,1-1.488,2.541,10.758,10.758,0,0,0-2.03,6.34c0,1.722.433,3.441.23,5.151s-1.305,3.507-3.016,3.713c-.631.074-1.368-.047-1.808.39a1.558,1.558,0,0,0-.351.713c-.495,1.894.164,3.873.273,5.825a10.522,10.522,0,0,1-2,6.768,6.757,6.757,0,0,1-2.163,1.987,8.715,8.715,0,0,1-4.438.733c-4.045-.136-8.347-1.169-11.051-4.173a1.066,1.066,0,0,0-.066.561,1.5,1.5,0,0,0,.39.69c2.7,3.117,7.076,4.181,11.191,4.321a8.473,8.473,0,0,0,4.434-.733,6.755,6.755,0,0,0,2.163-1.987,10.521,10.521,0,0,0,2.007-6.768c-.113-1.948-.779-3.932-.273-5.825a1.559,1.559,0,0,1,.347-.713c.444-.452,1.169-.335,1.812-.39,1.711-.2,2.813-2,3.016-3.713s-.222-3.429-.234-5.151a10.787,10.787,0,0,1,2.026-6.34,6.815,6.815,0,0,0,1.485-2.541A2.888,2.888,0,0,0,133.884,279.92Z" transform="translate(-105.929 -279.92)"/></g><path d="M500.562,763.95s-14.827-.9-13.077,9.492a2.534,2.534,0,0,0,1.317,2.669s.027-.779,1.52-.506a6.809,6.809,0,0,0,1.609.078,3.364,3.364,0,0,0,1.972-.815h0s4.165-1.722,5.786-8.534c0,0,1.2-1.485,1.169-1.866l-2.5,1.068a4.483,4.483,0,0,1,.179,3.3s-.078-3.238-.561-3.16c-.1,0-1.3.624-1.3.624s1.469,3.145.358,5.428c0,0,.421-3.873-.818-5.2l-1.761,1.025s1.718,3.25.553,5.9c0,0,.3-4.064-.924-5.646l-1.6,1.243s1.617,3.2.631,5.4c0,0-.129-4.731-.978-5.066a9.582,9.582,0,0,0-1.605,1.734s1.1,2.338.417,3.55c0,0-.421-3.152-.779-3.164a10.488,10.488,0,0,0-1.535,3.507,7.592,7.592,0,0,1,1.2-3.721,4.172,4.172,0,0,0-2.128,1.1s.214-1.477,2.47-1.606a10.653,10.653,0,0,1,1.457-1.679,9.136,9.136,0,0,0-3.6.417s1.2-1.395,4.017-.779l1.559-1.286a13.447,13.447,0,0,0-4.208.043s1.442-1.235,4.633-.335l1.714-1.029a15.571,15.571,0,0,0-4.017-.347s1.582-.853,4.52.074l1.227-.553s-1.847-.362-2.385-.417-.569-.207-.569-.207a6.375,6.375,0,0,1,3.464.39A15.814,15.814,0,0,0,500.562,763.95Z" transform="translate(-297.434 -466.254)" fill="#0fb299" stroke="#0fb299" stroke-miterlimit="10" stroke-width="1"/><path d="M798.677,731.35s-14.807-.892-13.077,9.5a2.534,2.534,0,0,0,1.317,2.669s.027-.779,1.52-.511a6.877,6.877,0,0,0,1.613.078,3.329,3.329,0,0,0,1.968-.814h0s4.169-1.718,5.786-8.53c0,0,1.2-1.488,1.169-1.87l-2.517,1.091a4.5,4.5,0,0,1,.183,3.3s-.082-3.242-.561-3.164c-.1,0-1.3.623-1.3.623s1.469,3.145.362,5.432c0,0,.421-3.873-.822-5.2l-1.761,1.029s1.719,3.246.553,5.9c0,0,.3-4.064-.923-5.646l-1.594,1.235s1.613,3.2.628,5.4c0,0-.129-4.734-.974-5.089a9.765,9.765,0,0,0-1.609,1.738s1.107,2.338.421,3.546c0,0-.421-3.148-.779-3.164a10.489,10.489,0,0,0-1.535,3.507,7.582,7.582,0,0,1,1.2-3.721,4.193,4.193,0,0,0-2.131,1.1s.218-1.473,2.474-1.605a10.651,10.651,0,0,1,1.457-1.679,9.159,9.159,0,0,0-3.608.417s1.2-1.4,4.018-.76l1.559-1.286a13.447,13.447,0,0,0-4.208.043s1.442-1.231,4.633-.335l1.714-1.025a15.432,15.432,0,0,0-4.021-.347s1.582-.853,4.524.07l1.227-.549s-1.847-.362-2.389-.421-.569-.206-.569-.206a6.388,6.388,0,0,1,3.468.39A15.841,15.841,0,0,0,798.677,731.35Z" transform="translate(-479.387 -446.358)" fill="#0fb299" stroke="#0fb299" stroke-miterlimit="10" stroke-width="1"/><ellipse cx="10.494" cy="1.773" rx="10.494" ry="1.773" transform="translate(298.583 296.289)" fill="#646b74" opacity="0.1"/><ellipse cx="30.218" cy="4.956" rx="30.218" ry="4.956" transform="translate(300.258 165.261)" fill="#646b74" opacity="0.1"/><path d="M814.594,99.584a16.223,16.223,0,0,0,0-8.284V87.4S816,79.762,809.723,74.86l-4.169-3.674a15.755,15.755,0,0,0-3.012-2.131,3.061,3.061,0,0,0-.39-.058l-.125-.07A12.526,12.526,0,0,1,801.116,67,1.779,1.779,0,0,0,802.6,66.5a1.948,1.948,0,0,0,.351-.584h0c.242-.542.281-1.2.487-1.773a4.139,4.139,0,0,1,.779-1.274c-.043.07-.086.136-.125.207.588-.733,1.36-1.364,1.909-2.139a4.71,4.71,0,0,0,.3-.475l-.082.1a10.71,10.71,0,0,0,1.224-4.162,3.754,3.754,0,0,0,.023-1.489,4.95,4.95,0,0,0-.417-.943c-.9-1.87-.885-4.216-2.338-5.709A6.989,6.989,0,0,0,800.43,46.6a11.06,11.06,0,0,1-4.516-1.114,4.88,4.88,0,0,0-1.224-.674,1.009,1.009,0,0,0-1.2.448.778.778,0,0,1-.16.323.517.517,0,0,1-.464.027l-2.065-.553.023.105h-.051l.074.327a.182.182,0,0,1,.195.113l-.331.51a5.111,5.111,0,0,1-1.866-.39.85.85,0,0,0,0,.1h-.027c-.039.584.623.962.826,1.512a1.146,1.146,0,0,1,0,.74,1.688,1.688,0,0,1-.39.592c-.737.725-1.672.581-2.517,1.04a.538.538,0,0,0-.308.339.262.262,0,0,0-.027.187.436.436,0,0,0,.171.214,3.885,3.885,0,0,0,.8.5l-.242.234a9.25,9.25,0,0,0,3.2,15.084c.031.16.055.323.078.5v.047l.023.222L787.641,68.2a2.217,2.217,0,0,1-2-1.282c-.647-1.34-2.934,0-2.934,0s-6.987-.526-9.57.76c0,0-4.169-1.75-4.754-1.866s-1.469-.584-1.882-.468-.939-.779-1.231-.7-.39-.581-1.348-.814-1.294.058-2.338-.994-9.628-5.19-9.628-5.19L748.087,54.5l-4.111-3.265-.074.136c-.023-.1-.051-.2-.078-.3A38.931,38.931,0,0,0,742.3,46.27c-.265-.631-.39-1.43-.736-1.009-.218.253-.592-.3-1.169-.674a.971.971,0,0,0-1.351.241.986.986,0,0,0-.1.18h0c-3.2,5.015-4.345,5.377-2.49,7.213,1.648,1.637,2.747,3.082,4.1,3.507l.16.051a.231.231,0,0,1-.09,0l7.793,9.332s5.635,4.9,9.512,6.476,3.581,2.042,3.581,2.042,11.74,5.95,13.56,5.845,1.469,12.192.705,14.176-2,16.335-2,16.335-1.169,3.032.059,5.132a32.392,32.392,0,0,1,.027,4.984,17.1,17.1,0,0,0-2.845,7.326,4.173,4.173,0,0,1-.047.444,1.007,1.007,0,0,1-.277.226s.1-.023.261-.078a14.818,14.818,0,0,1-.779,3.507,14.3,14.3,0,0,0-.959,5.066v9.27l-.775,5.747s-.939,4.353,0,5.366a2.468,2.468,0,0,1,.514,1.789,3.312,3.312,0,0,0,.6,2.085,1.582,1.582,0,0,1,.39,1.34c-.312,1.009.46,11.74.46,11.74s-.226,2.958-.538,3.117.522,3.4.522,3.4-3.172,2.646-2.365,4.049l.81,1.243-.214.21-.132.132a1.236,1.236,0,0,0-.807-.152,30.294,30.294,0,0,1-3.191,2.841,34.585,34.585,0,0,1-5.323,2.529l-3.07.249h-.059s-1.469-.136-.647,2.139,8.183,1.559,8.183,1.559l4.286-.678s7.668.035,9.862-.448c.92-.207,1.138-.694,1.079-1.192h0l-.023-.023a3.064,3.064,0,0,0-.627-1.29.585.585,0,0,0-.055-.066l.14-1.559c3.254-1.874-.92-5.564-.92-5.564a37.2,37.2,0,0,1,2.163-4.119c.736-1,.733-15.867.733-15.867s.39-5.37-.627-6.624a2.241,2.241,0,0,1,1.095-2.022c.725-.495,2.915-7.31,4.633-12.968l1.083,6.667s-.234,3.187.471,4.123a1.585,1.585,0,0,1,.288,1.239,5.514,5.514,0,0,0,.16,2.7,1.745,1.745,0,0,0,.565.959c.627.312.666,1.422.9,1.656s1.683-.331,1.761.522a19.083,19.083,0,0,1,0,2.256l.472,13.845a9.056,9.056,0,0,0-.939,4.2,5.43,5.43,0,0,1-.565,2.478,1.266,1.266,0,0,0,.117,1.489l.136.156-.581.448a1.267,1.267,0,0,0-.359,1.559,1.251,1.251,0,0,0-.362,1.344,1.568,1.568,0,0,0,.1.218,2.193,2.193,0,0,0-1.169.577,9.588,9.588,0,0,1-2.065,2.081,38.89,38.89,0,0,0-3.3,2.821,4.731,4.731,0,0,1-1.925,1.559,3.1,3.1,0,0,1-.581.171c-1.559.316-1.056,1.929.195,2.182s5.4,1.535,8.631.779a3.016,3.016,0,0,0,2.365-.327,32.571,32.571,0,0,1,4.61-1.559s1.761,0,2-.7a2.689,2.689,0,0,0,.1-.682l.051-.047-.047-.043a9.149,9.149,0,0,0-.121-1.559c-.043-.265-.094-.507-.14-.7-.152-.585-.429-1.337-.549-1.656a.61.61,0,0,0,.055-.082c.67-1.134-.444-3.9-.444-3.9a7.45,7.45,0,0,1,1.329-1.559c.627-.464,2.272-12.6,2.272-12.6s-.078-3.117.779-4.512-1.169-9.878-1.169-9.878-.861-1.948-.545-2.646-.316-3.265-.316-3.265V150.08A3.366,3.366,0,0,0,798.4,149a5.115,5.115,0,0,1-.211-3.117c.549-1.4,1.8-10.034,1.8-10.034s-.978-3.807.452-6.839a6.585,6.585,0,0,1,.39-.705c1.06-1.668.744-4.629.222-7.014-.082-.37-.168-.725-.253-1.064-.039-.144-.078-.281-.113-.417l.167-.07a5.232,5.232,0,0,1,.051-.616,4.285,4.285,0,0,0,2.825-1.948s3.581-4.025,6.753-5.716,3.406-4.142,3.406-4.142c-.471-.818.838-4.142.838-4.142Zm-10.314,5.366-3.39,3.932a.068.068,0,0,1,0-.023c-.881-1.224.822-3.967.822-3.967l2.8-6.277a3.8,3.8,0,0,1-.366,1.855c-.779,1.052,1.407,2.8,1.407,2.8-1.173-.012-1.29,1.679-1.29,1.679Z" transform="translate(-448.935 -27.104)" fill="url(#a)"/><path d="M745.946,55.435,744.1,59.024a7.166,7.166,0,0,1-1.722-.358,6.535,6.535,0,0,1-4.045-3.507,5.086,5.086,0,0,1,2.358-6.71c1.274-.694,2.455-1.492,3.409.779a39.527,39.527,0,0,1,1.5,4.762C745.814,54.855,745.946,55.435,745.946,55.435Z" transform="translate(-450.309 -29.127)" fill="#cc818c"/><path d="M886.741,97.476l-2.953,4.407s-13.973,6.663-11.3-1.169a17.655,17.655,0,0,0,1.1-7.719v-.047a6.093,6.093,0,0,0-1.095-3.117s13.619-6.967,11.592-2.2a6.62,6.62,0,0,0-.483,3.137,10.681,10.681,0,0,0,1.469,4.353A14.42,14.42,0,0,0,886.741,97.476Z" transform="translate(-532.297 -52.463)" fill="#cc818c"/><path d="M849.955,274.769s2.011,8.424,1.169,9.816-.779,4.481-.779,4.481-1.625,12.06-2.244,12.524a7.419,7.419,0,0,0-1.313,1.559s1.1,2.728.44,3.858a.917.917,0,0,1-.44.39c-1.036.436-4.863-1.5-7.041-2.689a1.2,1.2,0,0,1-.577-.69,1.227,1.227,0,0,1,.355-1.333,1.27,1.27,0,0,1,.355-1.559l.573-.444-.133-.156a1.267,1.267,0,0,1-.117-1.481,5.464,5.464,0,0,0,.557-2.459,8.985,8.985,0,0,1,.927-4.173l-.464-13.759a19.684,19.684,0,0,0,0-2.241c-.078-.849-1.508-.288-1.738-.522s-.273-1.333-.888-1.644a1.73,1.73,0,0,1-.561-.951,5.539,5.539,0,0,1-.16-2.685,1.582,1.582,0,0,0-.284-1.231c-.7-.927-.464-4.1-.464-4.1l-1.068-6.624c-1.7,5.623-3.862,12.4-4.575,12.886a2.228,2.228,0,0,0-1.083,2.011c1.005,1.235.62,6.57.62,6.57s0,14.76-.725,15.766a38.433,38.433,0,0,0-2.135,4.1s4.142,3.686.885,5.545l-.035.02c-3.324,1.855-10.2-3.32-10.2-3.32l.717-.717.21-.21-.779-1.239c-.8-1.391,2.338-4.017,2.338-4.017s-.834-3.246-.526-3.4.526-3.094.526-3.094-.76-10.665-.452-11.666a1.559,1.559,0,0,0-.366-1.333,3.327,3.327,0,0,1-.592-2.069,2.462,2.462,0,0,0-.506-1.777c-.927-1.005,0-5.334,0-5.334l.779-5.72v-9.11a14.419,14.419,0,0,1,.935-5.112,15.424,15.424,0,0,0,.842-4.115,17.277,17.277,0,0,1,2.887-7.4c.561-.857.978-1.372.978-1.372l24.732-.97s.39,1.1.779,2.634c.086.335.171.686.249,1.056.518,2.377.83,5.319-.218,6.979a5.519,5.519,0,0,0-.39.7c-1.415,3.012-.448,6.8-.448,6.8s-1.235,8.573-1.777,9.971a5,5,0,0,0,.21,3.078,3.429,3.429,0,0,1,.175,1.068v3.043s.62,2.548.312,3.246S849.955,274.769,849.955,274.769Z" transform="translate(-499.743 -142.554)" fill="#444053"/><path d="M897.6,250.579a6.449,6.449,0,0,0-.39.7l-1.391-.078c.132-.717-.814-7.439-.814-7.439l2.805-.16C898.328,245.993,898.643,248.938,897.6,250.579Z" transform="translate(-546.245 -148.676)" opacity="0.1"/><path d="M898.185,250.029a5.52,5.52,0,0,0-.39.7l-1.4-.078c.136-.717-.81-7.442-.81-7.442l2.8-.156C898.922,245.427,899.233,248.369,898.185,250.029Z" transform="translate(-546.605 -148.34)" fill="#444053"/><path d="M898.185,250.029a5.52,5.52,0,0,0-.39.7l-1.4-.078c.136-.717-.81-7.442-.81-7.442l2.8-.156C898.922,245.427,899.233,248.369,898.185,250.029Z" transform="translate(-546.605 -148.34)" opacity="0.05"/><path d="M879.118,417.28a.917.917,0,0,1-.44.39c-1.036.436-4.863-1.5-7.041-2.689a1.2,1.2,0,0,1-.577-.69c1.239-.226,2.054,1.169,2.054,1.169a1.827,1.827,0,0,1,2.52.573l.028.046c1.064,1.559,3.343.9,3.343.9S879.052,417.089,879.118,417.28Z" transform="translate(-531.633 -252.841)" opacity="0.1"/><path d="M864.436,422.373c-.234.694-1.972.694-1.972.694a37.019,37.019,0,0,0-4.5,1.586,3.079,3.079,0,0,1-2.338.327c-3.191.737-7.287-.538-8.522-.779s-1.722-1.855-.195-2.163a3.036,3.036,0,0,0,.573-.175,4.655,4.655,0,0,0,1.9-1.559,39.384,39.384,0,0,1,3.254-2.806,9.42,9.42,0,0,0,2.042-2.065c1.816-1.605,3.117.6,3.117.6a1.827,1.827,0,0,1,2.52.573l.028.046c1.064,1.559,3.343.9,3.343.9s.39,1.044.6,1.8c.047.191.1.433.14.7A6.092,6.092,0,0,1,864.436,422.373Z" transform="translate(-516.308 -253.195)" fill="#ff748f"/><circle cx="0.214" cy="0.214" r="0.214" transform="translate(342.599 163.863)" fill="#575988"/><circle cx="0.214" cy="0.214" r="0.214" transform="translate(340.783 165.561)" fill="#575988"/><circle cx="0.214" cy="0.214" r="0.214" transform="translate(338.936 167.089)" fill="#575988"/><circle cx="0.214" cy="0.214" r="0.214" transform="translate(339.891 166.407)" fill="#575988"/><circle cx="0.214" cy="0.214" r="0.214" transform="translate(341.73 164.657)" fill="#575988"/><path d="M864.436,430.522c-.234.694-1.972.694-1.972.694a37.016,37.016,0,0,0-4.5,1.586,3.08,3.08,0,0,1-2.338.327c-3.191.736-7.287-.538-8.522-.779s-1.722-1.855-.195-2.163a3.029,3.029,0,0,0,.573-.175,14.805,14.805,0,0,0,4.181.779c3.149.133,5.642,0,5.642,0l3.187-1.025a5.333,5.333,0,0,1,1.972-.717,5.068,5.068,0,0,0,1.948-.849A6.092,6.092,0,0,1,864.436,430.522Z" transform="translate(-516.308 -261.345)" fill="#dce6f2"/><path d="M872.2,434.749a2.629,2.629,0,0,1-.53-.055l.047-.226a3.347,3.347,0,0,0,1.909-.265,9.182,9.182,0,0,0,.846-.39,9.824,9.824,0,0,1,1.005-.44l.316-.109c.175-.058.351-.117.518-.191.1-.039.191-.086.284-.129a3.17,3.17,0,0,1,.717-.273,3.378,3.378,0,0,1,.39-.051,3.319,3.319,0,0,0,.351-.043,3.034,3.034,0,0,0,.67-.249,3.27,3.27,0,0,1,.721-.265l.172-.031a.824.824,0,0,0,.5-.183l.167.16a1.04,1.04,0,0,1-.631.253l-.16.027a3.046,3.046,0,0,0-.67.249,3.249,3.249,0,0,1-.721.265,2.52,2.52,0,0,1-.39.047,3.323,3.323,0,0,0-.362.047,2.956,2.956,0,0,0-.663.257l-.292.132c-.179.074-.359.136-.538.195l-.308.109c-.335.125-.666.281-.99.429s-.565.269-.857.39A4.12,4.12,0,0,1,872.2,434.749Z" transform="translate(-532.005 -263.573)" fill="#575988" opacity="0.5"/><path d="M874.94,336.657a5.621,5.621,0,0,1,4.349-2.3,14.886,14.886,0,0,0,3.92-.308,9.732,9.732,0,0,1-2.973,1.169A50.263,50.263,0,0,0,874.94,336.657Z" transform="translate(-534.001 -203.881)" opacity="0.1"/><path d="M877.32,340.311a6.458,6.458,0,0,1,2.279-1.044c.83-.039,1.559-.117,1.559-.117a4.4,4.4,0,0,1-1.274.62C879.175,339.964,877.32,340.311,877.32,340.311Z" transform="translate(-535.454 -206.994)" opacity="0.1"/><path d="M878.11,343.91s2.186.175,2.206.756" transform="translate(-535.936 -209.899)" opacity="0.1"/><path d="M825.94,253.888a8.71,8.71,0,0,0,2.2-2.841,1.988,1.988,0,0,1,.849-1.247s1.259.5.136,2.042A6.242,6.242,0,0,1,825.94,253.888Z" transform="translate(-504.095 -152.46)" opacity="0.1"/><path d="M884.6,87.573c-.444,1.052-.838,1.13-.752,2.151a7.745,7.745,0,0,1-1.769,1.391c-1.383.822-2.887,2.428-4.61,2.428a9.141,9.141,0,0,1-3.367-.635,6.093,6.093,0,0,0-1.1-3.117S886.621,82.807,884.6,87.573Z" transform="translate(-532.823 -52.431)" opacity="0.1"/><path d="M879.241,66.225a9.212,9.212,0,1,1,0-.008Z" transform="translate(-525.377 -34.793)" fill="#cc818c"/><path d="M886.741,108.491l-2.953,4.407s-13.973,6.663-11.3-1.169a17.655,17.655,0,0,0,1.1-7.719h.023a7.315,7.315,0,0,1,.277,1.777c.043,1.2.074,2.728,3.059,3.226a8.337,8.337,0,0,0,8.117-2.887A14.418,14.418,0,0,0,886.741,108.491Z" transform="translate(-532.297 -63.479)" opacity="0.1"/><path d="M752.839,65.185l-1.847,3.589a7.166,7.166,0,0,1-1.722-.358l-.16-.191c.756.288,3.3-4.524,3.3-4.524l.082.066C752.706,64.6,752.839,65.185,752.839,65.185Z" transform="translate(-457.202 -38.876)" opacity="0.1"/><path d="M860.49,236.226c-5.966,2.591-26.61.39-26.61.39a2.6,2.6,0,0,0,.105-.674c.561-.857.978-1.372.978-1.372l24.732-.97S860.1,234.695,860.49,236.226Z" transform="translate(-508.941 -142.573)" opacity="0.1"/><path d="M798.94,79.988l-2.751,1.169a2.2,2.2,0,0,1-1.972-1.278c-.635-1.333-2.9,0-2.9,0s-6.9-.522-9.449.756c0,0-4.115-1.742-4.676-1.855s-1.449-.581-1.855-.464-.927-.756-1.216-.7-.409-.581-1.336-.81-1.274.058-2.319-.986-9.5-5.159-9.5-5.159l-3.826-3.117L753.084,64.3s-2.552,4.808-3.3,4.52l7.707,9.274s5.564,4.871,9.391,6.433,3.534,2.03,3.534,2.03,11.6,5.911,13.393,5.8,1.45,12.115.694,14.086-1.968,16.229-1.968,16.229-1.169,3.012.054,5.1c0,0,.292,4.286,0,5.042,0,0,20.773,2.221,26.664-.39,0,0,.869-9.621,0-10.84s.814-3.939.814-3.939l3.682-8.308,9.032-9.106s1.391-7.594-4.808-12.469l-4.119-3.651a15.275,15.275,0,0,0-2.973-2.116c-.67-.125-.425,0-.425,0a8.337,8.337,0,0,1-8.183,2.985c-2.985-.5-3.016-2.022-3.059-3.226A7.305,7.305,0,0,0,798.94,79.988Z" transform="translate(-457.611 -39.242)" fill="#67647e"/><path d="M881.022,184.64s-12.754.522-15.3,4.524a12.661,12.661,0,0,1,6.258-1.1C874.931,188.517,881.022,184.64,881.022,184.64Z" transform="translate(-528.374 -112.69)" opacity="0.1"/><path d="M868.84,215.975s6.028.39,7.306-.869,1.278-2.026,1.278-2.026Z" transform="translate(-530.278 -130.049)" opacity="0.1"/><path d="M905.021,153.11s-5.1,6.028,1.1,8.635Z" transform="translate(-551.157 -93.446)" opacity="0.1"/><path d="M830.61,123.21s1.855,3.784,2.782,4.037Z" transform="translate(-506.945 -75.197)" opacity="0.1"/><path d="M814.55,119.04a69.439,69.439,0,0,0,5.506,4.579S815.244,119.04,814.55,119.04Z" transform="translate(-497.143 -72.652)" opacity="0.1"/><path d="M858.019,108.78s-4.466,6.663-1.559,10.723C856.437,119.5,854.831,114.691,858.019,108.78Z" transform="translate(-522.122 -66.39)" opacity="0.1"/><path d="M868.231,232.54l-1.364,1.282-.191.179-1.578,1.492c-.117.086-.226.171-.339.249-6.429,4.61-7.719-2.392-7.719-2.392s-2.841,1.855-3.246.347,6.624-3.651,7.649-3.534a1.349,1.349,0,0,0,.281,0,4.412,4.412,0,0,0,1.442-.51c.105-.055.21-.109.312-.168a11.59,11.59,0,0,0,1.041-.655Z" transform="translate(-521.085 -139.661)" fill="#cc818c"/><path d="M883.955,66.224a9.216,9.216,0,0,1-4.5,7.922,5.384,5.384,0,0,1-.335-.67c-.331-.779-.534-1.594-.865-2.365a7.382,7.382,0,0,0-1.559-2.256.988.988,0,0,0-.39-.284,1.118,1.118,0,0,0-.846.234,3.828,3.828,0,0,1-1.286.565,1.368,1.368,0,0,1-1.29-.39,1.933,1.933,0,0,1-.2-1.609,19.979,19.979,0,0,0,.6-3.6,3.548,3.548,0,0,0-1.52-3.141c-.935-.53-2.1-.39-3.137-.682a3.361,3.361,0,0,1-.471-.164,9.219,9.219,0,0,1,15.816,6.437Z" transform="translate(-529.857 -34.792)" opacity="0.1"/><path d="M866.037,52.7c-.168.09-.351.249-.3.436a.43.43,0,0,0,.168.214,3.984,3.984,0,0,0,1.457.748c1.04.281,2.205.148,3.141.682a3.541,3.541,0,0,1,1.52,3.137,21.009,21.009,0,0,1-.6,3.6,1.949,1.949,0,0,0,.206,1.613,1.375,1.375,0,0,0,1.29.39,3.8,3.8,0,0,0,1.282-.561,1.111,1.111,0,0,1,.845-.234,1.029,1.029,0,0,1,.413.281,7.326,7.326,0,0,1,1.559,2.26c.335.779.538,1.59.865,2.365a3.815,3.815,0,0,0,1.559,1.925,1.948,1.948,0,0,0,2.338-.245c.538-.592.522-1.489.779-2.248.46-1.313,1.746-2.139,2.548-3.273a10.06,10.06,0,0,0,1.4-4.427,3.715,3.715,0,0,0,.023-1.481,5.353,5.353,0,0,0-.409-.935c-.9-1.855-.877-4.189-2.307-5.673a6.893,6.893,0,0,0-4.24-1.637,10.9,10.9,0,0,1-4.462-1.111,4.9,4.9,0,0,0-1.208-.67.994.994,0,0,0-1.188.444.78.78,0,0,1-.16.323.508.508,0,0,1-.452.027l-2.042-.549.234,1.029a5.1,5.1,0,0,1-2.167-.39c-.039.581.616.959.818,1.5a1.387,1.387,0,0,1-.39,1.414C867.8,52.389,866.87,52.245,866.037,52.7Z" transform="translate(-528.379 -29.17)" fill="#585268"/><path d="M829.128,410.97l-.082.927-.035.019c-3.324,1.855-10.2-3.32-10.2-3.32l.717-.717a1.248,1.248,0,0,1,.312.966l1.407.078,1.679,1.816s4.547.526,5.779.23Z" transform="translate(-499.743 -248.943)" opacity="0.1"/><path d="M808.85,415.98c-2.163.479-9.742.444-9.742.444l-4.232.674s-7.283.7-8.093-1.559.635-2.124.635-2.124h.055l3.032-.245a34.122,34.122,0,0,0,5.257-2.513,30.352,30.352,0,0,0,3.148-2.821s1.266-.246,1.243,1.22l1.407.078,1.679,1.812s4.547.53,5.779.234h.425l-.195,2.241.055.07C809.571,413.837,810.783,415.547,808.85,415.98Z" transform="translate(-480.045 -248.906)" fill="#ff748f"/><circle cx="0.214" cy="0.214" r="0.214" transform="translate(320.743 161.228)" fill="#575988"/><circle cx="0.214" cy="0.214" r="0.214" transform="translate(315.295 163.594)" fill="#575988"/><circle cx="0.214" cy="0.214" r="0.214" transform="translate(312.49 164.447)" fill="#575988"/><circle cx="0.214" cy="0.214" r="0.214" transform="translate(316.725 163.142)" fill="#575988"/><circle cx="0.214" cy="0.214" r="0.214" transform="translate(313.889 164.022)" fill="#575988"/><circle cx="0.214" cy="0.214" r="0.214" transform="translate(318.171 162.471)" fill="#575988"/><circle cx="0.214" cy="0.214" r="0.214" transform="translate(319.601 161.852)" fill="#575988"/><path d="M808.85,424.742c-2.163.479-9.742.444-9.742.444l-4.232.674s-7.283.7-8.093-1.559.635-2.124.635-2.124h.055a3.9,3.9,0,0,0,3.226,1.317l5.237.214,5.428-.39s5.065-.156,5.911-.327a12.286,12.286,0,0,0,2.026-.744C809.571,422.6,810.783,424.309,808.85,424.742Z" transform="translate(-480.045 -257.668)" fill="#dce6f2"/><path d="M807.6,427.244a3.418,3.418,0,0,1-.857-.105l.078-.21a4.2,4.2,0,0,0,2.159-.1c.257-.066.51-.14.779-.218a8.834,8.834,0,0,1,3.76-.425h.167a35.619,35.619,0,0,0,6.956-.312,2.587,2.587,0,0,0,1.488-.6l.168.164a2.821,2.821,0,0,1-1.617.662,36.123,36.123,0,0,1-7.014.312H813.5a11.4,11.4,0,0,0-2.3.066,11.993,11.993,0,0,0-1.383.347c-.257.078-.514.156-.779.222A5.8,5.8,0,0,1,807.6,427.244Z" transform="translate(-492.376 -259.563)" fill="#575988" opacity="0.5"/><path d="M883.424,232.54l-1.364,1.282-3.39-4.337a11.579,11.579,0,0,0,1.04-.655Z" transform="translate(-536.278 -139.661)" opacity="0.1"/><path d="M898.414,147.01l2.665,3.71v3.9a16.225,16.225,0,0,1,0,8.234l.136,3.593s-1.294,3.3-.83,4.115c0,0-.234,2.435-3.363,4.119s-6.667,5.65-6.667,5.65a4.537,4.537,0,0,1-4.925,1.972l-3.421,1.45L878.07,178.7l5.331-2.9s1.855-2.494,2.958-2.377l4.52-5.264s.117-1.679,1.274-1.679c0,0-2.143-1.738-1.391-2.782s.117-5.681.117-5.681Z" transform="translate(-535.912 -89.723)" fill="#67647e"/><path d="M917.49,190.239s6.086-.113,6.839,1.45S919.345,189.37,917.49,190.239Z" transform="translate(-559.971 -116.029)" opacity="0.1"/><path d="M879.14,234.979a1.585,1.585,0,0,1-.023.3,2.049,2.049,0,0,1-1.917,1.742h-.109a2.046,2.046,0,0,1-2.046-2.046,2.1,2.1,0,0,1,.113-.666,3.529,3.529,0,0,1-.994-2.872,4.411,4.411,0,0,0,1.442-.51,9.58,9.58,0,0,0,1.009,2.061,1.958,1.958,0,0,1,.475-.058,2.046,2.046,0,0,1,2.05,2.042Z" transform="translate(-533.525 -140.943)" opacity="0.1"/><path d="M876.151,229.77s-1.372.308-1.372.557-.308,2.513,1.2,3.441,1.356-1.294,1.356-1.294S876.034,230.483,876.151,229.77Z" transform="translate(-533.887 -140.235)" fill="#575988"/><circle cx="2.05" cy="2.05" r="2.05" transform="translate(341.749 91.986)" fill="#e4aab4"/><circle cx="1.757" cy="1.757" r="1.757" transform="translate(342.042 92.278)" fill="#dce6f2"/><path d="M861.75,243.35a10.151,10.151,0,0,0,9.893,1.317V246.4s-3.71,2.548-7.072,1.005S861.75,243.35,861.75,243.35Z" transform="translate(-525.931 -148.524)" opacity="0.1"/><path d="M861.75,242.16a10.141,10.141,0,0,0,9.893,1.305V245.2s-3.71,2.548-7.072,1.005S861.75,242.16,861.75,242.16Z" transform="translate(-525.931 -147.797)" opacity="0.1"/><path d="M861.75,242.16a10.141,10.141,0,0,0,9.893,1.305V245.2s-3.71,2.548-7.072,1.005S861.75,242.16,861.75,242.16Z" transform="translate(-525.931 -147.797)" fill="#444053"/><path d="M862.052,242.16a10.15,10.15,0,0,0,9.893,1.317v1.738s-3.721,2.537-7.072,1.005S862.052,242.16,862.052,242.16Z" transform="translate(-526.117 -147.797)" opacity="0.05"/><path d="M826.94,407.83s5.8,1.064,6.648,1.294-.234.639-.234.639S828.043,408.816,826.94,407.83Z" transform="translate(-504.705 -248.912)" opacity="0.1"/><path d="M826.55,395.348c.094,0,3.939-1.083,4.769-2.938" transform="translate(-504.467 -239.501)" opacity="0.1"/><path d="M840.94,343.017s1.559,2.05,2.564,1.991S841.856,342.939,840.94,343.017Z" transform="translate(-513.25 -209.353)" opacity="0.1"/><path d="M843.16,351.75s.655,1.45,1.621.986" transform="translate(-514.604 -214.684)" opacity="0.1"/><path d="M852.53,270.055l4.111,10.84s.581-6.975-.647-9.063A3.62,3.62,0,0,0,852.53,270.055Z" transform="translate(-520.323 -164.813)" opacity="0.05"/><g transform="translate(337.307 19.014)" opacity="0.1"><path d="M877.407,49.121l-.035-.156-.662-.175.074.323A4.758,4.758,0,0,0,877.407,49.121Z" transform="translate(-872.389 -48.79)"/><path d="M872.549,52.76l.07-.062a1.383,1.383,0,0,0,.39-1.411,1.914,1.914,0,0,0-.327-.526,5.067,5.067,0,0,1-.955-.281c-.039.581.616.955.818,1.5A1.167,1.167,0,0,1,872.549,52.76Z" transform="translate(-869.347 -49.821)"/><path d="M879.773,76.6a3.828,3.828,0,0,1-1.559-1.925c-.331-.779-.53-1.6-.865-2.365a7.268,7.268,0,0,0-1.558-2.256.987.987,0,0,0-.409-.284,1.108,1.108,0,0,0-.846.234,3.894,3.894,0,0,1-1.286.565,1.391,1.391,0,0,1-1.29-.39,1.933,1.933,0,0,1-.2-1.609,20.035,20.035,0,0,0,.6-3.6,3.481,3.481,0,0,0-1.523-3.117c-.935-.534-2.1-.39-3.117-.682a3.955,3.955,0,0,1-1.457-.748l-.082-.074a2.542,2.542,0,0,0-.253.121c-.168.09-.347.249-.3.433a.465.465,0,0,0,.171.218,4.011,4.011,0,0,0,1.458.744c1.04.284,2.2.152,3.137.686a3.528,3.528,0,0,1,1.524,3.117,20.953,20.953,0,0,1-.6,3.6,1.939,1.939,0,0,0,.2,1.609,1.371,1.371,0,0,0,1.29.39,3.889,3.889,0,0,0,1.286-.561,1.125,1.125,0,0,1,.846-.238,1.025,1.025,0,0,1,.39.284,7.36,7.36,0,0,1,1.559,2.256c.335.779.534,1.594.865,2.365a3.823,3.823,0,0,0,1.559,1.948,1.973,1.973,0,0,0,2.338-.245,1.841,1.841,0,0,0,.347-.581A1.987,1.987,0,0,1,879.773,76.6Z" transform="translate(-865.621 -55.846)"/><path d="M910.48,90.433c.581-.733,1.341-1.356,1.886-2.128a5.307,5.307,0,0,0,.3-.475A19.313,19.313,0,0,0,910.48,90.433Z" transform="translate(-893 -72.618)"/></g><g transform="translate(223.386 25.88)" opacity="0.1"><path d="M670.274,66.41H578.08a4.832,4.832,0,0,0-4.82,4.816v58.25a4.832,4.832,0,0,0,4.82,4.816H650.4s1.874,9.948-4.286,11.016c0,0,13.786.99,11.378-11.016H670.27a4.828,4.828,0,0,0,4.816-4.816V71.226A4.828,4.828,0,0,0,670.274,66.41Z" transform="translate(-573.26 -66.41)"/><g transform="translate(13.572 15.462)" opacity="0.2"><rect width="74.682" height="4.551" rx="2.276"/><rect width="61.625" height="4.551" rx="2.276" transform="translate(0 20.34)"/><rect width="44.363" height="4.551" rx="2.276" transform="translate(0 10.17)"/></g></g><path d="M673.364,64.34H581.17a4.836,4.836,0,0,0-4.82,4.82v58.25a4.832,4.832,0,0,0,4.82,4.816h72.321s1.874,9.948-4.286,11.016c0,0,13.786.99,11.378-11.016H673.36a4.828,4.828,0,0,0,4.816-4.816V69.16A4.832,4.832,0,0,0,673.364,64.34Z" transform="translate(-351.76 -39.267)" fill="#fff"/><g transform="translate(238.162 40.535)" opacity="0.2"><rect width="74.682" height="4.551" rx="2.276" fill="#383c40"/><rect width="61.625" height="4.551" rx="2.276" transform="translate(0 20.344)" fill="#383c40"/><rect width="44.363" height="4.551" rx="2.276" transform="translate(0 10.174)" fill="#383c40"/></g><path d="M75.141,552.99s1.387,1.816-.643,4.559-3.706,5.065-3.028,6.768c0,0,3.063-5.093,5.557-5.163S77.884,556.053,75.141,552.99Z" transform="translate(-43.518 -337.509)" fill="#0fb299" stroke="#0fb299" stroke-miterlimit="10" stroke-width="1"/><path d="M75.265,552.99a2.283,2.283,0,0,1,.281.569c2.435,2.86,3.729,5.525,1.391,5.6-2.178.062-4.789,3.955-5.416,4.941a.71.71,0,0,0,.074.222s3.063-5.093,5.557-5.163S78.008,556.053,75.265,552.99Z" transform="translate(-43.642 -337.509)" opacity="0.1"/><path d="M87.25,558.282c0,.639-.07,1.169-.16,1.169s-.16-.518-.16-1.169.09-.339.179-.339S87.25,557.643,87.25,558.282Z" transform="translate(-53.047 -340.487)" fill="#ffd037"/><path d="M88.31,560.207c-.561.308-1.052.491-1.095.413s.39-.39.939-.694.343-.082.39,0S88.871,559.9,88.31,560.207Z" transform="translate(-53.22 -341.648)" fill="#ffd037"/><path d="M57.409,552.99s-1.387,1.816.643,4.559,3.706,5.065,3.028,6.768c0,0-3.063-5.093-5.557-5.163S54.665,556.053,57.409,552.99Z" transform="translate(-33.127 -337.509)" fill="#0fb299"/><path d="M57.409,552.99a2.283,2.283,0,0,0-.281.569c-2.435,2.86-3.729,5.525-1.391,5.6,2.178.062,4.789,3.955,5.416,4.941-.019.074-.047.148-.074.222,0,0-3.063-5.093-5.557-5.163S54.665,556.053,57.409,552.99Z" transform="translate(-33.127 -337.509)" opacity="0.1"/><path d="M55.67,558.282c0,.639.07,1.169.16,1.169s.16-.518.16-1.169-.09-.339-.179-.339S55.67,557.643,55.67,558.282Z" transform="translate(-33.968 -340.487)" fill="#ffd037"/><path d="M52.847,560.207c.561.308,1.052.491,1.095.413s-.39-.39-.939-.694-.343-.082-.39,0S52.282,559.9,52.847,560.207Z" transform="translate(-32.033 -341.648)" fill="#ffd037"/><ellipse cx="14.527" cy="2.229" rx="14.527" ry="2.229" transform="translate(13.426 236.25)" fill="#646b74" opacity="0.1"/><path d="M67.486,574.456l-.07.565-.1.8-.043.335-.1.8-.039.335-.1.8-1.114,9.114c-.1.814-1.426,1.45-3.032,1.45h-5.79c-1.605,0-2.93-.635-3.032-1.45L52.96,578.1l-.1-.8-.039-.335-.1-.8-.043-.335-.1-.8-.07-.565c-.055-.46.666-.849,1.559-.849H65.885C66.8,573.606,67.525,574,67.486,574.456Z" transform="translate(-32.041 -350.094)" fill="#65617d"/><path d="M67.511,577.23l-.1.8H52.8l-.1-.8Z" transform="translate(-32.155 -352.304)" fill="#9d9cb5"/><path d="M67.588,580.15l-.1.8H53.151l-.1-.8Z" transform="translate(-32.369 -354.086)" fill="#9d9cb5"/><path d="M67.668,583.06l-.1.8H53.507l-.1-.8Z" transform="translate(-32.589 -355.862)" fill="#9d9cb5"/><ellipse cx="32.747" cy="5.373" rx="32.747" ry="5.373" transform="translate(218.901 302.207)" fill="#646b74" opacity="0.1"/><g transform="translate(184.451 142.568)" opacity="0.1"><path d="M578.466,365.87H478.561a5.237,5.237,0,0,0-5.221,5.221v63.125a5.237,5.237,0,0,0,5.221,5.221h78.372s2.03,10.778-4.641,11.935c0,0,14.936,1.072,12.325-11.935h13.849a5.236,5.236,0,0,0,5.221-5.221V371.091A5.237,5.237,0,0,0,578.466,365.87Z" transform="translate(-473.34 -365.87)"/><g transform="translate(14.706 27.779)" opacity="0.2"><rect width="80.932" height="4.933" rx="2.467" transform="translate(0 11.023)"/><rect width="35.093" height="4.933" rx="2.467"/></g></g><path d="M576.246,363.64H476.321a5.237,5.237,0,0,0-5.221,5.221v63.125a5.237,5.237,0,0,0,5.221,5.221h78.372s2.03,10.778-4.641,11.939c0,0,14.94,1.072,12.329-11.939h13.864a5.237,5.237,0,0,0,5.221-5.221V368.862A5.237,5.237,0,0,0,576.246,363.64Z" transform="translate(-287.522 -221.941)" fill="#fff"/><g transform="translate(198.288 169.478)" opacity="0.2"><rect width="80.932" height="4.933" rx="2.467" transform="translate(0 11.023)" fill="#383c40"/><rect width="35.093" height="4.933" rx="2.467" fill="#383c40"/></g><path d="M564.659,510.593c-.471-2-.779-3.756-.779-3.756a7.742,7.742,0,0,0-.869-3.815v-.546h0v-4.025a13.506,13.506,0,0,1,1.017-2.108c.725-1.266,0-5.9,0-5.9s-2.689-6.539-2.034-10.684-5.522-18.419-5.522-18.419a18.145,18.145,0,0,1,.581-4.076,3.16,3.16,0,0,0,.078-.853.946.946,0,0,0,0-.105v.035c-.094-2.728-2.256-7.863-2.256-7.863l.292-9.769a28.725,28.725,0,0,0-.873-13.5c-.779-2.7-1.29-4.859-1.609-6.523-.035-.191-.07-.39-.1-.546,4.637-.705,8.183-1.294,8.183-1.294s-2.681-11.249-4.5-13.2S553,395.464,553,395.464s-.947-7.945.581-10.264,1.742-6.324,1.742-6.324,3.507-2.533,3.924-3.655a19.341,19.341,0,0,0,1.169-4.992c0-1.337-.436-2.533-.292-3.234s-1.017-3.374-.436-4.641a3.415,3.415,0,0,0,.234-1.22V361.1h0a17.246,17.246,0,0,0-.308-3.3,9.349,9.349,0,0,0-3.449-1.843l-.078-.3-.195-.779c-.117-.078-.23-.144-.343-.207v-.288l-.035-1.142.549-2.564c1.071-4.466-4.886-5.132-4.886-5.132a3.118,3.118,0,0,0-1.687-1.477c-1.2-.421-.2,6.714.362,7.17a25.887,25.887,0,0,1,2.338,3.678h0l.1.183a2.192,2.192,0,0,0-.273.284l.226,1.559.035.238a6.487,6.487,0,0,0-.951,1.621,3.462,3.462,0,0,1,.873,2.533,7.7,7.7,0,0,0,.359,3.09c-.062-.074-.83-.9-1.594-.7s-2.907.846-2.907.846-1.6.281-1.45.631-1.091,1.9-1.091,1.9l-4.286-4.068c-.039-.121-.086-.242-.125-.37a10.2,10.2,0,0,1-.39-1.781,10.194,10.194,0,0,0,1.372-.436,2.967,2.967,0,0,0,1.169-.76,4.623,4.623,0,0,0,.69-1.851,26.785,26.785,0,0,1,1.594-3.554,11.533,11.533,0,0,0,.857-6.379,4.214,4.214,0,0,0-.659-1.866c-.7-.966-1.972-1.356-2.9-2.128s-1.52-1.948-2.6-2.521a5.166,5.166,0,0,0-3.261-.281,17.567,17.567,0,0,0-6.083,2.213,3.132,3.132,0,0,1-2.034.67,2.742,2.742,0,0,1-1.469-1.079.071.071,0,0,1,.02-.058l-.047-.055a7.548,7.548,0,0,0-.635,3.184,4.555,4.555,0,0,0,.019.514v.327h0a.777.777,0,0,1-.031.23,1.681,1.681,0,0,1-.39.581,3.047,3.047,0,0,0-.351.475,1.52,1.52,0,0,1,.058-.175,2.551,2.551,0,0,0-.444,1.356,1.341,1.341,0,0,0,.32.966,4.674,4.674,0,0,0,.7.565,8.183,8.183,0,0,0,3.9,8.51c.051.121.1.245.148.37a10.243,10.243,0,0,1,.779,4.676,1.7,1.7,0,0,1-.055.343c-.023.113-.105.117-.152.179h0s-7.088.07-8.76-1.442-4.212,3.69-4.212,3.69-2.541.491-3.047,0-3.488-.07-3.488-.07a6.411,6.411,0,0,0-4.411-1.613,13.107,13.107,0,0,0-3.25-1.808h0l-.078-.027h0a3.652,3.652,0,0,0-1.6-.2,32.786,32.786,0,0,1-4.5-4.427c-1.017-1.543-5.845-7.283-5.88-7.31v-.277l-.054-.838a2.779,2.779,0,0,1-.433.039c-.027-.082-.058-.179-.1-.288a16.186,16.186,0,0,0-1.029-2.365s0-1.052.308-1.317-.129-4.13-.129-4.13-3.141-7.345-5.954-1.863c0,0-5.319,3.55-.853,7.68,0,0,1.781.861,2.03,1.559.168.444.779,1.683,1.169,2.505l.183.37-.051.043.066.69.027.265c-.842.479-1.411.951-1.274,1.309a7.928,7.928,0,0,1,.51,1.9s6.149,7.715,6.948,11.027c0,0,16.557,9.839,22,10.54l-.943,4.921a39.4,39.4,0,0,0-.218,4.006c.07,1.056-.655,5.845-.655,5.845s-.943,7.014-1.742,8.011-.635,5.194-.635,5.194a35.53,35.53,0,0,1-1.091,5.974,15.658,15.658,0,0,0-.218,5.977s-2.759,6.324,3.85,2.038c0,0,3.246-.2,6.983-.331v.39c0,.479,0,1-.023,1.559-.051,3.624-.07,8.615.094,12.4.292,6.675,2.338,19.892,2.338,19.892v6.624a9.139,9.139,0,0,0-.191,1.9,12.372,12.372,0,0,0,1.789,6.648l.51,4.427a17.332,17.332,0,0,1,1.216,4.676,2.693,2.693,0,0,1-.051.425,3.028,3.028,0,0,0-.058.678,38.248,38.248,0,0,0,1.146,6.819s.07,4.851.779,5.132c.62.242-.83,2.8-1.262,3.53a.259.259,0,0,0-.027-.14l-.09.148a3.4,3.4,0,0,0-.226,1.224,1.765,1.765,0,0,0,.807,1.707c1.379.842,2.12,1.559.947,1.828a12.55,12.55,0,0,0-1.278.269l-.062-.164a.779.779,0,0,0-.475.849,3.537,3.537,0,0,0,.433,1.644,18.75,18.75,0,0,0,1.948,3.585l.561-.062a3,3,0,0,1-.323.6,2.313,2.313,0,0,1-.822.729,2.481,2.481,0,0,1-.994.339,2.81,2.81,0,0,0-2.057,1c-.725.939-1.169,2.213.253,3.335l5.194,1.792s8.931,1.169,8.459-.846-.779-3.76-.779-3.76a7.921,7.921,0,0,0-.725-3.554,4.8,4.8,0,0,0-.316-.522l.316-.035s.655-4.43,1.523-5.272c.2-.195.249-.343.2-.46.09-.242-.136-.39-.429-.464l-.062.175a4.221,4.221,0,0,0-.869-.1s-.288-2.319.655-3.16a.9.9,0,0,0,.183-.69,3.868,3.868,0,0,0-.1-.947l-.035.055a34.306,34.306,0,0,0-2.085-5.455,6.646,6.646,0,0,1,.511-2.954c.584-.846-.074-11.456-.074-11.456s.218-5.132-.437-7.52.8-5.2.8-5.2v-.156l.02-.035s-.035-.316-.086-.807v.047c-.148-1.356-.425-3.819-.627-4.956-.292-1.617.07-9.352.07-9.352l1.309-3.3,2.338,5.7,2.47,7.591a6.457,6.457,0,0,1,1.251,3.226,1.609,1.609,0,0,1,0,.238,4.554,4.554,0,0,0-.027.51,4.5,4.5,0,0,0,.752,2.7s.655,3.585,1.672,4.5a4.054,4.054,0,0,1,1.017,2.669s1.231,5.2,1.816,6.118a9.174,9.174,0,0,1,.51,3.534h0v.191s.171,1.859.164,3.421v.557a.163.163,0,0,1,0-.043,5.707,5.707,0,0,1-.152,1.266.131.131,0,0,1-.023.074l.023-.265a13.4,13.4,0,0,0-.39,3.242c-.035,1.87.249,4.084,1.383,5.381,1.948,2.252,3.2,1.972,3.2,1.972s-.943,2.81-2.108,3.371a.644.644,0,0,0-.121.082,1.2,1.2,0,0,0-.031-.164,1.365,1.365,0,0,0-.339,1.048,7.47,7.47,0,0,0,1.438,4.166,2.269,2.269,0,0,0,.982.573l-.183.113a4.037,4.037,0,0,1-.39.191,1.881,1.881,0,0,1-.592.152,2.783,2.783,0,0,0-2.057,1c-.725.935-1.169,2.209.253,3.331l5.194,1.792S565.131,512.6,564.659,510.593Z" transform="translate(-294.167 -206.667)" fill="url(#b)"/><path d="M597.3,773.06l-5.027-1.792c-1.387-1.122-.943-2.4-.245-3.335a2.688,2.688,0,0,1,1.991-1,2.344,2.344,0,0,0,.963-.339,2.255,2.255,0,0,0,.779-.729,3.675,3.675,0,0,0,.573-1.948s5.521-1.617,7.014,0a4.149,4.149,0,0,1,.67.978,8.181,8.181,0,0,1,.7,3.554s.284,1.757.737,3.76S597.3,773.06,597.3,773.06Z" transform="translate(-360.924 -465.806)" fill="#2d293d"/><path d="M660.435,766.7l-5.027-1.792c-1.387-1.122-.947-2.4-.245-3.332a2.661,2.661,0,0,1,1.991-1,1.764,1.764,0,0,0,.573-.152,2.941,2.941,0,0,0,.39-.191,3.191,3.191,0,0,0,1.368-2.669s5.518-1.617,7.014,0a3.782,3.782,0,0,1,.526.717,7.951,7.951,0,0,1,.846,3.819s.28,1.757.737,3.76S660.435,766.7,660.435,766.7Z" transform="translate(-399.458 -461.93)" fill="#2d293d"/><path d="M610.282,763.919a4.155,4.155,0,0,1,.67.978h0l-8.273.958a3.673,3.673,0,0,0,.573-1.948S608.774,762.3,610.282,763.919Z" transform="translate(-367.83 -465.807)" opacity="0.1"/><path d="M672.093,758.273v1.559c-1.282,2.12-7.5,1.656-9.313.592a2.948,2.948,0,0,0,.39-.191,3.191,3.191,0,0,0,1.368-2.669s5.518-1.617,7.014,0A3.76,3.76,0,0,1,672.093,758.273Z" transform="translate(-404.512 -461.93)" opacity="0.1"/><path d="M623.385,614.685a14.3,14.3,0,0,0-.986,2.108v5.553c-1.4,2.338-8.713,1.559-9.7.281s-2.038-4.567-.912-5.128,2.038-3.375,2.038-3.375-1.2.281-3.094-1.968-1.337-7.24-.982-8.436,0-5.2,0-5.2.07-2.809-.495-3.725a45.867,45.867,0,0,1-1.757-6.114,4.155,4.155,0,0,0-.982-2.673c-.982-.916-1.617-4.5-1.617-4.5a4.618,4.618,0,0,1-.713-3.02,6.106,6.106,0,0,0-1.192-3.655l-2.389-7.591-2.252-5.693-1.255,3.3s-.355,7.731-.07,9.352.7,5.9.7,5.9-1.407,2.813-.779,5.2.421,7.521.421,7.521.631,10.614.07,11.456a6.894,6.894,0,0,0-.491,2.954s2.88,6.184,1.948,7.014-.635,3.164-.635,3.164,1.948,0,1.126.842-1.438,5.284-1.438,5.284l-8.5.982a17.661,17.661,0,0,1-1.905-3.585c-1.126-2.6.21-2.338,1.344-2.6s.413-.986-.92-1.828-.565-2.728-.565-2.728,2.038-3.445,1.337-3.729-.779-5.128-.779-5.128-1.407-5.767-1.056-7.31-1.126-5.272-1.126-5.272l-.491-4.43a12.184,12.184,0,0,1-1.559-8.362v-6.831s-1.948-13.213-2.248-19.892c-.179-4.286-.129-10.112-.07-13.755.035-2.042.07-3.394.07-3.394l30.374-3.172a25.072,25.072,0,0,0,.549,4.508c.308,1.668.779,3.827,1.559,6.527a29.632,29.632,0,0,1,.842,13.494l-.281,9.773s2.673,6.535,2.108,8.787a18.711,18.711,0,0,0-.561,4.076s5.974,14.269,5.342,18.415,1.948,10.685,1.948,10.685S624.087,613.419,623.385,614.685Z" transform="translate(-354.818 -325.009)" fill="#59348d"/><path d="M644.65,647.491l9.247-1.231S648.66,651.6,644.65,647.491Z" transform="translate(-393.446 -394.436)" opacity="0.05"/><path d="M662.3,623.08s.315,3.269-1.687,4.5C660.614,627.58,664.2,627.016,662.3,623.08Z" transform="translate(-403.187 -380.288)" opacity="0.1"/><path d="M646.407,596.39s-7.727,6.359-10.521,5.845S646.407,596.39,646.407,596.39Z" transform="translate(-387.862 -363.998)" opacity="0.1"/><path d="M605.778,657.09s-5.868,1.333-6.044,3.69S605.778,657.09,605.778,657.09Z" transform="translate(-366.03 -401.046)" opacity="0.1"/><path d="M608.6,732.31s-8.292,1.558-5.938,2.6a41.785,41.785,0,0,0,6.234,1.9S611.553,736.947,608.6,732.31Z" transform="translate(-367.562 -446.955)" opacity="0.05"/><g transform="translate(226.536 210.47)" opacity="0.05"><path d="M597.349,741.394a1.653,1.653,0,0,1-.756-1.2l-.086.148s-.779,1.9.561,2.728c.156.1.3.195.433.288.249-.047.514-.082.779-.144C599.4,742.937,598.685,742.236,597.349,741.394Z" transform="translate(-590.461 -662.234)"/><path d="M625.824,739.566c.23-.21.222-.752.082-1.446a3.917,3.917,0,0,0-.472,2.038A1.7,1.7,0,0,1,625.824,739.566Z" transform="translate(-608.252 -660.971)"/><path d="M622.291,652.09a9.457,9.457,0,0,0-.561,2.583,10.174,10.174,0,0,1,.643-1.777S622.342,652.581,622.291,652.09Z" transform="translate(-605.993 -608.464)"/><path d="M671.7,641.4a3.236,3.236,0,0,0,.078-.779c-.105.522-.179,1.009-.23,1.438A3.781,3.781,0,0,1,671.7,641.4Z" transform="translate(-636.4 -601.463)"/><path d="M622.369,713.779a4.489,4.489,0,0,0,.21-1.559,5.293,5.293,0,0,0-.39,1.972A1.9,1.9,0,0,1,622.369,713.779Z" transform="translate(-606.274 -645.163)"/><path d="M608.206,750.23a27.692,27.692,0,0,0-.966,4.317l-8.5.986a17.814,17.814,0,0,1-1.906-3.585c-.1-.23-.175-.433-.238-.62-.51.234-.709.779-.043,2.307a17.976,17.976,0,0,0,1.9,3.585l8.51-.986s.631-4.427,1.473-5.272C608.849,750.549,608.584,750.339,608.206,750.23Z" transform="translate(-590.369 -668.362)"/><path d="M587.951,609.377s.07,4.851.779,5.132h0c.355-.8.592-1.559.277-1.691-.705-.281-.779-5.132-.779-5.132s-1.4-5.763-1.052-7.31-1.126-5.272-1.126-5.272l-.491-4.427A12.169,12.169,0,0,1,584,582.311v-6.819s-1.948-13.213-2.248-19.873c-.179-4.286-.129-10.131-.07-13.755,0-.659.019-1.243.031-1.734l-.242.023s-.039,1.352-.07,3.4c-.062,3.639-.113,9.477.07,13.751.281,6.679,2.248,19.892,2.248,19.892v6.819a12.168,12.168,0,0,0,1.559,8.366l.495,4.4s1.477,3.725,1.126,5.272S587.951,609.377,587.951,609.377Z" transform="translate(-581.343 -540.13)"/><path d="M659.892,753.739a8.184,8.184,0,0,1-1.344-3.339c-.869.779.128,3.823,1.064,5.027.982,1.263,8.292,2.038,9.7-.281v-1.34C667.408,755.692,660.835,754.936,659.892,753.739Z" transform="translate(-628.26 -668.466)"/><path d="M688.4,738.492a13.648,13.648,0,0,0-.986,2.108v.978c.16-.362.39-.842.705-1.411a4.206,4.206,0,0,0,.308-1.738A.244.244,0,0,0,688.4,738.492Z" transform="translate(-646.08 -661.16)"/><path d="M657.327,725.195a13.553,13.553,0,0,0,.694-1.672s-1.2.281-3.094-1.948c-1.383-1.637-1.461-4.727-1.263-6.745-.355,1.192-.916,6.184.982,8.432A5.04,5.04,0,0,0,657.327,725.195Z" transform="translate(-625.263 -646.756)"/><path d="M634.781,640.872a37.536,37.536,0,0,1,.14,4.165,6.07,6.07,0,0,1,.144-.655c.355-1.192,0-5.2,0-5.2s.07-2.813-.491-3.725a46.324,46.324,0,0,1-1.757-6.118,4.141,4.141,0,0,0-.982-2.669c-.982-.912-1.617-4.5-1.617-4.5a4.6,4.6,0,0,1-.705-3.02,6.133,6.133,0,0,0-1.192-3.655l-2.393-7.594-2.248-5.693-1.266,3.3s0,.417-.043,1.068L623.4,603.9l2.248,5.693,2.4,7.594a6.126,6.126,0,0,1,1.2,3.655,4.6,4.6,0,0,0,.705,3.02s.631,3.585,1.613,4.5a4.16,4.16,0,0,1,.986,2.669,46.494,46.494,0,0,0,1.757,6.118C634.866,638.063,634.781,640.872,634.781,640.872Z" transform="translate(-606.384 -578.02)"/></g><path d="M658.553,359.137l-.53,2.564.031,1.142.023.846-2.934.3-.327-.608h0a26.854,26.854,0,0,0-2.276-3.678c-.542-.456-1.508-7.591-.347-7.17a3.069,3.069,0,0,1,1.633,1.481S659.589,354.691,658.553,359.137Z" transform="translate(-397.716 -215.151)" fill="#ffcdd3"/><path d="M663.041,379.37l-2.934.3-.327-.608h0a2.591,2.591,0,0,1,3.238-.534Z" transform="translate(-402.68 -230.817)" opacity="0.1"/><path d="M663.519,381.158l-3.869.9-.078-.577-.222-1.559a2.661,2.661,0,0,1,3.745-.51l.191.779Z" transform="translate(-402.418 -231.218)" fill="#dce6f2"/><path d="M494.626,350.937,490.5,353.15l-.39-.779c-.39-.822-.978-2.061-1.138-2.505-.245-.682-1.968-1.559-1.968-1.559-4.321-4.13.826-7.68.826-7.68,2.728-5.483,5.763,1.863,5.763,1.863s.421,3.869.125,4.13-.3,1.317-.3,1.317a15.965,15.965,0,0,1,1,2.365C494.56,350.7,494.626,350.937,494.626,350.937Z" transform="translate(-296.174 -206.655)" fill="#ffcdd3"/><path d="M502.2,369.247l-4.127,2.213-.39-.779c.581-.483,2.65-2.159,3.328-2.085a5.189,5.189,0,0,0,.978.027C502.13,369.005,502.2,369.247,502.2,369.247Z" transform="translate(-303.744 -224.965)" opacity="0.1"/><path d="M502.837,370.973l-4.637,2.287-.094-1-.066-.69s2.689-2.3,3.484-2.217a4.186,4.186,0,0,0,1.212,0l.051.834Z" transform="translate(-303.964 -225.429)" fill="#dce6f2"/><path d="M614.009,388.722s-20.231,2.283-16.448,1.056a5.073,5.073,0,0,0,3.9-4.388,10.539,10.539,0,0,0-.756-4.676,20.119,20.119,0,0,0-1.808-3.655s15.466-8.506,12.372-.779a12.39,12.39,0,0,0-.877,3.663,10.239,10.239,0,0,0,.39,3.706A11.012,11.012,0,0,0,614.009,388.722Z" transform="translate(-364.418 -227.677)" fill="#ffcdd3"/><path d="M614.092,376.275a12.391,12.391,0,0,0-.877,3.663c-1.457,1.224-3.055,1.142-5.1,1.142-1.559,0-3.32.39-4.582-.39a20.12,20.12,0,0,0-1.808-3.655S617.186,368.536,614.092,376.275Z" transform="translate(-367.244 -227.668)" opacity="0.1"/><circle cx="8.366" cy="8.366" r="8.366" transform="translate(232.224 137.218)" fill="#ffcdd3"/><path d="M614.009,403.984s-20.231,2.283-16.448,1.056a5.073,5.073,0,0,0,3.9-4.388,11.036,11.036,0,0,1,4.329-2.3,6.045,6.045,0,0,1,3.667-.058,5.1,5.1,0,0,1,1.333.616A11.014,11.014,0,0,0,614.009,403.984Z" transform="translate(-364.418 -242.938)" opacity="0.1"/><path d="M663.867,383.089l-3.869.9-.078-.577a3.417,3.417,0,0,1,3.714-1.27Z" transform="translate(-402.766 -233.149)" opacity="0.1"/><path d="M502.94,372.283,498.3,374.57l-.093-1a34.067,34.067,0,0,1,4.676-2.073Z" transform="translate(-304.068 -226.739)" opacity="0.1"/><path d="M612.506,537.026c-7.832,1.239-18.984,2.848-20.753,2.311-1.465-.448-6.153-.39-10.232-.261.035-2.042.07-3.394.07-3.394l30.366-3.172A25.087,25.087,0,0,0,612.506,537.026Z" transform="translate(-354.915 -325.009)" opacity="0.1"/><path d="M567.578,437.307s-25.8,4.43-28.566,3.585-16.981.07-16.981.07c-6.394,4.286-3.725-2.038-3.725-2.038a15.74,15.74,0,0,1,.21-5.973,36.368,36.368,0,0,0,1.075-5.974s-.14-4.22.631-5.2,1.687-8.015,1.687-8.015.705-4.777.635-5.845a40.015,40.015,0,0,1,.21-4.006l.912-4.921c-5.272-.7-21.3-10.544-21.3-10.544-.779-3.3-6.745-11.035-6.745-11.035a8.028,8.028,0,0,0-.495-1.9c-.421-1.122,5.907-3.371,5.907-3.371s4.707,5.763,5.693,7.31a32.123,32.123,0,0,0,4.356,4.427,3.426,3.426,0,0,1,1.559.2l.082.023h0a12.6,12.6,0,0,1,3.148,1.808,6.1,6.1,0,0,1,4.286,1.617s2.883-.421,3.374.07,2.954,0,2.954,0,2.459-5.2,4.076-3.69,8.475,1.442,8.475,1.442c.916-1.216,3.141-2.089,4.532-2.537a6.071,6.071,0,0,1,3.667-.058,4.726,4.726,0,0,1,1.446.7l4.162,4.076s1.2-1.559,1.056-1.9,1.407-.631,1.407-.631,2.038-.635,2.809-.846,1.481.627,1.559.7a8.239,8.239,0,0,1-.347-3.09,3.637,3.637,0,0,0-.846-2.533c2.463-6.044,8.015-.982,8.015-.982s.631,3.3.07,4.567.561,3.939.421,4.641.281,1.9.281,3.234a18.964,18.964,0,0,1-1.126,4.988c-.425,1.122-3.8,3.655-3.8,3.655s-.21,4.01-1.687,6.328-.6,10.264-.6,10.264,1.407,6.2,3.176,8.183S567.578,437.307,567.578,437.307Z" transform="translate(-302.175 -227.129)" fill="#59348d"/><path d="M579.085,413.94s-.779-2.318-1.477-2.529a16.724,16.724,0,0,1-2.038-.916l.452-.865s2.638.725,3.063,1.5S579.085,413.94,579.085,413.94Z" transform="translate(-351.284 -250.011)" opacity="0.1"/><path d="M538.308,404.635c-.14.7-6.4,1.337-6.4,1.337l3.164-3.172h0l.078.027h0A12.605,12.605,0,0,1,538.308,404.635Z" transform="translate(-324.636 -245.842)" opacity="0.1"/><circle cx="0.561" cy="0.561" r="0.561" transform="translate(195.007 148.588)" fill="#575988"/><circle cx="0.561" cy="0.561" r="0.561" transform="translate(195.728 149.714)" fill="#575988"/><circle cx="0.561" cy="0.561" r="0.561" transform="translate(196.433 150.75)" fill="#575988"/><circle cx="0.561" cy="0.561" r="0.561" transform="translate(197.17 151.877)" fill="#575988"/><circle cx="0.456" cy="0.456" r="0.456" transform="translate(263.533 151.919)" fill="#575988"/><circle cx="0.456" cy="0.456" r="0.456" transform="translate(263.603 152.956)" fill="#575988"/><circle cx="0.456" cy="0.456" r="0.456" transform="translate(263.665 153.992)" fill="#575988"/><path d="M584.68,469.57c-.066-.082,15.777,19.927,28.079,8.366C612.758,477.936,593.322,480.57,584.68,469.57Z" transform="translate(-356.844 -286.594)" opacity="0.1"/><path d="M561.32,496.27s9.48.257,10.47,2.985V502.1a1.811,1.811,0,0,1-1.761,0c-.955-.518-6.69-3.429-8.709-2.03Z" transform="translate(-342.586 -302.891)" opacity="0.1"/><path d="M561.77,496.27s9.067.246,10.014,2.848v2.7a1.737,1.737,0,0,1-1.687,0c-.912-.491-6.394-3.269-8.327-1.948Z" transform="translate(-342.861 -302.891)" opacity="0.1"/><path d="M574.6,443.43a30.627,30.627,0,0,0,3.674,6.309,24.732,24.732,0,0,0,5.759,5.56S574.756,444.735,574.6,443.43Z" transform="translate(-350.692 -270.64)" opacity="0.1"/><path d="M566.64,415.16s1.582,6.827,5.658,9.149Z" transform="translate(-345.833 -253.386)" opacity="0.1"/><path d="M560.19,416.927c-.039-.125-1.4,5.4,5.257,8.46C565.462,425.386,562.618,424.424,560.19,416.927Z" transform="translate(-341.811 -254.463)" opacity="0.1"/><path d="M666.656,405.173a47.808,47.808,0,0,1,4.208,3.16S668.659,405.033,666.656,405.173Z" transform="translate(-406.876 -247.288)" opacity="0.1"/><path d="M600.735,363.5a1.781,1.781,0,0,0,.655,1.13,1.8,1.8,0,0,0,.779.175c2.552.156,5.206.269,7.563-.713a2.86,2.86,0,0,0,1.169-.76,4.715,4.715,0,0,0,.67-1.851,24.285,24.285,0,0,1,1.559-3.554,11.92,11.92,0,0,0,.826-6.379,4.227,4.227,0,0,0-.635-1.866c-.678-.966-1.909-1.356-2.806-2.124s-1.469-1.948-2.513-2.525a4.851,4.851,0,0,0-3.156-.281,16.653,16.653,0,0,0-5.931,2.213,2.945,2.945,0,0,1-1.948.67,2.722,2.722,0,0,1-1.45-1.111,7.8,7.8,0,0,0-.623,3.643,1.635,1.635,0,0,1,0,.549,1.7,1.7,0,0,1-.39.581c-.631.729-1.025,1.886-.39,2.622.269.323.686.5.951.826.471.588.312,1.43.3,2.186a1.113,1.113,0,0,0,.187.74,1.079,1.079,0,0,0,1.033.246,2.861,2.861,0,0,1,1.1-.105,1.806,1.806,0,0,1,.955.736A13.52,13.52,0,0,1,600.735,363.5Z" transform="translate(-362.405 -210.338)" fill="#2d293d"/><g transform="translate(231.361 136.111)" opacity="0.1"><path d="M611.13,373.64a2.832,2.832,0,0,1-1.169.779c-2.338.982-5.011.869-7.563.709a1.7,1.7,0,0,1-.779-.175,1.77,1.77,0,0,1-.655-1.13,13.024,13.024,0,0,0-2.131-4.945,1.807,1.807,0,0,0-.955-.736,2.786,2.786,0,0,0-1.1.105,1.087,1.087,0,0,1-1.021-.246,1.124,1.124,0,0,1-.187-.744c0-.752.171-1.6-.3-2.182-.265-.331-.678-.5-.951-.826a1.652,1.652,0,0,1-.164-1.679,1.924,1.924,0,0,0-.117,2.241c.269.323.686.5.951.826.472.588.312,1.43.3,2.186a1.114,1.114,0,0,0,.187.74,1.079,1.079,0,0,0,1.033.245,2.864,2.864,0,0,1,1.1-.105,1.807,1.807,0,0,1,.955.737,13.2,13.2,0,0,1,2.132,4.949,1.321,1.321,0,0,0,1.331,1.311c.037,0,.074,0,.111-.005,2.552.156,5.206.269,7.563-.713a2.858,2.858,0,0,0,1.169-.76,2.237,2.237,0,0,0,.362-.678A1.207,1.207,0,0,1,611.13,373.64Z" transform="translate(-593.726 -357.399)"/><path d="M596.552,353.352a1.172,1.172,0,0,0,.257-.421,1.628,1.628,0,0,0,0-.549,7.751,7.751,0,0,1,.39-3.028l-.047-.055a7.735,7.735,0,0,0-.623,3.643A2.391,2.391,0,0,1,596.552,353.352Z" transform="translate(-595.425 -349.3)"/></g><path d="M607.78,405.787s10.451,1.383,11.39-.187" transform="translate(-370.943 -247.551)" opacity="0.1"/><path d="M659.94,394.98s5.8,0,7.08,2.186" transform="translate(-402.778 -241.069)" opacity="0.1"/><path d="M977.546,381.51s.725.947-.335,2.381-1.948,2.646-1.582,3.538c0,0,1.6-2.661,2.9-2.7S978.98,383.092,977.546,381.51Z" transform="translate(-595.404 -232.848)" fill="#0fb299"/><path d="M977.616,381.51a1.275,1.275,0,0,1,.148.3c1.27,1.5,1.948,2.887.725,2.922-1.138.035-2.5,2.069-2.829,2.583a.344.344,0,0,0,.039.117c.016.039,1.6-2.661,2.9-2.7S979.05,383.092,977.616,381.51Z" transform="translate(-595.474 -232.848)" opacity="0.1"/><path d="M983.878,384.226c0,.335-.035.608-.082.608s-.086-.273-.086-.608.047-.175.094-.175S983.878,383.894,983.878,384.226Z" transform="translate(-600.388 -234.375)" fill="#eb569c"/><path d="M984.437,385.23c-.292.16-.549.257-.569.214s.195-.2.491-.362.176-.043.2,0S984.733,385.071,984.437,385.23Z" transform="translate(-600.484 -234.979)" fill="#eb569c"/><path d="M968.283,381.51s-.729.947.335,2.381,1.948,2.646,1.582,3.538c0,0-1.6-2.661-2.907-2.7S966.849,383.092,968.283,381.51Z" transform="translate(-589.976 -232.848)" fill="#0fb299"/><path d="M968.283,381.51a1.2,1.2,0,0,0-.152.3c-1.27,1.5-1.948,2.887-.725,2.922,1.138.035,2.505,2.069,2.833,2.583a.346.346,0,0,1-.039.117c-.016.039-1.6-2.661-2.907-2.7S966.849,383.092,968.283,381.51Z" transform="translate(-589.976 -232.848)" opacity="0.1"/><path d="M967.37,384.228c0,.335.039.608.086.608a1.231,1.231,0,0,0,.082-.608c0-.331-.047-.175-.093-.175S967.37,383.9,967.37,384.228Z" transform="translate(-590.415 -234.378)" fill="#eb569c"/><path d="M965.9,385.23c.3.16.549.257.573.214s-.2-.2-.491-.362-.179-.043-.2,0S965.607,385.071,965.9,385.23Z" transform="translate(-589.408 -234.979)" fill="#eb569c"/><path d="M967.94,394.611a7.427,7.427,0,0,0,2.642-.5c.612-.436,3.117-.955,3.277-.257s3.051,3.476.779,3.507-5.327-.355-5.938-.729S967.94,394.611,967.94,394.611Z" transform="translate(-590.763 -240.175)" fill="#a8a8a8"/><path d="M974.666,398.828c-2.291,0-5.327-.358-5.935-.729-.468-.284-.651-1.3-.713-1.769h-.078s.129,1.64.74,2.011,3.643.748,5.938.729c.662,0,.888-.242.877-.588C975.41,398.691,975.16,398.824,974.666,398.828Z" transform="translate(-590.763 -241.893)" opacity="0.2"/><g transform="translate(166.12 89.535)"><path d="M444.3,230.549a21.535,21.535,0,0,0-18,20.712l8.307-1.248a13.434,13.434,0,0,1,2.205-5.75A41.274,41.274,0,0,1,444.3,230.549Z" transform="translate(-426.297 -230.245)" fill="#ff4713"/><path d="M476.367,239.837a46.375,46.375,0,0,1,10.079-1.845,21.251,21.251,0,0,0-17.836-8.2,34.953,34.953,0,0,0-6.992,10.679A13.482,13.482,0,0,1,476.367,239.837Z" transform="translate(-447.855 -229.77)" fill="#c8d6eb"/><path d="M508.092,271.849a58.816,58.816,0,0,1,7.131,4.144,21.725,21.725,0,0,0-1.451-20.625,46.147,46.147,0,0,0-9.427,1.468c.212.183.425.364.628.563A13.472,13.472,0,0,1,508.092,271.849Z" transform="translate(-473.933 -245.393)" fill="#b0c8e9"/><path d="M494.924,301.954a13.282,13.282,0,0,1-9.768,6.765l-1.089,8.316a21.591,21.591,0,0,0,17.943-10.963A57.363,57.363,0,0,0,494.924,301.954Z" transform="translate(-461.556 -273.827)" fill="#7ba4dd"/><circle cx="7.732" cy="7.732" r="7.732" transform="translate(13.889 13.216)" fill="#003057"/></g></g></svg>