<svg xmlns="http://www.w3.org/2000/svg" xmlns:xlink="http://www.w3.org/1999/xlink" width="430" height="316.438" viewBox="0 0 430 316.438"><defs><linearGradient id="a" x1="0.897" y1="-1.069" x2="0.897" y2="-0.069" gradientUnits="objectBoundingBox"><stop offset="0" stop-color="gray" stop-opacity="0.251"/><stop offset="0.54" stop-color="gray" stop-opacity="0.122"/><stop offset="1" stop-color="gray" stop-opacity="0.102"/></linearGradient></defs><g transform="translate(-0.001 -0.005)"><path d="M249.839,47.123c-27.566-.949-53.823-9.791-78.893-19.458s-49.908-20.38-76.812-25.5c-17.307-3.3-37.1-3.752-51.041,5.453C29.671,16.479,25.337,31.8,23.008,45.989c-1.754,10.687-2.786,21.918,2.017,31.936,3.337,6.942,9.262,12.78,13.361,19.431,14.251,23.15,4.186,51.692-11.272,74.29-7.23,10.6-15.652,20.716-21.242,32s-8.178,24.215-3.288,35.726c4.852,11.412,16.4,19.983,28.921,26.01,25.424,12.244,55.383,15.751,84.6,17.735,64.672,4.376,129.687,2.487,194.527.6,24-.707,48.1-1.421,71.7-5.105,13.106-2.044,26.638-5.291,36.151-13.132,12.082-9.954,15.077-26.808,6.979-39.3-13.578-20.932-51.125-26.131-60.616-48.6-5.225-12.365.141-26.139,7.733-37.608,16.287-24.6,43.587-46.186,45.025-74.309.989-19.314-12.135-38.659-32.426-47.8-21.272-9.58-50.764-8.374-66.457,7.482C302.574,41.681,274.178,47.962,249.839,47.123Z" transform="translate(0 0)" fill="#ede8f2"/><path d="M548.562,702.528,469.18,701.51l.232-2.035,3.839-33.585h69.714l5.129,33.585.391,2.544Z" transform="translate(-293.237 -416.889)" fill="#d0d2d5"/><path d="M548.485,750.934H508.871l-39.691-.509.232-2.035h78.682Z" transform="translate(-293.234 -465.804)" opacity="0.1"/><rect width="105.334" height="2.544" transform="translate(162.73 283.094)" fill="#d0d2d5"/><path d="M463.3,160.676c.016-3.658-2.633-6.638-5.918-6.656H193.222c-3.285.016-5.936,2.994-5.922,6.652V338.98h276Z" transform="translate(-111.052 -100.332)" fill="#3f3f42"/><path d="M187.3,604.02V624.9c0,3.642,2.664,6.595,5.951,6.595H458.7c3.285,0,5.947-2.954,5.947-6.595V604.02Z" transform="translate(-111.052 -375.581)" fill="#d0d2d5"/><rect width="276" height="160.29" transform="translate(76.251 64.744)" fill="#d2d7e1"/><path d="M558.567,632.089a6.876,6.876,0,0,0,5.406-2.622h0a7.031,7.031,0,0,0,.533-.786l-3.77-.619,4.071.033a6.861,6.861,0,0,0,.13-5.447l-5.467,2.85,5.044-3.7a6.868,6.868,0,1,0-11.346,7.686h0A6.868,6.868,0,0,0,558.567,632.089Z" transform="translate(-342.215 -383.755)" fill="#3f3f42"/><path d="M585.43,671.52l31.667,31.8-4.857-31.8Z" transform="translate(-363.8 -420.227)" opacity="0.1"/><rect width="186.039" height="111.542" rx="2.6" transform="translate(86.64 92.817)" fill="#fff"/><rect width="276" height="9.363" transform="translate(76.251 68.956)" fill="#fff"/><rect width="85.488" height="5.699" rx="0.58" transform="translate(172.26 70.531)" fill="#d2d7e1"/><path d="M659.038,189.855h-.208l-.077-.065a1.729,1.729,0,0,0,.407-1.107,1.685,1.685,0,1,0-1.681,1.7,1.739,1.739,0,0,0,1.107-.407l.077.065v.212l1.3,1.3.407-.407Zm-1.563,0a1.176,1.176,0,1,1,1.172-1.181v.008a1.164,1.164,0,0,1-1.156,1.172Z" transform="translate(-406.412 -115.91)" fill="#444053"/><rect width="26.461" height="17.912" rx="2.43" transform="translate(276.231 87.019)" fill="#fff"/><rect width="34.195" height="2.85" rx="0.61" transform="translate(306.887 87.308)" fill="#fff"/><rect width="34.195" height="2.85" rx="0.61" transform="translate(306.887 93.012)" fill="#fff"/><rect width="34.195" height="2.85" rx="0.61" transform="translate(306.887 98.717)" fill="#fff"/><rect width="26.461" height="17.912" rx="2.43" transform="translate(276.231 113.174)" fill="#fff"/><rect width="34.195" height="2.85" rx="0.61" transform="translate(306.887 113.549)" fill="#fff"/><rect width="34.195" height="2.85" rx="0.61" transform="translate(306.887 119.254)" fill="#fff"/><rect width="34.195" height="2.85" rx="0.66" transform="translate(306.887 124.958)" fill="#fff"/><rect width="26.461" height="17.912" rx="2.43" transform="translate(276.231 139.328)" fill="#fff"/><rect width="34.195" height="2.85" rx="0.66" transform="translate(306.887 139.791)" fill="#fff"/><rect width="34.195" height="2.85" rx="0.66" transform="translate(306.887 145.495)" fill="#fff"/><rect width="34.195" height="2.85" rx="0.66" transform="translate(306.887 151.2)" fill="#fff"/><rect width="26.461" height="17.912" rx="2.43" transform="translate(276.231 165.483)" fill="#fff"/><rect width="34.195" height="2.85" rx="0.66" transform="translate(306.887 166.032)" fill="#fff"/><rect width="34.195" height="2.85" rx="0.66" transform="translate(306.887 171.737)" fill="#fff"/><rect width="34.195" height="2.85" rx="0.66" transform="translate(306.887 177.442)" fill="#fff"/><rect width="26.461" height="17.912" rx="2.43" transform="translate(276.231 191.638)" fill="#fff"/><rect width="34.195" height="2.85" rx="0.66" transform="translate(306.887 192.274)" fill="#fff"/><rect width="34.195" height="2.85" rx="0.66" transform="translate(306.887 197.978)" fill="#fff"/><rect width="34.195" height="2.85" rx="0.66" transform="translate(306.887 203.683)" fill="#fff"/><rect width="41.861" height="2.17" transform="translate(115.224 123.687)" fill="#3f3f42" opacity="0.1"/><rect width="4.03" height="11.472" transform="translate(119.438 112.742)" fill="#3f3f42" opacity="0.1"/><rect width="4.03" height="11.472" transform="translate(124.941 112.742)" fill="#3f3f42" opacity="0.1"/><rect width="4.03" height="11.472" transform="translate(130.444 112.742)" fill="#3f3f42" opacity="0.1"/><rect width="4.03" height="11.472" transform="translate(135.947 112.742)" fill="#3f3f42" opacity="0.1"/><rect width="4.03" height="11.472" transform="translate(141.45 112.742)" fill="#3f3f42" opacity="0.1"/><rect width="4.03" height="11.472" transform="translate(146.957 112.742)" fill="#3f3f42" opacity="0.1"/><rect width="4.03" height="1.242" transform="translate(119.438 115.018)" fill="#3f3f42" opacity="0.1"/><rect width="4.03" height="1.242" transform="translate(124.941 115.018)" fill="#3f3f42" opacity="0.1"/><rect width="4.03" height="1.242" transform="translate(130.444 115.018)" fill="#3f3f42" opacity="0.1"/><rect width="4.03" height="1.242" transform="translate(135.947 115.018)" fill="#3f3f42" opacity="0.1"/><rect width="4.03" height="1.242" transform="translate(141.45 115.018)" fill="#3f3f42" opacity="0.1"/><rect width="4.03" height="1.242" transform="translate(146.957 115.018)" fill="#3f3f42" opacity="0.1"/><rect width="4.03" height="1.242" transform="translate(119.438 120.234)" fill="#3f3f42" opacity="0.1"/><rect width="4.03" height="1.242" transform="translate(124.941 120.234)" fill="#3f3f42" opacity="0.1"/><rect width="4.03" height="1.242" transform="translate(130.444 120.234)" fill="#3f3f42" opacity="0.1"/><rect width="4.03" height="1.242" transform="translate(135.947 120.234)" fill="#3f3f42" opacity="0.1"/><rect width="4.03" height="1.242" transform="translate(141.45 120.234)" fill="#3f3f42" opacity="0.1"/><rect width="4.03" height="1.242" transform="translate(146.957 120.234)" fill="#3f3f42" opacity="0.1"/><rect width="41.861" height="2.17" transform="translate(200.417 128.902)" fill="#3f3f42" opacity="0.1"/><rect width="4.03" height="11.472" transform="translate(205.178 117.947)" fill="#3f3f42" opacity="0.1"/><rect width="4.03" height="11.472" transform="translate(210.681 117.947)" fill="#3f3f42" opacity="0.1"/><rect width="4.03" height="11.472" transform="translate(216.184 117.947)" fill="#3f3f42" opacity="0.1"/><rect width="4.03" height="11.472" transform="translate(221.69 117.947)" fill="#3f3f42" opacity="0.1"/><rect width="4.03" height="11.472" transform="translate(227.193 117.947)" fill="#3f3f42" opacity="0.1"/><rect width="4.03" height="11.472" transform="translate(232.696 117.947)" fill="#3f3f42" opacity="0.1"/><rect width="4.03" height="1.242" transform="translate(205.178 120.234)" fill="#3f3f42" opacity="0.1"/><rect width="4.03" height="1.242" transform="translate(210.681 120.234)" fill="#3f3f42" opacity="0.1"/><rect width="4.03" height="1.242" transform="translate(216.184 120.234)" fill="#3f3f42" opacity="0.1"/><rect width="4.03" height="1.242" transform="translate(221.69 120.234)" fill="#3f3f42" opacity="0.1"/><rect width="4.03" height="1.242" transform="translate(227.193 120.234)" fill="#3f3f42" opacity="0.1"/><rect width="4.03" height="1.242" transform="translate(232.696 120.234)" fill="#3f3f42" opacity="0.1"/><rect width="4.03" height="1.242" transform="translate(205.178 125.449)" fill="#3f3f42" opacity="0.1"/><rect width="4.03" height="1.242" transform="translate(210.681 125.449)" fill="#3f3f42" opacity="0.1"/><rect width="4.03" height="1.242" transform="translate(216.184 125.449)" fill="#3f3f42" opacity="0.1"/><rect width="4.03" height="1.242" transform="translate(221.69 125.449)" fill="#3f3f42" opacity="0.1"/><rect width="4.03" height="1.242" transform="translate(227.193 125.449)" fill="#3f3f42" opacity="0.1"/><rect width="4.03" height="1.242" transform="translate(232.696 125.449)" fill="#3f3f42" opacity="0.1"/><rect width="41.861" height="2.17" transform="translate(200.417 143.675)" fill="#3f3f42" opacity="0.1"/><rect width="4.03" height="11.472" transform="translate(205.178 132.691)" fill="#3f3f42" opacity="0.1"/><rect width="4.03" height="11.472" transform="translate(210.681 132.691)" fill="#3f3f42" opacity="0.1"/><rect width="4.03" height="11.472" transform="translate(216.184 132.691)" fill="#3f3f42" opacity="0.1"/><rect width="4.03" height="11.472" transform="translate(221.69 132.691)" fill="#3f3f42" opacity="0.1"/><rect width="4.03" height="11.472" transform="translate(227.193 132.691)" fill="#3f3f42" opacity="0.1"/><rect width="4.03" height="11.472" transform="translate(232.696 132.691)" fill="#3f3f42" opacity="0.1"/><rect width="4.03" height="1.242" transform="translate(205.178 135.01)" fill="#3f3f42" opacity="0.1"/><rect width="4.03" height="1.242" transform="translate(210.681 135.01)" fill="#3f3f42" opacity="0.1"/><rect width="4.03" height="1.242" transform="translate(216.184 135.01)" fill="#3f3f42" opacity="0.1"/><rect width="4.03" height="1.242" transform="translate(221.69 135.01)" fill="#3f3f42" opacity="0.1"/><rect width="4.03" height="1.242" transform="translate(227.193 135.01)" fill="#3f3f42" opacity="0.1"/><rect width="4.03" height="1.242" transform="translate(232.696 135.01)" fill="#3f3f42" opacity="0.1"/><rect width="4.03" height="1.242" transform="translate(205.178 140.226)" fill="#3f3f42" opacity="0.1"/><rect width="4.03" height="1.242" transform="translate(210.681 140.226)" fill="#3f3f42" opacity="0.1"/><rect width="4.03" height="1.242" transform="translate(216.184 140.226)" fill="#3f3f42" opacity="0.1"/><rect width="4.03" height="1.242" transform="translate(221.69 140.226)" fill="#3f3f42" opacity="0.1"/><rect width="4.03" height="1.242" transform="translate(227.193 140.226)" fill="#3f3f42" opacity="0.1"/><rect width="4.03" height="1.242" transform="translate(232.696 140.226)" fill="#3f3f42" opacity="0.1"/><path d="M364.561,359.438a11.6,11.6,0,0,1-.855-1.258l6.029-.989-6.513.049a11.015,11.015,0,0,1-.212-8.7l8.732,4.527-8.064-5.927a10.991,10.991,0,1,1,18.144,12.294,10.7,10.7,0,0,1,1.254,2l-7.824,4.071,8.341-2.8a10.992,10.992,0,0,1-1.771,10.3,10.991,10.991,0,1,1-17.26,0,10.991,10.991,0,0,1,0-13.585Z" transform="translate(-224.852 -213.139)" fill="#10ac95" opacity="0.1"/><path d="M384.175,401.884a10.945,10.945,0,0,1-2.353,6.782,10.991,10.991,0,1,1-17.26,0C363.083,406.806,384.175,400.651,384.175,401.884Z" transform="translate(-224.852 -249.69)" fill="#10ac95" opacity="0.1"/><path d="M387.543,465.1c.019.029.037.059.053.09h-3.729c.02-.029.033-.061.053-.09a3.611,3.611,0,0,1-.48-1.836,3.773,3.773,0,0,1,.224-1.295h0c.208.033.464.069.761.1a13.04,13.04,0,0,0,2.6,0q.374-.037.769-.1a.035.035,0,0,0,0,.02,3.665,3.665,0,0,1,.22,1.274A3.61,3.61,0,0,1,387.543,465.1Z" transform="translate(-237.628 -286.288)" fill="#3f3d56" opacity="0.2"/><path d="M317.789,410.677H297.028c-.045-.118-.085-.244-.122-.366a10.93,10.93,0,0,1,.24-7.181,10.991,10.991,0,0,1-4.01-12.982,10.531,10.531,0,0,1-1.185-.949l5.463-2.723-6.212,1.97a10.991,10.991,0,0,1-2.768-8.252l9.693,1.75-9.453-3.285a10.991,10.991,0,1,1,20.961,6.391,11.137,11.137,0,0,1,1.8,1.567l-6.277,6.192,7.144-5.137a10.992,10.992,0,0,1,1.352,10.381A10.992,10.992,0,0,1,317.789,410.677Z" transform="translate(-179.184 -230.556)" fill="#10ac95" opacity="0.1"/><path d="M329.466,440.881H308.7c-.045-.118-.085-.244-.122-.366a10.929,10.929,0,0,1,.24-7.181c-1.954-1.352,16.377-13.462,16.739-12.282a10.942,10.942,0,0,1-.24,7.185A10.991,10.991,0,0,1,329.466,440.881Z" transform="translate(-191.26 -261.471)" fill="#10ac95" opacity="0.1"/><path d="M541.7,409.137a10.95,10.95,0,0,1-5.5,4.625,11.137,11.137,0,0,1,.045,2.361l-8.8-.529,8.594,1.865a10.987,10.987,0,0,1-1.311,3.322A10.815,10.815,0,0,1,531.8,424H519.823v.313H507.61c.024-.106.049-.208.077-.313a10.992,10.992,0,0,1,6.7-7.454,10.991,10.991,0,0,1,6.973-11.659,11.127,11.127,0,0,1-.09-1.518l5.679,2.243-5.618-3.3a10.991,10.991,0,0,1,4.311-7.564l5.174,8.378-3.88-9.225A10.991,10.991,0,0,1,541.7,409.137Z" transform="translate(-315.577 -244.228)" fill="#10ac95" opacity="0.1"/><path d="M534.73,454.955a10.815,10.815,0,0,1-2.931,3.216H519.823v.313H507.61c.024-.106.049-.208.077-.313a10.992,10.992,0,0,1,6.7-7.454c-.1-.814,2.263-.692,5.418-.163C525.986,451.593,535.149,454.255,534.73,454.955Z" transform="translate(-315.29 -279.139)" fill="#10ac95" opacity="0.1"/><path d="M442.669,389.069s1.506,8.142-1.856,10.8,2.85,18.592,13.1,16.731,14.427-15.225,14.427-15.225-10.267-2.125-6.46-12.925Z" transform="translate(-273.267 -241.568)" fill="#ee8e9e"/><path d="M442.669,389.069s1.506,8.142-1.856,10.8,2.85,18.592,13.1,16.731,14.427-15.225,14.427-15.225-10.267-2.125-6.46-12.925Z" transform="translate(-273.267 -241.568)" opacity="0.1"/><circle cx="16.996" cy="16.996" r="16.996" transform="translate(161.68 121.261)" fill="#ee8e9e"/><path d="M455.871,424.571v11.553H399.75V425.1a7.116,7.116,0,0,1,4.344-6.554l1.608-.684c4.071-1.734,9.017-3.888,10.633-4.783a2.652,2.652,0,0,0,.5-.322c.883-.883.708.265.708.265s-.024.22-.041.6c-.1,2.6.277,12.823,12.257,11.972,11.688-.814,12.213-8.72,12.095-11.044a6.278,6.278,0,0,0-.053-.643,15.082,15.082,0,0,1,2.365.773,49.584,49.584,0,0,1,7.014,3.037c.3.212.668.432,1.067.655a7.016,7.016,0,0,1,1.262.9A7.129,7.129,0,0,1,455.871,424.571Z" transform="translate(-249.104 -256.3)" fill="#f6b333"/><path d="M468.305,414.675c-.989,4.584-4.1,13.169-15.29,13.393-11.928.236-12.62-11.626-12.542-14.993a2.408,2.408,0,0,0,.5-.322c.887-.883.708.265.708.265s-1.5,13.544,12.213,12.571,12.029-11.683,12.029-11.683A16.722,16.722,0,0,1,468.305,414.675Z" transform="translate(-273.606 -256.006)" opacity="0.1"/><path d="M417.905,324.561a2.911,2.911,0,0,1,3.065,1.12,5.554,5.554,0,0,1,.79,2.915c.737.155,1.152-.68,1.221-1.311.273-2.569.293-5.186,1.156-7.67a9.155,9.155,0,0,1,5.642-5.834,6.542,6.542,0,0,1,3.082-.293c.615.1,1.193.318,1.8.407,2.117.35,4.417-.651,6.4.045a5.1,5.1,0,0,1,2.618,2.467,5.32,5.32,0,0,0,1.018,1.478,7.05,7.05,0,0,0,3.371,1.189c1.209.236,2.528.647,3.045,1.579.464.843.122,1.816-.033,2.727a6.684,6.684,0,0,0,.688,4.222c.224.407.68.9,1.221.765a1.069,1.069,0,0,0,.578-.468c1.388-1.946,1.352-4.478,3.094-6.232.582-.586,1.335-1.042,1.9-1.628a3.7,3.7,0,0,0,.985-3.354c-.313-1.343-1.388-2.443-2.255-3.623a14.251,14.251,0,0,1-2.414-5.011.906.906,0,0,1,0-.655,1.744,1.744,0,0,1,.619-.5,2.337,2.337,0,0,0,.79-2.984,4.975,4.975,0,0,0-2.8-2.227,18.235,18.235,0,0,0-3.814-.814,2.074,2.074,0,0,1-2.121-1.046c-.118-.305-.118-.635-.236-.94a2.157,2.157,0,0,0-1.628-1.14,4.766,4.766,0,0,0-2.178.155c-.814.228-1.738.57-2.443.171-.37-.208-.574-.586-.973-.757-.814-.342-1.653.35-2.235.92a5.439,5.439,0,0,1-2.015,1.356,3,3,0,0,1-2.5-.167,7.89,7.89,0,0,1-1.282-1.376,4.827,4.827,0,0,0-3.033-1.221,10.68,10.68,0,0,0-3.424.375,20.671,20.671,0,0,0-6.013,2.524,6.461,6.461,0,0,0-2.308,2.145,4.883,4.883,0,0,0-.517,2.211,7.977,7.977,0,0,0,2.789,6.623,3.928,3.928,0,0,0-1.995,2.98,16.31,16.31,0,0,0-.773,5.581,12.258,12.258,0,0,1,.212,2.9,6.243,6.243,0,0,0-.187,1.388A1.331,1.331,0,0,0,417.905,324.561Z" transform="translate(-259.301 -184.673)" fill="#454b69"/><g transform="translate(157.48 117.998)" opacity="0.1"><path d="M509.134,343.78a3.969,3.969,0,0,1-.733,1.083c-.566.594-1.319,1.054-1.9,1.628-1.742,1.742-1.706,4.291-3.094,6.237a1.045,1.045,0,0,1-.578.464c-.529.138-.985-.342-1.221-.765A7,7,0,0,1,501,350.8l-.081.407a6.683,6.683,0,0,0,.688,4.221c.224.407.68.9,1.221.765a1.069,1.069,0,0,0,.578-.468c1.388-1.946,1.352-4.478,3.094-6.232.582-.586,1.335-1.042,1.9-1.628a3.7,3.7,0,0,0,.985-3.354A4.373,4.373,0,0,0,509.134,343.78Z" transform="translate(-466.63 -330.786)"/><path d="M510.92,313.528a1.7,1.7,0,0,0-.619.5.9.9,0,0,0,0,.651,13.774,13.774,0,0,0,.615,1.856h0a2.337,2.337,0,0,0,.79-2.984,2.852,2.852,0,0,0-.285-.476A2.342,2.342,0,0,1,510.92,313.528Z" transform="translate(-472.21 -312.583)"/><path d="M419.632,316.578a7.547,7.547,0,0,1-2.666-4.718,6.362,6.362,0,0,0-.122,1.107A8.478,8.478,0,0,0,418.182,318,2.848,2.848,0,0,1,419.632,316.578Z" transform="translate(-416.827 -311.86)"/><path d="M451.234,340.212c.155-.916.5-1.889.033-2.727-.517-.936-1.836-1.343-3.045-1.579a7.092,7.092,0,0,1-3.371-1.189,5.32,5.32,0,0,1-1.018-1.478,5.041,5.041,0,0,0-2.618-2.467c-1.983-.7-4.283.3-6.4-.045-.611-.1-1.189-.313-1.8-.407a6.513,6.513,0,0,0-3.082.293,9.173,9.173,0,0,0-5.642,5.834c-.863,2.479-.883,5.1-1.156,7.67-.069.627-.484,1.465-1.221,1.311a5.6,5.6,0,0,0-.79-2.919,2.911,2.911,0,0,0-3.065-1.115,1.491,1.491,0,0,1-.859-.55,4.717,4.717,0,0,1,0,1.124,6.241,6.241,0,0,0-.187,1.388,1.331,1.331,0,0,0,1.062,1.046,2.911,2.911,0,0,1,3.065,1.12,5.555,5.555,0,0,1,.79,2.915c.737.155,1.152-.68,1.221-1.311.273-2.569.293-5.186,1.156-7.67a9.155,9.155,0,0,1,5.642-5.834,6.543,6.543,0,0,1,3.082-.293c.615.1,1.193.318,1.8.407,2.117.35,4.417-.651,6.4.045a5.1,5.1,0,0,1,2.618,2.467,5.322,5.322,0,0,0,1.018,1.478,7.05,7.05,0,0,0,3.371,1.189,4.451,4.451,0,0,1,2.984,1.482A.352.352,0,0,1,451.234,340.212Z" transform="translate(-416.932 -322.765)"/><path d="M417.068,348.307a7.724,7.724,0,0,0-.134-2.267,10.1,10.1,0,0,0-.077,2.377,4.328,4.328,0,0,0,.073.607C416.974,348.784,417.035,348.548,417.068,348.307Z" transform="translate(-416.819 -332.126)"/></g><path d="M368.49,499.992v-7.348a.207.207,0,0,1,.208-.208h.835a.207.207,0,0,1,.208.208h0V495.7l3.387-3.139a.554.554,0,0,1,.908.407v6.656a.553.553,0,0,1-.908.407l-3.387-3.118v3.041a.207.207,0,0,1-.208.208H368.7A.208.208,0,0,1,368.49,499.992Z" transform="translate(-228.385 -305.347)" fill="#444053"/><path d="M561.462,492.664v7.348a.207.207,0,0,1-.208.208h-.818a.207.207,0,0,1-.208-.208h0v-3.057l-3.387,3.135a.558.558,0,0,1-.912-.407V493a.558.558,0,0,1,.912-.407l3.387,3.118v-3.037a.207.207,0,0,1,.208-.208h.814A.208.208,0,0,1,561.462,492.664Z" transform="translate(-344.557 -305.369)" fill="#444053"/><path d="M462.011,500.55h-1.657a.814.814,0,0,1-.814-.814v-6.082a.814.814,0,0,1,.814-.814h1.657a.814.814,0,0,1,.814.814v6.082A.814.814,0,0,1,462.011,500.55Zm5.251-.814v-6.082a.814.814,0,0,0-.814-.814h-1.673a.814.814,0,0,0-.814.814v6.082a.814.814,0,0,0,.814.814h1.657a.815.815,0,0,0,.83-.8Z" transform="translate(-284.876 -305.598)" fill="#444053"/><rect width="97.701" height="1.087" transform="translate(130.309 178.291)" fill="#444053" opacity="0.6"/><circle cx="2.577" cy="2.577" r="2.577" transform="translate(158.476 176.238)" fill="#444053"/><rect width="30.169" height="1.087" transform="translate(132.158 178.291)" fill="#444053"/><ellipse cx="24.209" cy="4.657" rx="24.209" ry="4.657" transform="translate(335.406 282.06)" fill="#686c75" opacity="0.1"/><ellipse cx="2.817" cy="3.688" rx="2.817" ry="3.688" transform="translate(356.395 281.051)" fill="#3f3d56"/><ellipse cx="2.817" cy="3.688" rx="2.817" ry="3.688" transform="translate(356.395 276.54)" fill="#3f3d56"/><ellipse cx="2.817" cy="3.688" rx="2.817" ry="3.688" transform="translate(356.395 272.034)" fill="#3f3d56"/><ellipse cx="2.817" cy="3.688" rx="2.817" ry="3.688" transform="translate(356.395 267.523)" fill="#3f3d56"/><ellipse cx="2.817" cy="3.688" rx="2.817" ry="3.688" transform="translate(356.395 263.013)" fill="#3f3d56"/><ellipse cx="2.817" cy="3.688" rx="2.817" ry="3.688" transform="translate(356.395 258.502)" fill="#3f3d56"/><ellipse cx="2.817" cy="3.688" rx="2.817" ry="3.688" transform="translate(356.395 253.992)" fill="#3f3d56"/><path d="M946.877,579.578a13.956,13.956,0,0,0,1.05-1.547l-7.409-1.221,8.011.061a13.544,13.544,0,0,0,.256-10.7l-10.739,5.577,9.908-7.283a13.5,13.5,0,1,0-22.3,15.111,13.756,13.756,0,0,0-1.539,2.443l9.615,4.995-10.25-3.44a13.511,13.511,0,0,0,2.174,12.677,13.5,13.5,0,1,0,21.226,0,13.507,13.507,0,0,0,0-16.691Z" transform="translate(-577.117 -350.051)" fill="#10ac95"/><path d="M922.779,631.621a13.434,13.434,0,0,0,2.886,8.345,13.5,13.5,0,1,0,21.226,0C948.7,637.674,922.779,630.106,922.779,631.621Z" transform="translate(-577.127 -392.792)" opacity="0.1"/><ellipse cx="40.302" cy="8.549" rx="40.302" ry="8.549" transform="translate(71.606 299.345)" fill="#686c75" opacity="0.1"/><path d="M275.385,573.823a10.607,10.607,0,0,0-2.536-.342,7.85,7.85,0,0,1-4.665-2.263,8.55,8.55,0,0,1-1.864-2.85c.269.1.537.2.814.309-.814-1.9.041-4.034.79-5.956q1.905-4.885,3.6-9.823c2.85-8.341,5.292-17.016,5.239-25.891,0-3.208-.59-6.241-.7-9.444-.086-2.377.281-4.751.265-7.132,0-.334,0-.664-.024-1a6.322,6.322,0,0,0,2.145-5.154,12.475,12.475,0,0,0-.216-1.5,24.236,24.236,0,0,0-.57-2.548c-.269-.883-.635-1.73-.949-2.593-.607-1.673-1.018-3.415-1.535-5.117a1.755,1.755,0,0,1,.554.151,1.2,1.2,0,0,1-.261-.533,13.189,13.189,0,0,1-.488-3.326l.346-.155a8.655,8.655,0,0,0-.167-3.293c.2-1.746.5-3.505.688-5.243.069-.651.041-1.47-.558-1.628-.122-.932-.171-1.877-.22-2.817q-.256-4.922-.509-9.839c-.171-3.293-.342-6.583-.407-9.88a28.844,28.844,0,0,0-.566-6.261,7.57,7.57,0,0,0-.289-2.85,5.84,5.84,0,0,0-5.5-4.165,10.938,10.938,0,0,0-2.6-2.63c.476-1.067,1.046-2.166,1.514-3.029a9.869,9.869,0,0,0,6.611-9.485,10.352,10.352,0,0,0-1.12-4.718,5.091,5.091,0,0,0,.179-.55,4.517,4.517,0,0,0-.183-2.642,7.717,7.717,0,0,0-.407-.944c-.106-.2-.22-.407-.338-.6l-.208-.313a5.838,5.838,0,0,0-.407-.554,13.425,13.425,0,0,0-.928-1.115,9.168,9.168,0,0,0-1.335-1.189,5.888,5.888,0,0,0-2.2-1.014,6.7,6.7,0,0,0-1.4-.126c-.281,0-.566,0-.847.024-.57.033-1.136.073-1.7.069a3.764,3.764,0,0,1-.566-.029,20.6,20.6,0,0,1-2.947-.615l-.488-.1c-.167-.033-.33-.061-.5-.081a9.317,9.317,0,0,0-1.347-.081h-.452a12.463,12.463,0,0,0-1.347.138l-.448.069a12.867,12.867,0,0,0-3.277.973c-.134.061-.273.13-.407.2l-.081.045c-.11.057-.22.118-.326.183l-.061.037-.346.22-.029.02c-3.232,2.174-5.142,6.294-5.626,10.381-.541,4.588.407,9.212,1.356,13.727l.855,4.071c.037.183.077.362.114.546a8.956,8.956,0,0,0-2.683,3.721,15.882,15.882,0,0,0-.769,6.444c0,.448.024.9.069,1.343-.1.847-.191,1.7-.248,2.552-.256,3.949.224,7.918.1,11.875-.1,3.049-.558,6.106-.334,9.135a41.239,41.239,0,0,0,1.628,7.885l1.026,3.7a.982.982,0,0,0,.256.509.773.773,0,0,0,.574.118,34.69,34.69,0,0,0-1.669,4.673,14.458,14.458,0,0,0-.6,3,18.356,18.356,0,0,0,.729,5.528q.977,4.071,1.946,8.174.684,2.87,1.364,5.736a61.124,61.124,0,0,1,1.962,11.443,24.843,24.843,0,0,1-.407,5.817,50.686,50.686,0,0,0-.5,17.436,85.507,85.507,0,0,0,3.293,14.415c.33-.175.664-.338,1.005-.489l-.142.265q-.7,1.221-1.3,2.5a14.212,14.212,0,0,0-.7,1.714,19.292,19.292,0,0,0-.676,5.076,2.482,2.482,0,0,0,.085.981,2.038,2.038,0,0,0,1.465,1.1,13.386,13.386,0,0,0,5.414.085.669.669,0,0,0,.037.118,2.031,2.031,0,0,0,1.466,1.1c2.516.716,5.17.041,7.763-.2s5.142-.065,7.637-.664a3.633,3.633,0,0,0,1.058-.407A3.464,3.464,0,0,0,276.7,576.4a2.369,2.369,0,0,0,.155-.607A2.063,2.063,0,0,0,275.385,573.823Zm-8.61-37.7a10.26,10.26,0,0,1-.814,2.76,52.683,52.683,0,0,0-4.177,13.1,60.757,60.757,0,0,0-.924,9.058c-.041,2.239.045,4.584-.887,6.595l.338-.053c-.106.2-.208.407-.305.562l-.049.09a8.826,8.826,0,0,1-1.111-3.118c0-.037-.183-.065-.464-.081a84.233,84.233,0,0,1-1.189-19.5,9.011,9.011,0,0,1,.326-2.341c.208-.655.558-1.254.814-1.889a13.875,13.875,0,0,0,.814-3.314,47.081,47.081,0,0,0,.513-8.761,36.344,36.344,0,0,1,1.087-8.264c.261-1.307.5-2.618.631-3.928l.024-.265a39.429,39.429,0,0,1,5,12.978A18.562,18.562,0,0,1,266.776,536.123Zm-17.423-58.832.13.114a8.926,8.926,0,0,1,1.083,1.136,1.5,1.5,0,0,1,.342.627c.122.594-.37,1.1-.773,1.535a6.949,6.949,0,0,0-.493.594q-.13-2-.277-4.006Z" transform="translate(-150.82 -266.923)" fill="url(#a)"/><path d="M243.692,508.31l-.448,3.456c-.151,1.172-.3,2.341-.383,3.517-.273,3.916.232,7.849.1,11.773-.106,3.021-.586,6.037-.354,9.054a38.386,38.386,0,0,0,1.722,7.816l1.075,3.664a.969.969,0,0,0,.269.5.948.948,0,0,0,.688.11l4.771-.432c-.305-1.4-.643-2.85-.814-4.287-.13-1.124-.208-2.255-.289-3.387-.252-3.525-.541-7.051-.814-10.584l-.509-6.188a46.672,46.672,0,0,0-1.115-8A15.913,15.913,0,0,0,243.692,508.31Z" transform="translate(-150.37 -316.68)" fill="#644696"/><path d="M243.692,508.31l-.448,3.456c-.151,1.172-.3,2.341-.383,3.517-.273,3.916.232,7.849.1,11.773-.106,3.021-.586,6.037-.354,9.054a38.386,38.386,0,0,0,1.722,7.816l1.075,3.664a.969.969,0,0,0,.269.5.948.948,0,0,0,.688.11l4.771-.432c-.305-1.4-.643-2.85-.814-4.287-.13-1.124-.208-2.255-.289-3.387-.252-3.525-.541-7.051-.814-10.584l-.509-6.188a46.672,46.672,0,0,0-1.115-8A15.913,15.913,0,0,0,243.692,508.31Z" transform="translate(-150.37 -316.68)" opacity="0.1"/><path d="M264.12,791.087a14.589,14.589,0,0,0-.733,1.7,18.318,18.318,0,0,0-.708,5.032,2.442,2.442,0,0,0,.09.973,2.121,2.121,0,0,0,1.543,1.087c2.642.712,5.426.045,8.142-.2s5.4-.065,8.02-.655a4.105,4.105,0,0,0,1.111-.387,3.465,3.465,0,0,0,1.4-1.832,2.393,2.393,0,0,0,.159-.6,2.081,2.081,0,0,0-1.539-1.962,11.6,11.6,0,0,0-2.662-.338,8.386,8.386,0,0,1-7.425-7.006,18.443,18.443,0,0,0-4.885.175,4.086,4.086,0,0,0-1.168,1.535Q264.747,789.817,264.12,791.087Z" transform="translate(-163.035 -488.578)" fill="#a26565"/><path d="M264.12,791.087a14.589,14.589,0,0,0-.733,1.7,18.318,18.318,0,0,0-.708,5.032,2.442,2.442,0,0,0,.09.973,2.121,2.121,0,0,0,1.543,1.087c2.642.712,5.426.045,8.142-.2s5.4-.065,8.02-.655a4.105,4.105,0,0,0,1.111-.387,3.465,3.465,0,0,0,1.4-1.832,2.393,2.393,0,0,0,.159-.6,2.081,2.081,0,0,0-1.539-1.962,11.6,11.6,0,0,0-2.662-.338,8.386,8.386,0,0,1-7.425-7.006,18.443,18.443,0,0,0-4.885.175,4.086,4.086,0,0,0-1.168,1.535Q264.747,789.817,264.12,791.087Z" transform="translate(-163.035 -488.578)" opacity="0.1"/><path d="M281.968,794.235a13.82,13.82,0,0,0-.733,1.7,18.122,18.122,0,0,0-.708,5.032,2.378,2.378,0,0,0,.09.973,2.121,2.121,0,0,0,1.539,1.091c2.642.708,5.431.041,8.142-.2s5.4-.065,8.02-.655a3.912,3.912,0,0,0,1.111-.407,3.447,3.447,0,0,0,1.4-1.832,2.394,2.394,0,0,0,.159-.6,2.085,2.085,0,0,0-1.539-1.962,11.834,11.834,0,0,0-2.662-.338,8.39,8.39,0,0,1-7.425-7,18.424,18.424,0,0,0-4.885.171,4.053,4.053,0,0,0-1.172,1.535C282.843,792.558,282.387,793.389,281.968,794.235Z" transform="translate(-174.113 -490.432)" fill="#a26565"/><path d="M280.261,634c.057,8.8-2.5,17.395-5.5,25.646q-1.783,4.909-3.782,9.733c-.79,1.905-1.681,4.022-.835,5.9a14.29,14.29,0,0,0-7.494-1.046c.977-1.995.883-4.315.928-6.513a57.14,57.14,0,0,1,.961-8.976,50.075,50.075,0,0,1,4.392-12.982,9.9,9.9,0,0,0,.851-2.736,17.474,17.474,0,0,0-.362-6.314,37.639,37.639,0,0,0-5.251-12.864l-.024.261a37.987,37.987,0,0,1-.659,3.9,34.072,34.072,0,0,0-1.144,8.191,44.29,44.29,0,0,1-.537,8.683,13.2,13.2,0,0,1-.875,3.281c-.281.631-.647,1.221-.867,1.877a8.543,8.543,0,0,0-.342,2.32,78.689,78.689,0,0,0,1.352,19.841,12.6,12.6,0,0,0-6.562,1.494,80.806,80.806,0,0,1-3.46-14.289,47.474,47.474,0,0,1,.529-17.285,22.966,22.966,0,0,0,.427-5.76,57.509,57.509,0,0,0-2.06-11.346l-1.433-5.7q-1.018-4.071-2.035-8.105a17.232,17.232,0,0,1-.765-5.479,13.584,13.584,0,0,1,.635-2.98,33.258,33.258,0,0,1,4.506-9.216c7.845.44,15.783-.293,23.611-.9a1.585,1.585,0,0,1,1.107.187,1.569,1.569,0,0,1,.448,1.01l2.943,16.691a41.925,41.925,0,0,1,.835,7.043c0,2.361-.366,4.714-.277,7.071C279.642,627.813,280.244,630.817,280.261,634Z" transform="translate(-152.722 -373.438)" fill="#454b69"/><path d="M277.259,650.974a37.979,37.979,0,0,1-.659,3.9c-1.706-2.951-3.546-5.829-5.117-8.854-.407-.778-.79-1.567-1.176-2.357l-1.16-2.361c-.216-.444-.432-.888-.627-1.339a9.659,9.659,0,0,1-.729-2.035c.57-.106,1.978,1.433,2.4,1.836a32.894,32.894,0,0,1,2.443,2.7,29.634,29.634,0,0,1,2.548,3.338A16.234,16.234,0,0,1,277.259,650.974Z" transform="translate(-166.035 -396.055)" opacity="0.1"/><path d="M281.949,465.873s-4.356,6.941-3.55,8.394-13.719-1.29-13.719-1.29,7.91-6.941,7.1-9.847S281.949,465.873,281.949,465.873Z" transform="translate(-164.233 -286.84)" fill="#efb7b9"/><circle cx="9.847" cy="9.847" r="9.847" transform="translate(103.715 162.118)" fill="#efb7b9"/><path d="M269.677,481.783a10,10,0,0,0-4.14-3.33,14.794,14.794,0,0,0-2.943-.725l-3.928-.692a5,5,0,0,0-2.886.065,4.734,4.734,0,0,0-1.221.9,16.276,16.276,0,0,1-4.4,3.387c-.468.2-.957.346-1.425.545a8.224,8.224,0,0,0-4.16,4.478,14.94,14.94,0,0,0-.814,6.383,11.2,11.2,0,0,0,.224,2.247,14.462,14.462,0,0,0,.745,2.06,37.657,37.657,0,0,1,1.36,4.368q1.527,5.842,2.54,11.806a4.429,4.429,0,0,0,.493,1.628,5.836,5.836,0,0,0,1.36,1.307,8.5,8.5,0,0,1,1.136,1.128,1.474,1.474,0,0,1,.37.6c.126.586-.407,1.091-.814,1.518a7.351,7.351,0,0,0-1.84,3.2,1.29,1.29,0,0,0-.293.883,1.549,1.549,0,0,1,.094.7,1.577,1.577,0,0,1-.37.574,2.17,2.17,0,0,0-.407,1.742,27.636,27.636,0,0,0,9.64,2.255c.814.041,1.628.041,2.443.138.578.073,1.148.191,1.726.261a18.662,18.662,0,0,0,2.524.065c4.384-.09,8.895-.2,12.921-1.938.379-2.064-.44-4.169-.953-6.2-.814-3.257-1.018-6.591-1.628-9.876-.407-2.243-1.018-4.453-1.364-6.713a16.41,16.41,0,0,1,.2-6.8c.55-1.946.716-3.932,1.286-5.874a10.065,10.065,0,0,0,.326-5.968A6.137,6.137,0,0,0,269.677,481.783Z" transform="translate(-151.5 -297.712)" fill="#644696"/><path d="M276.022,425.788c.48-1.746-.464-3.566-1.588-4.987a8.446,8.446,0,0,0-4.686-3.285c-1.551-.313-3.159.065-4.738-.061-1.4-.11-2.74-.615-4.128-.814a13.077,13.077,0,0,0-3.778.142,14.363,14.363,0,0,0-3.44.961c-4.193,1.86-6.648,6.444-7.218,10.991s.427,9.131,1.421,13.6l.9,4.046a80.373,80.373,0,0,1,2.121,12.75A27.053,27.053,0,0,1,248.9,471.8a27.23,27.23,0,0,0,12.51-14.163c.635-1.665,1.107-3.4,1.816-5.032.607-1.409,1.384-2.744,1.921-4.181a13.583,13.583,0,0,0,.859-5.076c-.033-1.3-.248-2.6-.212-3.9a5.388,5.388,0,0,1,1.27-3.6,11.008,11.008,0,0,1,2.964-1.763,12.34,12.34,0,0,0,4.148-3.46,3.8,3.8,0,0,0,.847-2.182A27.648,27.648,0,0,1,276.022,425.788Z" transform="translate(-153.015 -260.2)" fill="#a26565"/><path d="M317.212,613.035a26.134,26.134,0,0,0,.138,3.041c.167.749.554,1.425.782,2.158a10.254,10.254,0,0,1,.346,2.593c.033.733-.024,1.628-.676,1.97-.285.151-.627.151-.924.281s-.55.484-.379.761.464.232.733.285.558.33.407.554a.466.466,0,0,1-.236.151,2.889,2.889,0,0,0-.765.366.781.781,0,0,0-.313.745.459.459,0,0,0,.655.3,2.042,2.042,0,0,0-.191.814c1.042.448,2.21-.138,3.188-.7a11.985,11.985,0,0,0,1.221-.782,6.106,6.106,0,0,0,2.377-5.2,12.137,12.137,0,0,0-.232-1.486,22.343,22.343,0,0,0-.6-2.528c-.281-.875-.664-1.71-.993-2.569-.7-1.828-1.152-3.741-1.787-5.593a.844.844,0,0,0-.305-.484.859.859,0,0,0-.452-.085,7.406,7.406,0,0,0-2.121.2,2.255,2.255,0,0,0-1.295.814c-.191.407.114.749.3,1.087A9.107,9.107,0,0,1,317.212,613.035Z" transform="translate(-195.728 -377.383)" fill="#efb7b9"/><path d="M304.314,499.42a2.991,2.991,0,0,1,.521.725c1.4,2.544,1.417,5.585,1.482,8.488.073,3.257.252,6.513.432,9.79l.533,9.77c.053.932.1,1.864.236,2.789.627.159.651.973.582,1.628-.452,3.981-1.571,8.081-.407,11.911a1.2,1.2,0,0,0,.273.529,3.179,3.179,0,0,0-1.82-.024c-.582.122-1.144.338-1.73.472a3.675,3.675,0,0,0-2.084.814,40.4,40.4,0,0,1-1.364-5.26,20.241,20.241,0,0,0-1.014-4.812c-.265-.607-.623-1.168-.948-1.75a38.278,38.278,0,0,1-3.363-9.88,14.427,14.427,0,0,1-.261-4.909,16.874,16.874,0,0,0,.2-2.259,17.374,17.374,0,0,0-.313-2.377,15.936,15.936,0,0,1,.476-6.884,18.582,18.582,0,0,1,2.443-6A8.2,8.2,0,0,1,304.314,499.42Z" transform="translate(-183.028 -311.501)" opacity="0.1"/><path d="M305.516,498.62a3,3,0,0,1,.521.729c1.4,2.54,1.417,5.585,1.482,8.488.073,3.257.252,6.513.431,9.77l.533,9.77c.053.932.1,1.865.236,2.789.627.159.651.973.578,1.628-.448,3.981-1.567,8.077-.407,11.911a1.2,1.2,0,0,0,.273.529,3.18,3.18,0,0,0-1.82-.024c-.582.122-1.144.338-1.73.468a3.7,3.7,0,0,0-2.084.814,39.966,39.966,0,0,1-1.352-5.284,20.212,20.212,0,0,0-1.014-4.808,19.653,19.653,0,0,0-.949-1.75,38.156,38.156,0,0,1-3.363-9.884,14.418,14.418,0,0,1-.261-4.909,10.585,10.585,0,0,0-.11-4.637,15.917,15.917,0,0,1,.476-6.88,18.583,18.583,0,0,1,2.443-6A8.158,8.158,0,0,1,305.516,498.62Z" transform="translate(-183.779 -311.001)" fill="#644696"/><g transform="translate(95.747 156.364)" opacity="0.1"><path d="M282.717,420.8a8.446,8.446,0,0,0-4.686-3.285c-1.551-.313-3.159.065-4.738-.061-1.4-.11-2.74-.615-4.128-.814a13.077,13.077,0,0,0-3.778.142,14.363,14.363,0,0,0-3.44.961,10.211,10.211,0,0,0-1.7.965,14.484,14.484,0,0,1,3.041-.814,13.036,13.036,0,0,1,3.774-.142c1.392.179,2.732.68,4.132.79,1.575.126,3.183-.248,4.738.061a8.4,8.4,0,0,1,4.681,3.289c1.128,1.417,2.068,3.236,1.592,4.987a27.816,27.816,0,0,0-1,2.675,3.778,3.778,0,0,1-.851,2.182,12.372,12.372,0,0,1-2.988,2.78c.314-.147.635-.293.94-.452a12.339,12.339,0,0,0,4.148-3.46,3.8,3.8,0,0,0,.847-2.182,28.1,28.1,0,0,1,1-2.675C284.785,424.041,283.841,422.222,282.717,420.8Z" transform="translate(-257.185 -416.565)"/><path d="M270.884,463.286a4.08,4.08,0,0,1,.55-.476,8.436,8.436,0,0,0-2.65,1.628,5.443,5.443,0,0,0-1.27,3.6c-.049,1.3.183,2.6.212,3.9a13.6,13.6,0,0,1-.859,5.08c-.537,1.437-1.315,2.768-1.921,4.181-.7,1.628-1.176,3.363-1.812,5.028A27.274,27.274,0,0,1,252.789,499.1c-.024.053-.045.11-.069.163A27.23,27.23,0,0,0,265.23,485.1c.635-1.665,1.107-3.4,1.816-5.032.607-1.409,1.384-2.744,1.921-4.181a13.582,13.582,0,0,0,.859-5.076c-.033-1.3-.248-2.6-.212-3.9A5.441,5.441,0,0,1,270.884,463.286Z" transform="translate(-252.72 -443.984)"/></g></g></svg>