<!-- Generator: Adobe Illustrator 22.1.0, SVG Export Plug-In  -->
<svg version="1.1"
	 xmlns="http://www.w3.org/2000/svg" xmlns:xlink="http://www.w3.org/1999/xlink" xmlns:a="http://ns.adobe.com/AdobeSVGViewerExtensions/3.0/"
	 x="0px" y="0px" width="886.6px" height="456px" viewBox="0 0 886.6 456" style="enable-background:new 0 0 886.6 456;"
	 xml:space="preserve">
<style type="text/css">
	.st0{fill:#D1D1D1;}
	.st1{fill:#ED145B;}
	.st2{fill:none;stroke:#ED145B;stroke-width:3;stroke-miterlimit:10;}
	.st3{fill:#8C8C8C;}
	.st4{fill:#BABABA;}
	.st5{fill:none;stroke:#ED145B;stroke-width:2;stroke-miterlimit:10;}
	.st6{fill:#EFEFEF;}
	.st7{fill:none;stroke:#ED145B;stroke-width:14;stroke-miterlimit:10;}
	.st8{fill:none;stroke:#ED145B;stroke-width:5;stroke-miterlimit:10;}
	.st9{fill:none;stroke:#ED145B;stroke-width:5;stroke-linecap:round;stroke-miterlimit:10;}
	.st10{fill:#BABABA;stroke:#ED145B;stroke-width:4;stroke-miterlimit:10;}
	.st11{fill:none;stroke:#ED145B;stroke-width:3;stroke-linecap:round;stroke-miterlimit:10;}
	.st12{fill:#D1D1D1;stroke:#ED145B;stroke-width:3;stroke-miterlimit:10;}
	.st13{fill:#D1D1D1;stroke:#ED145B;stroke-width:2;stroke-miterlimit:10;}
	.st14{fill:none;stroke:#ED145B;stroke-width:2;stroke-linecap:round;stroke-miterlimit:10;}
</style>
<defs>
</defs>
<g>
	<g>
		<ellipse class="st0" cx="548.1" cy="23.5" rx="44" ry="21"/>
		<path class="st1" d="M548.1,4c11.7,0,22.7,2.2,30.8,6.3c7.4,3.7,11.7,8.5,11.7,13.2s-4.2,9.6-11.7,13.2c-8.2,4-19.1,6.3-30.8,6.3
			s-22.7-2.2-30.8-6.3c-7.4-3.7-11.7-8.5-11.7-13.2s4.2-9.6,11.7-13.2C525.5,6.2,536.4,4,548.1,4 M548.1,1
			c-25.1,0-45.5,10.1-45.5,22.5S523,46,548.1,46s45.5-10.1,45.5-22.5S573.3,1,548.1,1L548.1,1z"/>
	</g>
	<g>
		<path class="st0" d="M508.6,55.5c-5.8,0-10.5-4.7-10.5-10.5V34c0-5.8,4.7-10.5,10.5-10.5h79c5.8,0,10.5,4.7,10.5,10.5v11
			c0,5.8-4.7,10.5-10.5,10.5H508.6z"/>
		<path class="st1" d="M587.6,25c5,0,9,4,9,9v11c0,5-4,9-9,9h-79c-5,0-9-4-9-9V34c0-5,4-9,9-9H587.6 M587.6,22h-79
			c-6.6,0-12,5.4-12,12v11c0,6.6,5.4,12,12,12h79c6.6,0,12-5.4,12-12V34C599.6,27.4,594.2,22,587.6,22L587.6,22z"/>
	</g>
	<g>
		<circle class="st0" cx="515.1" cy="57.5" r="13"/>
		<path class="st1" d="M515.1,46c6.3,0,11.5,5.2,11.5,11.5S521.5,69,515.1,69s-11.5-5.2-11.5-11.5S508.8,46,515.1,46 M515.1,43
			c-8,0-14.5,6.5-14.5,14.5S507.1,72,515.1,72s14.5-6.5,14.5-14.5S523.1,43,515.1,43L515.1,43z"/>
	</g>
	<g>
		<circle class="st0" cx="580.1" cy="57.5" r="13"/>
		<path class="st1" d="M580.1,46c6.3,0,11.5,5.2,11.5,11.5S586.5,69,580.1,69s-11.5-5.2-11.5-11.5S573.8,46,580.1,46 M580.1,43
			c-8,0-14.5,6.5-14.5,14.5S572.1,72,580.1,72s14.5-6.5,14.5-14.5S588.1,43,580.1,43L580.1,43z"/>
	</g>
	<g>
		<circle class="st0" cx="548.1" cy="57.5" r="13"/>
		<path class="st1" d="M548.1,46c6.3,0,11.5,5.2,11.5,11.5S554.5,69,548.1,69s-11.5-5.2-11.5-11.5S541.8,46,548.1,46 M548.1,43
			c-8,0-14.5,6.5-14.5,14.5S540.1,72,548.1,72s14.5-6.5,14.5-14.5S556.1,43,548.1,43L548.1,43z"/>
	</g>
	<g>
		<line class="st2" x1="497.1" y1="34.5" x2="483.1" y2="12.5"/>
	</g>
	<g>
		<line class="st2" x1="480.1" y1="8.9" x2="454.2" y2="6.1"/>
	</g>
	<g>
		<line class="st2" x1="450.3" y1="6.9" x2="425.9" y2="16.1"/>
	</g>
	<g>
		<circle class="st0" cx="482.1" cy="11.5" r="6"/>
		<path class="st1" d="M482.1,7c2.5,0,4.5,2,4.5,4.5s-2,4.5-4.5,4.5s-4.5-2-4.5-4.5S479.7,7,482.1,7 M482.1,4
			c-4.1,0-7.5,3.4-7.5,7.5s3.4,7.5,7.5,7.5s7.5-3.4,7.5-7.5S486.3,4,482.1,4L482.1,4z"/>
	</g>
	<g>
		<circle class="st0" cx="452.1" cy="7.5" r="6"/>
		<path class="st1" d="M452.1,3c2.5,0,4.5,2,4.5,4.5s-2,4.5-4.5,4.5s-4.5-2-4.5-4.5S449.7,3,452.1,3 M452.1,0
			c-4.1,0-7.5,3.4-7.5,7.5s3.4,7.5,7.5,7.5s7.5-3.4,7.5-7.5S456.3,0,452.1,0L452.1,0z"/>
	</g>
	<path class="st2" d="M417.4,14.5c0,0,15.6-2.7,5.7,10.6"/>
</g>
<path class="st3" d="M643.3,456c-38.2-100.7-143.6-173.1-267.7-173.1S146.1,355.3,107.9,456H643.3z"/>
<path class="st4" d="M207.5,455c-5-8.2-7.8-17.7-7.8-28c0-29.8,24.2-54,54-54s54,24.2,54,54c0,10.3-2.9,19.8-7.8,28h100.4
	c6.7-19.8,25.4-34,47.4-34s40.7,14.2,47.4,34h79.2c0-0.3-0.1-0.7-0.1-1c0-4.7,3.8-8.5,8.5-8.5s8.5,3.8,8.5,8.5c0,0.3,0,0.7-0.1,1
	h69.1c-52.9-102.2-159.6-172-282.6-172S148,352.8,95.1,455H207.5z M603.6,436.5c4.7,0,8.5,3.8,8.5,8.5c0,4.7-3.8,8.5-8.5,8.5
	s-8.5-3.8-8.5-8.5C595.1,440.3,598.9,436.5,603.6,436.5z M517.6,373.5c4.7,0,8.5,3.8,8.5,8.5c0,4.7-3.8,8.5-8.5,8.5
	s-8.5-3.8-8.5-8.5C509.1,377.3,512.9,373.5,517.6,373.5z M526.1,402c10.2,0,18.5,8.3,18.5,18.5c0,10.2-8.3,18.5-18.5,18.5
	s-18.5-8.3-18.5-18.5C507.6,410.3,515.9,402,526.1,402z M461.6,326c21,0,38,17,38,38s-17,38-38,38s-38-17-38-38S440.7,326,461.6,326
	z M419.6,399.5c4.7,0,8.5,3.8,8.5,8.5c0,4.7-3.8,8.5-8.5,8.5s-8.5-3.8-8.5-8.5C411.1,403.3,414.9,399.5,419.6,399.5z M350.1,352
	c6.4,0,11.5,5.1,11.5,11.5c0,6.4-5.1,11.5-11.5,11.5s-11.5-5.1-11.5-11.5C338.6,357.1,343.8,352,350.1,352z M338.6,391
	c0,6.1-4.9,11-11,11s-11-4.9-11-11s4.9-11,11-11S338.6,384.9,338.6,391z M307.1,339c10.2,0,18.5,8.3,18.5,18.5
	c0,10.2-8.3,18.5-18.5,18.5s-18.5-8.3-18.5-18.5C288.6,347.3,296.9,339,307.1,339z M183.6,433.5c4.7,0,8.5,3.8,8.5,8.5
	c0,4.7-3.8,8.5-8.5,8.5s-8.5-3.8-8.5-8.5C175.1,437.3,178.9,433.5,183.6,433.5z"/>
<g>
	<g>
		<path class="st0" d="M485.1,454.5V80.1c0-3.1,2.5-5.6,5.6-5.6h388.7c3.1,0,5.6,2.5,5.6,5.6v374.4H485.1z"/>
		<path class="st1" d="M879.5,76c2.3,0,4.1,1.9,4.1,4.1V453h-397V80.1c0-2.3,1.9-4.1,4.1-4.1H879.5 M879.5,73H490.8
			c-3.9,0-7.1,3.2-7.1,7.1V456h403V80.1C886.6,76.2,883.4,73,879.5,73L879.5,73z"/>
	</g>
	<circle class="st1" cx="497.6" cy="88" r="4"/>
	<circle class="st1" cx="508.6" cy="88" r="4"/>
	<rect x="486.6" y="102" class="st4" width="109" height="351"/>
	<circle class="st1" cx="519.6" cy="88" r="4"/>
	<g>
		<path class="st0" d="M532.1,94c-1.4,0-2.5-1.1-2.5-2.5v-8c0-1.4,1.1-2.5,2.5-2.5h28c1.4,0,2.5,1.1,2.5,2.5v8
			c0,1.4-1.1,2.5-2.5,2.5H532.1z"/>
		<path class="st1" d="M560.1,82c0.8,0,1.5,0.7,1.5,1.5v8c0,0.8-0.7,1.5-1.5,1.5h-28c-0.8,0-1.5-0.7-1.5-1.5v-8
			c0-0.8,0.7-1.5,1.5-1.5H560.1 M560.1,80h-28c-1.9,0-3.5,1.6-3.5,3.5v8c0,1.9,1.6,3.5,3.5,3.5h28c1.9,0,3.5-1.6,3.5-3.5v-8
			C563.6,81.6,562.1,80,560.1,80L560.1,80z"/>
	</g>
	<g>
		<line class="st5" x1="545.6" y1="93" x2="545.6" y2="82"/>
	</g>
	<g>
		<path class="st6" d="M585.1,94c-1.4,0-2.5-1.1-2.5-2.5v-8c0-1.4,1.1-2.5,2.5-2.5h210c1.4,0,2.5,1.1,2.5,2.5v8
			c0,1.4-1.1,2.5-2.5,2.5H585.1z"/>
		<path class="st1" d="M795.1,82c0.8,0,1.5,0.7,1.5,1.5v8c0,0.8-0.7,1.5-1.5,1.5h-210c-0.8,0-1.5-0.7-1.5-1.5v-8
			c0-0.8,0.7-1.5,1.5-1.5H795.1 M795.1,80h-210c-1.9,0-3.5,1.6-3.5,3.5v8c0,1.9,1.6,3.5,3.5,3.5h210c1.9,0,3.5-1.6,3.5-3.5v-8
			C798.6,81.6,797.1,80,795.1,80L795.1,80z"/>
	</g>
	<g>
		<path class="st0" d="M853.1,95c-1.4,0-2.5-1.1-2.5-2.5v-8c0-1.4,1.1-2.5,2.5-2.5h13c1.4,0,2.5,1.1,2.5,2.5v8
			c0,1.4-1.1,2.5-2.5,2.5H853.1z"/>
		<path class="st1" d="M866.1,83c0.8,0,1.5,0.7,1.5,1.5v8c0,0.8-0.7,1.5-1.5,1.5h-13c-0.8,0-1.5-0.7-1.5-1.5v-8
			c0-0.8,0.7-1.5,1.5-1.5H866.1 M866.1,81h-13c-1.9,0-3.5,1.6-3.5,3.5v8c0,1.9,1.6,3.5,3.5,3.5h13c1.9,0,3.5-1.6,3.5-3.5v-8
			C869.6,82.6,868.1,81,866.1,81L866.1,81z"/>
	</g>
	<g>
		<path class="st0" d="M829.1,95c-1.4,0-2.5-1.1-2.5-2.5v-8c0-1.4,1.1-2.5,2.5-2.5h13c1.4,0,2.5,1.1,2.5,2.5v8
			c0,1.4-1.1,2.5-2.5,2.5H829.1z"/>
		<path class="st1" d="M842.1,83c0.8,0,1.5,0.7,1.5,1.5v8c0,0.8-0.7,1.5-1.5,1.5h-13c-0.8,0-1.5-0.7-1.5-1.5v-8
			c0-0.8,0.7-1.5,1.5-1.5H842.1 M842.1,81h-13c-1.9,0-3.5,1.6-3.5,3.5v8c0,1.9,1.6,3.5,3.5,3.5h13c1.9,0,3.5-1.6,3.5-3.5v-8
			C845.6,82.6,844.1,81,842.1,81L842.1,81z"/>
	</g>
	<g>
		<line class="st2" x1="595.6" y1="102" x2="595.6" y2="456"/>
	</g>
	<circle class="st5" cx="499.1" cy="121.5" r="5.5"/>
	<circle class="st5" cx="499.1" cy="142.5" r="5.5"/>
	<line class="st2" x1="512.6" y1="122" x2="574.6" y2="122"/>
	<line class="st2" x1="512.6" y1="143.5" x2="574.6" y2="143.5"/>
	<circle class="st5" cx="499.1" cy="163.5" r="5.5"/>
	<circle class="st5" cx="499.1" cy="184.5" r="5.5"/>
	<line class="st2" x1="512.6" y1="164" x2="574.6" y2="164"/>
	<line class="st2" x1="512.6" y1="185.5" x2="574.6" y2="185.5"/>
	<circle class="st5" cx="499.1" cy="205.5" r="5.5"/>
	<circle class="st5" cx="499.1" cy="226.5" r="5.5"/>
	<line class="st2" x1="512.6" y1="206" x2="574.6" y2="206"/>
	<line class="st2" x1="512.6" y1="227.5" x2="574.6" y2="227.5"/>
	<g>
		<line class="st2" x1="483.6" y1="102" x2="886.6" y2="102"/>
	</g>
	<g>
		<path class="st6" d="M867.5,248.5H613.8c-2.9,0-5.2-2.3-5.2-5.2V123.7c0-2.9,2.3-5.2,5.2-5.2h253.6c2.9,0,5.2,2.3,5.2,5.2v119.6
			C872.6,246.2,870.3,248.5,867.5,248.5z"/>
	</g>
	<polyline class="st2" points="626.6,229.7 678.7,187.7 696.1,210.5 750,169.4 784.7,191.4 817.6,163 831.3,172.2 859.6,139.3 	"/>
	<g>
		<path class="st6" d="M729.5,346H614.8c-2.9,0-5.2-2.3-5.2-5.2v-76.6c0-2.9,2.3-5.2,5.2-5.2h114.6c2.9,0,5.2,2.3,5.2,5.2v76.6
			C734.6,343.7,732.3,346,729.5,346z"/>
	</g>
	<g>
		<path class="st6" d="M867.5,346H751.8c-2.9,0-5.2-2.3-5.2-5.2v-76.6c0-2.9,2.3-5.2,5.2-5.2h115.6c2.9,0,5.2,2.3,5.2,5.2v76.6
			C872.6,343.7,870.3,346,867.5,346z"/>
	</g>
	<circle class="st7" cx="671.6" cy="302" r="27"/>
	<circle class="st7" cx="809.6" cy="302" r="27"/>
	<g>
		<path class="st6" d="M872.6,453h-264v-89.8c0-2.9,2.3-5.2,5.2-5.2h253.6c2.9,0,5.2,2.3,5.2,5.2V453z"/>
	</g>
</g>
<g>
	<g>
		<polygon class="st4" points="38.6,377 53.6,367 70.6,362 89.6,357 122.6,357 161.6,434 163.6,444 159.6,451 152.6,453 10.6,453 
			5.6,449 2.6,441 3.6,436 		"/>
	</g>
	<g>
		<path class="st8" d="M58.9,275.6v58.1L3.9,436.5c-4.1,7.7,1.5,17,10.2,17h138.6c8.6,0,14.2-9.1,10.2-16.8l-53.1-103v-58.1H58.9z"
			/>
		<line class="st9" x1="49.9" y1="275" x2="117.6" y2="275"/>
		<path class="st8" d="M33.9,380.5c0,0,24.3-27.5,88.3-22.7"/>
		<circle class="st10" cx="98.1" cy="240.5" r="14.5"/>
		<circle class="st10" cx="68.6" cy="192" r="12"/>
		<circle class="st10" cx="98.1" cy="165.5" r="8.5"/>
		<circle class="st1" cx="68.1" cy="237.5" r="4.5"/>
		<circle class="st1" cx="100.1" cy="199.5" r="4.5"/>
		<circle class="st10" cx="68.6" cy="141" r="4"/>
	</g>
</g>
<g>
	<line class="st11" x1="275.7" y1="165.9" x2="273.2" y2="166.8"/>
	<path class="st12" d="M266.8,130.3l-30.2,11.1c-1.5,0.6-3.2-0.2-3.8-1.7l-0.5-1.3c-0.6-1.5,0.2-3.2,1.7-3.8l30.2-11.1
		c1.5-0.6,3.2,0.2,3.8,1.7l0.5,1.3C269.1,128,268.3,129.7,266.8,130.3z"/>
	<path class="st12" d="M286.3,168.3l-40,14.7c-2.4,0.9-5.1-0.4-6-2.8L228.1,147c-0.9-2.4,0.4-5.1,2.8-6l40-14.7
		c2.4-0.9,5.1,0.4,6,2.8l12.2,33.2C290,164.7,288.7,167.4,286.3,168.3z"/>
	<circle class="st13" cx="258.3" cy="153.7" r="10.2"/>
	<circle class="st13" cx="258.3" cy="153.7" r="6.9"/>
	<line class="st14" x1="235.3" y1="144.8" x2="239.6" y2="143.2"/>
	<line class="st14" x1="242.1" y1="142.3" x2="244.5" y2="141.4"/>
	<line class="st14" x1="282.5" y1="163.4" x2="278.1" y2="165"/>
	<circle class="st13" cx="246.6" cy="174.5" r="2.3"/>
	<line class="st11" x1="263" y1="123.6" x2="259.8" y2="115"/>
	<line class="st11" x1="259.9" y1="124.8" x2="258.3" y2="120.5"/>
	<line class="st2" x1="252.7" y1="189" x2="285.4" y2="177"/>
	<g>
		<line class="st11" x1="251.6" y1="189.1" x2="239.8" y2="202.5"/>
		<line class="st11" x1="256" y1="200.8" x2="239.8" y2="202.5"/>
		<line class="st11" x1="239.6" y1="222.9" x2="239.8" y2="202.5"/>
		<line class="st11" x1="239.9" y1="214.4" x2="256" y2="200.8"/>
		<line class="st11" x1="236.9" y1="224.3" x2="243.1" y2="222"/>
		<line class="st11" x1="275.4" y1="210.8" x2="281.6" y2="208.5"/>
	</g>
	<g>
		<line class="st11" x1="286.2" y1="176.4" x2="303.9" y2="178.9"/>
		<line class="st11" x1="290.5" y1="188.1" x2="303.9" y2="178.9"/>
		<line class="st11" x1="317.3" y1="194.3" x2="303.9" y2="178.9"/>
		<line class="st11" x1="311.5" y1="188.1" x2="290.5" y2="188.1"/>
		<line class="st11" x1="320.2" y1="193.6" x2="314" y2="195.9"/>
	</g>
	<line class="st11" x1="278.2" y1="209.1" x2="272.8" y2="194.2"/>
	
		<rect x="253.3" y="183.7" transform="matrix(0.9386 -0.3451 0.3451 0.9386 -48.4245 105.1229)" class="st0" width="35.5" height="9.9"/>
	
		<rect x="251.6" y="175" transform="matrix(0.9386 -0.3451 0.3451 0.9386 -47.2307 104.426)" class="st2" width="36.2" height="19.7"/>
	<g>
		<circle class="st13" cx="270.8" cy="188.7" r="2.3"/>
		<circle class="st13" cx="276.9" cy="186.4" r="2.3"/>
		<circle class="st13" cx="283.1" cy="184.2" r="2.3"/>
		<circle class="st13" cx="258.4" cy="193.2" r="2.3"/>
		<circle class="st13" cx="264.6" cy="191" r="2.3"/>
	</g>
</g>
<g transform="translate(0,-952.36218)">
	<path class="st1" d="M329,1045.9c-5.5,2.7-9.1,7.1-10,13.4c-2.8-5.7-7.5-8.8-13.6-9.7c5.5-2.7,9.1-7.1,10-13.4
		C318.2,1041.9,322.9,1045.1,329,1045.9L329,1045.9z"/>
</g>
<g transform="translate(0,-952.36218)">
	<path class="st1" d="M302.9,1025.8c-2.7,1.3-4.4,3.5-4.9,6.6c-1.4-2.8-3.7-4.3-6.6-4.7c2.7-1.3,4.4-3.5,4.9-6.6
		C297.6,1023.9,299.9,1025.4,302.9,1025.8L302.9,1025.8z"/>
</g>
<g transform="translate(0,-952.36218)">
	<path class="st1" d="M308.9,1070.8c-2.7,1.3-4.4,3.5-4.9,6.6c-1.4-2.8-3.7-4.3-6.6-4.7c2.7-1.3,4.4-3.5,4.9-6.6
		C303.6,1068.9,305.9,1070.4,308.9,1070.8L308.9,1070.8z"/>
</g>
<g transform="translate(0,-952.36218)">
	<path class="st1" d="M286.9,1050.8c-2.7,1.3-4.4,3.5-4.9,6.6c-1.4-2.8-3.7-4.3-6.6-4.7c2.7-1.3,4.4-3.5,4.9-6.6
		C281.6,1048.9,283.9,1050.4,286.9,1050.8L286.9,1050.8z"/>
</g>
<g transform="translate(0,-952.36218)">
	<path class="st1" d="M214,1166.1c-5.5,2.7-9.1,7.1-10,13.4c-2.8-5.7-7.5-8.8-13.6-9.7c5.5-2.7,9.1-7.1,10-13.4
		C203.2,1162.1,207.9,1165.2,214,1166.1L214,1166.1z"/>
</g>
<g transform="translate(0,-952.36218)">
	<path class="st1" d="M217.9,1146.8c-2.7,1.3-4.4,3.5-4.9,6.6c-1.4-2.8-3.7-4.3-6.6-4.7c2.7-1.3,4.4-3.5,4.9-6.6
		C212.6,1144.9,214.9,1146.4,217.9,1146.8L217.9,1146.8z"/>
</g>
<g transform="translate(0,-952.36218)">
	<path class="st1" d="M207.9,1037.8c-2.7,1.3-4.4,3.5-4.9,6.6c-1.4-2.8-3.7-4.3-6.6-4.7c2.7-1.3,4.4-3.5,4.9-6.6
		C202.6,1035.9,204.9,1037.4,207.9,1037.8L207.9,1037.8z"/>
</g>
<g transform="translate(0,-952.36218)">
	<path class="st1" d="M192.9,1060.8c-2.7,1.3-4.4,3.5-4.9,6.6c-1.4-2.8-3.7-4.3-6.6-4.7c2.7-1.3,4.4-3.5,4.9-6.6
		C187.6,1058.9,189.9,1060.4,192.9,1060.8L192.9,1060.8z"/>
</g>
<g transform="translate(0,-952.36218)">
	<path class="st1" d="M224.9,1051.8c-2.7,1.3-4.4,3.5-4.9,6.6c-1.4-2.8-3.7-4.3-6.6-4.7c2.7-1.3,4.4-3.5,4.9-6.6
		C219.6,1049.9,221.9,1051.4,224.9,1051.8L224.9,1051.8z"/>
</g>
</svg>
