<svg xmlns="http://www.w3.org/2000/svg" xmlns:xlink="http://www.w3.org/1999/xlink" width="600" height="600" viewBox="0 0 600 600">
  <defs>
    <path id="hero-image-a" d="M66.3665612,3.3137243 L5.18483367,3.3137243 L11.2979787,53.3102006 C11.2950212,53.3259739 11.2851629,53.3397755 11.2851629,53.3555488 C11.2851629,54.605584 22.4181651,55.6209911 36.1498207,55.6209911 C49.8824623,55.6209911 61.0144786,54.605584 61.0144786,53.3555488 L61.0144786,53.354563 L61.0144786,53.354563 L66.3665612,3.3137243 Z"/>
    <filter id="hero-image-b" width="106.5%" height="107.6%" x="-3.3%" y="-3.8%" filterUnits="objectBoundingBox">
      <feGaussianBlur in="SourceAlpha" result="shadowBlurInner1" stdDeviation="1.5"/>
      <feOffset dy="1" in="shadowBlurInner1" result="shadowOffsetInner1"/>
      <feComposite in="shadowOffsetInner1" in2="SourceAlpha" k2="-1" k3="1" operator="arithmetic" result="shadowInnerInner1"/>
      <feColorMatrix in="shadowInnerInner1" values="0 0 0 0 0   0 0 0 0 0   0 0 0 0 0  0 0 0 0.5 0"/>
    </filter>
    <path id="hero-image-c" d="M71.3055802,2.37028295 L0.0989257327,2.37028295 L0.0989257327,13.7300265 L0.0989257327,13.7300265 L0.0989257327,13.7310124 C0.0989257327,14.9810475 16.0398312,15.9964546 35.702253,15.9964546 C55.3656605,15.9964546 71.306566,14.9810475 71.306566,13.7310124 L71.306566,13.7300265 L71.306566,13.7300265 L71.306566,2.37028295 L71.3055802,2.37028295 Z"/>
    <filter id="hero-image-d" width="105.6%" height="129.4%" x="-2.8%" y="-14.7%" filterUnits="objectBoundingBox">
      <feGaussianBlur in="SourceAlpha" result="shadowBlurInner1" stdDeviation="1.5"/>
      <feOffset dy="1" in="shadowBlurInner1" result="shadowOffsetInner1"/>
      <feComposite in="shadowOffsetInner1" in2="SourceAlpha" k2="-1" k3="1" operator="arithmetic" result="shadowInnerInner1"/>
      <feColorMatrix in="shadowInnerInner1" values="0 0 0 0 0   0 0 0 0 0   0 0 0 0 0  0 0 0 0.5 0"/>
    </filter>
  </defs>
  <g fill="none" fill-rule="evenodd">
    <rect width="600" height="600" fill="#FFF"/>
    <path fill="#0053F5" d="M264.188764,557 C335.624178,557 483.188674,614.912935 543.334577,556.280451 C600.114038,500.929703 571.556185,331.093057 571.556185,259.485832 C571.556185,188.787815 505.201056,119.768934 449.57353,79.3057742 C389.174653,35.3719609 336.480437,23 264.188764,23 C195.373856,23 115.038949,40.6958904 69.6354352,88.2531865 C23.4120108,136.669287 12.7378651,215.610223 12.7378651,290 C12.7378651,437.460028 125.316267,557 264.188764,557 Z" opacity=".041"/>
    <g stroke="#ACCBEA" transform="translate(44.725 8.15)">
      <g transform="translate(281.345 487.545)">
        <rect width="23.66" height="6.637" x=".778" y=".465"/>
        <rect width="20.908" height="6.638" x="12.608" y="7.102"/>
      </g>
      <g transform="translate(255.275 .85)">
        <rect width="23.661" height="6.637" x=".308" y=".264"/>
        <rect width="20.908" height="6.638" x="12.138" y="6.901"/>
      </g>
      <g transform="translate(61.275 391.85)">
        <rect width="23.66" height="6.637" x=".102" y=".057"/>
        <rect width="20.907" height="6.638" x="11.932" y="6.694"/>
      </g>
      <g transform="translate(0 343.373)">
        <rect width="23.66" height="6.637" x=".29" y=".871"/>
        <rect width="20.906" height="6.638" x="12.12" y="7.508"/>
      </g>
      <g transform="translate(504.275 170.85)">
        <rect width="23.66" height="6.637" x=".2" y=".666"/>
        <rect width="20.907" height="6.638" x="12.03" y="7.303"/>
      </g>
    </g>
    <g transform="translate(114 56)">
      <g opacity=".6">
        <path fill="#23C197" d="M25.7729518,60.4236227 C1.49683569,55.893724 7.16142708,35.1853344 32.2459255,35.8330261 C3.92395438,26.7732289 19.2989922,0.887248913 44.3834907,0.239557207 C66.2315022,0.239557207 59.7585285,17.0657399 60.5678967,30.6554358 C61.3772648,47.4806327 60.8370288,63.6601095 60.8370288,79.8395864 C60.8370288,90.1937812 62.7248974,90.6926123 49.7769782,90.0459064 C44.2366017,90.0459064 39.2206878,90.0459064 34.1328082,90.0459064 C23.6129936,91.9879957 9.58755994,85.6648684 3.92296855,78.5451888 C-8.21361075,63.0124178 11.2072821,60.4236227 25.7729518,60.4236227 Z" opacity=".247" transform="translate(153.682 126.187)"/>
      </g>
      <g opacity=".6">
        <path fill="#23C197" d="M43.3766135,91.6823877 C72.9515773,84.7815628 66.0507524,53.2349348 35.4899565,54.2207669 C69.9940809,40.4191172 51.2632705,0.985832126 20.7024746,0 C-5.91499276,0 1.97166425,25.6316353 0.985832126,46.3341099 C1.66533454e-16,71.9657452 0.657550028,96.6115483 0.657550028,121.257351 C0.657550028,137.030666 -1.64239632,137.790742 14.1309177,136.80491 C20.8809103,136.80491 26.9910978,136.80491 33.1900102,136.80491 C46.0058278,139.762406 63.0932561,130.129841 69.9940809,119.285687 C84.7815628,95.6257162 61.1215918,91.6823877 43.3766135,91.6823877 Z" opacity=".247" transform="translate(18.73 81.824)"/>
      </g>
      <g opacity=".8">
        <path fill="#0053F5" d="M203.664045,222.079389 L0.23167055,222.079389 L0.23167055,0.76993489 L203.664045,0.76993489 L203.664045,222.079389 L203.664045,222.079389 Z M7.13249543,215.178564 L196.762234,215.178564 L196.762234,7.67075977 L7.13249543,7.67075977 L7.13249543,215.178564 Z" opacity=".192" transform="translate(16.76)"/>
        <rect width="234.628" height="8.784" y=".76" fill="#0053F5" opacity=".192" transform="translate(0 217.869)"/>
        <rect width="5.915" height="214.41" x=".407" y=".277" fill="#0053F5" opacity=".192" transform="translate(115.342 3.943)"/>
        <rect width="191.909" height="3.882" x=".079" y=".077" fill="#ACCBEA" fill-rule="nonzero" transform="translate(22.674 12.816)"/>
        <rect width="191.909" height="3.882" x=".079" y=".077" fill="#ACCBEA" fill-rule="nonzero" transform="translate(22.674 21.688)"/>
        <rect width="191.909" height="3.882" x=".079" y=".076" fill="#ACCBEA" fill-rule="nonzero" transform="translate(22.674 30.56)"/>
        <rect width="191.909" height="3.882" x=".079" y=".076" fill="#ACCBEA" fill-rule="nonzero" transform="translate(22.674 39.433)"/>
        <rect width="191.909" height="3.882" x=".079" y=".075" fill="#ACCBEA" fill-rule="nonzero" transform="translate(22.674 48.306)"/>
        <rect width="191.909" height="3.882" x=".079" y=".075" fill="#ACCBEA" fill-rule="nonzero" transform="translate(22.674 57.178)"/>
        <rect width="191.909" height="3.882" x=".079" y=".074" fill="#ACCBEA" fill-rule="nonzero" transform="translate(22.674 66.05)"/>
        <rect width="191.909" height="3.882" x=".079" y=".074" fill="#ACCBEA" fill-rule="nonzero" transform="translate(22.674 74.923)"/>
        <rect width="191.909" height="3.882" x=".079" y=".073" fill="#ACCBEA" fill-rule="nonzero" transform="translate(22.674 83.796)"/>
        <rect width="191.909" height="3.882" x=".079" y=".073" fill="#ACCBEA" fill-rule="nonzero" transform="translate(22.674 92.668)"/>
        <rect width="191.909" height="3.882" x=".079" y=".072" fill="#ACCBEA" fill-rule="nonzero" transform="translate(22.674 101.54)"/>
        <rect width="191.909" height="3.882" x=".079" y=".072" fill="#ACCBEA" fill-rule="nonzero" transform="translate(22.674 110.413)"/>
        <rect width="191.909" height="3.882" x=".079" y=".071" fill="#ACCBEA" fill-rule="nonzero" transform="translate(22.674 119.286)"/>
        <g fill="#ACCBEA" fill-rule="nonzero" transform="translate(32.532 6.9)">
          <rect width="1.972" height="184.68" x="1.315" y=".016"/>
          <circle cx="2.301" cy="184.696" r="1.972"/>
        </g>
      </g>
    </g>
    <g fill-rule="nonzero" transform="translate(0 449.527)">
      <g transform="translate(14.68 76.787)">
        <use fill="#DBAEA1" xlink:href="#hero-image-a"/>
        <use fill="#000" filter="url(#hero-image-b)" xlink:href="#hero-image-a"/>
        <path fill="#BD968B" d="M64.9676655,14.8243002 C64.9676655,16.7654037 51.8245515,19.0288742 35.7012671,19.0288742 C19.5789685,19.0288742 6.58372946,16.7654037 6.58372946,14.8243002 C6.58372946,12.8802392 19.6538918,11.3058653 35.7752045,11.3058653 C51.898489,11.3048795 64.9676655,12.8802392 64.9676655,14.8243002 Z"/>
        <use fill="#DBAEA1" xlink:href="#hero-image-c"/>
        <use fill="#000" filter="url(#hero-image-d)" xlink:href="#hero-image-c"/>
        <ellipse cx="35.701" cy="2.371" fill="#BD968B" rx="35.603" ry="2.265"/>
      </g>
      <path fill="#76A18A" d="M0.132101505,0.87640476 C0.132101505,0.87640476 24.9425386,2.35416712 32.0070116,17.306283 C39.0714846,32.2583988 32.356982,50.2015293 32.0070116,52.9608735 C31.6570412,55.7202176 9.00459064,41.9520861 6.86829242,28.6433524 C4.7319942,15.3346187 6.37537636,7.28431358 0.132101505,0.87640476 Z"/>
      <path fill="#5E806E" d="M36.3200272,79.741989 C35.7581029,68.6819384 33.5409664,57.5449929 30.5479801,46.9157509 C25.5517829,29.1697868 16.8133669,10.9535808 0.911894716,0.602343429 C0.510661041,0.341097916 0.140973994,0.98287463 0.538264341,1.24116265 C16.9454684,11.9196962 25.3940497,30.8733047 30.3951761,49.1269723 C33.1111436,59.0405002 35.0591479,69.4538449 35.5816389,79.7410032 C35.6043131,80.2161743 36.3436872,80.2181459 36.3200272,79.741989 L36.3200272,79.741989 Z"/>
      <g transform="translate(61.122 17.745)">
        <path fill="#7EAB93" d="M34.4153995,0.638504076 C34.4153995,0.638504076 13.6912366,0.4081345 6.93434317,12.4293714 C0.177449783,24.4496226 4.70636257,39.7704396 4.83550658,42.0871451 C4.96465059,44.4028648 24.617214,34.283298 27.1784059,23.3385897 C29.7395977,12.3938815 28.8444622,5.60248397 34.4153995,0.638504076 Z"/>
        <path fill="#5E806E" d="M0.790637365,63.2608475 C3.41097916,40.5334737 13.1293123,12.661042 34.1068341,0.963157987 C34.5228552,0.730501605 34.1502107,0.0916823877 33.7332037,0.324338769 C12.5003514,12.1661543 2.69920836,40.3008173 0.0512632705,63.2618334 C-0.00295749638,63.7340469 0.736416598,63.7291178 0.790637365,63.2608475 L0.790637365,63.2608475 Z"/>
      </g>
      <g transform="translate(47.212 28.59)">
        <path fill="#87B89E" d="M12.9413608,0.284905484 C12.9413608,0.284905484 -0.100212357,7.62146817 0.0141441699,17.5783726 C0.128500697,27.5333054 8.49131462,35.4781265 9.40715267,36.8799798 C10.3249624,38.2818331 18.9588801,24.8597287 16.610628,17.0923574 C14.2594184,9.32498608 11.2496729,5.39940255 12.9413608,0.284905484 Z"/>
        <path fill="#5E806E" d="M14.6488221,52.229386 C7.94910695,37.008138 3.8233995,16.2277826 12.6387104,1.17412606 C12.8802392,0.762048233 12.24142,0.38940369 12.000877,0.800495686 C3.03670547,16.1084969 7.21367619,37.1599562 14.0109887,52.6030164 C14.2022401,53.0387542 14.8390877,52.6621663 14.6488221,52.229386 L14.6488221,52.229386 Z"/>
      </g>
      <g transform="translate(7.887 35.49)">
        <path fill="#90C4A9" d="M0.132101505,1.10807531 C0.132101505,1.10807531 15.0526707,-0.0354899565 20.4875632,8.30760733 C25.9214699,16.6487329 23.3819664,27.9010208 23.3977397,29.5749638 C23.413513,31.2498926 8.77686342,24.8853604 6.41678131,17.1219324 C4.0566992,9.35751854 4.3790663,4.42047125 0.132101505,1.10807531 Z"/>
        <path fill="#5E806E" d="M28.2914103,45.1304089 C25.1328042,28.5151942 16.6940812,8.48111378 0.676280838,0.767963226 C0.248429696,0.562910144 -0.126186512,1.1997577 0.302650463,1.40678244 C16.1469444,9.03515143 24.4515942,28.8760088 27.5776679,45.3265895 C27.6673786,45.7948597 28.3801352,45.5967075 28.2914103,45.1304089 L28.2914103,45.1304089 Z"/>
      </g>
      <g transform="translate(32.532 42.39)">
        <path fill="#7EAB93" d="M0.708813299,0.340112083 C0.708813299,0.340112083 11.7757647,4.52989862 13.5660359,13.435906 C15.3553212,22.338956 11.5155051,31.0724428 11.0994839,32.4871119 C10.6824769,33.9047385 0.866546439,23.3563347 1.14849443,16.0000554 C1.43241408,8.64574774 2.92890725,4.59792104 0.708813299,0.340112083 Z"/>
        <path fill="#5E806E" d="M10.5089705,38.7136276 C12.8759534,25.8238725 10.0643602,11.3350978 1.89476935,1.01639292 C1.59901971,0.642762546 1.07948618,1.17018273 1.37227832,1.53986978 C9.35850437,11.6249324 12.1119335,25.9125974 9.79621384,38.517447 C9.71044644,38.9827598 10.4222172,39.1818978 10.5089705,38.7136276 L10.5089705,38.7136276 Z"/>
      </g>
      <g transform="translate(45.24 52.141)">
        <path fill="#90C4A9" d="M10.1820167,0.105826558 C10.1820167,0.105826558 1.81131614,3.27527684 0.457768627,10.0114678 C-0.895778882,16.745687 2.00848256,23.3507623 2.32394884,24.4203901 C2.63941512,25.4929755 10.0637169,17.5146361 9.85077712,11.9515854 C9.63487989,6.38754886 8.50314461,3.32752595 10.1820167,0.105826558 Z"/>
        <path fill="#5E806E" d="M3.39653419,28.9581754 C1.66048382,19.4094054 3.75340542,8.74565931 9.74430725,1.07785703 C10.0341419,0.706198322 9.51460837,0.178778135 9.22181623,0.554380175 C3.04754962,8.45779633 0.894492258,19.317723 2.68279173,29.1553418 C2.76855913,29.6226262 3.48131576,29.4234882 3.39653419,28.9581754 L3.39653419,28.9581754 Z"/>
      </g>
    </g>
    <g fill-rule="nonzero" transform="translate(439 284)">
      <path fill="#C2DAF2" d="M23.2840654 287.183654C23.2840654 289.640888 21.2931043 291.631849 18.8358709 291.631849L15.6923633 291.631849C13.2351299 291.631849 11.2441688 289.640888 11.2441688 287.183654L11.2441688 287.183654C11.2441688 284.726421 13.2351299 282.73546 15.6923633 282.73546L18.8358709 282.73546C21.2931043 282.734365 23.2840654 284.725326 23.2840654 287.183654L23.2840654 287.183654zM151.672049 287.183654C151.672049 289.640888 149.681088 291.631849 147.223855 291.631849L144.080347 291.631849C141.623114 291.631849 139.632153 289.640888 139.632153 287.183654L139.632153 287.183654C139.632153 284.726421 141.623114 282.73546 144.080347 282.73546L147.223855 282.73546C149.681088 282.734365 151.672049 284.725326 151.672049 287.183654L151.672049 287.183654z"/>
      <rect width="160.08" height="282.643" x=".391" y=".091" fill="#C2DAF2"/>
      <path fill="#D9E8F9" d="M156.265817,274.469523 L4.5970514,274.469523 L4.5970514,8.35497395 L156.265817,8.35497395 L156.265817,274.469523 L156.265817,274.469523 Z M6.7861235,272.280451 L154.07565,272.280451 L154.07565,10.544046 L6.7861235,10.544046 L6.7861235,272.280451 Z"/>
      <rect width="149.479" height="2.052" x="5.692" y="69.925" fill="#D9E8F9"/>
      <rect width="149.479" height="2.052" x="5.692" y="141.503" fill="#D9E8F9"/>
      <g fill="#D9E8F9" transform="translate(29.552 231.067)">
        <rect width="56.248" height="9.099" x=".715" y=".752"/>
        <path d="M3.4795301,0.751946265 L3.4795301,42.174663 L54.1992361,42.174663 L54.1992361,0.751946265 L3.4795301,0.751946265 Z M37.5677608,18.6497997 L20.1099108,18.6497997 C19.0274147,18.6497997 18.1495968,17.6658118 18.1495968,16.4497823 C18.1495968,15.2337527 19.0274147,14.2497648 20.1099108,14.2497648 L37.5677608,14.2497648 C38.6502569,14.2497648 39.5269803,15.2337527 39.5269803,16.4497823 C39.5269803,17.6658118 38.6502569,18.6497997 37.5677608,18.6497997 Z"/>
      </g>
      <rect width="149.479" height="2.052" x="5.692" y="213.457" fill="#D9E8F9"/>
      <rect width="8.209" height="50.019" x="136.074" y="19.136" fill="#D9E8F9"/>
      <rect width="8.209" height="50.019" x="124.034" y="19.136" fill="#D9E8F9"/>
      <polygon fill="#D9E8F9" points="108.966 19.134 114.985 19.134 114.985 69.153 108.966 69.153" transform="rotate(17.56 111.976 44.143)"/>
      <polygon fill="#D9E8F9" points="98.435 20.933 105.982 20.933 105.982 70.954 98.435 70.954" transform="rotate(21.253 102.208 45.943)"/>
      <polygon fill="#D9E8F9" points="84.133 31.112 91.679 31.112 91.679 71.658 84.133 71.658" transform="rotate(30.001 87.906 51.385)"/>
      <rect width="8.209" height="50.019" x="122.981" y="163.359" fill="#D9E8F9"/>
      <rect width="8.209" height="50.019" x="136.074" y="161.988" fill="#D9E8F9"/>
      <polygon fill="#D9E8F9" points="118.95 213.378 98.416 213.378 98.416 183.834 118.95 163.359"/>
      <circle cx="41.123" cy="50.302" r="12.565" fill="#D9E8F9"/>
      <polygon fill="#D9E8F9" points="51.247 68.83 31.546 68.83 33.735 57.668 49.058 57.668"/>
      <g fill="#D9E8F9" transform="translate(82.09 99.722)">
        <rect width="63.119" height="9.099" x=".442" y=".268"/>
        <path d="M3.54410773,0.268161332 L3.54410773,41.6908781 L60.4599823,41.6908781 L60.4599823,0.268161332 L3.54410773,0.268161332 Z M41.7970481,18.1671093 L22.2081364,18.1671093 C20.9932014,18.1671093 20.008119,17.1831214 20.008119,15.9670919 C20.008119,14.7510623 20.9921069,13.7670744 22.2081364,13.7670744 L41.7970481,13.7670744 C43.0119831,13.7670744 43.9970655,14.7510623 43.9970655,15.9670919 C43.9970655,17.1831214 43.0119831,18.1671093 41.7970481,18.1671093 Z"/>
      </g>
      <g fill="#D9E8F9" transform="translate(95.225 231.067)">
        <rect width="46.129" height="9.099" x=".661" y=".752"/>
        <path d="M2.92788393,0.751946265 L2.92788393,42.174663 L44.5224428,42.174663 L44.5224428,0.751946265 L2.92788393,0.751946265 Z M30.8834291,18.6497997 L16.5668976,18.6497997 C15.6781344,18.6497997 14.9590242,17.6658118 14.9590242,16.4497823 C14.9590242,15.2337527 15.6781344,14.2497648 16.5668976,14.2497648 L30.8834291,14.2497648 C31.7721924,14.2497648 32.4913026,15.2337527 32.4913026,16.4497823 C32.4913026,17.6658118 31.7710979,18.6497997 30.8834291,18.6497997 Z"/>
      </g>
      <path fill="#D9E8F9" d="M57.9140914,123.426832 C51.5975239,116.300308 58.4405632,110.753199 49.6142245,110.753199 C40.7878858,110.753199 47.6309252,116.300308 41.3143577,123.426832 C33.2870303,132.480835 37.8983107,141.05543 49.6142245,141.05543 C61.3301384,141.05543 65.9414188,132.481929 57.9140914,123.426832 Z"/>
      <g fill="#D9E8F9" transform="translate(41.473 84.399)">
        <path d="M8.62860796,26.8818054 C8.62860796,27.3601176 8.50383085,27.7475834 8.34950127,27.7475834 L8.14372849,27.7475834 C7.98830437,27.7475834 7.86352726,27.3601176 7.86352726,26.8818054 L7.86352726,1.34080666 C7.86352726,0.86139987 7.98830437,0.475028645 8.14372849,0.475028645 L8.34950127,0.475028645 C8.50383085,0.475028645 8.62860796,0.862494406 8.62860796,1.34080666 L8.62860796,26.8818054 Z"/>
        <g transform="translate(0 17.513)">
          <path d="M8.14153942,7.72304636 C8.14153942,7.72304636 2.02527198,9.70853475 0.101077605,0.427963595 L8.14153942,7.72304636 Z"/>
          <path d="M8.07696179,7.78105677 C8.07696179,7.78105677 9.50642587,1.51045975 0.0901322445,0.426869059 L8.07696179,7.78105677 Z"/>
        </g>
        <g transform="translate(.12 10.945)">
          <path d="M7.65627966,6.22681558 C7.65627966,6.22681558 2.47474601,7.90911749 0.842792757,0.0470650501 L7.65627966,6.22681558 Z"/>
          <path d="M7.59936379,6.2760697 C7.59936379,6.2760697 8.80992065,0.963191723 0.832941933,0.0470650501 L7.59936379,6.2760697 Z"/>
        </g>
        <g transform="translate(2.309 5.473)">
          <path d="M5.63904972,5.25705664 C5.63904972,5.25705664 1.44807119,6.61756495 0.13024979,0.261594116 L5.63904972,5.25705664 Z"/>
          <path d="M5.59307921,5.29755448 C5.59307921,5.29755448 6.57268897,1.00259502 0.122588037,0.26049958 L5.59307921,5.29755448 Z"/>
        </g>
        <g transform="translate(7.781 2.19)">
          <path d="M0.85592719,5.42452066 C0.85592719,5.42452066 5.04581118,6.78502897 6.36363259,0.427963595 L0.85592719,5.42452066 Z"/>
          <path d="M0.900803168,5.46392395 C0.900803168,5.46392395 -0.0788065955,1.1689645 6.37238887,0.426869059 L0.900803168,5.46392395 Z"/>
        </g>
        <g transform="translate(3.403)">
          <path d="M4.47008522,3.98411122 C4.47008522,3.98411122 1.1689645,5.05566201 0.13024979,0.0470650501 L4.47008522,3.98411122 Z"/>
          <path d="M4.43506007,4.01585276 C4.43506007,4.01585276 5.20670798,0.6315473 0.12477711,0.0470650501 L4.43506007,4.01585276 Z"/>
        </g>
        <g transform="translate(7.781 7.662)">
          <path d="M0.858116262,6.34502547 C0.858116262,6.34502547 6.03964992,8.02732738 7.67050863,0.165274943 L0.858116262,6.34502547 Z"/>
          <path d="M0.912843065,6.3942796 C0.912843065,6.3942796 -0.296619269,1.08140162 7.68035945,0.165274943 L0.912843065,6.3942796 Z"/>
        </g>
        <g transform="translate(8.756 14.229)">
          <path d="M0.110928429,7.94852078 C0.110928429,7.94852078 6.2282904,9.93400918 8.15248478,0.653438021 L0.110928429,7.94852078 Z"/>
          <path d="M0.176600592,8.0065312 C0.176600592,8.0065312 -1.25176895,1.73593417 8.16343014,0.652343485 L0.176600592,8.0065312 Z"/>
        </g>
      </g>
      <rect width="20.533" height="1.008" x="98.416" y="206.359" fill="#C2DAF2"/>
      <rect width="7.484" height="44.125" x="82.773" y="169.209" fill="#D9E8F9"/>
      <rect width="7.484" height="40.624" x="68.665" y="173.313" fill="#D9E8F9"/>
    </g>
    <g transform="translate(105.5 300)">
      <g fill="#0F104F" transform="translate(0 134.647)">
        <path d="M278.654118 30.07191L274.332864 3.45061303C274.153716 2.34262849 272.19563 1.64200799 269.95798 1.88505712 267.720331 2.12810625 266.055501 3.22011573 266.233509 4.32810027L271.531523 36.9628664C273.972284 34.7959635 276.351427 32.5092477 278.654118 30.07191zM36.8122444 4.32695919C36.9902522 3.21897465 35.3254227 2.12696517 33.0877731 1.88391604 30.8501236 1.64086691 28.8920377 2.34148741 28.7128888 3.44947195L23.0554353 38.2967839C25.9822945 36.9708539 28.9901702 35.7487618 31.9272991 34.4137032L36.8122444 4.32695919z"/>
        <path d="M302.744509 7.45350671C302.744509 9.70484914 300.762461 11.5282882 298.315994 11.5282882L5.12000683 11.5282882C2.67354045 11.5282882.691491897 9.70370807.691491897 7.45350671L.691491897 4.19345333C.691491897 1.9421109 2.67468153.118671877 5.12000683.118671877L298.315994.118671877C300.762461.118671877 302.744509 1.94325198 302.744509 4.19345333L302.744509 7.45350671 302.744509 7.45350671zM278.654118 30.07191C276.350286 32.5103888 273.971143 34.7971046 271.531523 36.9617253L287.91623 137.889874C288.09652 138.996718 290.054606 139.697338 292.292255 139.454289 294.527623 139.21124 296.194734 138.11923 296.015586 137.012387L278.654118 30.07191zM23.0554353 38.2967839L7.03016762 137.012387C6.85101873 138.11923 8.51813038 139.21124 10.7534977 139.454289 12.9911473 139.697338 14.9492332 138.996718 15.1295232 137.889874L31.9284402 34.4137032C28.9901702 35.7487618 25.9822945 36.9708539 23.0554353 38.2967839z"/>
      </g>
      <g transform="translate(78.734)">
        <path fill="#ACCBEA" fill-rule="nonzero" d="M106.714544,141.075758 C117.002483,154.255182 130.063236,166.099549 130.274335,183.963089 C130.359915,191.182675 129.27247,198.636182 128.730459,205.837511 C128.157639,213.449627 127.542599,221.236328 125.261589,228.558611 C124.932959,229.615247 126.585237,230.06369 126.912726,229.012759 C129.237097,221.548983 129.825892,213.58998 130.442073,205.83637 C131.100474,197.540749 132.31686,188.903947 131.877546,180.588928 C131.009188,164.160861 117.389308,151.990147 107.924084,139.865076 C107.246285,138.996718 106.044733,140.216528 106.714544,141.075758 L106.714544,141.075758 Z"/>
        <path fill="#91B2D6" fill-rule="nonzero" d="M168.048506,113.274588 C168.048506,116.42624 165.494778,118.979967 162.343127,118.979967 L68.7749168,118.979967 L6.01575129,118.979967 C2.8641001,118.979967 0.3103726,116.42624 0.3103726,113.274588 L0.3103726,6.01346913 C0.3103726,2.86295902 2.8641001,0.308090449 6.01575129,0.308090449 L162.343127,0.308090449 C165.494778,0.308090449 168.048506,2.86295902 168.048506,6.01346913 L168.048506,113.274588 Z"/>
        <rect width="155.186" height="98.72" x="6.586" y="7.345" fill="#F2F3FA"/>
        <polygon fill="#466F9C" fill-rule="nonzero" points="63.07 134.766 104.719 134.766 100.725 118.98 66.493 118.98"/>
        <g transform="translate(155.186 17.116)">
          <rect width="21.868" height="19.398" x=".029" y=".879" fill="#FF907C"/>
          <rect width="21.868" height="4.279" x=".029" y=".879" fill="#0053F5"/>
        </g>
        <g transform="translate(155.186 46.784)">
          <rect width="21.868" height="19.398" x=".029" y=".879" fill="#FF907C"/>
          <rect width="21.868" height="4.279" x=".029" y=".879" fill="#0053F5"/>
        </g>
        <g stroke="#ACCBEA" transform="translate(115.249 216.804)">
          <circle cx="10.831" cy="11.411" r="6.223"/>
          <rect width="21.11" height="21.11" x=".276" y=".856"/>
        </g>
      </g>
      <g transform="translate(45.643 44.502)">
        <g fill-rule="nonzero" transform="translate(26.245 140.352)">
          <polygon fill="#002538" points="64.074 .686 51.41 10.698 44.04 16.524 45.885 17.974 55.535 10.344 65.49 2.475"/>
          <polygon fill="#002538" points="33.793 8.474 23.879 .684 22.468 2.477 31.028 9.203 42.198 17.98 44.04 16.524"/>
          <polygon fill="#466F9C" points="45.885 17.974 44.04 16.524 42.198 17.98 .774 50.732 2.189 52.521 44.044 19.429 86.163 52.524 87.573 50.73"/>
        </g>
        <path fill="#A89D72" fill-rule="nonzero" d="M44.0421002,136.458965 C44.2338009,135.681893 43.2604633,134.157415 41.6937664,133.771732 C40.1270694,133.383766 38.5569492,134.280652 38.1883817,135.773179 L32.7043717,157.978513 C35.0333073,156.693661 37.3588196,155.435055 39.8395183,153.475828 L44.0421002,136.458965 Z"/>
        <path fill="#D6C791" fill-rule="nonzero" d="M32.7043717,157.977371 L11.5876241,243.495293 C11.2179156,244.988961 12.1901121,246.512297 13.7579502,246.899122 C15.3246471,247.285946 16.8936263,246.390202 17.2633348,244.896534 L39.6615105,154.190141 C37.3588196,155.435055 35.0333073,156.69252 32.7043717,157.977371 Z"/>
        <path fill="#A89D72" fill-rule="nonzero" d="M107.547529,155.607357 L102.650032,135.772038 C102.281465,134.279511 100.712486,133.382625 99.1446476,133.770591 C97.5779506,134.157415 96.6057541,135.681893 96.9754626,137.17442 L102.751588,160.567613 C104.397019,159.02602 105.952305,157.352062 107.547529,155.607357 Z"/>
        <path fill="#D6C791" fill-rule="nonzero" d="M129.25079,243.496434 L107.547529,155.608498 C105.952305,157.353203 104.397019,159.027161 102.751588,160.569896 L123.575079,244.898816 C123.943647,246.392484 125.512626,247.288228 127.080464,246.901404 C128.648302,246.512297 129.620498,244.988961 129.25079,243.496434 Z"/>
        <path fill="#0053F5" d="M121.313467,68.2294826 C111.709033,19.7896765 107.950329,0.877487242 70.3678586,0.877487242 C70.3302031,0.877487242 70.2948297,0.878628318 70.2571742,0.878628318 C70.2195187,0.878628318 70.1852864,0.877487242 70.1464899,0.877487242 C32.5628783,0.877487242 28.8053159,19.7896765 19.2008814,68.2294826 C13.4669758,97.1534704 -3.59438857,113.611206 0.827279909,124.604329 C8.73835799,144.273052 51.5948805,143.813198 66.3889275,143.813198 C67.4729494,143.813198 68.7760579,143.834879 70.2583153,143.865688 C71.7405727,143.834879 73.0425401,143.813198 74.1277031,143.813198 C88.92175,143.813198 131.777131,144.273052 139.689351,124.604329 C144.108737,113.610065 127.048514,97.1534704 121.313467,68.2294826 Z"/>
      </g>
      <g transform="translate(12.552 93.568)">
        <g fill-rule="nonzero" transform="translate(0 15.85)">
          <path fill="#EDEDED" d="M7.09064463 18.0522146L39.9479205 18.0522146C39.9479205 18.4470268 32.5914052 18.766528 23.518712 18.766528 14.4460188 18.766528 7.09064463 18.4470268 7.09064463 18.0522146zM9.08638609 15.1002517L9.08638609 15.1002517C6.28276301 15.1002517 3.42550936 12.8694486 2.0505131 10.6648903.632155958 8.38958528.174584588 5.88264188.854665727 4.1231031 1.2700173 3.0459276 2.07447569 2.31107483 3.179037 1.99842007 3.53505263 1.89800541 3.93671129 1.846657 4.37260222 1.846657 7.48773899 1.846657 12.2665642 4.53046713 13.0733047 7.38087433 14.1539034 11.1977727 13.1098191 14.1565821 10.4134572 14.9211028 9.99240023 15.0397747 9.54623962 15.1002517 9.08638609 15.1002517zM4.3737433 2.98773274C4.04283134 2.98773274 3.74615164 3.02424716 3.49169176 3.09727601 2.73515854 3.31179825 2.20684048 3.79447328 1.92043047 4.53503144 1.37499626 5.94540105 1.80746397 8.1157271 3.02042748 10.0624023 4.22768561 11.9988078 6.69925565 13.960317 9.08752717 13.960317L9.08752717 13.960317C9.44240172 13.960317 9.78358337 13.914674 10.1042257 13.8233879 12.5678082 13.1261907 12.68648 10.1981903 11.977872 7.69124693 11.3160481 5.35774704 6.99707642 2.98773274 4.3737433 2.98773274zM23.5198531 17.3379012C32.5925463 17.3379012 39.9490616 17.6574024 39.9490616 18.0522146L7.09178571 18.0522146C7.09064463 17.6574024 14.4460188 17.3379012 23.5198531 17.3379012z"/>
          <path fill="#EDEDED" d="M34.2185792,16.0119712 C31.2905789,19.2765889 27.3983695,21.267766 23.1238998,21.267766 C17.3477744,21.267766 12.2677052,17.6265934 9.326012,12.1186208 C17.0088749,16.0610375 25.3056366,16.6852059 34.2185792,16.0119712 Z"/>
          <path fill="#F5F5F5" d="M9.326012 12.1197619C7.63493776 8.95327669 6.64676617 5.17061062 6.64676617 1.10609885 6.64676617.751224293 6.6547537.402055118 6.66958768.0517448666L39.5782119.0517448666C39.594187.402055118 39.6010335.751224293 39.6010335 1.10609885 39.6010335 7.01230686 37.5265578 12.3240144 34.2185792 16.0119712 25.3056366 16.6852059 17.0088749 16.0610375 9.326012 12.1197619zM7.03929622 18.0522146L7.09064463 18.0522146C7.09064463 18.4470268 14.4448778 18.766528 23.518712 18.766528 32.5914052 18.766528 39.9479205 18.4470268 39.9479205 18.0522146 39.9638955 18.1617579 39.970742 18.2724422 39.970742 18.3842677 39.970742 21.8987809 32.5936874 24.746906 23.4936084 24.746906 14.3935293 24.746906 7.01761578 21.8987809 7.01761578 18.3842677 7.01761578 18.2724422 7.02446224 18.1617579 7.03929622 18.0522146z"/>
        </g>
        <path fill="#23C197" d="M288.144445,36.5224111 C288.144445,40.5310102 287.292062,41.1973984 282.439066,41.1973984 L228.623653,41.1973984 C222.918274,41.2202199 222.918274,41.8147204 222.918274,36.5224111 L222.918274,32.9382922 C222.918274,28.2633049 224.247627,28.2633049 228.623653,28.2633049 L282.439066,28.2633049 C287.149427,28.2633049 288.144445,29.1191117 288.144445,32.9382922 L288.144445,36.5224111 Z"/>
        <path fill="#FFC65E" d="M283.477445,23.5586497 C283.477445,27.5672487 282.625062,28.233637 277.772067,28.233637 L223.956653,28.233637 C218.251274,28.2564585 218.251274,28.8509589 218.251274,23.5586497 L218.251274,19.9745308 C218.251274,15.2995435 219.580627,15.2995435 223.956653,15.2995435 L277.772067,15.2995435 C282.482427,15.2995435 283.477445,16.1553503 283.477445,19.9745308 L283.477445,23.5586497 Z"/>
        <rect width="2.597" height="12.933" x="267.308" y="15.317" fill="#F7EFD2" fill-rule="nonzero"/>
        <rect width="2.734" height="12.933" x="275.417" y="28.279" fill="#E1F5F2" fill-rule="nonzero"/>
        <g fill="#F7EFD2" fill-rule="nonzero" transform="translate(240.767 18.257)">
          <path d="M.168879209 1.15020434C.524894839 1.07603442 1.08858625 1.02012171 1.66140627 1.02012171 2.4784165 1.02012171 3.00331134 1.16047402 3.39698247 1.47883416 3.72561228 1.72302436 3.92301838 2.09843828 3.92301838 2.5959473 3.92301838 3.20642282 3.51907757 3.74158734 2.85268934 3.98577755L2.85268934 4.00517584C3.45289518 4.15465676 4.15693891 4.65216578 4.15693891 5.59127111 4.15693891 6.13556424 3.94241667 6.54863366 3.62177439 6.85786518 3.18017808 7.26180599 2.46700574 7.45008349 1.43547328 7.45008349.872922939 7.45008349.440455235 7.41242799.168879209 7.37477249L.168879209 1.15020434zM.985889437 3.74044627L1.72644759 3.74044627C2.59024192 3.74044627 3.09687955 3.28972135 3.09687955 2.67924583 3.09687955 1.93868768 2.53318814 1.64771336 1.7070493 1.64771336 1.33163539 1.64771336 1.11597207 1.67509918.984748361 1.70362608L.984748361 3.74044627.985889437 3.74044627zM.985889437 6.7722845C1.14564004 6.79967032 1.37956057 6.80994 1.67167595 6.80994 2.516072 6.80994 3.29542673 6.50070847 3.29542673 5.58100143 3.29542673 4.7172071 2.5537275 4.36119147 1.66140627 4.36119147L.985889437 4.36119147.985889437 6.7722845zM9.38078363 5.08235133C9.38078363 6.76315589 8.21574531 7.49458544 7.11917152 7.49458544 5.89023295 7.49458544 4.94199902 6.59313561 4.94199902 5.15766233 4.94199902 3.63660837 5.93701706 2.74542822 7.19448252 2.74542822 8.49759101 2.74542822 9.38078363 3.69366216 9.38078363 5.08235133zM5.77612538 5.12913544C5.77612538 6.12415348 6.34780433 6.87498132 7.15568595 6.87498132 7.94302821 6.87498132 8.53524651 6.13328209 8.53524651 5.10973715 8.53524651 4.3406521 8.14956291 3.36503235 7.17394316 3.36503235 6.19946448 3.36503235 5.77612538 4.26648218 5.77612538 5.12913544zM14.5373049 5.08235133C14.5373049 6.76315589 13.3722666 7.49458544 12.2756928 7.49458544 11.0467542 7.49458544 10.0985203 6.59313561 10.0985203 5.15766233 10.0985203 3.63660837 11.0935383 2.74542822 12.3510038 2.74542822 13.6552533 2.74542822 14.5373049 3.69366216 14.5373049 5.08235133zM10.9337877 5.12913544C10.9337877 6.12415348 11.5054667 6.87498132 12.3133483 6.87498132 13.1006905 6.87498132 13.6929088 6.13328209 13.6929088 5.10973715 13.6929088 4.3406521 13.3072252 3.36503235 12.3316055 3.36503235 11.3559857 3.36503235 10.9337877 4.26648218 10.9337877 5.12913544zM16.3995405 4.93172934L16.4177977 4.93172934C16.5307642 4.77197873 16.6905148 4.57571371 16.8217385 4.4159631L18.154515 2.84926612 19.149533 2.84926612 17.3945585 4.7172071 19.3937232 7.39188862 18.3895766 7.39188862 16.8217385 5.21471612 16.4006816 5.68369825 16.4006816 7.39188862 15.5836713 7.39188862 15.5836713.72800632 16.4006816.72800632 16.4006816 4.93172934 16.3995405 4.93172934z"/>
        </g>
        <g fill="#E1F5F2" fill-rule="nonzero" transform="translate(247.489 30.809)">
          <path d="M.00838398857.579666474C.364399619.505496552.928091033.44958384 1.50091105.44958384 2.31792128.44958384 2.84281612.589936156 3.23648725.908296287 3.56511706 1.15248649 3.76252316 1.52790041 3.76252316 2.02540943 3.76252316 2.63588495 3.35858235 3.17104947 2.69219412 3.41523968L2.69219412 3.43463797C3.29239996 3.58411889 3.99644369 4.08162791 3.99644369 5.02073324 3.99644369 5.56502637 3.78192145 5.97809579 3.46127917 6.28732731 3.01968286 6.69126812 2.30651052 6.87954562 1.27497806 6.87954562.712427718 6.87954562.279960014 6.84189012.00838398857 6.80423462L.00838398857.579666474zM.825394216 3.1699084L1.56595237 3.1699084C2.4297467 3.1699084 2.93638433 2.71918348 2.93638433 2.10870796 2.93638433 1.36814981 2.37269292 1.0771755 1.54655408 1.0771755 1.17114016 1.0771755.95547685 1.10456131.824253141 1.13308821L.824253141 3.1699084.825394216 3.1699084zM.825394216 6.20174663C.98514482 6.22913245 1.21906535 6.23940213 1.51118073 6.23940213 2.35557678 6.23940213 3.13493151 5.93017061 3.13493151 5.01046356 3.13493151 4.14666923 2.39323228 3.7906536 1.50091105 3.7906536L.825394216 3.7906536.825394216 6.20174663zM9.22028841 4.51181346C9.22028841 6.19261803 8.05525009 6.92404757 6.9586763 6.92404757 5.72973773 6.92404757 4.7815038 6.02259774 4.7815038 4.58712446 4.7815038 3.06607051 5.77652184 2.17489035 7.0339873 2.17489035 8.33709579 2.17489035 9.22028841 3.12312429 9.22028841 4.51181346zM5.61563016 4.55859757C5.61563016 5.55361561 6.1873091 6.30444345 6.99519073 6.30444345 7.78253299 6.30444345 8.37475129 5.56274422 8.37475129 4.53919928 8.37475129 3.77011424 7.98906769 2.79449448 7.01344794 2.79449448 6.03896926 2.79449448 5.61563016 3.69594431 5.61563016 4.55859757zM14.3768097 4.51181346C14.3768097 6.19261803 13.2117713 6.92404757 12.1151976 6.92404757 10.886259 6.92404757 9.93802505 6.02259774 9.93802505 4.58712446 9.93802505 3.06607051 10.9330431 2.17489035 12.1905086 2.17489035 13.4947581 2.17489035 14.3768097 3.12312429 14.3768097 4.51181346zM10.7732925 4.55859757C10.7732925 5.55361561 11.3449714 6.30444345 12.1528531 6.30444345 12.9401953 6.30444345 13.5324136 5.56274422 13.5324136 4.53919928 13.5324136 3.77011424 13.14673 2.79449448 12.1711103 2.79449448 11.1954905 2.79449448 10.7732925 3.69594431 10.7732925 4.55859757zM16.2390453 4.36119147L16.2573025 4.36119147C16.370269 4.20144086 16.5300196 4.00517584 16.6612433 3.84542523L17.9940198 2.27872825 18.9890378 2.27872825 17.2340633 4.14666923 19.233228 6.82135076 18.2290814 6.82135076 16.6612433 4.64417825 16.2401863 5.11316038 16.2401863 6.82135076 15.4231761 6.82135076 15.4231761.157468452 16.2401863.157468452 16.2401863 4.36119147 16.2390453 4.36119147z"/>
        </g>
        <g fill-rule="nonzero" transform="translate(190.56)">
          <path fill="#D69391" d="M9.9844127,19.5203826 C9.9844127,19.8455892 9.55879145,20.1114599 9.03731984,20.1114599 L9.03731984,20.1114599 C8.512425,20.1114599 8.0890859,19.8467303 8.0890859,19.5203826 L8.0890859,1.8998911 C8.0890859,1.57354344 8.512425,1.30767279 9.03731984,1.30767279 L9.03731984,1.30767279 C9.55879145,1.30767279 9.9844127,1.57240237 9.9844127,1.8998911 L9.9844127,19.5203826 Z"/>
          <polygon fill="#466F9C" points="14.82 .642 16.878 .642 16.878 25.573 14.82 25.573" transform="rotate(13.244 15.85 13.107)"/>
          <g transform="translate(0 1.141)">
            <path fill="#D6C791" d="M0.823856682,3.57727244 L5.97695471,25.7552205 C6.11046057,26.3303226 6.68556274,26.6874793 7.26066492,26.5551146 C7.83690816,26.4216087 8.19520594,25.8453654 8.06170008,25.2702633 L2.91202528,3.11171354 L0.823856682,3.57727244 Z"/>
            <path fill="#D69391" d="M2.60393483,1.79034783 C2.47042897,1.21410458 1.8953268,0.855806803 1.3213657,0.989312664 C0.743981381,1.1239596 0.386824675,1.69906177 0.521471612,2.27416394 L0.823856682,3.57727244 L2.91202528,3.11171354 L2.60393483,1.79034783 Z"/>
          </g>
          <polygon fill="#F5F5F5" points="16.26 41.197 2.282 41.197 0 17.401 18.542 17.401"/>
          <path fill="#466F9C" d="M18.0746397,3.59438857 C17.7106365,1.71617791 15.6430073,0.119812952 14.2109572,2.21939231 C12.0919796,5.32882369 17.8224619,11.9208182 12.9945705,13.4053578 C12.4685346,13.5673905 12.6921854,14.3923883 13.2216446,14.2303555 C14.990312,13.6872035 15.6795217,12.5427045 15.7571149,10.5538095 C15.8130276,9.09779685 15.5300408,7.84831892 15.0154156,6.48587449 C14.5795247,5.32996477 14.1539034,4.2607768 14.7016198,3.0192864 C15.3702902,1.50279675 17.0202857,2.6336028 17.250783,3.82260372 C17.3546209,4.36347362 18.1796186,4.1341174 18.0746397,3.59438857 L18.0746397,3.59438857 Z"/>
        </g>
      </g>
    </g>
    <g transform="translate(198 313.5)">
      <circle cx="5" cy="5" r="5" fill="#FFF"/>
      <path fill="#0053F5" d="M5,10 C2.23857625,10 0,7.76142375 0,5 C0,2.23857625 2.23857625,0 5,0 C7.76142375,0 10,2.23857625 10,5 C10,7.76142375 7.76142375,10 5,10 Z M5.45454545,6.59170654 C6.96077659,6.59170654 8.18181818,5.37066495 8.18181818,3.86443381 C8.18181818,2.35820268 6.96077659,1.13716108 5.45454545,1.13716108 C3.94831432,1.13716108 2.72727273,2.35820268 2.72727273,3.86443381 C2.72727273,5.37066495 3.94831432,6.59170654 5.45454545,6.59170654 Z M3.45454545,8.77352472 C4.05703791,8.77352472 4.54545455,8.28510808 4.54545455,7.68261563 C4.54545455,7.08012318 4.05703791,6.59170654 3.45454545,6.59170654 C2.852053,6.59170654 2.36363636,7.08012318 2.36363636,7.68261563 C2.36363636,8.28510808 2.852053,8.77352472 3.45454545,8.77352472 Z"/>
    </g>
    <g opacity=".7" transform="translate(25.5 75)">
      <g fill="#ACCBEA" fill-rule="nonzero" transform="translate(329.978 .488)">
        <path d="M74.3892631,63.6285629 L0.0269599876,63.6285629 L0.0269599876,0.508689377 L74.3892631,0.508689377 L74.3892631,63.6285629 Z M2.98445637,60.6710665 L71.4317667,60.6710665 L71.4317667,3.46618575 L2.98445637,3.46618575 L2.98445637,60.6710665 Z"/>
        <g opacity=".8" transform="translate(13.91 10.844)">
          <path d="M21.8785724,19.7905799 C9.94901781,19.7905799 0.604315093,15.4608052 0.604315093,9.93225867 C0.604315093,4.40371211 9.94901781,0.0739374094 21.8785724,0.0739374094 C33.8081269,0.0739374094 43.1518438,4.40371211 43.1518438,9.93225867 C43.1518438,15.4608052 33.8081269,19.7905799 21.8785724,19.7905799 Z M21.8785724,2.04658749 C10.3325065,2.04658749 2.57597935,6.12398917 2.57597935,9.9332445 C2.57597935,13.7424998 10.3325065,17.8199015 21.8785724,17.8199015 C33.4246382,17.8199015 41.1801796,13.7424998 41.1801796,9.9332445 C41.1801796,6.12398917 33.4246382,2.04658749 21.8785724,2.04658749 Z" transform="translate(0 22.674)"/>
          <path d="M8.23859908,37.4744366 C3.42478081,37.4744366 0.827113154,27.8241259 0.827113154,18.744612 C0.827113154,9.66509816 3.42478081,0.0147874819 8.23859908,0.0147874819 C13.0524173,0.0147874819 15.650085,9.66509816 15.650085,18.744612 C15.650085,27.8241259 13.0524173,37.4744366 8.23859908,37.4744366 Z M8.23859908,1.98645173 C5.67149222,1.98645173 2.79877741,9.15345129 2.79877741,18.744612 C2.79877741,28.3357728 5.67050639,35.5027724 8.23859908,35.5027724 C10.8066918,35.5027724 13.6784207,28.3357728 13.6784207,18.744612 C13.6784207,9.15345129 10.8066918,1.98645173 8.23859908,1.98645173 Z" transform="translate(29.575)"/>
          <path d="M6.16145079,10.9190766 C2.76427328,10.9190766 0,8.48702877 0,5.49699993 C0,2.50795693 2.76427328,0.0749232416 6.16145079,0.0749232416 C9.55862829,0.0749232416 12.3229016,2.5069711 12.3229016,5.49699993 C12.3229016,8.48702877 9.55862829,10.9190766 6.16145079,10.9190766 Z M6.16145079,2.04757333 C3.85066028,2.04757333 1.97166425,3.59532976 1.97166425,5.49798577 C1.97166425,7.40064177 3.85066028,8.94839821 6.16145079,8.94839821 C8.47224129,8.94839821 10.3512373,7.40064177 10.3512373,5.49798577 C10.3512373,3.59532976 8.47224129,2.04757333 6.16145079,2.04757333 Z" transform="translate(8.872 4.93)"/>
        </g>
      </g>
      <g transform="translate(0 46.136)">
        <g fill="#ACCBEA" fill-rule="nonzero">
          <path d="M40.6221986,54.7698754 L0.492916063,54.7698754 L0.492916063,0.521505195 L40.6221986,0.521505195 L40.6221986,54.7698754 Z M3.45041244,51.812379 L37.6647022,51.812379 L37.6647022,3.47900157 L3.45041244,3.47900157 L3.45041244,51.812379 Z" transform="translate(0 .794)"/>
          <path d="M7.33557685,21.6843634 C4.80198829,21.6843634 2.54048939,16.8429419 1.42255576,12.0439111 C0.245472199,6.98757811 0.202095586,1.25890762 2.88947396,0.632904225 C3.03439128,0.599385933 3.18423777,0.582626786 3.33408425,0.582626786 C5.86767281,0.582626786 8.12917171,5.42404836 9.24710534,10.2220933 C9.86226459,12.8641234 10.1215384,15.4361594 9.97662111,17.4640161 C9.75678055,20.5388265 8.66152106,21.4290329 7.78018714,21.634086 C7.63526982,21.6676043 7.48542333,21.6843634 7.33557685,21.6843634 Z M7.33557685,19.713685 L7.33557685,20.6995171 L7.33557685,19.713685 L7.33557685,19.713685 Z M3.33408425,2.55429104 C2.76723078,2.79286241 2.07714829,6.16046495 3.34295674,11.5973291 C4.65017014,17.2136148 6.75295006,19.7097417 7.33360518,19.7126992 C7.90341615,19.4682128 8.59054115,16.1006103 7.32571853,10.6696611 C6.0175193,5.04943215 3.91276771,2.55429104 3.33408425,2.55429104 Z" transform="translate(10.844 23.468)"/>
          <path d="M21.5680353,45.1524891 C21.5680353,45.1524891 21.5680353,45.1524891 21.5680353,45.1524891 C21.4172029,45.1524891 21.2673565,45.1357299 21.1224391,45.1022117 C20.242091,44.8971586 19.1458457,44.0069522 18.9260052,40.9321418 C18.7810878,38.9042851 19.0403617,36.3322491 19.6555209,33.690219 C20.7734546,28.892174 23.0349535,24.0507524 25.568542,24.0507524 C25.7183885,24.0507524 25.868235,24.0675116 26.0131523,24.1010299 C28.7005307,24.7270333 28.6571541,30.4557038 27.4800705,35.5130226 C26.3631227,40.3110675 24.1016238,45.1524891 21.5680353,45.1524891 Z M25.5636129,26.020445 C24.9898586,26.0214309 22.8860928,28.5175578 21.5778936,34.1377867 C20.3140568,39.5628209 20.9982243,42.9284518 21.5709927,43.1808248 C22.1526337,43.1758957 24.253442,40.6797687 25.5606554,35.0654548 C26.8264638,29.6285906 26.1363813,26.2609881 25.5636129,26.020445 Z"/>
          <path d="M5.08590794,10.0085103 C2.3443088,10.0085103 0.114356527,7.77855799 0.114356527,5.03695885 C0.114356527,2.29535971 2.3443088,0.0654074405 5.08590794,0.0654074405 C7.82750708,0.0654074405 10.0574593,2.29535971 10.0574593,5.03695885 C10.0574593,7.77855799 7.82750708,10.0085103 5.08590794,10.0085103 Z M5.08590794,2.03707169 C3.43168163,2.03707169 2.08602078,3.38273254 2.08602078,5.03695885 C2.08602078,6.69118516 3.43168163,8.03684601 5.08590794,8.03684601 C6.74013424,8.03684601 8.0857951,6.69118516 8.0857951,5.03695885 C8.0857951,3.38273254 6.74013424,2.03707169 5.08590794,2.03707169 Z" transform="translate(14.787 10.545)"/>
        </g>
      </g>
      <path fill="#ACCBEA" fill-rule="nonzero" d="M40.6221986,54.9926735 L0.492916063,54.9926735 L0.492916063,0.744303255 L40.6221986,0.744303255 L40.6221986,54.9926735 Z M3.45041244,52.0351771 L37.6647022,52.0351771 L37.6647022,3.70179963 L3.45041244,3.70179963 L3.45041244,52.0351771 Z" transform="translate(0 153.399)"/>
      <path fill="#ACCBEA" fill-rule="nonzero" d="M5.08689377,10.8017626 C2.34529463,10.8017626 0.115342359,8.57181033 0.115342359,5.83021119 C0.115342359,3.08861205 2.34529463,0.858659782 5.08689377,0.858659782 C7.82849291,0.858659782 10.0584452,3.08861205 10.0584452,5.83021119 C10.0584452,8.57181033 7.82750708,10.8017626 5.08689377,10.8017626 Z M5.08689377,2.83032403 C3.43266746,2.83032403 2.08700661,4.17598489 2.08700661,5.83021119 C2.08700661,7.4844375 3.43266746,8.83009835 5.08689377,8.83009835 C6.74112008,8.83009835 8.08678093,7.4844375 8.08678093,5.83021119 C8.08678093,4.17598489 6.74112008,2.83032403 5.08689377,2.83032403 Z" transform="translate(14.787 165.229)"/>
      <path fill="#ACCBEA" fill-rule="nonzero" d="M3.85164612,7.62442566 C1.86618021,7.62442566 0.251387192,6.00963264 0.251387192,4.02416674 C0.251387192,2.03870084 1.86618021,0.423907814 3.85164612,0.423907814 C5.83711202,0.423907814 7.45190504,2.03870084 7.45190504,4.02416674 C7.45190504,6.00963264 5.83711202,7.62442566 3.85164612,7.62442566 Z M3.85164612,2.39557207 C2.95355305,2.39557207 2.22305144,3.12607367 2.22305144,4.02416674 C2.22305144,4.9222598 2.95355305,5.65276141 3.85164612,5.65276141 C4.74973918,5.65276141 5.48024079,4.9222598 5.48024079,4.02416674 C5.48024079,3.12607367 4.74973918,2.39557207 3.85164612,2.39557207 Z" transform="translate(19.717 177.059)"/>
      <path fill="#ACCBEA" fill-rule="nonzero" d="M14.9185976,25.8199292 C12.3061424,25.8199292 8.05129097,19.9207098 5.2012503,14.8683201 C4.46976286,13.5719509 -1.84646357,2.15009987 1.47874819,0.273075499 C1.73407871,0.129144008 2.01898419,0.0561924312 2.32754965,0.0561924312 C4.94000478,0.0561924312 9.19485624,5.95541187 12.0448969,11.0078015 C13.8568564,14.2206284 15.2922279,17.4038804 16.0868086,19.9729589 C17.0657399,23.1394517 16.9641992,24.9277511 15.767399,25.6030461 C15.5130543,25.7469776 15.227163,25.8199292 14.9185976,25.8199292 Z M2.48626862,2.06038914 C2.23488143,3.16156363 3.40210667,7.66583061 6.91856986,13.900233 C10.4360189,20.1346353 13.6863074,23.4637904 14.7598786,23.8167183 C15.0122516,22.7155438 13.8440405,18.210291 10.3275774,11.9768745 C6.81111416,5.74345797 3.55983981,2.41528871 2.48626862,2.06038914 Z" transform="translate(6.9 172.13)"/>
      <g fill="#ACCBEA" fill-rule="nonzero" transform="translate(440.5 28)">
        <path d="M31.546628,53.3069005 L0.150832315,53.3069005 L0.150832315,0.0443624457 L31.546628,0.0443624457 L31.546628,53.3069005 Z M2.12249657,51.3352363 L29.5749638,51.3352363 L29.5749638,2.0160267 L2.12249657,2.0160267 L2.12249657,51.3352363 Z"/>
        <path d="M21.1125808,42.8945416 L0.0709799131,42.8945416 L0.0709799131,0.739374094 L21.1125808,0.739374094 L21.1125808,42.8945416 Z M1.05681204,41.9087095 L20.1267487,41.9087095 L20.1267487,1.72520622 L1.05681204,1.72520622 L1.05681204,41.9087095 Z" transform="translate(4.93 4.93)"/>
        <path d="M6.53113783,12.8158176 C2.99791549,12.8158176 0.123229016,9.94113116 0.123229016,6.40790882 C0.123229016,2.87468648 2.99791549,0 6.53113783,0 C10.0643602,0 12.9390467,2.87468648 12.9390467,6.40790882 C12.9390467,9.94113116 10.0643602,12.8158176 6.53113783,12.8158176 Z M6.53113783,0.985832126 C3.54209483,0.985832126 1.10906114,3.41787998 1.10906114,6.40790882 C1.10906114,9.39793766 3.54209483,11.8299855 6.53113783,11.8299855 C9.52018084,11.8299855 11.9532145,9.39793766 11.9532145,6.40790882 C11.9532145,3.41787998 9.52018084,0.985832126 6.53113783,0.985832126 Z" transform="translate(10.844 13.802)"/>
        <path d="M9.1997854,22.1900953 C9.07458472,22.1792512 6.09244254,21.8953315 2.94763806,19.0985258 C1.11596197,17.4699311 0.275047163,15.0447841 0.641776714,12.4471164 C1.01935042,9.77945469 2.57597935,7.42824507 4.60876519,6.45522876 C8.24352824,4.71720672 6.88998073,0.561924312 6.8308308,0.386446193 L7.76441382,0.0690082488 C7.7821588,0.120271519 9.46398841,5.22688193 5.03365884,7.34543517 C3.3173251,8.16663333 1.94406095,10.2723708 1.61676469,12.5851329 C1.42945658,13.9160063 1.43635741,16.436779 3.60124476,18.3621092 C6.50353453,20.9430177 9.254992,21.205249 9.28358113,21.2082065 L9.1997854,22.1900953 Z" transform="translate(11.83 25.632)"/>
        <path d="M0.493901895,1.782727 C4.32780303,10.3042599 8.16071834,18.8257928 11.9946195,27.3463399 C12.5811896,28.6486241 14.4917323,27.5198463 13.9100913,26.2264346 C10.0761902,17.7049017 6.24327485,9.18336877 2.40937372,0.662821709 C1.82378943,-0.63946253 -0.0877390592,0.489315255 0.493901895,1.782727 L0.493901895,1.782727 Z" transform="translate(29.575 25.524)"/>
      </g>
    </g>
  </g>
</svg>
