<?xml version="1.0" encoding="UTF-8"?>
<svg width="468px" height="302px" viewBox="0 0 468 302" version="1.1" xmlns="http://www.w3.org/2000/svg" xmlns:xlink="http://www.w3.org/1999/xlink">
    <!-- Generator: Sketch 46.2 (44496) - http://www.bohemiancoding.com/sketch -->
    <title>Page 1</title>
    <desc>Created with Sketch.</desc>
    <defs>
        <polygon id="path-1" points="0 301.155 467.432 301.155 467.432 -5.68434189e-14 0 -5.68434189e-14"></polygon>
    </defs>
    <g id="icon-asset" stroke="none" stroke-width="1" fill="none" fill-rule="evenodd">
        <g id="Page-1">
            <path d="M0.9996,184.318 L467.0516,184.877 C463.8086,201.282 454.2676,216.36 440.8296,226.315 C430.8776,233.688 419.0746,238.214 407.0736,241.272 C384.7126,246.97 361.1286,247.813 338.4186,243.723 C325.8576,241.463 313.3286,237.697 300.5996,238.612 C270.7666,240.756 249.3326,266.893 224.3446,283.332 C208.6876,293.63 190.4766,300.455 171.7476,301.106 C153.0196,301.757 133.8146,295.913 119.7556,283.523 C108.1236,273.274 100.5296,259.261 90.1536,247.742 C78.2806,234.559 62.6946,224.756 45.6706,219.764 C36.0216,216.935 25.8376,215.58 16.8486,211.076 C7.8586,206.571 0.4226,194.355 0.9996,184.318 Z" id="Fill-1" fill="#F0F8FF"></path>
            <path d="M204.398,226.2506 C204.398,227.9646 203.009,229.3536 201.295,229.3536 C199.582,229.3536 198.192,227.9646 198.192,226.2506 C198.192,224.5366 199.582,223.1466 201.295,223.1466 C203.009,223.1466 204.398,224.5366 204.398,226.2506" id="Fill-3" fill="#1B79EA"></path>
            <path d="M175.1441,242.0983 L175.1441,242.0983 C172.2121,242.0983 169.8351,239.7213 169.8351,236.7893 C169.8351,235.6753 169.0821,234.6363 167.9821,234.4523 C166.5871,234.2163 165.3671,235.2993 165.3671,236.6543 L165.3671,236.7893 C165.3671,239.7213 162.9901,242.0983 160.0581,242.0983 C158.9441,242.0983 157.9051,242.8523 157.7191,243.9513 C157.4851,245.3463 158.5681,246.5673 159.9221,246.5673 L160.0581,246.5673 C162.9901,246.5673 165.3671,248.9443 165.3671,251.8753 C165.3671,252.9903 166.1211,254.0293 167.2191,254.2133 C168.6151,254.4493 169.8351,253.3663 169.8351,252.0113 C169.8351,249.0043 172.2731,246.5673 175.2801,246.5673 C176.6341,246.5673 177.7161,245.3463 177.4821,243.9513 C177.2971,242.8523 176.2581,242.0983 175.1441,242.0983" id="Fill-5" fill="#1B79EA"></path>
            <path d="M54.9624,86.4425 C54.9084,83.3005 55.5524,80.1275 54.9824,77.0375 C54.4784,74.3095 53.0374,71.6775 53.3934,68.9265 C53.5234,67.9225 54.1924,66.7545 55.1974,66.8805 C55.5464,66.9245 55.8544,67.1255 56.1374,67.3345 C58.6634,69.1975 60.2384,72.0575 62.3974,74.3375 C64.8794,76.9605 68.1054,78.7885 70.5904,81.4095 C74.7554,85.8025 76.4244,91.9305 77.9474,97.7905 C78.7454,100.8575 79.4214,104.4995 77.3314,106.8815 C76.4844,107.8475 75.2844,108.4435 74.0514,108.7995 C68.8054,110.3125 63.3294,107.3475 60.9474,102.6515 C58.3364,97.5015 55.0664,92.4635 54.9624,86.4425" id="Fill-7" fill="#549BEF"></path>
            <path d="M54.9624,86.4425 C54.9084,83.3005 55.5524,80.1275 54.9824,77.0375 C54.4784,74.3095 53.0374,71.6775 53.3934,68.9265 C53.5234,67.9225 54.1924,66.7545 55.1974,66.8805 C55.5464,66.9245 55.8544,67.1255 56.1374,67.3345 C58.6634,69.1975 60.2384,72.0575 62.3974,74.3375 C64.8794,76.9605 68.1054,78.7885 70.5904,81.4095 C74.7554,85.8025 76.4244,91.9305 77.9474,97.7905 C78.7454,100.8575 79.4214,104.4995 77.3314,106.8815 C76.4844,107.8475 75.2844,108.4435 74.0514,108.7995 C68.8054,110.3125 63.3294,107.3475 60.9474,102.6515 C58.3364,97.5015 55.0664,92.4635 54.9624,86.4425 Z" id="Stroke-9" stroke="#1B79EA" stroke-width="2" stroke-linecap="round" stroke-linejoin="round"></path>
            <path d="M70.3511,138.2584 C62.4901,136.5574 53.8451,139.0504 48.0991,144.6774 C45.2171,147.4994 43.0701,150.9984 40.2061,153.8394 C36.9601,157.0614 32.8171,159.3694 28.3701,160.4344 C33.0521,163.7124 39.4621,163.2514 44.8331,161.2964 C50.2051,159.3414 55.0151,156.0864 60.3201,153.9604 C65.6251,151.8344 71.9131,150.9534 76.8891,153.7654 L87.2821,145.3384 L81.5761,132.2484 L70.3511,138.2584 Z" id="Fill-11" fill="#D9E9FC"></path>
            <path d="M70.3511,138.2584 C62.4901,136.5574 53.8451,139.0504 48.0991,144.6774 C45.2171,147.4994 43.0701,150.9984 40.2061,153.8394 C36.9601,157.0614 32.8171,159.3694 28.3701,160.4344 C33.0521,163.7124 39.4621,163.2514 44.8331,161.2964 C50.2051,159.3414 55.0151,156.0864 60.3201,153.9604 C65.6251,151.8344 71.9131,150.9534 76.8891,153.7654 L87.2821,145.3384 L81.5761,132.2484 L70.3511,138.2584 Z" id="Stroke-13" stroke="#1B79EA" stroke-width="2" stroke-linecap="round" stroke-linejoin="round"></path>
            <path d="M48.3111,151.6862 C55.4891,145.4712 65.0221,142.0452 74.5141,142.2712" id="Stroke-15" stroke="#1B79EA" stroke-width="2" stroke-linecap="round" stroke-linejoin="round"></path>
            <path d="M72.1353,139.7213 C65.8963,133.8463 56.1973,133.9573 48.4893,130.2093 C43.1083,127.5923 38.7223,122.9863 36.3723,117.4813 C34.1353,112.2383 33.7023,106.2923 30.9493,101.3023 C28.9343,97.6483 25.8093,94.7563 22.7383,91.9313 C26.2123,90.8443 30.0103,91.8043 33.3253,93.3073 C36.6413,94.8113 39.7113,96.8533 43.1363,98.0893 C54.6973,102.2583 68.6403,96.7533 79.3143,102.8423 C84.7913,105.9663 88.3313,111.6623 90.6653,117.5193 C93.0003,123.3763 94.3553,129.5903 96.7583,135.4193 C99.1393,141.1953 102.6173,147.2303 101.0533,153.2783 C97.6513,151.9973 93.8793,152.5723 90.2453,152.6223 C79.9623,152.7653 78.5003,145.7153 72.1353,139.7213" id="Fill-17" fill="#8DBCF5"></path>
            <path d="M72.1353,139.7213 C65.8963,133.8463 56.1973,133.9573 48.4893,130.2093 C43.1083,127.5923 38.7223,122.9863 36.3723,117.4813 C34.1353,112.2383 33.7023,106.2923 30.9493,101.3023 C28.9343,97.6483 25.8093,94.7563 22.7383,91.9313 C26.2123,90.8443 30.0103,91.8043 33.3253,93.3073 C36.6413,94.8113 39.7113,96.8533 43.1363,98.0893 C54.6973,102.2583 68.6403,96.7533 79.3143,102.8423 C84.7913,105.9663 88.3313,111.6623 90.6653,117.5193 C93.0003,123.3763 94.3553,129.5903 96.7583,135.4193 C99.1393,141.1953 102.6173,147.2303 101.0533,153.2783 C97.6513,151.9973 93.8793,152.5723 90.2453,152.6223 C79.9623,152.7653 78.5003,145.7153 72.1353,139.7213 Z" id="Stroke-19" stroke="#1B79EA" stroke-width="2" stroke-linecap="round" stroke-linejoin="round"></path>
            <path d="M108.3833,146.6041 C116.9243,143.6001 122.9343,135.9581 127.6013,128.2001 C130.4913,123.3941 133.0713,118.3741 134.8493,113.0551 C138.4483,102.2781 138.7293,90.3831 143.9953,80.3141 C146.9153,74.7301 151.4503,68.7411 149.2773,62.8261 C140.6983,65.3691 133.1373,71.1911 128.4873,78.8341 C125.4493,83.8261 123.5493,89.6271 119.4043,93.7461 C116.7783,96.3561 113.4303,98.0971 110.4693,100.3211 C105.7333,103.8811 101.9813,108.7371 99.7333,114.2181 C99.1023,115.7571 99.3183,117.9581 99.7753,119.5571 C102.2853,128.3291 104.9903,138.1341 108.3833,146.6041" id="Fill-21" fill="#8DBCF5"></path>
            <path d="M108.3833,146.6041 C116.9243,143.6001 122.9343,135.9581 127.6013,128.2001 C130.4913,123.3941 133.0713,118.3741 134.8493,113.0551 C138.4483,102.2781 138.7293,90.3831 143.9953,80.3141 C146.9153,74.7301 151.4503,68.7411 149.2773,62.8261 C140.6983,65.3691 133.1373,71.1911 128.4873,78.8341 C125.4493,83.8261 123.5493,89.6271 119.4043,93.7461 C116.7783,96.3561 113.4303,98.0971 110.4693,100.3211 C105.7333,103.8811 101.9813,108.7371 99.7333,114.2181 C99.1023,115.7571 99.3183,117.9581 99.7753,119.5571 C102.2853,128.3291 104.9903,138.1341 108.3833,146.6041 Z" id="Stroke-23" stroke="#1B79EA" stroke-width="2" stroke-linecap="round" stroke-linejoin="round"></path>
            <path d="M135.606,79.3346 C126.794,91.1506 125.415,107.8616 114.669,117.9516 C114.442,118.1646 114.192,118.4806 114.348,118.7496 C114.504,119.0186 114.976,118.5246 114.667,118.4976" id="Stroke-25" stroke="#1B79EA" stroke-width="2" stroke-linecap="round" stroke-linejoin="round"></path>
            <path d="M81.5757,132.2487 C81.5267,127.7927 83.0497,123.2127 81.6957,118.9657 C80.3717,114.8067 76.6267,111.9957 73.6007,108.8497 C67.8857,102.9077 64.3127,93.8127 67.7727,86.3287 C70.4257,80.5887 76.6027,76.9857 78.9107,71.0987 C81.3217,64.9457 78.9097,57.9277 80.1297,51.4327 C80.3067,50.4847 80.6627,49.4297 81.5487,49.0487 C82.7497,48.5327 84.0287,49.5787 84.8147,50.6227 C90.4337,58.0917 89.6687,69.6897 97.0117,75.4727 C100.4277,78.1637 105.3447,79.3187 107.2917,83.2067 C108.1197,84.8627 108.2527,86.7827 108.1487,88.6307 C107.7947,94.9547 104.9257,101.5157 107.3327,107.3727 C108.4237,110.0247 110.4747,112.1377 112.2887,114.3587 C115.7487,118.5947 118.4657,123.4357 120.2797,128.5947 C121.9637,133.3817 122.8407,138.7707 120.9077,143.4627 C118.0947,150.2927 110.4347,153.5207 103.5057,156.0767 C102.8817,156.3067 95.9767,151.8117 95.0287,151.2547 C93.0617,150.0987 91.1447,148.6077 89.3527,147.1987 C84.7517,143.5807 81.6397,138.1967 81.5757,132.2487" id="Fill-27" fill="#D9E9FC"></path>
            <path d="M81.5757,132.2487 C81.5267,127.7927 83.0497,123.2127 81.6957,118.9657 C80.3717,114.8067 76.6267,111.9957 73.6007,108.8497 C67.8857,102.9077 64.3127,93.8127 67.7727,86.3287 C70.4257,80.5887 76.6027,76.9857 78.9107,71.0987 C81.3217,64.9457 78.9097,57.9277 80.1297,51.4327 C80.3067,50.4847 80.6627,49.4297 81.5487,49.0487 C82.7497,48.5327 84.0287,49.5787 84.8147,50.6227 C90.4337,58.0917 89.6687,69.6897 97.0117,75.4727 C100.4277,78.1637 105.3447,79.3187 107.2917,83.2067 C108.1197,84.8627 108.2527,86.7827 108.1487,88.6307 C107.7947,94.9547 104.9257,101.5157 107.3327,107.3727 C108.4237,110.0247 110.4747,112.1377 112.2887,114.3587 C115.7487,118.5947 118.4657,123.4357 120.2797,128.5947 C121.9637,133.3817 122.8407,138.7707 120.9077,143.4627 C118.0947,150.2927 110.4347,153.5207 103.5057,156.0767 C102.8817,156.3067 95.9767,151.8117 95.0287,151.2547 C93.0617,150.0987 91.1447,148.6077 89.3527,147.1987 C84.7517,143.5807 81.6397,138.1967 81.5757,132.2487 Z" id="Stroke-29" stroke="#1B79EA" stroke-width="2" stroke-linecap="round" stroke-linejoin="round"></path>
            <path d="M85.9576,69.6984 C85.4396,77.9774 85.0216,86.7444 88.9106,94.0714 C91.0936,98.1824 94.5576,101.6574 95.8536,106.1284 C97.0636,110.2994 96.2176,114.7684 96.5936,119.0954 C97.0366,124.2094 99.2596,129.1534 102.7896,132.8794" id="Stroke-31" stroke="#1B79EA" stroke-width="2" stroke-linecap="round" stroke-linejoin="round"></path>
            <polygon id="Fill-33" fill="#FFFFFF" points="115.3843 183.7985 83.2963 183.7985 74.7383 148.4525 123.9413 148.4525"></polygon>
            <polygon id="Stroke-35" stroke="#1B79EA" stroke-width="2" stroke-linecap="round" stroke-linejoin="round" points="115.3843 183.7985 83.2963 183.7985 74.7383 148.4525 123.9413 148.4525"></polygon>
            <path d="M39.5718,102.3424 C43.6288,109.8854 52.3658,113.3984 60.4358,116.2674 C68.5078,119.1364 77.2648,122.4664 81.5748,129.8694" id="Stroke-37" stroke="#1B79EA" stroke-width="2" stroke-linecap="round" stroke-linejoin="round"></path>
            <path d="M59.1216,77.7448 C60.9856,82.1948 63.2866,86.4608 65.9816,90.4618" id="Stroke-39" stroke="#1B79EA" stroke-width="2" stroke-linecap="round" stroke-linejoin="round"></path>
            <path d="M294.3824,154.2721 L120.0524,154.2721 C117.0644,154.2721 114.6184,151.8271 114.6184,148.8381 L114.6184,39.2601 C114.6184,36.2711 117.0644,33.8261 120.0524,33.8261 L294.3824,33.8261 C297.3714,33.8261 299.8164,36.2711 299.8164,39.2601 L299.8164,148.8381 C299.8164,151.8271 297.3714,154.2721 294.3824,154.2721" id="Fill-41" fill="#8DBCF5"></path>
            <path d="M294.3824,154.2721 L120.0524,154.2721 C117.0644,154.2721 114.6184,151.8271 114.6184,148.8381 L114.6184,39.2601 C114.6184,36.2711 117.0644,33.8261 120.0524,33.8261 L294.3824,33.8261 C297.3714,33.8261 299.8164,36.2711 299.8164,39.2601 L299.8164,148.8381 C299.8164,151.8271 297.3714,154.2721 294.3824,154.2721 Z" id="Stroke-43" stroke="#1B79EA" stroke-width="2" stroke-linecap="round" stroke-linejoin="round"></path>
            <path d="M294.3824,150.2721 L120.0524,150.2721 C117.0644,150.2721 114.6184,147.8271 114.6184,144.8381 L114.6184,35.2601 C114.6184,32.2711 117.0644,29.8261 120.0524,29.8261 L294.3824,29.8261 C297.3714,29.8261 299.8164,32.2711 299.8164,35.2601 L299.8164,144.8381 C299.8164,147.8271 297.3714,150.2721 294.3824,150.2721" id="Fill-45" fill="#FFFFFF"></path>
            <path d="M116.0113,148.4528 L116.0113,148.4528 L118.0883,149.8968 C118.6993,150.1368 119.3603,150.2718 120.0533,150.2718 L294.3823,150.2718 C295.9853,150.2718 297.4273,149.5648 298.4233,148.4528 L281.2363,128.6278 C280.4763,127.7508 279.3733,127.2478 278.2133,127.2478 L137.3563,127.2478 C136.2403,127.2478 135.1753,127.7138 134.4183,128.5328 L116.0113,148.4528 Z" id="Fill-47" fill="#F0F8FF"></path>
            <path d="M294.3824,150.2721 L120.0524,150.2721 C117.0644,150.2721 114.6184,147.8271 114.6184,144.8381 L114.6184,35.2601 C114.6184,32.2711 117.0644,29.8261 120.0524,29.8261 L294.3824,29.8261 C297.3714,29.8261 299.8164,32.2711 299.8164,35.2601 L299.8164,144.8381 C299.8164,147.8271 297.3714,150.2721 294.3824,150.2721 Z" id="Stroke-49" stroke="#1B79EA" stroke-width="2" stroke-linecap="round" stroke-linejoin="round"></path>
            <path d="M329.0455,159.6627 L329.0455,159.6627 C327.3175,159.6627 325.9035,158.2497 325.9035,156.5217 L325.9035,105.4117 C325.9035,103.6837 327.3175,102.2697 329.0455,102.2697 C330.7735,102.2697 332.1865,103.6837 332.1865,105.4117 L332.1865,156.5217 C332.1865,158.2497 330.7735,159.6627 329.0455,159.6627" id="Fill-51" fill="#549BEF"></path>
            <path d="M329.0455,159.6627 L329.0455,159.6627 C327.3175,159.6627 325.9035,158.2497 325.9035,156.5217 L325.9035,105.4117 C325.9035,103.6837 327.3175,102.2697 329.0455,102.2697 C330.7735,102.2697 332.1865,103.6837 332.1865,105.4117 L332.1865,156.5217 C332.1865,158.2497 330.7735,159.6627 329.0455,159.6627 Z" id="Stroke-53" stroke="#1B79EA" stroke-width="2" stroke-linecap="round" stroke-linejoin="round"></path>
            <mask id="mask-2" fill="white">
                <use xlink:href="#path-1"></use>
            </mask>
            <g id="Clip-56"></g>
            <polygon id="Fill-55" fill="#FFFFFF" mask="url(#mask-2)" points="325.904 114.242 332.186 114.242 332.186 109.402 325.904 109.402"></polygon>
            <polygon id="Stroke-57" stroke="#1B79EA" stroke-width="2" stroke-linecap="round" stroke-linejoin="round" mask="url(#mask-2)" points="325.904 114.242 332.186 114.242 332.186 109.402 325.904 109.402"></polygon>
            <path d="M317.9302,154.5329 L317.9302,154.5329 C316.2022,154.5329 314.7882,153.1199 314.7882,151.3919 L314.7882,100.2819 C314.7882,98.5539 316.2022,97.1399 317.9302,97.1399 C319.6582,97.1399 321.0722,98.5539 321.0722,100.2819 L321.0722,151.3919 C321.0722,153.1199 319.6582,154.5329 317.9302,154.5329" id="Fill-58" fill="#549BEF" mask="url(#mask-2)"></path>
            <path d="M317.9302,154.5329 L317.9302,154.5329 C316.2022,154.5329 314.7882,153.1199 314.7882,151.3919 L314.7882,100.2819 C314.7882,98.5539 316.2022,97.1399 317.9302,97.1399 C319.6582,97.1399 321.0722,98.5539 321.0722,100.2819 L321.0722,151.3919 C321.0722,153.1199 319.6582,154.5329 317.9302,154.5329 Z" id="Stroke-59" stroke="#1B79EA" stroke-width="2" stroke-linecap="round" stroke-linejoin="round" mask="url(#mask-2)"></path>
            <polygon id="Fill-60" fill="#FFFFFF" mask="url(#mask-2)" points="314.789 109.112 321.072 109.112 321.072 104.272 314.789 104.272"></polygon>
            <polygon id="Stroke-61" stroke="#1B79EA" stroke-width="2" stroke-linecap="round" stroke-linejoin="round" mask="url(#mask-2)" points="314.789 109.112 321.072 109.112 321.072 104.272 314.789 104.272"></polygon>
            <path d="M309.7798,123.4108 L309.7798,109.2808 C309.7798,106.5258 312.0338,104.2718 314.7888,104.2718" id="Stroke-62" stroke="#1B79EA" stroke-width="2" stroke-linecap="round" stroke-linejoin="round" mask="url(#mask-2)"></path>
            <polygon id="Fill-63" fill="#D9E9FC" mask="url(#mask-2)" points="336.927 143.452 345.587 143.452 345.587 58.212 336.927 58.212"></polygon>
            <polygon id="Stroke-64" stroke="#1B79EA" stroke-width="2" stroke-linecap="round" stroke-linejoin="round" mask="url(#mask-2)" points="336.927 143.452 345.587 143.452 345.587 58.212 336.927 58.212"></polygon>
            <path d="M336.9273,63.9332 L341.2573,63.9332" id="Stroke-65" stroke="#1B79EA" stroke-width="2" stroke-linecap="round" stroke-linejoin="round" mask="url(#mask-2)"></path>
            <path d="M336.9273,69.8761 L341.2573,69.8761" id="Stroke-66" stroke="#1B79EA" stroke-width="2" stroke-linecap="round" stroke-linejoin="round" mask="url(#mask-2)"></path>
            <path d="M336.9273,75.819 L341.2573,75.819" id="Stroke-67" stroke="#1B79EA" stroke-width="2" stroke-linecap="round" stroke-linejoin="round" mask="url(#mask-2)"></path>
            <path d="M336.9273,81.7623 L341.2573,81.7623" id="Stroke-68" stroke="#1B79EA" stroke-width="2" stroke-linecap="round" stroke-linejoin="round" mask="url(#mask-2)"></path>
            <path d="M336.9273,87.7052 L341.2573,87.7052" id="Stroke-69" stroke="#1B79EA" stroke-width="2" stroke-linecap="round" stroke-linejoin="round" mask="url(#mask-2)"></path>
            <path d="M336.9273,93.6486 L341.2573,93.6486" id="Stroke-70" stroke="#1B79EA" stroke-width="2" stroke-linecap="round" stroke-linejoin="round" mask="url(#mask-2)"></path>
            <path d="M336.9273,98.9215 L341.2573,98.9215" id="Stroke-71" stroke="#1B79EA" stroke-width="2" stroke-linecap="round" stroke-linejoin="round" mask="url(#mask-2)"></path>
            <path d="M336.9273,104.8644 L341.2573,104.8644" id="Stroke-72" stroke="#1B79EA" stroke-width="2" stroke-linecap="round" stroke-linejoin="round" mask="url(#mask-2)"></path>
            <path d="M336.9273,110.8073 L341.2573,110.8073" id="Stroke-73" stroke="#1B79EA" stroke-width="2" stroke-linecap="round" stroke-linejoin="round" mask="url(#mask-2)"></path>
            <path d="M336.9273,117.0807 L341.2573,117.0807" id="Stroke-74" stroke="#1B79EA" stroke-width="2" stroke-linecap="round" stroke-linejoin="round" mask="url(#mask-2)"></path>
            <path d="M336.9273,123.0241 L341.2573,123.0241" id="Stroke-75" stroke="#1B79EA" stroke-width="2" stroke-linecap="round" stroke-linejoin="round" mask="url(#mask-2)"></path>
            <path d="M336.9273,128.9674 L341.2573,128.9674" id="Stroke-76" stroke="#1B79EA" stroke-width="2" stroke-linecap="round" stroke-linejoin="round" mask="url(#mask-2)"></path>
            <polygon id="Fill-77" fill="#FFFFFF" mask="url(#mask-2)" points="310.394 184.318 349.878 184.318 349.878 135.13 310.394 135.13"></polygon>
            <polygon id="Fill-78" fill="#D9E9FC" mask="url(#mask-2)" points="314.788 184.318 330.135 184.318 330.135 135.13 314.788 135.13"></polygon>
            <polygon id="Stroke-79" stroke="#1B79EA" stroke-width="2" stroke-linecap="round" stroke-linejoin="round" mask="url(#mask-2)" points="310.394 184.275 349.878 184.275 349.878 135.129 310.394 135.129"></polygon>
            <path d="M0.9996,184.318 L466.4326,184.318" id="Stroke-80" stroke="#1B79EA" stroke-width="2" stroke-linecap="round" stroke-linejoin="round" mask="url(#mask-2)"></path>
            <path d="M426.9654,134.2223 C426.9654,134.2223 452.2224,142.5983 442.9244,177.1753 C437.4894,197.3823 439.8784,157.9363 421.7034,157.9363 L426.9654,134.2223 Z" id="Fill-81" fill="#549BEF" mask="url(#mask-2)"></path>
            <path d="M426.9654,134.2223 C426.9654,134.2223 452.2224,142.5983 442.9244,177.1753 C437.4894,197.3823 439.8784,157.9363 421.7034,157.9363 L426.9654,134.2223 Z" id="Stroke-82" stroke="#1B79EA" stroke-width="2" stroke-linecap="round" stroke-linejoin="round" mask="url(#mask-2)"></path>
            <path d="M382.9058,134.2223 C382.9058,134.2223 357.6498,142.5983 366.9478,177.1753 C372.3818,197.3823 369.9938,157.9363 388.1678,157.9363 L382.9058,134.2223 Z" id="Fill-83" fill="#549BEF" mask="url(#mask-2)"></path>
            <path d="M382.9058,134.2223 C382.9058,134.2223 357.6498,142.5983 366.9478,177.1753 C372.3818,197.3823 369.9938,157.9363 388.1678,157.9363 L382.9058,134.2223 Z" id="Stroke-84" stroke="#1B79EA" stroke-width="2" stroke-linecap="round" stroke-linejoin="round" mask="url(#mask-2)"></path>
            <path d="M416.2222,170.6481 L392.4512,170.6481 C390.9502,170.6481 389.7332,169.4321 389.7332,167.9311 L389.7332,162.5461 L418.9392,162.5461 L418.9392,167.9311 C418.9392,169.4321 417.7232,170.6481 416.2222,170.6481" id="Fill-85" fill="#FFFFFF" mask="url(#mask-2)"></path>
            <path d="M416.2222,170.6481 L392.4512,170.6481 C390.9502,170.6481 389.7332,169.4321 389.7332,167.9311 L389.7332,162.5461 L418.9392,162.5461 L418.9392,167.9311 C418.9392,169.4321 417.7232,170.6481 416.2222,170.6481 Z" id="Stroke-86" stroke="#1B79EA" stroke-width="2" stroke-linecap="round" stroke-linejoin="round" mask="url(#mask-2)"></path>
            <path d="M421.7037,163.9049 C425.3947,154.0819 427.6417,141.1149 427.6417,126.8939 C427.6417,96.2309 417.2077,71.3739 404.3367,71.3739 C391.4657,71.3739 381.0307,96.2309 381.0307,126.8939 C381.0307,141.1149 383.2777,154.0819 386.9687,163.9049 L421.7037,163.9049 Z" id="Fill-87" fill="#D9E9FC" mask="url(#mask-2)"></path>
            <path d="M421.7037,163.9049 C425.3947,154.0819 427.6417,141.1149 427.6417,126.8939 C427.6417,96.2309 417.2077,71.3739 404.3367,71.3739 C391.4657,71.3739 381.0307,96.2309 381.0307,126.8939 C381.0307,141.1149 383.2777,154.0819 386.9687,163.9049 L421.7037,163.9049 Z" id="Stroke-88" stroke="#1B79EA" stroke-width="2" stroke-linecap="round" stroke-linejoin="round" mask="url(#mask-2)"></path>
            <path d="M409.8599,158.4713 C409.8599,172.4843 407.6559,183.8443 404.9359,183.8443 C402.2159,183.8443 400.0109,172.4843 400.0109,158.4713 C400.0109,144.4583 402.2159,133.0993 404.9359,133.0993 C407.6559,133.0993 409.8599,144.4583 409.8599,158.4713" id="Fill-89" fill="#549BEF" mask="url(#mask-2)"></path>
            <path d="M409.8599,158.4713 C409.8599,172.4843 407.6559,183.8443 404.9359,183.8443 C402.2159,183.8443 400.0109,172.4843 400.0109,158.4713 C400.0109,144.4583 402.2159,133.0993 404.9359,133.0993 C407.6559,133.0993 409.8599,144.4583 409.8599,158.4713 Z" id="Stroke-90" stroke="#1B79EA" stroke-width="2" stroke-linecap="round" stroke-linejoin="round" mask="url(#mask-2)"></path>
            <path d="M413.8482,113.8414 C413.8482,119.0774 409.6032,123.3224 404.3672,123.3224 C399.1302,123.3224 394.8852,119.0774 394.8852,113.8414 C394.8852,108.6044 399.1302,104.3604 404.3672,104.3604 C409.6032,104.3604 413.8482,108.6044 413.8482,113.8414" id="Fill-91" fill="#FFFFFF" mask="url(#mask-2)"></path>
            <path d="M413.8482,113.8414 C413.8482,119.0774 409.6032,123.3224 404.3672,123.3224 C399.1302,123.3224 394.8852,119.0774 394.8852,113.8414 C394.8852,108.6044 399.1302,104.3604 404.3672,104.3604 C409.6032,104.3604 413.8482,108.6044 413.8482,113.8414 Z" id="Stroke-92" stroke="#1B79EA" stroke-width="2" stroke-linecap="round" stroke-linejoin="round" mask="url(#mask-2)"></path>
            <path d="M404.3365,92.9489 C410.5245,92.9489 416.3245,91.4799 421.3315,88.9249 C417.0805,78.1279 411.0405,71.3739 404.3365,71.3739 C397.6315,71.3739 391.5925,78.1279 387.3405,88.9249 C392.3485,91.4799 398.1485,92.9489 404.3365,92.9489" id="Fill-93" fill="#549BEF" mask="url(#mask-2)"></path>
            <path d="M404.3365,92.9489 C410.5245,92.9489 416.3245,91.4799 421.3315,88.9249 C417.0805,78.1279 411.0405,71.3739 404.3365,71.3739 C397.6315,71.3739 391.5925,78.1279 387.3405,88.9249 C392.3485,91.4799 398.1485,92.9489 404.3365,92.9489 Z" id="Stroke-94" stroke="#1B79EA" stroke-width="2" stroke-linecap="round" stroke-linejoin="round" mask="url(#mask-2)"></path>
            <path d="M272.5015,184.318 C272.5015,181.329 270.0565,178.883 267.0675,178.883 L147.5275,178.883 C144.5385,178.883 142.0945,181.329 142.0945,184.318 L272.5015,184.318 Z" id="Fill-95" fill="#D9E9FC" mask="url(#mask-2)"></path>
            <path d="M272.5015,184.318 C272.5015,181.329 270.0565,178.883 267.0675,178.883 L147.5275,178.883 C144.5385,178.883 142.0945,181.329 142.0945,184.318 L272.5015,184.318 Z" id="Stroke-96" stroke="#1B79EA" stroke-width="2" stroke-linecap="round" stroke-linejoin="round" mask="url(#mask-2)"></path>
            <path d="M226.4761,184.1891 L187.9591,184.1891 C186.5991,184.1891 185.5521,182.7291 185.7421,181.0951 L192.9521,118.6951 C193.1061,117.3531 194.0521,116.3551 195.1691,116.3551 L219.2661,116.3551 C220.3831,116.3551 221.3301,117.3531 221.4841,118.6951 L228.6941,181.0951 C228.8831,182.7291 227.8361,184.1891 226.4761,184.1891" id="Fill-97" fill="#FFFFFF" mask="url(#mask-2)"></path>
            <path d="M226.4761,184.1891 L187.9591,184.1891 C186.5991,184.1891 185.5521,182.7291 185.7421,181.0951 L192.9521,118.6951 C193.1061,117.3531 194.0521,116.3551 195.1691,116.3551 L219.2661,116.3551 C220.3831,116.3551 221.3301,117.3531 221.4841,118.6951 L228.6941,181.0951 C228.8831,182.7291 227.8361,184.1891 226.4761,184.1891 Z" id="Stroke-98" stroke="#1B79EA" stroke-width="2" stroke-linecap="round" stroke-linejoin="round" mask="url(#mask-2)"></path>
            <path d="M331.2603,3.1027 C331.2603,4.8167 329.8703,6.2057 328.1563,6.2057 C326.4433,6.2057 325.0543,4.8167 325.0543,3.1027 C325.0543,1.3887 326.4433,-0.0003 328.1563,-0.0003 C329.8703,-0.0003 331.2603,1.3887 331.2603,3.1027" id="Fill-99" fill="#1B79EA" mask="url(#mask-2)"></path>
            <path d="M363.7505,17.7545 L363.7505,17.7545 C360.8185,17.7545 358.4415,15.3775 358.4415,12.4455 C358.4415,11.3315 357.6885,10.2925 356.5895,10.1075 C355.1935,9.8735 353.9735,10.9555 353.9735,12.3105 L353.9735,12.4455 C353.9735,15.3775 351.5965,17.7545 348.6645,17.7545 C347.5505,17.7545 346.5115,18.5085 346.3265,19.6075 C346.0915,21.0025 347.1745,22.2235 348.5285,22.2235 L348.6645,22.2235 C351.5965,22.2235 353.9735,24.6005 353.9735,27.5315 C353.9735,28.6465 354.7275,29.6855 355.8255,29.8705 C357.2215,30.1045 358.4415,29.0225 358.4415,27.6675 C358.4415,24.6605 360.8795,22.2235 363.8865,22.2235 C365.2405,22.2235 366.3235,21.0025 366.0885,19.6075 C365.9035,18.5085 364.8645,17.7545 363.7505,17.7545" id="Fill-100" fill="#1B79EA" mask="url(#mask-2)"></path>
            <path d="M18.5162,124.3014 L18.5162,124.3014 C16.5012,124.3014 14.8702,122.6684 14.8702,120.6554 C14.8702,119.8894 14.3512,119.1754 13.5962,119.0484 C12.6382,118.8874 11.7992,119.6314 11.7992,120.5624 L11.7992,120.6554 C11.7992,122.6684 10.1662,124.3014 8.1532,124.3014 C7.3872,124.3014 6.6732,124.8204 6.5462,125.5744 C6.3852,126.5324 7.1292,127.3714 8.0602,127.3714 L8.1532,127.3714 C10.1662,127.3714 11.7992,129.0044 11.7992,131.0184 C11.7992,131.7824 12.3182,132.4974 13.0722,132.6244 C14.0312,132.7854 14.8702,132.0414 14.8702,131.1114 C14.8702,129.0454 16.5432,127.3714 18.6092,127.3714 C19.5392,127.3714 20.2842,126.5324 20.1212,125.5744 C19.9952,124.8204 19.2812,124.3014 18.5162,124.3014" id="Fill-101" fill="#1B79EA" mask="url(#mask-2)"></path>
        </g>
    </g>
</svg>