<svg xmlns="http://www.w3.org/2000/svg" xmlns:xlink="http://www.w3.org/1999/xlink" width="247" height="259" viewBox="0 0 247 259"><defs><path id="a" d="M68.563 63.364L.195 23.974l17.165-9.889.846.49L42.426.624l67.379 38.822-41.242 23.918"/><linearGradient x1="16.72%" y1="266.277%" x2="-478.864%" y2="1332.781%" id="b"><stop stop-color="#494EDD" offset="0%"/><stop stop-color="#255E7D" offset="100%"/></linearGradient><path d="M20.723 23.576c-4.927 0-9.864-1.11-13.651-3.336-7.546-4.42-7.576-11.59-.09-16.008C10.732 2.017 15.663.909 20.596.909c4.92 0 9.842 1.101 13.603 3.305 7.568 4.437 7.59 11.618.101 16.037-3.746 2.217-8.658 3.325-13.577 3.325" id="d"/><linearGradient x1="-290.227%" y1="1031.798%" x2="-1689.642%" y2="4013.639%" id="e"><stop stop-color="#494EDD" offset="0%"/><stop stop-color="#255E7D" offset="100%"/></linearGradient><path d="M39.295.772L.796 1.387 5.428 25.56h.07c.317 1.917 1.73 3.786 4.25 5.258 5.733 3.353 14.974 3.353 20.656.006 2.497-1.471 3.896-3.34 4.19-5.264h.017L39.295.772" id="g"/><linearGradient x1="50.075%" y1="10.766%" x2="51.049%" y2="135.259%" id="h"><stop stop-color="#D6A52F" offset="0%"/><stop stop-color="#FBDD1F" offset="100%"/></linearGradient><path d="M58.319 98.307L.912 64.82l26.806-15.943 4.7 23.26 21.58-12.503.016 6.164 30.012 17.499-17.053 9.945.043.024-8.697 5.041m99.968-57.933l-.024-5.394-25.918-15.12-.017-5.617L155.66.723l35.205 20.772-32.58 18.879" id="j"/><linearGradient x1="44.415%" y1="242.46%" x2="-240.575%" y2="929.809%" id="k"><stop stop-color="#494EDD" offset="0%"/><stop stop-color="#255E7D" offset="100%"/></linearGradient><path id="m" d="M.192 11.229l-.043-.024L17.012 1.099l.096.057L.192 11.23"/><linearGradient x1="106.75%" y1="1544.987%" x2="-3049.887%" y2="8272.895%" id="n"><stop stop-color="#71759F" offset="0%"/><stop stop-color="#24536E" offset="100%"/></linearGradient><path d="M21.776 182.306L.78 79.796 138.556 1.73l20.212 101.2-136.992 79.375M126.853 15.823L18.968 78.205l21.038 93.38 107.886-62.382-21.04-93.38M45.31 158.927l-4.862-21.594 29.95-17.315 4.86 21.592-29.948 17.317M36.497 119.8l-.69-3.047 29.949-17.316.687 3.047L36.497 119.8m-1.547-6.86l-.685-3.053L64.21 92.57l.685 3.052-29.946 17.318m56.263-1.897l-4.903-21.76 42.57-24.62 4.907 21.762-42.574 24.618m-58.12-6.341l-.682-3.04L62.36 84.349l.68 3.036-29.948 17.317m-1.538-6.853l-.692-3.052 29.95-17.316.688 3.05-29.946 17.318M23.97 87.747l-1.853-8.232 100.667-58.21 1.855 8.232L23.97 87.747m54.72-38.615L24.028 80.743l.875 3.885L79.572 53.02l-.882-3.887m42.573-24.615L99.622 37.03l.873 3.887 21.647-12.519-.88-3.882M79.646 81.404l-.823-3.652.823 3.652 50.145-28.998-50.145 28.998m-3.4-15.09l-.822-3.66 50.14-29 .833 3.666-50.152 28.995m24.25-25.397l-.872-3.887 21.64-12.514.88 3.882-21.647 12.519m-8.82 93.885L80.777 86.437l50.148-28.997 10.897 48.366-50.149 28.997m37.206-70.141l-42.57 24.62 4.903 21.76 42.574-24.618-4.907-21.762m-51.09 8.51l-.822-3.654 50.145-29 .826 3.657-50.15 28.997m-34.704 92.165L26.343 91.03l38.245-22.117 16.742 74.305-38.245 22.119m27.313-45.319l-29.95 17.315 4.861 21.594 29.948-17.317-4.86-21.592m-4.641-20.581l-29.948 17.316.69 3.047 29.945-17.316-.687-3.047m-1.545-6.868l-29.946 17.318.685 3.052 29.946-17.318-.685-3.052m-1.851-8.221L32.41 101.662l.681 3.039 29.949-17.317-.681-3.036m-1.548-6.868l-29.95 17.316.692 3.052L61.5 80.53l-.688-3.05m18.833 3.924l-.823-3.652 50.147-28.997.82 3.651-50.144 28.998m-54.742 3.224l-.875-3.885 54.662-31.61.882 3.886-54.669 31.61" id="p"/><linearGradient x1="71.895%" y1="5.533%" x2="29.658%" y2="90.61%" id="q"><stop stop-color="#25619D" offset="0%"/><stop stop-color="#24427C" offset="100%"/></linearGradient><path d="M22.841 156L1.734 62.906 109.977.712l21.11 93.096L22.84 156.001M9.133 75.69l16.798 74.08 38.372-22.051-16.798-74.079-38.372 22.05m54.617-4.58l10.932 48.22 50.316-28.91-10.934-48.218L63.75 71.11m42.145-64.933L4.893 64.21l1.86 8.207 101.004-58.033-1.862-8.207M61.787 62.453l.826 3.64 50.311-28.908-.823-3.641-50.314 28.909m-1.86-8.21l.824 3.644 50.316-28.91-.828-3.644-50.312 28.91m48.757-35.753L58.377 47.401l.824 3.65 50.318-28.907-.835-3.654" id="s"/><linearGradient x1="73.996%" y1="-2.633%" x2="22.237%" y2="95.997%" id="t"><stop stop-color="#5389BB" offset="0%"/><stop stop-color="#5383B5" offset="100%"/></linearGradient><path d="M28.116 33.217c-7.14 0-14.288-1.582-19.752-4.744C-2.57 22.14-2.629 11.875 8.234 5.544 13.662 2.382 20.794.8 27.937.8c7.146 0 14.298 1.582 19.767 4.746 10.937 6.331 10.987 16.594.128 22.922-5.434 3.165-12.572 4.749-19.716 4.749" id="v"/><linearGradient x1="-99%" y1="578.741%" x2="-1074.233%" y2="2657.194%" id="w"><stop stop-color="#494EDD" offset="0%"/><stop stop-color="#255E7D" offset="100%"/></linearGradient></defs><g fill="none" fill-rule="evenodd"><g transform="translate(67.146 195.45)"><mask id="c" fill="#fff"><use xlink:href="#a"/></mask><path fill="url(#b)" opacity=".419" mask="url(#c)" d="M68.563 63.364L.195 23.974l17.165-9.889.846.49L42.426.624l67.379 38.822-41.242 23.918"/></g><g transform="translate(196.64 130.7)"><mask id="f" fill="#fff"><use xlink:href="#d"/></mask><path d="M20.723 23.576c-4.927 0-9.864-1.11-13.651-3.336-7.546-4.42-7.576-11.59-.09-16.008C10.732 2.017 15.663.909 20.596.909c4.92 0 9.842 1.101 13.603 3.305 7.568 4.437 7.59 11.618.101 16.037-3.746 2.217-8.658 3.325-13.577 3.325" fill-opacity=".5" fill="url(#e)" mask="url(#f)"/></g><g transform="translate(201.437 119.907)"><mask id="i" fill="#fff"><use xlink:href="#g"/></mask><path d="M39.295.772L.796 1.387 5.428 25.56h.07c.317 1.917 1.73 3.786 4.25 5.258 5.733 3.353 14.974 3.353 20.656.006 2.497-1.471 3.896-3.34 4.19-5.264h.017L39.295.772" fill="url(#h)" mask="url(#i)"/></g><path d="M234.13 112.438c7.539 4.463 7.562 11.684.101 16.13-7.467 4.443-19.59 4.443-27.129-.016-7.52-4.452-7.555-11.65-.092-16.097 7.463-4.445 19.613-4.454 27.12-.017" fill="#FBE762"/><path d="M231.958 116.362c5.658 3.288 5.658 8.596.057 11.882-5.584 3.276-14.684 3.276-20.336-.013-5.633-3.284-5.668-8.58-.073-11.87 5.6-3.261 14.717-3.27 20.352 0" fill="#4A9343"/><path d="M208.211 117.023s-15.072-19.535-.253-54.671c0 0 13.022 16.827 5.56 59.954 0 0-2.9-1.113-5.307-5.283" fill="#6FB744"/><path d="M207.432 64.75c.306 13.584 1.12 37.175 3.106 58.197 1.542 1.319 2.768 1.757 2.768 1.757 7.588-40.385-4.229-57.785-5.874-59.954" fill="#4A9343"/><path d="M215.991 116.29s-12.431-21.55 7.895-53.938c0 0 10.743 18.567-3.297 59.954 0 0-2.781-1.542-4.598-6.015" fill="#6FB744"/><path d="M222.597 62.352c-1.712 13.45-5.518 36.806-6.772 57.827 1.244 1.525 2.304 2.127 2.304 2.127 15.132-36.326 5.66-57.587 4.468-59.954" fill="#4A9343"/><path d="M214.815 123.404s-18.383-6.451-22.97-35.872c0 0 15.847 5.543 28.776 37.107 0 0-2.434.492-5.806-1.235" fill="#6FB744"/><path d="M191.845 87.532c5.886 8.817 16.242 23.996 26.304 37.03 1.52.263 2.472.08 2.472.08-12.14-29.492-26.83-36.32-28.776-37.11" fill="#4A9343"/><path d="M223.426 120.486s-10.333-11.315-1.874-32.954c0 0 8.917 9.741 5.472 35.973 0 0-1.917-.574-3.598-3.02" fill="#6FB744"/><path d="M223.02 87.532c.59 8.19 1.774 22.386 3.554 34.994.934.751 1.667.979 1.667.979 3.135-24.543-4.209-34.71-5.222-35.973" fill="#4A9343"/><path d="M226.85 113.843s-9.136-17.421 6.64-43.098c0 0 7.9 15.02-3.234 47.963 0 0-2.081-1.263-3.407-4.865" fill="#6FB744"/><path d="M234.557 70.745c-1.619 10.48-4.228 28.697-5.542 45.083 1.007 1.2 1.88 1.681 1.88 1.681 11.343-30.105 4.627-44.89 3.662-46.764" fill="#4A9343"/><path d="M231.5 115.627s-2.203-14.499 15.427-28.095c0 0 1.94 12.482-14.201 32.375 0 0-1.17-1.435-1.225-4.28" fill="#6FB744"/><path d="M246.951 87.532c-3.85 7.052-10.354 19.383-15.538 30.717.363 1.107.825 1.658.825 1.658 15.537-18.64 14.865-30.803 14.713-32.375" fill="#4A9343"/><g opacity=".419" transform="translate(0 127.102)"><mask id="l" fill="#fff"><use xlink:href="#j"/></mask><path d="M58.319 98.307L.912 64.82l26.806-15.943 4.7 23.26 21.58-12.503.016 6.164 30.012 17.499-17.053 9.945.043.024-8.697 5.041m99.968-57.933l-.024-5.394-25.918-15.12-.017-5.617L155.66.723l35.205 20.772-32.58 18.879" fill="url(#k)" mask="url(#l)"/></g><g transform="translate(67.146 208.639)"><mask id="o" fill="#fff"><use xlink:href="#m"/></mask><path fill="url(#n)" mask="url(#o)" d="M.192 11.229l-.043-.024L17.012 1.099l.096.057L.192 11.23"/></g><path fill="#93BDD0" d="M53.956 187.056l.018 6.262 31.157 17.719-.032-6.265-31.143-17.716"/><path fill="#A9D2DF" d="M83.932 204.618l.032 6.419 73.109-42.74-.028-6.422-73.113 42.743"/><path fill="#E0F2F7" d="M53.956 185.97l30.951 17.873 73.365-42.078-30.953-17.876-73.363 42.082"/><path d="M53.956 185.856l22.559-13.04.021 7.76-22.58 5.28m65.673-15.353l12.607-7.287-.05-16.929 26.086 15.18-38.643 9.036" fill="#E0F2F7"/><path fill="#93BDD0" d="M83.932 190.653l-5.826-3.167-.17-56.787 5.811 3.169.185 56.785"/><path fill="#BABEC4" d="M83.412 135.495l-5.475-3.234 49.676-29.14 5.48 3.238-49.68 29.136"/><path fill="#A9D2DF" d="M132.919 107.917l.173 57.458L82.91 194.25l-.176-57.452 50.186-28.881"/><path fill="#93BDD0" d="M32.374 200.245l-5.223-1.488L4.796 86.333l5.217 1.49 22.36 112.422"/><path fill="#A9D2DF" d="M10.112 87.532l-5.316-1.497L152.963 0l5.309 1.485-148.16 86.047"/><path fill="#E0F2F7" d="M156.996 1.2l22.858 112.323-148.607 85.523L8.393 86.731 156.996 1.199"/><g transform="translate(15.587 8.394)"><mask id="r" fill="#fff"><use xlink:href="#p"/></mask><path d="M21.776 182.306L.78 79.796 138.556 1.73l20.212 101.2-136.992 79.375M126.853 15.823L18.968 78.205l21.038 93.38 107.886-62.382-21.04-93.38M45.31 158.927l-4.862-21.594 29.95-17.315 4.86 21.592-29.948 17.317M36.497 119.8l-.69-3.047 29.949-17.316.687 3.047L36.497 119.8m-1.547-6.86l-.685-3.053L64.21 92.57l.685 3.052-29.946 17.318m56.263-1.897l-4.903-21.76 42.57-24.62 4.907 21.762-42.574 24.618m-58.12-6.341l-.682-3.04L62.36 84.349l.68 3.036-29.948 17.317m-1.538-6.853l-.692-3.052 29.95-17.316.688 3.05-29.946 17.318M23.97 87.747l-1.853-8.232 100.667-58.21 1.855 8.232L23.97 87.747m54.72-38.615L24.028 80.743l.875 3.885L79.572 53.02l-.882-3.887m42.573-24.615L99.622 37.03l.873 3.887 21.647-12.519-.88-3.882M79.646 81.404l-.823-3.652.823 3.652 50.145-28.998-50.145 28.998m-3.4-15.09l-.822-3.66 50.14-29 .833 3.666-50.152 28.995m24.25-25.397l-.872-3.887 21.64-12.514.88 3.882-21.647 12.519m-8.82 93.885L80.777 86.437l50.148-28.997 10.897 48.366-50.149 28.997m37.206-70.141l-42.57 24.62 4.903 21.76 42.574-24.618-4.907-21.762m-51.09 8.51l-.822-3.654 50.145-29 .826 3.657-50.15 28.997m-34.704 92.165L26.343 91.03l38.245-22.117 16.742 74.305-38.245 22.119m27.313-45.319l-29.95 17.315 4.861 21.594 29.948-17.317-4.86-21.592m-4.641-20.581l-29.948 17.316.69 3.047 29.945-17.316-.687-3.047m-1.545-6.868l-29.946 17.318.685 3.052 29.946-17.318-.685-3.052m-1.851-8.221L32.41 101.662l.681 3.039 29.949-17.317-.681-3.036m-1.548-6.868l-29.95 17.316.692 3.052L61.5 80.53l-.688-3.05m18.833 3.924l-.823-3.652 50.147-28.997.82 3.651-50.144 28.998m-54.742 3.224l-.875-3.885 54.662-31.61.882 3.886-54.669 31.61" fill="url(#q)" mask="url(#r)"/></g><path d="M147.824 95.15l-4.916-21.925-42.643 24.803 4.91 21.923 42.649-24.802m-53.1.013l50.233-29.213 10.917 48.727-50.236 29.213-10.915-48.727M144.248 49.162l.835 3.625-50.728 28.75-.83-3.623 50.723-28.752M78.443 92.329l.693 3.041-30.482 17.343-.693-3.044 30.482-17.34M76.038 86.333l.7 3.052-30.471 17.333-.704-3.053 30.475-17.332" fill="#6293C1"/><path d="M77.577 95.116l-.683-3.02-30.04 17.224.683 3.023 30.04-17.227m1.861 8.194l-.687-3.036-30.038 17.23.687 3.035 30.038-17.229m-3.407-15.013l-.69-3.034L45.3 102.49l.694 3.036 30.037-17.23m4.959 21.842l-.69-3.032-30.04 17.227.692 3.032 30.038-17.227m8.84 38.925l-4.873-21.481-30.042 17.225 4.876 21.482 30.04-17.226m-49.064-50.32l38.362-22.002 16.793 73.921-38.362 22.005-16.793-73.924" fill="#8DB9D8"/><path fill="#6293C1" d="M145.451 57.556l.83 3.62-50.725 28.755-.833-3.622 50.728-28.753M93.848 57.556l.875 3.939-54.286 32.033-.869-3.937 54.28-32.035"/><g transform="translate(32.374 22.782)"><mask id="u" fill="#fff"><use xlink:href="#s"/></mask><path d="M22.841 156L1.734 62.906 109.977.712l21.11 93.096L22.84 156.001M9.133 75.69l16.798 74.08 38.372-22.051-16.798-74.079-38.372 22.05m54.617-4.58l10.932 48.22 50.316-28.91-10.934-48.218L63.75 71.11m42.145-64.933L4.893 64.21l1.86 8.207 101.004-58.033-1.862-8.207M61.787 62.453l.826 3.64 50.311-28.908-.823-3.641-50.314 28.909m-1.86-8.21l.824 3.644 50.316-28.91-.828-3.644-50.312 28.91m48.757-35.753L58.377 47.401l.824 3.65 50.318-28.907-.835-3.654" fill="url(#t)" mask="url(#u)"/></g><path fill="#8DB9D8" d="M149.879 95.086l-4.957-21.942-43.005 24.823 4.953 21.94 43.009-24.821"/><path fill="#6293C1" d="M142.684 44.401L91.96 73.144l-.833-3.63 50.717-28.745zM86.272 129.5l4.854 21.293-29.915 17.077-4.857-21.295L86.272 129.5"/><path d="M137.774 37.019l-.884-3.854-21.766 12.42.878 3.86 21.772-12.426zM94.958 61.456l-.887-3.858-54.979 31.376.88 3.856 54.986-31.374zm43.462-32.678l1.866 8.17L39.034 94.728l-1.864-8.17 101.25-57.78z" fill="#8DB9D8"/><path fill="#6293C1" d="M80.837 100.722l.697 3.052-30.477 17.332-.698-3.053 30.478-17.33M82.033 107.917l.7 3.05-30.477 17.334-.698-3.05 30.475-17.334"/><path fill="#FF427E" d="M59.951 97.427l-16.788 9.29-7.686-2.279-5.148-1.645-3.95-18.902 27.535-15.544z"/><path fill="#D03684" d="M28.777 102.662l10.041-4.338 3.148 8.394-13.19-4.056"/><path fill="#E0F2F7" d="M48.816 75.542l.344 1.794-16.395 10.196-.391-1.995 16.442-9.995M48.814 81.537l.346 1.793-16.402 10.198-.384-1.994 16.44-9.997M51.216 86.333l.342 1.793-16.395 10.198-.391-1.992 16.444-9.999"/><g opacity=".419" transform="translate(140.286 176.264)"><mask id="x" fill="#fff"><use xlink:href="#v"/></mask><path d="M28.116 33.217c-7.14 0-14.288-1.582-19.752-4.744C-2.57 22.14-2.629 11.875 8.234 5.544 13.662 2.382 20.794.8 27.937.8c7.146 0 14.298 1.582 19.767 4.746 10.937 6.331 10.987 16.594.128 22.922-5.434 3.165-12.572 4.749-19.716 4.749" fill="url(#w)" mask="url(#x)"/></g><path d="M171.298 80.1s-.438-4.91-7.524-4.554c-7.1.358-14.162 1.64-14.162 1.64L137.899 65.95s-3.057.639-3.608 2.673c0 0 8.093 13.615 13.899 15.8 0 0 25.54 6.44 23.108-4.322" fill="#DDEFF4"/><path d="M135.49 67.264s-.59-3.787-1.584-5.132c-.988-1.335-1.986-1.965-2.396-2.125-.417-.159.471 1.607.776 2.166.297.56.157 2.142-2.714-.446-2.866-2.592-2.438-1.675-2.468-1.338-.032.337 1.926 6.798 5.553 9.157 0 0 .647-1.396 2.833-2.282" fill="#E7AC7F"/><path d="M148.206 85.615c-5.813-2.195-13.915-15.878-13.915-15.878.161-.57.511-1.021.94-1.39 1.942 2.591 7.658 10.134 11.356 14.083 4.505 4.812 24.801.945 24.874.782-1.005 8.032-23.255 2.403-23.255 2.403" fill="#BFD8DC"/><path d="M168.8 178.716s-2.819.65-1.979 2.182c.836 1.52 4.345 3.648 4.865 4.617.525.96 3.534 4.308 4.368 3.905.836-.405 3.128-.098 2.49-4.157-.628-4.053-5.955-7.042-9.744-6.547" fill="#121312"/><path d="M170.748 185.934s2.18 3.813-1.085 5.449c-3.272 1.642-2.665-.741-9.813 2.661-7.147 3.405-8.775-.333-8.772-1.24-.003-.908 4.708-3.47 6.268-4.22 1.566-.756 4.513-2.16 4.513-2.16l8.925-1.767-.036 1.277" fill="#121312"/><path d="M171.822 122.306s2.215 24.317 2.46 27.057c.24 2.737 5.25 24.052 4.239 33.641 0 0-4.89 5.782-10.103.882 0 0-3.919-26.89-5.835-32.863-1.907-5.983-3.112-24.669-3.112-24.669l12.351-4.048" fill="#C1508F"/><path d="M167.144 150.897s5.371 30.856 5.516 35.428c0 0-9.6 4.39-11.547-.073 0 0-5.16-27.072-6.546-32.668-1.388-5.6-6.315-23.03-5.858-32.558.45-9.523 14.693-1.677 14.693-1.677s1.907 15.836 3.742 31.548z" fill="#C1508F"/><path d="M173.86 186.549c-.145-4.575-5.476-35.446-5.476-35.446-1.225-10.583-2.7-22.974-3.384-28.797l-6.532 2.623s-1.308 14.289 2.83 31.518c3.191 13.341 6.047 26.524 7.175 31.808 2.769-.508 5.386-1.706 5.386-1.706" fill="#FF427E"/><path d="M178.519 181.819c1.023-9.638-4.042-31.06-4.285-33.81-.236-2.623-1.386-23.587-1.574-25.703l-5.993 3.299s-.164 17.624 2.455 27.43c2.396 8.92 2.956 26.641 4.176 31.622 3.022-.262 5.221-2.838 5.221-2.838" fill="#FF427E"/><path d="M168.297 76.74s5.436 1.986 3.506 11.017c-1.93 9.027-3.347 14.888-2.812 18.107.54 3.227 2.728 15.138 3.66 17.279 0 0 .816 3.683-12.946 7.128 0 0-12.443 2.869-11.223-6.243 1.228-9.128-1.591-18.616-2.317-21.99-.734-3.376-3.568-9.97 4.492-15.54 8.05-5.57 12.119-9.48 17.64-9.757" fill="#DDEFF4"/><path d="M162.298 73.145s-.03 4.73 1.787 7.472c1.649 2.486-8.446 6.147-8.944 3.72-.053-.258 1.507-4.516-1.502-8.983-1.566-2.34 8.659-2.21 8.659-2.21" fill="#E7AC7F"/><path d="M165.275 79.877c-1.431-2.067-1.782-5.235-1.86-6.733l-7.541 4.948.01.02c.295.038 5.84.812 7.447 4.624 1.564-.872 2.576-1.945 1.944-2.86" fill="#D08C63"/><path d="M149.417 62.146s-1.26 4.235-.486 7.691c.82 3.721.315 4.542.77 6.187.19.701.374 1.774 1.206 2.367 1.36.989 3.953 1.136 7.254-.413 3.99-1.878 7.735-7.736 5.369-12.386-2.36-4.655-8.32-8.061-14.113-3.446" fill="#E7AC7F"/><path d="M163.068 70.884c-2.09-4.235-6.626-9.09-6.622-9.372 0-.176-1.406-.85-2.99-1.558-1.38.242-2.823.901-4.248 2.113 0 0-.318 1.146-.528 2.736 1.068.953 3.126 1.941 3.514 2.806.924 2.035.9 5.284.43 6.77-.472 1.484 2.31 3.274 1.915 4.588l.004.172c.903-.172 1.905-.495 2.99-1.033 2.428-1.22 4.758-4.082 5.535-7.222" fill="#DC9D71"/><path d="M147.482 59.596s-.181 3.645 3.535 4.983c2.23.798 2.427 4.24 2.395 4.887-.03.652-.328 3.6-.024 3.942.571.656 1.976-1.753 2.774-1.688 2.055.162 1.484 2.123-.115 4.296-1.702 2.301 3.486 2.585 5.645.596 1.154-1.054 1.547-1.656 2.826-5.124 1.853-5.05 1.33-10.806-4.648-13.237-5.975-2.422-8.734 2.336-12.388 1.345" fill="#1B1510"/><path d="M161.692 76.526c1.154-1.05 1.547-1.648 2.826-5.1 1.853-5.028 1.33-10.758-4.649-13.178-5.974-2.411-8.733 2.325-12.387 1.339 0 0-.03.616.19 1.43 1.82.087 6.812.498 8.302 2.457 1.849 2.41 3.47 1.38 3.704 4.607.228 3.108 1.484 7.066-3.516 9.4 2.088 1.172 4.693-.181 5.53-.955" fill="#251B13"/><path d="M155.554 81.706l-3.277 3.142s11.621 1.79 14.303-3.58c.374-.76-.485-3.086-2.507-3.328 0 0 .126 4.129-8.519 3.766M147.693 123.677c1.253-9.2-.769-18.458-1.511-21.857-.743-3.367-3.573-9.913 4.365-15.487 3.155 1.432 7.855 4.734 6.172 11.397-2.083 8.234-1.1 25.486-.83 32.97-3.588 0-8.962-1.38-8.196-7.023" fill="#BFD8DC"/><path d="M129.426 71.044s.338-2.652-.477-3.542c-.816-.892-2.598-4.555-3.36-5.05-.762-.498-.466.967-.235 1.937.23.97.09 2.858-.241 2.622-.328-.235-1.86.882-1.579 2.245.282 1.363 2.464 3.567 2.506 3.862.042.295 3.386-2.074 3.386-2.074" fill="#E7AC7F"/><path d="M154.625 91.96s.93-4.424-5.26-5.978c-6.185-1.552-12.589-2.28-12.589-2.28l-7.073-12.944s-2.795-.24-3.805 1.401c0 0 3.332 14.087 7.738 17.53 0 0 20.222 12.368 20.99 2.27" fill="#DDEFF4"/><path d="M157.123 226.626s-4.45 3.324-3.52 6.796c0 0 1.493 1.407 2.886-1.075 1.398-2.485 2.866-5.798.634-5.72" fill="#101312"/><path d="M153.476 234.083s6.06 2.034 7.079.104c1.023-1.924 2.145-3.468 2.878-4.16.747-.701 5.742-8.895 4.103-10.205-1.653-1.304-4.042 1.02-4.76 1.587-.717.58-8.333 6.337-8.333 6.337l-.967 6.337" fill="#121312"/><path d="M104.268 197.413s21.02 11.93 25.787 15.99c3.947 3.357 25.819 13.717 25.819 13.717s-1.031 2.05-1.776 6.7c0 0-19.981-.287-32.555-11.717 0 0-42.194-8.7-38.592-30.251 0 0 13.91 2.481 21.317 5.561" fill="#12171A"/><path d="M163.643 228.884c.636-.616 4.5-7.105 4.205-9.427-.69-.1-1.789.023-2.414 1.534-.96 2.34-3.906 7.689-4.446 8.374-.458.584-3.098 3.143-2.67 4.44 1.164.07 2.195-.095 2.56-.805.983-1.904 2.06-3.431 2.765-4.116" fill="#181919"/><path d="M145.083 244.297s7.064 1.058 7.805-.71c.751-1.764 1.62-3.197 2.215-3.87.602-.666 4.363-8.217 2.785-9.233-1.573-1.015-3.51 1.209-4.101 1.763-.596.557-7.046 6.116-7.046 6.116l-1.658 5.934" fill="#141515"/><path d="M152.948 238.716c.498-.581 3.317-6.514 2.88-8.491-.609-.03-1.545.166-1.961 1.524-.649 2.097-2.76 6.965-3.175 7.603-.345.538-2.417 2.973-1.942 4.06 1.003-.036 1.882-.264 2.138-.903.699-1.73 1.507-3.134 2.06-3.793" fill="#181919"/><path d="M95.104 159.502s-4.139.486-3.973 4.963c.166 4.473 4.51 23.805 9.503 27.645 4.986 3.837 4.88-5.3 4.88-5.3s-3.064-28.291-10.41-27.308" fill="#719840"/><path d="M99.806 195.45s-3.472 10.31-5.266 12.555c0 0 20.883 12 25.617 16.082 3.922 3.375 26.125 13.593 26.125 13.593s-1.494 2.257-2.242 6.931c0 0-19.85-.285-32.344-11.777 0 0-41.916-8.747-38.339-30.415 0 0 13.87 5.526 26.449-6.97" fill="#1B2328"/><path d="M83.871 159.091s-11.259 6.386-11.506 7.163c-.247.772-1.55 1.386 2.146 10.227 0 0 3.49 7.806 1.005 17.408-1.443 5.56-1.214 7.44-1.214 7.44s4.373 9.458 16.814 4.84c2.51-.932 9.526-7.684 10.801-10.465 0 0-3.955-4.911-2.4-14.5 1.555-9.591 2.435-22.04-2.958-23.696 0 0-1.373-1.672-12.688 1.583" fill="#94B53D"/><path d="M86.33 157.079s7.683 3.688 4.257 8.976l3.618 1.815s3.539-9.25-7.875-10.791" fill="#FFFFFE"/><path d="M82.733 152.282s2.932 4.584.612 7.672c-1.3 1.73 1.76 5.828 6.976 5.5 0 0 2.337-.588 2.097-1.457-.54-1.978.232-3.09 1.064-4.605.823-1.511-10.749-7.11-10.749-7.11" fill="#E7AC7F"/><path d="M83.023 159.938c-.161.214-.258.467-.29.738 2.051-2.124 5.995-2.28 5.995-2.28l-5.208-5.854c-.201-.1-.373-.183-.523-.26l-.161.522c.753 1.501 1.998 4.749.187 7.134" fill="#D08C63"/><path d="M92.319 163.923c-.54-3.268.252-3.217 1.16-4.795.244-.43-.528-1.181-1.776-2.05-.308.226-.618.56-.929 1.026-2.202 3.338-2.187 5.946-1.928 7.335.39.022.788.062 1.185 0 .683-.1 2.453-.508 2.288-1.516" fill="#EBB289"/><path d="M80.715 150.337s1.3 6.236 5.442 9.065c3.664 2.509 7.94 4.157 8.723-.38.627-3.612 2.339-12.796-.738-14.644-3.961-2.372-5.416-5.305-9.998-3.555 0 0-5.239 2.496-3.429 9.514" fill="#E7AC7F"/><path d="M80.728 149.57s.498 5.376 5.637 9.19c1.104.813 2.519 1.466 3.61 1.916-2.006-1.475-2.21-1.934-3.766-3.746s2.314-1.113-.333-5.747c-.897-1.581 3.514.457 4.5.429 5.874-.15 5.433-3.509 5.546-4.933-.12-.627-.28-1.21-.48-1.738l-.556-1.068-.2-.288a19.702 19.702 0 0 0-1.904-2.094c-2.514.054-9.661.209-9.805.246-.098.023-1.325 1.696-2.464 3.282-.265 1.242-.265 2.747.215 4.55" fill="#DC9D71"/><path d="M83.764 157.079s-4.723-4.461-3.083-10.86c0 0 .881-5.145 6.442-5.83 2.651-.321 7.759-.155 9.788 5.354.63 1.721.203 5.49-6.367 3.733-.942-.251-3.438-.59-4.321.233-.882.822-.981 2.358-.556 3.664.374 1.143-.607 1.268-.745 1.021-.136-.242-1.398-3.508-2.586-2.231-1.072 1.154 1.316 4.696 1.428 4.916" fill="#251B13"/><path d="M83.96 155.88c-.12-.218-2.643-3.722-1.51-4.865 1.256-1.263 2.59 1.969 2.734 2.208.146.244 1.183.121.788-1.01-.45-1.292-.345-2.813.587-3.626.845-.74 3.16-.367 4.567-.23-1.149-.708-3.446-.958-4.266-2.806-1.092-2.472-2.64-3.627-4.093-4.06-1.699 1.656-2.066 3.643-2.066 3.643-1.734 6.332 3.259 10.746 3.259 10.746" fill="#1B1510"/><path d="M84.221 159.477s1.037 5.277 6.905 6.627l-1.677 4.165s-10.519-5.363-5.228-10.792" fill="#FFFFFE"/><path d="M97.082 145.639s.958 5.923-6.588 3.777c0 0-3.773-1.004-5.291-4.499-.321-.745-1.194-1.979-2.47-2.111 0 0 2.006-2.85 7.201-2.481 2.446.173 4.982 2.547 5.61 2.933.623.387-.386 2.86 1.538 2.38" fill="#251B13"/><path d="M121.102 190.337s5.44.976 9.153-.504c3.717-1.477 2.819-1.598 2.532-2.137-.622-1.172-5.523-.848-6.43-1.077-.904-.23.758-.916 1.128-1.512.365-.599 1.228-1.297.928-1.494-.29-.193-1.046-.394-2.426.656-1.381 1.055-4.86 2.483-4.86 2.483l-.025 3.585" fill="#E7AC7F"/><path d="M123.003 185.551s-.305 1.071-.297 2.5c.02 1.728.794 2.89.794 2.89s-17.992 3.684-22.562 1.316c0 0-4.419-6.949 2.342-8.799l19.723 2.093" fill="#719840"/><path fill="#AEB2B1" d="M88.805 208.639l-.077.95 13.113 9.842.076-.953-13.112-9.84"/><path fill="#767B79" d="M101.996 217.346l-.079.885 25.093-11.106.087-.884-25.101 11.105"/><path fill="#E2E4DF" d="M88.728 206.623l13.402 9.21 24.967-11.171-13.4-9.213-24.969 11.174"/><path fill="#B6B5B1" d="M106.714 201.19l-.93-.945-3.867 17.049.933.937 3.864-17.041"/><path fill="#CECBC6" d="M130.694 190.389l-.97-.935-25.408 12.248.97.942 25.408-12.255"/><path fill="#D2DCDE" d="M106.02 201.512l-4.103 16.72 25.876-12.054 4.1-16.724-25.873 12.058"/><path fill="#EAF1F1" d="M105.515 201.557l22.198 4.684 4.18-16.787-26.378 12.103"/><path d="M95.56 206.745s6.24 5.357 12.353 4.101c0 0-.01-1.65-2.721-2.265-2.72-.617-3.756-2.774-3.734-3.105.018-.333 2.15-.52 3.102-.564.96-.05 2.1-1.403-.218-1.556-2.323-.152-6.286-1.07-8.546-.56 0 0-2.247 2.5-.236 3.95" fill="#E7AC7F"/><path d="M76.4 165.518s-4.013-.728-5.237 3.62c-1.217 4.35-3.106 24.171.365 29.29 3.47 5.123 26.107 7.813 26.107 7.813-1.626-3.375.685-6.164.685-6.164l-19.546-8.015s4.777-25.385-2.375-26.544" fill="#719840"/><path d="M77.491 192.43l19.63 8.092s-.657.834-1.026 2.122c-4.463-1.4-20.934-3.815-20.55-7.316 1.973-18.027 2.155-27.458 2.155-27.458l.73 2.148c1.827 7.621-.939 22.412-.939 22.412" fill="#84AA3F"/><path fill="#6293C1" d="M136.999 33.574l.89 3.974-21.9 12.813-.882-3.978 21.892-12.809"/></g></svg>