<?xml version="1.0" encoding="UTF-8"?> <svg xmlns="http://www.w3.org/2000/svg" width="430.289" height="327.687" viewBox="0 0 430.289 327.687"><g transform="translate(-4919 6629.687)"><ellipse cx="104" cy="12.5" rx="104" ry="12.5" transform="translate(5046 -6327)" fill="#8cccb5"></ellipse><path d="M98.937,171.1a12.258,12.258,0,0,0-5.553-.726c-1.652,1.565-4.74,2.009-7.01,2.16a33.983,33.983,0,0,0-8.06-5.864c-1.941-.986-4.209-2.026-4.808-4.12-.956-3.344-6.68-4.692-10.073-3.924-4.3-1.164-9.214.335-12.669,3.152-1.526,1.244.19,4.329,1.508,5.792s2.953,3.1,2.645,5.04a11.591,11.591,0,0,1-5.539.777,9.149,9.149,0,0,0-3.135.06c-1,.311-1.878,1.4-1.491,2.377-.69,1.2-1.521,1.831-.719,2.962.624.881,1.684,1.606,1.676,2.686a2.4,2.4,0,0,1-1.5,1.935,25.693,25.693,0,0,0-2.354,1.04c-2.268,1.44-2.288,4.684-2.047,7.36,1.465,1.8,1.695,4.9.99,7.111a4.115,4.115,0,0,0-.4,2.571c.347.952,1.468,1.327,2.448,1.581,2.1.542,4.563,1.01,6.231-.37,4.4-3.639,11.222-1.754,16.79-.5,1.923.432,3.947,1.141,5.07,2.76,1.5,2.159.859,5.156-.375,7.476s-3,4.382-3.783,6.89a19.123,19.123,0,0,0-.317,7.332c.261,3.022.578,6.2,2.329,8.679a16.706,16.706,0,0,1,2.847,9.644c-.118,2.549-1.017,5.055-.783,7.6.424,4.608,4.4,8.064,8.466,10.282A19.759,19.759,0,0,1,88.7,273.747c.735,2.318.955,4.769,1.6,7.113a20.234,20.234,0,0,0,6.855,10.364c2.4,1.909,6.344,2.586,9.362,3.136,1.566.285,3.254.511,4.434,1.579.545.492.938,1.131,1.46,1.647,2.523,2.495,7.166,1.47,9.718,3.936a23.263,23.263,0,0,1,1.688,2.161,7.713,7.713,0,0,0,6.542,2.756c-.574,1.872,1.672,4.074.979,5.906-.559,1.477-2.248,2.124-3.408,3.2-2.013,1.858-2.326,5.035-1.458,7.633a20.082,20.082,0,0,0,4.535,6.78c3.4,3.776,7.5,5.608,11.192,9.1,3.421,3.237,4.2,8.478,3.449,13.128s-2.79,8.977-4.245,13.456c-2.72,8.369-3.378,17.567-.778,25.973s8.684,15.9,16.839,19.207a2.664,2.664,0,0,0,2.669-.981,2.407,2.407,0,0,0,.34-2.711c-1.473-2.708-4.091-5.02-6-7.44a3.948,3.948,0,0,1-1.156-2.589c.087-1.085,1.021-1.868,1.709-2.711A7.013,7.013,0,0,0,156.6,389.8c-.042-1.55-.945-3.067-.892-4.617a3.949,3.949,0,0,1,2.358-3.682c.669-.228,1.411-.207,2.057-.492,2.124-.937,1.786-4.177,3.322-5.917a8.136,8.136,0,0,1,2.734-1.677c4.108-1.975,7.486-5.89,7.862-10.432.3-3.634-1.023-8.045,1.739-10.426,2.535-2.186,6.438-.735,9.742-1.271,1.344-.218,2.241-1.47,2.87-2.677a6.37,6.37,0,0,0,.476-3.985c-.279-1.653-.988-3.267-.831-4.936.22-2.347,2.056-4.155,3.477-6.037a19.926,19.926,0,0,0,3.506-7.517c.714-3.1-1.27-6.764-4.052-8.311s-6.117-1.591-9.3-1.682-6.552-.331-9.151-2.169c-2.381-1.683-3.727-4.435-5.609-6.661-3.176-3.756-7.793-5.925-12.26-7.983-1.686-.777-3.578-1.569-5.342-.989a17.3,17.3,0,0,1-2.04.8c-1.972.378-3.566-1.485-5.334-2.44-3.667-1.98-8.934.888-9.261,5.043-1.9.654-5.41.089-6.486-1.6-.775-1.218-1.085-2.923-2.419-3.477-.712-.3-1.6-.185-2.182-.694-.959-.846-.213-2.375-.042-3.642.274-2.023-1.236-3.946-3.078-4.826a14.883,14.883,0,0,0-5.991-1.018,14.217,14.217,0,0,1-5.977-1.073c-3.553-1.78-5.009-6.6-3.45-10.257a10.222,10.222,0,0,1,9.61-5.8c3.893.112,8,2.957,8.047,6.852.011.987,1.593,1.1,2.451.609a3.585,3.585,0,0,0,1.516-2.442c.21-.965.24-1.968.535-2.911a5.516,5.516,0,0,1,5.178-3.76c2.385.027,4.059-2.351,5.751-4.032a6.811,6.811,0,0,0,2.037-6.5c-.361-1.233-1.184-2.48-.772-3.7a3.625,3.625,0,0,1,2.232-1.9,19.139,19.139,0,0,1,8.172-1.466c2.43.1,3.678-1.423,4.917-3.515.9-1.511,1.294-3.421,2.721-4.446,2.135-1.534,5.087-.18,7.71-.356a6.726,6.726,0,0,0,5.732-8.235,19.015,19.015,0,0,0-2.738-4.715,20.092,20.092,0,0,1-2.838-6.94c-.458-2.264-.589-4.757-2.081-6.521-2.334.11-5.162.042-7.238,1.114-.41-2.376-.864-4.855-2.331-6.769s-4.288-3.023-6.364-1.8c-2.029,1.2-2.469,3.982-2.093,6.308s1.339,4.578,1.276,6.934-1.7,4.959-4.055,4.9a4.89,4.89,0,0,1-3.19-1.656c-1.236-1.249-2.215-2.847-3.8-3.6a18.444,18.444,0,0,0-3.935-.858,8.488,8.488,0,1,1,4.568-16.325c5.27-1.933,7.417-8.58,5.314-13.784s-7.755-8.436-13.363-8.682a24.307,24.307,0,0,1-4.907-.331c-4.5-1.139-6.857-6.088-10.774-8.58C107.749,170.612,101.794,172.182,98.937,171.1Z" transform="translate(4879.289 -6741.469)" fill="rgba(95,193,157,0.65)"></path><path d="M169.887,155.019c-1.732,2.642.207,6.244,2.728,8.149s5.676,3.046,7.67,5.5c3.2,3.939,2.293,9.765.538,14.53s-4.23,9.584-3.627,14.626a16.485,16.485,0,0,0,2.518,6.667c1.225,1.969,2.9,3.864,5.151,4.408,2.865.691,5.769-1,7.942-2.988s4.06-4.4,6.707-5.7c3.813-1.869,8.717-1.173,12.037-3.818,4.111-3.276,3.5-9.523,4.633-14.656,1.9-8.618,9.355-14.984,12.272-23.313a14.473,14.473,0,0,0,.924-5.069c-.127-5.577-4.825-10.214-10.085-12.069-6.495-2.291-13.054-.854-19.719-1.157-3.623-.165-7.626-1.7-11.134-.226-5.409,2.269-3.821,7.6-7.365,10.769C178.011,153.406,172.351,151.258,169.887,155.019Z" transform="translate(4879.289 -6741.469)" fill="rgba(95,193,157,0.65)"></path><path d="M316.012,188.814c-3.1-3.016-8.16-.1-11.377,2.789l-9.6,8.612c-2.4,2.157-4.99,4.4-8.174,4.939s-7.015-1.487-7.145-4.713c2.178-2.051,6.519,1,8.508-1.239,1.765-1.982-.844-4.819-3.142-6.146-4.2-2.427-8.542-4.9-13.351-5.557s-10.258.953-12.755,5.114c-2.136,3.561-1.745,8.207-3.861,11.78-1.324,2.237-3.508,3.835-5.011,5.956s-2.148,5.322-.306,7.156c1.487,1.481,4.016,1.483,5.487,2.98,1.132,1.152,1.519,3.075,3,3.71,1.7.725,3.617-.911,4.023-2.712s-.165-3.657-.46-5.48c-.882-5.45,1.852-12.149,7.318-12.927,1.244.047,1.656,1.825,1.1,2.938s-1.644,1.885-2.232,2.982a4.08,4.08,0,0,0,2.449,5.612c2.367.619,6.322.121,6.009,2.548-.331,2.577-5.1.888-6.641,2.979-.91,1.233-.106,2.952-.127,4.484-.043,3-3.349,4.948-6.338,5.16s-5.982-.672-8.966-.4-6.233,2.386-6.1,5.379a78.468,78.468,0,0,1-12.838,4.7c.188,3.243,6.306,3.545,6.282,6.794-.015,1.95-2.429,2.965-4.373,2.821s-3.906-.916-5.791-.418c-3.256.86-4.4,5.439-2.595,8.283s5.51,3.974,8.868,3.709a5.024,5.024,0,0,0,3.628-1.519c.8-1.008.869-2.393,1.207-3.637a8.184,8.184,0,0,1,5.946-5.709c1.587-.362,3.53-.391,4.382-1.777a12.945,12.945,0,0,1,6.6,9.9c1.168,1.507,3.769-.436,3.514-2.325s-1.923-3.2-3.249-4.571-2.432-3.5-1.393-5.1a18.483,18.483,0,0,1,12.587,13.533,3.523,3.523,0,0,0,2.113-5.178c.672-1.508,3.135-.646,3.843.846s.645,3.331,1.657,4.636c2.928,3.775,10.77-.83,13.168,3.3,1.682,2.9-2.107,6.273-5.454,6.169s-6.4-2.016-9.735-2.349c-3.678-.367-7.251,1.215-10.923,1.642s-8.2-1.006-8.971-4.621a9.056,9.056,0,0,0-.639-2.9c-.733-1.211-2.382-1.491-3.789-1.332-6.106.694-12.305,7-17.35,3.485-3.223,6.279-11.11,8.639-15.51,14.157-4.788,6.006-4.386,15.281.263,21.4s12.863,9,20.482,8.037c1.745-.22,3.584-.611,5.209.06s2.64,2.223,3.983,3.332,3.572,1.661,4.685.321a10.892,10.892,0,0,0,.921,9.795c1.987,3.094,5.693,5.541,5.616,9.218-.04,1.9-1.146,3.6-1.664,5.436-2.372,8.394,7.547,15.244,9.114,23.824.422,2.309.42,5.092,2.372,6.4a6.226,6.226,0,0,0,3.1.793c5.532.363,12.5-1.283,13.647-6.706a26.364,26.364,0,0,0,.14-4.69,13.383,13.383,0,0,1,7.19-11.3,12.38,12.38,0,0,0,3.29-1.893c2-1.964,1.554-5.294.528-7.9s-2.517-5.235-2.158-8.014c.576-4.459,5.364-6.814,8.992-9.473a25.767,25.767,0,0,0,10.157-16.969c-5.035,1.581-11.2,2.931-15.038-.692a14.983,14.983,0,0,1-2.94-4.6q-3.557-7.432-7.114-14.865a2.745,2.745,0,0,1-.375-2.079c.694-1.839,3.457-.3,4.522,1.349a159.686,159.686,0,0,1,10.212,18.393,40.7,40.7,0,0,0,16.976-7.382c1.593-1.188,3.175-2.608,3.713-4.521s-.451-4.364-2.408-4.7a8.411,8.411,0,0,0-2.293.14c-4.618.483-8.63-3.035-11.65-6.562,2.069-2.319,5.83-.976,8.654.321a64.634,64.634,0,0,0,15.906,4.94,13.678,13.678,0,0,1,4,1.076,10.91,10.91,0,0,1,2.321,1.747,47.363,47.363,0,0,1,13.372,21.706c2.416.542,4.115-2.436,4.307-4.9s-.1-5.316,1.679-7.04c1.4-1.354,3.692-1.541,4.917-3.051,1.544-1.9.737-5.112,2.541-6.771,2.261-2.079,5.917.464,7.124,3.289s1.645,6.3,4.185,8.026l4.109-.592a31.56,31.56,0,0,0,6.721,19.279c2.345-1.227,1.283-4.792-.181-7s-2.9-5.5-.82-7.13c2.887.028,4.234,4.011,7.04,4.692,2.791.677,5.284-2.642,4.781-5.47s-2.935-4.907-5.446-6.3c-2.251-2.465,1-6.4,4.291-6.959s6.89.38,9.873-1.119c3.574-1.8,4.769-6.512,3.955-10.429s-3.136-7.317-5.034-10.839c-1.621-3.007-2.421-7.7.729-9.021a7.764,7.764,0,0,1,2.7-.376c11.916-.5,21.775-13.121,19.384-24.806a11.833,11.833,0,0,0-2.874-5.994c-2.833-2.891-7.64-3.571-9.756-7.021-2.588-4.222.613-9.821,4.757-12.531s9.207-3.888,13.077-6.976c1.031-.027,1.584-1.038,1.773-2.052a10.231,10.231,0,0,0-.044-1.938,4.127,4.127,0,0,1,7.613-2.242c1.173,1.853.7,4.3-.151,6.319s-2.056,3.957-2.276,6.139,1.015,4.746,3.194,4.991c2.664.3,4.386-2.862,4.56-5.537s-.347-5.6,1.091-7.859c2.185-3.44,8.223-4.247,8.379-8.32.126-3.295-4.02-5.229-4.763-8.441a12.541,12.541,0,0,1,.119-3.97,15.048,15.048,0,0,0-19.664-15.687c-1.537.5-2.99,1.252-4.554,1.663a22.078,22.078,0,0,1-7.123.286l-12.786-.874c-3.814-.26-7.855-.476-11.239,1.3-4.945,2.6-7.749,9.076-13.294,9.748-3.911.474-7.395-2.229-11.058-3.678a18.406,18.406,0,0,0-18.016,2.78c-1.857-.948-1.283-3.713-1.938-5.693-.684-2.066-2.9-3.313-5.072-3.5a16.28,16.28,0,0,0-6.379,1.146c-4.455,1.455-9.637,3.938-10.049,8.606-.116,1.315.18,2.713-.374,3.911-.789,1.7-2.921,2.272-4.248,3.6-1.582,1.586-1.832,4.034-1.9,6.274s-.086,4.644-1.382,6.471S317.617,190.377,316.012,188.814Z" transform="translate(4879.289 -6741.469)" fill="rgba(95,193,157,0.65)"></path><path d="M399.395,317.775a9.666,9.666,0,0,0,4.4,3.078c2.018.857,4.472,1.523,6.29.3,1.242-.837,5.384-6.568,5.672-7.811.556-2.4-.243-2.259-2.634-2.743C409.244,309.811,394.956,311.323,399.395,317.775Z" transform="translate(4879.289 -6741.469)" fill="#8cccb5"></path><path d="M385.311,316.968a32.629,32.629,0,0,0,28.438,16.559c.8-.816-.38-2.063-1.432-2.507-2.909-1.229-6.038-1.842-9.018-2.886s-5.926-2.624-7.693-5.24a34.583,34.583,0,0,1-1.849-3.5c-1.749-3.369-8.584-11.862-12.862-9.826C382.01,311.914,383.952,314.494,385.311,316.968Z" transform="translate(4879.289 -6741.469)" fill="#8cccb5"></path><path d="M415.431,340.49c-1.479,1.655-2.862,3.678-5.021,4.193-1.276.3-2.637.017-3.916.313-3.759.869-4.632,5.922-3.777,9.685s2.617,7.709,1.212,11.3a6.006,6.006,0,0,0-.68,2.206,3.122,3.122,0,0,0,1.4,2.306c3.432,2.574,8.3.727,12.077-1.317s8.343-4.253,12.109-2.2c4.031,2.2,4.41,7.772,6.893,11.635,2.183,3.4,7,5.429,10.4,3.263a11.753,11.753,0,0,0,2.848-2.937l5.119-6.689c2.257-2.95,4.6-6.1,5.03-9.783.84-7.124-5.473-12.845-11.169-17.205a17.375,17.375,0,0,0-1.787-6.587c-2.322-3.962-7.066-4.383-5.773,1.228-3.715.128-6.72-5.388-10.853-5.919C424.514,333.341,418.634,336.906,415.431,340.49Z" transform="translate(4879.289 -6741.469)" fill="rgba(95,193,157,0.65)"></path><g transform="translate(4879.289 -6741.469)"><path d="M158.029,317.837a23.483,23.483,0,0,1-.518,4.15,1.132,1.132,0,0,1-1.594-.2c-.3-.5.8-3.787.8-3.787Z" fill="#27234c"></path><path d="M164.64,284.332l1.177,7.426-.906,14.85-.821,11.13c-.06.483.165.769-.313.861h0a1.125,1.125,0,0,1-1.337-1.162l.345-11.75.4-10.763-2.6.2-1.19,12.754-1.5,10.068-1.122.255.271-10.957,1.177-14.669.66-4.812,2.486-.533Z" fill="#eac1ce"></path><path d="M164.08,317.747l2.657,1.419-.189.315a2.358,2.358,0,0,1-1.732-.208l-2.33-1.028-.046-.808Z" fill="#27234c"></path><path d="M160.836,284.876l-3.441,5.252-1.856,13.654s5.9,1.928,8.507.454,2.495-2.155,2.495-2.155L166,290.309l-2.9-7.969c-.057-1.02-.447-2.516-1.449-2.717l-.362-1.177-2.626.725h.272c-.772.536-.241.171-.453,1.086Z" fill="#27234c"></path><path d="M159.07,277.074l4.335-.4-1.3,4.361Z" fill="#eac1ce"></path><path d="M157.213,270.984a3.856,3.856,0,1,0,3.854-3.859A3.857,3.857,0,0,0,157.213,270.984Z" fill="#27234c"></path><path d="M156.53,268.254a2.2,2.2,0,1,0,2.194-2.2A2.2,2.2,0,0,0,156.53,268.254Z" fill="#27234c"></path><path d="M163.93,276.629s6.7,6.281,6.794,6.009,3.17-5.7,3.17-5.7l.9.543-3,7.191a1.1,1.1,0,0,1-1.475.579l-6.588-2.725Z" fill="#fdfefe"></path><path d="M161.5,267.83a3.284,3.284,0,0,1,3.278,3.273l0,2.069a3.276,3.276,0,0,1-6.552.005v-2.069A3.284,3.284,0,0,1,161.5,267.83Z" fill="#eac1ce"></path><path d="M161.5,267.83a3.284,3.284,0,0,0-3.273,3.278V272.8a2.847,2.847,0,0,0,1.634-3.429,2.874,2.874,0,0,0,3.944-.59A3.263,3.263,0,0,0,161.5,267.83Z" fill="#27234c"></path><path d="M165.274,284.513l.979-1.443a2.212,2.212,0,0,0,.132-2.263l-.568-1.093c-.854-1.143-.886-2.885-1.887-3.085l-6.58.6-.206.144c-.51.354-.838,2.576-.111,4.788a14.042,14.042,0,0,0,1.992,3.079l-1.756,4.988a2.533,2.533,0,0,0,2.028.9c1.765.076,5.664-.109,6.927-.883Z" fill="#fdfefe"></path><path d="M157.144,277.371" fill="#fdfefe"></path><path d="M157.144,277.371l-5,8.048,1.811,8.512,1.358.181-.272-8.512,4.165-5.524Z" fill="#fdfefe"></path><path d="M151.69,293.388l6.7,2.354-1.177,6.429-6.882-2.626Z" fill="#e48f9b"></path><circle cx="1.146" cy="1.146" r="1.146" transform="translate(153.352 293.6)" fill="#eac1ce"></circle><rect width="0.271" height="5.461" transform="translate(172.073 273.955) rotate(-50.326)" fill="#27234c"></rect><circle cx="1.146" cy="1.146" r="1.146" transform="translate(173.455 275.444)" fill="#eac1ce"></circle></g><g transform="translate(4879.289 -6741.469)"><path d="M415.946,183.275a22.878,22.878,0,0,0,.5,4.042,1.1,1.1,0,0,0,1.554-.194c.291-.486-.777-3.689-.777-3.689Z" fill="#27234c"></path><path d="M409.507,150.642l-1.388,5.859L408.555,172l1.487,11.183c.059.47-.16.748.306.838h0a1.1,1.1,0,0,0,1.3-1.131l0-10.6L411.7,161l1.307.1,1.017,12.492,2.062,9.786,1.093.249-.265-10.672-.13-16.406-1.659-2.569-2.422-.519Z" fill="#27234c"></path><path d="M410.052,183.187l-2.587,1.383.184.307a2.3,2.3,0,0,0,1.687-.2l2.269-1,.045-.786Z" fill="#27234c"></path><path d="M414.933,143.572l-4.222-.387,1.264,4.248Z" fill="#eac1ce"></path><path d="M416.741,137.641a3.757,3.757,0,1,1-3.754-3.759A3.756,3.756,0,0,1,416.741,137.641Z" fill="#27234c"></path><path d="M417.406,134.982a2.138,2.138,0,1,1-2.137-2.14A2.138,2.138,0,0,1,417.406,134.982Z" fill="#27234c"></path><path d="M410.2,143.139s-6.53,6.117-6.618,5.852-3.087-5.556-3.087-5.556l-.882.529,2.925,7a1.073,1.073,0,0,0,1.435.565l6.417-2.654Z" fill="#fdfefe"></path><path d="M412.564,134.568a3.2,3.2,0,0,0-3.193,3.189v2.015a3.191,3.191,0,1,0,6.381,0v-2.015A3.2,3.2,0,0,0,412.564,134.568Z" fill="#eac1ce"></path><path d="M412.564,134.568a3.2,3.2,0,0,1,3.188,3.193v1.65a2.826,2.826,0,0,1-1.7-2.6,2.771,2.771,0,0,1,.112-.744,2.8,2.8,0,0,1-3.841-.575A3.179,3.179,0,0,1,412.564,134.568Z" fill="#27234c"></path><path d="M408.89,150.818l-.954-1.406a2.154,2.154,0,0,1-.129-2.2l.554-1.064c.832-1.114.862-2.81,1.838-3l6.408.582.2.14c.5.346.816,2.509.108,4.664a13.68,13.68,0,0,1-1.94,3l1.71,4.858a2.467,2.467,0,0,1-1.975.875c-1.719.074-5.517-.107-6.747-.86Z" fill="#fdfefe"></path><path d="M416.808,143.861" fill="#fdfefe"></path><path d="M416.808,143.861l4.87,7.839-1.764,8.291-1.323.176.265-8.291L414.8,146.5Z" fill="#fdfefe"></path><path d="M422.12,159.462l-6.527,2.293,1.147,6.262,6.7-2.558Z" fill="#e48f9b"></path><circle cx="1.116" cy="1.116" r="1.116" transform="translate(418.269 159.668)" fill="#eac1ce"></circle><rect width="5.319" height="0.264" transform="matrix(0.77, -0.638, 0.638, 0.77, 398.005, 143.727)" fill="#27234c"></rect><circle cx="1.116" cy="1.116" r="1.116" transform="translate(398.689 141.984)" fill="#eac1ce"></circle></g><g transform="translate(4879.289 -6741.469)"><path d="M332.65,190.216l-1.494,12.6,3.337-.139a19.4,19.4,0,0,0,2.086-3.059c0-.418,2.108-1.65.915-3.12S332.65,190.216,332.65,190.216Z" fill="#27234c"></path><path d="M335.847,187.543l-2.907.65a2,2,0,0,0-1.092,1.591l-2.361,16.647,1.669.139,2.4-13.4Z" fill="#27234c"></path><path d="M333.557,193.167l-.738,6.649.568,12.419,1.273,10.192a.96.96,0,0,0,.77.823h0a.959.959,0,0,0,1.14-.991l-.294-10.02-.34-9.178,2.222.169,1.008,9.944,1.29,13.689A1.382,1.382,0,0,0,341.693,228h0a1.384,1.384,0,0,0,1.5-1.542l-1.137-13.709-.7-12.207-1.737-3.589-2.12-.455Z" fill="#27234c"></path><path d="M333.658,189.372a1.956,1.956,0,0,1,2.508-1.539c.477.148,4.036.289,4.036.289l1.138,2.023-.5,1.692.522,9.073s-4.239,1.171-5.56.606a11.594,11.594,0,0,1-2.863-2.134l.628-9.464Z" fill="#fdfefe"></path><path d="M335.171,222.523l-2.889,1.445.39.073a3.182,3.182,0,0,0,1.872-.217l1.987-.876.039-.689Z" fill="#27234c"></path><path d="M341.035,227.035a14.837,14.837,0,0,0,.51,2.889.966.966,0,0,0,1.36-.17c.255-.425-.68-3.229-.68-3.229Z" fill="#27234c"></path><path d="M335.244,187.279c.008-.1.16-1.04.16-1.04a13.5,13.5,0,0,1,2.666.048c.059.176.383,3.094.383,3.094s-2.15-.079-2.245-.111-.9-.441-.9-.441Z" fill="#fdfefe"></path><path d="M335.439,187.321l1.25.1-.663,1.092Z" fill="#e48f9b"></path><path d="M334.561,196.361l.534,1.163,1.133-1.026-.04-8.086-.352.055Z" fill="#e48f9b"></path><path d="M337.05,180.324a2.676,2.676,0,0,0-2.878,2.44l-.138,1.679a2.668,2.668,0,1,0,5.317.438l.139-1.68A2.676,2.676,0,0,0,337.05,180.324Z" fill="#eac1ce"></path><path d="M339.488,183.1a2.671,2.671,0,0,0-2.438-2.775,2.64,2.64,0,0,0-1.786.518,6.375,6.375,0,0,0,1.476,1.024,12.744,12.744,0,0,0,1.2.629C338.447,182.724,338.966,182.916,339.488,183.1Z" fill="#27234c"></path><path d="M339.49,183.2a2.634,2.634,0,0,0-.3-1.434,1.84,1.84,0,0,0-.2.55,2.369,2.369,0,0,0,.064,1.058,1.137,1.137,0,0,0,.264.519.6.6,0,0,0,.11.065Z" fill="#27234c"></path><path d="M340.2,188.122l-16.131,11.712.417,1.391,16.35-9.388.5-1.692Z" fill="#27234c"></path><path d="M338.109,187.8l.695,17.243,4.589-1.252-2.053-13.644-.261-1.234a2,2,0,0,0-1.437-1Z" fill="#27234c"></path><path d="M331.3,207.683a1.252,1.252,0,1,1-1.251-1.252A1.251,1.251,0,0,1,331.3,207.683Z" fill="#eac1ce"></path><path d="M325.185,200.565a1.316,1.316,0,1,1-1.316-1.316A1.316,1.316,0,0,1,325.185,200.565Z" fill="#eac1ce"></path><path d="M310.632,193.318l13.273,8.2.417-1.391S311.97,190.113,311.268,189.6l-1.042-.635-2.254.042-.543,2.046a12.519,12.519,0,0,0,.668,2A20.107,20.107,0,0,0,310.632,193.318Z" fill="#fdfefe"></path><path d="M307.816,188.877l-2.892.234a4.856,4.856,0,0,0-1.8,1.569l-5.428,7.306,6.3,6.68.627-2.922-4.175-3.758,4.8-5.177Z" fill="#fdfefe"></path><path d="M311.2,200.675l1.176,1.016-.047,11.954-1.273,10.192a.96.96,0,0,1-.77.823h0a.959.959,0,0,1-1.14-.991l.294-10.02.34-9.178-2.222.169-1.008,9.944-1.29,13.689a1.383,1.383,0,0,1-1.237,1.137h0a1.384,1.384,0,0,1-1.5-1.542l1.137-13.709.7-12.207,1.737-3.59,2.12-.454Z" fill="#27234c"></path><path d="M311.6,191.39c-.2-1.166-.926-2.5-2.056-2.147-.477.148-4.036.289-4.036.289l-1.138,2.023.5,1.692-.522,9.073s4.239,1.171,5.56.606a19.3,19.3,0,0,0,2.483-1.307l-.417-7.85Z" fill="#fdfefe"></path><path d="M310.543,223.933l2.889,1.444-.39.074a3.182,3.182,0,0,1-1.872-.217l-1.987-.876-.039-.689Z" fill="#27234c"></path><path d="M304.678,228.445a14.825,14.825,0,0,1-.509,2.889.966.966,0,0,1-1.36-.17c-.255-.425.68-3.229.68-3.229Z" fill="#27234c"></path><path d="M310.469,188.689c-.008-.1-.159-1.04-.159-1.04a13.5,13.5,0,0,0-2.666.048c-.059.176-.383,3.094-.383,3.094s2.15-.079,2.245-.111.895-.441.895-.441Z" fill="#fdfefe"></path><path d="M310.9,188.523l-1.25.1.663,1.092Z" fill="#e48f9b"></path><path d="M311.779,197.562l-.534,1.163-1.133-1.026.04-8.086.352.055Z" fill="#e48f9b"></path><path d="M308.664,181.734a2.676,2.676,0,0,1,2.878,2.44l.138,1.679a2.667,2.667,0,0,1-5.317.438l-.139-1.68A2.676,2.676,0,0,1,308.664,181.734Z" fill="#eac1ce"></path><path d="M306.226,184.509a2.671,2.671,0,0,1,2.438-2.775,2.64,2.64,0,0,1,1.786.518,6.4,6.4,0,0,1-1.476,1.024,12.74,12.74,0,0,1-1.2.629C307.267,184.134,306.748,184.326,306.226,184.509Z" fill="#27234c"></path><path d="M306.224,184.611a2.634,2.634,0,0,1,.3-1.434,1.831,1.831,0,0,1,.205.55,2.384,2.384,0,0,1-.064,1.058,1.137,1.137,0,0,1-.264.519.6.6,0,0,1-.11.065Z" fill="#27234c"></path><circle cx="1.252" cy="1.252" r="1.252" transform="translate(303.225 202.338)" fill="#eac1ce"></circle><circle cx="1.316" cy="1.316" r="1.316" transform="translate(322.519 198.872)" fill="#eac1ce"></circle></g><g transform="translate(4879.289 -6741.469)"><path d="M99.65,145.216l-1.494,12.6,3.337-.139a19.4,19.4,0,0,0,2.086-3.059c0-.418,2.108-1.65.915-3.12S99.65,145.216,99.65,145.216Z" fill="#27234c"></path><path d="M102.847,142.543l-2.907.65a1.994,1.994,0,0,0-1.092,1.591l-2.361,16.647,1.669.139,2.4-13.4Z" fill="#27234c"></path><path d="M100.557,148.167l-.738,6.649.568,12.419,1.273,10.192a.96.96,0,0,0,.77.823h0a.959.959,0,0,0,1.14-.991l-.294-10.02-.34-9.178,2.222.169,1.008,9.944,1.29,13.689A1.382,1.382,0,0,0,108.693,183h0a1.384,1.384,0,0,0,1.5-1.542l-1.137-13.709-.7-12.207-1.737-3.589-2.12-.455Z" fill="#27234c"></path><path d="M100.658,144.372a1.956,1.956,0,0,1,2.508-1.539c.477.148,4.036.289,4.036.289l1.138,2.023-.5,1.692.522,9.073s-4.239,1.171-5.56.606a11.594,11.594,0,0,1-2.863-2.134l.628-9.464Z" fill="#fdfefe"></path><path d="M102.171,177.523l-2.889,1.445.39.073a3.182,3.182,0,0,0,1.872-.217l1.987-.876.039-.689Z" fill="#27234c"></path><path d="M108.035,182.035a14.837,14.837,0,0,0,.51,2.889.966.966,0,0,0,1.36-.17c.255-.425-.68-3.229-.68-3.229Z" fill="#27234c"></path><path d="M102.244,142.279c.008-.1.16-1.04.16-1.04a13.5,13.5,0,0,1,2.666.048c.059.176.383,3.094.383,3.094s-2.15-.079-2.245-.111-.895-.441-.895-.441Z" fill="#fdfefe"></path><path d="M102.439,142.321l1.25.1-.663,1.092Z" fill="#e48f9b"></path><path d="M101.561,151.361l.534,1.163,1.133-1.026-.04-8.086-.352.055Z" fill="#e48f9b"></path><path d="M104.05,135.324a2.676,2.676,0,0,0-2.878,2.44l-.138,1.679a2.668,2.668,0,1,0,5.317.438l.139-1.68A2.676,2.676,0,0,0,104.05,135.324Z" fill="#eac1ce"></path><path d="M106.488,138.1a2.671,2.671,0,0,0-2.438-2.775,2.64,2.64,0,0,0-1.786.518,6.375,6.375,0,0,0,1.476,1.024,12.74,12.74,0,0,0,1.2.629C105.447,137.724,105.966,137.916,106.488,138.1Z" fill="#27234c"></path><path d="M106.49,138.2a2.634,2.634,0,0,0-.3-1.434,1.841,1.841,0,0,0-.205.55,2.37,2.37,0,0,0,.064,1.058,1.137,1.137,0,0,0,.264.519.6.6,0,0,0,.11.065Z" fill="#27234c"></path><path d="M107.2,143.122,91.071,154.834l.417,1.391,16.35-9.388.5-1.692Z" fill="#27234c"></path><path d="M105.109,142.8l.695,17.243,4.589-1.252-2.053-13.644-.261-1.234a2,2,0,0,0-1.437-1Z" fill="#27234c"></path><path d="M98.295,162.683a1.251,1.251,0,1,1-1.251-1.252A1.251,1.251,0,0,1,98.295,162.683Z" fill="#eac1ce"></path><path d="M92.185,155.565a1.316,1.316,0,1,1-1.316-1.316A1.316,1.316,0,0,1,92.185,155.565Z" fill="#eac1ce"></path><path d="M77.632,148.318l13.273,8.2.417-1.391S78.97,145.113,78.268,144.6l-1.042-.635-2.254.042-.543,2.046a12.518,12.518,0,0,0,.668,2A20.107,20.107,0,0,0,77.632,148.318Z" fill="#27234c"></path><path d="M74.816,143.877l-2.892.234a4.856,4.856,0,0,0-1.8,1.569L64.7,152.986l6.3,6.68.627-2.922-4.175-3.758,4.8-5.177Z" fill="#27234c"></path><path d="M78.2,155.675l1.176,1.016-.047,11.954-1.273,10.192a.96.96,0,0,1-.77.823h0a.959.959,0,0,1-1.14-.991l.294-10.02.34-9.178-2.222.169-1.008,9.944-1.29,13.689a1.383,1.383,0,0,1-1.237,1.137h0a1.384,1.384,0,0,1-1.5-1.542l1.137-13.709.7-12.207,1.737-3.59,2.12-.454Z" fill="#27234c"></path><path d="M78.6,146.39c-.2-1.166-.926-2.5-2.056-2.147-.477.148-4.036.289-4.036.289l-1.138,2.023.5,1.692-.522,9.073s4.239,1.171,5.56.606a19.3,19.3,0,0,0,2.483-1.307l-.417-7.85Z" fill="#27234c"></path><path d="M77.543,178.933l2.889,1.444-.39.074a3.182,3.182,0,0,1-1.872-.217l-1.987-.876-.039-.689Z" fill="#27234c"></path><path d="M71.678,183.445a14.825,14.825,0,0,1-.509,2.889.966.966,0,0,1-1.36-.17c-.255-.425.68-3.229.68-3.229Z" fill="#27234c"></path><path d="M77.469,143.689c-.008-.1-.159-1.04-.159-1.04a13.5,13.5,0,0,0-2.666.048c-.059.176-.439,2.108-.439,2.108s2.206.907,2.3.875.9-.441.9-.441Z" fill="#fdfefe"></path><path d="M77.9,143.523l-1.25.1.663,1.092Z" fill="#e48f9b"></path><path d="M75.664,136.734a2.676,2.676,0,0,1,2.878,2.44l.138,1.679a2.668,2.668,0,0,1-5.317.438l-.139-1.68A2.676,2.676,0,0,1,75.664,136.734Z" fill="#eac1ce"></path><path d="M73.226,139.509a2.671,2.671,0,0,1,2.438-2.775,2.64,2.64,0,0,1,1.786.518,6.4,6.4,0,0,1-1.476,1.024,12.744,12.744,0,0,1-1.2.629C74.267,139.134,73.748,139.326,73.226,139.509Z" fill="#27234c"></path><path d="M73.224,139.611a2.634,2.634,0,0,1,.3-1.434,1.831,1.831,0,0,1,.205.55,2.384,2.384,0,0,1-.064,1.058,1.137,1.137,0,0,1-.264.519.6.6,0,0,1-.11.065Z" fill="#27234c"></path><circle cx="1.252" cy="1.252" r="1.252" transform="translate(70.225 157.338)" fill="#eac1ce"></circle><circle cx="1.316" cy="1.316" r="1.316" transform="translate(89.519 153.872)" fill="#eac1ce"></circle><path d="M74.2,144.805l3.172,7.265.255-3.752-.323-3.819Z" fill="#fdfefe"></path><path d="M78.779,152.562l-.534,1.163L77.112,152.7l.04-8.086.352.055Z" fill="#e48f9b"></path></g><g transform="translate(4879.289 -6741.469)"><path d="M97.958,251.592a23.462,23.462,0,0,1-.518,4.149,1.133,1.133,0,0,1-1.6-.2c-.3-.5.8-3.787.8-3.787Z" fill="#27234c"></path><path d="M104.568,218.087l1.178,7.425-.906,14.851-.821,11.13c-.06.483.165.768-.313.861h0a1.125,1.125,0,0,1-1.337-1.162l.344-11.75.4-10.764-2.6.2-1.191,12.755-1.5,10.067-1.122.256L96.962,241l1.177-14.67.66-4.812,2.486-.532Z" fill="#27234c"></path><path d="M104.009,251.5l2.656,1.42-.189.315a2.358,2.358,0,0,1-1.732-.208L102.414,252l-.045-.807Z" fill="#27234c"></path><path d="M96.462,204.051a2.194,2.194,0,1,0,2.194-2.193A2.193,2.193,0,0,0,96.462,204.051Z" fill="#27234c"></path><path d="M102.391,210.12s.492,3.451.214,3.8-1.624-.6-1.655-.818c-.137-.935-.351-4.012-.351-4.012Z" fill="#eac1ce"></path><path d="M98.591,207.766a3.113,3.113,0,1,0,2.16-4.223A3.376,3.376,0,0,0,98.591,207.766Z" fill="#eac1ce"></path><path d="M102.549,211.131s-.069,2.5-.347,2.293a19.925,19.925,0,0,1-1.459-2.015l-2.506,3.245L99.3,220.43l-2.127,3.5c4.458,3.693,8.986.241,8.986.241l-.979-4.766a2.25,2.25,0,0,1,.172-1.418l.4-.834a2.206,2.206,0,0,0,.178-1.353l-.384-2.074.1-3.294Z" fill="#fdfefe"></path><path d="M100.009,205l2.521-.312c.358-.058.758-.115,1.116-.173a3.141,3.141,0,0,0-2.086-1.2,3.609,3.609,0,0,0-2.279,1.012,1.958,1.958,0,0,0-.592.651,3.461,3.461,0,0,0-.416.941,4.325,4.325,0,0,0,.992,3.347c.062-.334.36-.9.254-1.227-.092-.284-.643-.545-.689-.841a.68.68,0,0,1,.343-.754c.269-.1.629.582.847.771A17.726,17.726,0,0,0,100.009,205Z" fill="#27234c"></path><path d="M103.765,206.252c.1.6.523,1.03.952.961s.7-.612.6-1.211-.523-1.031-.951-.961S103.669,205.652,103.765,206.252Z" fill="none" stroke="#0f1e51" stroke-miterlimit="10" stroke-width="0.25"></path><path d="M101.8,206.926c.1.6.523,1.03.951.961s.7-.612.6-1.211-.523-1.031-.951-.961S101.705,206.326,101.8,206.926Z" fill="none" stroke="#0f1e51" stroke-miterlimit="10" stroke-width="0.25"></path><path d="M112.649,197.565l-2.574,7.515-4.426,5.353-.235,3.547,6.617-7.459s2.162-7.411,1.956-7.72A12.422,12.422,0,0,0,112.649,197.565Z" fill="#fdfefe"></path><path d="M99.987,214.139l-.514-.927-1.236,1.442-3.809,7-1.338,6.279s1.441.927,1.544.515a41.126,41.126,0,0,1,2.162-6.074c.927-1.75,3.327-5.118,3.327-5.118Z" fill="#fdfefe"></path><circle cx="1.133" cy="1.133" r="1.133" transform="translate(112.358 196.314)" fill="#eac1ce"></circle><circle cx="1.133" cy="1.133" r="1.133" transform="translate(92.481 228.015)" fill="#eac1ce"></circle></g><path d="M348.464,247.93a5.8,5.8,0,1,1-5.795-5.8A5.8,5.8,0,0,1,348.464,247.93Z" transform="translate(4879.289 -6741.469)" fill="#3d9f7b"></path><path d="M436.12,352.248a5.8,5.8,0,1,1-5.795-5.8A5.795,5.795,0,0,1,436.12,352.248Z" transform="translate(4879.289 -6741.469)" fill="#3d9f7b"></path><path d="M405.694,225.472a5.8,5.8,0,1,1-5.8-5.795A5.8,5.8,0,0,1,405.694,225.472Z" transform="translate(4879.289 -6741.469)" fill="#3d9f7b"></path><path d="M213.72,170.415a5.8,5.8,0,1,1-5.8-5.795A5.8,5.8,0,0,1,213.72,170.415Z" transform="translate(4879.289 -6741.469)" fill="#3d9f7b"></path><path d="M89.842,184.9a5.8,5.8,0,1,1-5.8-5.8A5.795,5.795,0,0,1,89.842,184.9Z" transform="translate(4879.289 -6741.469)" fill="#3d9f7b"></path><path d="M172.427,336.31a5.8,5.8,0,1,1-5.795-5.795A5.8,5.8,0,0,1,172.427,336.31Z" transform="translate(4879.289 -6741.469)" fill="#3d9f7b"></path><path d="M126.788,245.756a5.8,5.8,0,1,1-5.8-5.795A5.8,5.8,0,0,1,126.788,245.756Z" transform="translate(4879.289 -6741.469)" fill="#3d9f7b"></path><path d="M258.635,289.947a5.8,5.8,0,1,1-5.8-5.8A5.8,5.8,0,0,1,258.635,289.947Z" transform="translate(4879.289 -6741.469)" fill="#3d9f7b"></path><path d="M83.139,183.953a90.973,90.973,0,0,1,128.074-12.965S257,113,252.839,284.151" transform="translate(4879.289 -6741.469)" fill="none" stroke="#fff" stroke-miterlimit="10" stroke-width="1" stroke-dasharray="3"></path><path d="M342.562,247.9a69.441,69.441,0,0,0-89.907,39.646" transform="translate(4879.289 -6741.469)" fill="none" stroke="#fff" stroke-miterlimit="10" stroke-width="1" stroke-dasharray="3"></path><path d="M395.775,225.246a40.6,40.6,0,0,0-52.566,23.18" transform="translate(4879.289 -6741.469)" fill="none" stroke="#fff" stroke-miterlimit="10" stroke-width="1" stroke-dasharray="3"></path><path d="M252.069,287.474a97.716,97.716,0,0,0-131.984-41.22" transform="translate(4879.289 -6741.469)" fill="none" stroke="#fff" stroke-miterlimit="10" stroke-width="1" stroke-dasharray="3"></path><g transform="translate(4841.289 -6843.469)"><path d="M231.407,291.682a17.405,17.405,0,0,0,.6,3.388,1.131,1.131,0,0,0,1.594-.2c.3-.5-.8-3.787-.8-3.787Z" fill="#27234c"></path><path d="M222.637,256.858l-.865,7.8.665,14.564,1.493,11.951a1.125,1.125,0,0,0,.9.965h0a1.125,1.125,0,0,0,1.337-1.161l-.344-11.75-.4-10.764,2.6.2,1.182,11.662,1.513,11.16a1.623,1.623,0,0,0,1.451,1.334h0a1.623,1.623,0,0,0,1.758-1.808L232.6,279.822l.213-18.409-3.076-.116-2.486-.533Z" fill="#27234c"></path><path d="M224.53,291.283l-3.389,1.694.458.086a3.736,3.736,0,0,0,2.2-.254l2.33-1.028.045-.807Z" fill="#27234c"></path><path d="M223.8,250.146l-1.205.657a4.645,4.645,0,0,0-2.325,3.146l-.836,4.083,4.789,1.69,1.549-4.225Z" fill="#27234c"></path><path d="M239.294,271.13l-5.933-17.988a4.211,4.211,0,0,0-3.416-2.85l-2.059-.287-4.084.141-1.633,2.08L221.7,263.7a4.636,4.636,0,0,0,4.872,2.986c3.928-.157,6.285-4.4,6.285-4.4l-.027-1.011c2,4.259,5.059,10.562,5.059,10.562Z" fill="#27234c"></path><path d="M226.88,250.557l-1.572,7.094-1.227-7.324.5-.728,1.342-.153Z" fill="#fdfefe"></path><path d="M240.261,272.257a1.531,1.531,0,1,1-1.53-1.531A1.53,1.53,0,0,1,240.261,272.257Z" fill="#eac1ce"></path><path d="M223.8,250.146l-.066-1.237,1.435-.255,2.265.063.45,1.288L226,251.747s-.447-.829-.543-.829a13.425,13.425,0,0,0-1.212.8Z" fill="#fdfefe"></path><path d="M224.406,250.918l.829-.7.638.606-.51,1.34,1.371,8.261-1.34,1.116-1.052-.957.606-8.548Z" fill="#27234c"></path><path d="M218.732,254.934l7.042.563.986,8.732-6.619-.7Z" fill="#e48f9b"></path><path d="M220.049,260a1.188,1.188,0,1,1-1.176-1.358A1.278,1.278,0,0,1,220.049,260Z" fill="#eac1ce"></path><path d="M228.583,245.58a3.573,3.573,0,1,1-3.723-3.917A3.841,3.841,0,0,1,228.583,245.58Z" fill="#eac1ce"></path><path d="M222.1,243.476a4.11,4.11,0,0,0,4.4.255,4.58,4.58,0,0,0,1.081-.787,3.342,3.342,0,0,0-2.713-1.281A3.4,3.4,0,0,0,222.1,243.476Z" fill="#27234c"></path><path d="M227.135,242.5a4.146,4.146,0,0,0,.6,4.167,4.291,4.291,0,0,0,.6.622,4.58,4.58,0,0,0,.249-1.71A4.323,4.323,0,0,0,227.135,242.5Z" fill="#27234c"></path></g><path d="M166.81,336.808a69.283,69.283,0,0,1,85.344-48.242s76.75-87.724,178.171,63.682" transform="translate(4879.289 -6741.469)" fill="none" stroke="#fff" stroke-miterlimit="10" stroke-width="1" stroke-dasharray="3"></path><g transform="translate(4879.289 -6741.469)"><path d="M439.529,347.068a17.576,17.576,0,0,1-.6,3.429,1.145,1.145,0,0,1-1.613-.2c-.3-.5.806-3.832.806-3.832Z" fill="#27234c"></path><path d="M448.4,311.83l.876,7.889-.673,14.738L447.1,346.551a1.138,1.138,0,0,1-.914.976h0a1.138,1.138,0,0,1-1.353-1.175l.349-11.89.4-10.892-2.636.2-1.2,11.8-1.531,11.293a1.641,1.641,0,0,1-1.468,1.35h0a1.643,1.643,0,0,1-1.779-1.83l1.349-11.317-.215-18.628,3.112-.117,2.515-.539Z" fill="#27234c"></path><path d="M446.488,346.665l3.429,1.714-.463.087a3.783,3.783,0,0,1-2.222-.257l-2.358-1.04-.046-.817Z" fill="#27234c"></path><path d="M447.224,305.038l1.22.665a4.7,4.7,0,0,1,2.353,3.183l.845,4.133-4.845,1.71-1.568-4.276Z" fill="#27234c"></path><path d="M431.548,326.272l6-18.2a4.259,4.259,0,0,1,3.456-2.884l2.084-.291,4.132.143,1.653,2.105.477,11.608a4.69,4.69,0,0,1-4.929,3.021c-3.976-.159-6.361-4.453-6.361-4.453l.028-1.022c-2.026,4.309-5.119,10.688-5.119,10.688Z" fill="#27234c"></path><path d="M444.11,305.454l1.591,7.178,1.242-7.411-.5-.737-1.358-.155Z" fill="#fdfefe"></path><path d="M430.57,327.412a1.548,1.548,0,1,0,1.548-1.549A1.549,1.549,0,0,0,430.57,327.412Z" fill="#eac1ce"></path><path d="M447.224,305.038l.067-1.252-1.452-.258-2.292.065-.455,1.3L445,306.659s.451-.84.548-.84a13.477,13.477,0,0,1,1.227.807Z" fill="#fdfefe"></path><path d="M446.613,305.819l-.839-.71-.646.613.516,1.355-1.388,8.359,1.355,1.13,1.065-.968-.613-8.649Z" fill="#27234c"></path><path d="M452.355,309.883l-7.125.57-1,8.836,6.7-.713Z" fill="#e48f9b"></path><path d="M451.023,315.014a1.2,1.2,0,1,0,1.189-1.375A1.291,1.291,0,0,0,451.023,315.014Z" fill="#eac1ce"></path><path d="M442.387,300.417a3.615,3.615,0,1,0,3.767-3.963A3.886,3.886,0,0,0,442.387,300.417Z" fill="#eac1ce"></path><path d="M448.952,298.289a4.163,4.163,0,0,1-4.45.258,4.662,4.662,0,0,1-1.093-.8,3.378,3.378,0,0,1,2.745-1.3A3.446,3.446,0,0,1,448.952,298.289Z" fill="#27234c"></path><path d="M443.851,297.3a4.2,4.2,0,0,1-.611,4.217,4.286,4.286,0,0,1-.6.629,4.648,4.648,0,0,1-.251-1.731A4.375,4.375,0,0,1,443.851,297.3Z" fill="#27234c"></path></g><g transform="translate(4879.289 -6741.469)"><path d="M229.721,116.09H198.685a2.351,2.351,0,0,0,0,4.7h31.036a2.351,2.351,0,1,0,0-4.7Z" fill="rgba(95,193,157,0.48)"></path><path d="M241.979,111.782H210.943a2.352,2.352,0,0,0,0,4.7h31.036a2.352,2.352,0,1,0,0-4.7Z" fill="rgba(95,193,157,0.48)"></path><path d="M251.256,120.728H220.22a2.351,2.351,0,0,0,0,4.7h31.036a2.351,2.351,0,0,0,0-4.7Z" fill="rgba(95,193,157,0.48)"></path></g><g transform="translate(4879.289 -6741.469)"><path d="M442.9,274.514h25.2a1.909,1.909,0,1,0,0-3.817H442.9a1.909,1.909,0,0,0,0,3.817Z" fill="rgba(95,193,157,0.56)"></path><path d="M432.945,278.011h25.2a1.908,1.908,0,0,0,0-3.817h-25.2a1.908,1.908,0,1,0,0,3.817Z" fill="rgba(95,193,157,0.56)"></path><path d="M425.414,270.749h25.2a1.908,1.908,0,1,0,0-3.817h-25.2a1.908,1.908,0,1,0,0,3.817Z" fill="rgba(95,193,157,0.56)"></path></g><g transform="translate(4893.289 -6763.469)"><path d="M349.488,380.081h-25.2a1.909,1.909,0,0,0,0,3.817h25.2a1.909,1.909,0,1,0,0-3.817Z" fill="rgba(95,193,157,0.48)"></path><path d="M359.44,376.585h-25.2a1.909,1.909,0,1,0,0,3.817h25.2a1.909,1.909,0,0,0,0-3.817Z" fill="rgba(95,193,157,0.48)"></path><path d="M366.971,383.846h-25.2a1.909,1.909,0,0,0,0,3.818h25.2a1.909,1.909,0,0,0,0-3.818Z" fill="rgba(95,193,157,0.48)"></path></g><g transform="translate(4879.289 -6741.469)"><path d="M148.255,114.718h-25.2a1.909,1.909,0,0,0,0,3.818h25.2a1.909,1.909,0,0,0,0-3.818Z" fill="rgba(95,193,157,0.48)"></path><path d="M140.711,118.484H115.516a1.909,1.909,0,0,0,0,3.817h25.195a1.909,1.909,0,1,0,0-3.817Z" fill="rgba(95,193,157,0.48)"></path></g><path d="M109.435,386.02H84.24a1.909,1.909,0,0,0,0,3.817h25.195a1.909,1.909,0,1,0,0-3.817Z" transform="translate(4879.289 -6741.469)" fill="rgba(95,193,157,0.48)"></path><path d="M69.229,357.767H51.641a1.909,1.909,0,1,0,0,3.817H69.229a1.909,1.909,0,1,0,0-3.817Z" transform="translate(4879.289 -6741.469)" fill="rgba(95,193,157,0.48)"></path><path d="M77.955,353.949H60.367a1.909,1.909,0,1,0,0,3.818H77.955a1.909,1.909,0,0,0,0-3.818Z" transform="translate(4879.289 -6741.469)" fill="rgba(95,193,157,0.48)"></path><path d="M224.113,359.4H206.526a1.908,1.908,0,1,0,0,3.817h17.587a1.908,1.908,0,1,0,0-3.817Z" transform="translate(4861.289 -6722.469)" fill="rgba(95,193,157,0.48)"></path><path d="M220.389,363.208H202.8a1.908,1.908,0,1,0,0,3.817h17.588a1.908,1.908,0,1,0,0-3.817Z" transform="translate(4861.289 -6722.469)" fill="rgba(95,193,157,0.48)"></path><g transform="translate(4874.001 -6663)"><g transform="translate(265.613 260.39)"><rect width="29.802" height="1.769" transform="translate(29.802 1.769) rotate(180)" fill="#e2d2ca"></rect></g><g transform="translate(288.81 266.764)"><rect width="2.611" height="80.454" transform="translate(0 0)" fill="#706865"></rect></g><g transform="translate(249.562 259.888)"><rect width="20.716" height="2.527" transform="translate(20.716 2.527) rotate(180)" fill="#ccbdb7"></rect></g><g transform="translate(255.998 238.333)"><rect width="7.844" height="23.826" transform="translate(7.844 23.826) rotate(180)" fill="gray"></rect></g><g transform="translate(191.33 262.189)"><rect width="114.776" height="4.575" transform="translate(114.776 4.575) rotate(180)" fill="#b59074"></rect></g><g transform="translate(315.452 226.817)"><path d="M295.392,226.55s1.255,17.6-2.184,19.711c-2.156,1.32-10.748,5.771-10.493,6.607s4.851,7.427,4.851,7.427S304.067,249.428,304.6,246c.52-3.347-.812-25.777-3.079-26.809-1.7-.774-2.6-.134-4.738,1.456C293.778,222.881,295.392,226.55,295.392,226.55Z" transform="translate(-282.709 -218.866)" fill="#323657"></path></g><g transform="translate(296.603 234.832)"><g transform="translate(0 0)"><path d="M270.287,229.463l-1.455-.539s1.813-4.258,2.605-4.154a20.2,20.2,0,0,1,2.051.42Z" transform="translate(-268.832 -224.768)" fill="#ead8cf"></path></g></g><g transform="translate(297.725 234.549)"><g transform="translate(0 0)"><path d="M269.658,230.272c.186-.14,3.092-5.713,3.092-5.713l6.209.844L275.6,232Z" transform="translate(-269.658 -224.559)" fill="#da9b5b"></path></g></g><g transform="translate(307.831 335.773)"><g transform="translate(0)"><path d="M277.1,299.54s.513,3.562.576,4.1,5.71-.317,5.71-.317l.455-4.241S277.8,299.038,277.1,299.54Z" transform="translate(-277.098 -299.08)" fill="#424773"></path></g></g><g transform="translate(298.552 339.636)"><path d="M280.062,302.166a15.2,15.2,0,0,1-3.518,3.081c-1.729.937-4.447,1.307-5.47,2.275-.739.7-2.69,3.708,4.495,3.647s10.648.426,11.417-.728-1.114-8.517-1.114-8.517S284.171,302.537,280.062,302.166Z" transform="translate(-270.267 -301.924)" fill="#292c47"></path></g><g transform="translate(271.667 335.807)"><path d="M250.474,299.564s.512,3.563.576,4.1,5.709-.315,5.709-.315l.458-4.241S251.179,299.063,250.474,299.564Z" transform="translate(-250.474 -299.105)" fill="#424773"></path></g><g transform="translate(259.07 339.67)"><g transform="translate(0)"><path d="M254.313,302.191a15.244,15.244,0,0,1-3.517,3.082c-1.73.935-8.1,1.7-9.118,2.671-.739.7-1.967,3.514,8.142,3.251,7.182-.186,10.648.425,11.417-.728s-1.114-8.517-1.114-8.517S258.52,302.6,254.313,302.191Z" transform="translate(-241.2 -301.949)" fill="#292c47"></path></g></g><g transform="translate(267.133 274.704)"><g transform="translate(0 0)"><path d="M306.038,254.121s-20.52,3.473-25.156,4.2-29.766,6.982-32.908,8.886c-2.5,1.517,1.312,37.945,2.2,51.844h9.9l.717-41.692c11.878.3,20.356-2.778,29.006-1.464s15.861,3.181,21.357-4.192C311.155,271.7,311.359,255.732,306.038,254.121Z" transform="translate(-247.136 -254.121)" fill="#292c47"></path></g></g><g transform="translate(302.743 279.143)"><g transform="translate(0 0)"><path d="M276.418,317.916l9.648-.6L287,276.19a58.708,58.708,0,0,0,11.005-.7l7.789-18.1c-6.826,1.364-28.7,6.88-31.612,8.648C271.684,267.555,275.528,304.016,276.418,317.916Z" transform="translate(-273.352 -257.389)" fill="#292c47"></path></g></g><g transform="translate(304.639 197.423)"><path d="M286.7,197.586s-7.523-2.078-10.394,3.761-1.567,16.911,2.222,17.953,9.245-.159,10.819-3.792,2.829-8.8,2.452-12.145S288.7,198.386,286.7,197.586Z" transform="translate(-274.748 -197.226)" fill="#eea886"></path></g><g transform="translate(309.962 213.212)"><g transform="translate(0 0)"><path d="M279.089,213.969s.083,4.442-.406,5.387,10.475.71,10.475.71-1.729-5.334-.748-9.878C289.381,205.692,279.089,213.969,279.089,213.969Z" transform="translate(-278.667 -208.851)" fill="#eea886"></path></g></g><g transform="translate(304.404 196.679)"><path d="M290.467,212.869s-.587,1.193-3.424,1-6.582-3.616-7.787-3.923-1.276-.992-1.276-.992l-.638,1.134-1.235.187s.839-3.431-.989-4.641.823-10.939,10.079-8.591c0,0,7.063,1.293,7.157,5.238S291.838,210.781,290.467,212.869Z" transform="translate(-274.575 -196.679)" fill="#3a3f47"></path></g><g transform="translate(309.401 220.684)"><g transform="translate(0 0)"><path d="M278.254,217.271s.031-1.808.85-1.982,8.62-1.247,9.626-.85l.43,2.389S287.223,218.021,278.254,217.271Z" transform="translate(-278.254 -214.352)" fill="#e2d2ca"></path></g></g><g transform="translate(307.047 206.137)"><g transform="translate(0)"><path d="M276.619,205.651c.209-1.483,1.895-3.187,2.861-.876s-.651,5.671-1.735,5.492S276.332,207.663,276.619,205.651Z" transform="translate(-276.521 -203.642)" fill="#eea886"></path></g></g><g transform="translate(276.7 244.977)"><g transform="translate(0 0)"><path d="M254.214,232.237h.014C254.171,232.262,254.162,232.263,254.214,232.237Z" transform="translate(-254.18 -232.236)" fill="#323657"></path></g></g><g transform="translate(318.784 198.84)"><g transform="translate(0)"><path d="M285.162,198.271s9.171-.432,1.6,13.886Z" transform="translate(-285.162 -198.27)" fill="#3a3f47"></path></g></g><g transform="translate(309.707 333.648)"><g transform="translate(0)"><path d="M307.993,308.417l-.683,1.919-28.83-8.934,1.382-3.887Z" transform="translate(-278.479 -297.516)" fill="#918783"></path></g></g><g transform="translate(308.719 304.825)"><g transform="translate(0 0)"><rect width="3.276" height="31.342" transform="translate(3.276 31.342) rotate(180)" fill="#918783"></rect></g></g><g transform="translate(300.694 303.159)"><g transform="translate(0 0)"><rect width="19.327" height="1.847" transform="translate(19.327 1.847) rotate(180)" fill="#5e5854"></rect></g></g><g transform="translate(281.242 333.404)"><path d="M257.523,308.481l.682,1.919,28.83-8.934-1.268-4.131Z" transform="translate(-257.523 -297.336)" fill="#918783"></path></g><g transform="translate(301.554 333.404)"><path d="M272.477,310.2v2.232l9.2-10.961-1.268-4.131Z" transform="translate(-272.477 -297.336)" fill="#918783"></path></g><g transform="translate(278.547 344.524)"><g transform="translate(0)"><circle cx="2.694" cy="2.694" r="2.694" fill="#bfb2ac"></circle></g></g><g transform="translate(301.325 344.524)"><g transform="translate(0)"><circle cx="2.694" cy="2.694" r="2.694" fill="#bfb2ac"></circle></g></g><g transform="translate(336.526 344.523)"><path d="M298.223,308.217a2.694,2.694,0,1,0,2.695-2.695A2.693,2.693,0,0,0,298.223,308.217Z" transform="translate(-298.223 -305.522)" fill="#bfb2ac"></path></g><g transform="translate(287.337 296.163)"><path d="M2.543,0h40.7a2.543,2.543,0,0,1,2.543,2.543V4.454A2.542,2.542,0,0,1,43.244,7H2.543A2.543,2.543,0,0,1,0,4.453V2.543A2.543,2.543,0,0,1,2.543,0Z" transform="translate(45.786 6.996) rotate(180)" fill="#3d9f7b"></path></g><g transform="translate(206.015 266.764)"><rect width="2.611" height="80.454" transform="translate(2.611 80.454) rotate(180)" fill="#706865"></rect></g><g transform="translate(226.051 202.026)"><path d="M2.536,0H65.2a2.537,2.537,0,0,1,2.537,2.537V45.248A2.536,2.536,0,0,1,65.2,47.784H2.537A2.537,2.537,0,0,1,0,45.248V2.536A2.536,2.536,0,0,1,2.536,0Z" transform="translate(67.737 47.784) rotate(180)" fill="gray"></path></g><g transform="translate(228.704 204.608)"><rect width="62.431" height="37.713" transform="translate(62.431 37.713) rotate(180)" fill="#f5f7ff"></rect></g><g transform="translate(257.734 243.154)"><path d="M240.217,233.08a2.185,2.185,0,1,0,2.186-2.186A2.185,2.185,0,0,0,240.217,233.08Z" transform="translate(-240.217 -230.894)" fill="#fff"></path></g><g transform="translate(245.897 256.111)"><path d="M231.5,246.571v-.85s1.2-5.288,9.651-5.288,8.286,6.138,8.286,6.138Z" transform="translate(-231.502 -240.433)" fill="gray"></path></g><g transform="translate(248.753 253.621)"><g transform="translate(0 0)"><path d="M248.787,241.875a8.371,8.371,0,0,1-2.51-.547c-.672-.407-4.7-3.115-5.645-2.681s-7.24,2.361-7.021,3.282.8.831,1.244.668a32.357,32.357,0,0,1,5.418-.96s-4.489,1.638-4.507,2.834.94,1.486,1.365,1.938.937,1.573,2.094,1.658,6.8-1.877,7.964-1.967a28.143,28.143,0,0,0,3.458-.118A32.142,32.142,0,0,0,248.787,241.875Z" transform="translate(-233.605 -238.6)" fill="#eea886"></path></g></g><g transform="translate(262.036 223.159)"><g transform="translate(0)"><path d="M278.727,219.127c5.857-1.03,12.022-2.509,12.022-2.509l10.907-.444s10.012,2.2,13.956,3.985c.373.167.375,8.931,1.4,11.228l-3.269,6.9s-1.888,13.662-2.279,19.737c-.181,2.789.508,26.955.508,26.955s-.979.485-8.423,1.305-26.047-.3-26.165-1.176,3.6-32.742,3.768-34.391c.253-2.533-.732-14.235-.732-14.235-1.4,1.884-4.978,10.392-8.706,14.442-2.194,2.381-13.049,3.841-15.1,3.911-4.454.147-12.579,1.035-12.817.6-.19-.261-.709-7.213-.2-7.382.447-.149,15.537-1.017,19.4-3.07,1.414-.75,5.642-9.97,5.642-9.97S275.495,220.578,278.727,219.127Z" transform="translate(-243.384 -216.174)" fill="#323657"></path></g></g><g transform="translate(312.245 247.531)"><path d="M4.882,0H26.694a4.881,4.881,0,0,1,4.881,4.881V38.85a4.882,4.882,0,0,1-4.882,4.882H4.882A4.882,4.882,0,0,1,0,38.85V4.882A4.882,4.882,0,0,1,4.882,0Z" transform="translate(31.574 43.732) rotate(180)" fill="#3d9f7b"></path></g><g transform="translate(316.084 275.45)"><path d="M284.93,280.637a14.457,14.457,0,0,0,11.223-4.647c6.312-6.97,5.178-19.219,5.128-19.736a1.757,1.757,0,0,0-3.5.345c.012.14,1.019,11.244-4.241,17.041a10.963,10.963,0,0,1-8.613,3.483,1.757,1.757,0,0,0,0,3.514Z" transform="translate(-283.174 -254.67)" fill="#3d9f7b"></path></g><g transform="translate(268.421 207.613)"><g transform="translate(0 0)"><path d="M.364,0h17.56a.363.363,0,0,1,.363.363V1.629a.363.363,0,0,1-.363.363H.364A.364.364,0,0,1,0,1.629V.364A.364.364,0,0,1,.364,0Z" transform="translate(18.288 1.992) rotate(180)" fill="#dfe1e8"></path></g></g><g transform="translate(268.421 211.885)"><g transform="translate(0 0)"><path d="M.364,0h17.56a.363.363,0,0,1,.363.363V1.629a.364.364,0,0,1-.364.364H.364A.364.364,0,0,1,0,1.63V.364A.364.364,0,0,1,.364,0Z" transform="translate(18.288 1.994) rotate(180)" fill="#dfe1e8"></path></g></g><g transform="translate(268.421 216.788)"><g transform="translate(0 0)"><path d="M1.223,0H17.065a1.222,1.222,0,0,1,1.222,1.222V21.308a1.222,1.222,0,0,1-1.222,1.222H1.223A1.223,1.223,0,0,1,0,21.308V1.223A1.223,1.223,0,0,1,1.223,0Z" transform="translate(18.288 22.531) rotate(180)" fill="#dfe1e8"></path></g></g><g transform="translate(232.162 207.613)"><g transform="translate(0 0)"><path d="M1.936,0h28.7a1.936,1.936,0,0,1,1.936,1.936V29.771a1.934,1.934,0,0,1-1.934,1.934H1.936A1.936,1.936,0,0,1,0,29.77V1.936A1.936,1.936,0,0,1,1.936,0Z" transform="translate(32.567 31.706) rotate(180)" fill="#dfe1e8"></path></g></g></g></g></svg> 