<?xml version="1.0" encoding="UTF-8"?>
<svg width="1103px" height="325px" viewBox="0 0 1103 325" version="1.1" xmlns="http://www.w3.org/2000/svg" xmlns:xlink="http://www.w3.org/1999/xlink">
    <!-- Generator: Sketch 50.2 (55047) - http://www.bohemiancoding.com/sketch -->
    <title>5a9b05b6dcda0a0001aeb762_js-banners-new-12</title>
    <desc>Created with Sketch.</desc>
    <defs></defs>
    <g id="Page-1" stroke="none" stroke-width="1" fill="none" fill-rule="evenodd">
        <g id="5a9b05b6dcda0a0001aeb762_js-banners-new-12" fill-rule="nonzero">
            <g id="Group">
                <path d="M778,25.8 L301.1,25.8 L301.1,1 L778,1 L778,25.8 Z M302.6,24.3 L776.5,24.3 L776.5,2.5 L302.6,2.5 L302.6,24.3 Z" id="Shape" fill="#443356" opacity="0.34"></path>
                <circle id="Oval" fill="#443356" cx="316.9" cy="13.4" r="3.8"></circle>
                <circle id="Oval" fill="#443356" opacity="0.77" cx="332.7" cy="13.4" r="3.8"></circle>
                <circle id="Oval" fill="#443356" opacity="0.46" cx="348.5" cy="13.4" r="3.8"></circle>
                <path d="M680.2,227.5 L398.9,227.5 L398.9,103.9 L680.2,103.9 L680.2,227.5 Z M400.4,226 L678.7,226 L678.7,105.4 L400.4,105.4 L400.4,226 Z" id="Shape" fill="#443356" opacity="0.34"></path>
                <path d="M673.7,66.6 L405.4,66.6 C401.7,66.6 398.6,63.6 398.6,59.8 L398.6,44.9 C398.6,41.2 401.6,38.1 405.4,38.1 L673.7,38.1 C677.4,38.1 680.5,41.1 680.5,44.9 L680.5,59.8 C680.4,63.5 677.4,66.6 673.7,66.6 Z M405.4,40.1 C402.8,40.1 400.6,42.2 400.6,44.9 L400.6,59.8 C400.6,62.4 402.7,64.6 405.4,64.6 L673.7,64.6 C676.3,64.6 678.5,62.5 678.5,59.8 L678.5,44.9 C678.5,42.3 676.4,40.1 673.7,40.1 L405.4,40.1 Z" id="Shape" fill="#443356"></path>
                <path d="M680.2,90.3 L398.9,90.3 L398.9,79.9 L680.2,79.9 L680.2,90.3 Z M400.4,88.8 L678.7,88.8 L678.7,81.4 L400.4,81.4 L400.4,88.8 Z" id="Shape" fill="#443356" opacity="0.34"></path>
                <g transform="translate(398.000000, 240.000000)" fill="#443356" id="Shape">
                    <path d="M177.8,42.3 L99,42.3 L99,0.9 L177.8,0.9 L177.8,42.3 Z M101,40.3 L175.8,40.3 L175.8,2.9 L101,2.9 L101,40.3 Z"></path>
                    <path d="M80.4,42.3 L0.6,42.3 L0.6,0.9 L80.4,0.9 L80.4,42.3 Z M2.6,40.3 L78.4,40.3 L78.4,2.9 L2.6,2.9 L2.6,40.3 Z"></path>
                    <path d="M282.4,42.3 L196.4,42.3 L196.4,0.9 L282.4,0.9 L282.4,42.3 Z M198.4,40.3 L280.4,40.3 L280.4,2.9 L198.4,2.9 L198.4,40.3 Z"></path>
                </g>
                <path d="M662.2,53.8 L626.2,53.8 C625.4,53.8 624.7,53.1 624.7,52.3 C624.7,51.5 625.4,50.8 626.2,50.8 L662.2,50.8 C663,50.8 663.7,51.5 663.7,52.3 C663.7,53.2 663.1,53.8 662.2,53.8 Z M590.2,53.8 L554.2,53.8 C553.4,53.8 552.7,53.1 552.7,52.3 C552.7,51.5 553.4,50.8 554.2,50.8 L590.2,50.8 C591,50.8 591.7,51.5 591.7,52.3 C591.7,53.2 591.1,53.8 590.2,53.8 Z M518.2,53.8 L482.2,53.8 C481.4,53.8 480.7,53.1 480.7,52.3 C480.7,51.5 481.4,50.8 482.2,50.8 L518.2,50.8 C519,50.8 519.7,51.5 519.7,52.3 C519.7,53.2 519.1,53.8 518.2,53.8 Z M446.2,53.8 L410.2,53.8 C409.4,53.8 408.7,53.1 408.7,52.3 C408.7,51.5 409.4,50.8 410.2,50.8 L446.2,50.8 C447,50.8 447.7,51.5 447.7,52.3 C447.7,53.2 447.1,53.8 446.2,53.8 Z" id="Shape" fill="#443356" opacity="0.4"></path>
                <g transform="translate(597.000000, 129.000000)" id="Shape">
                    <polyline fill="#CFCAD3" points="1.7 24.8 9.9 4.3 13 24.8"></polyline>
                    <polygon fill="#443356" points="2.6 25.2 0.7 24.4 10.3 0.5 14 24.7 12 25 9.5 8.1"></polygon>
                </g>
                <path d="M666.7,180.4 C666.4,180.4 666.2,180.3 666,180.1 C660.7,174.9 654.2,170.3 646.8,166.3 C622.4,153.4 593.1,151.2 566.3,160.3 C565.8,160.5 565.2,160.2 565,159.7 C564.8,159.2 565.1,158.6 565.6,158.4 C592.9,149.2 622.9,151.4 647.7,164.5 C655.3,168.5 661.9,173.3 667.4,178.6 C667.8,179 667.8,179.6 667.4,180 C667.3,180.3 667,180.4 666.7,180.4 Z" id="Shape" fill="#443356"></path>
                <path d="M457.2,193.7 C452.1,193.7 447.7,193.3 443.8,192.8 C422.6,189.8 414.3,180.5 414,180.1 C413.6,179.7 413.7,179.1 414.1,178.7 C414.5,178.3 415.1,178.4 415.5,178.8 C415.6,178.9 423.8,188 444.4,190.9 C463.5,193.6 497.3,191.2 550.3,165.1 C550.8,164.9 551.4,165.1 551.6,165.6 C551.8,166.1 551.6,166.7 551.1,166.9 C508.2,188 477.6,193.7 457.2,193.7 Z" id="Shape" fill="#443356"></path>
                <path d="M463.6,227.5 C463.3,227.5 463,227.3 462.9,227 C462.8,226.6 463,226.2 463.4,226.1 L474.1,223 C476.1,222.4 476.9,220.8 477,219.4 C477.1,218.1 476.6,216.3 474.7,215.4 C467.9,212.2 459.6,209.9 453.9,208.5 C451.9,208 450.5,206.4 450.3,204.4 C450.1,202.4 451.1,200.5 453,199.6 L468.4,192.1 L477.8,190.2 L471.3,195.9 C470.1,196.9 469.7,198.5 470.1,200 C470.6,201.5 471.8,202.6 473.4,202.7 L529.2,209.2 C532.4,209.6 534.7,211.8 535.2,215 C535.7,218.2 534.1,221 531.2,222.4 L519.9,227.5 C519.5,227.7 519.1,227.5 518.9,227.1 C518.7,226.7 518.9,226.3 519.3,226.1 L530.6,221 C533.4,219.8 534,217.1 533.7,215.2 C533.4,213.3 532,211 529,210.7 L473.2,204.2 C471,203.9 469.3,202.5 468.6,200.4 C468,198.3 468.6,196.1 470.2,194.7 L472.5,192.7 L468.6,193.5 L453.5,200.9 C452,201.6 451.6,203.1 451.7,204.2 C451.8,205.3 452.5,206.6 454.2,207 C460,208.4 468.5,210.8 475.3,214 C477.4,215 478.6,217.1 478.5,219.4 C478.3,221.7 476.7,223.7 474.5,224.3 L463.8,227.4 C463.8,227.5 463.7,227.5 463.6,227.5 Z" id="Shape" fill="#443356" opacity="0.34"></path>
                <g transform="translate(573.000000, 128.000000)" id="Shape">
                    <polygon fill="#CFCAD3" points="1.8 57.2 13.8 5.3 22.4 54.7"></polygon>
                    <path d="M0.5,58.4 L13.9,0.2 L23.5,55.5 L0.5,58.4 Z M13.7,10.3 L3.1,56 L21.2,53.7 L13.7,10.3 Z" fill="#443356"></path>
                </g>
                <g transform="translate(552.000000, 131.000000)" id="Shape">
                    <polygon fill="#CFCAD3" points="1.4 41.2 15.8 34.7 8.6 4.9"></polygon>
                    <path d="M0,42.9 L8.5,0.1 L17,35.2 L0,42.9 Z M8.7,9.5 L2.8,39.5 L14.7,34.1 L8.7,9.5 Z" fill="#443356"></path>
                </g>
                <path d="M539.5,165.7 C539.5,161.6 536.2,158.3 532.1,158.3 C528.7,158.3 525.9,160.5 525,163.6 C524.2,163.3 523.3,163.1 522.4,163.1 C522.4,159 519.1,155.7 515,155.7 C513.4,155.7 511.9,156.2 510.7,157.1 C509,154.7 506.1,153.1 502.9,153.1 C497.6,153.1 493.4,157.4 493.4,162.6 C490.7,162.6 488.6,164.8 488.6,167.4 L539.3,167.4 C539.4,166.9 539.5,166.3 539.5,165.7 Z" id="Shape" fill="#443356" opacity="0.34"></path>
                <path d="M406,168 C406,163.9 409.3,160.6 413.4,160.6 C416.8,160.6 419.6,162.8 420.5,165.9 C421.3,165.6 422.2,165.4 423.1,165.4 C423.1,161.3 426.4,158 430.5,158 C432.1,158 433.6,158.5 434.8,159.4 C436.5,157 439.4,155.4 442.6,155.4 C447.9,155.4 452.1,159.7 452.1,164.9 C454.8,164.9 456.9,167.1 456.9,169.7 L406.2,169.7 C406.1,169.2 406,168.6 406,168 Z" id="Shape" fill="#443356" opacity="0.34"></path>
                <path d="M471.7,168.4 C464.6,168.4 458.8,162.6 458.8,155.5 C458.8,148.4 464.6,142.6 471.7,142.6 C478.8,142.6 484.6,148.4 484.6,155.5 C484.6,162.6 478.8,168.4 471.7,168.4 Z M471.7,144.5 C465.7,144.5 460.8,149.4 460.8,155.4 C460.8,161.4 465.7,166.3 471.7,166.3 C477.7,166.3 482.6,161.4 482.6,155.4 C482.6,149.4 477.7,144.5 471.7,144.5 Z" id="Shape" fill="#443356"></path>
                <rect id="Rectangle-path" fill="#DF74E8" x="410.2" y="116.9" width="148.9" height="3"></rect>
                <path d="M513.6,129.1 L410.2,129.1 C409.4,129.1 408.7,128.4 408.7,127.6 C408.7,126.8 409.4,126.1 410.2,126.1 L513.5,126.1 C514.3,126.1 515,126.8 515,127.6 C515,128.4 514.4,129.1 513.6,129.1 Z" id="Shape" fill="#443356"></path>
                <g opacity="0.49" transform="translate(399.000000, 240.000000)" fill="#443356" id="Shape">
                    <polygon points="78 0.9 39.5 20.4 1.1 0.9 0.1 2.7 37.2 21.5 0.1 40.3 1.1 42.2 39.5 22.7 78 42.2 78.9 40.3 41.8 21.5 78.9 2.7"></polygon>
                    <polygon points="280.9 2.7 280 0.9 238.5 20.4 197 0.9 196.1 2.7 236.1 21.5 196.1 40.3 197 42.2 238.5 22.7 280 42.2 280.9 40.3 240.9 21.5"></polygon>
                    <polygon points="174.8 0.9 137.4 20.4 100 0.9 99.1 2.7 135.2 21.5 99.1 40.3 100 42.2 137.4 22.7 174.8 42.2 175.8 40.3 139.7 21.5 175.8 2.7"></polygon>
                </g>
                <g transform="translate(398.000000, 288.000000)" fill="#443356" id="Shape">
                    <path d="M79.9,2.5 L1.6,2.5 C1,2.5 0.6,2.1 0.6,1.5 C0.6,0.9 1,0.5 1.6,0.5 L79.9,0.5 C80.5,0.5 80.9,0.9 80.9,1.5 C80.9,2.1 80.5,2.5 79.9,2.5 Z"></path>
                    <path d="M69.6,10.7 L1.6,10.7 C1,10.7 0.6,10.3 0.6,9.7 C0.6,9.1 1,8.7 1.6,8.7 L69.6,8.7 C70.2,8.7 70.6,9.1 70.6,9.7 C70.6,10.3 70.2,10.7 69.6,10.7 Z"></path>
                    <path d="M49,18.9 L1.6,18.9 C1,18.9 0.6,18.5 0.6,17.9 C0.6,17.3 1,16.9 1.6,16.9 L49,16.9 C49.6,16.9 50,17.3 50,17.9 C50,18.5 49.6,18.9 49,18.9 Z"></path>
                </g>
                <g transform="translate(496.000000, 288.000000)" fill="#443356" id="Shape">
                    <path d="M79.6,2.5 L1.3,2.5 C0.7,2.5 0.3,2.1 0.3,1.5 C0.3,0.9 0.7,0.5 1.3,0.5 L79.6,0.5 C80.2,0.5 80.6,0.9 80.6,1.5 C80.6,2.1 80.1,2.5 79.6,2.5 Z"></path>
                    <path d="M63.1,10.7 L1.3,10.7 C0.7,10.7 0.3,10.3 0.3,9.7 C0.3,9.1 0.7,8.7 1.3,8.7 L63.1,8.7 C63.7,8.7 64.1,9.1 64.1,9.7 C64.1,10.3 63.6,10.7 63.1,10.7 Z"></path>
                    <path d="M79.6,18.9 L1.3,18.9 C0.7,18.9 0.3,18.5 0.3,17.9 C0.3,17.3 0.7,16.9 1.3,16.9 L79.6,16.9 C80.2,16.9 80.6,17.3 80.6,17.9 C80.6,18.5 80.1,18.9 79.6,18.9 Z"></path>
                </g>
                <g transform="translate(594.000000, 288.000000)" fill="#443356" id="Shape">
                    <path d="M72.7,2.5 L1.4,2.5 C0.8,2.5 0.4,2.1 0.4,1.5 C0.4,0.9 0.8,0.5 1.4,0.5 L72.7,0.5 C73.3,0.5 73.7,0.9 73.7,1.5 C73.7,2.1 73.3,2.5 72.7,2.5 Z"></path>
                    <path d="M85.4,10.7 L1.4,10.7 C0.8,10.7 0.4,10.3 0.4,9.7 C0.4,9.1 0.8,8.7 1.4,8.7 L85.4,8.7 C86,8.7 86.4,9.1 86.4,9.7 C86.4,10.3 86,10.7 85.4,10.7 Z"></path>
                    <path d="M72.7,18.9 L1.4,18.9 C0.8,18.9 0.4,18.5 0.4,17.9 C0.4,17.3 0.8,16.9 1.4,16.9 L72.7,16.9 C73.3,16.9 73.7,17.3 73.7,17.9 C73.7,18.5 73.3,18.9 72.7,18.9 Z"></path>
                </g>
                <path d="M932.2,292.7 C930.8,292.7 929.5,292.7 928.1,292.6 C927.5,292.6 927.1,292.1 927.2,291.5 C927.2,290.9 927.7,290.5 928.3,290.6 C929.6,290.7 930.9,290.7 932.2,290.7 C932.8,290.7 933.2,291.1 933.2,291.7 C933.2,292.2 932.7,292.7 932.2,292.7 Z M938.2,292.4 C937.7,292.4 937.2,292 937.2,291.5 C937.2,291 937.6,290.5 938.1,290.4 C939.4,290.3 940.7,290.1 942,290 C942.5,289.9 943.1,290.3 943.1,290.8 C943.2,291.3 942.8,291.9 942.3,291.9 C941,292.2 939.6,292.3 938.2,292.4 C938.2,292.4 938.2,292.4 938.2,292.4 Z M922.2,291.9 C922.2,291.9 922.1,291.9 922.1,291.9 C920.8,291.7 919.4,291.5 918.1,291.2 C917.6,291.1 917.2,290.6 917.3,290 C917.4,289.5 917.9,289.1 918.5,289.2 C919.8,289.5 921.1,289.7 922.4,289.9 C922.9,290 923.3,290.5 923.2,291 C923.1,291.6 922.7,291.9 922.2,291.9 Z M948,290.9 C947.5,290.9 947.1,290.6 947,290.1 C946.9,289.6 947.2,289 947.7,288.9 C949,288.6 950.3,288.3 951.5,287.9 C952,287.7 952.6,288 952.7,288.6 C952.9,289.1 952.6,289.7 952,289.8 C950.7,290.2 949.4,290.5 948.1,290.8 C948.2,290.9 948.1,290.9 948,290.9 Z M912.5,289.8 C912.4,289.8 912.3,289.8 912.2,289.8 C910.9,289.4 909.6,289 908.3,288.5 C907.8,288.3 907.5,287.7 907.7,287.2 C907.9,286.7 908.5,286.4 909,286.6 C910.2,287 911.5,287.5 912.7,287.8 C913.2,288 913.5,288.5 913.4,289 C913.3,289.5 912.9,289.8 912.5,289.8 Z M957.6,287.9 C957.2,287.9 956.8,287.7 956.7,287.3 C956.5,286.8 956.7,286.2 957.3,286 C958.5,285.5 959.7,285 960.9,284.4 C961.4,284.2 962,284.4 962.2,284.9 C962.4,285.4 962.2,286 961.7,286.2 C960.5,286.8 959.2,287.3 958,287.8 C957.8,287.9 957.7,287.9 957.6,287.9 Z M903.1,286.2 C903,286.2 902.8,286.2 902.7,286.1 C901.5,285.5 900.3,284.9 899.1,284.3 C898.6,284 898.4,283.4 898.7,282.9 C899,282.4 899.6,282.2 900.1,282.5 C901.3,283.1 902.4,283.7 903.6,284.3 C904.1,284.5 904.3,285.1 904.1,285.6 C903.9,286 903.5,286.2 903.1,286.2 Z M966.6,283.5 C966.3,283.5 965.9,283.3 965.7,283 C965.4,282.5 965.6,281.9 966.1,281.6 C967.2,280.9 968.4,280.3 969.5,279.5 C970,279.2 970.6,279.3 970.9,279.8 C971.2,280.3 971.1,280.9 970.6,281.2 C969.5,281.9 968.3,282.6 967.1,283.3 C966.9,283.5 966.7,283.5 966.6,283.5 Z M894.4,281.4 C894.2,281.4 894,281.3 893.9,281.2 C892.8,280.5 891.7,279.7 890.6,278.9 C890.2,278.6 890.1,277.9 890.4,277.5 C890.7,277.1 891.4,277 891.8,277.3 C892.9,278.1 893.9,278.8 895,279.6 C895.5,279.9 895.6,280.5 895.3,281 C895,281.2 894.7,281.4 894.4,281.4 Z M974.8,278 C974.5,278 974.2,277.9 974,277.6 C973.7,277.2 973.7,276.5 974.2,276.2 C975.2,275.4 976.2,274.5 977.2,273.7 C977.6,273.3 978.2,273.4 978.6,273.8 C979,274.2 978.9,274.8 978.5,275.2 C977.5,276.1 976.4,277 975.4,277.8 C975.3,277.9 975.1,278 974.8,278 Z M886.5,275.3 C886.3,275.3 886,275.2 885.8,275 C884.8,274.1 883.8,273.2 882.9,272.2 C882.5,271.8 882.5,271.2 882.9,270.8 C883.3,270.4 883.9,270.4 884.3,270.8 C885.2,271.7 886.2,272.6 887.2,273.5 C887.6,273.9 887.6,274.5 887.3,274.9 C887,275.1 886.8,275.3 886.5,275.3 Z M982.2,271.2 C981.9,271.2 981.7,271.1 981.5,270.9 C981.1,270.5 981.1,269.9 981.5,269.5 L984.3,266.7 C984.7,266.3 985.3,266.3 985.7,266.7 C986.1,267.1 986.1,267.7 985.7,268.1 L982.9,270.9 C982.8,271.1 982.5,271.2 982.2,271.2 Z M989.3,264.2 C989,264.2 988.8,264.1 988.6,263.9 C988.2,263.5 988.2,262.9 988.6,262.5 L991.4,259.7 C991.8,259.3 992.4,259.3 992.8,259.7 C993.2,260.1 993.2,260.7 992.8,261.1 L990,263.9 C989.8,264.1 989.6,264.2 989.3,264.2 Z M996.2,257 C996,257 995.7,256.9 995.5,256.8 C995.1,256.4 995,255.8 995.4,255.4 C996.3,254.4 997.1,253.4 997.9,252.3 C998.2,251.9 998.9,251.8 999.3,252.1 C999.7,252.4 999.8,253.1 999.5,253.5 C998.7,254.6 997.8,255.6 996.9,256.7 C996.8,256.8 996.5,257 996.2,257 Z M1002.2,248.9 C1002,248.9 1001.8,248.9 1001.7,248.7 C1001.2,248.4 1001.1,247.8 1001.4,247.3 C1002.1,246.2 1002.8,245.1 1003.4,243.9 C1003.7,243.4 1004.3,243.2 1004.8,243.5 C1005.3,243.8 1005.5,244.4 1005.2,244.9 C1004.5,246.1 1003.9,247.3 1003.1,248.4 C1002.8,248.8 1002.5,248.9 1002.2,248.9 Z M1006.9,240.1 C1006.8,240.1 1006.6,240.1 1006.5,240 C1006,239.8 1005.8,239.2 1006,238.7 C1006.5,237.5 1007,236.3 1007.5,235.1 C1007.7,234.6 1008.3,234.3 1008.8,234.5 C1009.3,234.7 1009.6,235.3 1009.4,235.8 C1008.9,237.1 1008.4,238.3 1007.9,239.6 C1007.6,239.9 1007.3,240.1 1006.9,240.1 Z M1010.3,230.7 C1010.2,230.7 1010.1,230.7 1010,230.7 C1009.5,230.6 1009.2,230 1009.3,229.5 C1009.7,228.2 1010,227 1010.2,225.7 C1010.3,225.2 1010.9,224.8 1011.4,224.9 C1011.9,225 1012.3,225.5 1012.2,226.1 C1011.9,227.4 1011.6,228.7 1011.2,230 C1011.1,230.4 1010.7,230.7 1010.3,230.7 Z M1012.2,220.9 C1012.2,220.9 1012.1,220.9 1012.1,220.9 C1011.6,220.8 1011.2,220.3 1011.2,219.8 C1011.4,218.5 1011.5,217.2 1011.6,215.9 C1011.6,215.3 1012.1,214.9 1012.7,215 C1013.3,215 1013.7,215.5 1013.6,216.1 C1013.5,217.4 1013.4,218.8 1013.2,220.1 C1013.2,220.5 1012.7,220.9 1012.2,220.9 Z M1012.8,210.9 C1012.3,210.9 1011.8,210.5 1011.8,209.9 C1011.8,208.6 1011.7,207.3 1011.6,206 C1011.6,205.4 1012,205 1012.5,204.9 C1013,204.9 1013.5,205.3 1013.6,205.8 C1013.7,207.1 1013.8,208.5 1013.8,209.9 C1013.8,210.5 1013.4,210.9 1012.8,210.9 C1012.8,210.9 1012.8,210.9 1012.8,210.9 Z M1011.9,201 C1011.4,201 1011,200.7 1010.9,200.2 C1010.7,198.9 1010.4,197.6 1010.2,196.3 C1010.1,195.8 1010.4,195.2 1011,195.1 C1011.5,195 1012.1,195.3 1012.2,195.9 C1012.5,197.2 1012.8,198.6 1013,199.9 C1013.1,200.4 1012.7,201 1012.2,201 C1012,201 1011.9,201 1011.9,201 Z M1009.6,191.3 C1009.2,191.3 1008.8,191 1008.6,190.6 C1008.2,189.4 1007.8,188.1 1007.3,186.9 C1007.1,186.4 1007.4,185.8 1007.9,185.6 C1008.4,185.4 1009,185.7 1009.2,186.2 C1009.7,187.5 1010.1,188.8 1010.5,190 C1010.7,190.5 1010.4,191.1 1009.8,191.3 C1009.8,191.3 1009.7,191.3 1009.6,191.3 Z M1005.9,182 C1005.5,182 1005.2,181.8 1005,181.4 C1004.4,180.2 1003.8,179.1 1003.2,177.9 C1002.9,177.4 1003.1,176.8 1003.6,176.5 C1004.1,176.2 1004.7,176.4 1005,176.9 C1005.7,178.1 1006.3,179.3 1006.9,180.5 C1007.1,181 1006.9,181.6 1006.4,181.8 C1006.2,182 1006,182 1005.9,182 Z M1000.8,173.4 C1000.5,173.4 1000.2,173.2 1000,173 C999.3,171.9 998.5,170.8 997.7,169.8 C997.4,169.4 997.4,168.7 997.9,168.4 C998.3,168.1 999,168.1 999.3,168.6 C1000.1,169.7 1000.9,170.8 1001.7,171.9 C1002,172.4 1001.9,173 1001.4,173.3 C1001.2,173.3 1001,173.4 1000.8,173.4 Z M994.6,165.5 C994.3,165.5 994.1,165.4 993.9,165.2 C993.3,164.5 992.6,163.8 991.9,163.1 L991.1,162.3 C990.7,161.9 990.7,161.3 991.1,160.9 C991.5,160.5 992.1,160.5 992.5,160.9 L993.3,161.7 C994,162.4 994.7,163.1 995.3,163.8 C995.7,164.2 995.6,164.8 995.2,165.2 C995.1,165.5 994.9,165.5 994.6,165.5 Z M987.6,158.4 C987.3,158.4 987.1,158.3 986.9,158.1 L984.1,155.3 C983.7,154.9 983.7,154.3 984.1,153.9 C984.5,153.5 985.1,153.5 985.5,153.9 L988.3,156.7 C988.7,157.1 988.7,157.7 988.3,158.1 C988.1,158.3 987.8,158.4 987.6,158.4 Z M980.5,151.4 C980.2,151.4 980,151.3 979.8,151.1 L977,148.3 C976.6,147.9 976.6,147.3 977,146.9 C977.4,146.5 978,146.5 978.4,146.9 L981.2,149.7 C981.6,150.1 981.6,150.7 981.2,151.1 C981,151.3 980.8,151.4 980.5,151.4 Z M973.5,144.3 C973.2,144.3 973,144.2 972.8,144 L970,141.2 C969.6,140.8 969.6,140.2 970,139.8 C970.4,139.4 971,139.4 971.4,139.8 L974.2,142.6 C974.6,143 974.6,143.6 974.2,144 C974,144.2 973.7,144.3 973.5,144.3 Z M966.6,137 C966.3,137 966,136.9 965.8,136.6 C964.9,135.6 964.1,134.5 963.3,133.4 C963,132.9 963.1,132.3 963.5,132 C964,131.7 964.6,131.8 964.9,132.2 C965.7,133.3 966.5,134.3 967.3,135.3 C967.7,135.7 967.6,136.4 967.2,136.7 C967,136.9 966.8,137 966.6,137 Z M960.9,128.8 C960.6,128.8 960.2,128.6 960,128.3 C959.3,127.1 958.7,125.9 958.1,124.7 C957.9,124.2 958.1,123.6 958.6,123.4 C959.1,123.2 959.7,123.4 959.9,123.9 C960.5,125.1 961.1,126.2 961.7,127.4 C962,127.9 961.8,128.5 961.3,128.8 C961.3,128.7 961.1,128.8 960.9,128.8 Z M956.7,119.7 C956.3,119.7 955.9,119.4 955.8,119 C955.3,117.7 954.9,116.4 954.5,115.1 C954.3,114.6 954.7,114 955.2,113.9 C955.7,113.8 956.3,114.1 956.4,114.6 C956.8,115.9 957.2,117.1 957.6,118.3 C957.8,118.8 957.5,119.4 957,119.6 C957,119.7 956.9,119.7 956.7,119.7 Z M954.2,110.1 C953.7,110.1 953.3,109.8 953.2,109.3 C953,108 952.8,106.6 952.6,105.3 C952.5,104.8 952.9,104.3 953.5,104.2 C954,104.1 954.5,104.5 954.6,105.1 C954.7,106.4 954.9,107.7 955.2,109 C955.3,109.5 954.9,110.1 954.4,110.2 C954.3,110.1 954.2,110.1 954.2,110.1 Z M1099.6,103.7 C1099.3,103.7 1099.1,103.6 1098.9,103.4 L1096.1,100.6 C1095.7,100.2 1095.7,99.6 1096.1,99.2 C1096.5,98.8 1097.1,98.8 1097.5,99.2 L1100.3,102 C1100.7,102.4 1100.7,103 1100.3,103.4 C1100.1,103.6 1099.8,103.7 1099.6,103.7 Z M953.2,100.1 C952.7,100.1 952.2,99.7 952.2,99.1 L952.2,98.6 C952.2,97.4 952.2,96.2 952.3,95 C952.3,94.4 952.8,94 953.4,94.1 C954,94.1 954.4,94.6 954.3,95.2 C954.2,96.4 954.2,97.5 954.2,98.7 L954.2,99.1 C954.3,99.7 953.8,100.1 953.2,100.1 C953.3,100.1 953.2,100.1 953.2,100.1 Z M1092.5,96.7 C1092.2,96.7 1092,96.6 1091.8,96.4 L1089,93.6 C1088.6,93.2 1088.6,92.6 1089,92.2 C1089.4,91.8 1090,91.8 1090.4,92.2 L1093.2,95 C1093.6,95.4 1093.6,96 1093.2,96.4 C1093,96.6 1092.8,96.7 1092.5,96.7 Z M954,90.2 C953.9,90.2 953.9,90.2 953.8,90.2 C953.3,90.1 952.9,89.6 953,89.1 C953.2,87.8 953.5,86.4 953.8,85.1 C953.9,84.6 954.5,84.2 955,84.4 C955.5,84.5 955.9,85.1 955.7,85.6 C955.4,86.9 955.1,88.2 954.9,89.5 C954.9,89.8 954.5,90.2 954,90.2 Z M1085.4,89.6 C1085.1,89.6 1084.9,89.5 1084.7,89.3 L1081.9,86.5 C1081.5,86.1 1081.5,85.5 1081.9,85.1 C1082.3,84.7 1082.9,84.7 1083.3,85.1 L1086.1,87.9 C1086.5,88.3 1086.5,88.9 1086.1,89.3 C1085.9,89.5 1085.7,89.6 1085.4,89.6 Z M1078.4,82.5 C1078.1,82.5 1077.9,82.4 1077.7,82.2 L1074.9,79.4 C1074.5,79 1074.5,78.4 1074.9,78 C1075.3,77.6 1075.9,77.6 1076.3,78 L1079.1,80.8 C1079.5,81.2 1079.5,81.8 1079.1,82.2 C1078.9,82.4 1078.6,82.5 1078.4,82.5 Z M956.4,80.5 C956.3,80.5 956.2,80.5 956.1,80.4 C955.6,80.2 955.3,79.7 955.5,79.1 C955.9,77.8 956.4,76.5 957,75.3 C957.2,74.8 957.8,74.6 958.3,74.8 C958.8,75 959,75.6 958.8,76.1 C958.3,77.3 957.8,78.5 957.4,79.8 C957.3,80.2 956.9,80.5 956.4,80.5 Z M1071.3,75.5 C1071,75.5 1070.8,75.4 1070.6,75.2 L1067.8,72.4 C1067.4,72 1067.4,71.4 1067.8,71 C1068.2,70.6 1068.8,70.6 1069.2,71 L1072,73.8 C1072.4,74.2 1072.4,74.8 1072,75.2 C1071.8,75.4 1071.5,75.5 1071.3,75.5 Z M960.5,71.3 C960.3,71.3 960.2,71.3 960,71.2 C959.5,70.9 959.3,70.3 959.6,69.8 C960.2,68.6 960.9,67.4 961.7,66.3 C962,65.8 962.6,65.7 963.1,66 C963.6,66.3 963.7,66.9 963.4,67.4 C962.7,68.5 962,69.6 961.4,70.8 C961.2,71.2 960.8,71.3 960.5,71.3 Z M1064.2,68.4 C1063.9,68.4 1063.7,68.3 1063.5,68.1 L1060.7,65.3 C1060.3,64.9 1060.3,64.3 1060.7,63.9 C1061.1,63.5 1061.7,63.5 1062.1,63.9 L1064.9,66.7 C1065.3,67.1 1065.3,67.7 1064.9,68.1 C1064.7,68.3 1064.5,68.4 1064.2,68.4 Z M966,63 C965.8,63 965.6,62.9 965.4,62.8 C965,62.5 964.9,61.8 965.2,61.4 C966,60.4 966.9,59.3 967.8,58.3 C968.2,57.9 968.8,57.9 969.2,58.2 C969.6,58.6 969.6,59.2 969.3,59.6 C968.4,60.6 967.6,61.6 966.7,62.6 C966.6,62.9 966.3,63 966,63 Z M1057.1,61.3 C1056.8,61.3 1056.6,61.2 1056.4,61 L1053.6,58.2 C1053.2,57.8 1053.2,57.2 1053.6,56.8 C1054,56.4 1054.6,56.4 1055,56.8 L1057.8,59.6 C1058.2,60 1058.2,60.6 1057.8,61 C1057.7,61.2 1057.4,61.3 1057.1,61.3 Z M972.9,55.8 C972.6,55.8 972.4,55.7 972.2,55.5 C971.8,55.1 971.9,54.5 972.3,54.1 C973.3,53.2 974.4,52.3 975.4,51.5 C975.8,51.2 976.5,51.2 976.8,51.7 C977.1,52.1 977.1,52.8 976.6,53.1 C975.6,53.9 974.6,54.8 973.6,55.6 C973.3,55.7 973.1,55.8 972.9,55.8 Z M1049.9,54.4 C1049.7,54.4 1049.4,54.3 1049.3,54.2 C1048.3,53.4 1047.3,52.5 1046.2,51.8 C1045.8,51.5 1045.7,50.8 1046,50.4 C1046.3,50 1046.9,49.9 1047.4,50.2 C1048.5,51 1049.6,51.8 1050.6,52.7 C1051,53.1 1051.1,53.7 1050.7,54.1 C1050.5,54.3 1050.2,54.4 1049.9,54.4 Z M980.8,49.8 C980.5,49.8 980.1,49.6 980,49.3 C979.7,48.8 979.8,48.2 980.3,47.9 C981.4,47.2 982.6,46.5 983.8,45.9 C984.3,45.6 984.9,45.8 985.2,46.3 C985.5,46.8 985.3,47.4 984.8,47.7 C983.7,48.3 982.5,49 981.4,49.7 C981.2,49.7 981,49.8 980.8,49.8 Z M1041.7,48.7 C1041.5,48.7 1041.4,48.7 1041.2,48.6 C1040.1,47.9 1038.9,47.3 1037.7,46.7 C1037.2,46.5 1037,45.9 1037.2,45.4 C1037.4,44.9 1038,44.7 1038.5,44.9 C1039.7,45.5 1040.9,46.1 1042.1,46.8 C1042.6,47.1 1042.7,47.7 1042.5,48.2 C1042.4,48.5 1042.1,48.7 1041.7,48.7 Z M989.7,45.2 C989.3,45.2 988.9,45 988.8,44.6 C988.6,44.1 988.8,43.5 989.3,43.3 C990.6,42.8 991.8,42.3 993.1,41.9 C993.6,41.7 994.2,42 994.4,42.5 C994.6,43 994.3,43.6 993.8,43.8 C992.6,44.2 991.3,44.7 990.1,45.2 C990,45.2 989.9,45.2 989.7,45.2 Z M1032.7,44.4 C1032.6,44.4 1032.5,44.4 1032.4,44.3 C1031.2,43.8 1029.9,43.4 1028.7,43.1 C1028.2,42.9 1027.9,42.4 1028,41.9 C1028.2,41.4 1028.7,41.1 1029.2,41.2 C1030.5,41.6 1031.8,42 1033.1,42.5 C1033.6,42.7 1033.9,43.3 1033.7,43.8 C1033.5,44.2 1033.1,44.4 1032.7,44.4 Z M999.2,42.2 C998.7,42.2 998.3,41.9 998.2,41.4 C998.1,40.9 998.4,40.3 999,40.2 C1000.3,39.9 1001.7,39.7 1003,39.4 C1003.5,39.3 1004.1,39.7 1004.1,40.2 C1004.1,40.7 1003.8,41.3 1003.3,41.3 C1002,41.5 1000.7,41.7 999.4,42 C999.4,42.2 999.3,42.2 999.2,42.2 Z M1023.1,41.8 C1023,41.8 1023,41.8 1022.9,41.8 C1021.6,41.6 1020.3,41.4 1019,41.2 C1018.5,41.1 1018.1,40.6 1018.1,40.1 C1018.1,39.6 1018.7,39.2 1019.2,39.2 C1020.5,39.4 1021.9,39.6 1023.2,39.8 C1023.7,39.9 1024.1,40.4 1024,41 C1024,41.4 1023.6,41.8 1023.1,41.8 Z M1009.1,40.8 C1008.6,40.8 1008.1,40.4 1008.1,39.9 C1008.1,39.3 1008.5,38.9 1009,38.8 C1010,38.7 1011.1,38.7 1012.1,38.7 C1012.4,38.7 1012.8,38.7 1013.1,38.7 C1013.7,38.7 1014.1,39.2 1014.1,39.7 C1014.1,40.2 1013.6,40.7 1013.1,40.7 C1013.1,40.7 1013.1,40.7 1013.1,40.7 C1012.8,40.7 1012.4,40.7 1012.1,40.7 C1011.1,40.7 1010.2,40.8 1009.1,40.8 C1009.2,40.8 1009.2,40.8 1009.1,40.8 Z" id="Shape" fill="#443356" opacity="0.58"></path>
                <path d="M1097,258.5 C1098.5,261.6 1100,264.6 1101.5,267.7 C1101.5,267.7 1101.4,267.7 1101.4,267.8 C1100.6,268.4 1099.7,269 1098.9,269.5 C1098.1,270 1097.4,270.6 1096.6,271.1 C1096.4,271.2 1096.4,271.3 1096.4,271.5 C1096.7,273.1 1096.7,274.6 1096.7,276.2 C1096.7,276.3 1096.7,276.4 1096.8,276.4 C1098.6,277.4 1100.4,278.3 1102.2,279.3 C1102.2,279.3 1102.3,279.3 1102.3,279.4 C1101.2,282.6 1100.1,285.8 1099,289 C1099,289 1098.9,289 1098.9,289 C1096.9,288.7 1094.9,288.3 1092.9,288 C1092.8,288 1092.7,288 1092.6,288.1 C1091.6,289.4 1090.6,290.7 1089.4,291.8 C1089.3,291.9 1089.3,291.9 1089.3,292 C1089.9,294 1090.5,295.9 1091.1,297.9 C1088,299.4 1085,300.9 1081.9,302.4 C1081.9,302.4 1081.9,302.3 1081.9,302.3 C1080.8,300.8 1079.7,299.2 1078.6,297.7 C1078.4,297.5 1078.3,297.4 1078,297.4 C1076.4,297.7 1074.9,297.8 1073.3,297.7 C1073.2,297.7 1073.1,297.7 1073.1,297.8 C1072.1,299.6 1071.2,301.4 1070.2,303.1 C1070.2,303.2 1070.1,303.2 1070.1,303.3 C1066.9,302.2 1063.7,301.1 1060.5,300 C1060.5,300 1060.5,299.9 1060.5,299.9 C1060.8,297.9 1061.2,295.9 1061.5,293.8 C1061.5,293.7 1061.5,293.6 1061.4,293.6 C1060.1,292.6 1058.8,291.6 1057.7,290.4 C1057.6,290.3 1057.6,290.3 1057.5,290.4 C1057.2,290.5 1056.9,290.6 1056.6,290.7 C1055.3,291.1 1054,291.5 1052.6,291.9 C1052.2,292 1051.9,292.1 1051.5,292.2 C1050,289.1 1048.5,286.1 1047,283 C1047,283 1047.1,282.9 1047.1,282.9 C1047.9,282.3 1048.7,281.8 1049.5,281.2 C1050.4,280.6 1051.2,280 1052.1,279.4 C1052.2,279.4 1052.2,279.3 1052.2,279.2 C1051.9,277.5 1051.8,275.9 1051.8,274.2 C1051.8,274.1 1051.8,274 1051.7,274 C1049.9,273.1 1048.2,272.1 1046.4,271.2 C1046.3,271.2 1046.3,271.1 1046.2,271.1 C1047.3,267.9 1048.5,264.6 1049.6,261.4 C1049.7,261.4 1049.7,261.4 1049.7,261.4 C1051.6,261.7 1053.5,262 1055.5,262.3 C1055.7,262.3 1055.8,262.3 1056,262.1 C1056.9,260.8 1057.9,259.6 1059.1,258.5 C1059.1,258.5 1059.2,258.4 1059.1,258.3 C1059.1,258.1 1059,257.9 1058.9,257.7 C1058.4,256.2 1058,254.7 1057.5,253.2 C1057.4,252.9 1057.3,252.6 1057.2,252.3 C1057.2,252.3 1057.3,252.3 1057.3,252.3 C1060.3,250.8 1063.3,249.4 1066.3,247.9 C1066.4,247.9 1066.4,247.9 1066.5,247.9 C1067.7,249.5 1068.8,251.2 1070,252.8 C1070,252.9 1070.1,252.9 1070.2,252.9 C1071.8,252.6 1073.5,252.5 1075.1,252.6 C1075.2,252.6 1075.3,252.6 1075.3,252.5 C1076.3,250.8 1077.2,249.1 1078.2,247.4 C1078.3,247.3 1078.3,247.2 1078.4,247.1 C1081.6,248.2 1084.9,249.4 1088.1,250.5 C1088.1,250.6 1088.1,250.6 1088.1,250.7 C1087.8,252.7 1087.4,254.6 1087.1,256.6 C1087.1,256.7 1087.1,256.7 1087.2,256.8 C1088.6,257.7 1089.8,258.8 1090.9,260.1 C1091,260.2 1091,260.2 1091.1,260.2 C1091.9,260 1092.7,259.7 1093.5,259.5 C1094.3,259.3 1095.1,259 1095.9,258.8 C1096.1,258.7 1096.5,258.6 1097,258.5 Z M1078.9,285 C1084.2,282.4 1086.4,276 1083.8,270.7 C1081.2,265.4 1074.8,263.2 1069.5,265.8 C1064.2,268.4 1062,274.8 1064.6,280.1 C1067.2,285.4 1073.6,287.6 1078.9,285 Z" id="Shape" fill="#443356"></path>
                <path d="M28.7,119.9 C29.6,121.6 30.4,123.4 31.3,125.1 C31.3,125.1 31.2,125.1 31.2,125.1 C30.7,125.4 30.3,125.8 29.8,126.1 C29.4,126.4 28.9,126.7 28.5,127 C28.4,127.1 28.4,127.1 28.4,127.2 C28.6,128.1 28.6,129 28.6,129.9 C28.6,130 28.6,130 28.7,130 C29.7,130.5 30.7,131.1 31.8,131.7 C31.8,131.7 31.8,131.7 31.9,131.7 C31.3,133.5 30.7,135.4 30,137.2 C30,137.2 30,137.2 29.9,137.2 C28.8,137 27.6,136.8 26.5,136.6 C26.4,136.6 26.4,136.6 26.4,136.7 C25.9,137.5 25.3,138.2 24.6,138.8 C24.6,138.8 24.6,138.9 24.6,138.9 C24.9,140 25.3,141.1 25.6,142.2 C23.9,143.1 22.1,143.9 20.4,144.8 C20.4,144.8 20.4,144.8 20.4,144.8 C19.8,143.9 19.1,143.1 18.5,142.2 C18.4,142.1 18.3,142 18.1,142.1 C17.2,142.3 16.3,142.3 15.4,142.3 C15.3,142.3 15.3,142.3 15.3,142.4 C14.8,143.4 14.2,144.4 13.7,145.4 C13.7,145.4 13.7,145.5 13.6,145.5 C11.8,144.9 9.9,144.3 8.1,143.6 C8.1,143.6 8.1,143.6 8.1,143.5 C8.3,142.4 8.5,141.2 8.7,140.1 C8.7,140 8.7,140 8.6,140 C7.8,139.5 7.1,138.9 6.5,138.2 C6.5,138.2 6.4,138.2 6.4,138.2 C6.2,138.3 6,138.3 5.9,138.4 C5.1,138.6 4.4,138.9 3.6,139.1 C3.4,139.2 3.2,139.2 3,139.3 C2.1,137.6 1.3,135.8 0.4,134.1 C0.4,134.1 0.4,134.1 0.5,134.1 C1,133.8 1.4,133.5 1.9,133.1 C2.4,132.8 2.9,132.4 3.4,132.1 C3.4,132.1 3.5,132.1 3.4,132 C3.2,131.1 3.2,130.1 3.2,129.2 C3.2,129.1 3.2,129.1 3.1,129.1 C2.1,128.6 1.1,128 0.1,127.5 C0.1,127.5 0,127.5 0,127.4 C0.6,125.6 1.3,123.7 1.9,121.9 C1.9,121.9 2,121.9 2,121.9 C3.1,122.1 4.2,122.2 5.3,122.4 C5.4,122.4 5.5,122.4 5.6,122.3 C6.1,121.6 6.7,120.9 7.4,120.3 C7.4,120.3 7.4,120.2 7.4,120.2 C7.4,120.1 7.3,120 7.3,119.9 C7,119 6.8,118.2 6.5,117.3 C6.4,117.1 6.4,117 6.3,116.8 C6.3,116.8 6.3,116.8 6.3,116.8 C8,116 9.7,115.1 11.4,114.3 C11.4,114.3 11.5,114.3 11.5,114.3 C12.2,115.2 12.8,116.1 13.5,117.1 C13.5,117.1 13.6,117.1 13.6,117.1 C14.5,116.9 15.4,116.9 16.4,116.9 C16.5,116.9 16.5,116.9 16.5,116.8 C17,115.8 17.6,114.9 18.1,113.9 C18.1,113.8 18.2,113.8 18.2,113.7 C20,114.3 21.9,115 23.7,115.6 C23.7,115.6 23.7,115.7 23.7,115.7 C23.5,116.8 23.3,117.9 23.1,119.1 C23.1,119.1 23.1,119.2 23.1,119.2 C23.9,119.7 24.6,120.3 25.2,121.1 C25.2,121.1 25.3,121.1 25.3,121.1 C25.8,121 26.2,120.8 26.7,120.7 C27.1,120.6 27.6,120.4 28,120.3 C28.2,120 28.4,120 28.7,119.9 Z M18.4,134.9 C21.4,133.4 22.7,129.8 21.2,126.8 C19.7,123.8 16.1,122.6 13.1,124 C10.1,125.5 8.9,129.1 10.3,132.1 C11.7,135.2 15.4,136.4 18.4,134.9 Z" id="Shape" fill="#443356"></path>
                <g transform="translate(32.000000, 16.000000)">
                    <g id="Shape">
                        <path d="M30,38.2 L3.7,38.2 C2.1,38.2 0.8,36.9 0.8,35.3 L0.8,9 C0.8,7.4 2.1,6.1 3.7,6.1 L30,6.1 C31.6,6.1 32.9,7.4 32.9,9 L32.9,35.3 C32.9,36.9 31.6,38.2 30,38.2 Z" fill="#443356" opacity="0.35"></path>
                        <g transform="translate(4.000000, 0.000000)">
                            <path d="M29.2,33.5 L5.2,33.5 C2.9,33.5 1.1,31.7 1.1,29.4 L1.1,5.4 C1.1,3.1 2.9,1.3 5.2,1.3 L29.2,1.3 C31.5,1.3 33.3,3.1 33.3,5.4 L33.3,29.4 C33.3,31.7 31.4,33.5 29.2,33.5 Z" fill="#FFFFFF"></path>
                            <path d="M29.2,34.5 L5.2,34.5 C2.4,34.5 0.1,32.2 0.1,29.4 L0.1,5.4 C0.1,2.6 2.4,0.3 5.2,0.3 L29.2,0.3 C32,0.3 34.3,2.6 34.3,5.4 L34.3,29.4 C34.3,32.2 32,34.5 29.2,34.5 Z M5.2,2.3 C3.5,2.3 2.1,3.7 2.1,5.4 L2.1,29.4 C2.1,31.1 3.5,32.5 5.2,32.5 L29.2,32.5 C30.9,32.5 32.3,31.1 32.3,29.4 L32.3,5.4 C32.3,3.7 30.9,2.3 29.2,2.3 L5.2,2.3 Z" fill="#443356"></path>
                        </g>
                    </g>
                    <g transform="translate(46.000000, 0.000000)" id="Shape">
                        <path d="M30,38.2 L3.7,38.2 C2.1,38.2 0.8,36.9 0.8,35.3 L0.8,9 C0.8,7.4 2.1,6.1 3.7,6.1 L30,6.1 C31.6,6.1 32.9,7.4 32.9,9 L32.9,35.3 C32.9,36.9 31.6,38.2 30,38.2 Z" fill="#443356" opacity="0.35"></path>
                        <g transform="translate(4.000000, 0.000000)">
                            <path d="M29.2,33.5 L5.2,33.5 C2.9,33.5 1.1,31.7 1.1,29.4 L1.1,5.4 C1.1,3.1 2.9,1.3 5.2,1.3 L29.2,1.3 C31.5,1.3 33.3,3.1 33.3,5.4 L33.3,29.4 C33.3,31.7 31.4,33.5 29.2,33.5 Z" fill="#C659D1"></path>
                            <path d="M29.2,34.5 L5.2,34.5 C2.4,34.5 0.1,32.2 0.1,29.4 L0.1,5.4 C0.1,2.6 2.4,0.3 5.2,0.3 L29.2,0.3 C32,0.3 34.3,2.6 34.3,5.4 L34.3,29.4 C34.3,32.2 32,34.5 29.2,34.5 Z M5.2,2.3 C3.5,2.3 2.1,3.7 2.1,5.4 L2.1,29.4 C2.1,31.1 3.5,32.5 5.2,32.5 L29.2,32.5 C30.9,32.5 32.3,31.1 32.3,29.4 L32.3,5.4 C32.3,3.7 30.9,2.3 29.2,2.3 L5.2,2.3 Z" fill="#443356"></path>
                        </g>
                    </g>
                    <g transform="translate(92.000000, 0.000000)" id="Shape">
                        <path d="M30,38.2 L3.7,38.2 C2.1,38.2 0.8,36.9 0.8,35.3 L0.8,9 C0.8,7.4 2.1,6.1 3.7,6.1 L30,6.1 C31.6,6.1 32.9,7.4 32.9,9 L32.9,35.3 C32.9,36.9 31.6,38.2 30,38.2 Z" fill="#443356" opacity="0.35"></path>
                        <g transform="translate(4.000000, 0.000000)">
                            <path d="M29.2,33.5 L5.2,33.5 C2.9,33.5 1.1,31.7 1.1,29.4 L1.1,5.4 C1.1,3.1 2.9,1.3 5.2,1.3 L29.2,1.3 C31.5,1.3 33.3,3.1 33.3,5.4 L33.3,29.4 C33.3,31.7 31.5,33.5 29.2,33.5 Z" fill="#FFFFFF"></path>
                            <path d="M29.2,34.5 L5.2,34.5 C2.4,34.5 0.1,32.2 0.1,29.4 L0.1,5.4 C0.1,2.6 2.4,0.3 5.2,0.3 L29.2,0.3 C32,0.3 34.3,2.6 34.3,5.4 L34.3,29.4 C34.3,32.2 32,34.5 29.2,34.5 Z M5.2,2.3 C3.5,2.3 2.1,3.7 2.1,5.4 L2.1,29.4 C2.1,31.1 3.5,32.5 5.2,32.5 L29.2,32.5 C30.9,32.5 32.3,31.1 32.3,29.4 L32.3,5.4 C32.3,3.7 30.9,2.3 29.2,2.3 L5.2,2.3 Z" fill="#443356"></path>
                        </g>
                    </g>
                    <g transform="translate(56.000000, 6.000000)" fill="#443356">
                        <path d="M15.6,15.8 L0,15.8 L0,0.2 L15.6,0.2 L15.6,15.8 Z M2,13.8 L13.6,13.8 L13.6,2.2 L2,2.2 L2,13.8 Z" id="Shape"></path>
                        <path d="M22.4,22.6 L6.8,22.6 L6.8,7 L22.4,7 L22.4,22.6 Z M8.8,20.6 L20.4,20.6 L20.4,9 L8.8,9 L8.8,20.6 Z" id="Shape"></path>
                        <rect id="Rectangle-path" x="7.8" y="8" width="6.8" height="6.8"></rect>
                    </g>
                    <g transform="translate(9.000000, 6.000000)" fill="#443356" id="Shape">
                        <path d="M20.1,21.4 L20.1,10.5 L10.6,1 C10.4,0.8 10.5,0.3 10.9,0.3 C13.8,0.3 16.6,1.5 18.7,3.5 L20,5 C21.3,6.3 22.1,8.2 22.1,10.1 L22.1,21.4 C22.1,22 21.6,22.4 21.1,22.4 C20.5,22.4 20.1,22 20.1,21.4 Z"></path>
                        <path d="M11.6,21.9 L0.8,11.1 L10.2,1.7 C10.6,1.3 11.2,1.3 11.6,1.7 C12,2.1 12,2.7 11.6,3.1 L3.7,11 L11.7,19 L19.6,11.1 C20,10.7 20.6,10.7 21,11.1 C21.4,11.5 21.4,12.1 21,12.5 L11.6,21.9 Z"></path>
                        <path d="M16.7,12.4 C16.6,12.4 16.5,12.4 16.4,12.3 L15.5,12 C12.9,11.1 10.9,8.9 10.3,6.3 C10.2,5.8 10.5,5.2 11.1,5.1 C11.6,5 12.2,5.3 12.3,5.9 C12.8,7.9 14.2,9.5 16.2,10.2 L17.1,10.5 C17.6,10.7 17.9,11.2 17.7,11.8 C17.5,12.2 17.1,12.4 16.7,12.4 Z"></path>
                    </g>
                    <path d="M120.2,27.1 L113.2,23.4 L106.2,27.1 L107.5,19.3 L101.8,13.8 L109.7,12.7 L113.2,5.6 L116.7,12.7 L124.6,13.8 L118.9,19.3 L120.2,27.1 Z M113.2,21.1 L117.6,23.4 L116.8,18.5 L120.3,15 L115.4,14.3 L113.2,9.9 L111,14.3 L106.1,15 L109.6,18.5 L108.8,23.4 L113.2,21.1 Z" id="Shape" fill="#443356"></path>
                </g>
                <path d="M264.4,57.2 L261.3,57.2 L261.3,54.1 C261.3,53.5 260.8,53.1 260.3,53.1 C259.7,53.1 259.3,53.6 259.3,54.1 L259.3,57.2 L256.2,57.2 C255.6,57.2 255.2,57.7 255.2,58.2 C255.2,58.8 255.7,59.2 256.2,59.2 L259.3,59.2 L259.3,62.3 C259.3,62.9 259.8,63.3 260.3,63.3 C260.9,63.3 261.3,62.8 261.3,62.3 L261.3,59.2 L264.4,59.2 C265,59.2 265.4,58.7 265.4,58.2 C265.4,57.7 264.9,57.2 264.4,57.2 Z" id="Shape" fill="#443356" opacity="0.5"></path>
                <path d="M72.6,303.6 L69.5,303.6 L69.5,300.5 C69.5,299.9 69,299.5 68.5,299.5 C67.9,299.5 67.5,300 67.5,300.5 L67.5,303.6 L64.4,303.6 C63.8,303.6 63.4,304.1 63.4,304.6 C63.4,305.2 63.9,305.6 64.4,305.6 L67.5,305.6 L67.5,308.7 C67.5,309.3 68,309.7 68.5,309.7 C69.1,309.7 69.5,309.2 69.5,308.7 L69.5,305.6 L72.6,305.6 C73.2,305.6 73.6,305.1 73.6,304.6 C73.6,304 73.1,303.6 72.6,303.6 Z" id="Shape" fill="#443356" opacity="0.5"></path>
                <path d="M961.1,235.7 L958,235.7 L958,232.6 C958,232 957.5,231.6 957,231.6 C956.5,231.6 956,232.1 956,232.6 L956,235.7 L952.9,235.7 C952.3,235.7 951.9,236.2 951.9,236.7 C951.9,237.2 952.4,237.7 952.9,237.7 L956,237.7 L956,240.8 C956,241.4 956.5,241.8 957,241.8 C957.5,241.8 958,241.3 958,240.8 L958,237.7 L961.1,237.7 C961.7,237.7 962.1,237.2 962.1,236.7 C962.1,236.2 961.6,235.7 961.1,235.7 Z" id="Shape" fill="#443356" opacity="0.5"></path>
                <path d="M912.4,38.1 L909.3,38.1 L909.3,35 C909.3,34.4 908.8,34 908.3,34 C907.8,34 907.3,34.5 907.3,35 L907.3,38.1 L904.2,38.1 C903.6,38.1 903.2,38.6 903.2,39.1 C903.2,39.7 903.7,40.1 904.2,40.1 L907.3,40.1 L907.3,43.2 C907.3,43.8 907.8,44.2 908.3,44.2 C908.8,44.2 909.3,43.7 909.3,43.2 L909.3,40.1 L912.4,40.1 C913,40.1 913.4,39.6 913.4,39.1 C913.4,38.6 912.9,38.1 912.4,38.1 Z" id="Shape" fill="#443356" opacity="0.5"></path>
                <path d="M181.8,132.8 C179.4,132.8 177.5,134.7 177.5,137.1 C177.5,139.5 179.4,141.4 181.8,141.4 C184.2,141.4 186.1,139.5 186.1,137.1 C186.1,134.7 184.2,132.8 181.8,132.8 Z M181.8,139.3 C180.6,139.3 179.6,138.3 179.6,137.1 C179.6,135.9 180.6,134.9 181.8,134.9 C183,134.9 184,135.9 184,137.1 C184.1,138.3 183.1,139.3 181.8,139.3 Z" id="Shape" fill="#443356"></path>
                <path d="M886.4,303.4 C882.9,303.4 880.1,306.2 880.1,309.7 C880.1,313.2 882.9,316 886.4,316 C889.9,316 892.7,313.2 892.7,309.7 C892.7,306.2 889.9,303.4 886.4,303.4 Z M886.4,312.9 C884.6,312.9 883.1,311.4 883.1,309.6 C883.1,307.8 884.6,306.3 886.4,306.3 C888.2,306.3 889.7,307.8 889.7,309.6 C889.7,311.5 888.3,312.9 886.4,312.9 Z" id="Shape" fill="#443356" opacity="0.5"></path>
                <path d="M1017.7,96.9 C1015.3,96.9 1013.4,98.8 1013.4,101.2 C1013.4,103.6 1015.3,105.5 1017.7,105.5 C1020.1,105.5 1022,103.6 1022,101.2 C1022,98.8 1020,96.9 1017.7,96.9 Z M1017.7,103.4 C1016.5,103.4 1015.5,102.4 1015.5,101.2 C1015.5,100 1016.5,99 1017.7,99 C1018.9,99 1019.9,100 1019.9,101.2 C1019.9,102.4 1018.9,103.4 1017.7,103.4 Z" id="Shape" fill="#443356" opacity="0.5"></path>
                <g transform="translate(103.000000, 182.000000)">
                    <path d="M250.9,114.4 L244.9,114.4 L244.9,112.4 L248.9,112.4 L248.9,111.3 L250.9,111.3 L250.9,114.4 Z M240.9,114.4 L235.9,114.4 L235.9,112.4 L240.9,112.4 L240.9,114.4 Z M231.9,114.4 L226.9,114.4 L226.9,112.4 L231.9,112.4 L231.9,114.4 Z M222.9,114.4 L217.9,114.4 L217.9,112.4 L222.9,112.4 L222.9,114.4 Z M213.9,114.4 L208.9,114.4 L208.9,112.4 L213.9,112.4 L213.9,114.4 Z M204.9,114.4 L199.9,114.4 L199.9,112.4 L204.9,112.4 L204.9,114.4 Z M195.9,114.4 L190.9,114.4 L190.9,112.4 L195.9,112.4 L195.9,114.4 Z M186.9,114.4 L181.9,114.4 L181.9,112.4 L186.9,112.4 L186.9,114.4 Z M177.9,114.4 L172.9,114.4 L172.9,112.4 L177.9,112.4 L177.9,114.4 Z M168.9,114.4 L163.9,114.4 L163.9,112.4 L168.9,112.4 L168.9,114.4 Z M159.9,114.4 L154.9,114.4 L154.9,112.4 L159.9,112.4 L159.9,114.4 Z M150.9,114.4 L145.9,114.4 L145.9,112.4 L150.9,112.4 L150.9,114.4 Z M141.9,114.4 L136.9,114.4 L136.9,112.4 L141.9,112.4 L141.9,114.4 Z M132.9,114.4 L127.9,114.4 L127.9,112.4 L132.9,112.4 L132.9,114.4 Z M123.9,114.4 L118.9,114.4 L118.9,112.4 L123.9,112.4 L123.9,114.4 Z M114.9,114.4 L109.9,114.4 L109.9,112.4 L114.9,112.4 L114.9,114.4 Z M105.9,114.4 L100.9,114.4 L100.9,112.4 L105.9,112.4 L105.9,114.4 Z M96.9,114.4 L91.9,114.4 L91.9,112.4 L96.9,112.4 L96.9,114.4 Z M87.9,114.4 L82.9,114.4 L82.9,112.4 L87.9,112.4 L87.9,114.4 Z M78.9,114.4 L73.9,114.4 L73.9,112.4 L78.9,112.4 L78.9,114.4 Z M69.9,114.4 L64.9,114.4 L64.9,112.4 L69.9,112.4 L69.9,114.4 Z M60.9,114.4 L55.9,114.4 L55.9,112.4 L60.9,112.4 L60.9,114.4 Z M51.9,114.4 L46.9,114.4 L46.9,112.4 L51.9,112.4 L51.9,114.4 Z M42.9,114.4 L37.9,114.4 L37.9,112.4 L42.9,112.4 L42.9,114.4 Z M33.9,114.4 L28.9,114.4 L28.9,112.4 L33.9,112.4 L33.9,114.4 Z M24.9,114.4 L19.9,114.4 L19.9,112.4 L24.9,112.4 L24.9,114.4 Z M15.9,114.4 L10.9,114.4 L10.9,112.4 L15.9,112.4 L15.9,114.4 Z M6.9,114.4 L1.9,114.4 L1.9,112.4 L6.9,112.4 L6.9,114.4 Z M2.3,110 L0.3,110 L0.3,105 L2.3,105 L2.3,110 Z M250.9,107.3 L248.9,107.3 L248.9,102.3 L250.9,102.3 L250.9,107.3 Z M2.3,101 L0.3,101 L0.3,96 L2.3,96 L2.3,101 Z M250.9,98.3 L248.9,98.3 L248.9,93.3 L250.9,93.3 L250.9,98.3 Z M2.3,92 L0.3,92 L0.3,87 L2.3,87 L2.3,92 Z M250.9,89.3 L248.9,89.3 L248.9,84.3 L250.9,84.3 L250.9,89.3 Z M2.3,83 L0.3,83 L0.3,78 L2.3,78 L2.3,83 Z M250.9,80.3 L248.9,80.3 L248.9,75.3 L250.9,75.3 L250.9,80.3 Z M2.3,74 L0.3,74 L0.3,69 L2.3,69 L2.3,74 Z M250.9,71.3 L248.9,71.3 L248.9,66.3 L250.9,66.3 L250.9,71.3 Z M2.3,65 L0.3,65 L0.3,60 L2.3,60 L2.3,65 Z M250.9,62.3 L248.9,62.3 L248.9,57.3 L250.9,57.3 L250.9,62.3 Z M2.3,56 L0.3,56 L0.3,51 L2.3,51 L2.3,56 Z M250.9,53.3 L248.9,53.3 L248.9,48.3 L250.9,48.3 L250.9,53.3 Z M2.3,47 L0.3,47 L0.3,42 L2.3,42 L2.3,47 Z M250.9,44.3 L248.9,44.3 L248.9,39.3 L250.9,39.3 L250.9,44.3 Z M2.3,38 L0.3,38 L0.3,33 L2.3,33 L2.3,38 Z M250.9,35.3 L248.9,35.3 L248.9,30.3 L250.9,30.3 L250.9,35.3 Z M2.3,29 L0.3,29 L0.3,24 L2.3,24 L2.3,29 Z M250.9,26.3 L248.9,26.3 L248.9,21.3 L250.9,21.3 L250.9,26.3 Z M2.3,20 L0.3,20 L0.3,15 L2.3,15 L2.3,20 Z M250.9,17.3 L248.9,17.3 L248.9,12.3 L250.9,12.3 L250.9,17.3 Z M2.3,11 L0.3,11 L0.3,6 L2.3,6 L2.3,11 Z M250.9,8.3 L248.9,8.3 L248.9,3.3 L250.9,3.3 L250.9,8.3 Z M2.3,2 L0.3,2 L0.3,0 L5.3,0 L5.3,2 L2.3,2 Z M248.2,2 L243.2,2 L243.2,0 L248.2,0 L248.2,2 Z M239.2,2 L234.2,2 L234.2,0 L239.2,0 L239.2,2 Z M230.2,2 L225.2,2 L225.2,0 L230.2,0 L230.2,2 Z M221.2,2 L216.2,2 L216.2,0 L221.2,0 L221.2,2 Z M212.2,2 L207.2,2 L207.2,0 L212.2,0 L212.2,2 Z M203.2,2 L198.2,2 L198.2,0 L203.2,0 L203.2,2 Z M194.2,2 L189.2,2 L189.2,0 L194.2,0 L194.2,2 Z M185.2,2 L180.2,2 L180.2,0 L185.2,0 L185.2,2 Z M176.2,2 L171.2,2 L171.2,0 L176.2,0 L176.2,2 Z M167.2,2 L162.2,2 L162.2,0 L167.2,0 L167.2,2 Z M158.2,2 L153.2,2 L153.2,0 L158.2,0 L158.2,2 Z M149.2,2 L144.2,2 L144.2,0 L149.2,0 L149.2,2 Z M140.2,2 L135.2,2 L135.2,0 L140.2,0 L140.2,2 Z M131.2,2 L126.2,2 L126.2,0 L131.2,0 L131.2,2 Z M122.2,2 L117.2,2 L117.2,0 L122.2,0 L122.2,2 Z M113.2,2 L108.2,2 L108.2,0 L113.2,0 L113.2,2 Z M104.2,2 L99.2,2 L99.2,0 L104.2,0 L104.2,2 Z M95.2,2 L90.2,2 L90.2,0 L95.2,0 L95.2,2 Z M86.2,2 L81.2,2 L81.2,0 L86.2,0 L86.2,2 Z M77.2,2 L72.2,2 L72.2,0 L77.2,0 L77.2,2 Z M68.2,2 L63.2,2 L63.2,0 L68.2,0 L68.2,2 Z M59.2,2 L54.2,2 L54.2,0 L59.2,0 L59.2,2 Z M50.2,2 L45.2,2 L45.2,0 L50.2,0 L50.2,2 Z M41.2,2 L36.2,2 L36.2,0 L41.2,0 L41.2,2 Z M32.2,2 L27.2,2 L27.2,0 L32.2,0 L32.2,2 Z M23.2,2 L18.2,2 L18.2,0 L23.2,0 L23.2,2 Z M14.2,2 L9.2,2 L9.2,0 L14.2,0 L14.2,2 Z" id="Shape" fill="#DF74E8"></path>
                    <g transform="translate(54.000000, 48.000000)" fill="#443356">
                        <path d="M4.4,23.8 L4.4,21.1 L6.2,21.1 C6.7,21.1 7,21 7.1,20.9 C7.2,20.9 7.2,20.8 7.3,20.6 C7.3,20.6 7.4,20.3 7.4,19.1 L7.4,4 L6.9,4 C5.8,4 5,4.2 4.5,4.6 C3.8,5.3 3.3,6.3 3.1,7.6 L3,8.5 L0.4,8.5 L0.4,0.7 L21.5,0.7 L21.5,8.5 L19,8.5 L18.8,7.7 C18.4,6.2 18.1,5.5 17.9,5.2 C17.6,4.8 17.2,4.4 16.6,4.2 C16.5,4.2 16.1,4 15,4 L14.5,4 L14.5,19.2 C14.5,20.4 14.6,20.8 14.6,20.8 C14.6,20.8 14.7,20.9 14.8,21 C14.9,21.1 15.2,21.2 15.7,21.2 L17.5,21.2 L17.5,23.9 L4.4,23.9 L4.4,23.8 Z" id="Shape"></path>
                        <path d="M135.1,23.4 L26.9,23.4 C26.5,23.4 26.1,23.1 26.1,22.6 C26.1,22.1 26.4,21.8 26.9,21.8 L135.1,21.8 C135.5,21.8 135.9,22.1 135.9,22.6 C135.9,23.1 135.5,23.4 135.1,23.4 Z" id="Shape" opacity="0.34"></path>
                        <rect id="Rectangle-path" x="30.8" y="1" width="2" height="17.2"></rect>
                    </g>
                </g>
                <path d="M778.2,324.4 L300.8,324.4 L300.8,302.4 C300.8,301.8 301.2,301.4 301.8,301.4 C302.4,301.4 302.8,301.8 302.8,302.4 L302.8,322.4 L776.2,322.4 L776.2,2.8 L302.8,2.8 L302.8,181.3 C302.8,181.9 302.4,182.3 301.8,182.3 C301.2,182.3 300.8,181.9 300.8,181.3 L300.8,0.8 L778.2,0.8 L778.2,324.4 Z" id="Shape" fill="#443356"></path>
                <g transform="translate(862.000000, 240.000000)" id="Shape">
                    <g>
                        <polygon fill="#FFFFFF" points="1.7 1.3 7.6 35.4 15.3 21.7"></polygon>
                        <path d="M7.6,36.4 C7.5,36.4 7.5,36.4 7.4,36.4 C7,36.3 6.7,36 6.6,35.6 L0.7,1.5 C0.6,1 0.9,0.6 1.3,0.4 C1.7,0.2 2.2,0.4 2.5,0.8 L16.1,21.2 C16.3,21.5 16.3,21.9 16.1,22.2 L8.4,35.9 C8.3,36.2 8,36.4 7.6,36.4 Z M3.5,5.8 L8.1,32.5 L14.1,21.8 L3.5,5.8 Z" fill="#443355"></path>
                    </g>
                    <g>
                        <polygon fill="#FFFFFF" points="1.7 1.3 30.9 19.8 15.3 21.7"></polygon>
                        <path d="M15.3,22.7 C15,22.7 14.7,22.5 14.5,22.3 L0.9,1.9 C0.6,1.5 0.7,1 1,0.6 C1.3,0.3 1.9,0.2 2.3,0.5 L31.5,19 C31.9,19.2 32,19.7 31.9,20.1 C31.8,20.5 31.5,20.8 31,20.9 L15.4,22.7 C15.4,22.7 15.3,22.7 15.3,22.7 Z M5.1,4.7 L15.7,20.6 L27.9,19.2 L5.1,4.7 Z" fill="#443355"></path>
                    </g>
                </g>
                <rect id="Rectangle-path" fill="#443356" opacity="0.35" x="648.4" y="137.1" width="187.2" height="59.4"></rect>
                <g transform="translate(651.000000, 132.000000)">
                    <rect id="Rectangle-path" fill="#FFFFFF" x="1.2" y="1.3" width="187.2" height="59.4"></rect>
                    <path d="M189.4,61.7 L0.2,61.7 L0.2,0.3 L189.4,0.3 L189.4,61.7 Z M2.2,59.7 L187.4,59.7 L187.4,2.3 L2.2,2.3 L2.2,59.7 Z" id="Shape" fill="#443356"></path>
                </g>
                <path d="M753.1,161.4 L746.3,161.4 L746.3,154.6 C746.3,153.7 745.6,153.1 744.8,153.1 C743.9,153.1 743.3,153.8 743.3,154.6 L743.3,161.4 L736.5,161.4 C735.6,161.4 735,162.1 735,162.9 C735,163.7 735.7,164.4 736.5,164.4 L743.3,164.4 L743.3,171.2 C743.3,172.1 744,172.7 744.8,172.7 C745.7,172.7 746.3,172 746.3,171.2 L746.3,164.4 L753.1,164.4 C754,164.4 754.6,163.7 754.6,162.9 C754.6,162.1 754,161.4 753.1,161.4 Z" id="Shape" fill="#DF74E8"></path>
                <g transform="translate(134.000000, 73.000000)">
                    <g transform="translate(21.000000, 22.000000)">
                        <rect id="Rectangle-path" fill="#FFFFFF" x="1.6" y="1.5" width="172.5" height="59.9"></rect>
                        <path d="M175.1,62.4 L0.6,62.4 L0.6,0.5 L175.1,0.5 L175.1,62.4 Z M2.6,60.4 L173.1,60.4 L173.1,2.5 L2.6,2.5 L2.6,60.4 Z" id="Shape" fill="#443356"></path>
                    </g>
                    <path d="M76.6,34.2 L40.2,34.2 C39.6,34.2 39.2,33.8 39.2,33.2 C39.2,32.6 39.6,32.2 40.2,32.2 L76.6,32.2 C77.2,32.2 77.6,32.6 77.6,33.2 C77.6,33.8 77.2,34.2 76.6,34.2 Z" id="Shape" fill="#443356"></path>
                    <path d="M176.7,42.8 L40.2,42.8 C39.8,42.8 39.4,42.5 39.4,42 C39.4,41.5 39.7,41.2 40.2,41.2 L176.7,41.2 C177.1,41.2 177.5,41.5 177.5,42 C177.5,42.5 177.1,42.8 176.7,42.8 Z" id="Shape" fill="#443356" opacity="0.34"></path>
                    <path d="M161.3,52.3 L40.2,52.3 C39.8,52.3 39.4,52 39.4,51.5 C39.4,51 39.7,50.7 40.2,50.7 L161.3,50.7 C161.7,50.7 162.1,51 162.1,51.5 C162.1,52 161.8,52.3 161.3,52.3 Z" id="Shape" fill="#443356" opacity="0.34"></path>
                    <path d="M176.7,61.9 L40.2,61.9 C39.8,61.9 39.4,61.6 39.4,61.1 C39.4,60.6 39.7,60.3 40.2,60.3 L176.7,60.3 C177.1,60.3 177.5,60.6 177.5,61.1 C177.5,61.6 177.1,61.9 176.7,61.9 Z" id="Shape" fill="#443356" opacity="0.34"></path>
                    <path d="M161.3,71.5 L40.2,71.5 C39.8,71.5 39.4,71.2 39.4,70.7 C39.4,70.2 39.7,69.9 40.2,69.9 L161.3,69.9 C161.7,69.9 162.1,70.2 162.1,70.7 C162.1,71.2 161.8,71.5 161.3,71.5 Z" id="Shape" fill="#443356" opacity="0.34"></path>
                    <path d="M18.6,0.6 C8.5,0.6 0.3,8.8 0.3,18.9 C0.3,29 8.5,37.2 18.6,37.2 C28.7,37.2 36.9,29 36.9,18.9 C36.9,8.8 28.7,0.6 18.6,0.6 Z M26.9,15.9 L16.4,26.4 C16.1,26.7 15.7,26.8 15.3,26.8 C14.9,26.8 14.5,26.6 14.2,26.4 L9.6,21.8 C9,21.2 9,20.3 9.6,19.7 C10.2,19.1 11.1,19.1 11.7,19.7 L15.2,23.2 L24.7,13.7 C25.3,13.1 26.2,13.1 26.8,13.7 C27.4,14.3 27.4,15.3 26.9,15.9 Z" id="Shape" fill="#DF74E8"></path>
                </g>
            </g>
        </g>
    </g>
</svg>