<?xml version="1.0" encoding="utf-8"?>
<!-- Generator: Adobe Illustrator 16.0.0, SVG Export Plug-In . SVG Version: 6.00 Build 0)  -->
<!DOCTYPE svg PUBLIC "-//W3C//DTD SVG 1.1//EN" "http://www.w3.org/Graphics/SVG/1.1/DTD/svg11.dtd">
<svg version="1.1" id="Layer_1" xmlns="http://www.w3.org/2000/svg" xmlns:xlink="http://www.w3.org/1999/xlink" x="0px" y="0px"
	 width="371px" height="366.055px" viewBox="0 0 371 366.055" enable-background="new 0 0 371 366.055" xml:space="preserve">
<g>
	<g>
		<path fill="#DBCFF0" d="M332.848,128.795v85.273c0,2.895-2.031,4.068-4.539,2.621l-115.205-66.514
			c-2.508-1.448-4.541-4.968-4.541-7.863V57.04L332.848,128.795z"/>
	</g>
	<path fill="#DADBED" d="M234.584,211.327c-0.232,0-0.457-0.12-0.582-0.335c-0.186-0.321-0.076-0.732,0.246-0.919l9.109-5.269
		c1.033-0.596,1.674-1.71,1.674-2.903v-7.048c0-0.371,0.301-0.672,0.672-0.672s0.672,0.301,0.672,0.672v7.048
		c0,1.672-0.898,3.23-2.346,4.067l-9.109,5.269C234.814,211.298,234.699,211.327,234.584,211.327z"/>
	<g>
		<g>
			<g>
				<g>
					
						<rect x="227.555" y="207.096" transform="matrix(0.4975 0.8674 -0.8674 0.4975 300.5638 -92.7325)" fill="#DADBED" width="5.547" height="11.967"/>
					<path fill="#DADBED" d="M237.477,211.24c0.004-1.251-0.871-2.773-1.951-3.402c-1.082-0.628-1.961-0.124-1.965,1.127
						c-0.004,1.25,0.871,2.773,1.951,3.401C236.594,212.994,237.473,212.49,237.477,211.24z"/>
				</g>
				<g>
					
						<rect x="214.315" y="210.298" transform="matrix(0.4975 0.8675 -0.8675 0.4975 300.5284 -79.415)" fill="#DADBED" width="8.987" height="18.77"/>
					<path fill="#B6B8D1" d="M225.465,212.67l3.514-2.014c1.455,1.041,2.594,3.029,2.76,4.811l-3.514,2.015
						C226.77,216.439,225.631,214.452,225.465,212.67z"/>
					<path fill="#DADBED" d="M230.123,216.859c0.006-2.026-1.41-4.494-3.162-5.513s-3.176-0.201-3.182,1.825
						c-0.006,2.025,1.408,4.494,3.16,5.512C228.691,219.702,230.117,218.885,230.123,216.859z"/>
				</g>
			</g>
		</g>
		<path fill="#B6B8D1" d="M234.201,209.955c0.51-0.291,0.51-0.768,0.004-1.062c-0.508-0.295-1.332-0.298-1.84-0.006
			c-0.51,0.292-0.512,0.768-0.004,1.063S233.691,210.247,234.201,209.955z"/>
	</g>
	<path fill="#DADBED" d="M94.362,212.476c-0.113,0-0.229-0.029-0.334-0.09l-7.979-4.593c-0.669-0.384-1.063-1.074-1.056-1.846
		s0.417-1.454,1.094-1.825l51.709-28.311c4.763-2.608,7.722-7.602,7.722-13.033V98.519c0-1.109-0.569-2.11-1.524-2.678
		c-0.953-0.566-2.106-0.589-3.081-0.056l-17.237,9.4c-0.325,0.178-0.733,0.057-0.911-0.269s-0.058-0.733,0.269-0.911l17.237-9.4
		c1.396-0.761,3.045-0.73,4.41,0.08c1.366,0.812,2.182,2.245,2.182,3.833v64.259c0,5.922-3.227,11.369-8.421,14.211L86.732,205.3
		c-0.353,0.194-0.394,0.527-0.396,0.661c-0.001,0.134,0.033,0.467,0.382,0.668l7.979,4.594c0.321,0.184,0.433,0.595,0.247,0.916
		C94.821,212.354,94.594,212.476,94.362,212.476z"/>
	<g>
		<g>
			<g>
				<g>
					
						<rect x="118.926" y="99.88" transform="matrix(0.4975 0.8675 -0.8675 0.4975 152.9894 -52.3722)" fill="#DADBED" width="5.545" height="11.968"/>
					<path fill="#DADBED" d="M128.847,104.025c0.004-1.25-0.869-2.773-1.95-3.401c-1.081-0.629-1.961-0.125-1.965,1.126
						c-0.003,1.25,0.87,2.773,1.951,3.402S128.843,105.275,128.847,104.025z"/>
				</g>
				<g>
					
						<rect x="105.687" y="103.084" transform="matrix(0.4975 0.8675 -0.8675 0.4975 152.9332 -39.0609)" fill="#DADBED" width="8.987" height="18.769"/>
					<path fill="#B6B8D1" d="M116.836,105.456l3.514-2.015c1.454,1.042,2.595,3.029,2.759,4.811l-3.514,2.015
						C118.141,109.224,117.001,107.237,116.836,105.456z"/>
					<path fill="#DADBED" d="M121.494,109.644c0.006-2.026-1.409-4.494-3.161-5.513c-1.752-1.018-3.177-0.201-3.183,1.825
						s1.409,4.494,3.161,5.513C120.063,112.487,121.488,111.67,121.494,109.644z"/>
				</g>
			</g>
		</g>
		<path fill="#B6B8D1" d="M125.573,102.741c0.509-0.292,0.51-0.768,0.003-1.063s-1.331-0.297-1.84-0.005s-0.51,0.767-0.003,1.062
			S125.064,103.033,125.573,102.741z"/>
	</g>
	<g>
		<g>
			<g>
				<g>
					
						<rect x="92.999" y="206.337" transform="matrix(-0.4975 0.8675 -0.8675 -0.4975 327.5992 234.8669)" fill="#DADBED" width="5.545" height="11.968"/>
					<path fill="#DADBED" d="M88.624,210.481c-0.004-1.25,0.869-2.773,1.95-3.401c1.081-0.629,1.961-0.125,1.965,1.126
						c0.003,1.251-0.87,2.773-1.951,3.402C89.506,212.236,88.627,211.732,88.624,210.481z"/>
				</g>
				<g>
					
						<rect x="102.797" y="209.541" transform="matrix(-0.4975 0.8675 -0.8675 -0.4975 350.5783 234.763)" fill="#DADBED" width="8.987" height="18.77"/>
					<path fill="#B6B8D1" d="M100.634,211.912l-3.514-2.015c-1.454,1.042-2.594,3.03-2.759,4.812l3.514,2.015
						C99.33,215.682,100.469,213.693,100.634,211.912z"/>
					<path fill="#DADBED" d="M95.977,216.101c-0.006-2.026,1.409-4.494,3.161-5.513c1.752-1.018,3.177-0.201,3.183,1.825
						s-1.409,4.494-3.161,5.513S95.983,218.127,95.977,216.101z"/>
				</g>
			</g>
		</g>
		<path fill="#B6B8D1" d="M91.898,209.197c-0.509-0.292-0.51-0.768-0.003-1.063s1.331-0.297,1.84-0.005s0.511,0.768,0.003,1.062
			C93.231,209.486,92.407,209.489,91.898,209.197z"/>
	</g>
	<g>
		<g>
			<path fill="#DADBED" d="M191.219,321.819L76.591,255.639c-3.243-1.872-2.836-5.143,0.908-7.305l78.053-45.049
				c3.744-2.161,9.408-2.396,12.651-0.523l114.628,66.18c3.242,1.873,2.836,5.143-0.908,7.305l-78.055,45.049
				C200.125,323.457,194.461,323.691,191.219,321.819z"/>
			<path fill="#24137A" d="M285.018,256.583l-15.668-2.069l-101.146-58.396c-3.243-1.871-8.907-1.637-12.651,0.525l-71.671,41.364
				l-9.475-1.251v5.375l0.009,0.002c-0.062,1.242,0.646,2.438,2.176,3.32l114.627,66.181c3.242,1.872,8.906,1.638,12.65-0.524
				l78.055-45.049c2.105-1.217,3.156-2.783,3.094-4.254l0,0V256.583z"/>
			<path fill="#3B1F9E" d="M209.021,219.684l-7.188-4.148H122.83l-38.948,22.472l-9.475-1.251v5.375l0.009,0.002
				c-0.062,1.242,0.646,2.438,2.176,3.32l114.627,66.181c1.715,0.989,4.104,1.384,6.529,1.224L209.021,219.684z"/>
			<path fill="#4D36F2" d="M78.611,237.311l-4.204-0.555v5.375l0.009,0.002c-0.062,1.242,0.646,2.438,2.176,3.32l2.02,1.166V237.311
				z"/>
			<path fill="#4D36F2" d="M192.373,312.17c3.074,1.166,7.469,0.912,10.75-0.667v-11.991h-10.75V312.17z"/>
			<path fill="#F6F6F6" d="M191.219,306.264l-114.627-66.18c-3.243-1.872-2.836-5.143,0.908-7.305l78.053-45.049
				c3.744-2.161,9.408-2.396,12.651-0.524l114.628,66.181c3.242,1.872,2.836,5.143-0.908,7.305l-78.055,45.049
				C200.125,307.901,194.461,308.137,191.219,306.264z"/>
			<path fill="#C8C8C8" d="M281.924,258.728l-78.055,45.049c-3.744,2.161-9.408,2.396-12.65,0.524L76.591,238.12
				c-1.063-0.613-1.727-1.379-2.016-2.205c-0.508,1.534,0.139,3.085,2.016,4.169l114.627,66.18c3.242,1.873,8.906,1.638,12.65-0.523
				l78.055-45.049c2.516-1.453,3.518-3.406,2.924-5.1C284.479,256.709,283.5,257.816,281.924,258.728z"/>
			<g>
				<path fill="#3B1F9E" d="M125.344,218.174l-5.187-2.994c-0.417-0.24-0.364-0.66,0.116-0.938l6.122-3.535
					c0.48-0.277,1.208-0.308,1.625-0.067l5.187,2.995c0.416,0.24,0.364,0.66-0.117,0.938l-6.122,3.534
					C126.488,218.385,125.76,218.414,125.344,218.174z"/>
				<path fill="#3B1F9E" d="M133.353,222.799l-5.187-2.995c-0.416-0.24-0.364-0.66,0.117-0.938l6.122-3.534
					c0.48-0.278,1.208-0.309,1.624-0.068l5.187,2.995c0.417,0.24,0.364,0.66-0.116,0.938l-6.122,3.535
					C134.498,223.009,133.77,223.039,133.353,222.799z"/>
				<path fill="#3B1F9E" d="M141.363,227.423l-5.187-2.995c-0.416-0.24-0.364-0.66,0.117-0.938l6.121-3.534
					c0.481-0.278,1.209-0.308,1.625-0.067l5.187,2.994c0.416,0.24,0.364,0.66-0.117,0.938l-6.121,3.535
					C142.506,227.633,141.78,227.663,141.363,227.423z"/>
				<path fill="#3B1F9E" d="M152.44,223.604l-5.186-2.994c-0.417-0.24-0.364-0.66,0.116-0.938l5.139-2.968
					c0.481-0.277,1.208-0.308,1.625-0.067l5.187,2.994c0.416,0.241,0.364,0.661-0.117,0.938l-5.139,2.967
					C153.584,223.814,152.857,223.844,152.44,223.604z"/>
				<path fill="#3B1F9E" d="M160.45,228.229l-5.187-2.995c-0.416-0.24-0.364-0.66,0.117-0.938l5.139-2.968
					c0.48-0.277,1.208-0.307,1.625-0.066l5.186,2.994c0.417,0.24,0.364,0.66-0.116,0.938l-5.139,2.967
					C161.593,228.438,160.867,228.469,160.45,228.229z"/>
				<path fill="#3B1F9E" d="M168.459,232.853l-5.187-2.995c-0.417-0.24-0.364-0.66,0.116-0.938l5.14-2.967
					c0.48-0.277,1.208-0.309,1.624-0.067l5.187,2.994c0.416,0.24,0.363,0.66-0.117,0.938l-5.139,2.967
					C169.603,233.063,168.875,233.093,168.459,232.853z"/>
				<path fill="#3B1F9E" d="M176.469,237.477l-5.186-2.994c-0.417-0.24-0.364-0.66,0.116-0.938l5.138-2.967
					c0.482-0.277,1.209-0.308,1.625-0.067l5.188,2.994c0.416,0.24,0.363,0.66-0.117,0.938l-5.139,2.967
					C177.613,237.687,176.885,237.717,176.469,237.477z"/>
				<path fill="#3B1F9E" d="M184.479,242.101l-5.188-2.994c-0.416-0.24-0.363-0.66,0.117-0.938l5.139-2.967
					c0.48-0.277,1.209-0.308,1.625-0.067l5.186,2.995c0.418,0.24,0.365,0.66-0.115,0.938l-5.139,2.967
					C185.621,242.312,184.895,242.341,184.479,242.101z"/>
				<path fill="#3B1F9E" d="M192.488,246.725l-5.188-2.994c-0.416-0.24-0.363-0.66,0.117-0.938l5.139-2.967
					c0.48-0.278,1.209-0.309,1.625-0.068l5.186,2.995c0.418,0.24,0.365,0.66-0.115,0.938l-5.141,2.968
					C193.631,246.936,192.904,246.965,192.488,246.725z"/>
				<path fill="#3B1F9E" d="M200.496,251.35l-5.186-2.994c-0.416-0.241-0.363-0.661,0.117-0.938l5.139-2.967
					c0.48-0.278,1.207-0.308,1.625-0.067l5.186,2.994c0.416,0.24,0.365,0.66-0.117,0.938l-5.139,2.968
					C201.641,251.56,200.914,251.59,200.496,251.35z"/>
				<path fill="#3B1F9E" d="M208.506,255.974l-5.186-2.995c-0.416-0.24-0.365-0.66,0.117-0.938l5.139-2.967
					c0.48-0.277,1.207-0.308,1.625-0.067l5.186,2.994c0.416,0.241,0.363,0.661-0.117,0.938l-5.139,2.967
					C209.65,256.184,208.924,256.214,208.506,255.974z"/>
				<path fill="#3B1F9E" d="M216.516,260.598l-5.186-2.994c-0.418-0.24-0.365-0.66,0.115-0.938l5.141-2.967
					c0.48-0.277,1.207-0.308,1.623-0.067l5.188,2.994c0.416,0.241,0.363,0.661-0.117,0.938l-5.139,2.967
					C217.66,260.809,216.932,260.838,216.516,260.598z"/>
				<path fill="#3B1F9E" d="M224.525,265.223l-5.186-2.995c-0.418-0.24-0.365-0.66,0.115-0.938l5.139-2.967
					c0.482-0.277,1.209-0.308,1.625-0.066l5.188,2.994c0.416,0.24,0.363,0.66-0.117,0.938l-5.139,2.967
					C225.67,265.433,224.941,265.463,224.525,265.223z"/>
				<path fill="#4D36F2" d="M164.242,221.414l-5.187-2.994c-0.416-0.24-0.364-0.66,0.117-0.938l5.139-2.967
					c0.48-0.278,1.208-0.309,1.624-0.068l5.187,2.995c0.417,0.24,0.364,0.66-0.116,0.938l-5.139,2.968
					C165.385,221.625,164.658,221.654,164.242,221.414z"/>
				<path fill="#4D36F2" d="M156.113,216.721l-5.187-2.994c-0.416-0.24-0.364-0.66,0.116-0.938l5.14-2.967
					c0.48-0.278,1.208-0.309,1.624-0.068l5.187,2.995c0.417,0.24,0.364,0.66-0.116,0.938l-5.139,2.968
					C157.256,216.932,156.529,216.962,156.113,216.721z"/>
				<path fill="#3B1F9E" d="M147.97,212.021l-11.17-6.449c-0.416-0.241-0.364-0.661,0.116-0.938l5.14-2.967
					c0.48-0.277,1.208-0.308,1.624-0.067l11.171,6.449c0.416,0.24,0.364,0.66-0.117,0.938l-5.139,2.967
					C149.115,212.23,148.387,212.261,147.97,212.021z"/>
				<path fill="#3B1F9E" d="M153.662,206.303l-9.064-5.233c-0.417-0.24-0.364-0.66,0.116-0.938l5.139-2.967
					c0.481-0.278,1.209-0.308,1.625-0.067l9.065,5.233c0.416,0.24,0.364,0.66-0.117,0.938l-5.139,2.967
					C154.806,206.514,154.079,206.544,153.662,206.303z"/>
				<path fill="#4D36F2" d="M172.251,226.039l-5.187-2.995c-0.417-0.24-0.364-0.66,0.116-0.938l5.14-2.967
					c0.48-0.278,1.208-0.308,1.625-0.067l5.186,2.994c0.418,0.24,0.365,0.66-0.115,0.938l-5.141,2.967
					C173.395,226.249,172.667,226.279,172.251,226.039z"/>
				<path fill="#3B1F9E" d="M180.26,230.663l-5.186-2.995c-0.416-0.24-0.363-0.66,0.117-0.938l5.139-2.967
					c0.48-0.277,1.207-0.308,1.625-0.067l5.186,2.994c0.416,0.241,0.365,0.661-0.117,0.938l-5.139,2.967
					C181.404,230.873,180.678,230.903,180.26,230.663z"/>
				<path fill="#3B1F9E" d="M188.27,235.287l-5.186-2.994c-0.416-0.24-0.365-0.66,0.117-0.938l5.139-2.967
					c0.48-0.277,1.207-0.308,1.625-0.067l5.186,2.994c0.416,0.24,0.363,0.661-0.117,0.938l-5.139,2.967
					C189.414,235.498,188.688,235.527,188.27,235.287z"/>
				<path fill="#3B1F9E" d="M196.279,239.911l-5.186-2.994c-0.418-0.24-0.365-0.66,0.115-0.938l5.141-2.967
					c0.48-0.277,1.207-0.308,1.623-0.066l5.188,2.994c0.416,0.24,0.363,0.66-0.117,0.938l-5.139,2.967
					C197.424,240.121,196.695,240.152,196.279,239.911z"/>
				<path fill="#3B1F9E" d="M204.289,244.535l-5.186-2.994c-0.418-0.24-0.365-0.66,0.115-0.938l5.139-2.967
					c0.482-0.278,1.209-0.309,1.625-0.067l5.188,2.994c0.416,0.24,0.363,0.66-0.117,0.938l-5.139,2.967
					C205.434,244.746,204.705,244.776,204.289,244.535z"/>
				<path fill="#3B1F9E" d="M212.299,249.16l-5.188-2.994c-0.416-0.241-0.363-0.661,0.117-0.938l5.139-2.967
					c0.48-0.277,1.209-0.308,1.625-0.067l5.186,2.994c0.418,0.24,0.365,0.66-0.115,0.938l-5.139,2.967
					C213.441,249.37,212.715,249.4,212.299,249.16z"/>
				<path fill="#3B1F9E" d="M220.309,253.784l-5.188-2.994c-0.416-0.241-0.363-0.661,0.117-0.938l5.139-2.967
					c0.48-0.277,1.209-0.308,1.625-0.067l5.186,2.994c0.418,0.241,0.365,0.661-0.115,0.938l-5.141,2.967
					C221.451,253.994,220.725,254.024,220.309,253.784z"/>
				<path fill="#3B1F9E" d="M228.316,258.408l-5.186-2.994c-0.416-0.24-0.363-0.66,0.117-0.938l5.139-2.968
					c0.48-0.277,1.207-0.308,1.625-0.067l5.186,2.995c0.416,0.24,0.365,0.66-0.117,0.938l-5.139,2.967
					C229.461,258.619,228.734,258.648,228.316,258.408z"/>
				<path fill="#3B1F9E" d="M236.326,263.033l-5.186-2.995c-0.416-0.24-0.365-0.66,0.117-0.938l5.139-2.968
					c0.48-0.277,1.207-0.307,1.625-0.066l5.186,2.994c0.416,0.24,0.363,0.66-0.117,0.938l-5.139,2.967
					C237.471,263.243,236.744,263.273,236.326,263.033z"/>
				<path fill="#3B1F9E" d="M250.566,271.254l-11.316-6.534c-0.418-0.24-0.365-0.66,0.115-0.938l5.141-2.967
					c0.48-0.278,1.207-0.308,1.623-0.067l11.316,6.533c0.418,0.24,0.365,0.66-0.115,0.938l-5.139,2.968
					C251.709,271.464,250.982,271.494,250.566,271.254z"/>
				<path fill="#3B1F9E" d="M266.158,262.251l-9.551-5.515c-0.416-0.24-0.363-0.66,0.117-0.938l5.139-2.967
					c0.48-0.277,1.209-0.308,1.625-0.067l9.551,5.515c0.416,0.24,0.365,0.66-0.117,0.938l-5.139,2.967
					C267.303,262.461,266.576,262.491,266.158,262.251z"/>
				<path fill="#3B1F9E" d="M186.277,225.134l-5.186-2.994c-0.418-0.24-0.365-0.661,0.115-0.938l5.139-2.967
					c0.482-0.277,1.209-0.308,1.625-0.067l5.188,2.995c0.416,0.24,0.363,0.66-0.117,0.938l-5.139,2.967
					C187.422,225.344,186.693,225.374,186.277,225.134z"/>
				<path fill="#3B1F9E" d="M178.068,220.395l-5.186-2.994c-0.416-0.24-0.364-0.66,0.116-0.938l5.14-2.967
					c0.48-0.277,1.207-0.308,1.623-0.067l5.188,2.994c0.416,0.241,0.363,0.661-0.117,0.938l-5.139,2.967
					C179.213,220.605,178.484,220.635,178.068,220.395z"/>
				<path fill="#4D36F2" d="M169.86,215.655l-5.187-2.994c-0.416-0.241-0.364-0.661,0.117-0.938l5.139-2.967
					c0.48-0.277,1.208-0.308,1.625-0.067l5.186,2.995c0.416,0.24,0.365,0.66-0.117,0.938l-5.138,2.967
					C171.004,215.865,170.277,215.896,169.86,215.655z"/>
				<path fill="#3B1F9E" d="M161.652,210.916l-5.187-2.994c-0.417-0.24-0.364-0.66,0.116-0.938l5.139-2.967
					c0.481-0.277,1.209-0.308,1.625-0.067l5.187,2.994c0.416,0.24,0.364,0.66-0.117,0.938l-5.139,2.967
					C162.795,211.126,162.068,211.156,161.652,210.916z"/>
				<path fill="#3B1F9E" d="M194.287,229.758l-5.188-2.994c-0.416-0.24-0.363-0.66,0.117-0.938l5.139-2.967
					c0.48-0.278,1.209-0.309,1.625-0.068l5.188,2.995c0.416,0.24,0.363,0.66-0.117,0.938l-5.139,2.967
					C195.432,229.969,194.703,229.998,194.287,229.758z"/>
				<path fill="#3B1F9E" d="M202.297,234.383l-5.188-2.994c-0.416-0.241-0.363-0.661,0.117-0.938l5.139-2.967
					c0.48-0.278,1.209-0.308,1.625-0.067l5.186,2.994c0.418,0.24,0.365,0.66-0.115,0.938l-5.139,2.968
					C203.439,234.593,202.713,234.623,202.297,234.383z"/>
				<path fill="#3B1F9E" d="M210.307,239.007l-5.188-2.995c-0.416-0.24-0.363-0.66,0.117-0.938l5.139-2.967
					c0.48-0.277,1.209-0.308,1.625-0.067l5.186,2.994c0.416,0.241,0.365,0.661-0.115,0.938l-5.141,2.967
					C211.449,239.217,210.723,239.247,210.307,239.007z"/>
				<path fill="#3B1F9E" d="M218.314,243.631l-5.186-2.994c-0.416-0.24-0.365-0.66,0.117-0.938l5.139-2.967
					c0.48-0.277,1.207-0.308,1.625-0.067l5.186,2.994c0.416,0.241,0.365,0.661-0.117,0.938l-5.139,2.967
					C219.459,243.841,218.732,243.871,218.314,243.631z"/>
				<path fill="#3B1F9E" d="M226.324,248.255l-5.186-2.994c-0.416-0.24-0.365-0.66,0.117-0.938l5.139-2.967
					c0.48-0.277,1.207-0.308,1.623-0.066l5.188,2.994c0.416,0.24,0.363,0.66-0.117,0.938l-5.139,2.967
					C227.469,248.465,226.74,248.496,226.324,248.255z"/>
				<path fill="#3B1F9E" d="M234.334,252.879l-5.186-2.994c-0.418-0.24-0.365-0.66,0.115-0.938l5.139-2.967
					c0.482-0.278,1.209-0.309,1.625-0.068l5.188,2.995c0.416,0.24,0.363,0.66-0.117,0.938l-5.139,2.968
					C235.479,253.09,234.75,253.12,234.334,252.879z"/>
				<path fill="#3B1F9E" d="M242.344,257.504l-5.188-2.994c-0.416-0.241-0.363-0.661,0.117-0.938l5.139-2.967
					c0.482-0.278,1.209-0.308,1.625-0.067l5.188,2.994c0.416,0.24,0.363,0.66-0.117,0.938l-5.139,2.967
					C243.488,257.714,242.76,257.744,242.344,257.504z"/>
				<path fill="#3B1F9E" d="M250.354,262.128l-5.188-2.994c-0.416-0.241-0.363-0.661,0.117-0.938l5.139-2.967
					c0.48-0.277,1.209-0.308,1.625-0.067l5.186,2.994c0.418,0.241,0.365,0.661-0.115,0.938l-5.139,2.967
					C251.496,262.338,250.77,262.368,250.354,262.128z"/>
				<path fill="#3B1F9E" d="M258.363,266.752l-5.188-2.994c-0.416-0.24-0.363-0.66,0.117-0.938l5.139-2.968
					c0.48-0.277,1.209-0.308,1.625-0.067l5.186,2.994c0.416,0.241,0.365,0.661-0.115,0.938l-5.141,2.967
					C259.506,266.963,258.779,266.992,258.363,266.752z"/>
				<path fill="#3B1F9E" d="M182.061,213.696l-5.188-2.995c-0.416-0.24-0.363-0.66,0.117-0.938l5.139-2.967
					c0.48-0.277,1.209-0.308,1.625-0.067l5.186,2.994c0.418,0.24,0.365,0.661-0.115,0.938l-5.139,2.967
					C183.203,213.906,182.477,213.937,182.061,213.696z"/>
				<path fill="#3B1F9E" d="M174.09,209.095l-5.186-2.994c-0.416-0.24-0.364-0.66,0.117-0.938l5.139-2.967
					c0.48-0.277,1.207-0.308,1.623-0.067l5.188,2.995c0.416,0.24,0.363,0.66-0.117,0.938l-5.139,2.967
					C175.234,209.305,174.508,209.335,174.09,209.095z"/>
				<path fill="#3B1F9E" d="M166.121,204.494l-5.187-2.995c-0.416-0.24-0.364-0.66,0.117-0.938l5.139-2.968
					c0.48-0.277,1.208-0.308,1.625-0.066l5.187,2.994c0.416,0.24,0.363,0.66-0.118,0.938l-5.139,2.967
					C167.265,204.704,166.538,204.734,166.121,204.494z"/>
				<path fill="#3B1F9E" d="M158.151,199.893l-5.187-2.994c-0.416-0.241-0.364-0.661,0.117-0.938l5.139-2.967
					c0.48-0.278,1.208-0.308,1.625-0.067l5.187,2.994c0.416,0.24,0.364,0.66-0.117,0.938l-5.139,2.967
					C159.295,200.103,158.568,200.133,158.151,199.893z"/>
				<path fill="#3B1F9E" d="M166.346,195.161l-5.187-2.995c-0.416-0.24-0.364-0.66,0.117-0.938l1.698-0.98
					c0.481-0.278,1.209-0.309,1.625-0.068l5.187,2.995c0.416,0.24,0.364,0.66-0.117,0.938l-1.698,0.98
					C167.49,195.371,166.763,195.401,166.346,195.161z"/>
				<path fill="#3B1F9E" d="M176.746,201.166l-5.186-2.995c-0.416-0.24-0.364-0.66,0.117-0.938l1.698-0.981
					c0.482-0.277,1.209-0.308,1.625-0.066l5.188,2.994c0.416,0.24,0.363,0.66-0.117,0.938l-1.699,0.98
					C177.891,201.376,177.164,201.406,176.746,201.166z"/>
				<path fill="#3B1F9E" d="M184.684,205.748l-5.188-2.995c-0.416-0.24-0.363-0.66,0.117-0.938l1.699-0.981
					c0.48-0.277,1.207-0.308,1.625-0.066l5.186,2.994c0.416,0.24,0.365,0.66-0.117,0.938l-1.697,0.98
					C185.826,205.958,185.1,205.988,184.684,205.748z"/>
				<path fill="#3B1F9E" d="M192.619,210.33l-5.186-2.995c-0.418-0.24-0.365-0.66,0.115-0.938l1.699-0.981
					c0.48-0.277,1.209-0.308,1.625-0.066l5.186,2.994c0.418,0.24,0.365,0.66-0.115,0.938l-1.699,0.98
					C193.764,210.54,193.035,210.57,192.619,210.33z"/>
				<path fill="#3B1F9E" d="M200.557,214.912l-5.188-2.995c-0.416-0.24-0.363-0.66,0.117-0.938l1.699-0.981
					c0.48-0.277,1.207-0.308,1.623-0.066l5.188,2.994c0.416,0.24,0.363,0.66-0.117,0.938l-1.699,0.981
					C201.699,215.122,200.973,215.152,200.557,214.912z"/>
				<path fill="#3B1F9E" d="M244.863,240.492l-5.186-2.994c-0.418-0.24-0.365-0.66,0.115-0.938l1.699-0.98
					c0.48-0.278,1.209-0.309,1.625-0.068l5.186,2.995c0.418,0.24,0.365,0.66-0.115,0.938l-1.699,0.981
					C246.008,240.703,245.279,240.733,244.863,240.492z"/>
				<path fill="#3B1F9E" d="M252.801,245.074l-5.188-2.994c-0.416-0.24-0.363-0.66,0.117-0.938l1.699-0.98
					c0.48-0.278,1.207-0.309,1.623-0.068l5.188,2.995c0.416,0.24,0.363,0.66-0.117,0.938l-1.699,0.981
					C253.943,245.285,253.217,245.315,252.801,245.074z"/>
				<path fill="#3B1F9E" d="M260.736,249.657l-5.186-2.995c-0.418-0.24-0.365-0.66,0.115-0.938l1.699-0.98
					c0.48-0.278,1.209-0.309,1.625-0.068l5.186,2.995c0.416,0.24,0.365,0.66-0.115,0.938l-1.699,0.98
					C261.881,249.867,261.152,249.897,260.736,249.657z"/>
				<path fill="#3B1F9E" d="M268.672,254.239l-5.186-2.995c-0.416-0.24-0.365-0.66,0.117-0.938l1.697-0.98
					c0.482-0.278,1.209-0.309,1.625-0.068l5.188,2.995c0.416,0.24,0.363,0.66-0.117,0.938l-1.699,0.981
					C269.816,254.449,269.09,254.479,268.672,254.239z"/>
				<path fill="#3B1F9E" d="M190.07,218.32l-5.188-2.994c-0.416-0.24-0.363-0.66,0.117-0.938l5.139-2.968
					c0.48-0.277,1.209-0.308,1.625-0.067l5.186,2.994c0.416,0.24,0.365,0.66-0.115,0.938l-5.141,2.967
					C191.213,218.53,190.486,218.561,190.07,218.32z"/>
				<path fill="#3B1F9E" d="M198.078,222.944l-5.186-2.994c-0.416-0.24-0.365-0.66,0.117-0.938l5.139-2.967
					c0.48-0.277,1.207-0.308,1.625-0.067l5.186,2.995c0.416,0.24,0.365,0.66-0.117,0.938l-5.139,2.967
					C199.223,223.154,198.496,223.186,198.078,222.944z"/>
				<path fill="#3B1F9E" d="M206.088,227.568l-5.186-2.994c-0.416-0.24-0.365-0.66,0.117-0.938l5.139-2.967
					c0.48-0.278,1.207-0.309,1.623-0.067l5.188,2.994c0.416,0.24,0.363,0.66-0.117,0.938l-5.139,2.967
					C207.232,227.779,206.504,227.81,206.088,227.568z"/>
				<path fill="#3B1F9E" d="M214.098,232.193l-5.186-2.994c-0.418-0.241-0.365-0.661,0.115-0.938l5.139-2.967
					c0.482-0.278,1.209-0.308,1.625-0.067l5.188,2.994c0.416,0.24,0.363,0.66-0.117,0.938l-5.139,2.968
					C215.242,232.403,214.514,232.434,214.098,232.193z"/>
				<path fill="#3B1F9E" d="M222.107,236.817l-5.188-2.994c-0.416-0.241-0.363-0.661,0.117-0.938l5.139-2.967
					c0.48-0.277,1.209-0.308,1.625-0.067l5.188,2.994c0.416,0.241,0.363,0.661-0.117,0.938l-5.139,2.967
					C223.252,237.027,222.523,237.058,222.107,236.817z"/>
				<path fill="#3B1F9E" d="M230.117,241.441l-5.188-2.994c-0.416-0.24-0.363-0.66,0.117-0.938l5.139-2.968
					c0.48-0.277,1.209-0.308,1.625-0.067l5.186,2.994c0.418,0.241,0.365,0.661-0.115,0.938l-5.139,2.967
					C231.26,241.652,230.533,241.682,230.117,241.441z"/>
				<path fill="#3B1F9E" d="M238.127,246.066l-5.188-2.995c-0.416-0.24-0.363-0.66,0.117-0.938l5.139-2.968
					c0.48-0.277,1.209-0.307,1.625-0.066l5.186,2.994c0.416,0.24,0.365,0.66-0.115,0.938l-5.141,2.967
					C239.27,246.276,238.543,246.307,238.127,246.066z"/>
				<path fill="#3B1F9E" d="M246.135,250.69l-5.186-2.995c-0.416-0.24-0.365-0.66,0.117-0.938l5.139-2.967
					c0.48-0.277,1.207-0.308,1.625-0.067l5.186,2.994c0.416,0.24,0.365,0.66-0.117,0.938l-5.139,2.967
					C247.279,250.9,246.553,250.931,246.135,250.69z"/>
				<path fill="#3B1F9E" d="M254.145,255.314l-5.186-2.994c-0.416-0.24-0.365-0.66,0.115-0.938l5.141-2.967
					c0.48-0.277,1.207-0.308,1.623-0.067l5.188,2.994c0.416,0.24,0.363,0.66-0.117,0.938l-5.139,2.967
					C255.289,255.524,254.561,255.555,254.145,255.314z"/>
				<path fill="#3B1F9E" d="M144.278,218.892l-15.274-8.819c-0.416-0.24-0.364-0.66,0.117-0.938l5.139-2.967
					c0.48-0.278,1.208-0.309,1.624-0.068l15.275,8.819c0.416,0.24,0.364,0.66-0.117,0.938l-5.139,2.967
					C145.422,219.102,144.695,219.132,144.278,218.892z"/>
				<path fill="#3B1F9E" d="M242.676,275.701l-15.273-8.818c-0.418-0.24-0.365-0.66,0.115-0.938l5.139-2.967
					c0.482-0.277,1.209-0.308,1.625-0.067l15.275,8.818c0.416,0.241,0.363,0.661-0.117,0.938l-5.139,2.967
					C243.82,275.912,243.092,275.941,242.676,275.701z"/>
				<path fill="#3B1F9E" d="M210.645,267.423l-5.186-2.994c-0.416-0.24-0.365-0.661,0.117-0.938l6.121-3.534
					c0.48-0.277,1.209-0.308,1.625-0.067l5.186,2.994c0.416,0.24,0.365,0.66-0.115,0.938l-6.123,3.534
					C211.789,267.633,211.063,267.663,210.645,267.423z"/>
				<path fill="#3B1F9E" d="M152.48,233.842l-8.294-4.789c-0.417-0.24-0.364-0.66,0.116-0.938l6.122-3.534
					c0.48-0.277,1.208-0.308,1.625-0.067l8.294,4.789c0.417,0.24,0.364,0.66-0.116,0.938l-6.122,3.534
					C153.625,234.052,152.897,234.082,152.48,233.842z"/>
				<path fill="#3B1F9E" d="M202.928,262.967l-8.295-4.788c-0.416-0.241-0.363-0.661,0.117-0.938l6.121-3.534
					c0.482-0.278,1.209-0.308,1.625-0.067l8.295,4.789c0.416,0.24,0.365,0.66-0.117,0.938l-6.121,3.535
					C204.072,263.178,203.344,263.208,202.928,262.967z"/>
				<path fill="#3B1F9E" d="M164.037,240.514l-8.295-4.789c-0.416-0.24-0.364-0.66,0.117-0.938l6.121-3.534
					c0.481-0.277,1.208-0.308,1.625-0.067l8.295,4.789c0.416,0.24,0.363,0.66-0.117,0.938l-6.122,3.534
					C165.18,240.724,164.453,240.754,164.037,240.514z"/>
				<path fill="#3B1F9E" d="M163.662,231.217l36.061,20.82c0.449,0.259,0.449,0.678,0,0.936l-6.242,3.604
					c-0.447,0.259-1.172,0.259-1.619,0l-36.063-20.82L163.662,231.217z"/>
				<path fill="#3B1F9E" d="M233.031,275.807l5.775,3.336c0.342,0.197,0.299,0.541-0.096,0.769l-2.504,1.446
					c-0.395,0.228-0.99,0.252-1.332,0.055l-5.775-3.335c-0.342-0.197-0.299-0.542,0.096-0.769l2.504-1.446
					C232.092,275.635,232.689,275.61,233.031,275.807z"/>
				<path fill="#3B1F9E" d="M224.955,271.145l5.777,3.336c0.34,0.197,0.297,0.541-0.096,0.769l-2.506,1.445
					c-0.393,0.228-0.99,0.253-1.33,0.056l-5.777-3.336c-0.342-0.197-0.299-0.541,0.096-0.769l2.504-1.446
					C224.018,270.973,224.613,270.947,224.955,271.145z"/>
				<path fill="#3B1F9E" d="M216.945,266.521l5.777,3.335c0.342,0.197,0.299,0.542-0.096,0.77l-2.504,1.445
					c-0.395,0.228-0.99,0.252-1.332,0.055l-5.777-3.335c-0.342-0.196-0.299-0.541,0.096-0.769l2.504-1.446
					C216.008,266.348,216.604,266.323,216.945,266.521z"/>
				<path fill="#3B1F9E" d="M229.377,268.591l5.777,3.335c0.342,0.197,0.299,0.542-0.096,0.77l-2.504,1.445
					c-0.395,0.228-0.99,0.252-1.332,0.056l-5.777-3.336c-0.34-0.196-0.299-0.541,0.096-0.769l2.504-1.445
					C228.439,268.418,229.037,268.394,229.377,268.591z"/>
			</g>
		</g>
	</g>
	<g>
		<path fill="#FFB147" d="M323.24,134.635v85.273c0,2.895-2.031,4.068-4.539,2.621l-115.205-66.514
			c-2.508-1.448-4.541-4.968-4.541-7.863V62.879L323.24,134.635z"/>
	</g>
	<g>
		<g>
			<g>
				<g>
					<g>
						<path fill="#3F35A0" d="M313.549,144.061v85.272c0,2.896-2.031,4.069-4.539,2.621l-115.205-66.513
							c-2.508-1.447-4.539-4.968-4.539-7.863V72.305L313.549,144.061z"/>
					</g>
					<g>
						<path fill="#3F35A0" d="M189.266,55.369v16.937l124.283,71.756v-16.937c0-2.895-2.031-6.415-4.539-7.863L193.805,52.748
							C191.297,51.3,189.266,52.474,189.266,55.369z M301.662,120.638c0-1.195,0.838-1.68,1.875-1.082
							c1.035,0.598,1.875,2.052,1.875,3.247s-0.84,1.681-1.875,1.083C302.5,123.288,301.662,121.834,301.662,120.638z
							 M296.467,117.64c0-1.196,0.84-1.68,1.875-1.083c1.037,0.598,1.875,2.052,1.875,3.248s-0.838,1.68-1.875,1.083
							C297.307,120.29,296.467,118.835,296.467,117.64z M285.15,111.106c0-1.196,0.84-1.681,1.875-1.082
							c1.035,0.597,1.875,2.051,1.875,3.247c0,1.195-0.84,1.68-1.875,1.082S285.15,112.302,285.15,111.106z M279.957,108.107
							c0-1.195,0.84-1.68,1.875-1.082s1.875,2.052,1.875,3.247c0,1.196-0.84,1.681-1.875,1.083
							C280.797,110.757,279.957,109.303,279.957,108.107z M268.641,101.574c0-1.196,0.838-1.681,1.875-1.083
							c1.035,0.598,1.875,2.052,1.875,3.248s-0.84,1.68-1.875,1.083C269.479,104.223,268.641,102.769,268.641,101.574z
							 M263.445,98.575c0-1.195,0.84-1.681,1.875-1.083c1.037,0.598,1.875,2.052,1.875,3.248s-0.838,1.68-1.875,1.082
							C264.285,101.224,263.445,99.77,263.445,98.575z M252.129,92.041c0-1.195,0.84-1.68,1.875-1.082s1.875,2.052,1.875,3.247
							c0,1.196-0.84,1.681-1.875,1.083S252.129,93.237,252.129,92.041z M246.936,89.042c0-1.196,0.84-1.681,1.875-1.083
							c1.035,0.598,1.875,2.051,1.875,3.248c0,1.195-0.84,1.68-1.875,1.082C247.775,91.692,246.936,90.238,246.936,89.042z
							 M235.619,82.508c0-1.195,0.838-1.68,1.875-1.082c1.035,0.598,1.875,2.052,1.875,3.247s-0.84,1.681-1.875,1.083
							C236.457,85.158,235.619,83.704,235.619,82.508z M230.426,79.51c0-1.196,0.838-1.68,1.873-1.083
							c1.037,0.598,1.875,2.052,1.875,3.248s-0.838,1.68-1.875,1.083C231.264,82.16,230.426,80.706,230.426,79.51z M219.107,72.976
							c0-1.196,0.84-1.681,1.875-1.083s1.875,2.052,1.875,3.248c0,1.195-0.84,1.68-1.875,1.082
							C219.947,75.625,219.107,74.171,219.107,72.976z M213.914,69.977c0-1.195,0.84-1.68,1.875-1.082s1.875,2.052,1.875,3.247
							c0,1.196-0.84,1.681-1.875,1.083C214.754,72.627,213.914,71.173,213.914,69.977z M202.598,63.444
							c0-1.196,0.84-1.681,1.875-1.083c1.035,0.598,1.875,2.052,1.875,3.248c0,1.195-0.84,1.68-1.875,1.082
							S202.598,64.639,202.598,63.444z M197.404,60.445c0-1.195,0.838-1.68,1.873-1.082c1.037,0.598,1.875,2.051,1.875,3.247
							s-0.838,1.68-1.875,1.083C198.242,63.094,197.404,61.641,197.404,60.445z"/>
					</g>
					<g>
						<path fill="#E83B1F" d="M208.154,77.445l86.506,49.944c0.686,0.396,1.242-0.024,1.242-0.94l0,0
							c0-0.915-0.557-1.979-1.242-2.375l-86.506-49.944c-0.686-0.396-1.242,0.024-1.242,0.94l0,0
							C206.912,75.986,207.469,77.049,208.154,77.445z"/>
					</g>
					<g>
						<g>
							<polygon fill="#5793CE" points="206.393,106.732 215.242,111.841 215.242,104.35 206.393,99.24 							"/>
						</g>
						<g>
							<polygon fill="#5793CE" points="219.924,114.543 228.773,119.653 228.773,112.161 219.924,107.051 							"/>
						</g>
						<g>
							<polygon fill="#5793CE" points="206.393,118.965 215.242,124.075 215.242,116.583 206.393,111.473 							"/>
						</g>
						<g>
							<polygon fill="#5793CE" points="219.924,126.776 228.773,131.886 228.773,124.394 219.924,119.284 							"/>
						</g>
						<g>
							<polygon fill="#E2E2E2" points="233.453,134.588 242.303,139.697 242.303,132.205 233.453,127.096 							"/>
						</g>
						<g>
							<polygon fill="#E2E2E2" points="246.982,142.399 255.832,147.508 255.832,140.017 246.982,134.907 							"/>
						</g>
						<g>
							<polygon fill="#E2E2E2" points="260.512,150.21 269.361,155.32 269.361,147.828 260.512,142.719 							"/>
						</g>
						<g>
							<polygon fill="#E2E2E2" points="274.041,158.022 282.893,163.131 282.893,155.639 274.041,150.53 							"/>
						</g>
						<g>
							<polygon fill="#E2E2E2" points="287.572,165.833 296.422,170.943 296.422,163.451 287.572,158.341 							"/>
						</g>
						<g>
							<polygon fill="#5793CE" points="206.393,131.198 215.242,136.307 215.242,128.815 206.393,123.706 							"/>
						</g>
						<g>
							<polygon fill="#5793CE" points="219.924,139.009 228.773,144.119 228.773,136.626 219.924,131.517 							"/>
						</g>
						<g>
							<polygon fill="#E2E2E2" points="233.453,146.821 242.303,151.93 242.303,144.438 233.453,139.329 							"/>
						</g>
						<g>
							<polygon fill="#E2E2E2" points="246.982,154.632 255.832,159.741 255.832,152.25 246.982,147.14 							"/>
						</g>
						<g>
							<polygon fill="#E2E2E2" points="260.512,162.443 269.361,167.553 269.361,160.061 260.512,154.951 							"/>
						</g>
						<g>
							<polygon fill="#E2E2E2" points="274.041,170.254 282.893,175.364 282.893,167.872 274.041,162.763 							"/>
						</g>
						<g>
							<polygon fill="#E2E2E2" points="287.572,178.066 296.422,183.175 296.422,175.684 287.572,170.574 							"/>
						</g>
						<g>
							<polygon fill="#5793CE" points="206.393,143.43 215.242,148.54 215.242,141.047 206.393,135.938 							"/>
						</g>
						<g>
							<polygon fill="#5793CE" points="219.924,151.242 228.773,156.351 228.773,148.859 219.924,143.75 							"/>
						</g>
						<g>
							<polygon fill="#E2E2E2" points="233.453,159.053 242.303,164.163 242.303,156.67 233.453,151.561 							"/>
						</g>
						<g>
							<polygon fill="#E2E2E2" points="246.982,166.865 255.832,171.974 255.832,164.482 246.982,159.373 							"/>
						</g>
						<g>
							<polygon fill="#E2E2E2" points="260.512,174.676 269.361,179.786 269.361,172.293 260.512,167.184 							"/>
						</g>
						<g>
							<polygon fill="#E2E2E2" points="274.041,182.487 282.893,187.597 282.893,180.105 274.041,174.996 							"/>
						</g>
						<g>
							<polygon fill="#E2E2E2" points="287.572,190.299 296.422,195.408 296.422,187.916 287.572,182.807 							"/>
						</g>
						<g>
							<polygon fill="#5793CE" points="206.393,155.663 215.242,160.773 215.242,153.28 206.393,148.171 							"/>
						</g>
						<g>
							<polygon fill="#5793CE" points="219.924,163.474 228.773,168.584 228.773,161.092 219.924,155.983 							"/>
						</g>
						<g>
							<polygon fill="#E2E2E2" points="233.453,171.286 242.303,176.395 242.303,168.903 233.453,163.794 							"/>
						</g>
						<g>
							<polygon fill="#E2E2E2" points="246.982,179.097 255.832,184.207 255.832,176.714 246.982,171.605 							"/>
						</g>
						<g>
							<polygon fill="#E2E2E2" points="260.512,186.909 269.361,192.018 269.361,184.526 260.512,179.417 							"/>
						</g>
						<g>
							<polygon fill="#E2E2E2" points="274.041,194.72 282.893,199.829 282.893,192.337 274.041,187.228 							"/>
						</g>
						<g>
							<polygon fill="#E2E2E2" points="287.572,202.531 296.422,207.641 296.422,200.148 287.572,195.039 							"/>
						</g>
					</g>
				</g>
				<g>
					<polygon fill="#E2E2E2" points="310.934,233.043 312.227,232.269 310.889,231.992 					"/>
				</g>
				<g>
					<g>
						<path fill="#DBCFF0" d="M312.271,144.828V230.1c0,2.895-2.033,4.068-4.541,2.621l-115.203-66.513
							c-2.508-1.448-4.541-4.969-4.541-7.863V73.071L312.271,144.828z"/>
					</g>
					<g>
						<g>
							<path fill="#7164F2" d="M301.482,120.068c-0.125,0.218-0.201,0.497-0.201,0.844c0,1.198,0.84,2.655,1.879,3.255
								c0.277,0.16,0.537,0.237,0.775,0.249c-0.309,0.536-0.939,0.667-1.678,0.241c-1.037-0.6-1.879-2.057-1.879-3.255
								C300.379,120.524,300.834,120.034,301.482,120.068z"/>
						</g>
						<g>
							<path fill="#7164F2" d="M296.293,117.068c-0.125,0.218-0.203,0.497-0.203,0.844c0,1.198,0.842,2.656,1.881,3.255
								c0.277,0.16,0.537,0.237,0.773,0.25c-0.307,0.536-0.938,0.667-1.676,0.241c-1.037-0.599-1.879-2.056-1.879-3.255
								C295.189,117.524,295.643,117.034,296.293,117.068z"/>
						</g>
						<g>
							<path fill="#7164F2" d="M284.973,110.533c-0.125,0.219-0.203,0.497-0.203,0.844c0,1.198,0.842,2.655,1.879,3.254
								c0.277,0.16,0.539,0.237,0.775,0.25c-0.307,0.536-0.939,0.666-1.676,0.24c-1.039-0.599-1.879-2.056-1.879-3.254
								C283.869,110.989,284.322,110.499,284.973,110.533z"/>
						</g>
						<g>
							<path fill="#7164F2" d="M279.783,107.533c-0.127,0.219-0.203,0.498-0.203,0.844c0,1.198,0.842,2.656,1.879,3.254
								c0.277,0.16,0.539,0.237,0.775,0.25c-0.309,0.536-0.939,0.666-1.678,0.241c-1.037-0.599-1.879-2.056-1.879-3.254
								C278.678,107.989,279.133,107.499,279.783,107.533z"/>
						</g>
						<g>
							<path fill="#7164F2" d="M268.461,100.998c-0.125,0.219-0.201,0.498-0.201,0.845c0,1.198,0.84,2.655,1.879,3.254
								c0.277,0.16,0.537,0.237,0.775,0.25c-0.309,0.536-0.939,0.667-1.678,0.241c-1.037-0.599-1.879-2.056-1.879-3.254
								C267.357,101.454,267.813,100.964,268.461,100.998z"/>
						</g>
						<g>
							<path fill="#7164F2" d="M263.271,97.999c-0.125,0.218-0.201,0.497-0.201,0.844c0,1.198,0.84,2.655,1.879,3.254
								c0.277,0.16,0.537,0.238,0.773,0.25c-0.307,0.536-0.938,0.666-1.676,0.241c-1.037-0.6-1.879-2.057-1.879-3.255
								C262.168,98.455,262.621,97.964,263.271,97.999z"/>
						</g>
						<g>
							<path fill="#7164F2" d="M251.951,91.463c-0.125,0.218-0.203,0.497-0.203,0.844c0,1.198,0.842,2.655,1.879,3.255
								c0.277,0.16,0.539,0.237,0.775,0.249c-0.307,0.537-0.939,0.667-1.676,0.241c-1.039-0.6-1.879-2.057-1.879-3.255
								C250.848,91.919,251.301,91.429,251.951,91.463z"/>
						</g>
						<g>
							<path fill="#7164F2" d="M246.762,88.463c-0.127,0.218-0.203,0.497-0.203,0.844c0,1.198,0.842,2.656,1.879,3.255
								c0.277,0.16,0.539,0.237,0.775,0.25c-0.309,0.536-0.939,0.667-1.676,0.241c-1.039-0.599-1.881-2.056-1.881-3.255
								C245.656,88.919,246.111,88.429,246.762,88.463z"/>
						</g>
						<g>
							<path fill="#7164F2" d="M235.439,81.928c-0.125,0.219-0.201,0.497-0.201,0.845c0,1.198,0.84,2.655,1.879,3.254
								c0.277,0.16,0.537,0.237,0.775,0.25c-0.309,0.536-0.939,0.666-1.678,0.24c-1.037-0.599-1.879-2.056-1.879-3.254
								C234.336,82.384,234.791,81.894,235.439,81.928z"/>
						</g>
						<g>
							<path fill="#7164F2" d="M230.25,78.929c-0.125,0.218-0.201,0.497-0.201,0.844c0,1.198,0.84,2.655,1.879,3.254
								c0.277,0.16,0.537,0.237,0.775,0.25c-0.309,0.536-0.939,0.666-1.678,0.241c-1.037-0.599-1.879-2.056-1.879-3.254
								C229.146,79.385,229.6,78.895,230.25,78.929z"/>
						</g>
						<g>
							<path fill="#7164F2" d="M218.93,72.393c-0.125,0.219-0.203,0.498-0.203,0.845c0,1.198,0.842,2.655,1.879,3.254
								c0.277,0.16,0.539,0.238,0.775,0.25c-0.307,0.536-0.939,0.667-1.676,0.241c-1.039-0.6-1.879-2.057-1.879-3.255
								C217.826,72.85,218.279,72.36,218.93,72.393z"/>
						</g>
						<g>
							<path fill="#7164F2" d="M213.74,69.394c-0.125,0.218-0.203,0.498-0.203,0.844c0,1.198,0.842,2.655,1.879,3.254
								c0.277,0.16,0.539,0.238,0.775,0.25c-0.309,0.536-0.939,0.667-1.676,0.241c-1.039-0.6-1.879-2.057-1.879-3.255
								C212.637,69.85,213.09,69.36,213.74,69.394z"/>
						</g>
						<g>
							<path fill="#7164F2" d="M202.418,62.859c-0.125,0.218-0.201,0.497-0.201,0.844c0,1.198,0.842,2.655,1.879,3.255
								c0.277,0.16,0.537,0.237,0.775,0.249c-0.309,0.536-0.939,0.667-1.678,0.241c-1.037-0.599-1.879-2.057-1.879-3.255
								C201.314,63.315,201.77,62.825,202.418,62.859z"/>
						</g>
						<g>
							<path fill="#7164F2" d="M197.229,59.859c-0.125,0.218-0.201,0.497-0.201,0.844c0,1.198,0.84,2.655,1.879,3.255
								c0.277,0.16,0.537,0.237,0.775,0.25c-0.309,0.536-0.939,0.667-1.678,0.241c-1.037-0.599-1.879-2.056-1.879-3.255
								C196.125,60.315,196.578,59.825,197.229,59.859z"/>
						</g>
					</g>
					<g>
						<path fill="#6651D3" d="M187.986,56.135v16.936l124.285,71.756v-16.937c0-2.896-2.033-6.416-4.541-7.863L192.527,53.514
							C190.02,52.067,187.986,53.24,187.986,56.135z M300.383,121.404c0-1.196,0.84-1.68,1.875-1.083s1.875,2.052,1.875,3.248
							s-0.84,1.68-1.875,1.083S300.383,122.6,300.383,121.404z M295.189,118.406c0-1.195,0.84-1.68,1.875-1.082
							c1.035,0.598,1.875,2.051,1.875,3.247c0,1.195-0.84,1.68-1.875,1.082C296.029,121.055,295.189,119.601,295.189,118.406z
							 M283.873,111.872c0-1.196,0.838-1.68,1.875-1.083c1.035,0.598,1.875,2.052,1.875,3.247c0,1.196-0.84,1.681-1.875,1.083
							C284.711,114.522,283.873,113.068,283.873,111.872z M278.678,108.874c0-1.196,0.84-1.681,1.875-1.083
							c1.037,0.598,1.875,2.052,1.875,3.248c0,1.195-0.838,1.68-1.875,1.082C279.518,111.523,278.678,110.069,278.678,108.874z
							 M267.361,102.339c0-1.195,0.84-1.68,1.875-1.082c1.035,0.598,1.875,2.052,1.875,3.247s-0.84,1.68-1.875,1.083
							C268.201,104.989,267.361,103.535,267.361,102.339z M262.168,99.341c0-1.196,0.84-1.68,1.875-1.083s1.875,2.052,1.875,3.248
							s-0.84,1.68-1.875,1.083S262.168,100.537,262.168,99.341z M250.852,92.807c0-1.196,0.838-1.681,1.875-1.083
							c1.035,0.598,1.875,2.052,1.875,3.248c0,1.195-0.84,1.68-1.875,1.082C251.689,95.457,250.852,94.002,250.852,92.807z
							 M245.656,89.809c0-1.196,0.84-1.68,1.875-1.083c1.037,0.598,1.875,2.052,1.875,3.247c0,1.196-0.838,1.681-1.875,1.083
							C246.496,92.458,245.656,91.004,245.656,89.809z M234.34,83.275c0-1.196,0.84-1.681,1.875-1.083
							c1.035,0.598,1.875,2.052,1.875,3.248c0,1.195-0.84,1.68-1.875,1.082S234.34,84.47,234.34,83.275z M229.146,80.276
							c0-1.195,0.84-1.68,1.875-1.082c1.035,0.598,1.875,2.052,1.875,3.247s-0.84,1.68-1.875,1.082
							C229.986,82.925,229.146,81.472,229.146,80.276z M217.83,73.742c0-1.196,0.838-1.68,1.875-1.083
							c1.035,0.598,1.875,2.052,1.875,3.247c0,1.196-0.84,1.681-1.875,1.083C218.668,76.392,217.83,74.938,217.83,73.742z
							 M212.637,70.744c0-1.196,0.838-1.681,1.873-1.083c1.037,0.598,1.875,2.052,1.875,3.248c0,1.195-0.838,1.68-1.875,1.082
							C213.475,73.393,212.637,71.939,212.637,70.744z M201.318,64.209c0-1.195,0.84-1.68,1.875-1.082
							c1.035,0.598,1.875,2.052,1.875,3.247c0,1.196-0.84,1.681-1.875,1.083S201.318,65.405,201.318,64.209z M196.125,61.211
							c0-1.196,0.84-1.681,1.875-1.083c1.035,0.598,1.875,2.052,1.875,3.248s-0.84,1.68-1.875,1.083S196.125,62.407,196.125,61.211z
							"/>
					</g>
					<g>
						<path fill="#7164F2" d="M206.877,78.211l86.504,49.943c0.688,0.396,1.244-0.024,1.244-0.939l0,0
							c0-0.915-0.557-1.979-1.244-2.375l-86.504-49.943c-0.688-0.396-1.244,0.024-1.244,0.939l0,0
							C205.633,76.752,206.189,77.815,206.877,78.211z"/>
					</g>
					<g>
						<g>
							<polygon fill="#6651D3" points="205.115,107.499 213.965,112.608 213.965,105.116 205.115,100.006 							"/>
						</g>
						<g>
							<polygon fill="#6651D3" points="218.645,115.31 227.494,120.419 227.494,112.927 218.645,107.818 							"/>
						</g>
						<g>
							<polygon fill="#6651D3" points="205.115,119.731 213.965,124.84 213.965,117.348 205.115,112.239 							"/>
						</g>
						<g>
							<polygon fill="#6651D3" points="218.645,127.542 227.494,132.652 227.494,125.16 218.645,120.05 							"/>
						</g>
						<g>
							<polygon fill="#FFFFFF" points="232.174,135.354 241.023,140.463 241.023,132.971 232.174,127.862 							"/>
						</g>
						<g>
							<polygon fill="#FFFFFF" points="245.703,143.166 254.555,148.275 254.555,140.783 245.703,135.673 							"/>
						</g>
						<g>
							<polygon fill="#FFFFFF" points="259.234,150.977 268.084,156.086 268.084,148.594 259.234,143.485 							"/>
						</g>
						<g>
							<polygon fill="#FFFFFF" points="272.764,158.788 281.613,163.898 281.613,156.406 272.764,151.296 							"/>
						</g>
						<g>
							<polygon fill="#FFFFFF" points="286.293,166.6 295.143,171.709 295.143,164.217 286.293,159.108 							"/>
						</g>
						<g>
							<polygon fill="#6651D3" points="205.115,131.964 213.965,137.073 213.965,129.581 205.115,124.472 							"/>
						</g>
						<g>
							<polygon fill="#6651D3" points="218.645,139.775 227.494,144.884 227.494,137.393 218.645,132.283 							"/>
						</g>
						<g>
							<polygon fill="#FFFFFF" points="232.174,147.586 241.023,152.696 241.023,145.204 232.174,140.094 							"/>
						</g>
						<g>
							<polygon fill="#FFFFFF" points="245.703,155.398 254.555,160.507 254.555,153.015 245.703,147.906 							"/>
						</g>
						<g>
							<polygon fill="#FFFFFF" points="259.234,163.209 268.084,168.319 268.084,160.827 259.234,155.717 							"/>
						</g>
						<g>
							<polygon fill="#FFFFFF" points="272.764,171.021 281.613,176.13 281.613,168.638 272.764,163.529 							"/>
						</g>
						<g>
							<polygon fill="#FFFFFF" points="286.293,178.833 295.143,183.942 295.143,176.45 286.293,171.34 							"/>
						</g>
						<g>
							<polygon fill="#6651D3" points="205.115,144.197 213.965,149.306 213.965,141.814 205.115,136.705 							"/>
						</g>
						<g>
							<polygon fill="#6651D3" points="218.645,152.008 227.494,157.117 227.494,149.625 218.645,144.516 							"/>
						</g>
						<g>
							<polygon fill="#FFFFFF" points="232.174,159.819 241.023,164.929 241.023,157.437 232.174,152.328 							"/>
						</g>
						<g>
							<polygon fill="#FFFFFF" points="245.703,167.631 254.555,172.74 254.555,165.248 245.703,160.139 							"/>
						</g>
						<g>
							<polygon fill="#FFFFFF" points="259.234,175.442 268.084,180.551 268.084,173.06 259.234,167.95 							"/>
						</g>
						<g>
							<polygon fill="#FFFFFF" points="272.764,183.253 281.613,188.362 281.613,180.871 272.764,175.761 							"/>
						</g>
						<g>
							<polygon fill="#FFFFFF" points="286.293,191.064 295.143,196.174 295.143,188.682 286.293,183.573 							"/>
						</g>
						<g>
							<polygon fill="#6651D3" points="205.115,156.429 213.965,161.539 213.965,154.046 205.115,148.937 							"/>
						</g>
						<g>
							<polygon fill="#6651D3" points="218.645,164.241 227.494,169.35 227.494,161.858 218.645,156.749 							"/>
						</g>
						<g>
							<polygon fill="#FFFFFF" points="232.174,172.052 241.023,177.162 241.023,169.669 232.174,164.56 							"/>
						</g>
						<g>
							<polygon fill="#FFFFFF" points="245.703,179.863 254.555,184.973 254.555,177.481 245.703,172.372 							"/>
						</g>
						<g>
							<polygon fill="#FFFFFF" points="259.234,187.674 268.084,192.783 268.084,185.292 259.234,180.183 							"/>
						</g>
						<g>
							<polygon fill="#FFFFFF" points="272.764,195.486 281.613,200.596 281.613,193.104 272.764,187.994 							"/>
						</g>
						<g>
							<polygon fill="#FFFFFF" points="286.293,203.297 295.143,208.406 295.143,200.914 286.293,195.805 							"/>
						</g>
					</g>
				</g>
				<g>
					<g>
						<path fill="#7164F2" d="M293.744,115.28c0,4.128,2.898,5.801,6.473,3.737c3.576-2.064,6.475-7.083,6.475-11.212
							c0-4.127-2.898-5.801-6.475-3.737C296.643,106.133,293.744,111.152,293.744,115.28z M295.125,114.483
							c0-3.247,2.279-7.196,5.092-8.82c2.813-1.624,5.094-0.307,5.094,2.94c0,3.248-2.281,7.196-5.094,8.82
							S295.125,117.731,295.125,114.483z"/>
					</g>
					<g>
						<polygon fill="#D4ECFF" points="296.258,119.945 295.543,119.412 296.154,119.558 						"/>
					</g>
					<g>
						<polygon fill="#7164F2" points="305.033,103.769 306.023,104.494 305.209,104.733 						"/>
					</g>
					<g>
						<path fill="#3F35A0" d="M294.635,115.932c0,4.128,2.898,5.801,6.473,3.737c3.576-2.064,6.475-7.084,6.475-11.212
							s-2.898-5.801-6.475-3.737C297.533,106.785,294.635,111.804,294.635,115.932z M296.016,115.135
							c0-3.248,2.281-7.196,5.092-8.82c2.814-1.624,5.094-0.308,5.094,2.94s-2.279,7.196-5.094,8.82
							C298.297,119.699,296.016,118.382,296.016,115.135z"/>
					</g>
				</g>
				<g>
					<polygon fill="#3F35A0" points="301.361,116.464 302.326,115.4 305.104,117.006 303.322,117.914 					"/>
				</g>
				<g>
					<path fill="#6651D3" d="M301.328,116.328l2.51,1.452l-1.723,1.708l-3.205,1.43c0,0,0.23-1.4-1.094-2.98L301.328,116.328z"/>
				</g>
				<g>
					<g>
						<path fill="#7164F2" d="M277.225,105.743c0,4.128,2.898,5.801,6.475,3.737c3.574-2.064,6.473-7.084,6.473-11.212
							s-2.898-5.802-6.473-3.737C280.123,96.595,277.225,101.614,277.225,105.743z M278.605,104.945c0-3.247,2.281-7.196,5.094-8.82
							c2.813-1.624,5.092-0.308,5.092,2.94c0,3.248-2.279,7.197-5.092,8.82C280.887,109.509,278.605,108.193,278.605,104.945z"/>
					</g>
					<g>
						<polygon fill="#D4ECFF" points="279.74,110.408 279.023,109.874 279.635,110.02 						"/>
					</g>
					<g>
						<polygon fill="#7164F2" points="288.516,94.231 289.506,94.956 288.689,95.195 						"/>
					</g>
					<g>
						<path fill="#3F35A0" d="M278.115,106.394c0,4.128,2.898,5.801,6.475,3.737c3.574-2.064,6.473-7.084,6.473-11.212
							s-2.898-5.801-6.473-3.737C281.014,97.247,278.115,102.266,278.115,106.394z M279.496,105.597c0-3.248,2.281-7.196,5.094-8.82
							s5.092-0.308,5.092,2.939c0,3.248-2.279,7.197-5.092,8.821S279.496,108.845,279.496,105.597z"/>
					</g>
				</g>
				<g>
					<polygon fill="#3F35A0" points="284.842,106.926 285.807,105.862 288.584,107.468 286.803,108.376 					"/>
				</g>
				<g>
					<path fill="#6651D3" d="M284.809,106.79l2.51,1.452l-1.723,1.708l-3.203,1.43c0,0,0.229-1.4-1.094-2.98L284.809,106.79z"/>
				</g>
				<g>
					<g>
						<path fill="#7164F2" d="M282.424,108.747c0,4.128,2.898,5.801,6.475,3.737c3.574-2.063,6.473-7.083,6.473-11.211
							c0-4.128-2.898-5.801-6.473-3.737C285.322,99.6,282.424,104.619,282.424,108.747z M283.805,107.95
							c0-3.247,2.281-7.196,5.094-8.82c2.813-1.624,5.092-0.307,5.092,2.94s-2.279,7.196-5.092,8.82S283.805,111.198,283.805,107.95
							z"/>
					</g>
					<g>
						<polygon fill="#D4ECFF" points="284.939,113.412 284.223,112.878 284.834,113.025 						"/>
					</g>
					<g>
						<polygon fill="#7164F2" points="293.715,97.236 294.705,97.96 293.889,98.2 						"/>
					</g>
					<g>
						<path fill="#3F35A0" d="M283.316,109.399c0,4.128,2.896,5.801,6.473,3.737c3.574-2.064,6.473-7.083,6.473-11.212
							c0-4.128-2.898-5.801-6.473-3.737C286.213,100.251,283.316,105.271,283.316,109.399z M284.695,108.602
							c0-3.248,2.281-7.197,5.094-8.82c2.813-1.624,5.092-0.308,5.092,2.94s-2.279,7.196-5.092,8.82
							C286.977,113.166,284.695,111.849,284.695,108.602z"/>
					</g>
				</g>
				<g>
					<polygon fill="#3F35A0" points="290.043,109.931 291.006,108.867 293.783,110.473 292.002,111.38 					"/>
				</g>
				<g>
					<path fill="#6651D3" d="M290.008,109.794l2.51,1.452l-1.723,1.708l-3.203,1.431c0,0,0.229-1.401-1.094-2.981L290.008,109.794z"
						/>
				</g>
				<g>
					<g>
						<path fill="#7164F2" d="M260.703,96.178c0,4.128,2.898,5.802,6.473,3.737s6.473-7.084,6.473-11.212s-2.898-5.801-6.473-3.737
							C263.602,87.031,260.703,92.05,260.703,96.178z M262.084,95.381c0-3.248,2.279-7.197,5.092-8.82
							c2.813-1.624,5.092-0.308,5.092,2.94s-2.279,7.197-5.092,8.82S262.084,98.628,262.084,95.381z"/>
					</g>
					<g>
						<polygon fill="#D4ECFF" points="263.217,100.843 262.5,100.31 263.111,100.456 						"/>
					</g>
					<g>
						<polygon fill="#7164F2" points="271.992,84.667 272.982,85.392 272.168,85.631 						"/>
					</g>
					<g>
						<path fill="#3F35A0" d="M261.594,96.83c0,4.128,2.898,5.801,6.473,3.737c3.576-2.063,6.473-7.083,6.473-11.211
							s-2.896-5.801-6.473-3.737C264.492,87.683,261.594,92.702,261.594,96.83z M262.975,96.033c0-3.247,2.279-7.196,5.092-8.82
							c2.813-1.624,5.092-0.307,5.092,2.94s-2.279,7.196-5.092,8.82S262.975,99.281,262.975,96.033z"/>
					</g>
				</g>
				<g>
					<polygon fill="#3F35A0" points="268.32,97.362 269.254,96.308 272.037,97.916 270.281,98.812 					"/>
				</g>
				<g>
					<path fill="#6651D3" d="M268.266,97.256l2.514,1.438l-1.705,1.692l-3.176,1.417c0,0,0.201-1.388-1.123-2.967L268.266,97.256z"
						/>
				</g>
				<g>
					<g>
						<path fill="#7164F2" d="M265.902,99.183c0,4.128,2.898,5.801,6.473,3.737c3.576-2.064,6.473-7.084,6.473-11.212
							s-2.896-5.801-6.473-3.737C268.801,90.036,265.902,95.055,265.902,99.183z M267.283,98.386c0-3.248,2.279-7.196,5.092-8.82
							s5.092-0.308,5.092,2.939c0,3.248-2.279,7.197-5.092,8.82C269.563,102.95,267.283,101.633,267.283,98.386z"/>
					</g>
					<g>
						<polygon fill="#D4ECFF" points="268.416,103.848 267.699,103.314 268.311,103.46 						"/>
					</g>
					<g>
						<polygon fill="#7164F2" points="277.191,87.671 278.182,88.397 277.367,88.636 						"/>
					</g>
					<g>
						<path fill="#3F35A0" d="M266.793,99.835c0,4.128,2.898,5.801,6.473,3.737c3.576-2.063,6.475-7.083,6.475-11.211
							c0-4.127-2.898-5.801-6.475-3.737C269.691,90.687,266.793,95.707,266.793,99.835z M268.174,99.038
							c0-3.247,2.279-7.196,5.092-8.82c2.813-1.624,5.094-0.308,5.094,2.94c0,3.247-2.281,7.196-5.094,8.82
							C270.453,103.602,268.174,102.286,268.174,99.038z"/>
					</g>
				</g>
				<g>
					<polygon fill="#3F35A0" points="273.52,100.367 274.484,99.302 277.262,100.909 275.48,101.817 					"/>
				</g>
				<g>
					<path fill="#6651D3" d="M273.484,100.231l2.512,1.452l-1.723,1.708l-3.182,1.42c0,0,0.207-1.374-1.117-2.954L273.484,100.231z"
						/>
				</g>
				<g>
					<g>
						<path fill="#7164F2" d="M244.18,86.614c0,4.128,2.898,5.801,6.475,3.737c3.574-2.063,6.473-7.083,6.473-11.211
							c0-4.128-2.898-5.802-6.473-3.737C247.078,77.467,244.18,82.486,244.18,86.614z M245.561,85.817
							c0-3.247,2.279-7.196,5.094-8.82c2.813-1.624,5.092-0.307,5.092,2.94s-2.279,7.196-5.092,8.82
							C247.84,90.381,245.561,89.065,245.561,85.817z"/>
					</g>
					<g>
						<polygon fill="#D4ECFF" points="246.693,91.279 245.979,90.746 246.59,90.892 						"/>
					</g>
					<g>
						<polygon fill="#7164F2" points="255.471,75.103 256.459,75.828 255.645,76.067 						"/>
					</g>
					<g>
						<path fill="#3F35A0" d="M245.07,87.266c0,4.128,2.898,5.801,6.475,3.737c3.574-2.064,6.473-7.084,6.473-11.212
							s-2.898-5.801-6.473-3.737C247.969,78.119,245.07,83.138,245.07,87.266z M246.451,86.469c0-3.248,2.281-7.196,5.094-8.82
							s5.092-0.308,5.092,2.939c0,3.248-2.279,7.197-5.092,8.821C248.732,91.033,246.451,89.716,246.451,86.469z"/>
					</g>
				</g>
				<g>
					<polygon fill="#3F35A0" points="251.797,87.798 252.73,86.769 255.492,88.364 253.758,89.248 					"/>
				</g>
				<g>
					<path fill="#6651D3" d="M251.713,87.685l2.549,1.473l-1.711,1.665l-3.158,1.41c0,0,0.166-1.363-1.158-2.943L251.713,87.685z"/>
				</g>
				<g>
					<g>
						<path fill="#7164F2" d="M249.379,89.619c0,4.128,2.898,5.801,6.475,3.737c3.574-2.064,6.473-7.083,6.473-11.211
							c0-4.128-2.898-5.801-6.473-3.737C252.277,80.472,249.379,85.491,249.379,89.619z M250.76,88.822
							c0-3.247,2.281-7.196,5.094-8.82c2.813-1.624,5.092-0.308,5.092,2.94c0,3.247-2.279,7.196-5.092,8.82
							C253.041,93.386,250.76,92.07,250.76,88.822z"/>
					</g>
					<g>
						<polygon fill="#D4ECFF" points="251.895,94.284 251.178,93.75 251.789,93.897 						"/>
					</g>
					<g>
						<polygon fill="#7164F2" points="260.67,78.108 261.66,78.833 260.844,79.072 						"/>
					</g>
					<g>
						<path fill="#3F35A0" d="M250.27,90.271c0,4.128,2.898,5.801,6.475,3.737c3.574-2.064,6.473-7.084,6.473-11.212
							s-2.898-5.801-6.473-3.737C253.168,81.124,250.27,86.143,250.27,90.271z M251.65,89.474c0-3.248,2.281-7.197,5.094-8.82
							c2.813-1.624,5.092-0.308,5.092,2.94s-2.279,7.196-5.092,8.82C253.932,94.038,251.65,92.721,251.65,89.474z"/>
					</g>
				</g>
				<g>
					<polygon fill="#3F35A0" points="256.998,90.803 257.932,89.772 260.703,91.363 258.957,92.252 					"/>
				</g>
				<g>
					<path fill="#6651D3" d="M256.914,90.689l2.529,1.46l-1.693,1.678l-3.166,1.431c0,0,0.172-1.385-1.15-2.965L256.914,90.689z"/>
				</g>
				<g>
					<g>
						<path fill="#7164F2" d="M227.658,77.05c0,4.128,2.898,5.801,6.473,3.737c3.574-2.064,6.473-7.084,6.473-11.212
							s-2.898-5.801-6.473-3.737C230.557,67.903,227.658,72.922,227.658,77.05z M229.039,76.253c0-3.248,2.279-7.197,5.092-8.82
							c2.813-1.624,5.092-0.308,5.092,2.939c0,3.248-2.279,7.197-5.092,8.82C231.318,80.817,229.039,79.5,229.039,76.253z"/>
					</g>
					<g>
						<polygon fill="#D4ECFF" points="230.172,81.715 229.455,81.182 230.066,81.328 						"/>
					</g>
					<g>
						<polygon fill="#7164F2" points="238.947,65.539 239.938,66.264 239.123,66.502 						"/>
					</g>
					<g>
						<path fill="#3F35A0" d="M228.549,77.702c0,4.128,2.898,5.801,6.473,3.737c3.576-2.063,6.473-7.083,6.473-11.211
							c0-4.128-2.896-5.801-6.473-3.737C231.447,68.555,228.549,73.574,228.549,77.702z M229.93,76.905
							c0-3.247,2.279-7.196,5.092-8.82c2.813-1.624,5.094-0.308,5.094,2.94c0,3.247-2.281,7.196-5.094,8.82
							C232.209,81.469,229.93,80.153,229.93,76.905z"/>
					</g>
				</g>
				<g>
					<polygon fill="#3F35A0" points="235.275,78.234 236.193,77.221 238.947,78.811 237.236,79.684 					"/>
				</g>
				<g>
					<path fill="#6651D3" d="M235.166,78.132l2.559,1.477l-1.695,1.649l-3.143,1.403c0,0,0.148-1.337-1.176-2.917L235.166,78.132z"
						/>
				</g>
				<g>
					<g>
						<path fill="#7164F2" d="M232.857,80.055c0,4.128,2.898,5.801,6.473,3.737c3.576-2.064,6.473-7.083,6.473-11.211
							s-2.896-5.801-6.473-3.737C235.756,70.908,232.857,75.927,232.857,80.055z M234.238,79.258c0-3.248,2.279-7.197,5.092-8.82
							c2.813-1.624,5.094-0.308,5.094,2.939c0,3.248-2.281,7.197-5.094,8.82C236.518,83.822,234.238,82.505,234.238,79.258z"/>
					</g>
					<g>
						<polygon fill="#D4ECFF" points="235.371,84.72 234.654,84.186 235.266,84.333 						"/>
					</g>
					<g>
						<polygon fill="#7164F2" points="244.146,68.543 245.137,69.269 244.322,69.507 						"/>
					</g>
					<g>
						<path fill="#3F35A0" d="M233.748,80.707c0,4.128,2.898,5.801,6.473,3.737c3.576-2.064,6.473-7.083,6.473-11.211
							s-2.896-5.801-6.473-3.737C236.646,71.559,233.748,76.579,233.748,80.707z M235.129,79.91c0-3.247,2.279-7.196,5.092-8.82
							s5.094-0.308,5.094,2.94c0,3.247-2.281,7.196-5.094,8.82C237.408,84.474,235.129,83.158,235.129,79.91z"/>
					</g>
				</g>
				<g>
					<polygon fill="#3F35A0" points="240.475,81.239 241.395,80.224 244.15,81.814 242.436,82.689 					"/>
				</g>
				<g>
					<path fill="#6651D3" d="M240.367,81.135l2.553,1.474l-1.691,1.654l-3.15,1.405c0,0,0.141-1.357-1.184-2.937L240.367,81.135z"/>
				</g>
				<g>
					<g>
						<path fill="#7164F2" d="M211.135,67.486c0,4.128,2.898,5.801,6.473,3.737c3.576-2.064,6.475-7.083,6.475-11.211
							s-2.898-5.801-6.475-3.737C214.033,58.338,211.135,63.358,211.135,67.486z M212.516,66.689c0-3.247,2.279-7.196,5.092-8.82
							c2.814-1.624,5.094-0.308,5.094,2.94c0,3.247-2.279,7.196-5.094,8.82C214.795,71.253,212.516,69.937,212.516,66.689z"/>
					</g>
					<g>
						<polygon fill="#D4ECFF" points="213.648,72.151 212.934,71.618 213.545,71.764 						"/>
					</g>
					<g>
						<polygon fill="#7164F2" points="222.426,55.975 223.414,56.7 222.6,56.939 						"/>
					</g>
					<g>
						<path fill="#3F35A0" d="M212.025,68.138c0,4.128,2.898,5.801,6.475,3.737c3.574-2.064,6.473-7.083,6.473-11.211
							s-2.898-5.801-6.473-3.737C214.924,58.991,212.025,64.01,212.025,68.138z M213.406,67.341c0-3.248,2.281-7.197,5.094-8.82
							c2.813-1.624,5.092-0.308,5.092,2.939c0,3.248-2.279,7.197-5.092,8.82C215.688,71.905,213.406,70.588,213.406,67.341z"/>
					</g>
				</g>
				<g>
					<polygon fill="#3F35A0" points="218.752,68.67 219.656,67.673 222.402,69.259 220.713,70.12 					"/>
				</g>
				<g>
					<path fill="#6651D3" d="M218.605,68.571l2.561,1.477l-1.66,1.646l-3.127,1.396c0,0,0.15-1.374-1.203-2.906L218.605,68.571z"/>
				</g>
				<g>
					<g>
						<path fill="#7164F2" d="M216.334,70.491c0,4.128,2.898,5.802,6.475,3.737c3.574-2.064,6.473-7.084,6.473-11.211
							c0-4.128-2.898-5.801-6.473-3.737C219.232,61.344,216.334,66.363,216.334,70.491z M217.715,69.694
							c0-3.248,2.281-7.196,5.094-8.82s5.092-0.308,5.092,2.94c0,3.247-2.279,7.196-5.092,8.82
							C219.996,74.258,217.715,72.942,217.715,69.694z"/>
					</g>
					<g>
						<polygon fill="#D4ECFF" points="218.85,75.156 218.133,74.623 218.744,74.769 						"/>
					</g>
					<g>
						<polygon fill="#7164F2" points="227.625,58.98 228.615,59.705 227.799,59.944 						"/>
					</g>
					<g>
						<path fill="#3F35A0" d="M217.225,71.143c0,4.128,2.898,5.801,6.475,3.737c3.574-2.064,6.473-7.083,6.473-11.211
							s-2.898-5.801-6.473-3.737C220.123,61.996,217.225,67.015,217.225,71.143z M218.605,70.346c0-3.248,2.281-7.197,5.094-8.82
							s5.092-0.308,5.092,2.94s-2.279,7.196-5.092,8.82S218.605,73.593,218.605,70.346z"/>
					</g>
				</g>
				<g>
					<polygon fill="#3F35A0" points="223.953,71.675 224.857,70.676 227.604,72.262 225.912,73.125 					"/>
				</g>
				<g>
					<path fill="#6651D3" d="M223.822,71.583l2.545,1.469l-1.662,1.647l-3.133,1.399c0,0,0.189-1.401-1.207-2.919L223.822,71.583z"
						/>
				</g>
				<g>
					<g>
						<path fill="#7164F2" d="M194.613,57.922c0,4.128,2.898,5.801,6.473,3.737s6.473-7.083,6.473-11.211s-2.898-5.801-6.473-3.737
							C197.512,48.775,194.613,53.794,194.613,57.922z M195.994,57.125c0-3.248,2.279-7.197,5.092-8.82s5.092-0.307,5.092,2.94
							c0,3.248-2.279,7.197-5.092,8.82C198.273,61.689,195.994,60.373,195.994,57.125z"/>
					</g>
					<g>
						<polygon fill="#D4ECFF" points="197.127,62.587 196.41,62.053 197.021,62.2 						"/>
					</g>
					<g>
						<polygon fill="#7164F2" points="205.902,46.411 206.893,47.136 206.078,47.375 						"/>
					</g>
					<g>
						<path fill="#3F35A0" d="M195.504,58.574c0,4.128,2.898,5.802,6.473,3.737c3.576-2.064,6.473-7.083,6.473-11.211
							s-2.896-5.801-6.473-3.737C198.402,49.427,195.504,54.446,195.504,58.574z M196.885,57.777c0-3.247,2.279-7.196,5.092-8.82
							s5.092-0.308,5.092,2.94c0,3.247-2.279,7.196-5.092,8.82C199.164,62.341,196.885,61.024,196.885,57.777z"/>
					</g>
				</g>
				<g>
					<polygon fill="#3F35A0" points="202.23,59.106 203.119,58.125 205.857,59.707 204.191,60.556 					"/>
				</g>
				<g>
					<path fill="#6651D3" d="M202.084,59.032l2.543,1.469l-1.643,1.63l-3.113,1.39c0,0,0.135-1.415-1.246-2.908L202.084,59.032z"/>
				</g>
				<g>
					<g>
						<path fill="#7164F2" d="M199.813,60.927c0,4.128,2.898,5.801,6.473,3.737c3.576-2.064,6.473-7.083,6.473-11.211
							s-2.896-5.801-6.473-3.737C202.711,51.78,199.813,56.799,199.813,60.927z M201.193,60.13c0-3.248,2.279-7.197,5.092-8.82
							s5.092-0.308,5.092,2.94s-2.279,7.196-5.092,8.82S201.193,63.377,201.193,60.13z"/>
					</g>
					<g>
						<polygon fill="#D4ECFF" points="202.326,65.592 201.609,65.058 202.221,65.205 						"/>
					</g>
					<g>
						<polygon fill="#7164F2" points="211.102,49.416 212.092,50.141 211.277,50.379 						"/>
					</g>
					<g>
						<path fill="#3F35A0" d="M200.703,61.579c0,4.128,2.898,5.801,6.473,3.737c3.576-2.064,6.473-7.084,6.473-11.212
							s-2.896-5.801-6.473-3.737C203.602,52.431,200.703,57.451,200.703,61.579z M202.084,60.782c0-3.248,2.279-7.196,5.092-8.82
							s5.094-0.308,5.094,2.94s-2.281,7.197-5.094,8.82S202.084,64.029,202.084,60.782z"/>
					</g>
				</g>
				<g>
					<polygon fill="#3F35A0" points="207.43,62.111 208.32,61.128 211.059,62.709 209.391,63.561 					"/>
				</g>
				<g>
					<path fill="#6651D3" d="M207.275,62.029l2.553,1.474l-1.645,1.631l-3.123,1.431c0,0,0.146-1.434-1.238-2.952L207.275,62.029z"
						/>
				</g>
				<g>
					<g>
						<path fill="#7164F2" d="M298.939,118.282c0,4.128,2.898,5.801,6.473,3.737c3.574-2.064,6.473-7.083,6.473-11.211
							s-2.898-5.801-6.473-3.737C301.838,109.134,298.939,114.154,298.939,118.282z M300.32,117.485c0-3.247,2.279-7.196,5.092-8.82
							s5.092-0.308,5.092,2.94c0,3.247-2.279,7.196-5.092,8.82C302.6,122.049,300.32,120.733,300.32,117.485z"/>
					</g>
					<g>
						<polygon fill="#D4ECFF" points="301.453,122.947 300.736,122.414 301.348,122.56 						"/>
					</g>
					<g>
						<polygon fill="#7164F2" points="310.229,106.771 311.219,107.496 310.404,107.735 						"/>
					</g>
					<g>
						<path fill="#3F35A0" d="M299.83,118.934c0,4.128,2.898,5.801,6.473,3.737c3.576-2.064,6.473-7.084,6.473-11.212
							s-2.896-5.801-6.473-3.737C302.729,109.787,299.83,114.806,299.83,118.934z M301.211,118.137c0-3.248,2.279-7.196,5.092-8.82
							s5.092-0.308,5.092,2.939c0,3.248-2.279,7.197-5.092,8.82C303.49,122.701,301.211,121.384,301.211,118.137z"/>
					</g>
				</g>
				<g>
					<polygon fill="#7164F2" points="312.271,144.828 313.549,144.061 313.549,141.844 312.271,142.666 					"/>
				</g>
				<g>
					<path fill="#3F35A0" d="M306.557,119.466l0.963-1.064c0,0,2.008,1.063,2.684,1.731l-1.686,0.782L306.557,119.466z"/>
				</g>
				<g>
					<path fill="#6651D3" d="M306.521,119.33c0,0,2.102,1.075,3.08,2.242s-5.496,2.349-5.496,2.349s0.23-1.401-1.094-2.98
						L306.521,119.33z"/>
				</g>
			</g>
		</g>
	</g>
	<g>
		<g>
			<g>
				<path fill="#DADBED" d="M101.077,178.613c-0.65-0.375-1.351-0.701-2.079-0.994l0.021-0.001l-4-1.773l0.302,0.699
					c-3.03-0.603-6.321-0.641-9.379-0.1l0.186-0.775l-4.705,2.085l0.028,0.002c-0.612,0.26-1.206,0.539-1.76,0.858
					c-5.905,3.41-5.905,8.937,0.001,12.347c5.905,3.409,15.48,3.409,21.386,0S106.982,182.023,101.077,178.613z"/>
				<path fill="#B6B8D1" d="M95.394,181.833c-2.768,1.598-7.254,1.598-10.021,0s-2.768-4.188,0-5.786s7.254-1.598,10.021,0
					S98.162,180.235,95.394,181.833z"/>
			</g>
			<g>
				<path fill="#B6B8D1" d="M90.383,180.042L90.383,180.042c-1.33,0-2.409-1.079-2.409-2.409v-30.453h4.818v30.453
					C92.792,178.963,91.713,180.042,90.383,180.042z"/>
				<path fill="#DADBED" d="M92.078,148.286c-0.96,0.555-2.517,0.555-3.478,0c-0.96-0.554-0.96-1.453,0-2.007
					c0.961-0.554,2.518-0.554,3.478,0C93.039,146.833,93.039,147.732,92.078,148.286z"/>
			</g>
			<path fill="#B6B8D1" d="M90.383,148.226L90.383,148.226c-1.078,0-1.953-0.874-1.953-1.952v-28.627h3.906v28.627
				C92.336,147.352,91.462,148.226,90.383,148.226z"/>
			<g>
				<path fill="#24137A" d="M118.462,132.648v-1.121l1.584-0.229l1.772-1.327c0.287-0.215,0.836-0.235,1.168-0.043l1.309,0.755
					l1.296-0.188v1.136l-0.005,0.001c-0.007,0.129-0.104,0.256-0.298,0.342l-4.129,1.84c-0.327,0.146-0.79,0.128-1.082-0.04
					l-1.375-0.794c-0.158-0.092-0.232-0.212-0.233-0.333L118.462,132.648z"/>
				<path fill="#3B1F9E" d="M118.633,131.226l3.186-2.384c0.287-0.214,0.836-0.234,1.168-0.043l2.377,1.372
					c0.332,0.192,0.297,0.509-0.075,0.675l-4.129,1.839c-0.327,0.146-0.79,0.129-1.082-0.04l-1.375-0.794
					C118.411,131.682,118.381,131.415,118.633,131.226z"/>
				<g>
					<path fill="#DADBED" d="M113.258,136.633c0.456,0,0.912-0.105,1.275-0.314l4.951-2.859c0.272-0.158,0.366-0.507,0.208-0.781
						c-0.158-0.272-0.506-0.368-0.781-0.208l-4.949,2.858c-0.367,0.212-1.039,0.212-1.408,0l-8.228-4.766
						c-0.271-0.159-0.622-0.064-0.78,0.21c-0.157,0.272-0.064,0.622,0.21,0.78l8.228,4.765
						C112.347,136.528,112.802,136.633,113.258,136.633z"/>
				</g>
			</g>
			<g>
				<radialGradient id="SVGID_1_" cx="13.0898" cy="120.2402" r="49.0681" gradientUnits="userSpaceOnUse">
					<stop  offset="0" style="stop-color:#01C8EF"/>
					<stop  offset="0.0894" style="stop-color:#03BEE9"/>
					<stop  offset="0.2388" style="stop-color:#08A5D7"/>
					<stop  offset="0.4288" style="stop-color:#107BBB"/>
					<stop  offset="0.4457" style="stop-color:#1177B8"/>
					<stop  offset="1" style="stop-color:#112564"/>
				</radialGradient>
				<polygon fill="url(#SVGID_1_)" points="65.66,126.161 73.609,121.54 69.156,119.528 65.345,122.231 				"/>
				<path fill="#3B1F9E" d="M116.706,119.301c-0.439-0.23-0.887-0.502-1.337-0.832L98.43,106.055
					c-3.059-2.241-6.208-2.819-8.642-1.585c-0.063,0.032-0.118,0.077-0.18,0.111l-0.018-0.005l-23.396,13.573l2.103,0.7l8.192,3.715
					l11.146,7.906l8.796,4.668l0.399,0.085c2.052-1.728,4.348-3.209,5.607-5.729c2.178-3.811,8.241-4.902,11.807-7.992
					c0.36,0.229,0.72,0.442,1.079,0.627C116.062,121.407,116.26,120.377,116.706,119.301z"/>
				<path fill="#24137A" d="M124.136,113.704c-0.363,0-0.693,0.128-0.959,0.335l-0.004-0.005l-22.894,13.251l0.837,3.423l0.858-0.41
					c-1.311,2.045-3.321,3.39-5.144,4.924l2.588,0.549l22.421-13.046c0.104-0.045,0.209-0.083,0.311-0.134
					c0.307-0.156,0.593-0.343,0.863-0.549l0.039-0.023l-0.015,0.001c1.707-1.318,2.671-3.611,2.671-6.475v-0.27
					C125.709,114.409,125.005,113.704,124.136,113.704z"/>
				<g>
					<path fill="#EAEAEA" d="M92.786,103.838c1.429,0.052,2.961,0.543,4.495,1.454C95.747,104.381,94.214,103.89,92.786,103.838z"/>
					<path fill="#4D36F2" d="M103.211,128.352v-0.269c0-0.868-0.704-1.573-1.573-1.573s-1.573,0.705-1.573,1.573v0.269
						c0,2.104-0.669,3.648-1.835,4.239c-1.317,0.667-3.321,0.177-5.358-1.316l-16.939-12.413c-2.606-1.91-5.276-2.599-7.517-2.001
						l13.99-8.116l-16.21,9.404l2.103,0.7l8.192,3.715l11.146,7.907l8.796,4.667l0.399,0.085c2.052-1.728,4.348-3.209,5.607-5.729
						c0.217-0.379,0.48-0.725,0.769-1.055C103.208,128.41,103.211,128.382,103.211,128.352z"/>
				</g>
				<g>
					<path fill="#DADBED" d="M96.424,136.542c-1.854,0.001-3.895-0.754-5.896-2.221l-16.939-12.413
						c-2.037-1.492-4.039-1.984-5.359-1.317c-1.166,0.591-1.835,2.136-1.835,4.239c0,0.869-0.704,1.573-1.573,1.573
						s-1.573-0.705-1.573-1.573c0-3.331,1.297-5.898,3.559-7.045c2.434-1.233,5.584-0.656,8.642,1.585l16.939,12.413
						c2.037,1.493,4.041,1.983,5.358,1.316c1.166-0.591,1.835-2.136,1.835-4.239v-0.269c0-0.869,0.704-1.573,1.573-1.573
						s1.573,0.705,1.573,1.573v0.269c0,3.331-1.297,5.899-3.559,7.046C98.329,136.333,97.403,136.542,96.424,136.542z"/>
				</g>
			</g>
		</g>
		<g>
			<g>
				<path fill="#3B1F9E" d="M83.112,164.294c0,0-3.19-1.609-5.149,0.787s-4.76,8.051-4.847,11.873
					c-0.087,3.822,3.024,3.563,4.873,2.659c1.85-0.905,7.251-8.741,7.578-10.276c0.327-1.536-0.386-3.611-0.905-4.018
					S83.112,164.294,83.112,164.294z"/>
				<path fill="#DADBED" d="M83.808,163.525l0.147,3.305c0.031,0.703-0.322,1.372-0.934,1.72c-0.558,0.316-1.367,0.559-2.461,0.382
					c-2.403-0.386-2.618-1.073-2.79-4.377C77.6,161.25,83.808,163.525,83.808,163.525z"/>
				<g>
					<path fill="#3B1F9E" d="M71.434,157.939c0,0-3.19-1.609-5.15,0.787c-1.959,2.396-4.76,8.051-4.847,11.873
						c-0.086,3.821,3.024,3.563,4.874,2.659c1.849-0.905,7.251-8.741,7.578-10.276c0.327-1.535-0.386-3.611-0.905-4.018
						S71.434,157.939,71.434,157.939z"/>
					<path fill="#DADBED" d="M72.13,157.17l0.147,3.305c0.031,0.703-0.322,1.373-0.935,1.72c-0.557,0.316-1.366,0.559-2.461,0.383
						c-2.403-0.387-2.618-1.073-2.789-4.378C65.921,154.895,72.13,157.17,72.13,157.17z"/>
					<path fill="#FFB147" d="M100.597,96.488c-0.944-15.364-16.639,2.26-16.639,2.26l-10.741,10.529l-9.673,10.625
						c-1.889,2.075-2.768,4.877-2.402,7.659l3.913,29.795c0.192,1.471,1.452,2.557,2.936,2.545c0.419-0.004,0.899-0.042,1.449-0.127
						c3.491-0.544,3.233-3.863,3.233-3.863l-0.715-27.866l20.313-12.245C92.272,115.799,101.542,111.851,100.597,96.488z"/>
				</g>
				<path fill="#FFB147" d="M112.275,102.341c-0.943-15.364-16.638,2.26-16.638,2.26L84.895,115.13l-9.672,10.625
					c-1.89,2.075-2.769,4.877-2.403,7.66l3.913,29.794c0.193,1.471,1.452,2.557,2.937,2.545c0.419-0.003,0.899-0.042,1.449-0.127
					c3.49-0.544,3.233-3.863,3.233-3.863l-0.716-27.866l20.313-12.246C103.95,121.653,113.219,117.705,112.275,102.341z"/>
				<path fill="#6651D3" d="M102.991,53.023c11.898,4.933,11.66,11.967,11.66,11.967s-2.331,25.785-1.535,43.006
					c0.332,7.199-38.249,7.748-32.495-11.458c6.784-22.645,4.241-40.978,7.417-43.743C91.213,50.03,99.913,51.747,102.991,53.023z"
					/>
				
					<ellipse transform="matrix(0.9684 0.2495 -0.2495 0.9684 17.5915 -23.3407)" fill="#FFC2B0" cx="100.876" cy="57.729" rx="6.137" ry="4.517"/>
				<path fill="#FFFFFF" d="M101.757,62.931c-0.698,0-1.422-0.089-2.15-0.277c-1.704-0.439-3.186-1.346-4.172-2.554
					c-1.026-1.26-1.4-2.696-1.053-4.043c0.699-2.716,4.184-4.173,7.762-3.253c3.581,0.923,5.925,3.882,5.226,6.598l0,0
					C106.812,61.565,104.489,62.931,101.757,62.931z M99.966,53.661c-2.21,0-4.058,1.027-4.482,2.679
					c-0.255,0.989,0.041,2.068,0.833,3.04c0.834,1.022,2.103,1.794,3.573,2.173c2.974,0.768,5.835-0.325,6.378-2.435
					c0.542-2.108-1.435-4.447-4.407-5.213C101.216,53.739,100.578,53.661,99.966,53.661z"/>
				<path fill="#FFC2B0" d="M98.22,52.487c0,0,0.103,0.477-0.104,4.248c-0.064,1.185,4.086,2.292,5.158,1.22
					c1.073-1.073,0.645-2.189,0.901-6.223C104.434,47.697,98.22,52.487,98.22,52.487z"/>
				<path fill="#EA9C92" d="M104.176,51.731c0,0-1.021,3.741-6.061,5.176l0.077-3.4L104.176,51.731z"/>
				<circle fill="#FFC2B0" cx="98.501" cy="44.521" r="9.159"/>
				<path fill="#EA9C92" d="M100.605,44.857c0,0-5.043,2.16-8.534,2.185c-3.492,0.025-2.723-2.899-2.723-2.899l10.365-1.498
					L100.605,44.857z"/>
				<path fill="#843837" d="M91.03,45.426c0,0,4.393-1.865,8.246-1.087c0.905,0.184,1.745,0.667,2.329,1.384
					c0.19,0.234,0.431,0.448,0.704,0.51c0.684,0.155,1.802-2.68,3.131-2.745c1.328-0.065,2.214,0.875,1.125,2.619
					c-1.089,1.743-0.721,3.694-0.22,3.975c0.501,0.279,5.816-3.791,1.128-13.078c-4.688-9.288-16.598-4.285-18.45-2.403
					c0,0-1.951,1.7-3.538,0.188C85.485,34.788,83.707,48.112,91.03,45.426z"/>
				<path fill="#FFC2B0" d="M107.976,83.829v6.967c0,0.799-0.336,1.561-0.927,2.098l-14.313,13.049l1.626,2.487l18.902-13.709
					c0.882-0.64,1.451-1.625,1.564-2.708l1.278-12.151L107.976,83.829z"/>
				<path fill="#6651D3" d="M113.643,61.505c0,0,4.343,6.531,5.96,23.72c0,0-7.417,2.399-11.627,1.037
					C103.766,84.901,113.643,61.505,113.643,61.505z"/>
				<path fill="#3B239C" d="M107.183,69.763c0,0-1.7,9.098-1.797,13.374c-0.026,1.175,0.691,2.236,1.797,2.636l0,0V69.763z"/>
			</g>
			<g>
				<path fill="#24137A" d="M103.469,115.002l-3.163-0.417l-20.421-11.79c-0.655-0.378-1.799-0.331-2.555,0.106l-14.471,8.352
					L60.947,111v1.904h0.002c-0.012,0.251,0.131,0.493,0.439,0.671l23.144,13.361c0.654,0.378,1.798,0.331,2.554-0.105l15.759-9.096
					c0.426-0.245,0.638-0.562,0.625-0.858l0,0V115.002z"/>
				<path fill="#24137A" d="M88.125,107.553l-1.45-0.838H70.724l-7.864,4.537L60.947,111v1.904h0.002
					c-0.012,0.251,0.131,0.493,0.439,0.671l23.144,13.361c0.346,0.2,0.828,0.28,1.318,0.247L88.125,107.553z"/>
				<path fill="#5793CE" d="M61.796,111.112L60.947,111v1.904h0.002c-0.012,0.251,0.131,0.493,0.439,0.671l0.408,0.235V111.112z"/>
				<path fill="#4D36F2" d="M84.765,127.044c0.62,0.235,1.508,0.185,2.17-0.135v-3.24h-2.17V127.044z"/>
				<path fill="#FFFFFF" d="M84.532,125.033l-23.144-13.362c-0.654-0.378-0.572-1.038,0.184-1.475l15.759-9.095
					c0.756-0.436,1.899-0.484,2.555-0.106l23.143,13.362c0.655,0.378,0.573,1.038-0.184,1.475l-15.759,9.095
					C86.33,125.364,85.186,125.412,84.532,125.033z"/>
				<path fill="#DADBED" d="M84.14,123.008l-19.243-11.11c-0.545-0.314-0.477-0.863,0.152-1.227l8.444-4.749
					c0.629-0.363,1.58-0.402,2.124-0.088l19.243,11.11c0.545,0.314,0.477,0.863-0.152,1.227l-8.444,4.749
					C85.635,123.283,84.684,123.322,84.14,123.008z"/>
			</g>
			<path fill="#FFC2B0" d="M78.225,100.663l-0.239,1.597c-0.204,1.36-0.169,2.746,0.104,4.094l0.285,1.407
				c0.16,0.793,0.788,1.409,1.585,1.554l0,0c0.622,0.113,1.21-0.324,1.28-0.952l0.382-3.414c0,0,0.874,1.145,1.296,1.145
				c0.421,0-0.473-3.419-1.426-5.354C80.539,98.806,78.225,100.663,78.225,100.663z"/>
			<path fill="#FFC2B0" d="M86.071,75.284l-2.483,4.915c-0.588,1.162-0.934,2.431-1.017,3.73l-1.078,16.812l-3.268-0.078
				l-1.482-18.879c-0.046-0.583-0.018-1.169,0.085-1.745l1.693-9.573L86.071,75.284z"/>
			<g>
				<path fill="#24137A" d="M83.748,126.317l-1.94-2.533L61.4,111.969c-0.654-0.379-1.184-1.394-1.183-2.267l0.018-16.708
					l-1.173-1.532l1.103-0.638l0.001,0.001c0.211-0.136,0.491-0.132,0.8,0.046l23.128,13.39c0.654,0.379,1.184,1.394,1.183,2.266
					l-0.02,18.195c-0.001,0.491-0.169,0.833-0.433,0.97l0,0L83.748,126.317z"/>
				<path fill="#24137A" d="M69.635,116.736l-1.45-0.839l-7.958-13.823l0.008-9.079l-1.173-1.532l1.103-0.638l0.001,0.001
					c0.211-0.136,0.491-0.132,0.8,0.046l23.128,13.39c0.346,0.2,0.655,0.578,0.871,1.019L69.635,116.736z"/>
				<path fill="#4D36F2" d="M59.583,92.143l-0.521-0.68l1.103-0.638l0.001,0.001c0.211-0.136,0.491-0.132,0.8,0.046l0.408,0.236
					L59.583,92.143z"/>
				<path fill="#4D36F2" d="M84.303,104.41c0.514,0.421,0.912,1.215,0.966,1.948l-2.26,1.305l-1.083-1.881L84.303,104.41z"/>
				<path fill="#3B1F9E" d="M82.992,104.9L59.865,91.51c-0.654-0.378-1.186,0.022-1.187,0.895l-0.02,18.195
					c-0.001,0.873,0.528,1.887,1.183,2.266l23.127,13.39c0.654,0.378,1.186-0.022,1.187-0.895l0.02-18.195
					C84.175,106.293,83.646,105.279,82.992,104.9z"/>
			</g>
			<path fill="#FFC2B0" d="M94.363,108.43l-0.371,0.768c-0.426,0.884-1.097,1.627-1.933,2.143l-2.297,1.416
				c-0.715,0.44-1.62,0.477-2.346,0.055c-0.025-0.016-0.052-0.031-0.078-0.048c-0.729-0.457-0.796-1.505-0.195-2.123l2.401-2.468
				c0,0-1.35,1.033-1.728,0.617c-0.276-0.305,1.309-1.793,2.525-1.842s2.395-1.005,2.395-1.005L94.363,108.43z"/>
			<path fill="#6651D3" d="M88.276,52.759c0,0-8.801,9.575-12.351,18.359c0,0,3.01,5.422,10.376,7.549S88.276,52.759,88.276,52.759z
				"/>
			<path fill="#3B239C" d="M84.644,78.1l1.427-13.779l-3.361,12.91C83.308,77.543,83.957,77.833,84.644,78.1z"/>
			<path fill="#FFFFFF" d="M94.868,50.827l-2.365-0.649c0,0,1.129,1.776,2.777,2.229c1.647,0.453,1.904-0.942,1.904-0.942
				L94.868,50.827z"/>
		</g>
	</g>
	<path fill="#4757AF" d="M290.123,223.227c-0.113,0-0.229-0.029-0.334-0.09l-87.611-50.58c-0.32-0.186-0.432-0.597-0.246-0.918
		c0.186-0.322,0.598-0.432,0.918-0.247l87.611,50.581c0.32,0.186,0.432,0.597,0.246,0.918
		C290.582,223.106,290.355,223.227,290.123,223.227z"/>
	<g>
		<polygon fill="#FFB147" points="69.822,261.56 78.611,266.771 72.08,270.441 63.29,265.229 		"/>
	</g>
	<g>
		<polygon fill="#FFB147" points="91.688,275.863 100.477,281.076 93.946,284.746 85.156,279.533 		"/>
	</g>
	<g>
		<polygon fill="#6651D3" points="110.961,288.093 119.751,293.305 113.219,296.975 104.43,291.763 		"/>
	</g>
	<g>
		<polygon fill="#6651D3" points="163.959,155.081 172.75,160.292 166.217,163.963 157.428,158.75 		"/>
	</g>
	<g>
		<polygon fill="#6651D3" points="159.331,86.794 168.121,92.006 161.588,95.677 152.799,90.464 		"/>
	</g>
	<g>
		<polygon fill="#6651D3" points="44.683,123.42 53.473,128.633 46.942,132.303 38.152,127.09 		"/>
	</g>
	<g>
		<polygon fill="#FFB147" points="202.313,188.343 211.102,193.555 204.57,197.225 195.781,192.013 		"/>
	</g>
	<g>
		<polygon fill="#FFB147" points="173.664,118.047 182.453,123.259 175.922,126.929 167.132,121.717 		"/>
	</g>
	<g>
		<polygon fill="#FFB147" points="105.68,153.42 114.47,158.633 107.938,162.303 99.149,157.09 		"/>
	</g>
	<g>
		<polygon fill="#FFB147" points="324.059,107.466 332.848,112.678 326.316,116.348 317.527,111.136 		"/>
	</g>
	<g>
		<polygon fill="#FFB147" points="269.785,224.928 278.574,230.141 272.043,233.811 263.252,228.598 		"/>
	</g>
	<g>
		<polygon fill="#FFB147" points="133.563,300.521 142.352,305.734 135.821,309.404 127.031,304.191 		"/>
	</g>
	<g>
		<polygon fill="#6651D3" points="98.02,300.521 106.809,305.734 100.278,309.404 91.489,304.191 		"/>
	</g>
	<g>
		<polygon fill="#FFB147" points="123.631,312.04 132.42,317.252 125.889,320.922 117.099,315.71 		"/>
	</g>
	<g>
		<polygon fill="#6651D3" points="153.853,312.893 162.643,318.104 156.111,321.774 147.322,316.563 		"/>
	</g>
	<g>
		<polygon fill="#FFB147" points="174.492,325.612 183.281,330.824 176.75,334.495 167.96,329.282 		"/>
	</g>
	<g>
		<polygon fill="#6651D3" points="302.104,255.108 310.893,260.32 304.361,263.99 295.572,258.778 		"/>
	</g>
	<g>
		<polygon fill="#FFB147" points="72.589,283.651 81.378,288.864 74.847,292.534 66.057,287.322 		"/>
	</g>
	<g>
		<g>
			<path fill="#E47730" d="M69.688,205.815l-20.076-11.591c-0.397-0.229-0.757-0.238-1.038-0.083c0-0.002,0.001-0.014,0.001-0.014
				l-1.947,1.126c0,0,0.862,0.314,1.369,0.5v14.62c0,1.189,0.723,2.571,1.615,3.087l19.189,11.078v1.716l1.968-1.133l-0.011-0.004
				c0.332-0.202,0.546-0.647,0.546-1.288v-14.928C71.304,207.713,70.581,206.331,69.688,205.815z"/>
			<path fill="#FFB147" d="M67.706,226.195l-20.077-11.592c-0.893-0.516-1.615-1.896-1.615-3.086v-14.929
				c0-1.189,0.723-1.736,1.615-1.222l20.077,11.592c0.892,0.515,1.615,1.896,1.615,3.086v14.929
				C69.321,226.163,68.597,226.71,67.706,226.195z"/>
		</g>
		<g>
			<path fill="#FFFFFF" d="M54.38,209.459c0,0.864-0.606,1.214-1.354,0.782c-0.749-0.432-1.355-1.482-1.355-2.347
				c0-0.863,0.606-1.213,1.355-0.781C53.774,207.545,54.38,208.596,54.38,209.459z"/>
			<path fill="#FFFFFF" d="M58.484,211.828c0,0.864-0.606,1.215-1.354,0.782c-0.748-0.432-1.354-1.482-1.354-2.346
				c0-0.864,0.606-1.214,1.354-0.782S58.484,210.965,58.484,211.828z"/>
			<path fill="#FFFFFF" d="M62.587,214.197c0,0.864-0.606,1.215-1.354,0.782c-0.748-0.432-1.354-1.481-1.354-2.346
				s0.606-1.214,1.354-0.782S62.587,213.334,62.587,214.197z"/>
		</g>
	</g>
	<g>
		<g>
			<path fill="#E47730" d="M295.566,61.013L275.49,49.422c-0.398-0.229-0.758-0.238-1.039-0.083c0-0.001,0.002-0.013,0.002-0.013
				l-1.947,1.125c0,0,0.861,0.314,1.369,0.5v14.621c0,1.189,0.723,2.571,1.615,3.086l19.189,11.079v1.716l1.967-1.133l-0.01-0.004
				c0.332-0.203,0.545-0.648,0.545-1.288V64.1C297.182,62.91,296.459,61.528,295.566,61.013z"/>
			<path fill="#FFB147" d="M293.582,81.392l-20.076-11.591c-0.893-0.516-1.615-1.897-1.615-3.087V51.787
				c0-1.19,0.723-1.736,1.615-1.222l20.076,11.592c0.893,0.515,1.617,1.896,1.617,3.086v14.929
				C295.199,81.361,294.475,81.908,293.582,81.392z"/>
		</g>
		<g>
			<path fill="#FFFFFF" d="M280.258,64.657c0,0.864-0.605,1.214-1.355,0.782c-0.748-0.432-1.354-1.482-1.354-2.347
				c0-0.863,0.605-1.214,1.354-0.782C279.652,62.743,280.258,63.793,280.258,64.657z"/>
			<path fill="#FFFFFF" d="M284.361,67.026c0,0.864-0.605,1.214-1.354,0.782c-0.75-0.432-1.355-1.482-1.355-2.346
				s0.605-1.214,1.355-0.782C283.756,65.112,284.361,66.162,284.361,67.026z"/>
			<path fill="#FFFFFF" d="M288.465,69.395c0,0.864-0.605,1.214-1.354,0.782c-0.748-0.432-1.355-1.482-1.355-2.346
				s0.607-1.214,1.355-0.782C287.859,67.481,288.465,68.532,288.465,69.395z"/>
		</g>
	</g>
	<g>
		<g>
			<path fill="#3B239C" d="M277.311,52.741c0-4.929-3.463-10.924-7.73-13.389c-2.08-1.2-3.965-1.335-5.354-0.595l-0.004-0.007
				l-0.084,0.048c-0.016,0.009-0.031,0.018-0.049,0.027l-2.691,1.55l1.275-0.08c-0.523,0.901-0.824,2.081-0.824,3.519
				c0,4.93,3.461,10.924,7.73,13.389c1.129,0.653,2.199,0.984,3.168,1.039c-0.176,0.337-0.594,1.166-0.594,1.166l2.801-1.622
				c0.059-0.032,0.117-0.065,0.174-0.1l0.127-0.073c0,0-0.023,0.004-0.029,0.005C276.516,56.769,277.311,55.094,277.311,52.741z"/>
			<path fill="#6651D3" d="M274.512,54.354c0,4.93-3.461,6.928-7.73,4.463s-7.73-8.459-7.73-13.389s3.461-6.928,7.73-4.463
				S274.512,49.424,274.512,54.354z"/>
		</g>
		<g>
			<path fill="#FFFFFF" d="M266.549,54.773c-0.414-0.239-0.766-0.509-1.051-0.81s-0.506-0.629-0.662-0.989
				c-0.156-0.359-0.27-0.73-0.334-1.112c-0.068-0.382-0.102-0.811-0.102-1.286l1.424,0.822c0,0.268,0.01,0.494,0.025,0.68
				c0.018,0.188,0.051,0.379,0.104,0.575c0.051,0.197,0.129,0.366,0.238,0.512s0.248,0.265,0.414,0.357
				c0.105,0.06,0.197,0.092,0.277,0.095c0.08,0.002,0.146-0.008,0.199-0.033s0.098-0.086,0.135-0.184s0.066-0.188,0.084-0.269
				c0.02-0.082,0.033-0.212,0.041-0.389c0.008-0.178,0.014-0.325,0.016-0.442c0.002-0.117,0.002-0.289,0.002-0.517
				c0-0.247-0.004-0.456-0.012-0.626c-0.01-0.17-0.029-0.349-0.059-0.54c-0.031-0.19-0.074-0.351-0.129-0.48
				c-0.053-0.128-0.131-0.253-0.229-0.374c-0.1-0.12-0.219-0.22-0.357-0.301c-0.201-0.115-0.369-0.135-0.508-0.057
				c-0.137,0.078-0.234,0.226-0.293,0.444l-1.244-0.719l0.066-5.387l3.84,2.218v1.525l-2.602-1.502l-0.086,2.253
				c0.111-0.076,0.268-0.102,0.467-0.075c0.199,0.026,0.42,0.106,0.66,0.237c0.33,0.174,0.617,0.399,0.863,0.674
				c0.244,0.275,0.439,0.588,0.588,0.941c0.148,0.352,0.258,0.731,0.33,1.135c0.07,0.405,0.107,0.84,0.107,1.309
				c0,0.432-0.02,0.807-0.055,1.123c-0.035,0.317-0.102,0.605-0.199,0.865c-0.096,0.261-0.227,0.446-0.387,0.558
				c-0.162,0.11-0.375,0.151-0.641,0.122C267.217,55.098,266.906,54.98,266.549,54.773z"/>
		</g>
	</g>
	<path fill="#6651D3" d="M261.498,176.273l-3.67-5.96c-0.289-0.471-0.143-1.087,0.328-1.376c0.471-0.29,1.086-0.143,1.375,0.327
		l2.691,4.37l8.506-4.467c0.492-0.254,1.096-0.068,1.352,0.421c0.256,0.489,0.068,1.094-0.422,1.351L261.498,176.273z"/>
	<path fill="#6651D3" d="M255.488,152.088c-1.92,0-4.111-0.987-5.826-1.978c-5.189-2.997-7.822-7.02-7.822-11.955
		c0-2.783,0.986-4.887,2.779-5.922c1.793-1.036,4.109-0.839,6.518,0.554c4.615,2.663,8.369,9.165,8.369,14.493
		c0,2.11-0.652,3.556-1.938,4.298C256.945,151.938,256.236,152.088,255.488,152.088z M247.146,133.442
		c-0.59,0-1.129,0.134-1.596,0.405c-1.193,0.688-1.85,2.218-1.85,4.309c0,4.223,2.318,7.703,6.893,10.344
		c2.689,1.553,4.949,2.099,6.043,1.467c0.668-0.386,1.008-1.289,1.008-2.686c0-4.735-3.336-10.514-7.438-12.882
		C249.107,133.764,248.064,133.442,247.146,133.442z"/>
	<path fill="#6651D3" d="M262.73,143.649c-0.27,0-0.537-0.116-0.721-0.34c-4.594-5.612-13.725-9.708-13.816-9.75
		c-0.471-0.208-0.682-0.759-0.473-1.229c0.209-0.469,0.758-0.683,1.227-0.473c0.393,0.173,9.625,4.313,14.502,10.271
		c0.326,0.398,0.268,0.984-0.131,1.31C263.145,143.58,262.938,143.649,262.73,143.649z"/>
</g>
</svg>
