<?xml version="1.0" encoding="utf-8"?>
<!-- Generator: Adobe Illustrator 21.1.0, SVG Export Plug-In . SVG Version: 6.00 Build 0)  -->
<svg version="1.1" id="Layer_1" xmlns="http://www.w3.org/2000/svg" xmlns:xlink="http://www.w3.org/1999/xlink" x="0px" y="0px"
	 width="560px" height="308px" viewBox="0 0 560 308" style="enable-background:new 0 0 560 308;" xml:space="preserve">
<style type="text/css">
	.st0{fill:#ABAFB4;}
	.st1{fill:#E63535;}
	.st2{fill:#FDC20F;}
	.st3{fill:#C4D600;}
	.st4{fill:#FFFFFF;}
	.st5{fill:#F5F4F4;}
	.st6{fill:#8D959A;}
	.st7{fill:#BED030;}
	.st8{fill:#63CAEB;}
	.st9{fill:#EFEFEF;}
	.st10{fill:none;stroke:#FFFFFF;stroke-width:1.2578;stroke-miterlimit:10;}
	.st11{fill:#D4D5D3;}
	.st12{fill:none;stroke:#FFFFFF;stroke-width:1.2583;stroke-miterlimit:10;}
	.st13{fill:#8C8C8C;}
	.st14{fill:#6EC5F0;}
	.st15{fill:#FFCE97;}
	.st16{fill:#E8E8E9;}
	.st17{fill:#FFC788;}
	.st18{fill:#1092D3;}
</style>
<g>
	<g>
		<path id="XMLID_56_" class="st0" d="M472.8,2.4H87.2c-4.9,0-8.9,4-8.9,8.9v25h403.4v-25C481.7,6.4,477.7,2.4,472.8,2.4z"/>
		<g id="XMLID_52_">
			<circle id="XMLID_55_" class="st1" cx="95.5" cy="19.3" r="4.7"/>
			<circle id="XMLID_54_" class="st2" cx="110" cy="19.3" r="4.7"/>
			<circle id="XMLID_53_" class="st3" cx="125.6" cy="19.3" r="4.7"/>
		</g>
		<path id="XMLID_51_" class="st4" d="M439.2,28.1H146.9c-1.3,0-2.4-1.1-2.4-2.4V14.6c0-1.3,1.1-2.4,2.4-2.4h292.3
			c1.3,0,2.4,1.1,2.4,2.4v11.1C441.5,27.1,440.5,28.1,439.2,28.1z"/>
		<path class="st5" d="M130.4,52.1H78.3v243.1c0,4.6,4,8.4,8.9,8.4h43.2l0,0h342.2c4.9,0,8.9-3.8,8.9-8.4V52.1H130.4z"/>
		<rect id="XMLID_50_" x="78.3" y="36.3" class="st6" width="403.2" height="15.8"/>
		<path id="XMLID_49_" class="st7" d="M447.8,48.4h-16.3c-0.9,0-1.6-0.7-1.6-1.6V44c0-0.9,0.7-1.6,1.6-1.6h16.3
			c0.9,0,1.6,0.7,1.6,1.6v2.8C449.4,47.7,448.7,48.4,447.8,48.4z"/>
		<path id="XMLID_48_" class="st8" d="M471.9,48.4h-16.3c-0.9,0-1.6-0.7-1.6-1.6V44c0-0.9,0.7-1.6,1.6-1.6h16.3
			c0.9,0,1.6,0.7,1.6,1.6v2.8C473.5,47.7,472.8,48.4,471.9,48.4z"/>
		<path id="XMLID_47_" class="st0" d="M254.7,48.1H146.5c-1.1,0-2-0.9-2-2v-3.4c0-1.1,0.9-2,2-2h108.2c1.1,0,2,0.9,2,2v3.4
			C256.7,47.2,255.8,48.1,254.7,48.1z"/>
	</g>
	<g>
		<rect id="XMLID_545_" x="105.7" y="60.7" class="st9" width="348.7" height="237.7"/>
		<line id="XMLID_544_" class="st10" x1="133.7" y1="179.6" x2="290.9" y2="179.6"/>
		<line id="XMLID_543_" class="st10" x1="133.7" y1="160.7" x2="290.9" y2="160.7"/>
		<line id="XMLID_542_" class="st10" x1="133.7" y1="141.8" x2="290.9" y2="141.8"/>
		<line id="XMLID_541_" class="st10" x1="133.7" y1="123" x2="290.9" y2="123"/>
		<line id="XMLID_540_" class="st10" x1="133.7" y1="102.9" x2="290.9" y2="102.9"/>
		<path id="XMLID_539_" class="st11" d="M290.9,90.4c0,1-0.8,1.7-1.7,1.7H216c-1,0-1.7-0.8-1.7-1.7v-1.5c0-1,0.8-1.7,1.7-1.7h73.2
			c1,0,1.7,0.8,1.7,1.7V90.4z"/>
		<path id="XMLID_538_" class="st11" d="M291.7,103.5h-6.6c-0.3,0-0.5-0.2-0.5-0.5v-4c0-0.3,0.2-0.5,0.5-0.5h6.6
			c0.3,0,0.5,0.2,0.5,0.5v4C292.2,103.3,291.9,103.5,291.7,103.5z"/>
		<path id="XMLID_537_" class="st11" d="M291.7,123.6h-6.6c-0.3,0-0.5-0.2-0.5-0.5v-4c0-0.3,0.2-0.5,0.5-0.5h6.6
			c0.3,0,0.5,0.2,0.5,0.5v4C292.2,123.4,291.9,123.6,291.7,123.6z"/>
		<path id="XMLID_536_" class="st11" d="M291.7,141.2h-6.6c-0.3,0-0.5-0.2-0.5-0.5v-4c0-0.3,0.2-0.5,0.5-0.5h6.6
			c0.3,0,0.5,0.2,0.5,0.5v4C292.2,141,291.9,141.2,291.7,141.2z"/>
		<path id="XMLID_534_" class="st11" d="M291.7,161.3h-6.6c-0.3,0-0.5-0.2-0.5-0.5v-4c0-0.3,0.2-0.5,0.5-0.5h6.6
			c0.3,0,0.5,0.2,0.5,0.5v4C292.2,161.1,291.9,161.3,291.7,161.3z"/>
		<path id="XMLID_527_" class="st11" d="M291.7,180.2h-6.6c-0.3,0-0.5-0.2-0.5-0.5v-4c0-0.3,0.2-0.5,0.5-0.5h6.6
			c0.3,0,0.5,0.2,0.5,0.5v4C292.2,180,291.9,180.2,291.7,180.2z"/>
		<path id="XMLID_415_" class="st11" d="M213.7,186.5h-6.6c-0.3,0-0.5-0.2-0.5-0.5v-4c0-0.3,0.2-0.5,0.5-0.5h6.6
			c0.3,0,0.5,0.2,0.5,0.5v4C214.2,186.3,214,186.5,213.7,186.5z"/>
		<path id="XMLID_414_" class="st11" d="M191,186.5h-6.6c-0.3,0-0.5-0.2-0.5-0.5v-4c0-0.3,0.2-0.5,0.5-0.5h6.6
			c0.3,0,0.5,0.2,0.5,0.5v4C191.5,186.3,191.3,186.5,191,186.5z"/>
		<path id="XMLID_413_" class="st11" d="M170.9,186.5h-6.6c-0.3,0-0.5-0.2-0.5-0.5v-4c0-0.3,0.2-0.5,0.5-0.5h6.6
			c0.3,0,0.5,0.2,0.5,0.5v4C171.4,186.3,171.2,186.5,170.9,186.5z"/>
		<path id="XMLID_412_" class="st11" d="M148.3,186.5h-6.6c-0.3,0-0.5-0.2-0.5-0.5v-4c0-0.3,0.2-0.5,0.5-0.5h6.6
			c0.3,0,0.5,0.2,0.5,0.5v4C148.8,186.3,148.6,186.5,148.3,186.5z"/>
		<path id="XMLID_410_" class="st11" d="M235.1,186.5h-6.6c-0.3,0-0.5-0.2-0.5-0.5v-4c0-0.3,0.2-0.5,0.5-0.5h6.6
			c0.3,0,0.5,0.2,0.5,0.5v4C235.6,186.3,235.3,186.5,235.1,186.5z"/>
		<path id="XMLID_100_" class="st11" d="M257.7,186.5h-6.6c-0.3,0-0.5-0.2-0.5-0.5v-4c0-0.3,0.2-0.5,0.5-0.5h6.6
			c0.3,0,0.5,0.2,0.5,0.5v4C258.2,186.3,258,186.5,257.7,186.5z"/>
		<path id="XMLID_98_" class="st11" d="M277.8,186.5h-6.6c-0.3,0-0.5-0.2-0.5-0.5v-4c0-0.3,0.2-0.5,0.5-0.5h6.6
			c0.3,0,0.5,0.2,0.5,0.5v4C278.3,186.3,278.1,186.5,277.8,186.5z"/>
		<path id="XMLID_96_" class="st11" d="M180.2,90.3c0,1-0.8,1.8-1.8,1.8H143c-1,0-1.8-0.8-1.8-1.8v-1.4c0-1,0.8-1.8,1.8-1.8h35.4
			c1,0,1.8,0.8,1.8,1.8V90.3z"/>
		<rect x="105.7" y="60.7" class="st3" width="17" height="20.4"/>
		<line class="st12" x1="105.7" y1="81.5" x2="454.4" y2="81.5"/>
		<line class="st10" x1="123" y1="60.7" x2="123" y2="298.4"/>
		<rect x="132.4" y="65.7" class="st13" width="84.3" height="11.3"/>
		<rect x="108.5" y="85.9" class="st13" width="8.8" height="8.8"/>
		<rect x="108.5" y="99.7" class="st13" width="8.8" height="8.8"/>
		<rect x="108.5" y="113.5" class="st13" width="8.8" height="10.1"/>
		<rect x="108.5" y="127.4" class="st13" width="8.8" height="8.8"/>
		<rect x="108.5" y="141.2" class="st13" width="8.8" height="10.1"/>
		<g>
			<path class="st11" d="M348.8,138.1v-31.6c-20.1,0.1-32.1,14-32.1,31.6c0,17.7,14.3,32.1,32,32.1c14.4,0,26.8-9.5,30.9-22.6
				L348.8,138.1L348.8,138.1z"/>
			<path class="st14" d="M349.7,137.6l28.6-11.8c-1-2.4-2.3-4-3.8-6.1c-5.8-8-15.1-13.3-25.7-13.3c-0.1,0-0.3,2.8-0.3,2.8l0.3,28.8
				L349.7,137.6z"/>
			<path class="st13" d="M378.2,125.8l-29.9,12.3l30.9,9.5c0.9-3,1.4-6.2,1.4-9.5C380.6,133.8,379.7,129.6,378.2,125.8z"/>
		</g>
		<path class="st13" d="M433.3,123.6h-39.6c-1.2,0-2.2-1-2.2-2.2v-8.1c0-1.2,1-2.2,2.2-2.2h39.6c1.2,0,2.2,1,2.2,2.2v8.1
			C435.5,122.6,434.5,123.6,433.3,123.6z"/>
		<path class="st14" d="M433.3,142.5h-39.6c-1.2,0-2.2-1-2.2-2.2v-8.1c0-1.2,1-2.2,2.2-2.2h39.6c1.2,0,2.2,1,2.2,2.2v8.1
			C435.5,141.5,434.5,142.5,433.3,142.5z"/>
		<path class="st15" d="M433.3,160.1h-39.6c-1.2,0-2.2-1-2.2-2.2v-8.1c0-1.2,1-2.2,2.2-2.2h39.6c1.2,0,2.2,1,2.2,2.2v8.1
			C435.5,159.1,434.5,160.1,433.3,160.1z"/>
		<path class="st14" d="M200.6,280.7l-7.1-8.2c5.9-5.1,9.2-12.4,9.2-20.2c0-2-0.2-4.1-0.7-6l10.6-2.5c0.6,2.8,1,5.6,1,8.5
			C213.6,263.2,208.8,273.6,200.6,280.7z"/>
		<path class="st11" d="M202,246.3c-2.1-9.1-8.9-16.5-17.8-19.4l3.3-10.4c12.5,4,22.2,14.5,25.1,27.3L202,246.3z"/>
		<path class="st13" d="M151.8,281c-8.5-7.2-13.4-17.6-13.4-28.7c0-20.7,16.8-37.6,37.6-37.6c3.9,0,7.8,0.6,11.5,1.8l-3.3,10.4
			c-2.6-0.8-5.4-1.3-8.1-1.3c-14.7,0-26.7,12-26.7,26.7c0,7.9,3.5,15.3,9.5,20.4L151.8,281z"/>
		<rect x="238.1" y="206.6" class="st16" width="84.3" height="74.2"/>
		<rect x="345" y="206.6" class="st16" width="84.3" height="74.2"/>
		<g>
			<path class="st17" d="M322.4,252.3l-2,2.6l-2.8-17.4c-0.1-0.5-0.4-0.9-0.9-1s-1,0.1-1.3,0.5l-8,10.7l-4.5-4.8
				c-0.2-0.3-0.6-0.4-0.9-0.4s-0.7,0.1-0.9,0.4l-4.4,4.7l-7.6-12.7c-0.2-0.4-0.6-0.6-1-0.6s-0.8,0.2-1.1,0.5l-11.6,16.7l-4.1-9.6
				c-0.1-0.3-0.4-0.6-0.8-0.7c-0.3-0.1-0.7-0.1-1,0.1l-12.2,7l-5.7-6.7c-0.4-0.5-1.1-0.6-1.7-0.2l-11.8,8.4v3.1l12.4-8.8l5.7,6.6
				c0.4,0.5,1.1,0.6,1.6,0.3l11.8-6.8l4.4,10.4c0.2,0.4,0.6,0.7,1,0.8s0.9-0.2,1.2-0.5l11.8-17l7.5,12.5c0.2,0.3,0.5,0.6,0.9,0.6
				s0.8-0.1,1-0.4l4.6-4.9l4.6,4.9c0.3,0.3,0.6,0.4,1,0.4s0.7-0.2,0.9-0.5l7.2-9.6l2.8,17.4c0.1,0.5,0.4,0.9,0.9,1
				c0.1,0,0.2,0,0.3,0c0.4,0,0.8-0.2,1-0.5l1.7-2.3V252.3z"/>
		</g>
		<g>
			<path class="st0" d="M429.2,241.6l-5.1-6.4c-0.3-0.3-0.7-0.5-1.1-0.5s-0.8,0.3-1,0.7l-10.4,20.2l-6.6-9.5
				c-0.2-0.3-0.6-0.5-0.9-0.5c-0.4,0-0.7,0.1-1,0.4l-6.3,6.5l-12-11.6c-0.5-0.5-1.2-0.5-1.7,0l-7.6,7.2l-4.7-5
				c-0.2-0.3-0.6-0.4-0.9-0.4s-0.7,0.1-0.9,0.4l-4.8,5.1l-6.9-4.4c-0.3-0.2-0.6-0.2-0.9-0.2c-0.3,0.1-0.6,0.3-0.8,0.6l-7.1,11.3
				l-3.6-8.4v6.4l2.2,5.2c0.2,0.4,0.6,0.7,1.1,0.8h0.1c0.4,0,0.8-0.2,1.1-0.6l7.7-12.2l6.7,4.3c0.5,0.3,1.2,0.2,1.6-0.2l4.6-4.9
				l4.6,4.9c0.2,0.2,0.5,0.4,0.9,0.4s0.7-0.1,0.9-0.3l7.6-7.2l12,11.6c0.5,0.5,1.3,0.5,1.8,0l6.2-6.3l6.9,10
				c0.3,0.4,0.7,0.6,1.1,0.5c0.4,0,0.8-0.3,1-0.7l10.5-20.3l5.8,7.4v-4.3H429.2z"/>
		</g>
		<g>
			<path class="st11" d="M165.8,264.1v-21.5l-4.1,4.4l-1.9-2l6.4-6.6h2.8v25.8L165.8,264.1L165.8,264.1z"/>
			<path class="st11" d="M174.1,264.1v-2.5c9.3-7.3,14.3-11.6,14.3-16c0-3.3-2.7-4.7-5.4-4.7c-3.1,0-5.5,1.3-7,3.2l-2-2
				c2-2.6,5.3-4.1,9-4.1c4.3,0,8.6,2.4,8.6,7.6c0,5.3-5.3,10-12.5,15.7h12.6v2.9h-17.6V264.1z"/>
		</g>
		<g>
			<path class="st13" d="M257.6,226.1v-10.5l-2,2.1l-0.9-1l3.2-3.2h1.4v12.6L257.6,226.1L257.6,226.1z"/>
			<path class="st13" d="M261.8,217.9c0-0.6,0.5-1,1-1c0.6,0,1,0.5,1,1c0,0.6-0.5,1-1,1C262.2,218.9,261.8,218.5,261.8,217.9z
				 M261.8,225.3c0-0.6,0.5-1,1-1c0.6,0,1,0.5,1,1c0,0.6-0.5,1-1,1C262.2,226.3,261.8,225.8,261.8,225.3z"/>
			<path class="st13" d="M265.9,219.8c0-3.1,1.4-6.5,4.8-6.5s4.8,3.4,4.8,6.5s-1.4,6.5-4.8,6.5S265.9,222.9,265.9,219.8z M274,219.8
				c0-2.5-0.8-5.1-3.2-5.1s-3.2,2.6-3.2,5.1s0.8,5.1,3.2,5.1S274,222.3,274,219.8z"/>
			<path class="st13" d="M277.8,224.3l1-1c0.8,1.1,1.9,1.7,3.5,1.7c1.7,0,2.9-1.2,2.9-2.7c0-1.7-1.2-2.7-2.9-2.7
				c-1.1,0-2.1,0.4-2.9,1.2l-1.2-0.4v-6.8h7.7v1.4h-6.1v4.4c0.6-0.6,1.7-1.1,2.9-1.1c2.1,0,4,1.4,4,4s-1.9,4.2-4.5,4.2
				C280.1,226.3,278.7,225.6,277.8,224.3z"/>
			<path class="st13" d="M288.8,217.9c0-0.6,0.5-1,1-1s1,0.5,1,1c0,0.6-0.5,1-1,1S288.8,218.5,288.8,217.9z M288.8,225.3
				c0-0.6,0.5-1,1-1s1,0.5,1,1c0,0.6-0.5,1-1,1S288.8,225.8,288.8,225.3z"/>
			<path class="st13" d="M293,226.1v-1.2c4.5-3.6,7-5.7,7-7.8c0-1.6-1.3-2.3-2.6-2.3c-1.5,0-2.7,0.6-3.4,1.6l-1-1c1-1.3,2.6-2,4.4-2
				c2.1,0,4.2,1.2,4.2,3.7c0,2.6-2.6,4.9-6.1,7.7h6.2v1.4L293,226.1L293,226.1z"/>
			<path class="st13" d="M306.5,226.1v-10.5l-2,2.1l-0.9-1l3.2-3.2h1.4v12.6L306.5,226.1L306.5,226.1z"/>
		</g>
		<g>
			<path class="st13" d="M378.7,222.9c0-1.7,1.4-2.8,3-3.3c-1.5-0.4-2.8-1.4-2.8-3c0-2.3,2.2-3.3,4.3-3.3c2.1,0,4.3,1,4.3,3.3
				c0,1.7-1.4,2.6-2.8,3c1.6,0.5,3,1.6,3,3.3c0,2.1-2,3.4-4.5,3.4C380.7,226.3,378.7,225.1,378.7,222.9z M386.1,222.8
				c0-1.6-2.2-2.3-2.9-2.4c-0.8,0.1-2.9,0.8-2.9,2.4c0,1.4,1.4,2.2,2.9,2.2C384.7,224.9,386.1,224.1,386.1,222.8z M385.9,216.8
				c0-1.3-1.2-2.1-2.7-2.1s-2.7,0.8-2.7,2.1c0,1.5,2,2,2.7,2.2C384,218.8,385.9,218.3,385.9,216.8z"/>
			<path class="st13" d="M390.2,224.8l0.8-1.2c0.6,0.8,1.4,1.3,2.7,1.3c2.5,0,3.6-2.5,3.6-4.9c0-0.2,0-0.3,0-0.5
				c-0.5,0.9-1.9,2-3.6,2c-2.3,0-4.1-1.3-4.1-4c0-2.2,1.7-4.1,4.4-4.1c3.5,0,4.9,3.1,4.9,6.5s-1.6,6.5-5.1,6.5
				C392.1,226.3,391,225.7,390.2,224.8z M397.2,218.2c-0.1-1.6-1-3.5-3.2-3.5c-1.9,0-2.9,1.5-2.9,2.7c0,1.9,1.3,2.7,2.9,2.7
				C395.3,220.1,396.6,219.3,397.2,218.2z"/>
		</g>
		<path class="st15" d="M166.9,103.8c0-1.7-1.4-3-3-3s-3,1.4-3,3v11c2.1,0,4.1,0,6.1,0v-11H166.9z"/>
		<path class="st14" d="M160.8,153.3v26h6.1v-26C164.8,153.3,162.7,153.3,160.8,153.3z"/>
		<path class="st13" d="M166.9,114.8c-2,0-4,0-6.1,0v38.5c2,0,4,0,6.1,0V114.8z"/>
		<path class="st15" d="M173.9,98.6c0-1.7-1.4-3-3-3s-3,1.4-3,3V125c1.9,0,4,0,6.1,0V98.6H173.9z"/>
		<path class="st14" d="M167.8,159v20.2h6.1V159C171.8,159.2,169.8,159.2,167.8,159z"/>
		<path class="st13" d="M167.8,125v34c1.9,0.2,4,0.2,6.1,0v-34C171.8,125,169.8,125,167.8,125z"/>
		<path class="st15" d="M181,125.9c0-1.7-1.4-3-3-3s-3,1.4-3,3v22.2c2,0,4.1,0,6.1,0v-22.2H181z"/>
		<path class="st18" d="M181,148.1c-2,0-4.1,0-6.1,0v23.1c2.2,0,4.2,0,6.1,0V148.1z"/>
		<path class="st14" d="M174.9,171.2v8h6.1v-8C179.1,171.2,177.1,171.2,174.9,171.2z"/>
		<path class="st13" d="M191.6,117.3c-2,0-4,0-6.1,0v41.1c2.1,0,4.1,0,6.1,0V117.3z"/>
		<path class="st14" d="M185.5,158.4v20.9h6.1v-20.9C189.6,158.4,187.6,158.4,185.5,158.4z"/>
		<path class="st15" d="M191.6,97.7c0-1.7-1.4-3-3-3s-3,1.4-3,3v19.7c2.1,0,4.1,0,6.1,0V97.7H191.6z"/>
		<path class="st15" d="M199,130.1c0-1.7-1.4-3-3-3s-3,1.4-3,3v15.5c2,0,4,0,6.1,0v-15.5H199z"/>
		<path class="st13" d="M199,145.6c-2.1,0-4.1,0-6.1,0v18c2,0,4.1,0,6.1,0V145.6z"/>
		<path class="st14" d="M192.9,163.5v15.7h6.1v-15.7C196.9,163.5,194.9,163.5,192.9,163.5z"/>
		<path class="st15" d="M206.5,145c0-1.7-1.4-3-3-3s-3,1.4-3,3v16c2,0,4,0,6.1,0v-16H206.5z"/>
		<path class="st18" d="M206.5,161c-2.1,0-4.1,0-6.1,0v12.8c2,0,4,0,6.1,0V161z"/>
		<path class="st14" d="M200.4,173.8v5.6h6.1v-5.6C204.4,173.8,202.4,173.8,200.4,173.8z"/>
		<path class="st13" d="M217.4,119.9c-2,0-4.1,0-6.1,0v33.4c2,0,4.1,0,6.1,0V119.9z"/>
		<path class="st14" d="M211.3,153.3v26h6.1v-26C215.3,153.3,213.3,153.3,211.3,153.3z"/>
		<path class="st15" d="M217.4,109.9c0-1.7-1.4-3-3-3s-3,1.4-3,3v10c2,0,4.1,0,6.1,0v-10H217.4z"/>
		<path class="st13" d="M224.3,142.5c-2-0.2-4.1-0.4-6.1-0.7v32c2,0,4,0,6.1,0V142.5z"/>
		<path class="st14" d="M218.2,173.8v5.5h6.1v-5.5C222.2,173.8,220.2,173.8,218.2,173.8z"/>
		<path class="st15" d="M224.3,121.1c0-1.7-1.4-3-3-3s-3,1.4-3,3v20.7c2,0.3,4.1,0.5,6.1,0.7v-21.4H224.3z"/>
		<path class="st15" d="M231.3,132c0-1.7-1.4-3-3-3s-3,1.4-3,3v16.1c2,0,4.1,0,6.1,0V132H231.3z"/>
		<path class="st18" d="M231.3,148.1c-2,0-4,0-6.1,0v7.7c2,0,4,0,6.1,0V148.1z"/>
		<path class="st14" d="M225.2,155.8v23.4h6.1v-23.4C229.2,155.8,227.2,155.8,225.2,155.8z"/>
		<path class="st15" d="M242.2,156.4c0-1.7-1.4-3-3-3s-3,1.4-3,3v2c2,0,4.1,0,6.1,0v-2H242.2z"/>
		<path class="st13" d="M242.2,158.4c-2,0-4.1,0-6.1,0v5.1c2.1,0,4.1,0,6.1,0V158.4z"/>
		<path class="st14" d="M236.1,163.5v15.7h6.1v-15.7C240.2,163.5,238.1,163.5,236.1,163.5z"/>
		<path class="st15" d="M249,139.1c0-1.7-1.4-3-3-3s-3,1.4-3,3v1.4c2.1,0,4.1,0,6.1,0v-1.4H249z"/>
		<path class="st13" d="M249,140.4c-2,0-4,0-6.1,0v12.8c2,0,4,0,6.1,0V140.4z"/>
		<path class="st14" d="M242.9,153.3v26h6.1v-26C246.9,153.3,244.9,153.3,242.9,153.3z"/>
		<path class="st15" d="M256.1,152.8c0-1.7-1.4-3-3-3s-3,1.4-3,3v3c1.9,0,4,0,6.1,0v-3H256.1z"/>
		<path class="st18" d="M256.1,155.8c-2.1,0-4.2,0-6.1,0v5.1c2.1,0,4.1,0,6.1,0V155.8z"/>
		<path class="st14" d="M250,161v18.3h6.1V161C254.1,161,252.1,161,250,161z"/>
		<path class="st14" d="M139.4,163.3c-1.6,0-2.9,1.3-3,2.8c1.9,0,4.1,0,6,0C142.2,164.5,140.9,163.3,139.4,163.3z"/>
		<path class="st14" d="M136.4,166.1c0,0.1,0,0.1,0,0.2v12.9h6.1v-12.9c0-0.1,0-0.1,0-0.2C140.5,166.1,138.2,166.1,136.4,166.1z"/>
		<path class="st15" d="M149.3,149c0-1.7-1.4-3-3-3s-3,1.4-3,3v4.3c1.9,0,4,0,6.1,0V149H149.3z"/>
		<path class="st13" d="M149.3,153.3c-2.1,0-4.1,0-6.1,0v18c1.9,0,3.9,0,6.1,0V153.3z"/>
		<path class="st14" d="M143.2,171.2v8h6.1v-8C147.1,171.2,145.1,171.2,143.2,171.2z"/>
		<path class="st15" d="M156.1,162.8c0-1.7-1.4-3-3-3s-3,1.4-3,3v3.3c2.2,0,4.1,0,6.1,0v-3.3H156.1z"/>
		<path class="st18" d="M156.1,166.1c-2,0-3.9,0-6.1,0v5.1c2.1,0,4.1,0,6.1,0.1V166.1z"/>
		<path class="st14" d="M150,171.2v8h6.1v-7.9C154.1,171.3,152.1,171.2,150,171.2z"/>
		<path class="st14" d="M263.6,163.3c-1.6,0-2.9,1.3-3,2.8c1.9,0,4.1,0,6,0C266.4,164.5,265.2,163.3,263.6,163.3z"/>
		<path class="st14" d="M260.6,166.1c0,0.1,0,0.1,0,0.2v12.9h6.1v-12.9c0-0.1,0-0.1,0-0.2C264.7,166.1,262.4,166.1,260.6,166.1z"/>
		<path class="st15" d="M273.5,149c0-1.7-1.4-3-3-3c-1.7,0-3,1.4-3,3v4.3c1.9,0,4,0,6.1,0V149H273.5z"/>
		<path class="st13" d="M273.5,153.3c-2.1,0-4.1,0-6.1,0v18c1.9,0,3.9,0,6.1,0V153.3z"/>
		<path class="st14" d="M267.4,171.2v8h6.1v-8C271.4,171.2,269.3,171.2,267.4,171.2z"/>
		<path class="st15" d="M280.3,162.8c0-1.7-1.4-3-3-3c-1.7,0-3,1.4-3,3v3.3c2.2,0,4.1,0,6.1,0v-3.3H280.3z"/>
		<path class="st18" d="M280.3,166.1c-2,0-3.9,0-6.1,0v5.1c2.1,0,4.1,0,6.1,0.1V166.1z"/>
		<path class="st14" d="M274.2,171.2v8h6.1v-7.9C278.3,171.3,276.3,171.2,274.2,171.2z"/>
	</g>
</g>
</svg>
