<svg xmlns="http://www.w3.org/2000/svg" xmlns:xlink="http://www.w3.org/1999/xlink" width="864.33" height="682.65" viewBox="0 0 864.33 682.65"><defs><filter id="b" x="145.36" y="-8533.08" width="558.72" height="32766" filterUnits="userSpaceOnUse" color-interpolation-filters="sRGB"><feFlood flood-color="#fff" result="bg"/><feBlend in="SourceGraphic" in2="bg"/></filter><mask id="a" x="145.36" y="-8533.08" width="558.72" height="32766" maskUnits="userSpaceOnUse"><g filter="url(#b)"/></mask><linearGradient id="c" x1="434.38" y1="301.1" x2="-634.43" y2="374.4" gradientUnits="userSpaceOnUse"><stop offset="0" stop-color="#999"/><stop offset="0.53" stop-color="#050505"/><stop offset="0.96"/><stop offset="1"/></linearGradient><linearGradient id="d" x1="61.23" y1="207.45" x2="258.59" y2="207.45" gradientUnits="userSpaceOnUse"><stop offset="0" stop-color="#ffe592"/><stop offset="1" stop-color="#fca83a"/></linearGradient><linearGradient id="e" x1="497.12" y1="373.01" x2="-896.87" y2="185.43" gradientUnits="userSpaceOnUse"><stop offset="0" stop-color="#3761fe"/><stop offset="1" stop-color="#19029a"/></linearGradient><linearGradient id="f" x1="561.84" y1="278.72" x2="600.84" y2="278.72" gradientUnits="userSpaceOnUse"><stop offset="0" stop-color="#225fc2"/><stop offset="1" stop-color="#1a6ab3"/></linearGradient><linearGradient id="g" x1="652.61" y1="278.33" x2="91.63" y2="278.33" gradientUnits="userSpaceOnUse"><stop offset="0" stop-color="#639bff"/><stop offset="1" stop-color="#85d2f9"/></linearGradient><linearGradient id="h" x1="723.96" y1="472.33" x2="60.04" y2="472.33" xlink:href="#g"/><linearGradient id="i" x1="667.62" y1="438.38" x2="106.64" y2="438.38" xlink:href="#g"/><linearGradient id="j" x1="345.11" y1="453.29" x2="243.38" y2="453.29" xlink:href="#f"/><linearGradient id="k" x1="246.92" y1="442.34" x2="390.5" y2="487.8" xlink:href="#g"/><filter id="m" x="145.36" y="140.58" width="558.72" height="322.36" filterUnits="userSpaceOnUse" color-interpolation-filters="sRGB"><feFlood flood-color="#fff" result="bg"/><feBlend in="SourceGraphic" in2="bg"/></filter><mask id="l" x="145.36" y="140.58" width="558.72" height="322.36" maskUnits="userSpaceOnUse"><g mask="url(#a)" filter="url(#m)"><path d="M356.61,460.91,148.89,341.19c-5.22-3-4.57-8.28,1.46-11.76l322.12-186c6-3.48,15.14-3.86,20.36-.85L700.55,262.33c5.22,3,4.57,8.28-1.46,11.76L377,460.06C371,463.54,361.83,463.92,356.61,460.91Z" fill-rule="evenodd" fill="url(#c)" style="mix-blend-mode:multiply"/></g></mask><linearGradient id="n" x1="434.38" y1="301.1" x2="-634.43" y2="374.4" gradientUnits="userSpaceOnUse"><stop offset="0" stop-color="#5cbfff"/><stop offset="0.53" stop-color="#ddf2ff"/><stop offset="0.96" stop-color="#fcfeff"/><stop offset="1" stop-color="#fff"/></linearGradient><linearGradient id="o" x1="30.55" y1="364.23" x2="79.18" y2="364.23" gradientUnits="userSpaceOnUse"><stop offset="0" stop-color="#002852"/><stop offset="1" stop-color="#001d38"/></linearGradient><linearGradient id="p" x1="38.14" y1="372.48" x2="49.77" y2="372.48" gradientUnits="userSpaceOnUse"><stop offset="0" stop-color="#36302d"/><stop offset="1" stop-color="#281d1c"/></linearGradient><linearGradient id="q" x1="934.13" y1="367" x2="949.41" y2="381.47" gradientTransform="translate(-893.71)" xlink:href="#d"/><linearGradient id="r" x1="38.28" y1="360.94" x2="43.96" y2="360.94" xlink:href="#p"/><linearGradient id="s" x1="61.23" y1="358.74" x2="73.78" y2="358.74" xlink:href="#p"/><linearGradient id="t" x1="951.98" y1="348.16" x2="967.26" y2="362.63" gradientTransform="translate(-893.71)" xlink:href="#d"/><linearGradient id="u" x1="61.33" y1="349.13" x2="66.85" y2="349.13" xlink:href="#p"/><linearGradient id="v" x1="947.92" y1="196.5" x2="952.82" y2="207.36" gradientTransform="translate(-893.71)" xlink:href="#p"/><linearGradient id="w" x1="949" y1="275.48" x2="949" y2="222.09" gradientTransform="translate(-893.71)" gradientUnits="userSpaceOnUse"><stop offset="0" stop-color="#ff3e00"/><stop offset="1" stop-color="#ffc051"/></linearGradient><linearGradient id="x" x1="998.15" y1="226.92" x2="962.62" y2="224.51" gradientTransform="translate(-893.71)" xlink:href="#e"/><linearGradient id="y" x1="959.91" y1="209.83" x2="960.87" y2="290.14" gradientTransform="translate(-893.71)" xlink:href="#e"/><linearGradient id="z" x1="935.35" y1="210.12" x2="936.31" y2="290.43" gradientTransform="translate(-893.71)" xlink:href="#e"/><linearGradient id="aa" x1="948.58" y1="196.2" x2="953.48" y2="207.06" gradientTransform="translate(-893.71)" xlink:href="#p"/><linearGradient id="ab" x1="52.13" y1="213.13" x2="65.67" y2="213.13" xlink:href="#p"/><linearGradient id="ac" x1="-208.94" y1="1772.98" x2="-201.26" y2="1772.98" gradientTransform="matrix(0.81, -0.58, 0.58, 0.81, -730.48, -1395.52)" xlink:href="#p"/><linearGradient id="ad" x1="138.21" y1="170.32" x2="80.19" y2="262.18" xlink:href="#d"/><linearGradient id="ae" x1="72.24" y1="241.98" x2="134.46" y2="241.98" gradientTransform="matrix(1, 0, 0, 1, 0, 0)" xlink:href="#w"/><linearGradient id="af" x1="500.23" y1="210.14" x2="547.02" y2="210.14" xlink:href="#e"/><linearGradient id="ag" x1="-6627.74" y1="2001.5" x2="-6640.85" y2="2025.51" gradientTransform="translate(875.95 5795.68) rotate(89.93)" xlink:href="#w"/><linearGradient id="ah" x1="-5100.13" y1="53.23" x2="-5101.38" y2="76.48" gradientTransform="matrix(-1, 0, 0, 1, -4581.06, 0)" gradientUnits="userSpaceOnUse"><stop offset="0" stop-color="#ffe592"/><stop offset="0.77" stop-color="#fca83a"/></linearGradient><linearGradient id="ai" x1="5304.51" y1="52.97" x2="5308.88" y2="52.97" gradientTransform="matrix(-1, 0, 0, 1, 5827.26, 0)" xlink:href="#o"/><linearGradient id="aj" x1="528.83" y1="195.8" x2="536.81" y2="195.8" gradientTransform="matrix(1, 0, 0, 1, 0, 0)" xlink:href="#ah"/><linearGradient id="ak" x1="510.84" y1="203.25" x2="516.31" y2="203.25" gradientTransform="matrix(1, 0, 0, 1, 0, 0)" xlink:href="#ah"/><linearGradient id="al" x1="-5040.39" y1="862.48" x2="-5036.54" y2="911.53" gradientTransform="matrix(-1, 0, 0, 1, -4581.06, 0)" xlink:href="#o"/><linearGradient id="am" x1="5307.69" y1="73.63" x2="5311.55" y2="101.86" gradientTransform="matrix(-1, 0, 0, 1, 5827.26, 0)" xlink:href="#w"/><linearGradient id="an" x1="-5057.94" y1="6270.95" x2="-5048.42" y2="6292.89" gradientTransform="translate(-5148.91 4895.41) rotate(179.98)" xlink:href="#w"/><linearGradient id="ao" x1="-5098.29" y1="53.24" x2="-5099.53" y2="76.07" xlink:href="#ah"/><linearGradient id="ap" x1="7181.58" y1="25.96" x2="7222.54" y2="25.96" gradientTransform="matrix(-1, 0, 0, 1, 7726.95, 0)" gradientUnits="userSpaceOnUse"><stop offset="0" stop-color="#ff3e00"/><stop offset="1" stop-color="#d83a03"/></linearGradient><linearGradient id="aq" x1="304.77" y1="480.38" x2="319.46" y2="480.38" gradientUnits="userSpaceOnUse"><stop offset="0" stop-color="#0d4ecf"/><stop offset="1" stop-color="#1929a9"/></linearGradient><linearGradient id="ar" x1="335.66" y1="486.89" x2="349.21" y2="486.89" xlink:href="#aq"/><linearGradient id="as" x1="-369.29" y1="475.53" x2="-398.14" y2="398.82" gradientTransform="matrix(-1, 0, 0, 1, -46.79, 0)" xlink:href="#o"/><linearGradient id="at" x1="-577.17" y1="161.12" x2="-588.43" y2="195.29" gradientTransform="matrix(-0.99, 0.12, 0.12, 0.99, -254.17, 218.17)" xlink:href="#ap"/><linearGradient id="au" x1="344.33" y1="376.47" x2="368.68" y2="376.47" xlink:href="#aq"/><linearGradient id="av" x1="336.99" y1="372.84" x2="345.9" y2="372.84" xlink:href="#d"/><linearGradient id="aw" x1="-397.42" y1="349.44" x2="-387.01" y2="396.45" gradientTransform="matrix(-1, 0, 0, 1, -46.79, 0)" xlink:href="#d"/><linearGradient id="ax" x1="-576.69" y1="161.33" x2="-588.26" y2="196.42" gradientTransform="matrix(-0.99, 0.12, 0.12, 0.99, -254.17, 218.17)" xlink:href="#ap"/><linearGradient id="ay" x1="-417.49" y1="353.86" x2="-407.28" y2="399.91" gradientTransform="matrix(-1, 0, 0, 1, -46.79, 0)" xlink:href="#d"/><linearGradient id="az" x1="4213.08" y1="-518.47" x2="4213.08" y2="-507.58" gradientTransform="translate(-1743.88 4095.89) rotate(-53.93)" gradientUnits="userSpaceOnUse"><stop offset="0" stop-color="#eae7df"/><stop offset="1" stop-color="#cec7ba"/></linearGradient><linearGradient id="ba" x1="4778.74" y1="1684.69" x2="4784.49" y2="1684.69" gradientTransform="matrix(0.11, -1, 0.81, 0.59, -1546.46, 4173.72)" xlink:href="#p"/><linearGradient id="bb" x1="-46.47" y1="779.46" x2="-36.47" y2="824.58" gradientTransform="matrix(-0.96, -0.28, -0.28, 0.96, 548.27, -404.62)" xlink:href="#d"/><linearGradient id="bc" x1="531.77" y1="582.96" x2="531.09" y2="655.85" gradientUnits="userSpaceOnUse"><stop offset="0" stop-color="#2d32e2"/><stop offset="0.16" stop-color="#2c31dc"/><stop offset="0.36" stop-color="#282ecc"/><stop offset="0.58" stop-color="#2228b2"/><stop offset="0.82" stop-color="#1a218e"/><stop offset="1" stop-color="#131a6d"/></linearGradient><linearGradient id="bd" x1="539.91" y1="382.53" x2="535.99" y2="469.17" xlink:href="#bc"/><linearGradient id="be" x1="595.01" y1="385.02" x2="591.09" y2="471.66" xlink:href="#bc"/><linearGradient id="bf" x1="569.25" y1="383.86" x2="565.34" y2="470.49" xlink:href="#bc"/><linearGradient id="bg" x1="500.24" y1="380.74" x2="496.32" y2="467.37" xlink:href="#bc"/><linearGradient id="bh" x1="538.81" y1="382.48" x2="534.89" y2="469.12" xlink:href="#bc"/><linearGradient id="bi" x1="-9609.78" y1="3615.31" x2="-9610.12" y2="3744.78" gradientTransform="matrix(-0.82, 0.57, 0.57, 0.82, -9516.37, 2979.11)" xlink:href="#w"/><linearGradient id="bj" x1="-305.89" y1="-2871.26" x2="-306.28" y2="-2720.96" gradientTransform="translate(-760.12 2998.51) rotate(34.94)" xlink:href="#w"/><linearGradient id="bk" x1="497.06" y1="1.32" x2="538.86" y2="109.06" gradientTransform="matrix(1, 0.08, -0.07, 0.89, -12.71, 397.22)" xlink:href="#w"/><linearGradient id="bl" x1="-60.02" y1="12.33" x2="-60.4" y2="160.5" gradientTransform="matrix(1.12, 0.09, -0.08, 1.03, 604.49, 438.85)" xlink:href="#w"/><linearGradient id="bm" x1="24.46" y1="-1912.52" x2="-34.03" y2="-1777.9" gradientTransform="matrix(0.96, 0.43, -0.42, 0.93, -180.3, 2207.26)" xlink:href="#w"/><linearGradient id="bn" x1="695.67" y1="412.95" x2="744.3" y2="412.95" xlink:href="#o"/><linearGradient id="bo" x1="4849.71" y1="248.72" x2="4858.79" y2="248.72" gradientTransform="matrix(-1, 0, 0, 1, 5617.49, 0)" xlink:href="#aq"/><linearGradient id="bp" x1="4848.32" y1="249.42" x2="4856.91" y2="249.42" gradientTransform="matrix(-1, 0, 0, 1, 5617.49, 0)" xlink:href="#p"/><linearGradient id="bq" x1="762.01" y1="250.22" x2="770.54" y2="250.22" xlink:href="#p"/><linearGradient id="br" x1="771.64" y1="262.28" x2="771.64" y2="243.87" xlink:href="#g"/><linearGradient id="bs" x1="773.16" y1="251.04" x2="779.87" y2="260.88" xlink:href="#aq"/><linearGradient id="bt" x1="775.89" y1="257.97" x2="784.65" y2="257.97" xlink:href="#g"/><linearGradient id="bu" x1="4832.08" y1="258.53" x2="4840.26" y2="258.53" gradientTransform="matrix(-1, 0, 0, 1, 5617.49, 0)" xlink:href="#aq"/><linearGradient id="bv" x1="779.06" y1="259.16" x2="786.47" y2="259.16" xlink:href="#g"/><linearGradient id="bw" x1="4832.18" y1="254.33" x2="4837.04" y2="263.52" gradientTransform="matrix(-1, 0, 0, 1, 5617.49, 0)" xlink:href="#e"/><linearGradient id="bx" x1="4832.2" y1="259.22" x2="4837.44" y2="259.22" gradientTransform="matrix(-1, 0, 0, 1, 5617.49, 0)" xlink:href="#e"/><linearGradient id="by" x1="779.82" y1="258.84" x2="783.66" y2="258.84" xlink:href="#p"/><linearGradient id="bz" x1="4867.61" y1="258.13" x2="4876.69" y2="258.13" gradientTransform="matrix(-1, 0, 0, 1, 5617.49, 0)" xlink:href="#aq"/><linearGradient id="ca" x1="4866.23" y1="258.82" x2="4874.81" y2="258.82" gradientTransform="matrix(-1, 0, 0, 1, 5617.49, 0)" xlink:href="#p"/><linearGradient id="cb" x1="744.1" y1="259.63" x2="752.63" y2="259.63" xlink:href="#p"/><linearGradient id="cc" x1="745.94" y1="261.74" x2="755.79" y2="261.74" xlink:href="#aq"/><linearGradient id="cd" x1="4849.77" y1="256.95" x2="4858.81" y2="256.95" gradientTransform="matrix(-1, 0, 0, 1, 5617.49, 0)" xlink:href="#aq"/><linearGradient id="ce" x1="762.56" y1="258.14" x2="768.53" y2="258.14" gradientTransform="translate(606.3 -533.9) rotate(60)" xlink:href="#p"/><linearGradient id="cf" x1="759.69" y1="258.48" x2="773.32" y2="258.48" xlink:href="#p"/><linearGradient id="cg" x1="759.32" y1="256.68" x2="773.34" y2="256.68" gradientUnits="userSpaceOnUse"><stop offset="0" stop-color="#a39c95"/><stop offset="1" stop-color="#8d8682"/></linearGradient><linearGradient id="ch" x1="754.5" y1="275.55" x2="754.5" y2="259.76" xlink:href="#g"/><linearGradient id="ci" x1="4848.39" y1="259.29" x2="4851.68" y2="259.29" gradientTransform="matrix(-1, 0, 0, 1, 5617.49, 0)" xlink:href="#g"/><linearGradient id="cj" x1="756.89" y1="262.15" x2="763.6" y2="271.98" xlink:href="#aq"/><linearGradient id="ck" x1="758.75" y1="267.81" x2="767.5" y2="267.81" xlink:href="#g"/><linearGradient id="cl" x1="4849.22" y1="268.37" x2="4857.4" y2="268.37" gradientTransform="matrix(-1, 0, 0, 1, 5617.49, 0)" xlink:href="#aq"/><linearGradient id="cm" x1="761.92" y1="269" x2="769.33" y2="269" xlink:href="#g"/><linearGradient id="cn" x1="4849.32" y1="264.17" x2="4854.18" y2="273.35" gradientTransform="matrix(-1, 0, 0, 1, 5617.49, 0)" xlink:href="#e"/><linearGradient id="co" x1="4849.34" y1="269.06" x2="4854.58" y2="269.06" gradientTransform="matrix(-1, 0, 0, 1, 5617.49, 0)" xlink:href="#e"/><linearGradient id="cp" x1="762.67" y1="268.67" x2="766.52" y2="268.67" xlink:href="#p"/><linearGradient id="cq" x1="4849.02" y1="259.59" x2="4849.79" y2="259.59" gradientTransform="matrix(-1, 0, 0, 1, 5617.49, 0)" gradientUnits="userSpaceOnUse"><stop offset="0" stop-color="#cec7ba"/><stop offset="1" stop-color="#a39c95"/></linearGradient><linearGradient id="cr" x1="767.92" y1="259.66" x2="768.56" y2="259.66" xlink:href="#cg"/><linearGradient id="cs" x1="778.23" y1="415.3" x2="788.8" y2="415.3" xlink:href="#p"/><linearGradient id="ct" x1="787.02" y1="414.92" x2="778.48" y2="412.99" xlink:href="#d"/><linearGradient id="cu" x1="763.33" y1="424.29" x2="775.73" y2="424.29" xlink:href="#p"/><linearGradient id="cv" x1="771.91" y1="423.49" x2="763.68" y2="423.01" xlink:href="#d"/><linearGradient id="cw" x1="800.88" y1="333.35" x2="807.69" y2="333.35" xlink:href="#aq"/><linearGradient id="cx" x1="-2835.99" y1="-1673.66" x2="-2844.53" y2="-1620.94" gradientTransform="translate(4080.25 571.8) rotate(-25.85)" xlink:href="#ap"/><linearGradient id="cy" x1="-3819.34" y1="2092.96" x2="-3806.69" y2="2106.26" gradientTransform="matrix(0.94, 0.34, -0.34, 0.94, 5081.96, -421.71)" xlink:href="#p"/><linearGradient id="cz" x1="759.62" y1="375.83" x2="790.48" y2="375.83" xlink:href="#o"/><linearGradient id="da" x1="775.9" y1="289.36" x2="782.02" y2="337.41" gradientTransform="matrix(1, 0, 0, 1, 0, 0)" xlink:href="#ap"/><linearGradient id="db" x1="745.97" y1="271.67" x2="752.11" y2="271.67" xlink:href="#aq"/><linearGradient id="dc" x1="3887.83" y1="7768.67" x2="3881.86" y2="7805.51" gradientTransform="translate(9453.66 22.8) rotate(114.77)" xlink:href="#ap"/><linearGradient id="dd" x1="-3819.94" y1="2091.52" x2="-3806.46" y2="2105.69" gradientTransform="matrix(0.94, 0.34, -0.34, 0.94, 5081.96, -421.71)" xlink:href="#p"/><linearGradient id="de" x1="779.57" y1="420.28" x2="769.05" y2="418" xlink:href="#g"/><linearGradient id="df" x1="781.64" y1="410.76" x2="771.12" y2="408.47" xlink:href="#g"/><clipPath id="dg"><path d="M471.33,227.89l-46.6,26.94-46.74-27V234l46.74,27,46.6-26.94Z" fill="none"/></clipPath><linearGradient id="dh" x1="418.97" y1="27.53" x2="426.22" y2="27.53" gradientTransform="matrix(1, 0, 0, 1, 0, 0)" xlink:href="#az"/><linearGradient id="di" x1="418.97" y1="27.53" x2="426.22" y2="27.53" gradientTransform="matrix(1, 0, 0, 1, 0, 0)" xlink:href="#az"/><linearGradient id="dj" x1="418.97" y1="12.55" x2="426.22" y2="12.55" gradientTransform="matrix(1, 0, 0, 1, 0, 0)" xlink:href="#az"/><linearGradient id="dk" x1="48.22" y1="386.85" x2="60.71" y2="418.36" xlink:href="#d"/><linearGradient id="dl" x1="785.27" y1="121.29" x2="797.76" y2="152.8" xlink:href="#d"/><linearGradient id="dm" x1="-5806.88" y1="490.24" x2="-5808.13" y2="505.36" gradientTransform="translate(6057.63)" xlink:href="#ap"/><linearGradient id="dn" x1="-5792.81" y1="496.16" x2="-5791.81" y2="516.66" gradientTransform="translate(6057.63)" xlink:href="#ap"/><linearGradient id="do" x1="602.65" y1="204.5" x2="602.65" y2="229.66" gradientUnits="userSpaceOnUse"><stop offset="0" stop-color="#ffc051"/><stop offset="1" stop-color="#e68c2c"/></linearGradient><linearGradient id="dp" x1="315.84" y1="295.35" x2="315.84" y2="356.3" gradientUnits="userSpaceOnUse"><stop offset="0" stop-color="#45ad76"/><stop offset="1" stop-color="#06662d"/></linearGradient><linearGradient id="dq" x1="359.19" y1="102.68" x2="313.45" y2="56.94" gradientTransform="matrix(1, 0, 0, 1, 0, 0)" xlink:href="#w"/><linearGradient id="dr" x1="313.84" y1="84.09" x2="357.48" y2="84.09" gradientUnits="userSpaceOnUse"><stop offset="0" stop-color="#f9f6f2"/><stop offset="1" stop-color="#eae7df"/></linearGradient><linearGradient id="ds" x1="357.09" y1="104.78" x2="311.35" y2="59.04" gradientTransform="matrix(1, 0, 0, 1, 0, 0)" xlink:href="#w"/></defs><title>travel</title><path d="M213.85,328.36h-.14l0-1h.12a4.78,4.78,0,0,0,2.33-.62l1-.59.5.87-1,.58A5.64,5.64,0,0,1,213.85,328.36ZM208,325.91l-3.47-2,.5-.87,3.47,2ZM222.89,324l-.5-.87,3.47-2,.5.86ZM199.36,321l-3.47-2,.49-.87,3.48,2Zm32.2-1.91-.5-.86,3.47-2,.5.87ZM190.68,316l-3.48-2,.5-.86,3.47,2Zm49.55-1.93-.5-.87,3.47-2,.5.87ZM182,311l-3.47-2,.5-.86,3.47,2Zm66.91-2-.5-.87,3.47-2,.5.87Zm-75.59-3-3.47-2,.49-.87,3.48,2Zm84.26-2-.5-.86,3.46-2,.5.87Zm-92.94-3-3.48-2,.5-.87,3.47,2Zm101.6-2-.49-.87,3.46-2,.5.86Zm-110.29-3-3.47-2,.49-.87,3.48,2Zm119-2-.5-.87,3.47-2,.5.87Zm-127.64-2.92-3.47-2,.49-.87,3.47,2Zm136.31-2.06-.5-.87,3.47-2,.5.86Zm-145-2.9-3.47-2,.5-.87,3.47,2Zm153.67-2.09-.5-.87,3.47-2,.5.87Zm-162.35-2.87-3.47-2,.49-.87,3.48,2Zm171-2.12-.5-.86,3.47-2,.5.87Zm-179.7-2.84-3.48-2,.5-.87,3.47,2Zm188.37-2.14-.5-.87,3.46-2,.5.86Zm-197.06-2.82-3.47-2,.5-.87,3.47,2Zm205.72-2.17-.49-.86,3.46-2a4.59,4.59,0,0,0,1.81-1.87l.89.47a5.59,5.59,0,0,1-2.2,2.27Zm-214.4-2.79-3.47-2,.49-.87,3.48,2Zm-8.68-5-3.48-2,.5-.87,3.47,2Zm227.39-2.08a4.69,4.69,0,0,0-1.35-1.15l-1.76-1,.49-.86,1.77,1a6.08,6.08,0,0,1,1.63,1.39ZM86.47,256.48l-3.47-2,.5-.87,3.47,2Zm227.76-2.26-3.48-2,.5-.87,3.47,2Zm-236.44-2.7-3.47-2,.49-.87,3.48,2Zm227.75-2.26-3.47-2,.5-.87,3.47,2Zm-236.43-2.7-3.48-2,.5-.87,3.47,2Zm227.75-2.26-3.47-2,.49-.87,3.47,2ZM60.42,241.6l-3.47-2,.5-.87,3.47,2Zm227.76-2.26-3.48-2,.5-.87,3.47,2Zm-236.44-2.7-3.47-2,.49-.87,3.48,2Zm227.75-2.26-3.47-2,.49-.87,3.48,2ZM44.15,230.06a6,6,0,0,1-.11-1.12,5.71,5.71,0,0,1,.9-3.09l.84.55a4.73,4.73,0,0,0-.65,3.46Zm226.66-.64-3.48-2,.5-.87,3.47,2Zm-8.69-5-3.47-2,.5-.87,3.47,2ZM50.45,223.12l-.5-.86,3.47-2,.5.87Zm203-3.62-3.47-2,.49-.87,3.48,2ZM59.12,218.14l-.5-.87,3.47-2,.5.87Zm185.64-3.6-3.48-2,.5-.87,3.47,2Zm-177-1.39-.5-.87,3.47-2,.5.87Zm168.28-3.57-3.47-2,.5-.87,3.47,2ZM76.46,208.16l-.5-.86,3.47-2,.5.87Zm150.93-3.53-3.47-2,.49-.87,3.48,2ZM85.13,203.18l-.5-.87,3.46-2,.5.86Zm133.58-3.51-3.48-2,.5-.87,3.47,2ZM93.79,198.19l-.49-.86,3.46-2,.5.87ZM210,194.71l-3.47-2,.5-.87,3.47,2Zm-107.56-1.5-.5-.87,3.47-2,.5.86Zm98.88-3.46-3.47-2,.49-.87,3.48,2Zm-90.21-1.53-.5-.87,3.47-2,.5.87Zm81.53-3.43-3.48-2,.5-.86,3.47,2Zm-72.86-1.56-.5-.86,3.47-2,.5.87Zm64.17-3.4-3.47-2,.5-.87,3.47,2Zm-55.5-1.58-.5-.87,3.47-2,.5.86Zm46.82-3.38-3.47-2,.49-.87,3.48,2Zm-38.15-1.61-.5-.86,3.46-2,.5.87Zm29.47-3.35-3.48-2,.5-.87,3.47,2Zm-20.81-1.63-.49-.87,3.46-2,.5.86ZM157.92,165l-.85-.48a4.6,4.6,0,0,0-2.62-.61l-.06-1a5.69,5.69,0,0,1,3.18.74l.85.48Z" fill="#94dbff"/><polygon points="318.89 261.18 214.54 321.2 53.4 228.92 157.76 168.9 318.89 261.18" fill-rule="evenodd" opacity="0.1"/><polygon points="263.74 176.92 257.18 182.38 213.48 317.79 309.77 262.2 263.74 176.92" fill="#fca83a"/><polygon points="213.48 317.86 84.28 242.62 180.58 186.97 309.77 262.21 213.48 317.86" fill="#e68c2c" fill-rule="evenodd"/><polygon points="61.89 231.8 213.47 317.82 259.11 183.31 263.74 176.92 263.31 176.37 107.67 97.01 61.89 231.8" fill="#fff" fill-rule="evenodd"/><polygon points="61.23 231.84 212.81 317.86 258.59 183.07 107.02 97.05 61.23 231.84" fill-rule="evenodd" fill="url(#d)"/><polygon points="208.16 293.32 78.28 219.61 114.63 112.51 244.51 186.22 208.16 293.32" fill="#ededed" fill-rule="evenodd"/><polygon points="208.16 293.32 203.99 295.52 240.35 188.45 244.51 186.22 208.16 293.32" fill="#ddd5cc" fill-rule="evenodd"/><polygon points="240.35 188.45 110.46 114.74 114.63 112.51 244.51 186.22 240.35 188.45" fill="#f2efe7" fill-rule="evenodd"/><polygon points="107.02 97.05 258.59 183.04 263.31 176.37 112.25 90.77 107.02 97.05" fill="#ffe592" fill-rule="evenodd"/><polygon points="203.99 295.52 74.11 221.81 110.46 114.71 240.35 188.42 203.99 295.52" fill="#fefefe" fill-rule="evenodd"/><path d="M117,122.52a2.06,2.06,0,0,0-3,1.3,3.25,3.25,0,0,0,1.31,3.77,2.06,2.06,0,0,0,3-1.3,3.27,3.27,0,0,0-1.31-3.77Zm19.14,10.86a2.06,2.06,0,0,0-3,1.3,3.26,3.26,0,0,0,1.3,3.77,2.07,2.07,0,0,0,3-1.3,3.27,3.27,0,0,0-1.31-3.77Zm19,10.78a2.06,2.06,0,0,0-3,1.31,3.26,3.26,0,0,0,1.31,3.77,2.07,2.07,0,0,0,3-1.31,3.27,3.27,0,0,0-1.31-3.77ZM174.24,155a2.06,2.06,0,0,0-3,1.3,3.26,3.26,0,0,0,1.31,3.77,2.06,2.06,0,0,0,3-1.3,3.25,3.25,0,0,0-1.31-3.77Zm19.14,10.86a2.07,2.07,0,0,0-3,1.31,3.25,3.25,0,0,0,1.31,3.76,2.06,2.06,0,0,0,3-1.3,3.25,3.25,0,0,0-1.31-3.77Zm19,10.79a2.06,2.06,0,0,0-3,1.3,3.27,3.27,0,0,0,1.31,3.77,2.07,2.07,0,0,0,3-1.31,3.23,3.23,0,0,0-1.31-3.76Zm19.1,10.83a2.06,2.06,0,0,0-3,1.31,3.24,3.24,0,0,0,1.31,3.76,2.05,2.05,0,0,0,3-1.3A3.25,3.25,0,0,0,231.48,187.48Z" fill="#bcb2a6" fill-rule="evenodd"/><path d="M231.18,192.67a1.34,1.34,0,0,1-.71-.2,2.61,2.61,0,0,1-1-3,1.52,1.52,0,0,1,1.38-1.14,1.43,1.43,0,0,1,.7.2,2.61,2.61,0,0,1,1,3,1.51,1.51,0,0,1-1.37,1.14Zm-19.1-10.83a1.43,1.43,0,0,1-.7-.2,2.6,2.6,0,0,1-1-3,1.5,1.5,0,0,1,1.37-1.15,1.44,1.44,0,0,1,.71.2,2.61,2.61,0,0,1,1,3A1.52,1.52,0,0,1,212.08,181.84Zm-19-10.79a1.4,1.4,0,0,1-.71-.2,2.6,2.6,0,0,1-1-3,1.5,1.5,0,0,1,1.37-1.14,1.44,1.44,0,0,1,.71.2,2.61,2.61,0,0,1,1,3,1.51,1.51,0,0,1-1.38,1.14Zm-19.14-10.86a1.43,1.43,0,0,1-.7-.2,2.62,2.62,0,0,1-1-3,1.51,1.51,0,0,1,1.38-1.14,1.43,1.43,0,0,1,.71.19,2.63,2.63,0,0,1,1,3,1.52,1.52,0,0,1-1.38,1.14Zm-19.09-10.83a1.44,1.44,0,0,1-.71-.2,2.62,2.62,0,0,1-1-3,1.52,1.52,0,0,1,1.38-1.14,1.47,1.47,0,0,1,.71.2,2.61,2.61,0,0,1,1,3,1.51,1.51,0,0,1-1.37,1.15Zm-19-10.79a1.34,1.34,0,0,1-.71-.2,2.61,2.61,0,0,1-1-3,1.52,1.52,0,0,1,1.38-1.14,1.42,1.42,0,0,1,.7.19,2.61,2.61,0,0,1,1,3,1.51,1.51,0,0,1-1.37,1.14Zm-19.14-10.86a1.44,1.44,0,0,1-.71-.2,2.61,2.61,0,0,1-1-3,1.51,1.51,0,0,1,1.38-1.14,1.39,1.39,0,0,1,.7.19,2.63,2.63,0,0,1,1,3,1.52,1.52,0,0,1-1.38,1.14Z" fill="#ddd5cc" fill-rule="evenodd"/><polygon points="116.88 186.73 104.43 179.66 101.14 189.36 113.59 196.43 116.88 186.73 116.88 186.73" fill="#e5491a" fill-rule="evenodd"/><polygon points="131.89 195.25 119.44 188.18 116.15 197.88 128.6 204.94 131.89 195.25 131.89 195.25" fill="#e5491a" fill-rule="evenodd"/><polygon points="112.01 201.09 99.55 194.02 96.27 203.7 108.72 210.77 112.01 201.09 112.01 201.09" fill="#f2efe7" fill-rule="evenodd"/><polygon points="127.02 209.6 114.56 202.54 111.28 212.22 123.73 219.29 127.02 209.6 127.02 209.6" fill="#f2efe7" fill-rule="evenodd"/><polygon points="106.99 215.88 94.53 208.81 91.24 218.5 103.7 225.57 106.99 215.88 106.99 215.88" fill="#f2efe7" fill-rule="evenodd"/><polygon points="122 224.39 109.54 217.33 106.25 227.02 118.71 234.09 122 224.39" fill="#f2efe7" fill-rule="evenodd"/><polygon points="182.2 206.51 169.75 199.45 166.46 209.13 178.92 216.2 182.2 206.51" fill="#e5491a" fill-rule="evenodd"/><polygon points="197.29 215.07 184.84 208.01 181.55 217.69 194 224.76 197.29 215.07" fill="#e5491a" fill-rule="evenodd"/><polygon points="212.39 223.64 199.93 216.57 196.65 226.26 209.1 233.33 212.39 223.64" fill="#e5491a" fill-rule="evenodd"/><polygon points="146.97 203.81 134.52 196.74 131.23 206.44 143.68 213.5 146.97 203.81" fill="#e5491a" fill-rule="evenodd"/><polygon points="162.26 212.49 149.82 205.43 146.53 215.12 158.97 222.18 162.26 212.49" fill="#e5491a" fill-rule="evenodd"/><polygon points="177.28 221.01 164.83 213.94 161.54 223.63 173.99 230.7 177.28 221.01" fill="#f2efe7" fill-rule="evenodd"/><polygon points="192.37 229.57 179.92 222.5 176.63 232.2 189.08 239.26 192.37 229.57" fill="#f2efe7" fill-rule="evenodd"/><polygon points="207.47 238.14 195.01 231.07 191.72 240.76 204.18 247.83 207.47 238.14" fill="#f2efe7" fill-rule="evenodd"/><polygon points="142.1 218.17 129.65 211.1 126.36 220.78 138.81 227.85 142.1 218.17" fill="#f2efe7" fill-rule="evenodd"/><polygon points="157.39 226.84 144.95 219.78 141.66 229.47 154.1 236.53 157.39 226.84" fill="#f2efe7" fill-rule="evenodd"/><polygon points="172.41 235.37 159.96 228.3 156.67 237.98 169.12 245.05 172.41 235.37" fill="#f2efe7" fill-rule="evenodd"/><polygon points="187.5 243.93 175.04 236.86 171.76 246.55 184.21 253.61 187.5 243.93" fill="#f2efe7" fill-rule="evenodd"/><polygon points="202.59 252.5 190.14 245.43 186.85 255.11 199.31 262.18 202.59 252.5" fill="#f2efe7" fill-rule="evenodd"/><polygon points="137.08 232.96 124.63 225.89 121.34 235.58 133.79 242.65 137.08 232.96" fill="#f2efe7" fill-rule="evenodd"/><polygon points="152.37 241.63 139.93 234.57 136.64 244.26 149.08 251.33 152.37 241.63" fill="#f2efe7" fill-rule="evenodd"/><polygon points="167.39 250.16 154.94 243.09 151.65 252.78 164.1 259.85 167.39 250.16" fill="#f2efe7" fill-rule="evenodd"/><polygon points="182.48 258.72 170.02 251.65 166.73 261.34 179.19 268.41 182.48 258.72" fill="#f2efe7" fill-rule="evenodd"/><polygon points="197.57 267.29 185.12 260.22 181.83 269.91 194.28 276.98 197.57 267.29" fill="#f2efe7" fill-rule="evenodd"/><path d="M121.8,172.23l-12.45-7.07-3.29,9.69,12.45,7.07,3.29-9.69Zm15,8.51-12.45-7.06-3.29,9.69,12.45,7.07,3.29-9.7Zm15.09,8.57-12.46-7.07-3.29,9.69L148.61,199l3.29-9.69ZM167.19,198l-12.45-7.06-3.29,9.69,12.45,7.06Z" fill="#f2efe7" fill-rule="evenodd"/><polygon points="171.59 185 159.15 177.94 156.04 187.09 168.49 194.16 171.59 185" fill="#f2efe7" fill-rule="evenodd"/><polygon points="156.31 176.32 143.85 169.26 140.74 178.41 153.2 185.48 156.31 176.32" fill="#f2efe7" fill-rule="evenodd"/><polygon points="141.22 167.76 128.76 160.69 125.66 169.85 138.11 176.92 141.22 167.76" fill="#f2efe7" fill-rule="evenodd"/><polygon points="126.21 159.24 113.75 152.18 110.64 161.33 123.1 168.4 126.21 159.24" fill="#f2efe7" fill-rule="evenodd"/><polygon points="216.79 210.66 204.34 203.59 201.24 212.74 213.69 219.81 216.79 210.66" fill="#f2efe7" fill-rule="evenodd"/><polygon points="201.7 202.09 189.25 195.02 186.14 204.17 198.59 211.24 201.7 202.09" fill="#f2efe7" fill-rule="evenodd"/><polygon points="186.61 193.53 174.16 186.46 171.05 195.61 183.5 202.68 186.61 193.53" fill="#f2efe7" fill-rule="evenodd"/><path d="M163.09,168.46a3.66,3.66,0,0,1-5.29,1.48,3.54,3.54,0,0,1-1.44-5.22l1.41.8a2,2,0,0,0,.8,3.07,2.11,2.11,0,0,0,3.09-1l1.73-3-2.29-1.31.76-1.34,3.73,2.14Z" fill="#565656"/><path d="M173.6,168.7l-2.49,4.36a3.57,3.57,0,0,1-5.24,1.52,3.66,3.66,0,0,1-1.44-5.34l2.5-4.36,1.42.82-2.49,4.36a2.15,2.15,0,0,0,.76,3.22c1.19.68,2.32.27,3.06-1l2.5-4.36Z" fill="#565656"/><path d="M176.45,170.32l-3.6,6.28,3.91,2.24-.76,1.33-5.34-3.06L175,169.5Z" fill="#565656"/><path d="M181.42,177.34l3.82-2,1.73,1,0,.07-5.55,2.66-1.8,3.15-1.43-.82,1.79-3.15-.4-6.07,0-.07,1.71,1Z" fill="#565656"/><path d="M364.68,563c-1.36,0-2.72-.07-4.05-.2l.11-1a39.37,39.37,0,0,0,3.94.2Zm5.09-.31-.13-1c1.26-.15,2.52-.37,3.76-.64l.13,0,.23,1-.14,0C372.35,562.3,371.05,562.53,369.77,562.69Zm-15.11-1a31.26,31.26,0,0,1-3.82-1.36l.39-.92a30.06,30.06,0,0,0,3.71,1.32Zm24.89-1.45-.36-.93a35.23,35.23,0,0,0,3.57-1.66l.47.88A33.45,33.45,0,0,1,379.55,560.21Zm-34-2.78-3.47-2,.5-.87,3.47,2Zm42.94-1.92-.5-.86,3.46-2,.5.86Zm-51.61-3.07-3.46-2,.5-.87,3.46,2Zm60.26-1.93-.5-.86,3.47-2,.5.86Zm-68.92-3.06-3.46-2,.5-.86,3.46,2Zm77.58-1.94-.5-.86,3.47-2,.5.87Zm-86.24-3-3.46-2,.5-.86,3.46,2Zm94.9-1.94-.5-.87,3.46-2,.5.87Zm-103.56-3-3.46-2,.5-.87,3.46,2Zm112.22-2-.5-.87,3.46-2,.5.87Zm-120.88-3-3.46-2,.49-.87,3.47,2Zm129.53-2-.5-.87,3.47-2,.5.87Zm-138.19-3-3.47-2,.5-.87,3.47,2Zm146.85-2-.5-.86,3.46-2,.5.86Zm-155.51-3-3.47-2,.5-.87,3.47,2Zm164.17-2-.5-.86,3.46-2,.5.86Zm-172.83-3-3.47-2,.5-.87,3.47,2Zm181.49-2-.5-.86,3.46-2,.5.86Zm-190.15-3-3.47-2,.5-.86,3.46,2Zm198.8-2-.5-.87,3.47-2,.5.87Zm-207.47-3-3.46-2,.5-.87,3.46,2Zm216.13-2-.5-.87,3.46-2,.5.87Zm-224.79-3-3.46-2,.5-.87,3.46,2Zm233.45-2-.5-.87,3.46-2,.5.87Zm-242.11-3-3.46-2,.5-.87,3.46,2Zm250.77-2-.5-.86,3.46-2,.5.86Zm-259.43-3-3.46-2,.49-.87,3.47,2Zm268.08-2-.5-.86,3.47-2,.5.86Zm-276.74-3-3.47-2,.5-.87,3.47,2Zm285.4-2-.5-.86,3.46-2,.5.86Zm-294.06-3-3.47-2,.5-.86,3.47,2Zm302.72-2-.5-.87,3.46-2,.5.87Zm-311.38-3-3.47-2,.5-.87,3.47,2Zm320-2-.5-.87,3.47-2,.5.87Zm-328.69-3-3.47-2,.5-.87,3.46,2Zm337.35-2-.5-.87,3.46-2,.5.87Zm-346-3-3.46-2,.5-.87,3.46,2Zm354.68-2-.5-.86,3.46-2,.5.86Zm-363.34-3-3.46-2,.5-.87,3.46,2Zm372-2-.5-.86,3.46-2,.5.86ZM172.28,457.6l-3.46-2,.5-.87,3.46,2Zm389.31-2.06-.5-.86,3.47-2,.5.86Zm-398-2.93-3.46-2,.49-.86,3.47,2Zm406.63-2.06-.5-.87,3.46-2,.5.87ZM155,447.62l-3.47-2,.5-.86,3.47,2Zm423.95-2.07-.5-.87,3.46-2,.5.87ZM146.3,442.63l-3.47-2,.5-.87,3.47,2Zm441.27-2.08-.5-.87,3.46-2,.5.87ZM137.93,437a23,23,0,0,1-2.68-3.09l.81-.58a22.29,22.29,0,0,0,2.56,2.94Zm458.29-1.45-.5-.86,3.47-2,.5.86Zm8.66-5-.5-.86,3.46-2,.5.86Zm-472.47-2.06a21.63,21.63,0,0,1-1-4l1-.15a19.72,19.72,0,0,0,.94,3.78Zm481.13-2.94-.5-.86,3.46-2,.5.86Zm8.66-5-.5-.87,3.46-2,.5.87Zm-489.64-1.93-1-.25a18.9,18.9,0,0,1,1.51-3.82l.89.46A17.66,17.66,0,0,0,132.56,418.63Zm498.29-3.07-.5-.87,3.47-2,.5.87Zm8.66-5-.5-.87,3.46-2,.5.87Zm-502.27-.45-.78-.63a32.81,32.81,0,0,1,2.75-3l.69.72A33.63,33.63,0,0,0,137.24,410.11Zm510.93-4.55-.5-.87,3.46-2,.5.86Zm-503.56-1.84-.25-.44-.2-.46c1.18-.57,2.37-1.14,3.58-1.74l.44.9Zm512.22-3.16-.5-.86,3.46-2,.5.86Zm-503.25-1.24-.45-.89,3.58-1.79.45.89Zm511.9-3.76-.5-.86,3.47-2,.5.86Zm-502.95-.73-.45-.89,3.57-1.82.45.89Zm511.61-4.26-.5-.87,3.46-2,.5.87Zm-502.69-.3-.46-.88,3.56-1.84.46.89Zm8.89-4.59-.46-.89,3.55-1.85.46.89Zm502.46-.11-.5-.87,3.46-2,.5.87ZM189.21,381l-.46-.89,3.54-1.86.46.89Zm502.24-.47-.5-.87,3.47-2,.5.87Zm-493.38-4.2-.47-.88,3.53-1.88.47.89Zm502-.8-.5-.87,1.51-.87c.64-.36,1.27-.76,1.88-1.18l.56.83c-.63.43-1.28.84-1.94,1.22Zm-493.2-3.89-.47-.88,3.53-1.89.47.89Zm501.3-2.14-.73-.69c.38-.4.75-.81,1.09-1.23a13.78,13.78,0,0,0,1.3-1.83l.86.52a16.46,16.46,0,0,1-1.39,1.95C709,368.7,708.61,369.12,708.21,369.54ZM215.73,367l-.47-.88,3.53-1.89.47.88Zm8.82-4.73-.47-.88,3.52-1.9.47.88Zm488.31-1.69-1-.17a16.13,16.13,0,0,0,.21-2.61c0-.42,0-.84,0-1.25l1-.08c0,.44.05.89.05,1.33A17.18,17.18,0,0,1,712.86,360.54Zm-479.5-3.06-.48-.88,3.52-1.9.48.87Zm8.8-4.77-.48-.87,3.51-1.91.48.88Zm468.41-1.8a15.85,15.85,0,0,0-2.05-3.28l.78-.63a17.18,17.18,0,0,1,2.18,3.49Zm-459.63-3-.47-.87,3.51-1.92.48.88Zm453.16-4-3.47-2,.49-.87,3.48,2Zm-444.37-.77-.48-.87,3.51-1.92.48.87ZM695.39,339l-3.49-2,.49-.87,3.49,2Zm-426.88-.64-.48-.88,3.49-1.92.48.88Zm418.15-4.28-3.49-2,.48-.87,3.5,2Zm-409.4-.53-.48-.87,3.5-1.93.48.88Zm400.66-4.37-3.49-2,.49-.87,3.49,2ZM286,328.71l-.48-.88,3.51-1.93.49.87Zm383.15-4.44-3.49-1.95.49-.88,3.49,2Zm-374.36-.41-.48-.88,3.5-1.93.49.87Zm365.62-4.47L657,317.44l.48-.87,3.5,1.95ZM303.58,319l-.49-.88,3.51-1.94.48.88Zm348.12-4.51-3.5-1.94.49-.88,3.49,1.95Zm-339.37-.34-.48-.88,3.49-1.94.49.88ZM643,309.64l-3.5-1.94.49-.88,3.5,1.95Zm-321.87-.33-.49-.87,3.5-1.95.48.88Zm313.13-4.54-3.5-1.94.48-.87,3.5,1.94Zm-304.39-.32-.48-.88,3.49-1.94.49.87Zm295.64-4.54L622,298l.49-.88,3.5,2Zm-286.9-.33-.49-.88,3.5-1.94.49.87Zm278.15-4.53-3.5-1.94.49-.88,3.5,1.95ZM347.3,294.7l-.49-.87,3.49-1.95.49.87ZM608,290.19l-3.51-1.95.48-.87,3.51,1.95ZM356,289.82l-.49-.87,3.5-2,.48.87Zm243.16-4.5-3.49-1.93.48-.88,3.5,1.94Zm-234.43-.39-.49-.87,3.49-2,.49.87Zm225.7-4.45-3.5-1.94.49-.88,3.5,1.95Zm-217-.45-.49-.87,3.49-2,.49.87Zm208.22-4.4-3.5-1.94.48-.88,3.5,1.94Zm-199.49-.5-.49-.87,3.48-2,.49.87ZM573,270.78l-3.5-1.94.49-.88,3.5,1.94Zm-182-.55-.49-.87,3.49-2,.49.87Zm173.26-4.31L560.7,264l.48-.87,3.5,1.94Zm-164.54-.6-.49-.88,3.49-2,.49.87Zm155.78-4.25-3.5-1.94.48-.87,3.5,1.94Zm-147.06-.67-.49-.87,3.48-2,.49.87Zm138.3-4.18-3.5-1.94.48-.87,3.51,1.94Zm-129.58-.75-.5-.87,3.49-2,.49.87Zm120.82-4.1-3.5-1.93.48-.88,3.5,1.94Zm-112.11-.82-.49-.88,3.48-2,.5.87Zm103.35-4-3.51-1.93.48-.88,3.51,1.94Zm-94.63-.91-.5-.87,3.49-2,.49.87Zm85.86-3.93-3.51-1.94.48-.88,3.51,1.94Zm-77.15-1-.49-.87,3.49-2,.49.87Zm68.37-3.84-3.51-1.94.48-.87L512.1,236ZM452,235.71l-.5-.87,3.49-2,.5.87ZM502.82,232,499.29,230l.49-.88,3.53,2Zm-42.1-1.23-.5-.87,1.55-.89a10.14,10.14,0,0,1,2.18-.87l.28,1a9,9,0,0,0-2,.78l-.55.31ZM493.84,228c-1.12-.18-2.44-.34-3.93-.45l.08-1c1.51.12,2.86.27,4,.46ZM470,228l-.12-1c1.23-.15,2.58-.29,4-.39l.07,1C472.59,227.68,471.26,227.81,470,228Zm9.93-.66,0-1c1.35,0,2.7,0,4,0v1C482.64,227.26,481.31,227.27,480,227.3Z" fill="#94dbff"/><path d="M365.05,549.59a36.13,36.13,0,0,1-7.8-.84,28.35,28.35,0,0,1-8.07-3.15L151.77,431.84a20.6,20.6,0,0,1-10.76-18c0-6.48,7.42-15,12.13-17.24,80.94-39.05,312.1-170.93,312.1-170.93,5.27-3,29.66-3.36,34.1-.8,0,0,156.12,86.26,198.94,110.65l.15.09a15.65,15.65,0,0,1,4.18,23.25,27,27,0,0,1-7.25,6l-312,180a35.39,35.39,0,0,1-9.9,3.78A39.39,39.39,0,0,1,365.05,549.59Z" fill-rule="evenodd" opacity="0.1"/><path d="M356.61,525.47,148.88,405.75c-5.22-3-4.56-8.27,1.46-11.75L472.46,208c6-3.48,15.14-3.86,20.36-.84L700.55,326.9c5.22,3,4.56,8.27-1.46,11.75L377,524.63C370.94,528.11,361.82,528.49,356.61,525.47Z" fill="#94dbff" fill-rule="evenodd"/><polygon points="403.5 506.34 180.53 376.56 450.34 220.79 673.3 350.57 403.5 506.34" fill-rule="evenodd" fill="url(#e)"/><path d="M699.09,335,377,521c-6,3.48-15.15,3.86-20.36.85L148.88,402.14a7,7,0,0,1-3.16-3.32c-1,2.54.05,5.14,3.16,6.93L356.61,525.47c5.21,3,14.33,2.64,20.36-.84l322.12-186c4.17-2.4,5.76-5.66,4.62-8.44A10,10,0,0,1,699.09,335Z" fill="#d9f4ff" fill-rule="evenodd"/><path d="M596.58,289.64l-34.15-19.71c-.88-.51-.77-1.4.25-2a3.77,3.77,0,0,1,3.42-.14l34.15,19.71c.87.51.76,1.39-.25,2A3.8,3.8,0,0,1,596.58,289.64Z" fill-rule="evenodd" fill="url(#f)"/><path d="M562.3,269.81a2,2,0,0,1,.38-.31,3.77,3.77,0,0,1,3.42-.14l34.15,19.71c.06,0,.07.08.13.12a1,1,0,0,0-.13-1.67L566.1,267.81a3.77,3.77,0,0,0-3.42.14C561.73,268.49,561.61,269.29,562.3,269.81Z" fill-rule="evenodd" fill="url(#g)"/><polygon points="182.08 375.68 180.53 376.57 402.94 506.03 404.48 505.14 182.08 375.68" fill="#d9f4ff" fill-rule="evenodd"/><polygon points="671.1 351.2 672.78 350.24 450.36 220.77 448.68 221.74 671.1 351.2" fill="#d9f4ff" fill-rule="evenodd"/><path d="M356.61,525.48a14.91,14.91,0,0,0,4,1.51v17.23a14.3,14.3,0,0,1-4-1.54L148.88,423c-2.41-1.38-3.55-3.26-3.51-5.21,0,0,0-17.31,0-17.31,0,2,1.08,3.9,3.53,5.32Z" fill-rule="evenodd" fill="url(#h)"/><path d="M699.09,355.88,377,541.85a21.26,21.26,0,0,1-6,2.27V526.9a21.57,21.57,0,0,0,6-2.27l322.12-186c3-1.72,4.66-3.9,4.93-6V348.7C704.3,351.15,702.64,353.81,699.09,355.88Z" fill-rule="evenodd" fill="url(#i)"/><path d="M370.94,526.9v17.22a24.46,24.46,0,0,1-10.32.1V527A24.14,24.14,0,0,0,370.94,526.9Z" fill="#94dbff" fill-rule="evenodd"/><path d="M289.44,450.78l-5.05.33-9.65-5.54a5.19,5.19,0,0,0-4.67.2l-8.78,5.07-4.83-.46v1.32a1.35,1.35,0,0,0,.81,1.33l13.89,8a5.22,5.22,0,0,0,4.67-.19l12.47-7.2c.81-.47,1.19-1.08,1.12-1.64C289.44,452,289.44,450.78,289.44,450.78Z" fill-rule="evenodd" fill="url(#j)"/><path d="M271.16,459.61l-13.89-8c-1.2-.7-1-1.9.33-2.7l12.47-7.2a5.19,5.19,0,0,1,4.67-.19l13.89,8c1.2.69,1.05,1.9-.33,2.7l-12.47,7.2A5.19,5.19,0,0,1,271.16,459.61Z" fill-rule="evenodd" fill="url(#k)"/><polygon points="468.23 225.63 191.37 385.47 178.24 377.89 455.1 218.05 468.23 225.63" fill="#94dbff" fill-rule="evenodd"/><polygon points="464.65 229.65 195.96 384.83 194.25 383.82 462.94 228.64 464.65 229.65" fill="#d9f4ff" fill-rule="evenodd"/><polygon points="659.67 342.58 390.98 497.75 389.27 496.74 657.96 341.57 659.67 342.58" fill="#d9f4ff" fill-rule="evenodd"/><polygon points="678.8 346.74 401.94 506.58 388.81 499 665.67 339.16 678.8 346.74" fill="#94dbff" fill-rule="evenodd"/><g mask="url(#l)"><path d="M356.61,460.91,148.89,341.19c-5.22-3-4.57-8.28,1.46-11.76l322.12-186c6-3.48,15.14-3.86,20.36-.85L700.55,262.33c5.22,3,4.57,8.28-1.46,11.76L377,460.06C371,463.54,361.83,463.92,356.61,460.91Z" fill-rule="evenodd" fill="url(#n)"/></g><ellipse cx="54.86" cy="364.23" rx="24.31" ry="14.68" opacity="0.3" fill="url(#o)"/><path d="M49.63,372.67a2.23,2.23,0,0,1-.46,2.21,20,20,0,0,1-2.93,1.22c-.57.22-1.36.41-2.67-.69a23.29,23.29,0,0,1-2.63-3V373l-2.5-2a.68.68,0,0,1-.29-.63c0-.41,0-1.65,0-1.65S48.59,371.63,49.63,372.67Z" fill="url(#p)"/><path d="M44.69,367.44c-.62-1.28-1.44-3.66-4-3.3-.53.07-2.08.78-2.31,1.36a11.51,11.51,0,0,0-.18,1.21,6.45,6.45,0,0,0-.22,2.36,1.15,1.15,0,0,0,.67.8,10.56,10.56,0,0,1,2.6,1.8c.75.81,1.85,2.63,3.29,3.3a4.44,4.44,0,0,0,2.59,0,18.43,18.43,0,0,0,1.69-.74,1.6,1.6,0,0,0,.77-1.89C48.65,370.35,46.12,370.42,44.69,367.44Z" fill="url(#q)"/><path d="M44,354.84S43.3,363,43,366c-.1,1.11-2.52,1.44-3.62.6-.78-.6-1.13-11.73-1.13-11.73Z" fill="url(#r)"/><path d="M73.52,358.08a1.55,1.55,0,0,1,0,1.67c-.72.5-2.1,1.43-2.41,1.61a3.53,3.53,0,0,1-3.44-.13c-1.17-.78-2.94-2.12-2.94-2.12v.57l-3.15-1.88a.66.66,0,0,1-.38-.6v-1.47S72.34,357.21,73.52,358.08Z" fill="url(#s)"/><path d="M67.73,353.52c-.8-1.19-2.44-3.24-5-2.49a2.82,2.82,0,0,0-1.62,1.49,8.38,8.38,0,0,0,0,1.23,7.65,7.65,0,0,0-.1,1.95,1.24,1.24,0,0,0,.77,1,16.07,16.07,0,0,1,3.08,1.52,12.86,12.86,0,0,0,3.94,2.41,4.35,4.35,0,0,0,2.58-.37,17.07,17.07,0,0,0,1.58-1,1.63,1.63,0,0,0,.5-2C72.3,355.45,69.59,356.28,67.73,353.52Z" fill="url(#t)"/><path d="M68.9,357.55a8.29,8.29,0,0,1,1.79-1.11,1.88,1.88,0,0,1,1.62,0,2.5,2.5,0,0,1,1,.88,1.48,1.48,0,0,1-.45,1.81,16.42,16.42,0,0,1-1.44.89,5.23,5.23,0,0,1-2.34.34C68,360.24,68.08,358.21,68.9,357.55Z" fill="#ffebbd"/><path d="M62.59,353.36c1.31.67,3.39.41,3.47-.72.23-3.44.79-8.11.79-8.11l-5.52.33S61.66,352.89,62.59,353.36Z" fill="url(#u)"/><path d="M45,372.39a8.45,8.45,0,0,1,1.73-.86,2.07,2.07,0,0,1,1.75.15,2.27,2.27,0,0,1,.82.75A1.2,1.2,0,0,1,48.8,374a14.47,14.47,0,0,1-1.43.72,5.82,5.82,0,0,1-2.3.18C44,374.7,44.2,372.93,45,372.39Z" fill="#ffebbd"/><path d="M61.68,194.59c-6.5-2.34-9.33,1.28-9.33,1.28a4.26,4.26,0,0,0-3.63,2.45c-2.17,4.43,0,8.15.09,9.41.29,3.68,1.65,3.07,3.25,5.43s11.25-1.31,13.31-4.65c.7-1.14,1.73-6.22.9-9.51C65.72,196.81,63.32,195.18,61.68,194.59Z" fill="url(#v)"/><path d="M64.49,222c.19-3.25-5.21-8.18-10.39-7.3s-9,6.23-9.19,9.48c-.12,2,2.38,49.62,2.38,49.62L65.67,271S64.31,225.2,64.49,222Z" fill="url(#w)"/><path d="M55,224.27l1.24-.13a3.5,3.5,0,0,0,3.11-3.42l.16-12.31L52,209.66s-.23,2.56-.25,3.42c0,1.78-.15,5.24-.24,7.91A3.2,3.2,0,0,0,55,224.27Z" fill="#ffebbd"/><path d="M59.44,214.33v4.88a8.7,8.7,0,0,1-3.83-.63c-3.45-1.38-3.83-6.49-3.83-6.49l.18-2.43C53.55,211.37,55.62,214.94,59.44,214.33Z" fill="#ffd56c"/><polygon points="103.51 219.7 106.52 222.37 100.92 227.33 98.67 222.31 103.51 219.7" fill="#ffebbd"/><path d="M108.57,214l3.29,5.53a17.21,17.21,0,0,1-2.27,2.74,5.55,5.55,0,0,1-4.19.81l-2.13-2.61a7.55,7.55,0,0,1-.13-2.75C103.88,216.25,108.57,214,108.57,214Z" fill="#ffebbd"/><path d="M103.91,214.94c-.39.82-1.13,2.9-.88,3.38s2.69-.52,2.69-.52.18-2.43.33-3a11.88,11.88,0,0,1,.81-1.54c.18-.38.19-.69-.2-.73C105.74,212.47,104.31,214.09,103.91,214.94Z" fill="#ffebbd"/><path d="M111.86,219.54a17.54,17.54,0,0,0,2-1.79,15.64,15.64,0,0,0,1.08-2.14c.21-.4.32-.6.14-.84s-.49-.13-.68,0l-4.59,4.42Z" fill="#ffebbd"/><path d="M109.59,217.19l.82,1.27,2.78-2.29s1.72-1.66,2.32-2.19a.6.6,0,0,0,0-.76.47.47,0,0,0-.59-.17C113.43,213.73,109.59,217.19,109.59,217.19Z" fill="#ffebbd"/><path d="M109.85,217l2.77-2.44a25.92,25.92,0,0,0,2.38-2.08c.42-.45.42-.71.24-1s-.53-.42-.95,0c-1.22,1.24-5.08,4.07-5.08,4.07Z" fill="#ffebbd"/><path d="M108.57,214l.2,1.63S113,213,114.34,212c.17-.13.16-.48,0-.75a.63.63,0,0,0-.69-.24,22.68,22.68,0,0,0-3.09,1.32A16.1,16.1,0,0,0,108.57,214Z" fill="#ffebbd"/><path d="M64.5,224.67c2,4.28,11.28,11.23,16.49,11.78,6.54.69,18.4-6.16,23.61-10.68.52-.44,1-1.23.65-1.73-.92-1.39-2.93-3.8-2.93-3.8-.67-.93-2-.3-2.59,0-4,2.4-12.92,6.29-16.62,5.38-4.8-1.18-12.2-11.5-15-12.29C66.17,212.78,61.63,218.42,64.5,224.67Z" fill="url(#x)"/><path d="M37.21,362.1s-.89-22.34.35-31.75c.18-1.37,1.38-6,1.61-7.39,1.35-8-1.12-27.71-1.12-35.55,0-7.16,3.07-18.45,3.07-18.45s6.25,4.27,16.71,2.58a14.64,14.64,0,0,0,10.58-7.74,76.14,76.14,0,0,1,3,11.53,199.2,199.2,0,0,1,1,36.89c-.15,1.81-1.51,4.9-1.63,7.09C70,331.92,68.27,349,68.26,349.13c-.12,1.15-2,1.79-4.94,1.87-1.91.05-4-.84-4-1.48-.57-7.9-1.64-20.12-1.32-27.66.06-1.52.74-8.26.82-9.78.45-8.69-2.44-18.15-2.44-18.15S55.27,314.59,53,323c-.39,1.47-2.1,4.59-2.45,6.07-1.53,6.39-4.69,31.12-4.7,33.1,0,1-1.58,2.07-4.85,2.05C39.33,364.22,37.21,363,37.21,362.1Z" fill="#94dbff"/><path d="M60.1,221.91c-.43-1.26,0-3-.68-4.38l.11-3.14c2.34-.81,3.53-1.48,7.14-1.44,3.36,0,6.16,4.75,6.6,13.51.25,5-2.5,33.11-2.5,42.31,0,2,.46,7.71-8.2,10.06C60.48,279.4,67,242.53,60.1,221.91Z" fill="url(#y)"/><polygon points="43.6 281.68 39.6 283.34 31.65 266.45 39.39 264.68 43.6 281.68" fill="#ffebbd"/><path d="M53.38,221.57a3.4,3.4,0,0,1-1.56-1.22,5.11,5.11,0,0,1-.18-4.66v-.78c-3.39,2-9.38,5.14-12.93,8.35a5.44,5.44,0,0,0-1.33,2.12C32.26,232.43,29,247.48,29,255.5c0,7.1,3.83,20.3,6.43,23.84.59.81,1.55,1.87,2.51,1.64a13.5,13.5,0,0,0,3.9-1.58,4.34,4.34,0,0,0,2.94,1.46,94.55,94.55,0,0,0,9.93-.49s-3.23-33.25.29-56.24A2.52,2.52,0,0,0,53.38,221.57ZM39.07,260.64a28.27,28.27,0,0,1-.5-4.25,11,11,0,0,1,.25-2.3A35.71,35.71,0,0,1,39.07,260.64Z" fill="url(#z)"/><path d="M47.1,287l-6.58,2.54-1.37-4a4.87,4.87,0,0,1,.09-3.51l4.15-1.57s1.8,1.55,2.22,1.87a20.35,20.35,0,0,1,2.12,2.72Z" fill="#ffebbd"/><path d="M48.58,289.49c.89-.27-.3-2.07-.47-4.17-.06-.81-2.8-3.2-2.8-3.2l-.66,1.37,1.28,2s.89,2.95,1.53,3.47C47.66,289.1,47.88,289.7,48.58,289.49Z" fill="#ffebbd"/><path d="M40.5,289.52A23.9,23.9,0,0,0,42,292.06a7.32,7.32,0,0,0,1.72,1.36.85.85,0,0,0,.76,0c.25-.22.18-.4,0-.6a17.67,17.67,0,0,0-1.36-1.53L42,288.44Z" fill="#ffebbd"/><path d="M43.7,288.18l-1.67.36s.94,2.44,1.36,3.2a11.63,11.63,0,0,0,1.72,2.19.93.93,0,0,0,1,.23c.31-.15.22-.6.12-.79a21.35,21.35,0,0,1-1.35-2.13C44.53,290.5,43.7,288.18,43.7,288.18Z" fill="#ffebbd"/><path d="M43.82,288.13s.88,2.41,1.26,3.17A10.49,10.49,0,0,0,46.65,294a1,1,0,0,0,1,.28c.33-.15.27-.68.13-1,0,0-.94-1.76-1.26-2.49s-1-3.27-1-3.27Z" fill="#ffebbd"/><path d="M47.17,287l-1.8.41s1,2.29,1.38,3.08a16.07,16.07,0,0,0,1.17,2.44c.15.17.52.63.85.47s.38-.77.29-1.09c-.19-.65-.8-1.89-1.07-2.51S47.17,287,47.17,287Z" fill="#ffebbd"/><path d="M66.25,204.54s-.74,5.78-1.1,7.7c-.73,4-2.34,6.09-6.06,5.9-2.54-.12-6.64-2.95-7-7a71.26,71.26,0,0,1,.5-8.76C53.33,199.34,66.93,201.52,66.25,204.54Z" fill="#ffebbd"/><path d="M51.93,206.7c1.66.17,2,1.08,2.14,2.33s-.59,2.28-1.66,2.16a2.46,2.46,0,0,1-2-2.31C50.19,207.63,50.82,206.6,51.93,206.7Z" fill="#ffebbd"/><path d="M51.92,208.27l.14,1.63c-.38.12-.8-.81-.83-1.26S51.56,208.06,51.92,208.27Z" fill="#ffd56c"/><path d="M50.2,200.67c.5-1.16.4-2.4,3.23-3.84,2.4-1.21,7.86-1.65,11.18,1.39,2.77,2.54,1.52,10.7,1.52,10.7l-1.84-1.22-.06.86-2.4-.73c-4-1.31-5.34-.64-7.95-2.16l-.18,1.92a1.9,1.9,0,0,1-1.11-.55c-.87-.81-1.86.16-1.86.16A7.76,7.76,0,0,1,50.2,200.67Z" fill="url(#aa)"/><path d="M63,212.64a3.56,3.56,0,0,1-.77-.29,1.88,1.88,0,0,0-1.56.12,3.42,3.42,0,0,0-1.26.91c-.33.38-.67,1.13-1,1.32-3.32,2.08-6.35-3.52-6.35-3.52s.62,5.75,4.11,7a7.2,7.2,0,0,0,8-2.21c1.54-2,1.46-8.27,1.46-8.27S65.09,212.88,63,212.64Z" fill="url(#ab)"/><path d="M134.59,162.21c.16.22.07.42-.2.45a.92.92,0,0,1-.76-.35c-.16-.22-.07-.42.2-.44A.92.92,0,0,1,134.59,162.21Z" fill="#273162"/><polygon points="134.67 162.4 134.58 169.37 128.32 166.72 133.6 161.97 134.67 162.4" fill="url(#ac)"/><polygon points="134.58 168.69 134.47 175.95 123.74 170.86 128.89 166.22 134.58 168.69" fill="#f3f1fc"/><path d="M72.74,296.58l57.37-125.66a8.74,8.74,0,0,0-4.31-.82,3,3,0,0,0-2.71,1.63L72.24,283.41Z" fill="url(#ad)"/><path d="M134.17,167.56c.83,1.15.35,2.21-1.07,2.34a4.94,4.94,0,0,1-4.08-1.85c-.83-1.16-.35-2.21,1.07-2.35A5,5,0,0,1,134.17,167.56Z" fill="#f3f1fc"/><path d="M133.68,173.68a9,9,0,0,0-3.57-2.76L72.74,296.58,72.24,313l61.94-136.18A2.91,2.91,0,0,0,133.68,173.68Z" fill="url(#ae)"/><ellipse cx="523.63" cy="210.14" rx="23.4" ry="11.49" opacity="0.1" fill="url(#af)"/><path d="M510.31,37.89l-3.65-1.19s-6.78,9.48-6.49,12.25c.13,1.22,4.69,1.71,4.87.43S508.47,40.75,510.31,37.89Z" fill="#ffebbd"/><path d="M513.42,32.44l-4.7-1.37a16.79,16.79,0,0,0-1.82,2.53,5.82,5.82,0,0,0-.27,3.69l2.94,1.59a13.52,13.52,0,0,0,1.69-1.07C512.31,36.84,513.42,32.44,513.42,32.44Z" fill="#ffebbd"/><path d="M513.31,36.5a27.23,27.23,0,0,1-2.73,1.75l.28-2.55s1.57-.82,1.95-1.07.51-.62,1.1-1.14c.26-.24.48-.17.56.14A4.06,4.06,0,0,1,513.31,36.5Z" fill="#ffebbd"/><path d="M508.72,31.07A18.37,18.37,0,0,1,509.83,29a14.92,14.92,0,0,1,1.52-1.4c.28-.27.42-.41.62-.32s.17.37.07.57l-2.82,4.83Z" fill="#ffebbd"/><path d="M510.83,32.37,509.74,32l1.41-2.84s1.06-1.81,1.39-2.43a.48.48,0,0,1,.57-.22.35.35,0,0,1,.21.44A37.53,37.53,0,0,1,510.83,32.37Z" fill="#ffebbd"/><path d="M511,32.11l1.53-2.87a24.87,24.87,0,0,1,1.29-2.45c.29-.45.49-.52.73-.44s.39.34.11.79c-.8,1.3-2.48,5.15-2.48,5.15Z" fill="#ffebbd"/><path d="M513.42,32.44l-1.28.24s1.49-4.12,2.08-5.46a.46.46,0,0,1,.58-.16.48.48,0,0,1,.28.51,24.15,24.15,0,0,1-.62,2.86A16.57,16.57,0,0,1,513.42,32.44Z" fill="#ffebbd"/><path d="M506.9,80.08c-5-3.73-9.18-15.36-9.41-20.25-.15-3.32.74-10.09,2.62-13.73.19-.36.66-1.07,1.33-.94,1.57.33,3.89,1.21,4.53,2.25.45.72-1.69,6.62-1.46,10,.27,3.88,3.89,11.49,7.8,14.72C513.83,73.33,509.18,81.78,506.9,80.08Z" fill="url(#ag)"/><polygon points="536.35 45.99 540.17 45.58 542.69 59.75 537.72 58.98 536.35 45.99" fill="#ffebbd"/><path d="M535.43,39.79l4.64.26a16.61,16.61,0,0,1,.9,3,5.11,5.11,0,0,1-1.11,3.47l-3.48.44-1-1.17Z" fill="#ffebbd"/><path d="M534.15,43.66c.38.68,1.27,2.11,1.27,2.11l1.12-2a12.24,12.24,0,0,1-1.37-1.46c-.45-.77,0-1.62-.38-2.3-.18-.31-.38-.46-.56-.2A6.23,6.23,0,0,0,534.15,43.66Z" fill="#ffebbd"/><path d="M540.07,40.05l-.8-1.19c-.42-.47-.57-.5-.8-.48s-.27.3-.25.51l.86,2.49Z" fill="#ffebbd"/><path d="M537.65,40.6h1.15a20,20,0,0,1-.62-2.19.74.74,0,0,0-.62-.46.37.37,0,0,0-.34.35A3.54,3.54,0,0,0,537.65,40.6Z" fill="#ffebbd"/><path d="M537.62,40.31a5,5,0,0,0-.17-1.59c-.13-.52-.67-.51-.92-.51s-.48.19-.37.71c.34,1.48.28,1.18.28,1.18Z" fill="#ffebbd"/><path d="M535.43,39.79l.88.67s.32.12.2-1.34c0-.19-.53-.47-.74-.34S535.43,39.79,535.43,39.79Z" fill="#ffebbd"/><path d="M512.17,74c-1.15-9.53-4.51-13.58-1.7-19.24,2.07-4.15,4.16-6.08,9.88-6,1.84,0,5,.66,7.77,5,1.66,2.65,1.38,7.66,1.1,9.71-.39,2.86-1.07,5.37-.84,8.05C529.73,87,512.8,79.26,512.17,74Z" fill="url(#ah)"/><path d="M522.75,54.22l-.1-1.08a1.65,1.65,0,0,0-1.08-1.27,2.09,2.09,0,0,0-1.94.18l-1.25.87Z" fill="url(#ai)"/><path d="M535.83,197.68c1,.49,2.27,2.72,3,3.58.6.7,2.19,1.85,2.56,2.67.43,1,.86,2.91.51,3.74-.13.32-1.27,1.58-1.62,1.6-.84.06-2.45-1.49-3.15-2.16-.92-.87-1.71-3.33-2.4-4.39a11.68,11.68,0,0,1-1.69-3.21c-.07-.81.83-1.35,1.48-1.68A1.52,1.52,0,0,1,535.83,197.68Z" fill="#0f41b9"/><path d="M516.31,207.79a9.89,9.89,0,0,0-.19-1.62,1.82,1.82,0,0,0-1.25-1.21c-2.43-.77-3.44,1.1-4.26,2.8-1.46,3-2.34,4-4.56,5.43a.89.89,0,0,0-.28,1.06,4.88,4.88,0,0,0,1.39,1.18,2.48,2.48,0,0,0,2.74-.14,15.74,15.74,0,0,0,4.17-3.7v.92l1.78-1.2A15.85,15.85,0,0,0,516.31,207.79Z" fill="#0f41b9"/><path d="M534.82,202.27a6.33,6.33,0,0,1-1.5-2.78c-.06-.72.75-1.21,1.32-1.51a1.39,1.39,0,0,1,1.18-.13,4.84,4.84,0,0,1,1.95,2.71C538.26,202.34,535.86,203.36,534.82,202.27Z" fill="#2858f3"/><path d="M513.58,209.27c-1.05,0-2.76-1-2.44-2,.45-1.51,1.62-2.79,3.63-2.15a1.65,1.65,0,0,1,1.12,1.08,3,3,0,0,1,.15,1.12A2.47,2.47,0,0,1,513.58,209.27Z" fill="#2858f3"/><path d="M502.65,114.29c1.16-9.35,26.28,3.49,27,17.66.69,13-4.63,35.19-3.4,38,2.19,4.92,8.19,26.18,10.18,28.59.93,1.13-.25,2.66-1.72,2.83,0,0-14.49-16.85-17.45-29.58-.33-1.41-.7-14.23-.7-14.23l-1.88,9.25s.35,5.45.76,8.22c1.16,7.77,1.26,30.19-.24,32.11a1.71,1.71,0,0,1-3-.81c-.68-5.83-5.19-26-7.28-38.58C502.67,154.12,501.59,122.84,502.65,114.29Z" fill="#ffebbd"/><path d="M531.43,192.88a17.66,17.66,0,0,0,1.89-2.62s2.44,7.36,3.16,8.24c.94,1.13-.24,2.66-1.72,2.83-.39,0-2.8-3.58-5.93-7.51A5,5,0,0,0,531.43,192.88Z" fill="url(#aj)"/><path d="M513,199.63a5.8,5.8,0,0,0,3.33-1c-.15,4.47-.36,7.88-.9,8.57a1.85,1.85,0,0,1-3.18-.94c-.18-1.51-.76-4-1.39-7A6.19,6.19,0,0,0,513,199.63Z" fill="url(#ak)"/><path d="M507.19,99.42A59.12,59.12,0,0,0,502,114.18c-.83,4.65-.21,15.28.15,26.69.29,9.4-.1,18.48.39,20.15,2.62,9,26.18,12.78,26.43,6a149.17,149.17,0,0,1,1.16-16.47c1-7.57,2.92-16,2.92-18.79,0-14.19-6.45-29.32-6.45-29.32Z" fill="url(#al)"/><path d="M506.84,81.1a33.51,33.51,0,0,1,1.91-7.74,3.89,3.89,0,0,1,4-3c1,0,6.12-.67,10.25,1.81,1.77,1.07,5.54,3.12,6.94,5.12,2,2.92-3.54,16.26-3.44,21.82,0,1.1.33,2.12.26,3-.06.71-2,1.58-3.88,1.73-10.29.81-15.56-3.46-16-5.3-.23-.93,1.08-4.41,1.12-6.52C508,90.63,506.58,83.32,506.84,81.1Z" fill="url(#am)"/><path d="M529,85.53c-2.72-.23-4.56-8.92-1.62-10.2,3.23-1.4,7.43-5.08,8.56-7.56.86-1.88.31-9.66.85-10.41.85-1.19,5.36-1.31,6.15-.8s1.31,12.63-.14,16.15C541.11,76.93,533.18,85.88,529,85.53Z" fill="url(#an)"/><path d="M512.55,72.56A1.9,1.9,0,0,1,513.93,71a11.42,11.42,0,0,1,10,2.19s1.22.94,1.22,1.71c0,2.86-4.74,6.8-10.1,3.91C512.37,77.33,512.33,74.25,512.55,72.56Z" fill="#ffebbd"/><path d="M521,77.39l-5.39-.31.49-14.27,5.35-.53s0,6.5,0,7.41A52,52,0,0,1,521,77.39Z" fill="#ffebbd"/><path d="M515.51,68.76l.32,2.92a5.68,5.68,0,0,0,2.77-.4,6.72,6.72,0,0,0,2.91-3.84l.08-1.7C520.08,67.62,518.84,69.5,515.51,68.76Z" fill="#ffd56c"/><path d="M521.64,59.43c-.4-2.44-9.46-3.44-10.39.15a21.77,21.77,0,0,0,0,6.74,7,7,0,0,0,4.22,5.14c1.49.29,5.6-2,6.11-5.14A51.87,51.87,0,0,0,521.64,59.43Z" fill="#ffebbd"/><path d="M524.66,57c-.23-1-1.09-2.61-3.61-3.71-2.24-1-4.74-1.81-7.92.85-2.67,2.22-2.8,7.68-2.8,7.68L518,63.51l1.1-1.87a5.6,5.6,0,0,0-.08,2c.3.56,2.39.74,2.39.74l1.9-.37S525.64,61.55,524.66,57Z" fill="url(#ao)"/><path d="M522.69,62.66a1.86,1.86,0,0,0-1.63,1.54c-.33.91.16,2,1,1.86a2.09,2.09,0,0,0,1.72-1.75C524,63.36,523.57,62.58,522.69,62.66Z" fill="#ffebbd"/><path d="M522.45,63.82l-.35,1.41c.39.19.88-.46,1-.92S522.89,63.66,522.45,63.82Z" fill="#ffd56c"/><path d="M545.37,26.36l-5.63,3.36v1.22l-2.64,1.38a.5.5,0,0,0-.19.55l2,14.59c0,.29,0,.47-.19.55,0,0-4.44,2.55-4.44,2.55l-2.19-9.81-4.57-5.41a.89.89,0,0,0-.6-.35l-10.45.32c-.47,0-1-.77-.94-1.33l2-12.29a1.29,1.29,0,0,0-.19-.77l-5.43-9.24-.78.62L504.4,8l4.45-2.57a.42.42,0,0,1,.38,0l11.68,4.77a.37.37,0,0,0,.49-.13l1.29-2.28-.27-3.38,5.27-3.09a1.89,1.89,0,0,1,.09.21L533,16.8a1.58,1.58,0,0,0,.49.69l11.68,8.69A1.62,1.62,0,0,1,545.37,26.36Z" fill="url(#ap)"/><path d="M545.55,27.68l-4.24,2.45-1.57.81V29.72l5.63-3.36C545.76,26.79,545.88,27.49,545.55,27.68Z" fill="#a32908"/><path d="M527.69,1.35l-5.27,3.09-.09-1.11L526.75.75C527,.62,527.45.88,527.69,1.35Z" fill="#ff6e47"/><path d="M532.68,34.87a.52.52,0,0,0-.18.56l2,14.58c.09.67-.47.81-.94.25L523.11,37.89a.89.89,0,0,0-.61-.35l-10.44.32c-.48,0-1-.77-.95-1.33l2-12.29a1.16,1.16,0,0,0-.19-.77L504.46,9.08c-.39-.66-.18-1.29.36-1.07l11.68,4.77a.34.34,0,0,0,.48-.13l5.22-9.21c.24-.42.93,0,1.17.67l5.23,15.24a1.46,1.46,0,0,0,.49.69l11.68,8.7c.53.39.75,1.27.36,1.49Z" fill="#ff6631"/><path d="M504.42,8.34l11.68,4.77a.36.36,0,0,0,.49-.13l.09-.16a.39.39,0,0,1-.18,0L504.82,8a.36.36,0,0,0-.54.3Z" fill="#fff"/><path d="M532.5,35.43a.84.84,0,0,1,0-.36l-.23.13c-.16.08-.23.29-.19.56l2,14.58a.81.81,0,0,1,0,.27c.26,0,.46-.19.4-.6Z" fill="#fff"/><path d="M540.77,28.74,529.09,20a1.46,1.46,0,0,1-.49-.69L523.37,4.11c-.24-.69-.93-1.09-1.17-.67l-.09.17a1.15,1.15,0,0,1,.86.83l5.23,15.24a1.41,1.41,0,0,0,.49.69l11.68,8.7a1.31,1.31,0,0,1,.52,1.29l.24-.13C541.52,30,541.3,29.13,540.77,28.74Z" fill="#fff"/><polygon points="327.07 387.7 341.44 382.63 345.29 387.22 331.71 392.38 327.07 387.7" fill="#ffebbd"/><path d="M319.23,477.25c-.11-.75,0-2.15-.12-2.65a2.62,2.62,0,0,0-1.79-1.73c-3.49-1.1-4.93,1.57-6.1,4-2.09,4.36-2.48,5.17-5.65,7.21a2.32,2.32,0,0,0-.75,2.05,5.05,5.05,0,0,0,1.61,1.58,4.07,4.07,0,0,0,4.35-.46c1.59-1.16,5.39-4.52,5.39-4.52v.95s2.18-1.54,2.88-1.94C319.35,481.56,319.71,480.7,319.23,477.25Z" fill="url(#aq)"/><path d="M348.59,481.21c-.24-.71-.4-2.11-.6-2.58-.36-.85-1.64-.5-2.21-.5-3.72,0-4.55,2.45-5.26,5.06-1.26,4.66-1.61,6.45-4.36,9a2.28,2.28,0,0,0-.36,2.14,5.26,5.26,0,0,0,3.23,1.34,4.8,4.8,0,0,0,3.52-1.82,70.15,70.15,0,0,0,4.54-6.44l.1.56s.46-.4,1.07-1a3,3,0,0,0,.9-1.42A11.42,11.42,0,0,0,348.59,481.21Z" fill="url(#ar)"/><path d="M313.92,459.11a138.07,138.07,0,0,1-.8,15.2c-.28,2.09,3.15,3.07,4.74,1.67,2.07-1.83,4.6-30,4.6-30Z" fill="#ffebbd"/><path d="M341.5,450.45s4.55,22.31,5.48,28.67c.31,2.08-2.27,3.08-4.2,2.2-1.37-.63-11.2-27.31-11.2-27.31Z" fill="#ffebbd"/><path d="M372.41,412.54c1.34-13.1-4.14-19.61-4.14-19.61l-20.75-8.16A33.31,33.31,0,0,0,343,394.6s-27.06,21.8-29.92,35.82c-1.06,5.21.86,21.19-.49,37.77a3.83,3.83,0,0,0,3.72,3.92c3.7.34,4.2-1.62,4.2-1.62l4.67-30.11L337,422.65s-11.42,3.91-12.76,8.45c-3.49,11.84,3.72,19,13.33,41.75.36.85.89,4,4.69,3,6.28-1.51,4.1-3.88,3.61-6.84C343,451,341.44,439,344,435.72,351.45,426.21,371.19,424.55,372.41,412.54Z" fill="url(#as)"/><path d="M337.38,391.3l-2.69-3.44s-4.54-.92-6.18-.55a26.65,26.65,0,0,0-4.47,1.41c-.63.38-2.22,1.6-2.47,2.51-.05.2.29.49.48.42a8.61,8.61,0,0,0,1.89-1.67s-2.62,1.25-2.55,2.06c0,.28.33.38.6.38a4.9,4.9,0,0,0,1.61-.56c.46-.29,1.81-1.24,1.81-1.24s-2.18,2-2.29,2.91a1.8,1.8,0,0,0,1,.17c.69-.28,1.63-1.27,2.32-1.57a2.44,2.44,0,0,1,1.09-.05,2.67,2.67,0,0,0-1.06.45c-.11.07,0,.46.12.52a7.2,7.2,0,0,0,2.82.49C330.73,393.37,337.38,391.3,337.38,391.3Z" fill="#ffebbd"/><path d="M346,367.15c-1.85-9.4-10.19-17.66-8.9-30.39,1.67-16.37,17.2-11.61,17.2-11.61s3.72-2,7.62,1.91c6.16,6.17,11.86,13.27,12.5,25.64.5,9.75-10.27,26.52-10.27,26.52S347.41,374.23,346,367.15Z" fill="url(#at)"/><path d="M344.64,353.64,355,352.7s11.66,7.19,13.19,12c2.63,8.25-5.59,35.53-5.59,35.53s-9.21-.18-12.58-1.46c-7.71-2.91-5.31-4.58-5.31-4.58Z" fill="url(#au)"/><path d="M347.2,351.66c4.28-2.39,11.26-2,15.34,1.15l1.4,6.18a11.4,11.4,0,0,1-12.8,2.44C345.72,359.07,347.2,351.66,347.2,351.66Z" fill="#ffebbd"/><path d="M344.77,354.19s-2.9.12-3.08,21.46c0,3.85-4.7,7.32-4.7,7.32s8.67,10.12,8.87,8.3C346.15,388.52,344.77,354.19,344.77,354.19Z" fill="url(#av)"/><path d="M343,378.24c.16-9.38-1.67-14.43.46-21.21,1-3,2.3-6.11,5-6.32a28.8,28.8,0,0,1,4.17.26s-8.51,12-6.63,25.7a78.23,78.23,0,0,1-.32,20.45l-3.53-2S342.82,387,343,378.24Z" fill="url(#aw)"/><path d="M359.38,361.11,351.49,360l-1.77-19.78,8-1.78s1.1,8.78,1.26,10A85.63,85.63,0,0,1,359.38,361.11Z" fill="#ffebbd"/><path d="M350,347.72l.84,4.24A9.13,9.13,0,0,0,355,351a7.68,7.68,0,0,0,3.62-5.08l-.35-3.25C356.22,345.64,355.19,348.36,350,347.72Z" fill="#ffd56c"/><path d="M355.93,334.83c-1.29-2.8-13.14-.95-13.17,3.7a23.39,23.39,0,0,0,1.86,7.76c1.9,3.7,3.85,5.4,7.28,5.19,3.19-.2,6.48-4.27,6.12-8.27A63.35,63.35,0,0,0,355.93,334.83Z" fill="#ffebbd"/><path d="M353.71,326.44c-14.11-2.58-12.85,15.76-12.85,15.76s2.11-1.44,2.65-1.87c3.51-2.8,6.8-1.13,12.28-2.87l1.43,3.7,2.95-.27S362.75,328.09,353.71,326.44Z" fill="url(#ax)"/><path d="M358.52,339.26a2.19,2.19,0,0,0-1.51,2.16c-.16,1.12.64,2.2,1.59,1.89a2.45,2.45,0,0,0,1.57-2.42C360.19,339.76,359.51,339,358.52,339.26Z" fill="#ffebbd"/><path d="M358.36,340.48l-.06,1.7c.49.12.9-.74.95-1.3S358.83,340.18,358.36,340.48Z" fill="#ffd56c"/><path d="M361.17,351.6s5.72,2.52,7.84,5.07c3.09,3.73,5.16,13.33,5.4,17.65.4,7.26-.49,24.67-4.18,25.91-6.83,2.3-16.52,0-16.52,0s2.39-8.12,2-24.86C355.48,364.25,361.17,351.6,361.17,351.6Z" fill="url(#ay)"/><path d="M319,382.71l-.73.32a.43.43,0,0,0-.21.36l-.47,4.39a1.34,1.34,0,0,0,.48,1.08l8.8,6.4a.38.38,0,0,0,.42.08l.76-.35-.49-.7.39-3.69a1.31,1.31,0,0,0-.47-1.08L319.9,384Z" fill="url(#az)"/><path d="M328.73,390.25l-.46,4.38c0,.38-.32.5-.62.28l-8.8-6.41a1.31,1.31,0,0,1-.48-1.08l.47-4.38c0-.37.32-.5.62-.28l8.8,6.41A1.3,1.3,0,0,1,328.73,390.25Z" fill="url(#ba)"/><path d="M328.29,387.29a7.58,7.58,0,0,1,2.9-.55,13.11,13.11,0,0,1,6.32,3.13c3.08,2.68,15.48-1.56,15.48-1.56l1.67,6.12s-14,3-16.73,2.17c-1.18-.36-5.18-3.06-6.71-3.24-.65-.07-2.41.39-2.62.28s-.71-.54-.71-.54l-.7-.07a.63.63,0,0,1-.48-.69c.22-.64,2.29-1.17,2.29-1.17a2.75,2.75,0,0,0-1.13,0,7.64,7.64,0,0,1-2,.25c-.47-.05-.66-.48-.48-.69.52-.6,4-1.9,4-1.9s-3,.89-3.42.69-.56-.58-.46-.79C325.81,388,327.55,387.54,328.29,387.29Z" fill="#ffebbd"/><path d="M347.37,389.39c26.18-4.35,9.95-29.76,18.3-33.1,6.47-2.59,7.51,21.23,4.15,28.48-2.41,5.18-5.88,9.71-22.45,12C346.83,396.83,345.3,389.74,347.37,389.39Z" fill="url(#bb)"/><polygon points="263.47 373.67 259.1 376.22 203.69 543.67 208.05 541.16 263.47 373.67" fill="#fca83a"/><polygon points="237.6 358.97 233.25 361.46 177.9 528.71 182.32 526 237.6 358.97" fill="#fca83a"/><polygon points="230.35 359.78 175.01 527.02 177.9 528.71 233.25 361.46 230.35 359.78" fill="#ffc051"/><polygon points="256.2 374.55 200.8 541.96 203.69 543.64 259.1 376.22 256.2 374.55" fill="#ffc051"/><polygon points="211.64 514.28 185.85 499.34 187.2 495.28 212.99 510.21 211.64 514.28" fill="#ffc051"/><polygon points="211.57 509.41 188.65 496.12 193 493.69 212.92 505.22 211.57 509.41" fill="#ffe592"/><polygon points="218.93 492.29 193.14 477.35 194.48 473.29 220.27 488.22 218.93 492.29" fill="#ffc051"/><polygon points="218.85 487.42 195.94 474.13 200.29 471.69 220.2 483.23 218.85 487.42" fill="#ffe592"/><polygon points="226.21 470.3 200.42 455.36 201.77 451.29 227.56 466.23 226.21 470.3" fill="#ffc051"/><polygon points="226.14 465.43 203.22 452.14 207.57 449.7 227.49 461.24 226.14 465.43" fill="#ffe592"/><polygon points="233.5 448.3 207.71 433.37 209.05 429.3 234.84 444.24 233.5 448.3" fill="#ffc051"/><polygon points="233.42 443.44 210.5 430.15 214.85 427.71 234.77 439.25 233.42 443.44" fill="#ffe592"/><polygon points="240.78 426.31 214.99 411.38 216.34 407.31 242.13 422.25 240.78 426.31" fill="#ffc051"/><polygon points="240.71 421.45 217.79 408.16 222.14 405.72 242.05 417.26 240.71 421.45" fill="#ffe592"/><polygon points="248.06 404.32 222.27 389.38 223.62 385.32 249.41 400.26 248.06 404.32" fill="#ffc051"/><polygon points="247.99 399.46 225.07 386.17 229.42 383.73 249.34 395.27 247.99 399.46" fill="#ffe592"/><polygon points="255.1 378.75 231.91 365.51 233.25 361.46 256.45 374.69 255.1 378.75" fill="#ffc051"/><polygon points="259.1 376.22 230.36 359.77 234.73 357.24 263.47 373.67 259.1 376.22" fill="#ffe592"/><polygon points="232.62 361.66 177.43 528.43 177.9 528.71 233.09 361.93 232.62 361.66" fill="#fff"/><polygon points="258.63 375.95 203.22 543.37 203.69 543.64 259.1 376.22 258.63 375.95" fill="#fff"/><path d="M533.11,681.43c-20.3,0-39.5-4.63-54.06-13-15.78-9.11-24.47-21.65-24.47-35.31s8.69-26.19,24.47-35.3c14.55-8.4,33.75-13,54.06-13s39.5,4.63,54,13c15.78,9.11,24.47,21.65,24.47,35.31s-8.69,26.19-24.47,35.3C572.61,676.8,553.41,681.43,533.11,681.43Zm0-95.67c-20.14,0-39.16,4.58-53.56,12.89-15.45,8.93-24,21.16-24,34.44s8.52,25.52,24,34.45c14.41,8.31,33.43,12.89,53.56,12.89s39.15-4.58,53.55-12.89c15.46-8.93,24-21.16,24-34.44s-8.51-25.52-24-34.45C572.26,590.34,553.24,585.76,533.11,585.76Z" fill="#94dbff"/><ellipse cx="532.96" cy="631.88" rx="66.68" ry="38.5" fill="#fff"/><ellipse cx="532.96" cy="631.48" rx="62.85" ry="36.29" fill="#ffe592"/><ellipse cx="532.96" cy="629.43" rx="45.11" ry="26.04" fill="#ffc051"/><path d="M580.11,657.09c-26,15-68.26,15-94.3,0-12.58-7.26-19.06-16.7-19.49-26.22-.46,10.19,6,20.46,19.49,28.23,26,15,68.26,15,94.3,0,13.46-7.77,19.95-18,19.49-28.22C599.17,640.39,592.69,649.83,580.11,657.09Z" fill="#e68c2c" fill-rule="evenodd"/><path d="M597.16,552.21l-130.2.26,22.73,76.92c1,5.36,5.1,10.56,12.21,14.67,16.66,9.61,43.66,9.61,60.32,0,7.12-4.11,11.18-9.32,12.22-14.68Z" fill-rule="evenodd" fill="url(#bc)"/><ellipse cx="532.06" cy="547.16" rx="65.86" ry="38.02" fill="#a32908"/><path d="M578.63,520.27c-25.72-14.85-67.42-14.85-93.14,0s-25.72,38.93,0,53.78,67.42,14.85,93.14,0S604.35,535.12,578.63,520.27Zm-4.82,49.94c-23.06,13.31-60.44,13.31-83.5,0s-23.06-33.83,0-47.15,60.44-13.31,83.5,0S596.87,556.89,573.81,570.21Z" fill="#e5491a" fill-rule="evenodd"/><path d="M578.63,520.27c-12.07-7-27.67-10.67-43.48-11.09,15.44.42,30.66,4,42.45,10.85,25.15,14.52,25.15,38.06,0,52.58s-65.93,14.52-91.08,0-25.15-38.07,0-52.59c11.79-6.8,27-10.42,42.45-10.84-15.81.42-31.41,4.12-43.48,11.09-25.72,14.85-25.72,38.93,0,53.78s67.42,14.85,93.14,0S604.35,535.12,578.63,520.27Z" fill="#fefefe" fill-rule="evenodd"/><path d="M573.81,542c-23.06-13.31-60.44-13.31-83.5,0-7.19,4.15-12.14,9-14.84,14.11,2.7,5.11,7.65,10,14.84,14.11,23.06,13.32,60.44,13.32,83.5,0,7.19-4.15,12.13-9,14.84-14.12C585.94,551,581,546.13,573.81,542Z" fill-rule="evenodd" fill="url(#bd)"/><path d="M562.87,641.76c-17,9.82-44.6,9.82-61.62,0-5.68-3.28-9.43-7.25-11.32-11.43,1.31,5,5.27,9.86,12,13.73,16.66,9.61,43.66,9.61,60.32,0,6.69-3.87,10.65-8.7,12-13.73C572.3,634.52,568.55,638.48,562.87,641.76Z" fill="#19029a" fill-rule="evenodd"/><path d="M578,522.5s-13.11-18.29-7.75-25.18c18.39-23.67,36.66-42.52,36.66-42.52s-.71,15-1.28,17.45-5.74,10.44,3.17,8.15c5.33-1.36,1.26,18.83-5.67,26.07C588,522.23,578,522.5,578,522.5Z" fill-rule="evenodd" fill="url(#be)"/><path d="M508.68,562.08c-7.64-17-16.51-52.14-16.6-52.5l1-.24c.09.35,8.94,35.38,16.54,52.34Z" fill="#fff"/><path d="M548.56,538.84s23.6-9.93,31.49-32.64c10.26-29.52-9.32-57.22-9.32-57.22s-5.22,15.58-12.76,21.77c-8.83,7.25-11.3,14-12,22.08C543.51,519.59,548.56,538.84,548.56,538.84Z" fill-rule="evenodd" fill="url(#bf)"/><path d="M522.73,542.9s-33.35-7.48-43-31.79C467.44,480.38,467,448.43,467,448.43s23,10,33.89,22.69c9.34,10.93,12,9.82,16.19,17.53C527.44,507.64,522.73,542.9,522.73,542.9Z" fill-rule="evenodd" fill="url(#bg)"/><path d="M546,548.49S512.42,520.31,511,492c-1.79-35.75,16.6-59.58,16.6-59.58a73,73,0,0,0,9.85,18c9.52,12.38,11.27,6.42,15.81,17.19C565,495.55,546,548.49,546,548.49Z" fill-rule="evenodd" fill="url(#bh)"/><path d="M494.41,550.43s3.42-25.67-1.58-37.15c-12.67-29.07-54-34-54-34s1,8.82,14,25.3c3.19,4.06,12.17,16.4,1.85,14.81-7.36-1.13-1,5.2,0,6.43C474.82,549.94,494.41,550.43,494.41,550.43Z" fill-rule="evenodd" fill="url(#bi)"/><path d="M559.82,554.32s14-43.67,33.44-58.56c3.23-2.47,3.94,5.32,6.79,3.23,5.69-4.15,2-6.37,10-11.67,10.07-6.7,11.57-5.45,17-13.67,0,0,2,8.49-3.51,22.79-4.49,11.62-6.44,24.79-8.87,31.59C601.42,565,559.82,554.32,559.82,554.32Z" fill-rule="evenodd" fill="url(#bj)"/><path d="M517.28,556.09s-24.83-4-27.14-41c-2-31.39,8.14-66.64,8.14-66.64s17,12.27,20.28,26.47c2.65,11.54,10.13,33.47,10.28,42.52C529.21,541.25,517.28,556.09,517.28,556.09Z" fill-rule="evenodd" fill="url(#bk)"/><path d="M555.84,569.38l-1-.23c.16-.65,3.84-16.15,7.56-19.11,4.51-3.58,9.56-6.92,14.46-10.15,8.54-5.63,16.6-10.95,20.37-16.67,5.25-8,12.92-23.68,13-23.84l.9.44c-.08.16-7.78,15.95-13.06,23.95-3.89,5.89-12,11.27-20.66,17-4.88,3.21-9.92,6.54-14.39,10.1C559.59,553.57,555.87,569.23,555.84,569.38Z" fill="#fff"/><path d="M522.61,571.56c-.29-.8-7.08-19.71-7.3-24.36A57.3,57.3,0,0,1,516.2,536c.9-6.1,1.75-11.87-1.49-17.85-7.9-14.56-8-44.16-8-44.46h1c0,.3.09,29.65,7.87,44,3.4,6.27,2.52,12.19,1.6,18.47a56.38,56.38,0,0,0-.88,11c.22,4.49,7.17,23.86,7.24,24.06Z" fill="#fff"/><path d="M501.5,567.59h-1c0-3.28-3.32-10.21-6.25-16.33-1.73-3.62-3.36-7-4.21-9.46-.71-2-1.35-4.19-2-6.48-3.25-11-7.29-24.68-23.58-36.26l.57-.81C481.59,510,485.69,523.89,489,535c.67,2.28,1.3,4.43,2,6.43.84,2.38,2.46,5.77,4.17,9.36C498.27,557.34,501.5,564.08,501.5,567.59Z" fill="#fff"/><path d="M528.85,559.47s-18.62-17.91-19.91-37c-2.66-39,25.06-69.06,25.06-69.06s2.73,8.25,6.65,25.86c.8,3.58.1,3.85,1.79,7.28,1.91,3.88,8-1.65,8.93,1.37,2.28,7.5,2.56,29.39,1.26,33.69C542,556.65,528.85,559.47,528.85,559.47Z" fill-rule="evenodd" fill="url(#bl)"/><path d="M542,564a125.42,125.42,0,0,1,3.41-49.81C557.71,470,595,454.8,595,454.8s0,11.57-4.28,28.79c-3.61,14.39-1.2,26.32-2.11,34.63C584.51,556,542,564,542,564Z" fill-rule="evenodd" fill="url(#bm)"/><path d="M539.77,571.54l-1-.3c.06-.19,6.18-19.59,23.57-50.28,4.89-8.65,12.74-35.54,12.81-35.81l1,.28c-.33,1.11-8,27.27-12.91,36C545.92,552,539.83,571.35,539.77,571.54Z" fill="#fff"/><path d="M531.14,575.75c-.09-.37-2.13-9.07-2.35-13.69-.27-5.61,1.07-14.3,2.37-22.7,1.22-8,2.49-16.2,2.32-21.5-.3-9.54-3.22-38.22-3.25-38.51l1-.1c0,.29,2.95,29,3.25,38.58.17,5.39-1.1,13.67-2.34,21.68-1.28,8.35-2.61,17-2.35,22.51.21,4.52,2.3,13.41,2.32,13.5Z" fill="#fff"/><ellipse cx="719.98" cy="412.95" rx="24.31" ry="14.68" opacity="0.1" fill="url(#bn)"/><path d="M784.59,542.31a8.32,8.32,0,0,1-4-1l-75.05-41a4.88,4.88,0,0,1-.19-8.46l77.17-47,79.27,43.35a4.89,4.89,0,0,1,.2,8.46L788.92,541.1A8.29,8.29,0,0,1,784.59,542.31Zm-2-96.34-76.68,46.67a3.89,3.89,0,0,0,.15,6.74l75.05,41a7.4,7.4,0,0,0,7.34-.17l73.06-44.47a3.9,3.9,0,0,0-.16-6.74Z" fill="#94dbff"/><polygon points="782.83 450.95 709.83 495.38 784.5 536.26 857.5 491.83 782.83 450.95" opacity="0.1"/><polygon points="784.46 532.57 714.84 494.5 713.27 426.85 782.9 464.93 784.46 532.57" fill="#ffe592"/><polygon points="852.16 491.53 784.38 532.79 782.81 465.14 850.59 423.88 852.16 491.53" fill="#ffd56c"/><polygon points="836.55 438.43 784.12 470.23 784.1 469.37 836.53 437.57 836.55 438.43" fill="#fff"/><polygon points="826.82 453.72 787.94 477.26 787.92 476.4 826.8 452.86 826.82 453.72" fill="#fff"/><polygon points="846.5 450.96 783.49 489.31 783.47 488.45 846.48 450.11 846.5 450.96" fill="#fff"/><polygon points="843.38 457.53 800.51 483.62 800.5 482.76 843.37 456.67 843.38 457.53" fill="#fff"/><polygon points="840.9 473.07 820.33 485.51 820.31 484.65 840.88 472.21 840.9 473.07" fill="#fff"/><polygon points="848.58 473.07 792.88 506.97 792.86 506.11 848.55 472.21 848.58 473.07" fill="#fff"/><polygon points="852.01 485 800.81 516.09 800.79 515.23 851.99 484.14 852.01 485" fill="#fff"/><polygon points="780.98 385.74 713.2 426.99 782.82 465.07 850.6 423.81 780.98 385.74" fill="#fff"/><polygon points="826.81 438.33 826.6 410.54 846.91 413.73 826.81 438.33" fill="#ffe592"/><path d="M758.71,250.75a9.22,9.22,0,0,1,4.18-7.23,2.81,2.81,0,0,1,3.1-.2l1.79,1-5.91,10.22-2-1.06A3,3,0,0,1,758.71,250.75Z" fill="url(#bo)"/><path d="M765,244.36a3,3,0,0,1,3.21-.24l1,.58s-1.78,8.38-4.2,9.78-4.39.26-4.39-2.53A9.67,9.67,0,0,1,765,244.36Z" fill="url(#bp)"/><path d="M761.79,252.65c0,2.79,2,3.93,4.38,2.53a9.7,9.7,0,0,0,4.38-7.59c0-2.8-2-3.93-4.38-2.53A9.68,9.68,0,0,0,761.79,252.65Z" fill="#fff"/><path d="M764.31,255.76a3.91,3.91,0,0,0,1.9-.58,9.57,9.57,0,0,0,4.33-7.49c0-1.86-.89-3-2.31-3a3.81,3.81,0,0,0-1.9.58,9.59,9.59,0,0,0-4.32,7.49C762,254.61,762.89,255.76,764.31,255.76Z" fill="url(#bq)"/><path d="M767.39,246.84a2.7,2.7,0,0,1,2.41-.3c.92.36,3.9,3.41,3.9,3.41L768,258.3s-2.56-2.43-3.43-3.23a2.75,2.75,0,0,1-.76-2.09A7.84,7.84,0,0,1,767.39,246.84Z" fill="#3761fe"/><path d="M763.31,254a10.94,10.94,0,0,1,4-7.29c1.6-1.13,2.66-.73,3.94-.2.81.34,8.72,5.18,8.72,5.18l-5.68,10.86L764,256.1A2.86,2.86,0,0,1,763.31,254Z" fill="url(#br)"/><path d="M776.89,251.92a3.33,3.33,0,0,1,2.4-.55,2.09,2.09,0,0,1,.69.28,5.63,5.63,0,0,1,2.51,4.14c.06,1.27-.63,1.91-1.62,1.65a9.08,9.08,0,0,1-3.49,4.78c-2.31,1.43-4.29.27-4.42-2.57A9.42,9.42,0,0,1,776.89,251.92Z" fill="url(#bs)"/><path d="M779.22,253.2a2.53,2.53,0,0,1,2.26-.28c.87.33,3.17,1.67,3.17,1.67l-4.71,8.59a32.17,32.17,0,0,1-3.34-2.26,2.56,2.56,0,0,1-.71-2A7.35,7.35,0,0,1,779.22,253.2Z" fill="url(#bt)"/><path d="M777.24,260.36a8.31,8.31,0,0,1,3.76-6.52,2.58,2.58,0,0,1,2.8-.18l1.62.87-5.33,9.21-1.78-1A2.66,2.66,0,0,1,777.24,260.36Z" fill="url(#bu)"/><path d="M779,261.32c0,2.4,1.69,3.37,3.77,2.17a8.31,8.31,0,0,0,3.76-6.52c0-2.4-1.68-3.37-3.76-2.17A8.32,8.32,0,0,0,779,261.32Z" fill="#fff"/><path d="M781.09,264a3.39,3.39,0,0,0,1.65-.5,8.28,8.28,0,0,0,3.73-6.47c0-1.63-.77-2.63-2-2.63a3.39,3.39,0,0,0-1.65.5,8.27,8.27,0,0,0-3.74,6.47C779.06,263,779.84,264,781.09,264Z" fill="url(#bv)"/><path d="M779.92,260.79c0,1.81,1.28,2.55,2.85,1.64a6.29,6.29,0,0,0,2.84-4.93c0-1.81-1.27-2.55-2.84-1.64A6.3,6.3,0,0,0,779.92,260.79Z" fill="url(#bw)"/><path d="M783.66,256.87a2.48,2.48,0,0,0-.24-1.15c1.09-.21,1.87.52,1.87,1.92a6,6,0,0,1-2.74,4.74c-1.11.65-2.07.43-2.5-.43a2.57,2.57,0,0,0,.87-.34A6,6,0,0,0,783.66,256.87Z" fill="url(#bx)"/><path d="M782.55,256.06a2.74,2.74,0,0,1,.87-.34,2.48,2.48,0,0,1,.24,1.15,6,6,0,0,1-2.74,4.74.69.69,0,1,1-1.1-.81A6,6,0,0,1,782.55,256.06Z" fill="#3761fe" opacity="0.23"/><path d="M782.55,256.06a2.74,2.74,0,0,1,.87-.34,2.48,2.48,0,0,1,.24,1.15,6,6,0,0,1-2.74,4.74.69.69,0,1,1-1.1-.81A6,6,0,0,1,782.55,256.06Z" fill="url(#by)"/><path d="M740.8,260.16a9.26,9.26,0,0,1,4.18-7.24,2.85,2.85,0,0,1,3.11-.19l1.79,1L744,263.91l-2-1.06A3,3,0,0,1,740.8,260.16Z" fill="url(#bz)"/><path d="M747.06,253.76a3,3,0,0,1,3.22-.23l1,.58s-1.78,8.38-4.2,9.77-4.38.27-4.38-2.53A9.7,9.7,0,0,1,747.06,253.76Z" fill="url(#ca)"/><path d="M743.89,262.06c0,2.79,2,3.92,4.38,2.53a9.7,9.7,0,0,0,4.38-7.59c0-2.8-2-3.93-4.38-2.53A9.66,9.66,0,0,0,743.89,262.06Z" fill="#fff"/><path d="M746.41,265.17a3.91,3.91,0,0,0,1.9-.58,9.59,9.59,0,0,0,4.32-7.49c0-1.86-.88-3-2.31-3a3.78,3.78,0,0,0-1.89.58,9.56,9.56,0,0,0-4.33,7.49C744.1,264,745,265.17,746.41,265.17Z" fill="url(#cb)"/><path d="M749.48,256.24a2.77,2.77,0,0,1,2.41-.3c.93.36,3.9,3.42,3.9,3.42l-5.66,8.34s-2.57-2.43-3.44-3.22a2.74,2.74,0,0,1-.75-2.09A7.84,7.84,0,0,1,749.48,256.24Z" fill="url(#cc)"/><path d="M758.68,257.63a6.59,6.59,0,0,1,3-5.17,2.09,2.09,0,0,1,2.11-.21l3.94,2.27-4.17,7.33-3.88-2.23A2,2,0,0,1,758.68,257.63Z" fill="url(#cd)"/><ellipse cx="765.54" cy="258.14" rx="4.22" ry="2.44" transform="matrix(0.5, -0.87, 0.87, 0.5, 159.2, 792.03)" fill="url(#ce)"/><path d="M773.32,253.07a11.87,11.87,0,0,0-2.13,6.31c0,.15,0,.29,0,.43l-7.59,4.37-3.93-4,12.36-7.41Z" fill="url(#cf)"/><polygon points="772.38 252.51 773.34 253.06 759.85 260.85 759.32 260.05 772.38 252.51" fill="url(#cg)"/><path d="M746.17,263.79a10.9,10.9,0,0,1,4-7.28c1.59-1.13,2.66-.73,3.94-.2.81.34,8.72,5.17,8.72,5.17l-5.68,10.87-10.34-6.42A2.83,2.83,0,0,1,746.17,263.79Z" fill="url(#ch)"/><path d="M765.81,259.91a3.24,3.24,0,0,1,1.46-2.52,1,1,0,0,1,1.18,0l.65.38-2,3.59-.9-.53A1.1,1.1,0,0,1,765.81,259.91Z" fill="url(#ci)"/><path d="M766.58,260.39c0,.92.65,1.3,1.46.84a3.24,3.24,0,0,0,1.45-2.52c0-.93-.65-1.31-1.45-.84A3.19,3.19,0,0,0,766.58,260.39Z" fill="#3761fe"/><path d="M767.39,261.36a1.23,1.23,0,0,0,.62-.19,3.16,3.16,0,0,0,1.42-2.46c0-.6-.29-1-.74-1a1.34,1.34,0,0,0-.62.19,3.17,3.17,0,0,0-1.42,2.47C766.65,261,766.93,261.36,767.39,261.36Z" fill="#3761fe"/><path d="M759.75,261.76a3.29,3.29,0,0,1,2.4-.56,2.33,2.33,0,0,1,.69.28,5.63,5.63,0,0,1,2.51,4.15c.06,1.27-.63,1.91-1.62,1.64a9.07,9.07,0,0,1-3.49,4.79c-2.31,1.42-4.29.27-4.42-2.57A9.38,9.38,0,0,1,759.75,261.76Z" fill="url(#cj)"/><path d="M762.08,263a2.56,2.56,0,0,1,2.26-.28c.87.34,3.16,1.68,3.16,1.68L762.8,273a32.17,32.17,0,0,1-3.34-2.26,2.58,2.58,0,0,1-.71-2A7.36,7.36,0,0,1,762.08,263Z" fill="url(#ck)"/><path d="M760.1,270.2a8.31,8.31,0,0,1,3.76-6.52,2.54,2.54,0,0,1,2.8-.18l1.62.86-5.34,9.22-1.77-1A2.68,2.68,0,0,1,760.1,270.2Z" fill="url(#cl)"/><path d="M761.86,271.15c0,2.41,1.69,3.38,3.77,2.18a8.31,8.31,0,0,0,3.76-6.52c0-2.4-1.68-3.38-3.76-2.18A8.32,8.32,0,0,0,761.86,271.15Z" fill="#fff"/><path d="M763.94,273.8a3.34,3.34,0,0,0,1.66-.51,8.26,8.26,0,0,0,3.73-6.47c0-1.62-.77-2.63-2-2.63a3.28,3.28,0,0,0-1.65.51,8.27,8.27,0,0,0-3.74,6.47C761.92,272.79,762.7,273.8,763.94,273.8Z" fill="url(#cm)"/><path d="M762.78,270.62c0,1.82,1.28,2.55,2.85,1.64a6.27,6.27,0,0,0,2.84-4.92c0-1.82-1.27-2.55-2.84-1.64A6.28,6.28,0,0,0,762.78,270.62Z" fill="url(#cn)"/><path d="M766.52,266.71a2.58,2.58,0,0,0-.24-1.15c1.09-.21,1.87.52,1.87,1.92a6,6,0,0,1-2.74,4.74c-1.11.64-2.07.43-2.5-.43a2.65,2.65,0,0,0,.87-.34A6.06,6.06,0,0,0,766.52,266.71Z" fill="url(#co)"/><path d="M765.41,265.89a3,3,0,0,1,.87-.33,2.58,2.58,0,0,1,.24,1.15,6.06,6.06,0,0,1-2.74,4.74,2.65,2.65,0,0,1-.87.34,2.61,2.61,0,0,1-.24-1.15A6.08,6.08,0,0,1,765.41,265.89Z" fill="#3761fe" opacity="0.23"/><path d="M765.41,265.89a3,3,0,0,1,.87-.33,2.58,2.58,0,0,1,.24,1.15,6.06,6.06,0,0,1-2.74,4.74,2.65,2.65,0,0,1-.87.34,2.61,2.61,0,0,1-.24-1.15A6.08,6.08,0,0,1,765.41,265.89Z" fill="url(#cp)"/><path d="M767.71,259.74a.75.75,0,0,1,.34-.59.24.24,0,0,1,.27,0l.15.08-.47.83-.21-.12A.24.24,0,0,1,767.71,259.74Z" fill="url(#cq)"/><path d="M767.89,259.85c0,.21.15.3.33.19a.74.74,0,0,0,.34-.58c0-.22-.15-.3-.34-.2A.76.76,0,0,0,767.89,259.85Z" fill="#fff"/><path d="M768.09,260.08a.27.27,0,0,0,.14,0,.74.74,0,0,0,.33-.57c0-.14-.06-.23-.17-.23a.43.43,0,0,0-.14,0,.73.73,0,0,0-.33.58C767.92,260,768,260.08,768.09,260.08Z" fill="url(#cr)"/><path d="M789.71,410c-.05.82-1.65,1.39-3.57,1.27s-3.44-.9-3.38-1.72,1.65-1.39,3.57-1.27S789.76,409.19,789.71,410Z" fill="#0f41b9"/><path d="M775.81,416.56c0,.92-1.73,1.67-3.88,1.67s-3.87-.75-3.87-1.67,1.73-1.67,3.87-1.67S775.81,415.64,775.81,416.56Z" fill="#0f41b9"/><path d="M770.7,290c-.19-2,2.46-3.92,5.9-4.23s6.38,1.08,6.57,3.11-2.46,3.93-5.91,4.24S770.88,292.05,770.7,290Z" fill="#ba642a"/><path d="M785.51,416.85c-1.66-1.19-2.5-1.1-4-2-.75-.44-1.6-2.3-2.34-3.14a.75.75,0,0,0-.84,0,1.55,1.55,0,0,0,0,1.08c.75,1.29,1.67,2.23,4.51,3.92a9.39,9.39,0,0,0,1.75.5v.68s.64.86,1,1c.73.27,3.16-.43,3.16-.43s0,.07.1-1.18C787.45,417.31,786.6,417.62,785.51,416.85Z" fill="url(#cs)"/><path d="M784.82,416.78c.27.21.65.77,1,.89a8.92,8.92,0,0,0,3-.26,9.94,9.94,0,0,0-.29-4.15,2.92,2.92,0,0,0-1.33-1.34s-3.5.22-5.38-.84c-.88-.5-3-.27-3.43.64-.3.59,1.49,2.35,3.27,3.48C783.24,416.23,784.06,416.21,784.82,416.78Z" fill="url(#ct)"/><path d="M787.69,414.37a5.65,5.65,0,0,1-1.54.27c-.92.06-1.68-.13-1.82-1.48,0-.22,0-3.3,0-3.3,0-.58,4-.69,4.14-.4C788.65,409.93,788.48,413.93,787.69,414.37Z" fill="#ba642a"/><path d="M772,425.66c-1.61-1.15-2.42-1.06-3.88-1.91a19.57,19.57,0,0,1-3.41-2.62c-.1-.11-.94.49-1.3.71a1.51,1.51,0,0,0,0,1c.72,1.25,2.6,2.47,5.58,2.95l1.78.32v.52s1.13.65,1.44.76c.71.27,3.41-1.36,3.41-1.36s0,.08.1-1.14C774.42,424.93,773.08,426.41,772,425.66Z" fill="url(#cu)"/><path d="M771.59,425.59a4.44,4.44,0,0,0,.88.63c.68.26,3.24-1.19,3.24-1.19a6,6,0,0,0-.45-2.77c-.28-.8-1.63-1.39-1.63-1.39a27.67,27.67,0,0,1-6.11-.2c-1.71-.41-3.32.17-3.77,1.05-.29.58,2.15,2.49,4.48,3S770.86,425,771.59,425.59Z" fill="url(#cv)"/><path d="M773.68,422.4a4.79,4.79,0,0,1-1.71.31c-.72,0-1.69-.12-1.82-1.48,0-.22,0-3.11,0-3.11,0-.58,4.05-.14,4.16.15C774.49,418.73,774.57,421.92,773.68,422.4Z" fill="#ba642a"/><polygon points="801.83 336.97 806.36 337.14 806.97 327.55 800.89 325.73 801.83 336.97" fill="#ba642a"/><path d="M807.69,332.07s-.56,2.23-.69,3a.64.64,0,0,1-.74.55c-1.29-.22-3.42-.11-4.71-.33a.65.65,0,0,1-.52-.75,30.56,30.56,0,0,0-.15-3.45Z" fill="url(#cw)"/><path d="M794.9,285.06C800,293.4,807,305.92,809,314.74a44.63,44.63,0,0,1,.22,14.93c-.16.93-.63,3.2-1.44,3.54-1,.44-6.94-.23-7.15-2.19-.28-2.46-.14-11.38-2.75-15.85-3.08-5.26-8-13.75-7.75-21.38C790.33,287.93,792.42,281,794.9,285.06Z" fill="url(#cx)"/><path d="M801.29,343.45h6.36s0-2.29,0-3.25a11.1,11.1,0,0,0-1.22-3.88l-4.64-.21s-.54,1.69-.69,2.56C801,339.38,801.29,343.45,801.29,343.45Z" fill="#ba642a"/><path d="M801,345.6c-.84.07-.83-1.37-.75-3.57a8.82,8.82,0,0,1,.94-3.72l1,1.37-.44,2.08S801.63,345.55,801,345.6Z" fill="#ba642a"/><path d="M807.65,343.4a22.34,22.34,0,0,1-.45,2.62,6.22,6.22,0,0,1-1,1.7.72.72,0,0,1-.63.24c-.29-.1-.29-.27-.24-.48a14.49,14.49,0,0,1,.65-1.74l0-2.76Z" fill="#ba642a"/><path d="M804.52,343.31l1.53-.24s0,2.35-.12,3.13a10,10,0,0,1-.73,2.4.82.82,0,0,1-.75.51c-.31,0-.38-.43-.36-.62,0,0,.38-1.91.45-2.52A18.89,18.89,0,0,0,804.52,343.31Z" fill="#ba642a"/><path d="M804.41,343.31a30.33,30.33,0,0,1,0,3.07,16.25,16.25,0,0,1-.31,2.72c-.15.44-.47.63-.75.56s-.45-.48-.43-.79c0,0,.07-1.76.1-2.47s-.21-3.08-.21-3.08Z" fill="#ba642a"/><path d="M801.21,343.41l1.64-.24s0,2,0,2.89a12.27,12.27,0,0,1-.14,2.15c-.05.23-.26.72-.59.71s-.55-.51-.59-.74C801.35,347,801.21,343.41,801.21,343.41Z" fill="#ba642a"/><path d="M776.12,266.05s-2.57,6.92-2.78,8.6c-.58,4.71.75,5.17,3.88,5.88,2.16.5,5,.52,6.62-2.62a31.9,31.9,0,0,0,1.82-6.13C786.13,269.06,776.58,263.39,776.12,266.05Z" fill="#ba642a"/><path d="M789.41,266.27c-.06-1.1-.07-1.6-2-3.61-1.61-1.7-5.93-2.49-9.45-.76s-2.54,3.52-2.54,3.52,3,3.93,4.32,2.06l4.29,3.94a1.74,1.74,0,0,0,1.07-.13,2.31,2.31,0,0,1,1.93.19A6.78,6.78,0,0,0,789.41,266.27Z" fill="url(#cy)"/><path d="M786.35,287.35l-10.6,2.12,1.4-11,9.28-1.94s-1,3.73-1,4.53C785.26,286,786.35,287.35,786.35,287.35Z" fill="#ba642a"/><path d="M776.91,280.49l0,.49a4.22,4.22,0,0,0,2.49-.23,4,4,0,0,0,1.63-2.52l-.53-.26A4.89,4.89,0,0,1,776.91,280.49Z" fill="#572f11"/><path d="M790.42,395.32c-.11-2.14-.52-7.3-.79-9.43-.75-5.94-2.22-14.07-2.35-22.94-.11-7.89,1.42-17.71,1.42-21.26a67.39,67.39,0,0,0-.85-11.39l-26.7,3.77s-1.26,15-1.44,18.06c-.74,12.5,3.51,28,5.84,36.64,1.9,7,3,26.42,3,30.53.17,3,6.9,2.27,6.93.62.19-8.42,1.87-18.05,1.59-25.11-.06-1.42-.68-7.11-.63-8.52a143.41,143.41,0,0,0-.17-15.68s4.06,18,4.55,20.11c1.62,7,2.48,20.06,2.67,21.95s4.9,1.67,5.32.22C790.22,407.87,790.65,399.73,790.42,395.32Z" fill="url(#cz)"/><path d="M794.25,283.39c-2.34-2.43-5.76-1.52-8.8-.74,0,0,.82,5.11-7,4.1a2.35,2.35,0,0,1-2.12-2.17c-4.09,1.51-5.58,2.67-10,4.71-3.43,1.57-4.55,9.5-4.34,18,.17,7-1.71,16.83-1.25,25.46.28,5.12,2.87,6.11,8.68,6.56,8.73.69,14.8-1.14,18.27-4.74,2.19-2.26,1.6-4.44,1.61-5.88.05-7.09-.32-7.5,3.48-20C794,304.88,800,289.35,794.25,283.39Z" fill="url(#da)"/><polygon points="752.05 268.12 747.81 267.16 746.7 277.82 750.78 279.48 752.05 268.12" fill="#ba642a"/><path d="M746,272.69s.71-2.19.89-2.93c.09-.36.41-.47.78-.51,1.8-.17,2.57-.22,4,.71.3.19.56.43.48.78a29.2,29.2,0,0,0-.09,3.45Z" fill="url(#db)"/><path d="M763.27,302.83c-7.26-1.21-15.1-6.14-17.42-10.16-2.76-4.79-3.65-17,.18-21.12.76-.82,6.29-.39,6.64,1.55.44,2.44-.79,10.07,1,13.17,1.57,2.66,6.42,4,13.2,5C772.7,292.05,772.84,304.43,763.27,302.83Z" fill="url(#dc)"/><path d="M754.5,262.5l-5.79-1.88a12.1,12.1,0,0,0-1.27,4.19,4.42,4.42,0,0,0,.35,2.68l4.11,1.33a19.3,19.3,0,0,1,1.26-1.52,5.64,5.64,0,0,0,.87-2.73A21.15,21.15,0,0,1,754.5,262.5Z" fill="#ba642a"/><path d="M755.62,262c.63.14.4,1.12-.36,3.2-.48,1.31-2.92,3.12-2.92,3.12l0-1.66,1.3-1.69S755,261.82,755.62,262Z" fill="#ba642a"/><path d="M748.69,260.66a10,10,0,0,1,1.23-2,7.86,7.86,0,0,1,1.52-1,.74.74,0,0,1,.68,0c.24.17.19.34.09.52-.22.41-1.11,1-1.4,1.45a11.13,11.13,0,0,0-.74,2.07Z" fill="#ba642a"/><path d="M751.61,261.83l-1.54-.2s.93-1.75,1.32-2.42A6.38,6.38,0,0,1,753,257.4a.91.91,0,0,1,.86-.28c.29.11.24.52.17.7a8.32,8.32,0,0,0-1.39,1.64C752.29,260.3,751.61,261.83,751.61,261.83Z" fill="#ba642a"/><path d="M751.54,261.81s1.1-1.81,1.39-2.52a10.32,10.32,0,0,1,1.31-2.05c.27-.38.63-.47.88-.33s.29.6.19.89a11.66,11.66,0,0,0-1,1.87c-.25.73-1.25,2.63-1.25,2.63Z" fill="#ba642a"/><path d="M754.41,262.7l-1.41-.33a9.23,9.23,0,0,0,1.2-2.16,10.88,10.88,0,0,1,.61-2c.14-.26.44-.55.74-.42s.32.88.26,1.17C755.68,259.57,754.41,262.7,754.41,262.7Z" fill="#ba642a"/><path d="M781.77,261.12c4.47-1.22,9.47,3,10.84,5.14a7.18,7.18,0,0,1,1,5.24,14.33,14.33,0,0,1-2.47,6.68c-1.71,2.37-3.81,2.47-5.82,3.94-1,.73-3.73-.32-4.65-1.4a2.7,2.7,0,0,1-.33-2.66,6,6,0,0,0,.21-2.83c-.17-1.53-2.51,0-2.91-1.06C776.77,271.82,777.21,262.36,781.77,261.12Z" fill="url(#dd)"/><path d="M780.48,273.63c-1.86,0-2.11,2.79-1.25,3.25.46.25,1.44-.1,2-1.38C781.61,274.56,781.75,273.61,780.48,273.63Z" fill="#ba642a"/><path d="M780.21,274.6l-.46,1.38c.26.21.77-.43.9-.86S780.54,274.48,780.21,274.6Z" fill="#572f11"/><path d="M770,417.91a2.07,2.07,0,0,1-1.95-1.21,6.19,6.19,0,0,1,.07,2.2c0,1,.88,2.55,4.37,2.52,1.8,0,3.28-1.12,3.28-2,0,0,0-.62,0-2.82C775.37,417.51,774.31,418.39,770,417.91Z" fill="url(#de)"/><path d="M784.45,410.89a1.86,1.86,0,0,1-1.68-1.2,5.54,5.54,0,0,1-.06,2c-.06.92.64,2.34,3.76,2.51,1.62.1,3-.81,3.07-1.64,0,0,0-.56.17-2.52C789.26,410.84,788.26,411.57,784.45,410.89Z" fill="url(#df)"/><rect x="70.53" y="319.44" width="86.52" height="1" transform="translate(-144.82 99.87) rotate(-30.02)" fill="#94dbff"/><path d="M160.82,485.75a28.82,28.82,0,0,1-14.57-3.95L4.68,398.71a9.48,9.48,0,0,1,.06-16.39L22.9,371.84l.5.86L5.24,383.19a8.48,8.48,0,0,0,0,14.66l141.57,83.09a27.87,27.87,0,0,0,28,.1l15.34-8.86.5.87-15.34,8.85A28.72,28.72,0,0,1,160.82,485.75Z" fill="#94dbff"/><path d="M228.88,682.65a28.79,28.79,0,0,1-14.39-3.84L139.83,635.7a9.48,9.48,0,0,1,0-16.42l149.36-86.23.5.86L140.33,620.15a8.48,8.48,0,0,0,0,14.69L215,677.94a27.85,27.85,0,0,0,27.8,0l178-103a26.54,26.54,0,0,1,27.24.38l24,14.8-.52.85-24-14.79a25.5,25.5,0,0,0-26.21-.37l-178,103A28.78,28.78,0,0,1,228.88,682.65Z" fill="#94dbff"/><path d="M602.5,603.39l-.5-.87,3.46-2,.5.87Zm8.66-5-.5-.87,3.46-2,.5.87Zm8.66-5-.5-.87,3.46-2,.5.87Zm8.66-5-.5-.87,3.46-2,.5.87Zm8.66-5-.5-.87,3.46-2,.5.87Zm8.66-5-.5-.87,3.46-2,.5.87Zm8.66-5-.5-.87,3.46-2,.5.87Zm8.66-5-.5-.87,3.46-2,.5.87Zm8.66-5-.5-.87,3.46-2,.5.87Zm8.66-5-.5-.87,3.46-2,.5.87Zm8.66-5-.5-.87,3.46-2,.5.87Zm8.66-5-.5-.87,3.46-2,.5.87Zm8.66-5-.5-.87,3.46-2,.5.87Zm8.66-5-.5-.87,3.46-2,.5.87Zm8.66-5-.5-.87,3.47-2,.5.87Zm8.66-5-.5-.87,3.47-2,.5.87Z" fill="#94dbff"/><rect x="676.23" y="395.19" width="1" height="76.68" transform="translate(-38.91 799.27) rotate(-59.71)" fill="#94dbff"/><path d="M178,657.45l-.5-.86,3.46-2,.5.86Zm8.66-5-.5-.86,3.47-2,.5.86Zm8.66-5-.5-.86,3.47-2,.5.86Zm8.66-5-.5-.86,3.47-2,.5.86Zm8.66-5-.5-.86,3.47-2,.5.86Zm8.66-5-.5-.86,3.47-2,.5.86Zm8.66-5-.5-.86,3.47-2,.5.86Zm8.66-5-.5-.86,3.47-2,.5.86Z" fill="#94dbff"/><path d="M261.23,606.88c4.23,2.44,4.23,6.4,0,8.84a16.93,16.93,0,0,1-15.31,0c-4.23-2.44-4.23-6.4,0-8.84A16.93,16.93,0,0,1,261.23,606.88Z" fill="#ff6631" fill-rule="evenodd"/><path d="M57.23,499.5c4.23,2.44,4.23,6.4,0,8.84a16.93,16.93,0,0,1-15.31,0c-4.22-2.44-4.22-6.4,0-8.84A16.93,16.93,0,0,1,57.23,499.5Z" fill="#ffe592" fill-rule="evenodd"/><path d="M33.24,495.84l-3.47-2,.5-.86,3.47,2Zm-8.66-5-3.47-2,.5-.86,3.47,2Zm-8.66-5-.51-.29a7.92,7.92,0,0,1-2.64-2.47l.84-.55a6.69,6.69,0,0,0,2.3,2.15l.51.3Zm-3.26-8.67-1-.23a7.77,7.77,0,0,1,2-3.69l.71.7A6.82,6.82,0,0,0,12.66,477.17Zm6.76-6.23-.47-.88,3.53-1.89.47.89Zm8.82-4.71-.47-.88,3.53-1.88.47.88Zm8.83-4.71-.47-.88,3.53-1.88.47.88Zm8.82-4.7-.47-.89L49,454.05l.47.88Zm8.82-4.71-.47-.89,3.53-1.88.47.88Zm8.82-4.71-.47-.88,3.53-1.89.47.89Zm8.83-4.71-.47-.88,3.53-1.88.47.88Z" fill="#94dbff"/><g opacity="0.1"><polygon points="311.27 301.09 422.82 235.83 538.28 301.02 424.73 366.59 311.27 301.09"/></g><polygon points="478.76 233.65 424.74 264.85 370.55 233.57 424.57 202.37 478.76 233.65" fill="#f2efe7"/><polygon points="478.76 233.66 424.73 264.85 424.73 266.83 478.76 235.63 478.76 233.66" fill="#bcb2a6"/><polygon points="424.73 264.85 370.55 233.58 370.55 235.55 424.73 266.83 424.73 264.85" fill="#ddd5cc"/><polygon points="488.56 294.4 509.42 306.44 530.21 294.44 509.35 282.4 488.56 294.4" fill="#f2efe7"/><polygon points="488.56 294.4 509.43 306.44 509.43 313.06 488.56 301.01 488.56 294.4" fill="#a39c95"/><polygon points="509.43 306.45 530.21 294.44 530.21 301.06 509.43 313.07 509.43 306.45" fill="#bcb2a6"/><path d="M472.53,272.44a21.82,21.82,0,0,0-4.67-3.68,22,22,0,0,1,14.68,6.7l26.79,27.76-16-9.25Z" fill="#ddd5cc"/><polygon points="445.6 343.3 424.74 355.35 403.94 343.35 424.8 331.3 445.6 343.3" fill="#f2efe7"/><polygon points="445.6 343.3 424.73 355.35 424.73 361.97 445.6 349.92 445.6 343.3" fill="#a39c95"/><polygon points="424.73 355.35 403.94 343.35 403.94 349.97 424.73 361.97 424.73 355.35" fill="#bcb2a6"/><polygon points="360.88 294.4 340.02 306.44 319.23 294.44 340.09 282.4 360.88 294.4" fill="#f2efe7"/><polygon points="360.88 294.4 340.01 306.44 340.01 313.06 360.88 301.01 360.88 294.4" fill="#a39c95"/><polygon points="340.01 306.45 319.23 294.44 319.23 301.06 340.01 313.07 340.01 306.45" fill="#bcb2a6"/><path d="M440,298.9a31.39,31.39,0,0,1,15.67-27.17,22.06,22.06,0,0,1,26.91,3.78l26.8,27.77,15.24-8.8-49.95-51.75-49.95,28.84v80.58L440,343.33Z" fill="#bcb2a6"/><path d="M374.77,242.73l-49.93,51.76,15.26,8.77,26.79-27.77a22,22,0,0,1,26.91-3.77,31.38,31.38,0,0,1,15.67,27.17v44.45l15.25,8.81V271.57Z" fill="#ddd5cc"/><polygon points="474.68 238 424.73 266.84 424.73 271.56 474.68 242.73 474.68 238" fill="#a39c95"/><polygon points="424.73 266.84 374.79 238 374.79 242.72 424.73 271.56 424.73 266.84" fill="#bcb2a6"/><polygon points="471.33 227.9 424.73 254.84 424.73 261 471.33 234.06 471.33 227.9" fill="#a39c95"/><polygon points="424.73 254.85 377.99 227.82 377.99 233.98 424.73 261.01 424.73 254.85" fill="#bcb2a6"/><path d="M376.91,272.44a21.82,21.82,0,0,1,4.67-3.68,22,22,0,0,0-14.68,6.7l-26.79,27.76,16-9.25Z" fill="#a39c95"/><g clip-path="url(#dg)"><rect x="423.73" y="251.13" width="2" height="12.89" fill="#8c8c8c"/><rect x="418.57" y="248.04" width="2" height="12.89" fill="#8c8c8c"/><rect x="413.42" y="244.94" width="2" height="12.89" fill="#8c8c8c"/><rect x="408.26" y="241.85" width="2" height="12.89" fill="#8c8c8c"/><rect x="403.1" y="238.76" width="2" height="12.89" fill="#8c8c8c"/><rect x="397.94" y="235.66" width="2" height="12.89" fill="#8c8c8c"/><rect x="392.79" y="232.57" width="2" height="12.89" fill="#8c8c8c"/><rect x="387.63" y="229.47" width="2" height="12.89" fill="#8c8c8c"/><rect x="382.47" y="226.38" width="2" height="12.89" fill="#8c8c8c"/><rect x="377.32" y="223.28" width="2" height="12.89" fill="#8c8c8c"/><rect x="428.89" y="248.04" width="2" height="12.89" fill="#8c8c8c"/><rect x="434.04" y="244.94" width="2" height="12.89" fill="#8c8c8c"/><rect x="439.2" y="241.85" width="2" height="12.89" fill="#8c8c8c"/><rect x="444.36" y="238.76" width="2" height="12.89" fill="#8c8c8c"/><rect x="449.52" y="235.66" width="2" height="12.89" fill="#8c8c8c"/><rect x="454.67" y="232.57" width="2" height="12.89" fill="#8c8c8c"/><rect x="459.83" y="229.47" width="2" height="12.89" fill="#8c8c8c"/><rect x="464.99" y="226.38" width="2" height="12.89" fill="#8c8c8c"/><rect x="470.15" y="223.28" width="2" height="12.89" fill="#8c8c8c"/></g><polygon points="474.68 224.02 424.74 252.86 374.79 224.1 424.73 195.26 474.68 224.02" fill="#f2efe7"/><polygon points="446.19 186.49 424.73 198.89 403.27 186.53 424.73 174.14 446.19 186.49" fill="#f2efe7"/><polygon points="474.68 224.02 424.73 252.86 424.73 254.84 474.68 226 474.68 224.02" fill="#bcb2a6"/><polygon points="424.73 252.86 374.79 224.1 374.79 226.08 424.73 254.84 424.73 252.86" fill="#ddd5cc"/><polygon points="447.79 178.87 424.73 192.17 401.67 178.9 424.73 165.57 447.79 178.87" fill="#f2efe7"/><polygon points="447.79 178.87 424.73 192.18 424.73 194.16 447.79 180.85 447.79 178.87" fill="#bcb2a6"/><polygon points="424.73 192.18 401.67 178.9 401.67 180.88 424.73 194.16 424.73 192.18" fill="#ddd5cc"/><path d="M432.48,202.82l9.59-5.58a111.33,111.33,0,0,0,13.71,30.5l7.11-4.12a135.75,135.75,0,0,1-16.7-37.13l-21.46,12.42v46.81l7.75-4.4Z" fill="#bcb2a6"/><path d="M442.19,178.67C435.46,119.47,434,39.82,434,39.82l-9.3,5.37V188.77Z" fill="#bcb2a6"/><path d="M407.26,178.67c6.73-59.2,8.16-138.84,8.16-138.84l9.31,5.36V188.77Z" fill="#ddd5cc"/><path d="M403.26,186.49a135.75,135.75,0,0,1-16.7,37.13l7.09,4.1a111.56,111.56,0,0,0,13.72-30.5l10.29,5.93v38.5l7.06,4.07V198.91Z" fill="#ddd5cc"/><path d="M455.77,227.75A111.76,111.76,0,0,1,442,197.2l-3.87,2.25a108.79,108.79,0,0,0,9.72,23.77Z" fill="#ddd5cc"/><path d="M393.67,227.73a111.9,111.9,0,0,0,13.72-30.55l3.87,2.25a108,108,0,0,1-9.72,23.76Z" fill="#a39c95"/><polygon points="446.19 181.77 424.73 194.16 424.73 198.88 446.19 186.49 446.19 181.77" fill="#a39c95"/><polygon points="424.73 194.16 403.27 181.81 403.27 186.53 424.73 198.89 424.73 194.16" fill="#bcb2a6"/><polygon points="434.86 32.64 424.73 38.48 414.6 32.65 424.73 26.79 434.86 32.64" fill="#f2efe7"/><polygon points="434.86 32.64 424.73 38.48 424.73 40.46 434.86 34.62 434.86 32.64" fill="#bcb2a6"/><polygon points="424.73 38.48 414.6 32.65 414.6 34.63 424.73 40.45 424.73 38.48" fill="#ddd5cc"/><polygon points="434.03 35.09 424.73 40.46 424.73 45.19 434.03 39.82 434.03 35.09" fill="#a39c95"/><polygon points="424.73 40.47 415.42 35.11 415.42 39.83 424.73 45.19 424.73 40.47" fill="#bcb2a6"/><path d="M431,30.4c0-3.61-6.27-11.32-6.27-11.32V36L431,32.37Z" fill="url(#dh)"/><path d="M424.73,19.08s-6.29,7.36-6.29,11.33v2l6.29,3.6Z" fill="url(#di)"/><polygon points="426.4 1.94 424.72 0 423.04 1.94 423.04 25.09 426.4 25.09 426.4 1.94" fill="url(#dj)"/><path d="M600.11,254.93l-3.27-1.82.49-.87,2.76,1.54.23-.13.51.86Zm5.89-3.47-.51-.86,3.44-2,.51.86Zm-14.4-1.27-3.49-1.95.49-.87,3.49,1.95ZM493,248.09l-.5-.87,3.46-2,.5.86Zm121.64-1.72-.51-.86,3.45-2,.51.86Zm-31.73-1.05-3.5-1.94.49-.88,3.49,1.95Zm-81.26-2.25-.5-.86,3.46-2,.51.87Zm121.6-1.79-.5-.86,3.44-2,.51.86Zm-49.08-.82-3.49-2,.49-.88,3.49,2Zm-63.86-2.4-.5-.87,3.46-2,.5.87Zm121.55-1.87-.51-.86,3.45-2,.51.86Zm-66.42-.6-3.5-2,.49-.87,3.49,1.94Zm-46.48-2.54-.5-.87,3.46-2,.5.86Zm121.51-1.94-.51-.86,3.45-2,.51.86Zm-83.77-.39-3.49-1.95.49-.87,3.49,1.95ZM527.57,228l-.5-.87,3.46-2,.5.86Zm20.36-2.19-3.5-1.95.49-.87,3.5,1.95ZM536.23,223l-.51-.86,3.47-2,.5.87Z" fill="#94dbff"/><path d="M504.21,199.88l-3.47-2,.5-.87,3.47,2Zm-8.67-5-3.47-2,.49-.87,3.47,2Zm-8.68-5-3.47-2,.5-.87,3.47,2Zm-8.68-5-3.47-2,.5-.87,3.47,2Zm-8.68-5L466,178l.5-.87,3.47,2Zm-8.67-5-3.47-2,.49-.87,3.47,2Zm-8.68-5-3.47-2,.5-.87,3.47,2Z" fill="#94dbff"/><path d="M308.51,364.08l-3.46-2,.49-.87,3.47,2Zm5.89-1.33-.4-.92,3.66-1.6.4.91Zm-14.55-3.67-3.47-2,.5-.87,3.47,2Zm23.71-.34-.4-.92,3.66-1.6.4.91Zm-138.82-2.58-.49-.87,2.69-1.51.49.87Zm148-1.44-.4-.91L336,352.2l.4.92Zm-41.54-.63-3.46-2,.5-.87,3.46,2Zm-98.53-2.39-.49-.87,3.49-2,.49.87Zm89.87-2.6-3.47-2,.5-.87,3.47,2Zm-81.16-2.31-.49-.88,3.49-2,.49.87Zm72.49-2.68-3.46-2,.5-.87,3.46,2Zm-63.78-2.24-.49-.87,3.49-2,.49.87Zm55.12-2.76-3.47-2,.5-.87,3.47,2ZM218.78,337l-.49-.87,3.49-2,.49.87Zm37.74-2.84-3.46-2,.5-.86,3.46,2Zm-29-2.07-.49-.88,3.49-2,.49.87Zm20.37-2.92-3.47-2,.5-.87,3.47,2Zm-11.66-2-.49-.87,3.49-2,.49.87Z" fill="#94dbff"/><path d="M420,393.47l-3.49-2,.49-.87,3.49,1.95Zm5.69-2.75-.49-.87,3.46-2,.5.87Zm-14.42-2.14-3.49-1.95.49-.87,3.49,1.95Zm23.09-2.85-.5-.87,3.47-2,.5.86Zm-31.81-2-3.49-2,.48-.87,3.49,2Zm40.48-3-.5-.86,3.47-2,.5.87Zm-49.21-1.92-3.49-2,.49-.87,3.49,1.95Zm57.88-3.06-.5-.87,3.47-2,.5.87Zm8.67-5-.5-.87,3.46-2,.5.86Zm8.66-5-.49-.86,3.46-2,.5.87Zm8.67-5-.5-.87,3.47-2,.5.87Zm62.21-2-1.82-1,.48-.87,1.83,1Zm-53.54-3-.5-.87,3.47-2,.5.87Zm46.48-1-3.49-1.95.48-.87,3.5,2Zm-37.81-4-.5-.86,3.47-2,.5.87Zm29.08-.86L520.58,348l.48-.87,3.49,1.95Zm-20.41-4.12-.5-.87,3.46-2,.5.87Zm11.68-.75-3.49-1.95.48-.88,3.49,1.95Z" fill="#94dbff"/><path d="M67.45,402.76l-4.32,2.58v.94l-2,1.05a.4.4,0,0,0-.14.43l1.53,11.18c0,.23,0,.37-.15.43s-3.4,2-3.4,2l-1.68-7.53-3.51-4.15a.67.67,0,0,0-.46-.27l-8,.25c-.36,0-.79-.59-.72-1l1.52-9.42a1,1,0,0,0-.14-.59l-4.17-7.09-.6.48L36,388.71l3.4-2a.34.34,0,0,1,.3,0l8.95,3.66a.27.27,0,0,0,.38-.1l1-1.74-.21-2.6,4-2.36.07.16,4,11.68a1.13,1.13,0,0,0,.37.53l9,6.67A.86.86,0,0,1,67.45,402.76Z" fill="url(#dk)"/><path d="M67.59,403.77l-3.25,1.88-1.21.63v-.94l4.32-2.58C67.75,403.1,67.85,403.63,67.59,403.77Z" fill="#ffd56c"/><path d="M53.9,383.59l-4,2.36-.07-.85,3.39-2C53.37,383,53.71,383.23,53.9,383.59Z" fill="#ffd56c"/><path d="M57.72,409.29a.4.4,0,0,0-.14.43l1.54,11.18c.07.51-.36.63-.73.19l-8-9.48a.68.68,0,0,0-.47-.27l-8,.25c-.37,0-.8-.6-.73-1l1.53-9.42a1,1,0,0,0-.15-.59l-6.48-11c-.3-.5-.14-1,.27-.82l9,3.66a.27.27,0,0,0,.37-.1l4-7.06c.18-.33.71,0,.89.51l4,11.69a1.09,1.09,0,0,0,.38.53l9,6.67c.41.3.58,1,.28,1.14Z" fill="#ffd56c"/><path d="M36.05,388.94l9,3.66a.28.28,0,0,0,.38-.09l.07-.13-.14,0-9-3.66a.27.27,0,0,0-.41.23Z" fill="#fff"/><path d="M57.58,409.72a.63.63,0,0,1,0-.28l-.18.1a.4.4,0,0,0-.14.43l1.53,11.19a.67.67,0,0,1,0,.2c.2,0,.35-.14.31-.46Z" fill="#fff"/><path d="M63.92,404.59l-9-6.67a1.09,1.09,0,0,1-.38-.53l-4-11.69c-.18-.53-.71-.84-.9-.51l-.07.12a.9.9,0,0,1,.66.65l4,11.68a1.13,1.13,0,0,0,.37.53l9,6.67a1,1,0,0,1,.39,1l.19-.1C64.5,405.57,64.33,404.89,63.92,404.59Z" fill="#fff"/><rect x="49.27" y="416.81" width="1" height="85.95" fill="#ffd56c"/><path d="M804.5,137.2l-4.32,2.58v.94l-2,1.05a.4.4,0,0,0-.14.43l1.53,11.18a.39.39,0,0,1-.15.43s-3.4,1.95-3.4,1.95l-1.68-7.53-3.51-4.14a.67.67,0,0,0-.46-.27l-8,.25c-.36,0-.79-.6-.72-1l1.52-9.42A1,1,0,0,0,783,133l-4.17-7.09-.6.48-5.14-3.27,3.4-2a.3.3,0,0,1,.29,0l9,3.66a.27.27,0,0,0,.38-.1l1-1.75-.21-2.59,4-2.37a1.11,1.11,0,0,1,.07.16l4,11.69a1.23,1.23,0,0,0,.38.53l9,6.67A.86.86,0,0,1,804.5,137.2Z" fill="url(#dl)"/><path d="M804.64,138.21l-3.25,1.88-1.21.63v-.94l4.32-2.58C804.8,137.53,804.9,138.07,804.64,138.21Z" fill="#ffd56c"/><path d="M790.94,118l-4,2.37-.07-.85,3.39-2C790.42,117.46,790.76,117.66,790.94,118Z" fill="#ffd56c"/><path d="M794.77,143.73c-.12.06-.17.22-.14.42l1.54,11.19c.07.51-.36.62-.73.19l-8-9.48a.62.62,0,0,0-.47-.27l-8,.24c-.36,0-.79-.59-.72-1l1.53-9.42a1,1,0,0,0-.15-.6l-6.48-11c-.3-.5-.14-1,.27-.82l9,3.66a.27.27,0,0,0,.37-.1l4-7.07c.19-.32.71,0,.9.52l4,11.68a1.12,1.12,0,0,0,.37.54l9,6.66c.41.31.58,1,.28,1.15Z" fill="#ffd56c"/><path d="M773.1,123.38l8.95,3.66a.27.27,0,0,0,.38-.1l.07-.12-.14,0-9-3.66a.27.27,0,0,0-.41.23A.23.23,0,0,1,773.1,123.38Z" fill="#fff"/><path d="M794.63,144.15a.48.48,0,0,1,0-.27l-.18.1a.41.41,0,0,0-.15.43l1.54,11.18a.66.66,0,0,1,0,.2c.2,0,.35-.13.31-.45Z" fill="#fff"/><path d="M801,139l-9-6.66a1.12,1.12,0,0,1-.37-.54l-4-11.68c-.19-.53-.71-.84-.9-.52l-.07.13a.9.9,0,0,1,.66.64l4,11.69a1.23,1.23,0,0,0,.38.53l9,6.67a1,1,0,0,1,.39,1l.19-.1C801.55,140,801.38,139.33,801,139Z" fill="#fff"/><path d="M787.32,235.25h-1v-4h1Zm0-10h-1v-4h1Zm0-10h-1v-4h1Zm0-10h-1v-4h1Zm0-10h-1v-4h1Zm0-10h-1v-4h1Zm0-10h-1v-4h1Zm0-10h-1v-4h1Zm0-10h-1v-4h1Z" fill="#ffd56c"/><rect x="253.37" y="538.58" width="1" height="73.5" fill="#ff6631"/><path d="M251.29,493.41c-2.24-1.3-4.27-1.39-5.71-.48l-5.2,3,3.83,16s15,4.83,15-4.79A17.47,17.47,0,0,0,251.29,493.41Z" fill="url(#dm)"/><path d="M267.05,502.52c-2.25-1.3-4.28-1.39-5.72-.49l-5.26,3.07L260,530.54s15-4.7,15-14.31A17.49,17.49,0,0,0,267.05,502.52Z" fill="url(#dn)"/><path d="M261.67,505.65c-4.2-2.43-7.64-.63-7.9,4-.27-4.92-3.7-10.67-7.9-13.1-4.37-2.52-7.92-.48-7.92,4.57,0,8.86,16.63,32.57,16.63,32.57s15-4.7,15-14.32A17.49,17.49,0,0,0,261.67,505.65Z" fill="#fff"/><path d="M254.63,533.52c-.55-.79-4.36-6.32-8.14-12.7-5.35-9.06-8.19-15.73-8.19-19.28,0-3.34,1.6-5.42,4.17-5.42a6.93,6.93,0,0,1,3.42,1c4.06,2.35,7.46,8,7.72,12.81l.44.23a6.93,6.93,0,0,1,1.3-3.92,3.34,3.34,0,0,1,2.73-1.17,6.84,6.84,0,0,1,3.41,1.05,17.12,17.12,0,0,1,7.74,13.4,9.84,9.84,0,0,1-2.28,6.12,20.19,20.19,0,0,1-5.05,4.38A36,36,0,0,1,254.63,533.52Z" fill="#ff6631"/><polygon points="598.55 246.04 598.42 246.04 598.44 245.94 598.55 245.94 598.55 246.04" fill="#ea687e"/><path d="M603.26,201.64c-3.88-2.25-7.39-2.36-9.84-.74l-4.85,2.8s1.5,8.84,1.9,10.45a51.29,51.29,0,0,0,3.33,9.72l7.81,16.21-3.22,1.86s0,3.92,0,3.92a.18.18,0,0,0,.27.15l4.48-2.58.07-.07s9.31-9.1,9.31-9.1a14.71,14.71,0,0,0,3.54-5.72,11.19,11.19,0,0,0,.69-3.57C616.73,216.38,610.7,205.93,603.26,201.64Zm6.22,20.74a3.73,3.73,0,0,1-5.53,3.19c-4-1.81-7.32-7.58-6.9-11.94a3.74,3.74,0,0,1,5.53-3.2C606.57,212.25,609.9,218,609.48,222.38Z" fill="url(#do)"/><path d="M598.37,204.46c-7.43-4.29-13.47-.81-13.47,7.78a20.16,20.16,0,0,0,.7,4.38,54,54,0,0,0,3.54,9.8l9.12,19.52a.18.18,0,0,0,.29.05l9.06-8.9a14.76,14.76,0,0,0,3.54-5.73,11.19,11.19,0,0,0,.69-3.57C611.84,219.2,605.81,208.76,598.37,204.46Zm0,23.56a13.85,13.85,0,0,1-6.21-10.75c0-3.89,2.94-5.6,6.3-3.63a13.84,13.84,0,0,1,6.21,10.74C604.65,228.27,601.68,230,598.33,228Z" fill="#fff"/><path d="M589.1,226.34a53.45,53.45,0,0,1-3.51-9.74,19.28,19.28,0,0,1-.69-4.3c0-5.72,2.73-9.28,7.12-9.28a11.81,11.81,0,0,1,5.84,1.8c7.34,4.23,13.31,14.57,13.31,23a10.85,10.85,0,0,1-.68,3.46,14.38,14.38,0,0,1-3.46,5.59l-8.73,8.58a.16.16,0,0,1-.26,0Zm6.14-13.86c-2.3,0-3.79,1.89-3.79,4.8a14.22,14.22,0,0,0,6.41,11.12,6,6,0,0,0,3,.9c2.3,0,3.79-1.88,3.79-4.8a14.2,14.2,0,0,0-6.42-11.12A5.93,5.93,0,0,0,595.24,212.48Z" fill="#ffd56c"/><polygon points="309.72 354.42 309.52 354.43 309.55 354.27 309.72 354.27 309.72 354.42" fill="#ea687e"/><path d="M316.75,288.19c-5.8-3.35-11-3.52-14.69-1.1l-7.23,4.17s2.24,13.19,2.83,15.6a77.43,77.43,0,0,0,5,14.49l11.65,24.18-4.8,2.78s0,5.84,0,5.84a.26.26,0,0,0,.4.23l6.68-3.85a.38.38,0,0,0,.11-.11s13.89-13.56,13.89-13.56a21.87,21.87,0,0,0,5.27-8.54,16.69,16.69,0,0,0,1-5.33C336.84,310.18,327.85,294.6,316.75,288.19ZM326,319.13c-.42,4.37-4.26,6.58-8.25,4.77-5.95-2.71-10.92-11.32-10.29-17.83.42-4.36,4.26-6.58,8.25-4.76C321.68,304,326.65,312.63,326,319.13Z" fill="url(#dp)"/><path d="M309.46,292.41c-11.1-6.41-20.1-1.22-20.1,11.6a30.23,30.23,0,0,0,1,6.52,80.23,80.23,0,0,0,5.28,14.63l13.61,29.11a.27.27,0,0,0,.43.08l13.51-13.28a21.82,21.82,0,0,0,5.28-8.54,16.86,16.86,0,0,0,1-5.32C329.55,314.39,320.55,298.81,309.46,292.41Zm-.07,35.13c-5.1-3-9.22-10.12-9.26-16s4.39-8.35,9.39-5.42,9.22,10.13,9.26,16S314.39,330.48,309.39,327.54Z" fill="#fff"/><path d="M295.63,325a79.26,79.26,0,0,1-5.25-14.53,28.94,28.94,0,0,1-1-6.41c0-8.54,4.06-13.84,10.61-13.84a17.66,17.66,0,0,1,8.73,2.68c10.94,6.31,19.84,21.73,19.84,34.36a15.91,15.91,0,0,1-1,5.16,21.36,21.36,0,0,1-5.15,8.35l-13,12.8a.25.25,0,0,1-.4-.07Zm9.15-20.67c-3.44,0-5.66,2.81-5.66,7.16,0,6.09,4.3,13.53,9.58,16.58a8.88,8.88,0,0,0,4.41,1.34c3.44,0,5.66-2.81,5.66-7.16,0-6.09-4.29-13.53-9.57-16.58A8.91,8.91,0,0,0,304.78,304.37Z" fill="#84cca1"/><path d="M337.37,151.26a3.9,3.9,0,0,1-3.49,0,1.07,1.07,0,0,1,0-2,3.9,3.9,0,0,1,3.49,0A1.07,1.07,0,0,1,337.37,151.26Z" fill="#ffd56c"/><path d="M335.44,42.45a33,33,0,0,0-28.2,49.83L328.7,122.4a4.68,4.68,0,0,0,1.76,1.63,11.42,11.42,0,0,0,10.34,0,4.74,4.74,0,0,0,1.72-1.57l21.56-30.18a33,33,0,0,0-28.64-49.83Z" fill="url(#dq)"/><path d="M339.43,124.66c2.26-2.83,11.17-18,15.31-31.83,2.86-9.53,3.49-16.94,1.85-25.76-1.8-9.72-5.94-15.32-13.15-23.71a65.78,65.78,0,0,0-15.59,0c-7.14,8.36-11.33,14.06-13.12,23.72-1.64,8.82-1,16.23,1.84,25.76,4.11,13.66,15.11,31.78,15.11,31.78A11.67,11.67,0,0,0,339.43,124.66Z" fill="url(#dr)"/><path d="M337.48,125.15c.9-2.82,4.11-18.51,5.75-32.32A126.13,126.13,0,0,0,344,67.07c-.72-9.72-2.58-16.12-5.43-24.51,0,0-2.36-.12-5.73,0-2.84,8.36-4.74,14.85-5.45,24.51a125.4,125.4,0,0,0,.73,25.76c1.63,13.66,5.7,32.32,5.7,32.32A11.89,11.89,0,0,0,337.48,125.15Z" fill="url(#ds)"/><path d="M335,128.67l-10.48,6.05L335,140.78a1.34,1.34,0,0,0,1.34,0l10.49-6.06-10.48-6.05A1.37,1.37,0,0,0,335,128.67Z" fill="#ffe592"/><polygon points="335.68 129.69 335.68 139.67 327.05 134.68 335.68 129.69" fill="#e68c2c"/><polygon points="335.68 139.67 344.32 134.68 335.68 129.69 335.68 139.67" fill="#fca83a"/><path d="M333.85,151.21l-5.31-3.1a4.81,4.81,0,0,1-2.32-3.35l-1.72-10,11.16,6.21v9.24A1.2,1.2,0,0,1,333.85,151.21Z" fill="#ffc051"/><path d="M345,144.87a4.79,4.79,0,0,1-2.31,3.29l-5.21,3a1.2,1.2,0,0,1-1.82-1l0-9.23,11.16-6.21Z" fill="#fca83a"/><polygon points="335.27 118.13 335.14 140.07 335.14 140.21 336.12 140.21 336.25 118.13 335.27 118.13" fill="#262626"/><path d="M335.68,118.69c-12.6,0-16.66-8-16.82-8.34a.55.55,0,0,1,.25-.74.56.56,0,0,1,.74.25c0,.08,4,7.72,15.83,7.72,11.45,0,15.72-7.57,15.76-7.65a.55.55,0,0,1,1,.53C352.23,110.8,347.78,118.69,335.68,118.69Z" fill="#262626"/><path d="M328.2,136.5a.55.55,0,0,1-.52-.37l-9.41-27.45a.56.56,0,0,1,.2-.63c.29.35,1.38,1.82,1.38,1.82l8.88,25.9a.55.55,0,0,1-.35.7A.57.57,0,0,1,328.2,136.5Z" fill="#262626"/><path d="M343,136.5a.57.57,0,0,1-.18,0,.55.55,0,0,1-.34-.7l9.05-25.92s.55-.78,1.43-1.95a.55.55,0,0,1,.2.63l-9.63,27.6A.56.56,0,0,1,343,136.5Z" fill="#262626"/><polygon points="335.71 139.59 344.24 134.65 346.82 134.72 335.66 141.17 324.5 134.72 326.94 134.64 335.71 139.59" fill="#ffe592"/><path d="M336,140.69a.71.71,0,0,1-.69,0l-10.58-6.1-.23.13L335.32,141a.71.71,0,0,0,.69,0l10.81-6.25-.21-.12Z" fill="#f2efe7"/><path d="M327,43.6a5.26,5.26,0,0,0,2.36,2.47,13.85,13.85,0,0,0,12.54,0,5.2,5.2,0,0,0,2.37-2.5,33.41,33.41,0,0,0-8.83-1.14A32.75,32.75,0,0,0,327,43.6Z" fill="#e5491a"/></svg>