<svg id="Layer_2" data-name="Layer 2" xmlns="http://www.w3.org/2000/svg" viewBox="0 0 800 520"><defs><style>.cls-1,.cls-13{fill:#909090;}.cls-1{opacity:0.44;}.cls-2{fill:#f8f8f8;}.cls-11,.cls-14,.cls-15,.cls-17,.cls-19,.cls-20,.cls-21,.cls-22,.cls-3,.cls-30,.cls-33,.cls-34,.cls-35,.cls-36,.cls-39,.cls-40,.cls-41,.cls-42,.cls-43,.cls-44,.cls-45{fill:#fff;}.cls-4{fill:#bcbcbc;}.cls-5{fill:#d44c50;}.cls-6{fill:#44393a;}.cls-10,.cls-52,.cls-53,.cls-7,.cls-8{fill:none;}.cls-7{stroke:#44393a;}.cls-52,.cls-7,.cls-8{stroke-miterlimit:10;}.cls-8{stroke:#f1f1f1;}.cls-10,.cls-11,.cls-52,.cls-8{stroke-width:2px;}.cls-9{fill:#b74149;}.cls-10,.cls-11,.cls-52,.cls-53{stroke:#d44c50;stroke-linecap:round;}.cls-10,.cls-11,.cls-53{stroke-linejoin:round;}.cls-12,.cls-23,.cls-24,.cls-25,.cls-26,.cls-27,.cls-28,.cls-29,.cls-32,.cls-37,.cls-38{fill:#e0e0e0;}.cls-14{opacity:0.53;}.cls-15{opacity:0.45;}.cls-16{fill:#ccc;}.cls-17{font-size:9.58px;}.cls-17,.cls-19,.cls-20,.cls-21,.cls-22,.cls-23,.cls-24,.cls-25,.cls-26,.cls-27,.cls-28,.cls-29,.cls-30,.cls-32,.cls-33,.cls-34,.cls-35,.cls-36,.cls-37,.cls-38,.cls-39,.cls-40,.cls-41,.cls-42,.cls-43,.cls-44,.cls-45{font-family:OpenSans-Extrabold, Open Sans;font-weight:800;}.cls-18{fill:#f1f1f1;}.cls-19{font-size:10.89px;}.cls-20{font-size:9.61px;}.cls-21{font-size:10.63px;}.cls-22{font-size:21.22px;}.cls-23{font-size:8.82px;}.cls-24{font-size:8.91px;}.cls-25{font-size:10.47px;}.cls-26{font-size:8.58px;}.cls-27{font-size:9.98px;}.cls-28{font-size:11.08px;}.cls-29{font-size:10.96px;}.cls-30{font-size:21.58px;}.cls-31{fill:#d8d8d8;}.cls-32{font-size:9.6px;}.cls-33{font-size:9.71px;}.cls-34{font-size:11.4px;}.cls-35{font-size:9.34px;}.cls-36{font-size:10.87px;}.cls-37{font-size:12.07px;}.cls-38{font-size:11.94px;}.cls-39{font-size:23.51px;}.cls-40{font-size:9.67px;}.cls-41{font-size:10.99px;}.cls-42{font-size:9.69px;}.cls-43{font-size:10.72px;}.cls-44{font-size:21.4px;}.cls-45{font-size:12.72px;}.cls-46{fill:#cc4a53;}.cls-47{fill:#adadad;}.cls-48{fill:#f7ab97;}.cls-49{fill:#ffb8a0;}.cls-50{fill:#a5a5a5;}.cls-51{fill:#cecece;}.cls-54{fill:#c14952;}.cls-55{fill:#282122;}</style></defs><title>tripcreator_transparent-pricing</title><path class="cls-1" d="M292.41,459.12l59.51,47.67a14.62,14.62,0,0,0,13.29,2.61l13.65-4a4.34,4.34,0,0,0,1.09-7.82l-69.31-44Z"/><path class="cls-1" d="M184.16,330.41l19.28,7a8.68,8.68,0,0,0,7.83-1l9.64-6.49a2,2,0,0,0-.66-3.6l-24-6.22Z"/><path class="cls-2" d="M259,254c6.94-11.09,27-61.72,25.32-74.7-1.76-13.59-8.41-26.58-7.55-40.25.93-14.8,10.78-27.9,23-36.24s26.74-12.65,41.07-16.44,28.93-7.27,42-14.26c10-5.33,18.78-12.56,28.65-18S433,44.91,444,47.55c9.85,2.37,17.89,9.55,24.1,17.56s11,17,17.1,25.14a95.6,95.6,0,0,0,25.63,23.47c17.4,10.86,37.88,15.87,55.56,26.25s33.21,29.32,29.76,49.53c-1.51,8.84-6.44,16.64-10.29,24.72C577.3,232.13,564,303.24,566,323Z"/><path class="cls-3" d="M356.85,76.38c-10.91,8.53-9.38,24-3.55,35.06,3.93,7.43,10,13.44,14,20.76,4.87,8.87-5.66,16.87-11.76,22.09-11.74,10-25.57,17.85-35.5,29.89-10.18,12.32-15,27.68-16.61,43.4-.32,3.2,4.68,3.17,5,0,1.66-16.58,7.49-32.5,19.36-44.51,10.56-10.69,23.86-18.13,34.81-28.39,4.42-4.15,10.21-9.52,11.12-15.88,1-7-4.51-12.8-8.29-18-8.06-11-19.39-29.72-5.07-40.91,2.53-2-1-5.5-3.54-3.54Z"/><path class="cls-3" d="M474.76,56.7C463,61.89,452.94,70.87,447.88,82.83c-5.73,13.51-3.59,27.17,3.63,39.54,4,6.93,9.36,14.55,5.16,22.58-3.54,6.79-9.07,12.76-14.31,18.27-9.9,10.41-21,19.79-29.45,31.47-9.33,12.86-15.37,28.43-12,44.4.67,3.14,5.5,1.81,4.82-1.33-4.14-19.37,7.52-37.4,20.2-50.93,11.6-12.38,25.31-23.31,34.21-38,9.92-16.35-8.77-29.51-10.52-45.41-2.12-19.12,10.94-35,27.63-42.43,2.93-1.3.39-5.61-2.53-4.32Z"/><path class="cls-3" d="M528.26,115.39c2.36,15.26-18.61,22.55-26.13,32.84-9,12.29-2,25.7,5.83,36.49,4.37,6.05,9.44,12.68,9.91,20.42.53,8.6-4.86,16.3-11.26,21.51s-13.74,8.08-20.74,12c-5.14,2.86-9.41,6.39-11.44,12-1.08,3,3.75,4.34,4.82,1.33,2.75-7.68,12.44-10.58,19-14.07s13-7.67,17.67-13.51c9.47-11.76,8.08-25,.05-37-4.54-6.8-10.59-13.3-12.58-21.45-2.14-8.74,2.24-15.36,8.61-20.82,9.73-8.34,23.4-16.17,21.09-31.08-.49-3.17-5.31-1.82-4.82,1.33Z"/><circle class="cls-4" cx="271.33" cy="143.98" r="1.89"/><circle class="cls-4" cx="318.56" cy="49.08" r="1.89"/><circle class="cls-4" cx="554.58" cy="60.05" r="1.89"/><circle class="cls-4" cx="582.13" cy="98.79" r="1.89"/><circle class="cls-4" cx="505.24" cy="58.16" r="1.89"/><circle class="cls-4" cx="610.27" cy="223.76" r="1.89"/><circle class="cls-4" cx="229.85" cy="67.41" r="1.89"/><circle class="cls-4" cx="375.89" cy="11.89" r="1.89"/><circle class="cls-5" cx="542.36" cy="88.37" r="1.89"/><circle class="cls-4" cx="232.26" cy="154.55" r="1.89"/><circle class="cls-4" cx="231.74" cy="118.34" r="1.89"/><circle class="cls-4" cx="614.05" cy="205.47" r="1.89"/><circle class="cls-5" cx="480.4" cy="15.67" r="1.89"/><circle class="cls-5" cx="279.35" cy="51.89" r="1.89"/><circle class="cls-6" cx="599.05" cy="128.8" r="0.64"/><circle class="cls-6" cx="485.21" cy="40.29" r="0.64"/><circle class="cls-6" cx="359.7" cy="34.01" r="0.64"/><circle class="cls-6" cx="271.98" cy="92.15" r="0.64"/><circle class="cls-6" cx="428.76" cy="58.16" r="0.64"/><circle class="cls-6" cx="595.78" cy="211.98" r="0.64"/><circle class="cls-6" cx="633.11" cy="212.62" r="0.64"/><circle class="cls-6" cx="623.67" cy="125.35" r="0.64"/><circle class="cls-6" cx="239.11" cy="98.79" r="0.64"/><circle class="cls-6" cx="202.35" cy="137.47" r="0.64"/><circle class="cls-6" cx="339.27" cy="47.19" r="0.64"/><circle class="cls-5" cx="400.02" cy="61.45" r="1.89"/><circle class="cls-4" cx="467.64" cy="67.41" r="1.89"/><circle class="cls-7" cx="493.5" cy="83.23" r="7.64"/><circle class="cls-4" cx="357.65" cy="54.09" r="3.82"/><line class="cls-8" x1="648.85" y1="341.39" x2="188.41" y2="237.74"/><path class="cls-5" d="M443.08,361.72c0,18.39-18.39,41.66-18.39,41.66s-18.38-23.54-18.38-41.66a18.39,18.39,0,0,1,36.77,0Z"/><path class="cls-9" d="M443.08,361.72A18.39,18.39,0,0,0,432,344.85a18.38,18.38,0,0,1,8.17,15.28c0,15.95-13.84,35.58-17.5,40.5,1.24,1.75,2,2.75,2,2.75S443.08,380.11,443.08,361.72Z"/><path class="cls-10" d="M443.08,361.72c0,18.39-18.39,41.66-18.39,41.66s-18.38-23.54-18.38-41.66a18.39,18.39,0,0,1,36.77,0Z"/><circle class="cls-11" cx="424.69" cy="360" r="5.75"/><ellipse class="cls-1" cx="424.13" cy="410.33" rx="6.49" ry="1.7"/><polygon class="cls-12" points="349.51 98.1 239.03 134.93 239.03 225.88 349.51 209.7 349.51 98.1"/><polygon class="cls-13" points="349.51 98.1 357.88 101.45 357.88 225.88 349.51 209.7 349.51 98.1"/><polygon class="cls-14" points="338.35 110.92 249.08 140.68 249.08 214.18 338.35 201.1 338.35 110.92"/><polygon class="cls-12" points="364.58 293.96 496.26 320.18 496.26 184.03 364.58 197.43 364.58 293.96"/><polygon class="cls-13" points="505.75 319.06 496.26 320.18 496.26 184.03 505.75 197.43 505.75 319.06"/><polygon class="cls-15" points="374.29 287.78 486.55 310.14 486.55 194.08 374.29 205.49 374.29 287.78"/><polygon class="cls-16" points="305.07 191.84 284.21 178.1 308.07 137.21 328.93 150.94 305.07 191.84"/><ellipse class="cls-3" cx="306.95" cy="164.16" rx="11.29" ry="9.64" transform="translate(40.89 388.61) rotate(-68.29)"/><text class="cls-17" transform="matrix(0.58, -1, 0.84, 0.55, 308.06, 168.89)">$</text><path class="cls-18" d="M298.8,187.75c2.42-4.14,7.18-5.66,10.64-3.38l-4.37,7.46Z"/><path class="cls-18" d="M288.55,170.59c3.46,2.28,4.3,7.48,1.89,11.63l-6.23-4.12Z"/><path class="cls-3" d="M314.34,141.29c-2.42,4.14-7.18,5.66-10.64,3.38l4.37-7.46Z"/><path class="cls-3" d="M324.59,158.45c-3.46-2.28-4.3-7.48-1.89-11.63l6.23,4.12Z"/><polygon class="cls-16" points="309.15 167.78 289.8 188.54 262.75 156.55 282.11 135.78 309.15 167.78"/><ellipse class="cls-3" cx="285.77" cy="161.7" rx="11.29" ry="9.64" transform="translate(29.83 367.38) rotate(-68.29)"/><text class="cls-19" transform="matrix(-0.58, -0.69, 0.68, -0.73, 290.29, 161.21)">$</text><path class="cls-3" d="M303.37,174c-2.74-3.24-2.36-8.66.85-12.1l4.93,5.86Z"/><path class="cls-3" d="M284.82,182.71c3.2-3.44,8-3.61,10.77-.36l-5.79,6.19Z"/><path class="cls-3" d="M268.53,150.3c2.74,3.25,2.36,8.66-.85,12.1l-4.93-5.85Z"/><path class="cls-3" d="M287.09,141.62c-3.21,3.44-8,3.6-10.77.36l5.79-6.2Z"/><polygon class="cls-12" points="289.86 155.46 310.22 170.04 285.21 210.15 264.85 195.58 289.86 155.46"/><ellipse class="cls-3" cx="287.15" cy="183.15" rx="11.29" ry="9.64" transform="translate(10.76 382.17) rotate(-68.29)"/><text class="cls-20" transform="matrix(-0.61, 0.98, -0.81, -0.58, 286.21, 178.37)">$</text><path class="cls-18" d="M296,159.8c-2.54,4.06-7.33,5.4-10.7,3l4.58-7.33Z"/><path class="cls-18" d="M305.66,177.4c-3.37-2.41-4.05-7.66-1.52-11.73l6.08,4.37Z"/><path class="cls-3" d="M279.09,205.81c2.54-4.06,7.32-5.4,10.7-3l-4.58,7.33Z"/><path class="cls-3" d="M269.41,188.21c3.37,2.41,4,7.66,1.52,11.73l-6.08-4.36Z"/><polygon class="cls-12" points="324.37 189.02 302.2 205.65 281.73 167.74 303.9 151.11 324.37 189.02"/><ellipse class="cls-18" cx="302.96" cy="177.87" rx="11.29" ry="9.64" transform="translate(25.63 393.54) rotate(-68.29)"/><text class="cls-21" transform="matrix(-0.45, -0.84, 0.8, -0.6, 307.33, 178.32)">$</text><path class="cls-3" d="M317.74,194a9.7,9.7,0,0,1,2.9-11.94l3.73,6.93Z"/><path class="cls-3" d="M298.42,198.72c3.67-2.75,8.33-1.87,10.41,2l-6.63,5Z"/><path class="cls-18" d="M288.35,162.73c2.08,3.84.78,9.18-2.89,11.94l-3.74-6.93Z"/><path class="cls-18" d="M307.67,158c-3.67,2.75-8.33,1.87-10.4-2l6.63-5Z"/><ellipse class="cls-5" cx="295.89" cy="171.24" rx="22.06" ry="18.85" transform="translate(27.34 382.79) rotate(-68.29)"/><text class="cls-22" transform="matrix(0.9, -0.13, 0.02, 1, 290.21, 179.43)">$</text><polygon class="cls-12" points="441.68 250.89 419.24 255.85 415.99 208.9 438.42 203.94 441.68 250.89"/><ellipse class="cls-3" cx="428.93" cy="229.36" rx="11.37" ry="8.67" transform="translate(136.74 618.22) rotate(-81.21)"/><text class="cls-23" transform="matrix(-0.09, -1.25, 0.98, -0.22, 432.17, 232)">$</text><path class="cls-3" d="M435,252.41c-.33-4.75,2.41-9.28,6.13-10.1l.58,8.58Z"/><path class="cls-3" d="M418.62,247.25c3.72-.82,7,2.37,7.33,7.13l-6.71,1.47Z"/><path class="cls-3" d="M422.71,207.38c.33,4.76-2.42,9.28-6.13,10.1L416,208.9Z"/><path class="cls-3" d="M439.05,212.54c-3.72.82-7-2.37-7.33-7.13l6.7-1.47Z"/><polygon class="cls-12" points="449.66 283.08 427.23 288.03 423.98 241.08 446.41 236.13 449.66 283.08"/><ellipse class="cls-3" cx="436.92" cy="261.54" rx="11.37" ry="8.67" transform="translate(111.7 653.38) rotate(-81.21)"/><text class="cls-23" transform="matrix(-0.09, -1.25, 0.98, -0.22, 440.16, 264.19)">$</text><path class="cls-3" d="M442.94,284.6c-.32-4.76,2.42-9.28,6.14-10.1l.58,8.58Z"/><path class="cls-3" d="M430.7,239.56c.33,4.76-2.42,9.28-6.13,10.1l-.59-8.58Z"/><path class="cls-3" d="M447,244.72c-3.72.83-7-2.37-7.33-7.12l6.7-1.47Z"/><polygon class="cls-16" points="442.74 257.23 423.46 244.28 442.49 201.6 461.77 214.55 442.74 257.23"/><ellipse class="cls-3" cx="442.93" cy="229.03" rx="11.37" ry="8.67" transform="matrix(0.15, -0.99, 0.99, 0.15, 148.93, 631.78)"/><text class="cls-24" transform="matrix(0.5, -1.12, 0.83, 0.56, 444.18, 233.8)">$</text><path class="cls-3" d="M436.94,253.38c1.93-4.32,6.09-6.09,9.28-3.94l-3.49,7.79Z"/><path class="cls-3" d="M426.92,236.44c3.2,2.15,4.22,7.39,2.29,11.72l-5.75-3.88Z"/><path class="cls-3" d="M448.28,205.45c-1.92,4.32-6.08,6.09-9.27,3.94l3.48-7.79Z"/><path class="cls-3" d="M458.31,222.39c-3.2-2.15-4.22-7.39-2.29-11.72l5.75,3.88Z"/><polygon class="cls-12" points="435.18 240.45 419.07 262.46 393.33 231.25 409.44 209.24 435.18 240.45"/><ellipse class="cls-3" cx="414.07" cy="235.38" rx="11.37" ry="8.67" transform="translate(118.2 608.64) rotate(-81.21)"/><text class="cls-25" transform="matrix(-0.58, -0.7, 0.59, -0.81, 418.05, 234.63)">$</text><path class="cls-3" d="M430.37,247.07c-2.61-3.17-2.56-8.69.11-12.33l4.7,5.71Z"/><path class="cls-3" d="M414.34,256.77c2.67-3.65,6.94-4,9.55-.88l-4.82,6.57Z"/><path class="cls-3" d="M398.14,224.63c2.61,3.16,2.56,8.68-.11,12.33l-4.7-5.71Z"/><path class="cls-3" d="M414.17,214.93c-2.67,3.65-6.94,4-9.55.88l4.82-6.57Z"/><polygon class="cls-16" points="415.63 240.96 437.42 245.95 428.14 292.89 406.35 287.9 415.63 240.96"/><ellipse class="cls-3" cx="421.66" cy="267.4" rx="11.37" ry="8.67" transform="translate(92.98 643.26) rotate(-81.21)"/><text class="cls-26" transform="matrix(-0.25, 1.28, -0.97, -0.22, 419.42, 263.45)">$</text><path class="cls-3" d="M422.16,242.42c-.94,4.76-4.63,7.94-8.24,7.11l1.7-8.57Z"/><path class="cls-3" d="M435.75,254.55c-3.61-.82-5.78-5.35-4.84-10.1l6.51,1.5Z"/><path class="cls-3" d="M421.61,291.43c.94-4.76,4.63-7.94,8.24-7.12l-1.7,8.58Z"/><path class="cls-3" d="M408,279.29c3.61.83,5.78,5.36,4.84,10.11l-6.51-1.5Z"/><polygon class="cls-16" points="462.23 271.78 443.4 289.72 423.19 252.18 442.02 234.24 462.23 271.78"/><ellipse class="cls-3" cx="442.6" cy="261.47" rx="11.37" ry="8.67" transform="translate(116.59 658.94) rotate(-81.21)"/><text class="cls-27" transform="matrix(-0.48, -0.88, 0.72, -0.69, 446.57, 261.72)">$</text><path class="cls-3" d="M456.6,277.18a10.81,10.81,0,0,1,1.94-12.27l3.69,6.87Z"/><path class="cls-3" d="M439.68,282.86c3.12-3,7.3-2.3,9.35,1.51l-5.63,5.35Z"/><path class="cls-3" d="M428.82,246.78a10.82,10.82,0,0,1-1.94,12.27l-3.69-6.87Z"/><path class="cls-3" d="M445.74,241.1c-3.12,3-7.31,2.3-9.35-1.51l5.63-5.35Z"/><polygon class="cls-16" points="464.11 230.96 465.35 259.81 428.58 266.37 427.33 237.51 464.11 230.96"/><ellipse class="cls-3" cx="445.94" cy="248.56" rx="11.37" ry="8.67" transform="translate(132.17 651.3) rotate(-81.21)"/><text class="cls-28" transform="matrix(-0.78, 0.14, -0.04, -1, 448.36, 244.27)">$</text><path class="cls-3" d="M464.51,239.6c-3.73.66-6.92-2.68-7.12-7.46L464.1,231Z"/><path class="cls-3" d="M458.61,261.05c-.2-4.78,2.65-9.2,6.38-9.86l.36,8.63Z"/><path class="cls-3" d="M428.18,257.72c3.72-.66,6.91,2.68,7.12,7.46l-6.72,1.18Z"/><path class="cls-3" d="M434.07,236.27c.21,4.78-2.65,9.2-6.37,9.86l-.37-8.62Z"/><polygon class="cls-16" points="399.76 272.79 396.51 244.41 432.95 233.66 436.21 262.05 399.76 272.79"/><ellipse class="cls-3" cx="416.77" cy="253.28" rx="11.37" ry="8.67" transform="translate(102.8 626.47) rotate(-81.21)"/><text class="cls-29" transform="matrix(0.78, -0.23, 0.11, 0.99, 414.64, 257.83)">$</text><path class="cls-3" d="M398.76,264.29c3.7-1.08,7.13,1.85,7.66,6.55l-6.65,2Z"/><path class="cls-3" d="M403.19,242.4c.54,4.71-2,9.4-5.71,10.49l-1-8.48Z"/><path class="cls-3" d="M434,242.16c-3.7,1.09-7.13-1.84-7.66-6.54l6.66-2Z"/><path class="cls-3" d="M429.53,264.05c-.54-4.7,2-9.4,5.71-10.49l1,8.49Z"/><ellipse class="cls-5" cx="431.37" cy="246.98" rx="22.22" ry="16.95" transform="translate(121.39 635.57) rotate(-81.21)"/><text class="cls-30" transform="matrix(0.78, -0.17, 0.07, 1, 426.82, 255.57)">$</text><polygon class="cls-18" points="295.67 148.2 295.67 248.45 452.18 249.69 452.18 106.42 295.67 148.2"/><polygon class="cls-18" points="195.24 175 195.24 247.65 276.42 248.29 276.42 153.33 195.24 175"/><polygon class="cls-18" points="471.43 101.28 471.43 249.84 611.19 250.94 611.19 63.97 471.43 101.28"/><polygon class="cls-13" points="619.29 68.36 619.29 249.84 611.19 250.94 611.19 63.97 619.29 68.36"/><polygon class="cls-13" points="460.27 110.25 460.27 248.45 452.18 249.69 452.18 106.42 460.27 110.25"/><polygon class="cls-13" points="283.4 156.59 283.4 247.65 276.42 248.29 276.42 153.33 283.4 156.59"/><polygon class="cls-3" points="490.39 116.31 490.39 230.72 592.78 226.51 592.78 89.54 490.39 116.31"/><polygon class="cls-3" points="312.85 155.49 312.85 236.89 435.57 235.07 435.57 122.73 312.85 155.49"/><polygon class="cls-3" points="204.75 182.62 204.75 237.77 266.38 238.26 266.38 166.17 204.75 182.62"/><polygon class="cls-12" points="551.73 172.95 527.3 178.35 523.75 127.22 548.19 121.82 551.73 172.95"/><ellipse class="cls-31" cx="537.85" cy="149.5" rx="12.38" ry="9.44" transform="translate(307.94 658.2) rotate(-81.21)"/><text class="cls-32" transform="matrix(-0.09, -1.25, 0.98, -0.22, 541.37, 152.38)">$</text><path class="cls-31" d="M544.41,174.6c-.36-5.18,2.63-10.1,6.68-11l.64,9.34Z"/><path class="cls-31" d="M526.62,169c4-.9,7.62,2.58,8,7.76l-7.3,1.6Z"/><path class="cls-31" d="M531.07,125.56c.36,5.18-2.63,10.11-6.68,11l-.63-9.35Z"/><path class="cls-31" d="M548.86,131.18c-4,.89-7.62-2.58-8-7.76l7.3-1.6Z"/><polygon class="cls-12" points="560.43 208 536 213.4 532.46 162.27 556.89 156.87 560.43 208"/><ellipse class="cls-31" cx="546.55" cy="184.55" rx="12.38" ry="9.44" transform="matrix(0.15, -0.99, 0.99, 0.15, 280.68, 696.49)"/><text class="cls-32" transform="matrix(-0.09, -1.25, 0.98, -0.22, 550.07, 187.43)">$</text><path class="cls-31" d="M553.11,209.66c-.36-5.18,2.63-10.11,6.68-11l.64,9.34Z"/><path class="cls-31" d="M535.32,204c4-.9,7.62,2.58,8,7.76l-7.3,1.6Z"/><path class="cls-31" d="M539.77,160.61c.36,5.18-2.63,10.11-6.68,11l-.63-9.34Z"/><path class="cls-31" d="M557.57,166.23c-4.05.89-7.62-2.58-8-7.76l7.3-1.6Z"/><polygon class="cls-12" points="552.88 179.85 531.89 165.74 552.62 119.26 573.62 133.37 552.88 179.85"/><ellipse class="cls-31" cx="553.1" cy="149.14" rx="12.38" ry="9.44" transform="translate(321.22 672.96) rotate(-81.21)"/><text class="cls-33" transform="matrix(0.5, -1.12, 0.83, 0.56, 554.46, 154.33)">$</text><path class="cls-31" d="M546.58,175.66c2.1-4.71,6.62-6.63,10.1-4.3l-3.8,8.49Z"/><path class="cls-31" d="M535.66,157.21c3.48,2.34,4.59,8,2.49,12.76l-6.26-4.23Z"/><path class="cls-31" d="M558.93,123.46c-2.11,4.71-6.63,6.63-10.11,4.29l3.8-8.49Z"/><path class="cls-31" d="M569.84,141.9c-3.48-2.33-4.59-8.05-2.49-12.75l6.27,4.22Z"/><polygon class="cls-12" points="544.65 161.57 527.11 185.55 499.08 151.56 516.62 127.58 544.65 161.57"/><ellipse class="cls-31" cx="521.66" cy="156.06" rx="12.38" ry="9.44" transform="translate(287.75 647.76) rotate(-81.21)"/><text class="cls-34" transform="matrix(-0.58, -0.7, 0.59, -0.81, 525.99, 155.24)">$</text><path class="cls-31" d="M539.42,168.78c-2.84-3.44-2.79-9.45.12-13.43l5.11,6.22Z"/><path class="cls-31" d="M522,179.35c2.91-4,7.57-4.4,10.41-1l-5.25,7.16Z"/><path class="cls-31" d="M504.31,144.35c2.84,3.44,2.79,9.45-.12,13.43l-5.11-6.22Z"/><path class="cls-31" d="M521.77,133.78c-2.9,4-7.56,4.4-10.4,1l5.25-7.16Z"/><polygon class="cls-12" points="523.36 162.13 547.09 167.56 536.99 218.69 513.25 213.25 523.36 162.13"/><ellipse class="cls-31" cx="529.93" cy="190.93" rx="12.38" ry="9.44" transform="translate(260.29 685.47) rotate(-81.21)"/><text class="cls-35" transform="matrix(-0.25, 1.28, -0.97, -0.22, 527.49, 186.62)">$</text><path class="cls-31" d="M530.48,163.72c-1,5.18-5.05,8.65-9,7.75l1.86-9.34Z"/><path class="cls-31" d="M545.27,176.94c-3.93-.9-6.29-5.83-5.27-11l7.09,1.63Z"/><path class="cls-31" d="M529.87,217.1c1-5.18,5-8.65,9-7.75L537,218.69Z"/><path class="cls-31" d="M515.08,203.88c3.93.9,6.29,5.83,5.27,11l-7.09-1.64Z"/><polygon class="cls-12" points="574.11 195.69 553.61 215.24 531.6 174.35 552.1 154.81 574.11 195.69"/><ellipse class="cls-31" cx="552.74" cy="184.47" rx="12.38" ry="9.44" transform="translate(286 702.54) rotate(-81.21)"/><text class="cls-36" transform="matrix(-0.48, -0.88, 0.72, -0.69, 557.06, 184.75)">$</text><path class="cls-31" d="M568,201.58a11.76,11.76,0,0,1,2.12-13.36l4,7.47Z"/><path class="cls-31" d="M549.55,207.77c3.4-3.24,8-2.51,10.19,1.64l-6.13,5.83Z"/><path class="cls-31" d="M537.72,168.47a11.76,11.76,0,0,1-2.11,13.36l-4-7.47Z"/><path class="cls-31" d="M556.16,162.28c-3.4,3.24-8,2.5-10.19-1.64l6.13-5.83Z"/><polygon class="cls-12" points="576.15 151.24 577.51 182.67 537.47 189.8 536.11 158.37 576.15 151.24"/><ellipse class="cls-31" cx="556.37" cy="170.41" rx="12.38" ry="9.44" transform="translate(302.97 694.22) rotate(-81.21)"/><text class="cls-37" transform="matrix(-0.78, 0.14, -0.04, -1, 559.01, 165.73)">$</text><path class="cls-31" d="M576.59,160.65c-4.06.72-7.53-2.91-7.75-8.12l7.32-1.29Z"/><path class="cls-31" d="M570.18,184c-.23-5.21,2.88-10,6.94-10.74l.39,9.4Z"/><path class="cls-31" d="M537,180.39c4.06-.72,7.53,2.91,7.75,8.12l-7.31,1.29Z"/><path class="cls-31" d="M543.44,157c.23,5.2-2.88,10-6.94,10.73l-.39-9.39Z"/><polygon class="cls-12" points="506.08 196.8 502.54 165.88 542.23 154.19 545.77 185.1 506.08 196.8"/><ellipse class="cls-31" cx="524.61" cy="175.55" rx="12.38" ry="9.44" transform="matrix(0.15, -0.99, 0.99, 0.15, 270.98, 667.18)"/><text class="cls-38" transform="matrix(0.78, -0.23, 0.11, 0.99, 522.28, 180.51)">$</text><path class="cls-31" d="M505,187.54c4-1.18,7.76,2,8.35,7.13l-7.26,2.13Z"/><path class="cls-31" d="M509.81,163.7c.59,5.13-2.2,10.24-6.22,11.42l-1-9.24Z"/><path class="cls-31" d="M543.32,163.44c-4,1.18-7.76-2-8.34-7.13l7.25-2.13Z"/><path class="cls-31" d="M538.5,187.28c-.58-5.12,2.2-10.24,6.22-11.42l1,9.24Z"/><ellipse class="cls-5" cx="540.51" cy="168.69" rx="24.2" ry="18.46" transform="translate(291.23 677.09) rotate(-81.21)"/><text class="cls-39" transform="matrix(0.78, -0.17, 0.07, 1, 535.54, 178.05)">$</text><polygon class="cls-12" points="378.97 210.95 357.93 197.11 381.99 155.87 403.03 169.71 378.97 210.95"/><ellipse class="cls-31" cx="380.86" cy="183.05" rx="11.38" ry="9.73" transform="translate(69.91 469.18) rotate(-68.29)"/><text class="cls-40" transform="matrix(0.58, -1, 0.84, 0.55, 381.99, 187.82)">$</text><path class="cls-18" d="M372.65,206.84c2.44-4.18,7.24-5.71,10.73-3.42L379,211Z"/><path class="cls-18" d="M362.31,189.54c3.49,2.29,4.34,7.54,1.9,11.71l-6.28-4.14Z"/><path class="cls-31" d="M388.31,160c-2.43,4.18-7.24,5.71-10.72,3.42l4.4-7.53Z"/><path class="cls-31" d="M398.65,177.29c-3.49-2.3-4.34-7.55-1.9-11.72l6.28,4.14Z"/><polygon class="cls-12" points="383.09 186.69 363.57 207.64 336.29 175.37 355.81 154.43 383.09 186.69"/><ellipse class="cls-31" cx="359.51" cy="180.56" rx="11.38" ry="9.73" transform="translate(58.76 447.77) rotate(-68.29)"/><text class="cls-41" transform="matrix(-0.58, -0.69, 0.68, -0.73, 364.07, 180.08)">$</text><path class="cls-3" d="M377.26,193c-2.77-3.27-2.38-8.73.85-12.2l5,5.9Z"/><path class="cls-3" d="M358.55,201.75c3.23-3.47,8.09-3.63,10.86-.36l-5.84,6.25Z"/><path class="cls-31" d="M342.12,169.07c2.76,3.27,2.38,8.74-.85,12.21l-5-5.91Z"/><path class="cls-31" d="M360.83,160.32c-3.23,3.47-8.09,3.63-10.86.36l5.84-6.25Z"/><polygon class="cls-12" points="363.63 174.28 384.16 188.97 358.94 229.42 338.41 214.73 363.63 174.28"/><ellipse class="cls-31" cx="360.89" cy="202.2" rx="11.38" ry="9.73" transform="translate(39.53 462.69) rotate(-68.29)"/><text class="cls-42" transform="matrix(-0.61, 0.98, -0.81, -0.58, 359.95, 197.37)">$</text><path class="cls-18" d="M369.8,178.65c-2.56,4.1-7.38,5.45-10.79,3l4.62-7.38Z"/><path class="cls-18" d="M379.56,196.4c-3.4-2.43-4.08-7.73-1.53-11.83l6.13,4.4Z"/><path class="cls-31" d="M352.77,225.05c2.56-4.1,7.39-5.45,10.79-3l-4.62,7.38Z"/><path class="cls-31" d="M343,207.3c3.4,2.43,4.09,7.73,1.53,11.83l-6.13-4.4Z"/><polygon class="cls-12" points="398.43 208.12 376.07 224.89 355.43 186.65 377.79 169.89 398.43 208.12"/><ellipse class="cls-18" cx="376.84" cy="196.87" rx="11.38" ry="9.73" transform="translate(54.52 474.15) rotate(-68.29)"/><text class="cls-43" transform="matrix(-0.45, -0.84, 0.8, -0.6, 381.25, 197.33)">$</text><path class="cls-31" d="M391.75,213.17c-2.1-3.87-.79-9.27,2.92-12l3.76,7Z"/><path class="cls-31" d="M372.26,217.9c3.71-2.78,8.4-1.89,10.5,2l-6.69,5Z"/><path class="cls-18" d="M362.11,181.6c2.09,3.87.79,9.27-2.92,12.05l-3.76-7Z"/><path class="cls-18" d="M381.59,176.87c-3.7,2.78-8.4,1.89-10.49-2l6.69-5Z"/><ellipse class="cls-5" cx="369.71" cy="190.18" rx="22.25" ry="19.01" transform="translate(56.25 463.31) rotate(-68.29)"/><text class="cls-44" transform="matrix(0.9, -0.13, 0.02, 1, 363.99, 198.45)">$</text><ellipse class="cls-5" cx="247.64" cy="210.56" rx="12.96" ry="11" transform="translate(28.6 450.73) rotate(-88.01)"/><text class="cls-45" transform="matrix(0.84, -0.19, 0.16, 0.99, 245.1, 215.7)">$</text><ellipse class="cls-5" cx="224.34" cy="213.79" rx="12.96" ry="11" transform="translate(2.87 430.57) rotate(-88.01)"/><text class="cls-45" transform="matrix(0.84, -0.19, 0.16, 0.99, 221.79, 218.94)">$</text><ellipse class="cls-46" cx="235.94" cy="200.7" rx="12.96" ry="11" transform="translate(27.15 429.52) rotate(-88.01)"/><text class="cls-45" transform="matrix(0.84, -0.19, 0.16, 0.99, 233.39, 205.85)">$</text><path class="cls-47" d="M283.48,308.84l4.84,39.05s5.95,67,4.09,106.76l6.7-3,13-70.31-4.47-64.72Z"/><path class="cls-4" d="M323.66,320s7.44,48.36,3.72,82.59-4.84,68.07-4.84,68.07L315.1,474l-2.6-70.68s-10.42-42-10.79-56.54,2.61-40.55,2.61-40.55Z"/><path class="cls-48" d="M384.1,247.56s3.7-6.62,3.09-7.56-1.28.34-1.28.34-4.47,7-5.42,8.25a25.41,25.41,0,0,0-2.22,4.88c-.15.19-.3.4-.46.63-4.45,6.52-21.37,31.61-21.37,31.61s0,10.39,6.55,9.92c0,0,14.73-24.51,19.76-36a21.67,21.67,0,0,0,2.48-2.9c1.09-1.12,2.17-4.29,2.82-5.45C388.83,249.88,384.1,247.56,384.1,247.56Z"/><path class="cls-49" d="M340.46,263.42s23.35,20.76,24.22,28.55-11.25,2.59-16.87-1.73-22.49-17.74-22.49-17.74Z"/><path class="cls-47" d="M293.16,334.5s5.95,4.84,11.53,3.35,19-17.86,19-17.86l-19.72-5.2Z"/><path class="cls-6" d="M304.32,231.83a20.6,20.6,0,0,0,7.44,0c4.09-.74,33.1,34.23,33.1,34.23l-8.92,15.25-10.42-.37L323.66,320s-8.93,11.91-22,5.58-18.23-12.27-18.23-12.27l-2.23-42.41,6.7-33.48Z"/><path class="cls-49" d="M308.41,199.1s17.85,14.13,3.35,26.78v6s-10.42,1.86-12.28-1.86-.74-23.06-.74-23.06Z"/><path class="cls-5" d="M312.5,202.82s8.56-14.14-6.32-16.74-27.9,7.44-28.28,17.85,2.24,15.63-4.46,24.18-14.88,51.34,8.56,57.66c0,0,18.22,3.72,18.22-27.9a42.87,42.87,0,0,1,5.21-15.25c4.47-7.81-.37-17.85-.37-17.85S306.92,207.65,312.5,202.82Z"/><path class="cls-5" d="M315.1,474l7.44-3.35s10.23-2.79,13.58-1.67-11,7.25-13.95,8.37a19.14,19.14,0,0,1-5.95,1.11Z"/><path class="cls-5" d="M292.41,454.65l6.7-3s11.53-1.12,12.27,1.86-14.5,5.39-19,5.76Z"/><polygon class="cls-6" points="165.18 303.53 184.26 295.38 200.52 300.35 184.26 309.73 165.18 303.53"/><polygon class="cls-50" points="200.52 300.35 184.26 309.73 184.26 330.99 200.52 321.3 200.52 300.35"/><polygon class="cls-51" points="184.26 309.73 165.18 303.53 165.18 324.11 184.26 330.99 184.26 309.73"/><path class="cls-52" d="M180.18,302.8s1.1-40.09-27.92-87.71"/><path class="cls-52" d="M163.72,165.25c1.56,1.11,19.57,73.2,19.26,137.89"/><path class="cls-52" d="M208.8,218.81s-28.43,34.58-23.33,84.63"/><polyline class="cls-52" points="157.66 216.95 156.62 222.59 151.15 221.79"/><polyline class="cls-52" points="160.82 216.95 158.61 226.25 151.15 226.25"/><polyline class="cls-52" points="164.91 215.09 161.06 230.97 151.15 230.97"/><polyline class="cls-52" points="169.37 223.03 163.69 236.34 153.19 236.34"/><polyline class="cls-52" points="168.63 162.27 165.06 168.96 160.82 167.29"/><polyline class="cls-52" points="171.79 163.76 166.59 174.59 160.07 172.69"/><polyline class="cls-52" points="173.03 169.18 167.87 179.8 160.82 177.9"/><polyline class="cls-52" points="175.14 177.9 169.36 186.35 163.72 184.59"/><polyline class="cls-52" points="176.07 185.52 170.35 190.94 163.05 190.2"/><polyline class="cls-52" points="202.93 217.29 204.1 225.99 210.32 223.47"/><polyline class="cls-52" points="198.28 222.39 201.33 231.11 208.38 230.69"/><polyline class="cls-52" points="192.98 224.92 197.91 237.51 210.33 237.77"/><polyline class="cls-52" points="190.08 232.13 194.81 243.39 204.81 243.98"/><polygon class="cls-13" points="163.44 345.65 167.86 362.85 164.79 363.88 163.44 345.65"/><polyline class="cls-18" points="158.98 360.9 163.44 345.65 164.56 363.88"/><polyline class="cls-53" points="158.98 360.9 163.44 345.65 164.56 363.88"/><polygon class="cls-1" points="164.79 363.88 176.62 369.21 167.86 362.85 164.79 363.88"/><polygon class="cls-13" points="526.81 347.12 531.22 364.33 528.15 365.35 526.81 347.12"/><polyline class="cls-18" points="522.34 362.38 526.81 347.12 527.92 365.35"/><polyline class="cls-53" points="522.34 362.38 526.81 347.12 527.92 365.35"/><polygon class="cls-13" points="534.48 350.75 538.9 367.95 535.83 368.98 534.48 350.75"/><polyline class="cls-18" points="530.01 366 534.48 350.75 535.6 368.98"/><polyline class="cls-53" points="530.01 366 534.48 350.75 535.6 368.98"/><polygon class="cls-13" points="520.08 352.47 523.67 366.43 521.18 367.26 520.08 352.47"/><polyline class="cls-18" points="516.46 364.85 520.08 352.47 520.99 367.26"/><polyline class="cls-53" points="516.46 364.85 520.08 352.47 520.99 367.26"/><polygon class="cls-1" points="535.83 368.98 547.66 374.31 538.9 367.95 535.83 368.98"/><polygon class="cls-1" points="520.33 367.36 532.16 372.69 523.4 366.34 520.33 367.36"/><polygon class="cls-13" points="616.43 371.33 620.85 388.54 617.78 389.56 616.43 371.33"/><polyline class="cls-18" points="611.97 386.59 616.43 371.33 617.55 389.56"/><polyline class="cls-53" points="611.97 386.59 616.43 371.33 617.55 389.56"/><polygon class="cls-1" points="617.78 389.56 629.61 394.89 620.85 388.54 617.78 389.56"/><polygon class="cls-13" points="532.88 416.33 537.29 433.53 534.22 434.56 532.88 416.33"/><polyline class="cls-18" points="528.41 431.58 532.88 416.33 533.99 434.56"/><polyline class="cls-53" points="528.41 431.58 532.88 416.33 533.99 434.56"/><polygon class="cls-13" points="540.55 419.96 544.97 437.16 541.9 438.18 540.55 419.96"/><polyline class="cls-18" points="536.08 435.21 540.55 419.96 541.66 438.18"/><polyline class="cls-53" points="536.08 435.21 540.55 419.96 541.66 438.18"/><polygon class="cls-13" points="526.15 421.67 529.74 435.64 527.25 436.47 526.15 421.67"/><polyline class="cls-18" points="522.53 434.05 526.15 421.67 527.06 436.47"/><polyline class="cls-53" points="522.53 434.05 526.15 421.67 527.06 436.47"/><polygon class="cls-1" points="541.9 438.18 553.73 443.52 544.97 437.16 541.9 438.18"/><polygon class="cls-1" points="526.4 436.57 538.23 441.9 529.47 435.55 526.4 436.57"/><polygon class="cls-13" points="237.36 278.43 241.78 295.63 238.71 296.66 237.36 278.43"/><polyline class="cls-18" points="232.9 293.68 237.36 278.43 238.48 296.66"/><polyline class="cls-53" points="232.9 293.68 237.36 278.43 238.48 296.66"/><polygon class="cls-1" points="238.71 296.66 250.54 301.99 241.78 295.63 238.71 296.66"/><polygon class="cls-13" points="427.1 433.68 434.96 464.27 429.5 466.08 427.1 433.68"/><polyline class="cls-18" points="419.17 460.79 427.1 433.68 429.09 466.08"/><polyline class="cls-53" points="419.17 460.79 427.1 433.68 429.09 466.08"/><polygon class="cls-13" points="440.74 440.13 448.6 470.71 443.14 472.53 440.74 440.13"/><polyline class="cls-18" points="432.81 467.24 440.74 440.13 442.73 472.53"/><polyline class="cls-53" points="432.81 467.24 440.74 440.13 442.73 472.53"/><polygon class="cls-13" points="415.15 443.18 421.52 468 417.09 469.48 415.15 443.18"/><polyline class="cls-18" points="408.71 465.19 415.15 443.18 416.76 469.48"/><polyline class="cls-53" points="408.71 465.19 415.15 443.18 416.76 469.48"/><polygon class="cls-1" points="443.14 472.53 464.18 482.01 448.6 470.71 443.14 472.53"/><polygon class="cls-1" points="415.59 469.66 436.63 479.14 421.05 467.84 415.59 469.66"/><polygon class="cls-1" points="496.26 320.18 556.52 334.13 567.13 333.01 505.75 319.06 496.26 320.18"/><path class="cls-54" d="M410.51,152.6l-13.24,2.56a3,3,0,0,1-3.58-3l-1.31-30.95a4.27,4.27,0,0,1,3.27-4.32l13.24-2.55a3,3,0,0,1,3.58,3l1.31,30.95A4.28,4.28,0,0,1,410.51,152.6Z"/><path class="cls-55" d="M410.63,116.71S434,105.25,427.26,73.77c0,0,11.89-9.62,14.51,9.54,0,0,1.56,11.27.45,19.2,0,0,10-2.71,9.22,4,0,0,1.27,4.38-4,7.34,0,0,4.37.69,4.17,4.59s-4.06,6.57-4.06,6.57,4.7-.14,4.53,4.52a6.93,6.93,0,0,1-4.08,6.19s5.42-.28,4.57,5.29-7.31,6.81-7.31,6.81-18,3.08-24.52,1.65-10.85.17-10.85.17l-4.69-16.83Z"/><path class="cls-55" d="M436,71.87l-8.09-2.74-1.05,5.92,2.2,3.83s6.24,2.41,6.24,1.76S436,71.87,436,71.87Z"/><path class="cls-55" d="M449.86,102.75s-4.1-2.13-8.28-4.37-2.14,4.93-2.14,4.93l4.19,3.81s5.2.1,5.48-.83S449.86,102.75,449.86,102.75Z"/><polygon class="cls-55" points="409.86 149.64 402.38 146.09 412.43 140.93 413.82 144.28 409.86 149.64"/><polygon class="cls-54" points="396.24 155.16 388.15 152.65 392.48 145.11 397.92 145.11 396.24 155.16"/><polygon class="cls-54" points="403.08 112.05 407.4 113.59 406.85 117.63 401.68 117.35 403.08 112.05"/><path class="cls-6" d="M403.38,114.29S426.77,102.83,420,71.35c0,0,11.89-9.62,14.52,9.54,0,0,1.56,11.27.45,19.2,0,0,10-2.71,9.21,4,0,0,1.27,4.38-4,7.34,0,0,4.37.7,4.18,4.59s-4.06,6.57-4.06,6.57,4.69-.14,4.53,4.52a7,7,0,0,1-4.08,6.19s5.41-.27,4.57,5.29S438,145.4,438,145.4s-18,3.09-24.53,1.66-10.84.16-10.84.16l-4.7-16.83Z"/><path class="cls-5" d="M403.26,150.18,390,152.74a3,3,0,0,1-3.58-3l-1.32-30.95a4.27,4.27,0,0,1,3.27-4.31l13.25-2.56a3,3,0,0,1,3.57,3l1.32,31A4.27,4.27,0,0,1,403.26,150.18Z"/></svg>