<?xml version="1.0" encoding="UTF-8" standalone="no"?>
<!-- Created with Inkscape (http://www.inkscape.org/) -->

<svg
   xmlns:dc="http://purl.org/dc/elements/1.1/"
   xmlns:cc="http://creativecommons.org/ns#"
   xmlns:rdf="http://www.w3.org/1999/02/22-rdf-syntax-ns#"
   xmlns:svg="http://www.w3.org/2000/svg"
   xmlns="http://www.w3.org/2000/svg"
   xmlns:sodipodi="http://sodipodi.sourceforge.net/DTD/sodipodi-0.dtd"
   xmlns:inkscape="http://www.inkscape.org/namespaces/inkscape"
   width="900"
   height="900"
   viewBox="0 0 238.12499 238.12501"
   version="1.1"
   id="svg937"
   inkscape:version="0.92.3 (2405546, 2018-03-11)"
   sodipodi:docname="favicon.svg"
   inkscape:export-filename="/home/abderrahim/Desktop/favicon.png"
   inkscape:export-xdpi="17.066668"
   inkscape:export-ydpi="17.066668">
  <defs
     id="defs931" />
  <sodipodi:namedview
     id="base"
     pagecolor="#ffffff"
     bordercolor="#666666"
     borderopacity="1.0"
     inkscape:pageopacity="0.0"
     inkscape:pageshadow="2"
     inkscape:zoom="0.35"
     inkscape:cx="-232.85714"
     inkscape:cy="445.71429"
     inkscape:document-units="px"
     inkscape:current-layer="g74"
     showgrid="false"
     units="px"
     inkscape:window-width="1366"
     inkscape:window-height="692"
     inkscape:window-x="0"
     inkscape:window-y="0"
     inkscape:window-maximized="1" />
  <metadata
     id="metadata934">
    <rdf:RDF>
      <cc:Work
         rdf:about="">
        <dc:format>image/svg+xml</dc:format>
        <dc:type
           rdf:resource="http://purl.org/dc/dcmitype/StillImage" />
        <dc:title />
      </cc:Work>
    </rdf:RDF>
  </metadata>
  <g
     inkscape:label="Layer 1"
     inkscape:groupmode="layer"
     id="layer1"
     transform="translate(0,-58.874983)">
    <g
       id="g74"
       transform="matrix(2.6532388,0,0,2.6532388,-137.50166,-169.89608)">
      <path
         sodipodi:nodetypes="cccsccccsscccccccsccccccsccc"
         inkscape:connector-curvature="0"
         style="fill:#e91e63;fill-opacity:1;stroke-width:1.00000012"
         d="m -164.46094,164.05078 c -4.72005,0.26906 -19.42758,9.1778 -18.11914,11.29492 0.51576,0.83449 25.47568,17.95762 45.94141,31.51758 8.99297,5.95843 8.74802,7.45807 -2.33008,14.28125 -32.13377,19.79172 -32.96978,20.19366 -38.39453,18.4668 -7.11995,-2.26651 -10.53554,-1.77833 -17.45117,2.49023 -5.506,3.39852 -6.12288,4.06774 -4.57813,4.95899 10.88505,6.2801 18.43228,17.24821 18.45117,26.8125 0.0139,6.74619 1.17735,7.71526 6.17188,5.14257 6.10057,-3.14241 9.8418,-6.55508 9.8418,-8.97851 0,-3.29889 1.78412,-7.57357 4.26757,-10.22461 1.92715,-2.05716 5.70965,-4.28338 23.82618,-14.02148 3.07661,-1.65377 8.12248,-4.43364 11.21289,-6.17774 5.80796,-3.27783 9.4286,-3.62142 10.75,-1.02148 0.41926,0.82503 1.2776,9.82502 1.90625,20 1.82048,29.46591 2.81722,41.83434 3.45312,42.86328 0.86835,1.405 16.544214,-6.93206 18.457032,-9.81641 1.392378,-2.0996 1.698998,-7.21636 2.126954,-35.5 0.488315,-32.27452 0.551826,-33.12145 2.75,-36.20312 2.059918,-2.8879 5.556997,-5.36446 15.308593,-10.84375 16.436485,-9.23547 19.468088,-12.17399 19.296875,-18.70313 -0.193322,-7.37329 -6.841076,-12.68042 -14.164062,-11.30664 -3.520706,0.66051 -17.979925,8.32457 -26.101563,13.83399 -5.406916,3.66784 -10.898099,4.03247 -16.589839,1.10156 -2.19999,-1.13288 -11.48799,-6.36905 -20.63868,-11.63477 -17.89825,-10.29944 -31.01693,-17.22637 -34.59179,-18.26562 -0.21819,-0.0634 -0.48807,-0.0844 -0.80274,-0.0664 z"
         id="path25"
         transform="matrix(0.26458333,0,0,0.26458333,152.70238,56.318452)" />
      <path
         sodipodi:nodetypes="ccccccssccssssccccscccccscccsccccsccsccsccsscscccccssccssccccsscscccscccscccccccsccc"
         inkscape:connector-curvature="0"
         style="fill:#0064fe;stroke-width:1.00000012;fill-opacity:1"
         d="m -223.86328,113.98242 c -5.78018,0.20648 -11.26735,2.71656 -16.02539,7.47461 -4.70324,4.70324 -5.16685,5.78758 -7.57617,17.72656 -0.63564,3.14976 -4.62133,6.65149 -13.2168,11.61133 -4.26067,2.45852 -21.10972,12.19318 -37.44141,21.63281 -31.84438,18.40593 -32.41173,18.62525 -40.80468,15.66407 -2.33831,-0.82504 -6.80225,-1.5 -9.91993,-1.5 -11.45669,0 -21.54383,9.4035 -22.76367,21.22265 -0.85419,8.2763 1.68562,14.80562 8.42383,21.65235 3.01205,3.06058 5.87687,6.6205 6.36719,7.91015 0.49033,1.28965 0.89258,21.67871 0.89258,45.31055 0,47.93926 0.1741,46.60338 -6.96875,53.4043 -6.41417,6.10711 -8.47266,10.7226 -8.47266,19 0,7.77214 2.0651,12.91704 7.09961,17.69531 6.37592,6.0514 16.95884,7.75758 27.13867,4.37305 2.91395,-0.96892 6.36777,-1.4937 7.67383,-1.16602 2.32011,0.58231 63.92074,35.58881 74.23047,42.18359 5.56369,3.55888 7.604,6.56181 8.75,12.87891 1.72957,9.53397 7.96073,16.5185 17.54101,19.66016 3.96576,1.30049 13.28672,0.28319 17.58008,-1.91797 7.00103,-3.58927 10.9487,-9.20351 12.50586,-17.78516 0.59101,-3.25731 1.68556,-6.87303 2.43164,-8.03515 1.47568,-2.29845 77.39915,-46.45693 81.08789,-47.16211 1.24109,-0.23724 4.99209,0.51537 8.33399,1.67187 7.213073,2.49623 11.305745,2.63646 17.123043,0.58399 6.289399,-2.21904 10.639902,-5.94712 13.478516,-11.54883 5.45057,-10.7562 4.190626,-20.39167 -3.669922,-28.0586 -7.936819,-7.74138 -8.857549,-9.93216 -8.861328,-21.12304 -0.0023,-6.01111 -0.397159,-9.75 -1.03125,-9.75 -2.385373,0 -13.058369,6.20245 -14.525389,8.4414 -0.87704,1.33852 -1.72855,4.85282 -1.89258,7.8086 -0.41318,7.43486 -1.29473,9.64609 -4.12109,10.35547 -3.8109,0.95648 -5.87907,0.0759 -23.05079,-9.81836 -8.86491,-5.10788 -27.85548,-16.03712 -42.20117,-24.28711 -14.34569,-8.24999 -26.32597,-15.59059 -26.62304,-16.31055 -0.29708,-0.71992 0.98181,-2.74494 2.84179,-4.5 6.04884,-5.70758 7.16555,-10.39421 3.42578,-14.375 -2.62915,-2.79859 -7.73251,-3.07416 -11.85546,-0.63867 -2.35162,1.38916 -3.10736,1.45528 -4.4043,0.3789 -1.38163,-1.14667 -1.56445,-7.03566 -1.56445,-50.11328 0,-29.45472 0.3872,-49.8334 0.97851,-51.38867 0.53896,-1.41757 2.17356,-3.12116 3.63086,-3.78515 2.31358,-1.05415 3.26639,-0.86291 7.51953,1.51171 2.67901,1.49575 6.303,2.72071 8.05274,2.72071 3.50849,0 15.97878,-6.85158 15.4707,-8.5 -0.16951,-0.55 -3.59546,-2.87212 -7.61328,-5.16016 -9.87126,-5.62142 -10.99155,-6.94749 -12.66992,-14.96484 -1.83215,-8.75179 -5.04756,-13.58104 -11.49219,-17.26172 -4.64342,-2.65196 -9.31681,-3.88326 -13.8125,-3.72266 z m -13.66797,45.16211 c 0.70221,-0.003 1.29363,0.13919 1.89844,0.36914 4.61618,1.75506 4.74701,3.4051 4.46679,56.07813 -0.25882,48.64951 -0.29608,49.50326 -2.26171,49.75195 -2.18789,0.27681 -82.81599,-45.82145 -86.97071,-49.72461 -3.16081,-2.96942 -3.27613,-7.00185 -0.27929,-9.72266 1.23749,-1.12354 10.79999,-6.9707 21.25,-12.99414 10.44999,-6.02343 26.90722,-15.52116 36.57226,-21.10742 17.17074,-9.92446 22.28131,-12.63942 25.32422,-12.65039 z m -96.14258,72.25586 c 5.26862,0.0627 20.29629,8.79451 82.74219,44.88281 4.67288,2.70051 8.62025,5.56243 8.77344,6.35938 0.28305,1.47254 -10.22388,7.82741 -62.22852,37.64062 -15.325,8.78551 -26.0077,14.3086 -27.67773,14.3086 -1.74711,0 -3.45963,-0.94215 -4.79102,-2.63477 -2.02968,-2.58024 -2.07226,-3.60471 -2.07226,-49.39062 0,-43.94748 0.11029,-46.89053 1.84375,-49.03125 0.98261,-1.21348 1.65395,-2.15566 3.41015,-2.13477 z m 99.99414,68.4043 c 2.70289,0.26573 2.75196,8.75314 2.75196,51.41211 0,47.55957 -0.31064,52.67915 -3.3125,54.58789 -2.6761,1.70162 -7.51352,0.55993 -14.1875,-3.34961 -3.85001,-2.25528 -21.40001,-12.39578 -39,-22.53516 -17.60001,-10.13934 -32.78751,-19.36063 -33.75,-20.49219 -2.83778,-3.33626 -2.24224,-7.36825 1.5,-10.15429 2.67275,-1.98981 75.54637,-44.36961 83.66992,-48.65821 0.93841,-0.49541 1.70438,-0.87186 2.32812,-0.81054 z m 21.21289,0.16211 c 1.68088,-0.64502 86.09487,47.65251 88.78907,50.80078 2.44153,2.85297 2.17978,6.52263 -0.64844,9.12109 -1.31834,1.21123 -6.83084,4.74841 -12.25,7.85938 -5.4192,3.11093 -22.84704,13.12346 -38.73047,22.25 -30.79811,17.69646 -33.8945,18.89681 -37.06445,14.37109 -2.27985,-3.25489 -2.37176,-103.52893 -0.0957,-104.40234 z"
         id="path23"
         transform="matrix(0.26458333,0,0,0.26458333,152.70238,56.318452)" />
    </g>
  </g>
</svg>
