<?xml version="1.0" encoding="UTF-8" standalone="no"?>
<svg
   xmlns:dc="http://purl.org/dc/elements/1.1/"
   xmlns:cc="http://creativecommons.org/ns#"
   xmlns:rdf="http://www.w3.org/1999/02/22-rdf-syntax-ns#"
   xmlns:svg="http://www.w3.org/2000/svg"
   xmlns="http://www.w3.org/2000/svg"
   xmlns:sodipodi="http://sodipodi.sourceforge.net/DTD/sodipodi-0.dtd"
   xmlns:inkscape="http://www.inkscape.org/namespaces/inkscape"
   id="svg8"
   version="1.1"
   viewBox="0 0 349.24999 79.375002"
   height="300"
   width="1320"
   sodipodi:docname="logo_light_old.svg"
   inkscape:version="0.92.3 (2405546, 2018-03-11)">
  <sodipodi:namedview
     pagecolor="#ffffff"
     bordercolor="#666666"
     borderopacity="1"
     objecttolerance="10"
     gridtolerance="10"
     guidetolerance="10"
     inkscape:pageopacity="0"
     inkscape:pageshadow="2"
     inkscape:window-width="1366"
     inkscape:window-height="685"
     id="namedview21"
     showgrid="false"
     inkscape:zoom="0.44090909"
     inkscape:cx="35.829483"
     inkscape:cy="-97.988224"
     inkscape:window-x="0"
     inkscape:window-y="0"
     inkscape:window-maximized="1"
     inkscape:current-layer="g898" />
  <defs
     id="defs2" />
  <metadata
     id="metadata5">
    <rdf:RDF>
      <cc:Work
         rdf:about="">
        <dc:format>image/svg+xml</dc:format>
        <dc:type
           rdf:resource="http://purl.org/dc/dcmitype/StillImage" />
        <dc:title />
      </cc:Work>
    </rdf:RDF>
  </metadata>
  <g
     transform="translate(0,-217.62498)"
     id="layer1">
    <g
       transform="matrix(0.63691131,0,0,0.63691131,63.065805,197.59536)"
       id="g47">
      <g
         id="g21"
         transform="translate(-99.407737,-49.514881)">
        <g
           id="g41"
           transform="translate(-33.639881,0.37797619)">
          <g
             id="g70">
            <g
               transform="translate(5.2418177)"
               id="g895">
              <g
                 transform="translate(3.5718474)"
                 id="g909">
                <g
                   id="g993">
                  <g
                     id="g839"
                     transform="translate(-1.2243092)">
                    <g
                       id="g841"
                       transform="translate(-0.38260895)">
                      <g
                         id="g898"
                         transform="translate(9.8412636e-5)">
                        <g
                           transform="matrix(1.3730816,0,0,1.3730816,-45.822859,-37.11047)"
                           id="g74">
                          <path
                             transform="matrix(0.26458333,0,0,0.26458333,152.70238,56.318452)"
                             id="path25"
                             d="m -164.46094,164.05078 c -4.72005,0.26906 -19.42758,9.1778 -18.11914,11.29492 0.51576,0.83449 25.47568,17.95762 45.94141,31.51758 8.99297,5.95843 8.74802,7.45807 -2.33008,14.28125 -32.13377,19.79172 -32.96978,20.19366 -38.39453,18.4668 -7.11995,-2.26651 -10.53554,-1.77833 -17.45117,2.49023 -5.506,3.39852 -6.12288,4.06774 -4.57813,4.95899 10.88505,6.2801 18.43228,17.24821 18.45117,26.8125 0.0139,6.74619 1.17735,7.71526 6.17188,5.14257 6.10057,-3.14241 9.8418,-6.55508 9.8418,-8.97851 0,-3.29889 1.78412,-7.57357 4.26757,-10.22461 1.92715,-2.05716 5.70965,-4.28338 23.82618,-14.02148 3.07661,-1.65377 8.12248,-4.43364 11.21289,-6.17774 5.80796,-3.27783 9.4286,-3.62142 10.75,-1.02148 0.41926,0.82503 1.2776,9.82502 1.90625,20 1.82048,29.46591 2.81722,41.83434 3.45312,42.86328 0.86835,1.405 16.544214,-6.93206 18.457032,-9.81641 1.392378,-2.0996 1.698998,-7.21636 2.126954,-35.5 0.488315,-32.27452 0.551826,-33.12145 2.75,-36.20312 2.059918,-2.8879 5.556997,-5.36446 15.308593,-10.84375 16.436485,-9.23547 19.468088,-12.17399 19.296875,-18.70313 -0.193322,-7.37329 -6.841076,-12.68042 -14.164062,-11.30664 -3.520706,0.66051 -17.979925,8.32457 -26.101563,13.83399 -5.406916,3.66784 -10.898099,4.03247 -16.589839,1.10156 -2.19999,-1.13288 -11.48799,-6.36905 -20.63868,-11.63477 -17.89825,-10.29944 -31.01693,-17.22637 -34.59179,-18.26562 -0.21819,-0.0634 -0.48807,-0.0844 -0.80274,-0.0664 z"
                             style="fill:#2684ff;fill-opacity:1;stroke-width:1.00000012"
                             inkscape:connector-curvature="0" />
                          <path
                             transform="matrix(0.26458333,0,0,0.26458333,152.70238,56.318452)"
                             id="path23"
                             d="m -223.86328,113.98242 c -5.78018,0.20648 -11.26735,2.71656 -16.02539,7.47461 -4.70324,4.70324 -5.16685,5.78758 -7.57617,17.72656 -0.63564,3.14976 -4.62133,6.65149 -13.2168,11.61133 -4.26067,2.45852 -21.10972,12.19318 -37.44141,21.63281 -31.84438,18.40593 -32.41173,18.62525 -40.80468,15.66407 -2.33831,-0.82504 -6.80225,-1.5 -9.91993,-1.5 -11.45669,0 -21.54383,9.4035 -22.76367,21.22265 -0.85419,8.2763 1.68562,14.80562 8.42383,21.65235 3.01205,3.06058 5.87687,6.6205 6.36719,7.91015 0.49033,1.28965 0.89258,21.67871 0.89258,45.31055 0,47.93926 0.1741,46.60338 -6.96875,53.4043 -6.41417,6.10711 -8.47266,10.7226 -8.47266,19 0,7.77214 2.0651,12.91704 7.09961,17.69531 6.37592,6.0514 16.95884,7.75758 27.13867,4.37305 2.91395,-0.96892 6.36777,-1.4937 7.67383,-1.16602 2.32011,0.58231 63.92074,35.58881 74.23047,42.18359 5.56369,3.55888 7.604,6.56181 8.75,12.87891 1.72957,9.53397 7.96073,16.5185 17.54101,19.66016 3.96576,1.30049 13.28672,0.28319 17.58008,-1.91797 7.00103,-3.58927 10.9487,-9.20351 12.50586,-17.78516 0.59101,-3.25731 1.68556,-6.87303 2.43164,-8.03515 1.47568,-2.29845 77.39915,-46.45693 81.08789,-47.16211 1.24109,-0.23724 4.99209,0.51537 8.33399,1.67187 7.213073,2.49623 11.305745,2.63646 17.123043,0.58399 6.289399,-2.21904 10.639902,-5.94712 13.478516,-11.54883 5.45057,-10.7562 4.190626,-20.39167 -3.669922,-28.0586 -7.936819,-7.74138 -8.857549,-9.93216 -8.861328,-21.12304 -0.0023,-6.01111 -0.397159,-9.75 -1.03125,-9.75 -2.385373,0 -13.058369,6.20245 -14.525389,8.4414 -0.87704,1.33852 -1.72855,4.85282 -1.89258,7.8086 -0.41318,7.43486 -1.29473,9.64609 -4.12109,10.35547 -3.8109,0.95648 -5.87907,0.0759 -23.05079,-9.81836 -8.86491,-5.10788 -27.85548,-16.03712 -42.20117,-24.28711 -14.34569,-8.24999 -26.32597,-15.59059 -26.62304,-16.31055 -0.29708,-0.71992 0.98181,-2.74494 2.84179,-4.5 6.04884,-5.70758 7.16555,-10.39421 3.42578,-14.375 -2.62915,-2.79859 -7.73251,-3.07416 -11.85546,-0.63867 -2.35162,1.38916 -3.10736,1.45528 -4.4043,0.3789 -1.38163,-1.14667 -1.56445,-7.03566 -1.56445,-50.11328 0,-29.45472 0.3872,-49.8334 0.97851,-51.38867 0.53896,-1.41757 2.17356,-3.12116 3.63086,-3.78515 2.31358,-1.05415 3.26639,-0.86291 7.51953,1.51171 2.67901,1.49575 6.303,2.72071 8.05274,2.72071 3.50849,0 15.97878,-6.85158 15.4707,-8.5 -0.16951,-0.55 -3.59546,-2.87212 -7.61328,-5.16016 -9.87126,-5.62142 -10.99155,-6.94749 -12.66992,-14.96484 -1.83215,-8.75179 -5.04756,-13.58104 -11.49219,-17.26172 -4.64342,-2.65196 -9.31681,-3.88326 -13.8125,-3.72266 z m -13.66797,45.16211 c 0.70221,-0.003 1.29363,0.13919 1.89844,0.36914 4.61618,1.75506 4.74701,3.4051 4.46679,56.07813 -0.25882,48.64951 -0.29608,49.50326 -2.26171,49.75195 -2.18789,0.27681 -82.81599,-45.82145 -86.97071,-49.72461 -3.16081,-2.96942 -3.27613,-7.00185 -0.27929,-9.72266 1.23749,-1.12354 10.79999,-6.9707 21.25,-12.99414 10.44999,-6.02343 26.90722,-15.52116 36.57226,-21.10742 17.17074,-9.92446 22.28131,-12.63942 25.32422,-12.65039 z m -96.14258,72.25586 c 5.26862,0.0627 20.29629,8.79451 82.74219,44.88281 4.67288,2.70051 8.62025,5.56243 8.77344,6.35938 0.28305,1.47254 -10.22388,7.82741 -62.22852,37.64062 -15.325,8.78551 -26.0077,14.3086 -27.67773,14.3086 -1.74711,0 -3.45963,-0.94215 -4.79102,-2.63477 -2.02968,-2.58024 -2.07226,-3.60471 -2.07226,-49.39062 0,-43.94748 0.11029,-46.89053 1.84375,-49.03125 0.98261,-1.21348 1.65395,-2.15566 3.41015,-2.13477 z m 99.99414,68.4043 c 2.70289,0.26573 2.75196,8.75314 2.75196,51.41211 0,47.55957 -0.31064,52.67915 -3.3125,54.58789 -2.6761,1.70162 -7.51352,0.55993 -14.1875,-3.34961 -3.85001,-2.25528 -21.40001,-12.39578 -39,-22.53516 -17.60001,-10.13934 -32.78751,-19.36063 -33.75,-20.49219 -2.83778,-3.33626 -2.24224,-7.36825 1.5,-10.15429 2.67275,-1.98981 75.54637,-44.36961 83.66992,-48.65821 0.93841,-0.49541 1.70438,-0.87186 2.32812,-0.81054 z m 21.21289,0.16211 c 1.68088,-0.64502 86.09487,47.65251 88.78907,50.80078 2.44153,2.85297 2.17978,6.52263 -0.64844,9.12109 -1.31834,1.21123 -6.83084,4.74841 -12.25,7.85938 -5.4192,3.11093 -22.84704,13.12346 -38.73047,22.25 -30.79811,17.69646 -33.8945,18.89681 -37.06445,14.37109 -2.27985,-3.25489 -2.37176,-103.52893 -0.0957,-104.40234 z"
                             style="fill:#ffffff;stroke-width:1.00000012"
                             inkscape:connector-curvature="0" />
                        </g>
                        <path
                           id="path872"
                           transform="matrix(0.41541629,0,0,0.41541629,26.822681,80.584957)"
                           d="m 840.58398,77.625 v 145.31055 h 11.11329 l 3.26757,-13.16797 h 1.1211 c 3.73548,5.10516 8.3416,8.90225 13.82031,11.39258 5.54097,2.42806 11.64307,3.64257 18.30469,3.64257 13.32322,0 23.72044,-4.63761 31.1914,-13.91406 7.53323,-9.33871 11.29883,-22.41298 11.29883,-39.22265 0,-16.80968 -3.73411,-29.79143 -11.20508,-38.94336 -7.40871,-9.2142 -17.83741,-13.82032 -31.28515,-13.82032 -14.19484,0 -24.90307,5.10413 -32.125,15.31446 h -0.74805 c 0.49807,-6.28807 0.74805,-13.38424 0.74805,-21.29102 V 77.625 Z m 45.38477,54.25781 c 9.77452,0 16.99666,3.26955 21.66602,9.80664 4.66935,6.5371 7.0039,16.46584 7.0039,29.78907 0,13.01193 -2.33455,23.00561 -7.0039,29.97851 -4.66936,6.91065 -11.76554,10.36524 -21.29102,10.36524 -10.58387,0 -18.27253,-3.08255 -23.06641,-9.2461 -4.79387,-6.22581 -7.1914,-16.52854 -7.1914,-30.91015 0,-14.38162 2.33455,-24.59183 7.0039,-30.63086 4.66936,-6.10129 12.29504,-9.15235 22.87891,-9.15235 z"
                           style="font-style:normal;font-weight:normal;font-size:79.45118713px;line-height:1.25;font-family:sans-serif;letter-spacing:0px;word-spacing:0px;fill:#ffffff;fill-opacity:1;stroke:none;stroke-width:3.58606529"
                           inkscape:connector-curvature="0" />
                        <path
                           id="path870"
                           transform="matrix(0.41541629,0,0,0.41541629,26.822681,80.584957)"
                           d="m 1299.7676,77.625 v 41.65039 l 0.373,7.19141 0.6543,7.37695 h -1.2148 c -7.4087,-10.08581 -18.054,-15.12891 -31.9375,-15.12891 -13.3232,0 -23.7205,4.66911 -31.1914,14.00782 -7.471,9.33871 -11.2071,22.44447 -11.2071,39.3164 0,16.87194 3.7046,29.88518 11.1133,39.03711 7.471,9.15194 17.8997,13.72656 31.2852,13.72656 14.2571,0 24.9653,-5.1986 32.125,-15.5957 h 0.8398 l 2.0547,13.72852 h 12.6074 V 77.625 Z m -30.3516,54.07031 c 10.5839,0 18.2745,3.11404 23.0684,9.33985 4.8561,6.16355 7.2832,16.49777 7.2832,31.0039 v 3.26953 c 0,12.82517 -2.3976,22.13188 -7.1914,27.92188 -4.7316,5.72774 -12.3888,8.5918 -22.9727,8.5918 -9.2764,0 -16.3116,-3.33058 -21.1055,-9.99219 -4.7938,-6.66162 -7.1914,-16.52932 -7.1914,-29.60352 0,-12.88742 2.3976,-22.8496 7.1914,-29.88476 4.8562,-7.09742 11.8283,-10.64649 20.918,-10.64649 z"
                           style="font-style:normal;font-weight:normal;font-size:79.45118713px;line-height:1.25;font-family:sans-serif;letter-spacing:0px;word-spacing:0px;fill:#ffffff;fill-opacity:1;stroke:none;stroke-width:3.58606529"
                           inkscape:connector-curvature="0" />
                        <path
                           id="path868"
                           transform="matrix(0.41541629,0,0,0.41541629,26.822681,80.584957)"
                           d="m 965.72266,82.574219 c -2.61484,0 -4.79389,0.840516 -6.53711,2.521484 -1.74323,1.61871 -2.61524,4.203243 -2.61524,7.751953 0,3.486452 0.87201,6.100524 2.61524,7.843754 1.74322,1.68096 3.92227,2.52148 6.53711,2.52148 2.49032,0 4.63787,-0.84052 6.44336,-2.52148 1.80548,-1.74323 2.70703,-4.357302 2.70703,-7.843754 0,-3.486452 -0.90155,-6.070985 -2.70703,-7.751953 -1.80549,-1.680968 -3.95304,-2.521484 -6.44336,-2.521484 z"
                           style="font-style:normal;font-weight:normal;font-size:79.45118713px;line-height:1.25;font-family:sans-serif;letter-spacing:0px;word-spacing:0px;fill:#ffffff;fill-opacity:1;stroke:none;stroke-width:3.58606529"
                           inkscape:connector-curvature="0" />
                        <path
                           id="path866"
                           transform="matrix(0.41541629,0,0,0.41541629,26.822681,80.584957)"
                           d="m 468.99609,116.56836 c -16.12484,0 -28.63811,4.73013 -37.54101,14.19336 -8.90291,9.46323 -13.35547,22.72449 -13.35547,39.7832 0,10.95742 2.05503,20.54561 6.16406,28.76367 4.10903,8.21807 9.99265,14.53671 17.65039,18.95703 7.65775,4.35808 16.49794,6.53711 26.52149,6.53711 16.00032,0 28.48405,-4.79311 37.44922,-14.38085 8.96516,-9.58776 13.44726,-22.8805 13.44726,-39.87696 0,-10.95742 -2.05503,-20.51411 -6.16406,-28.66992 -4.10903,-8.15581 -9.99265,-14.41147 -17.65039,-18.76953 -7.65774,-4.35807 -16.49794,-6.53711 -26.52149,-6.53711 z m -0.37304,22.97266 c 7.65774,0 13.16736,2.58258 16.52929,7.75 3.36194,5.16742 5.04297,12.91906 5.04297,23.2539 0,10.3971 -1.68103,18.24127 -5.04297,23.5332 -3.29967,5.22969 -8.74826,7.84571 -16.34375,7.84571 -7.65774,0 -13.19885,-2.64557 -16.62304,-7.9375 -3.36194,-5.29194 -5.04297,-13.10657 -5.04297,-23.44141 0,-10.3971 1.68103,-18.14874 5.04297,-23.2539 3.36193,-5.16742 8.84201,-7.75 16.4375,-7.75 z"
                           style="font-style:normal;font-weight:normal;font-size:79.45118713px;line-height:1.25;font-family:sans-serif;letter-spacing:0px;word-spacing:0px;fill:#2684ff;fill-opacity:1;stroke:none;stroke-width:3.58606529"
                           inkscape:connector-curvature="0" />
                        <path
                           id="path864"
                           transform="matrix(0.41541629,0,0,0.41541629,26.822681,80.584957)"
                           d="m 587.41016,116.56836 c -16.12484,0 -28.63812,4.73013 -37.54102,14.19336 -8.9029,9.46323 -13.35352,22.72449 -13.35352,39.7832 0,10.95742 2.05308,20.54561 6.16211,28.76367 4.10904,8.21807 9.99265,14.53671 17.65039,18.95703 7.65776,4.35808 16.49989,6.53711 26.52344,6.53711 16.00033,0 28.48211,-4.79311 37.44727,-14.38085 8.96516,-9.58776 13.44726,-22.8805 13.44726,-39.87696 0,-10.95742 -2.05307,-20.51411 -6.16211,-28.66992 -4.10903,-8.15581 -9.99264,-14.41147 -17.65039,-18.76953 -7.65774,-4.35807 -16.49988,-6.53711 -26.52343,-6.53711 z m -0.37305,22.97266 c 7.65774,0 13.16736,2.58258 16.5293,7.75 3.36193,5.16742 5.04296,12.91906 5.04297,23.2539 0,10.3971 -1.68104,18.24127 -5.04297,23.5332 -3.29968,5.22969 -8.74632,7.84571 -16.3418,7.84571 -7.65774,0 -13.19885,-2.64557 -16.62305,-7.9375 -3.36193,-5.29194 -5.04297,-13.10657 -5.04297,-23.44141 0,-10.3971 1.68104,-18.14874 5.04297,-23.2539 3.36194,-5.16742 8.84006,-7.75 16.43555,-7.75 z"
                           style="font-style:normal;font-weight:normal;font-size:79.45118713px;line-height:1.25;font-family:sans-serif;letter-spacing:0px;word-spacing:0px;fill:#2684ff;fill-opacity:1;stroke:none;stroke-width:3.58606529"
                           inkscape:connector-curvature="0" />
                        <path
                           id="path862"
                           transform="matrix(0.41541629,0,0,0.41541629,26.822681,80.584957)"
                           d="m 376.73047,118.71484 c -15.25323,0 -27.02046,4.66911 -35.30078,14.00782 -8.21807,9.33871 -12.32813,22.56848 -12.32813,39.68945 0,16.68516 4.04708,29.60392 12.14063,38.75586 8.1558,9.08968 19.64351,13.63476 34.46093,13.63476 10.3971,0 19.0188,-1.77355 25.86719,-5.32226 v -13.72852 c -8.96516,3.67323 -17.71283,5.50977 -26.24219,5.50977 -9.96129,0 -17.49444,-3.36207 -22.5996,-10.08594 -5.04291,-6.72387 -7.56446,-16.37309 -7.56446,-28.94922 0,-26.52194 10.39721,-39.7832 31.19141,-39.7832 3.1129,0 6.69346,0.46652 10.74023,1.40039 4.04678,0.87161 7.78284,1.9936 11.20703,3.36328 l 4.76172,-13.16797 c -2.80161,-1.43193 -6.66169,-2.67794 -11.58007,-3.73633 -4.91839,-1.05838 -9.83552,-1.58789 -14.75391,-1.58789 z"
                           style="font-style:normal;font-weight:normal;font-size:79.45118713px;line-height:1.25;font-family:sans-serif;letter-spacing:0px;word-spacing:0px;fill:#ffffff;fill-opacity:1;stroke:none;stroke-width:3.58606529"
                           inkscape:connector-curvature="0" />
                        <path
                           id="path860"
                           transform="matrix(0.41541629,0,0,0.41541629,26.822681,80.584957)"
                           d="m 708.9082,118.71484 c -6.59935,0 -12.57744,1.40152 -17.93164,4.20313 -5.29193,2.80161 -9.40004,6.69318 -12.32617,11.67383 h -0.74805 l -2.52148,-14.00782 h -12.60742 v 102.35157 h 15.5039 v -53.69727 c 0,-13.26097 2.24008,-22.78617 6.72266,-28.57617 4.54484,-5.85226 11.67446,-8.7793 21.38672,-8.7793 7.40871,0 12.85534,2.05503 16.3418,6.16407 3.48645,4.04677 5.23046,10.14692 5.23046,18.30273 v 66.58594 h 15.50196 V 165.7832 c 0,-11.51774 2.30306,-20.04692 6.91015,-25.58789 4.6071,-5.54097 11.73672,-8.3125 21.38672,-8.3125 7.34645,0 12.7616,2.05503 16.24805,6.16407 3.48645,4.04677 5.23047,10.14692 5.23047,18.30273 v 66.58594 h 15.50195 v -66.77149 c 0,-13.07419 -2.89555,-22.56986 -8.68555,-28.48437 -5.72774,-5.97678 -14.38093,-8.96485 -25.96093,-8.96485 -7.40871,0 -14.00883,1.55702 -19.79883,4.66993 -5.79,3.1129 -10.20912,7.34697 -13.25977,12.70117 h -0.74804 c -4.91839,-11.58 -15.37663,-17.3711 -31.37696,-17.3711 z"
                           style="font-style:normal;font-weight:normal;font-size:79.45118713px;line-height:1.25;font-family:sans-serif;letter-spacing:0px;word-spacing:0px;fill:#ffffff;fill-opacity:1;stroke:none;stroke-width:3.58606529"
                           inkscape:connector-curvature="0" />
                        <path
                           id="path858"
                           transform="matrix(0.41541629,0,0,0.41541629,26.822681,80.584957)"
                           d="m 1054.8125,118.71484 c -7.0352,0 -13.4148,1.40152 -19.1426,4.20313 -5.7277,2.73935 -10.1803,6.63092 -13.3554,11.67383 h -0.7461 l -2.5215,-14.00782 h -12.6074 v 102.35157 h 15.5019 v -53.69727 c 0,-13.32323 2.4901,-22.87992 7.4707,-28.66992 4.9807,-5.79 12.8248,-8.68555 23.5332,-8.68555 8.0936,0 14.0402,2.05503 17.8379,6.16407 3.7977,4.10903 5.6953,10.33515 5.6953,18.67773 v 66.21094 h 15.502 v -66.77149 c 0,-13.07419 -3.1121,-22.56986 -9.3379,-28.48437 -6.2258,-5.97678 -15.503,-8.96485 -27.8301,-8.96485 z"
                           style="font-style:normal;font-weight:normal;font-size:79.45118713px;line-height:1.25;font-family:sans-serif;letter-spacing:0px;word-spacing:0px;fill:#ffffff;fill-opacity:1;stroke:none;stroke-width:3.58606529"
                           inkscape:connector-curvature="0" />
                        <path
                           id="path856"
                           transform="matrix(0.41541629,0,0,0.41541629,26.822681,80.584957)"
                           d="m 1162.9551,118.71484 c -13.6968,0 -24.6216,4.8561 -32.7774,14.56836 -8.0935,9.71226 -12.1406,22.81802 -12.1406,39.31641 0,16.37387 4.3581,29.16862 13.0742,38.38281 8.7784,9.2142 20.7307,13.82031 35.8594,13.82031 6.9106,0 12.7943,-0.5295 17.6504,-1.58789 4.9184,-0.99613 10.117,-2.67716 15.5957,-5.04296 v -13.82032 c -10.7706,4.6071 -21.6658,6.91016 -32.6856,6.91016 -10.4593,0 -18.583,-3.11208 -24.373,-9.33789 -5.7277,-6.22581 -8.7473,-15.34748 -9.0586,-27.36328 h 70.5059 v -9.80469 c 0,-13.82129 -3.7341,-24.935 -11.2051,-33.33984 -7.471,-8.4671 -17.6202,-12.70118 -30.4453,-12.70118 z m -0.1856,12.98047 c 8.0936,0 14.3177,2.61603 18.6758,7.84571 4.3581,5.16742 6.5371,12.63759 6.5371,22.4121 h -53.5097 c 0.8716,-9.46322 3.7356,-16.87041 8.5918,-22.2246 4.9183,-5.3542 11.487,-8.03321 19.705,-8.03321 z"
                           style="font-style:normal;font-weight:normal;font-size:79.45118713px;line-height:1.25;font-family:sans-serif;letter-spacing:0px;word-spacing:0px;fill:#ffffff;fill-opacity:1;stroke:none;stroke-width:3.58606529"
                           inkscape:connector-curvature="0" />
                        <path
                           id="path854"
                           transform="matrix(0.41541629,0,0,0.41541629,26.822681,80.584957)"
                           d="m 957.87695,120.58398 v 102.35157 h 15.50196 V 120.58398 Z"
                           style="font-style:normal;font-weight:normal;font-size:79.45118713px;line-height:1.25;font-family:sans-serif;letter-spacing:0px;word-spacing:0px;fill:#ffffff;fill-opacity:1;stroke:none;stroke-width:3.58606529"
                           inkscape:connector-curvature="0" />
                      </g>
                    </g>
                  </g>
                </g>
              </g>
            </g>
          </g>
        </g>
      </g>
    </g>
  </g>
</svg>
